%TF.GenerationSoftware,KiCad,Pcbnew,8.0.6*%
%TF.CreationDate,2024-11-16T14:05:28-06:00*%
%TF.ProjectId,ATesp32,41546573-7033-4322-9e6b-696361645f70,rev?*%
%TF.SameCoordinates,PX47868c0PY2faf080*%
%TF.FileFunction,Copper,L3,Inr*%
%TF.FilePolarity,Positive*%
%FSLAX46Y46*%
G04 Gerber Fmt 4.6, Leading zero omitted, Abs format (unit mm)*
G04 Created by KiCad (PCBNEW 8.0.6) date 2024-11-16 14:05:28*
%MOMM*%
%LPD*%
G01*
G04 APERTURE LIST*
%TA.AperFunction,ComponentPad*%
%ADD10R,1.600000X1.600000*%
%TD*%
%TA.AperFunction,ComponentPad*%
%ADD11O,1.600000X1.600000*%
%TD*%
%TA.AperFunction,ComponentPad*%
%ADD12O,1.000000X2.100000*%
%TD*%
%TA.AperFunction,ComponentPad*%
%ADD13O,1.000000X1.800000*%
%TD*%
%TA.AperFunction,ViaPad*%
%ADD14C,0.300000*%
%TD*%
%TA.AperFunction,Conductor*%
%ADD15C,0.200000*%
%TD*%
G04 APERTURE END LIST*
D10*
%TO.N,PB0*%
%TO.C,U2*%
X1380000Y-1370000D03*
D11*
%TO.N,PB1*%
X1380000Y-3910000D03*
%TO.N,PB2*%
X1380000Y-6450000D03*
%TO.N,PB3*%
X1380000Y-8990000D03*
%TO.N,PB4*%
X1380000Y-11530000D03*
%TO.N,PB5*%
X1380000Y-14070000D03*
%TO.N,PB6*%
X1380000Y-16610000D03*
%TO.N,PB7*%
X1380000Y-19150000D03*
%TO.N,unconnected-(U2-~{RESET}-Pad9)*%
X1380000Y-21690000D03*
%TO.N,+5V*%
X1380000Y-24230000D03*
%TO.N,GND*%
X1380000Y-26770000D03*
%TO.N,unconnected-(U2-XTAL2-Pad12)*%
X1380000Y-29310000D03*
%TO.N,unconnected-(U2-XTAL1-Pad13)*%
X1380000Y-31850000D03*
%TO.N,PD0*%
X1380000Y-34390000D03*
%TO.N,PD1*%
X1380000Y-36930000D03*
%TO.N,D_P*%
X1380000Y-39470000D03*
%TO.N,D_N*%
X1380000Y-42010000D03*
%TO.N,PD4*%
X1380000Y-44550000D03*
%TO.N,PD5*%
X1380000Y-47090000D03*
%TO.N,PD6*%
X1380000Y-49630000D03*
%TO.N,PD7*%
X16620000Y-49630000D03*
%TO.N,PC0*%
X16620000Y-47090000D03*
%TO.N,PC1*%
X16620000Y-44550000D03*
%TO.N,PC2*%
X16620000Y-42010000D03*
%TO.N,PC3*%
X16620000Y-39470000D03*
%TO.N,PC4*%
X16620000Y-36930000D03*
%TO.N,PC5*%
X16620000Y-34390000D03*
%TO.N,PC6*%
X16620000Y-31850000D03*
%TO.N,PC7*%
X16620000Y-29310000D03*
%TO.N,+5V*%
X16620000Y-26770000D03*
%TO.N,GND*%
X16620000Y-24230000D03*
%TO.N,unconnected-(U2-AREF-Pad32)*%
X16620000Y-21690000D03*
%TO.N,PA7*%
X16620000Y-19150000D03*
%TO.N,PA6*%
X16620000Y-16610000D03*
%TO.N,PA5*%
X16620000Y-14070000D03*
%TO.N,PA4*%
X16620000Y-11530000D03*
%TO.N,PA3*%
X16620000Y-8990000D03*
%TO.N,PA2*%
X16620000Y-6450000D03*
%TO.N,PA1*%
X16620000Y-3910000D03*
%TO.N,PA0*%
X16620000Y-1370000D03*
%TD*%
D12*
%TO.N,GND*%
%TO.C,J1*%
X4680000Y-45480000D03*
D13*
X4680000Y-49680000D03*
D12*
X13320000Y-45480000D03*
D13*
X13320000Y-49680000D03*
%TD*%
D14*
%TO.N,GND*%
X5000000Y-17000000D03*
X4250000Y-9500000D03*
X6250000Y-6000000D03*
X4500000Y-7500000D03*
X9000000Y-7000000D03*
X9000000Y-6000000D03*
X4000000Y-6500000D03*
X4500000Y-8000000D03*
X4000000Y-7500000D03*
X6000000Y-12500000D03*
X12800000Y-17200000D03*
X6000000Y-11000000D03*
X6250000Y-6500000D03*
X9750000Y-32000000D03*
X13500000Y-10250000D03*
X12800000Y-10500000D03*
X7500000Y-19750000D03*
X13250000Y-21000000D03*
X4000000Y-8000000D03*
X14500000Y-9750000D03*
X6000000Y-17500000D03*
X7500000Y-15750000D03*
X6000000Y-19250000D03*
X9250000Y-32500000D03*
X7500000Y-20250000D03*
X6000000Y-11500000D03*
X3400000Y-33700000D03*
X9000000Y-8500000D03*
X12500000Y-37850000D03*
X9000000Y-8000000D03*
X11250000Y-34250000D03*
X7000000Y-9300000D03*
X3750000Y-8500000D03*
X6000000Y-17000000D03*
X6000000Y-13000000D03*
X12750000Y-20500000D03*
X7500000Y-17750000D03*
X7500000Y-22750000D03*
X9500000Y-6000000D03*
X4500000Y-7000000D03*
X8750000Y-33000000D03*
X7500000Y-11250000D03*
X6600000Y-8900000D03*
X6250000Y-7000000D03*
X7500000Y-15250000D03*
X7500000Y-21750000D03*
X6000000Y-20750000D03*
X6000000Y-16500000D03*
X14500000Y-10250000D03*
X4750000Y-9500000D03*
X7500000Y-11750000D03*
X15100000Y-16500000D03*
X7500000Y-17250000D03*
X9000000Y-9500000D03*
X6000000Y-16000000D03*
X7500000Y-14250000D03*
X5105000Y-42068177D03*
X13500000Y-26250000D03*
X10250000Y-31500000D03*
X7500000Y-13750000D03*
X3750000Y-5500000D03*
X6000000Y-13500000D03*
X6250000Y-5500000D03*
X9000000Y-6500000D03*
X13500000Y-44000000D03*
X10750000Y-31000000D03*
X9000000Y-9000000D03*
X6250000Y-8500000D03*
X11750000Y-21250000D03*
X6000000Y-12000000D03*
X13000000Y-44000000D03*
X13500000Y-9750000D03*
X6740000Y-42510000D03*
X8798959Y-22798958D03*
X12750000Y-26500000D03*
X6000000Y-20250000D03*
X11250000Y-30500000D03*
X7500000Y-22250000D03*
X14000000Y-9750000D03*
X7500000Y-9750000D03*
X4500000Y-6500000D03*
X5250000Y-9500000D03*
X7500000Y-12750000D03*
X6250000Y-8000000D03*
X12000000Y-37850000D03*
X3750000Y-6000000D03*
X14000000Y-26750000D03*
X7500000Y-16250000D03*
X11250000Y-21250000D03*
X3750000Y-9000000D03*
X14000000Y-10250000D03*
X8259699Y-42741807D03*
X7500000Y-10250000D03*
X7500000Y-18750000D03*
X6000000Y-15500000D03*
X6000000Y-10500000D03*
X7500000Y-23250000D03*
X7500000Y-21250000D03*
X7500000Y-23750000D03*
X7500000Y-16750000D03*
X4000000Y-7000000D03*
X6000000Y-19750000D03*
X7500000Y-19250000D03*
X7500000Y-13250000D03*
X7500000Y-14750000D03*
X10000000Y-6000000D03*
X6250000Y-7500000D03*
X7500000Y-18250000D03*
X4000000Y-24400000D03*
X7500000Y-12250000D03*
X7500000Y-10750000D03*
X12250000Y-26000000D03*
X7500000Y-20750000D03*
X9000000Y-7500000D03*
%TO.N,+3V3*%
X4000000Y-23650000D03*
X12750000Y-15250000D03*
X12750000Y-15750000D03*
X5000000Y-16000000D03*
X7900000Y-24900000D03*
X8300000Y-24500000D03*
X12750000Y-16250000D03*
X4000000Y-32200000D03*
X12275521Y-27474479D03*
%TO.N,+5V*%
X9000000Y-17000000D03*
X12750000Y-13500000D03*
X11500000Y-42250000D03*
X9000000Y-15000000D03*
X11500000Y-41750000D03*
X6000000Y-41750000D03*
X6000000Y-40750000D03*
X12750000Y-41500000D03*
X12000000Y-41500000D03*
X4550000Y-40700000D03*
X9000000Y-14500000D03*
X9000000Y-17500000D03*
X5350000Y-41450000D03*
X6000000Y-41250000D03*
X9000000Y-14000000D03*
X12750000Y-14250000D03*
X14600000Y-14000000D03*
X8500000Y-17000000D03*
%TO.N,Net-(U1-CHIP_PU)*%
X4875000Y-11675000D03*
X6002164Y-25595753D03*
%TO.N,Net-(U5-VDD)*%
X12500000Y-38500000D03*
X10800000Y-42500000D03*
X11900000Y-38500000D03*
X10800000Y-42000000D03*
%TO.N,Net-(J1-CC2)*%
X10618644Y-45773305D03*
X3225000Y-44600521D03*
%TO.N,D+*%
X8750000Y-45650000D03*
X9750000Y-45650000D03*
%TO.N,Net-(JP4-B)*%
X6916960Y-32509491D03*
X4875000Y-21187500D03*
X5576046Y-25857334D03*
%TO.N,Net-(JP6-B)*%
X12800000Y-35000000D03*
%TO.N,PD7*%
X11036315Y-26836315D03*
%TO.N,UART_RX*%
X10197783Y-28624232D03*
%TO.N,Net-(JP7-A)*%
X6000000Y-39900000D03*
%TO.N,UART_TX*%
X7500000Y-37000000D03*
%TO.N,Net-(JP8-A)*%
X6500000Y-39400000D03*
%TO.N,Net-(U1-U0TXD)*%
X10750000Y-28650000D03*
X9100000Y-36300000D03*
%TO.N,PA2*%
X3568844Y-29031156D03*
%TO.N,PB2*%
X4375000Y-26100000D03*
%TO.N,PA5*%
X5379667Y-30478626D03*
%TO.N,PA1*%
X3600156Y-28532137D03*
%TO.N,PD6*%
X9729961Y-28142669D03*
%TO.N,PA4*%
X5026112Y-30125070D03*
%TO.N,PB1*%
X4800000Y-26370030D03*
%TO.N,PA6*%
X5745769Y-30819172D03*
%TO.N,PB6*%
X6100000Y-31800000D03*
%TO.N,PA7*%
X6086315Y-31185274D03*
%TO.N,PB0*%
X5314464Y-26283453D03*
%TO.N,D_N*%
X6275000Y-35568167D03*
%TO.N,D_P*%
X5825000Y-35100000D03*
%TO.N,PA0*%
X3684530Y-28015470D03*
%TO.N,PB3*%
X3950000Y-26513173D03*
%TO.N,PA3*%
X4672557Y-29771515D03*
%TO.N,PB7*%
X6456528Y-32180093D03*
%TD*%
D15*
%TO.N,D_N*%
X1380000Y-41120000D02*
X1380000Y-42010000D01*
X6275000Y-35568167D02*
X6275000Y-36225000D01*
X6275000Y-36225000D02*
X1380000Y-41120000D01*
%TO.N,D_P*%
X3454520Y-38479793D02*
X3393748Y-38540566D01*
X3202622Y-37718778D02*
X3539372Y-38055528D01*
X5825000Y-35100000D02*
X5825000Y-36109314D01*
X4886394Y-37047919D02*
X4843644Y-37090670D01*
X3963637Y-37631265D02*
X3626886Y-37294514D01*
X4843644Y-37090670D02*
X4303049Y-37631265D01*
X3393748Y-38540566D02*
X2464314Y-39470000D01*
X5395511Y-36199391D02*
X5027815Y-35831695D01*
X2464314Y-39470000D02*
X1380000Y-39470000D01*
X4971246Y-36963065D02*
X4886394Y-37047919D01*
X3287475Y-37294514D02*
X3202622Y-37379366D01*
X3539372Y-38394939D02*
X3454520Y-38479793D01*
X5825000Y-36109314D02*
X5734923Y-36199391D01*
X4603551Y-36255959D02*
X4971246Y-36623654D01*
X4688404Y-35831695D02*
X4603551Y-35916547D01*
X3539372Y-38055528D02*
G75*
G02*
X3539339Y-38394905I-169672J-169672D01*
G01*
X4303049Y-37631265D02*
G75*
G02*
X3963637Y-37631265I-169706J169704D01*
G01*
X4603551Y-35916547D02*
G75*
G03*
X4603504Y-36256006I169749J-169753D01*
G01*
X3202622Y-37379366D02*
G75*
G03*
X3202594Y-37718806I169678J-169734D01*
G01*
X5027815Y-35831695D02*
G75*
G03*
X4688405Y-35831695I-169705J-169703D01*
G01*
X3626886Y-37294514D02*
G75*
G03*
X3287474Y-37294513I-169706J-169703D01*
G01*
X4971246Y-36623654D02*
G75*
G02*
X4971287Y-36963105I-169746J-169746D01*
G01*
X5734923Y-36199391D02*
G75*
G02*
X5395511Y-36199391I-169706J169704D01*
G01*
%TD*%
%TA.AperFunction,Conductor*%
%TO.N,+3V3*%
G36*
X6943039Y-14269685D02*
G01*
X6988794Y-14322489D01*
X7000000Y-14374000D01*
X7000000Y-18000000D01*
X7004606Y-18004606D01*
X7055957Y-18019685D01*
X7101712Y-18072489D01*
X7111656Y-18141647D01*
X7111391Y-18143397D01*
X7094508Y-18249996D01*
X7094508Y-18250003D01*
X7114352Y-18375300D01*
X7114353Y-18375304D01*
X7149206Y-18443706D01*
X7162102Y-18512375D01*
X7149206Y-18556294D01*
X7114353Y-18624695D01*
X7114352Y-18624699D01*
X7094508Y-18749996D01*
X7094508Y-18750003D01*
X7114352Y-18875300D01*
X7114353Y-18875304D01*
X7149206Y-18943706D01*
X7162102Y-19012375D01*
X7149206Y-19056294D01*
X7114353Y-19124695D01*
X7114352Y-19124699D01*
X7094508Y-19249996D01*
X7094508Y-19250003D01*
X7114352Y-19375300D01*
X7114353Y-19375304D01*
X7149206Y-19443706D01*
X7162102Y-19512375D01*
X7149206Y-19556294D01*
X7114353Y-19624695D01*
X7114352Y-19624699D01*
X7094508Y-19749996D01*
X7094508Y-19750003D01*
X7114352Y-19875300D01*
X7114353Y-19875304D01*
X7149206Y-19943706D01*
X7162102Y-20012375D01*
X7149206Y-20056294D01*
X7114353Y-20124695D01*
X7114352Y-20124699D01*
X7094508Y-20249996D01*
X7094508Y-20250003D01*
X7114352Y-20375300D01*
X7114353Y-20375304D01*
X7149206Y-20443706D01*
X7162102Y-20512375D01*
X7149206Y-20556294D01*
X7114353Y-20624695D01*
X7114352Y-20624699D01*
X7094508Y-20749996D01*
X7094508Y-20750003D01*
X7114352Y-20875300D01*
X7114353Y-20875304D01*
X7149206Y-20943706D01*
X7162102Y-21012375D01*
X7149206Y-21056294D01*
X7114353Y-21124695D01*
X7114352Y-21124699D01*
X7094508Y-21249996D01*
X7094508Y-21250003D01*
X7114352Y-21375300D01*
X7114353Y-21375304D01*
X7149206Y-21443706D01*
X7162102Y-21512375D01*
X7149206Y-21556294D01*
X7114353Y-21624695D01*
X7114352Y-21624699D01*
X7094508Y-21749996D01*
X7094508Y-21750003D01*
X7114352Y-21875300D01*
X7114353Y-21875304D01*
X7149206Y-21943706D01*
X7162102Y-22012375D01*
X7149206Y-22056294D01*
X7114353Y-22124695D01*
X7114352Y-22124699D01*
X7094508Y-22249996D01*
X7094508Y-22250003D01*
X7114352Y-22375300D01*
X7114353Y-22375304D01*
X7149206Y-22443706D01*
X7162102Y-22512375D01*
X7149206Y-22556294D01*
X7114353Y-22624695D01*
X7114352Y-22624699D01*
X7094508Y-22749996D01*
X7094508Y-22750003D01*
X7114352Y-22875300D01*
X7114353Y-22875304D01*
X7149206Y-22943706D01*
X7162102Y-23012375D01*
X7149206Y-23056294D01*
X7114353Y-23124695D01*
X7114352Y-23124699D01*
X7094508Y-23249996D01*
X7094508Y-23250003D01*
X7114352Y-23375300D01*
X7114353Y-23375304D01*
X7149206Y-23443706D01*
X7162102Y-23512375D01*
X7149206Y-23556294D01*
X7114353Y-23624695D01*
X7114352Y-23624699D01*
X7094508Y-23749996D01*
X7094508Y-23750003D01*
X7114352Y-23875300D01*
X7114352Y-23875301D01*
X7114354Y-23875304D01*
X7171950Y-23988342D01*
X7171952Y-23988344D01*
X7171954Y-23988347D01*
X7261652Y-24078045D01*
X7261654Y-24078046D01*
X7261658Y-24078050D01*
X7374696Y-24135646D01*
X7374697Y-24135646D01*
X7374699Y-24135647D01*
X7499997Y-24155492D01*
X7500000Y-24155492D01*
X7500003Y-24155492D01*
X7625300Y-24135647D01*
X7625301Y-24135647D01*
X7625302Y-24135646D01*
X7625304Y-24135646D01*
X7738342Y-24078050D01*
X7828050Y-23988342D01*
X7885646Y-23875304D01*
X7885646Y-23875302D01*
X7885647Y-23875301D01*
X7885647Y-23875300D01*
X7905492Y-23750003D01*
X7905492Y-23749996D01*
X7885647Y-23624699D01*
X7885646Y-23624696D01*
X7850794Y-23556296D01*
X7837897Y-23487626D01*
X7850794Y-23443704D01*
X7885646Y-23375304D01*
X7905492Y-23250000D01*
X7905492Y-23249996D01*
X7885647Y-23124699D01*
X7885646Y-23124696D01*
X7850794Y-23056296D01*
X7837897Y-22987626D01*
X7850794Y-22943704D01*
X7885646Y-22875304D01*
X7885647Y-22875300D01*
X7897739Y-22798954D01*
X8393467Y-22798954D01*
X8393467Y-22798961D01*
X8413311Y-22924258D01*
X8413311Y-22924259D01*
X8413313Y-22924262D01*
X8470909Y-23037300D01*
X8470911Y-23037302D01*
X8470913Y-23037305D01*
X8560611Y-23127003D01*
X8560613Y-23127004D01*
X8560617Y-23127008D01*
X8673655Y-23184604D01*
X8673656Y-23184604D01*
X8673658Y-23184605D01*
X8798956Y-23204450D01*
X8798959Y-23204450D01*
X8798962Y-23204450D01*
X8924259Y-23184605D01*
X8924260Y-23184605D01*
X8924261Y-23184604D01*
X8924263Y-23184604D01*
X9037301Y-23127008D01*
X9127009Y-23037300D01*
X9184605Y-22924262D01*
X9184605Y-22924260D01*
X9184606Y-22924259D01*
X9184606Y-22924258D01*
X9204451Y-22798961D01*
X9204451Y-22798954D01*
X9184606Y-22673657D01*
X9184606Y-22673656D01*
X9184605Y-22673654D01*
X9127009Y-22560616D01*
X9127005Y-22560612D01*
X9127004Y-22560610D01*
X9037306Y-22470912D01*
X9037303Y-22470910D01*
X9037301Y-22470908D01*
X8924263Y-22413312D01*
X8924262Y-22413311D01*
X8924259Y-22413310D01*
X8798962Y-22393466D01*
X8798956Y-22393466D01*
X8673658Y-22413310D01*
X8673657Y-22413310D01*
X8598296Y-22451709D01*
X8560617Y-22470908D01*
X8560616Y-22470909D01*
X8560611Y-22470912D01*
X8470913Y-22560610D01*
X8470910Y-22560615D01*
X8413311Y-22673656D01*
X8413311Y-22673657D01*
X8393467Y-22798954D01*
X7897739Y-22798954D01*
X7905492Y-22750003D01*
X7905492Y-22749996D01*
X7885647Y-22624699D01*
X7885646Y-22624696D01*
X7850794Y-22556296D01*
X7837897Y-22487626D01*
X7850794Y-22443704D01*
X7885646Y-22375304D01*
X7905492Y-22250000D01*
X7905492Y-22249996D01*
X7885647Y-22124699D01*
X7885646Y-22124696D01*
X7850794Y-22056296D01*
X7837897Y-21987626D01*
X7850794Y-21943704D01*
X7885646Y-21875304D01*
X7905492Y-21750000D01*
X7905492Y-21749996D01*
X7885647Y-21624699D01*
X7885646Y-21624696D01*
X7866896Y-21587897D01*
X7850793Y-21556295D01*
X7837897Y-21487626D01*
X7850794Y-21443704D01*
X7880376Y-21385646D01*
X7885646Y-21375304D01*
X7885646Y-21375302D01*
X7885647Y-21375300D01*
X7905492Y-21250003D01*
X7905492Y-21249996D01*
X10844508Y-21249996D01*
X10844508Y-21250003D01*
X10864352Y-21375300D01*
X10864352Y-21375301D01*
X10879736Y-21405492D01*
X10921950Y-21488342D01*
X10921952Y-21488344D01*
X10921954Y-21488347D01*
X11011652Y-21578045D01*
X11011654Y-21578046D01*
X11011658Y-21578050D01*
X11124696Y-21635646D01*
X11124697Y-21635646D01*
X11124699Y-21635647D01*
X11249997Y-21655492D01*
X11250000Y-21655492D01*
X11250003Y-21655492D01*
X11375300Y-21635647D01*
X11375302Y-21635646D01*
X11375304Y-21635646D01*
X11443704Y-21600793D01*
X11512374Y-21587897D01*
X11556294Y-21600793D01*
X11624696Y-21635646D01*
X11624699Y-21635647D01*
X11749997Y-21655492D01*
X11750000Y-21655492D01*
X11750003Y-21655492D01*
X11875300Y-21635647D01*
X11875301Y-21635647D01*
X11875302Y-21635646D01*
X11875304Y-21635646D01*
X11988342Y-21578050D01*
X12078050Y-21488342D01*
X12135646Y-21375304D01*
X12135646Y-21375302D01*
X12135647Y-21375301D01*
X12135647Y-21375300D01*
X12155492Y-21250003D01*
X12155492Y-21249996D01*
X12135647Y-21124699D01*
X12135647Y-21124698D01*
X12135645Y-21124695D01*
X12078050Y-21011658D01*
X12078046Y-21011654D01*
X12078045Y-21011652D01*
X11988347Y-20921954D01*
X11988344Y-20921952D01*
X11988342Y-20921950D01*
X11875304Y-20864354D01*
X11875303Y-20864353D01*
X11875300Y-20864352D01*
X11750003Y-20844508D01*
X11749997Y-20844508D01*
X11624699Y-20864352D01*
X11624695Y-20864353D01*
X11556294Y-20899206D01*
X11487625Y-20912102D01*
X11443706Y-20899206D01*
X11375304Y-20864353D01*
X11375300Y-20864352D01*
X11250003Y-20844508D01*
X11249997Y-20844508D01*
X11124699Y-20864352D01*
X11124698Y-20864352D01*
X11078865Y-20887706D01*
X11011658Y-20921950D01*
X11011657Y-20921951D01*
X11011652Y-20921954D01*
X10921954Y-21011652D01*
X10921951Y-21011657D01*
X10864352Y-21124698D01*
X10864352Y-21124699D01*
X10844508Y-21249996D01*
X7905492Y-21249996D01*
X7885647Y-21124699D01*
X7885646Y-21124696D01*
X7885645Y-21124695D01*
X7850793Y-21056295D01*
X7837897Y-20987626D01*
X7850794Y-20943704D01*
X7855938Y-20933608D01*
X7885646Y-20875304D01*
X7885646Y-20875302D01*
X7885647Y-20875300D01*
X7905492Y-20750003D01*
X7905492Y-20749996D01*
X7885647Y-20624699D01*
X7885646Y-20624696D01*
X7850794Y-20556296D01*
X7837897Y-20487626D01*
X7850794Y-20443704D01*
X7885646Y-20375304D01*
X7885742Y-20374698D01*
X7905492Y-20250003D01*
X7905492Y-20249996D01*
X7885647Y-20124699D01*
X7885646Y-20124696D01*
X7850794Y-20056296D01*
X7837897Y-19987626D01*
X7850794Y-19943704D01*
X7885646Y-19875304D01*
X7905492Y-19750000D01*
X7905492Y-19749996D01*
X7885647Y-19624699D01*
X7885646Y-19624696D01*
X7850794Y-19556296D01*
X7837897Y-19487626D01*
X7850794Y-19443704D01*
X7885646Y-19375304D01*
X7905492Y-19250000D01*
X7905492Y-19249996D01*
X7885647Y-19124699D01*
X7885646Y-19124696D01*
X7850794Y-19056296D01*
X7837897Y-18987626D01*
X7850794Y-18943704D01*
X7885646Y-18875304D01*
X7885647Y-18875300D01*
X7905492Y-18750003D01*
X7905492Y-18749996D01*
X7885647Y-18624699D01*
X7885646Y-18624696D01*
X7850794Y-18556296D01*
X7837897Y-18487626D01*
X7850794Y-18443704D01*
X7885646Y-18375304D01*
X7905492Y-18250000D01*
X7905492Y-18249996D01*
X7888609Y-18143397D01*
X7897564Y-18074104D01*
X7942560Y-18020652D01*
X8009312Y-18000013D01*
X8011082Y-18000000D01*
X9500000Y-18000000D01*
X9500000Y-15124000D01*
X9519685Y-15056961D01*
X9572489Y-15011206D01*
X9624000Y-15000000D01*
X12876000Y-15000000D01*
X12943039Y-15019685D01*
X12988794Y-15072489D01*
X13000000Y-15124000D01*
X13000000Y-16680999D01*
X12980315Y-16748038D01*
X12927511Y-16793793D01*
X12858353Y-16803737D01*
X12856603Y-16803473D01*
X12800000Y-16794508D01*
X12799998Y-16794508D01*
X12799997Y-16794508D01*
X12674699Y-16814352D01*
X12674698Y-16814352D01*
X12599337Y-16852751D01*
X12561658Y-16871950D01*
X12561657Y-16871951D01*
X12561652Y-16871954D01*
X12471954Y-16961652D01*
X12471951Y-16961657D01*
X12414352Y-17074698D01*
X12414352Y-17074699D01*
X12394508Y-17199996D01*
X12394508Y-17200003D01*
X12414352Y-17325300D01*
X12414352Y-17325301D01*
X12415752Y-17328048D01*
X12471950Y-17438342D01*
X12471952Y-17438344D01*
X12471954Y-17438347D01*
X12561652Y-17528045D01*
X12561654Y-17528046D01*
X12561658Y-17528050D01*
X12674696Y-17585646D01*
X12674697Y-17585646D01*
X12674699Y-17585647D01*
X12799997Y-17605492D01*
X12800000Y-17605492D01*
X12800001Y-17605492D01*
X12816826Y-17602826D01*
X12856602Y-17596527D01*
X12925895Y-17605481D01*
X12979347Y-17650477D01*
X12999987Y-17717229D01*
X13000000Y-17719000D01*
X13000000Y-19988918D01*
X12980315Y-20055957D01*
X12927511Y-20101712D01*
X12858353Y-20111656D01*
X12856603Y-20111391D01*
X12750003Y-20094508D01*
X12749997Y-20094508D01*
X12624699Y-20114352D01*
X12624698Y-20114352D01*
X12549337Y-20152751D01*
X12511658Y-20171950D01*
X12511657Y-20171951D01*
X12511652Y-20171954D01*
X12421954Y-20261652D01*
X12421951Y-20261657D01*
X12364352Y-20374698D01*
X12364352Y-20374699D01*
X12344508Y-20499996D01*
X12344508Y-20500003D01*
X12364352Y-20625300D01*
X12364352Y-20625301D01*
X12364354Y-20625304D01*
X12421950Y-20738342D01*
X12421952Y-20738344D01*
X12421954Y-20738347D01*
X12511652Y-20828045D01*
X12511654Y-20828046D01*
X12511658Y-20828050D01*
X12624696Y-20885646D01*
X12742607Y-20904321D01*
X12805738Y-20934248D01*
X12842669Y-20993559D01*
X12845679Y-21007396D01*
X12864352Y-21125300D01*
X12864352Y-21125301D01*
X12869624Y-21135647D01*
X12921950Y-21238342D01*
X12921952Y-21238344D01*
X12921953Y-21238346D01*
X12963680Y-21280072D01*
X12997166Y-21341395D01*
X13000000Y-21367754D01*
X13000000Y-25988918D01*
X12980315Y-26055957D01*
X12927511Y-26101712D01*
X12858353Y-26111656D01*
X12856603Y-26111392D01*
X12844557Y-26109484D01*
X12757394Y-26095679D01*
X12694261Y-26065751D01*
X12657329Y-26006439D01*
X12654324Y-25992627D01*
X12635646Y-25874696D01*
X12578050Y-25761658D01*
X12578046Y-25761654D01*
X12578045Y-25761652D01*
X12488347Y-25671954D01*
X12488344Y-25671952D01*
X12488342Y-25671950D01*
X12375304Y-25614354D01*
X12375303Y-25614353D01*
X12375300Y-25614352D01*
X12250003Y-25594508D01*
X12249997Y-25594508D01*
X12124699Y-25614352D01*
X12124698Y-25614352D01*
X12049337Y-25652751D01*
X12011658Y-25671950D01*
X12011657Y-25671951D01*
X12011652Y-25671954D01*
X11921954Y-25761652D01*
X11921951Y-25761657D01*
X11921950Y-25761658D01*
X11916704Y-25771954D01*
X11864352Y-25874698D01*
X11864352Y-25874699D01*
X11844508Y-25999996D01*
X11844508Y-26000003D01*
X11864352Y-26125300D01*
X11864352Y-26125301D01*
X11882805Y-26161517D01*
X11921950Y-26238342D01*
X11921952Y-26238344D01*
X11921954Y-26238347D01*
X12011652Y-26328045D01*
X12011654Y-26328046D01*
X12011658Y-26328050D01*
X12124696Y-26385646D01*
X12242607Y-26404321D01*
X12305738Y-26434248D01*
X12342669Y-26493559D01*
X12345679Y-26507396D01*
X12364352Y-26625300D01*
X12364352Y-26625301D01*
X12371064Y-26638473D01*
X12421950Y-26738342D01*
X12421952Y-26738344D01*
X12421954Y-26738347D01*
X12511652Y-26828045D01*
X12511654Y-26828046D01*
X12511658Y-26828050D01*
X12624696Y-26885646D01*
X12624697Y-26885646D01*
X12624699Y-26885647D01*
X12749997Y-26905492D01*
X12750000Y-26905492D01*
X12750002Y-26905492D01*
X12856602Y-26888608D01*
X12925895Y-26897562D01*
X12979347Y-26942559D01*
X12999987Y-27009310D01*
X13000000Y-27011081D01*
X13000000Y-33626000D01*
X12980315Y-33693039D01*
X12927511Y-33738794D01*
X12876000Y-33750000D01*
X3919317Y-33750000D01*
X3852278Y-33730315D01*
X3806523Y-33677511D01*
X3796844Y-33645402D01*
X3785646Y-33574696D01*
X3728050Y-33461658D01*
X3728046Y-33461654D01*
X3728045Y-33461652D01*
X3638347Y-33371954D01*
X3638344Y-33371952D01*
X3638342Y-33371950D01*
X3525304Y-33314354D01*
X3525303Y-33314353D01*
X3525300Y-33314352D01*
X3400003Y-33294508D01*
X3400001Y-33294508D01*
X3400000Y-33294508D01*
X3393396Y-33295554D01*
X3324102Y-33286597D01*
X3270651Y-33241600D01*
X3250013Y-33174848D01*
X3250000Y-33173080D01*
X3250000Y-32999996D01*
X8344508Y-32999996D01*
X8344508Y-33000003D01*
X8364352Y-33125300D01*
X8364352Y-33125301D01*
X8364354Y-33125304D01*
X8421950Y-33238342D01*
X8421952Y-33238344D01*
X8421954Y-33238347D01*
X8511652Y-33328045D01*
X8511654Y-33328046D01*
X8511658Y-33328050D01*
X8624696Y-33385646D01*
X8624697Y-33385646D01*
X8624699Y-33385647D01*
X8749997Y-33405492D01*
X8750000Y-33405492D01*
X8750003Y-33405492D01*
X8875300Y-33385647D01*
X8875301Y-33385647D01*
X8875302Y-33385646D01*
X8875304Y-33385646D01*
X8988342Y-33328050D01*
X9078050Y-33238342D01*
X9135646Y-33125304D01*
X9154321Y-33007392D01*
X9184248Y-32944262D01*
X9243559Y-32907330D01*
X9257372Y-32904324D01*
X9375304Y-32885646D01*
X9488342Y-32828050D01*
X9578050Y-32738342D01*
X9635646Y-32625304D01*
X9654321Y-32507392D01*
X9684248Y-32444262D01*
X9743559Y-32407330D01*
X9757372Y-32404324D01*
X9875304Y-32385646D01*
X9988342Y-32328050D01*
X10078050Y-32238342D01*
X10135646Y-32125304D01*
X10154321Y-32007392D01*
X10184248Y-31944262D01*
X10243559Y-31907330D01*
X10257372Y-31904324D01*
X10375304Y-31885646D01*
X10488342Y-31828050D01*
X10578050Y-31738342D01*
X10635646Y-31625304D01*
X10654321Y-31507392D01*
X10684248Y-31444262D01*
X10743559Y-31407330D01*
X10757372Y-31404324D01*
X10875304Y-31385646D01*
X10988342Y-31328050D01*
X11078050Y-31238342D01*
X11135646Y-31125304D01*
X11154321Y-31007392D01*
X11184248Y-30944262D01*
X11243559Y-30907330D01*
X11257372Y-30904324D01*
X11375304Y-30885646D01*
X11488342Y-30828050D01*
X11578050Y-30738342D01*
X11635646Y-30625304D01*
X11635646Y-30625302D01*
X11635647Y-30625301D01*
X11635647Y-30625300D01*
X11655492Y-30500003D01*
X11655492Y-30499996D01*
X11635647Y-30374699D01*
X11635647Y-30374698D01*
X11624755Y-30353322D01*
X11578050Y-30261658D01*
X11578046Y-30261654D01*
X11578045Y-30261652D01*
X11488347Y-30171954D01*
X11488344Y-30171952D01*
X11488342Y-30171950D01*
X11375304Y-30114354D01*
X11375303Y-30114353D01*
X11375300Y-30114352D01*
X11250003Y-30094508D01*
X11249997Y-30094508D01*
X11124699Y-30114352D01*
X11124698Y-30114352D01*
X11053607Y-30150576D01*
X11011658Y-30171950D01*
X11011657Y-30171951D01*
X11011652Y-30171954D01*
X10921954Y-30261652D01*
X10921951Y-30261657D01*
X10864352Y-30374698D01*
X10864352Y-30374699D01*
X10845679Y-30492603D01*
X10815750Y-30555738D01*
X10756439Y-30592670D01*
X10742603Y-30595679D01*
X10624699Y-30614352D01*
X10624698Y-30614352D01*
X10549337Y-30652751D01*
X10511658Y-30671950D01*
X10511657Y-30671951D01*
X10511652Y-30671954D01*
X10421954Y-30761652D01*
X10421951Y-30761657D01*
X10364352Y-30874698D01*
X10364352Y-30874699D01*
X10345679Y-30992603D01*
X10315750Y-31055738D01*
X10256439Y-31092670D01*
X10242603Y-31095679D01*
X10124699Y-31114352D01*
X10124698Y-31114352D01*
X10060199Y-31147217D01*
X10011658Y-31171950D01*
X10011657Y-31171951D01*
X10011652Y-31171954D01*
X9921954Y-31261652D01*
X9921951Y-31261657D01*
X9864352Y-31374698D01*
X9864352Y-31374699D01*
X9845679Y-31492603D01*
X9815750Y-31555738D01*
X9756439Y-31592670D01*
X9742603Y-31595679D01*
X9624699Y-31614352D01*
X9624698Y-31614352D01*
X9549337Y-31652751D01*
X9511658Y-31671950D01*
X9511657Y-31671951D01*
X9511652Y-31671954D01*
X9421954Y-31761652D01*
X9421951Y-31761657D01*
X9364352Y-31874698D01*
X9364352Y-31874699D01*
X9345679Y-31992603D01*
X9315750Y-32055738D01*
X9256439Y-32092670D01*
X9242603Y-32095679D01*
X9124699Y-32114352D01*
X9124698Y-32114352D01*
X9049337Y-32152751D01*
X9011658Y-32171950D01*
X9011657Y-32171951D01*
X9011652Y-32171954D01*
X8921954Y-32261652D01*
X8921951Y-32261657D01*
X8864352Y-32374698D01*
X8864352Y-32374699D01*
X8845679Y-32492603D01*
X8815750Y-32555738D01*
X8756439Y-32592670D01*
X8742603Y-32595679D01*
X8624699Y-32614352D01*
X8624698Y-32614352D01*
X8584578Y-32634795D01*
X8511658Y-32671950D01*
X8511657Y-32671951D01*
X8511652Y-32671954D01*
X8421954Y-32761652D01*
X8421951Y-32761657D01*
X8364352Y-32874698D01*
X8364352Y-32874699D01*
X8344508Y-32999996D01*
X3250000Y-32999996D01*
X3250000Y-29771511D01*
X4267065Y-29771511D01*
X4267065Y-29771518D01*
X4286909Y-29896815D01*
X4286909Y-29896816D01*
X4286911Y-29896819D01*
X4344507Y-30009857D01*
X4344509Y-30009859D01*
X4344511Y-30009862D01*
X4434209Y-30099560D01*
X4434211Y-30099561D01*
X4434215Y-30099565D01*
X4547253Y-30157161D01*
X4547254Y-30157161D01*
X4547256Y-30157162D01*
X4556538Y-30160178D01*
X4555387Y-30163718D01*
X4601803Y-30185679D01*
X4636546Y-30241383D01*
X4637449Y-30241090D01*
X4638629Y-30244723D01*
X4638779Y-30244963D01*
X4638925Y-30245632D01*
X4640464Y-30250371D01*
X4658917Y-30286587D01*
X4698062Y-30363412D01*
X4698064Y-30363414D01*
X4698066Y-30363417D01*
X4787764Y-30453115D01*
X4787766Y-30453116D01*
X4787770Y-30453120D01*
X4900808Y-30510716D01*
X4900809Y-30510716D01*
X4900811Y-30510717D01*
X4910093Y-30513733D01*
X4908942Y-30517273D01*
X4955358Y-30539234D01*
X4990101Y-30594939D01*
X4991004Y-30594646D01*
X4992184Y-30598277D01*
X4992334Y-30598518D01*
X4992480Y-30599190D01*
X4994019Y-30603927D01*
X5012472Y-30640143D01*
X5051617Y-30716968D01*
X5051619Y-30716970D01*
X5051621Y-30716973D01*
X5141319Y-30806671D01*
X5141321Y-30806672D01*
X5141325Y-30806676D01*
X5254363Y-30864272D01*
X5263331Y-30865692D01*
X5326467Y-30895620D01*
X5353438Y-30936929D01*
X5355693Y-30935781D01*
X5360122Y-30944474D01*
X5360123Y-30944476D01*
X5417719Y-31057514D01*
X5417721Y-31057516D01*
X5417723Y-31057519D01*
X5507421Y-31147217D01*
X5507423Y-31147218D01*
X5507427Y-31147222D01*
X5620465Y-31204818D01*
X5620467Y-31204818D01*
X5629161Y-31209248D01*
X5627858Y-31211804D01*
X5672753Y-31242491D01*
X5699247Y-31301604D01*
X5700667Y-31310575D01*
X5700669Y-31310578D01*
X5749030Y-31405492D01*
X5758266Y-31423617D01*
X5762989Y-31430118D01*
X5786467Y-31495925D01*
X5773154Y-31559296D01*
X5714352Y-31674698D01*
X5714352Y-31674699D01*
X5694508Y-31799996D01*
X5694508Y-31800003D01*
X5714352Y-31925300D01*
X5714352Y-31925301D01*
X5732805Y-31961517D01*
X5771950Y-32038342D01*
X5771952Y-32038344D01*
X5771954Y-32038347D01*
X5861652Y-32128045D01*
X5861654Y-32128046D01*
X5861658Y-32128050D01*
X5974696Y-32185646D01*
X5974706Y-32185647D01*
X5983834Y-32188614D01*
X6041510Y-32228051D01*
X6067991Y-32287148D01*
X6070880Y-32305394D01*
X6070882Y-32305397D01*
X6128478Y-32418435D01*
X6128480Y-32418437D01*
X6128482Y-32418440D01*
X6218180Y-32508138D01*
X6218182Y-32508139D01*
X6218186Y-32508143D01*
X6331224Y-32565739D01*
X6448203Y-32584266D01*
X6511335Y-32614195D01*
X6539286Y-32650442D01*
X6588910Y-32747833D01*
X6588912Y-32747835D01*
X6588914Y-32747838D01*
X6678612Y-32837536D01*
X6678614Y-32837537D01*
X6678618Y-32837541D01*
X6791656Y-32895137D01*
X6791657Y-32895137D01*
X6791659Y-32895138D01*
X6916957Y-32914983D01*
X6916960Y-32914983D01*
X6916963Y-32914983D01*
X7042260Y-32895138D01*
X7042261Y-32895138D01*
X7042262Y-32895137D01*
X7042264Y-32895137D01*
X7155302Y-32837541D01*
X7245010Y-32747833D01*
X7302606Y-32634795D01*
X7302606Y-32634793D01*
X7302607Y-32634792D01*
X7302607Y-32634791D01*
X7322452Y-32509494D01*
X7322452Y-32509487D01*
X7302607Y-32384190D01*
X7302607Y-32384189D01*
X7302606Y-32384187D01*
X7245010Y-32271149D01*
X7245006Y-32271145D01*
X7245005Y-32271143D01*
X7155307Y-32181445D01*
X7155304Y-32181443D01*
X7155302Y-32181441D01*
X7050517Y-32128050D01*
X7042261Y-32123843D01*
X6925286Y-32105317D01*
X6862151Y-32075388D01*
X6834201Y-32039142D01*
X6784578Y-31941751D01*
X6784576Y-31941749D01*
X6784573Y-31941745D01*
X6694875Y-31852047D01*
X6694872Y-31852045D01*
X6694870Y-31852043D01*
X6581832Y-31794447D01*
X6581830Y-31794446D01*
X6581827Y-31794445D01*
X6572685Y-31791474D01*
X6515012Y-31752034D01*
X6488535Y-31692943D01*
X6485646Y-31674696D01*
X6428050Y-31561658D01*
X6428048Y-31561656D01*
X6423326Y-31555156D01*
X6399848Y-31489349D01*
X6413161Y-31425978D01*
X6422663Y-31407330D01*
X6471961Y-31310578D01*
X6471961Y-31310576D01*
X6471962Y-31310575D01*
X6471962Y-31310574D01*
X6491807Y-31185277D01*
X6491807Y-31185270D01*
X6471962Y-31059973D01*
X6471962Y-31059972D01*
X6469805Y-31055738D01*
X6414365Y-30946932D01*
X6414361Y-30946928D01*
X6414360Y-30946926D01*
X6324662Y-30857228D01*
X6324659Y-30857226D01*
X6324657Y-30857224D01*
X6211619Y-30799628D01*
X6211617Y-30799627D01*
X6202924Y-30795198D01*
X6204224Y-30792646D01*
X6159305Y-30761923D01*
X6132835Y-30702836D01*
X6131415Y-30693870D01*
X6131415Y-30693868D01*
X6073819Y-30580830D01*
X6073815Y-30580826D01*
X6073814Y-30580824D01*
X5984116Y-30491126D01*
X5984113Y-30491124D01*
X5984111Y-30491122D01*
X5907286Y-30451977D01*
X5871070Y-30433524D01*
X5862099Y-30432104D01*
X5798964Y-30402175D01*
X5772003Y-30360866D01*
X5769743Y-30362018D01*
X5765313Y-30353324D01*
X5765313Y-30353322D01*
X5707717Y-30240284D01*
X5707713Y-30240280D01*
X5707712Y-30240278D01*
X5618014Y-30150580D01*
X5618011Y-30150578D01*
X5618009Y-30150576D01*
X5517891Y-30099563D01*
X5504968Y-30092978D01*
X5495687Y-30089963D01*
X5496830Y-30086445D01*
X5450285Y-30064339D01*
X5415721Y-30008743D01*
X5414775Y-30009051D01*
X5413528Y-30005215D01*
X5413396Y-30005002D01*
X5413268Y-30004414D01*
X5411759Y-29999769D01*
X5411758Y-29999767D01*
X5411758Y-29999766D01*
X5354162Y-29886728D01*
X5354158Y-29886724D01*
X5354157Y-29886722D01*
X5264459Y-29797024D01*
X5264456Y-29797022D01*
X5264454Y-29797020D01*
X5187629Y-29757875D01*
X5151413Y-29739422D01*
X5142132Y-29736407D01*
X5143275Y-29732887D01*
X5096742Y-29710795D01*
X5062162Y-29655189D01*
X5061220Y-29655496D01*
X5059980Y-29651681D01*
X5059844Y-29651462D01*
X5059713Y-29650859D01*
X5058204Y-29646214D01*
X5058203Y-29646212D01*
X5058203Y-29646211D01*
X5000607Y-29533173D01*
X5000603Y-29533169D01*
X5000602Y-29533167D01*
X4910904Y-29443469D01*
X4910901Y-29443467D01*
X4910899Y-29443465D01*
X4797861Y-29385869D01*
X4797860Y-29385868D01*
X4797857Y-29385867D01*
X4672560Y-29366023D01*
X4672554Y-29366023D01*
X4547256Y-29385867D01*
X4547255Y-29385867D01*
X4486542Y-29416803D01*
X4434215Y-29443465D01*
X4434214Y-29443466D01*
X4434209Y-29443469D01*
X4344511Y-29533167D01*
X4344508Y-29533172D01*
X4286909Y-29646213D01*
X4286909Y-29646214D01*
X4267065Y-29771511D01*
X3250000Y-29771511D01*
X3250000Y-29520537D01*
X3269685Y-29453498D01*
X3322489Y-29407743D01*
X3391647Y-29397799D01*
X3430292Y-29410051D01*
X3443540Y-29416802D01*
X3443544Y-29416802D01*
X3443545Y-29416803D01*
X3443543Y-29416803D01*
X3568841Y-29436648D01*
X3568844Y-29436648D01*
X3568847Y-29436648D01*
X3694144Y-29416803D01*
X3694145Y-29416803D01*
X3694146Y-29416802D01*
X3694148Y-29416802D01*
X3807186Y-29359206D01*
X3896894Y-29269498D01*
X3954490Y-29156460D01*
X3954490Y-29156458D01*
X3954491Y-29156457D01*
X3954491Y-29156456D01*
X3974336Y-29031159D01*
X3974336Y-29031152D01*
X3954491Y-28905856D01*
X3954490Y-28905854D01*
X3954490Y-28905852D01*
X3935542Y-28868665D01*
X3922647Y-28799999D01*
X3935542Y-28756081D01*
X3985802Y-28657441D01*
X3986981Y-28650000D01*
X4005648Y-28532140D01*
X4005648Y-28532133D01*
X3985803Y-28406836D01*
X3985801Y-28406831D01*
X3984089Y-28403470D01*
X3983239Y-28398946D01*
X3982787Y-28397554D01*
X3982967Y-28397495D01*
X3971194Y-28334801D01*
X3997472Y-28270061D01*
X4006881Y-28259510D01*
X4012580Y-28253812D01*
X4069212Y-28142665D01*
X9324469Y-28142665D01*
X9324469Y-28142672D01*
X9344313Y-28267969D01*
X9344313Y-28267970D01*
X9357472Y-28293795D01*
X9401911Y-28381011D01*
X9401913Y-28381013D01*
X9401915Y-28381016D01*
X9491613Y-28470714D01*
X9491615Y-28470715D01*
X9491619Y-28470719D01*
X9604657Y-28528315D01*
X9692555Y-28542236D01*
X9755688Y-28572164D01*
X9792619Y-28631475D01*
X9795629Y-28645311D01*
X9812135Y-28749533D01*
X9830588Y-28785749D01*
X9869733Y-28862574D01*
X9869735Y-28862576D01*
X9869737Y-28862579D01*
X9959435Y-28952277D01*
X9959437Y-28952278D01*
X9959441Y-28952282D01*
X10072479Y-29009878D01*
X10072480Y-29009878D01*
X10072482Y-29009879D01*
X10197780Y-29029724D01*
X10197783Y-29029724D01*
X10197786Y-29029724D01*
X10323083Y-29009879D01*
X10323085Y-29009878D01*
X10323087Y-29009878D01*
X10392310Y-28974606D01*
X10460978Y-28961710D01*
X10504900Y-28974606D01*
X10511656Y-28978048D01*
X10511658Y-28978050D01*
X10624696Y-29035646D01*
X10624697Y-29035646D01*
X10624699Y-29035647D01*
X10749997Y-29055492D01*
X10750000Y-29055492D01*
X10750003Y-29055492D01*
X10875300Y-29035647D01*
X10875301Y-29035647D01*
X10875302Y-29035646D01*
X10875304Y-29035646D01*
X10988342Y-28978050D01*
X11078050Y-28888342D01*
X11135646Y-28775304D01*
X11135646Y-28775302D01*
X11135647Y-28775301D01*
X11135647Y-28775300D01*
X11155492Y-28650003D01*
X11155492Y-28649996D01*
X11135647Y-28524699D01*
X11135647Y-28524698D01*
X11135646Y-28524696D01*
X11078050Y-28411658D01*
X11078046Y-28411654D01*
X11078045Y-28411652D01*
X10988347Y-28321954D01*
X10988344Y-28321952D01*
X10988342Y-28321950D01*
X10875304Y-28264354D01*
X10875303Y-28264353D01*
X10875300Y-28264352D01*
X10750003Y-28244508D01*
X10749997Y-28244508D01*
X10624699Y-28264352D01*
X10624697Y-28264353D01*
X10555469Y-28299626D01*
X10486800Y-28312521D01*
X10442881Y-28299625D01*
X10436126Y-28296183D01*
X10436125Y-28296182D01*
X10323087Y-28238586D01*
X10323086Y-28238585D01*
X10323083Y-28238584D01*
X10235190Y-28224664D01*
X10172055Y-28194735D01*
X10135123Y-28135424D01*
X10132117Y-28121607D01*
X10115607Y-28017365D01*
X10058011Y-27904327D01*
X10058007Y-27904323D01*
X10058006Y-27904321D01*
X9968308Y-27814623D01*
X9968305Y-27814621D01*
X9968303Y-27814619D01*
X9855265Y-27757023D01*
X9855264Y-27757022D01*
X9855261Y-27757021D01*
X9729964Y-27737177D01*
X9729958Y-27737177D01*
X9604660Y-27757021D01*
X9604659Y-27757021D01*
X9529298Y-27795420D01*
X9491619Y-27814619D01*
X9491618Y-27814620D01*
X9491613Y-27814623D01*
X9401915Y-27904321D01*
X9401912Y-27904326D01*
X9344313Y-28017367D01*
X9344313Y-28017368D01*
X9324469Y-28142665D01*
X4069212Y-28142665D01*
X4070176Y-28140774D01*
X4070176Y-28140772D01*
X4070177Y-28140771D01*
X4070177Y-28140770D01*
X4090022Y-28015473D01*
X4090022Y-28015466D01*
X4070177Y-27890169D01*
X4070177Y-27890168D01*
X4070176Y-27890166D01*
X4012580Y-27777128D01*
X4012576Y-27777124D01*
X4012575Y-27777122D01*
X3922877Y-27687424D01*
X3922874Y-27687422D01*
X3922872Y-27687420D01*
X3809834Y-27629824D01*
X3809833Y-27629823D01*
X3809830Y-27629822D01*
X3684533Y-27609978D01*
X3684527Y-27609978D01*
X3559229Y-27629822D01*
X3559228Y-27629822D01*
X3486279Y-27666992D01*
X3446188Y-27687420D01*
X3446186Y-27687421D01*
X3437493Y-27691851D01*
X3436809Y-27690509D01*
X3381072Y-27710393D01*
X3313019Y-27694564D01*
X3264327Y-27644455D01*
X3250000Y-27586595D01*
X3250000Y-26513169D01*
X3544508Y-26513169D01*
X3544508Y-26513176D01*
X3564352Y-26638473D01*
X3564352Y-26638474D01*
X3574400Y-26658194D01*
X3621950Y-26751515D01*
X3621952Y-26751517D01*
X3621954Y-26751520D01*
X3711652Y-26841218D01*
X3711654Y-26841219D01*
X3711658Y-26841223D01*
X3824696Y-26898819D01*
X3824697Y-26898819D01*
X3824699Y-26898820D01*
X3949997Y-26918665D01*
X3950000Y-26918665D01*
X3950003Y-26918665D01*
X4075300Y-26898820D01*
X4075301Y-26898820D01*
X4075302Y-26898819D01*
X4075304Y-26898819D01*
X4188342Y-26841223D01*
X4193254Y-26836311D01*
X10630823Y-26836311D01*
X10630823Y-26836318D01*
X10650667Y-26961615D01*
X10650667Y-26961616D01*
X10650669Y-26961619D01*
X10708265Y-27074657D01*
X10708267Y-27074659D01*
X10708269Y-27074662D01*
X10797967Y-27164360D01*
X10797969Y-27164361D01*
X10797973Y-27164365D01*
X10911011Y-27221961D01*
X10911012Y-27221961D01*
X10911014Y-27221962D01*
X11036312Y-27241807D01*
X11036315Y-27241807D01*
X11036318Y-27241807D01*
X11161615Y-27221962D01*
X11161616Y-27221962D01*
X11161617Y-27221961D01*
X11161619Y-27221961D01*
X11274657Y-27164365D01*
X11364365Y-27074657D01*
X11421961Y-26961619D01*
X11421961Y-26961617D01*
X11421962Y-26961616D01*
X11421962Y-26961615D01*
X11441807Y-26836318D01*
X11441807Y-26836311D01*
X11421962Y-26711014D01*
X11421962Y-26711013D01*
X11412112Y-26691681D01*
X11364365Y-26597973D01*
X11364361Y-26597969D01*
X11364360Y-26597967D01*
X11274662Y-26508269D01*
X11274659Y-26508267D01*
X11274657Y-26508265D01*
X11161619Y-26450669D01*
X11161618Y-26450668D01*
X11161615Y-26450667D01*
X11036318Y-26430823D01*
X11036312Y-26430823D01*
X10911014Y-26450667D01*
X10911013Y-26450667D01*
X10837074Y-26488342D01*
X10797973Y-26508265D01*
X10797972Y-26508266D01*
X10797967Y-26508269D01*
X10708269Y-26597967D01*
X10708266Y-26597972D01*
X10708265Y-26597973D01*
X10701374Y-26611498D01*
X10650667Y-26711013D01*
X10650667Y-26711014D01*
X10630823Y-26836311D01*
X4193254Y-26836311D01*
X4278050Y-26751515D01*
X4314334Y-26680303D01*
X4362304Y-26629511D01*
X4430125Y-26612715D01*
X4496260Y-26635252D01*
X4512497Y-26648920D01*
X4561652Y-26698075D01*
X4561654Y-26698076D01*
X4561658Y-26698080D01*
X4674696Y-26755676D01*
X4674697Y-26755676D01*
X4674699Y-26755677D01*
X4799997Y-26775522D01*
X4800000Y-26775522D01*
X4800003Y-26775522D01*
X4925300Y-26755677D01*
X4925301Y-26755677D01*
X4925302Y-26755676D01*
X4925304Y-26755676D01*
X5038342Y-26698080D01*
X5044743Y-26691678D01*
X5106061Y-26658194D01*
X5175753Y-26663176D01*
X5188714Y-26668872D01*
X5189160Y-26669099D01*
X5189161Y-26669099D01*
X5189163Y-26669100D01*
X5314461Y-26688945D01*
X5314464Y-26688945D01*
X5314467Y-26688945D01*
X5439764Y-26669100D01*
X5439765Y-26669100D01*
X5439766Y-26669099D01*
X5439768Y-26669099D01*
X5552806Y-26611503D01*
X5642514Y-26521795D01*
X5700110Y-26408757D01*
X5700110Y-26408755D01*
X5700111Y-26408754D01*
X5700111Y-26408753D01*
X5718679Y-26291518D01*
X5748608Y-26228383D01*
X5784860Y-26200429D01*
X5814384Y-26185386D01*
X5814383Y-26185386D01*
X5814388Y-26185384D01*
X5904096Y-26095676D01*
X5919142Y-26066145D01*
X5967114Y-26015351D01*
X6010229Y-25999968D01*
X6127464Y-25981400D01*
X6127465Y-25981400D01*
X6127466Y-25981399D01*
X6127468Y-25981399D01*
X6240506Y-25923803D01*
X6330214Y-25834095D01*
X6387810Y-25721057D01*
X6387810Y-25721055D01*
X6387811Y-25721054D01*
X6387811Y-25721053D01*
X6407656Y-25595756D01*
X6407656Y-25595749D01*
X6387811Y-25470452D01*
X6387811Y-25470451D01*
X6378329Y-25451842D01*
X6330214Y-25357411D01*
X6330210Y-25357407D01*
X6330209Y-25357405D01*
X6240511Y-25267707D01*
X6240508Y-25267705D01*
X6240506Y-25267703D01*
X6127468Y-25210107D01*
X6127467Y-25210106D01*
X6127464Y-25210105D01*
X6002167Y-25190261D01*
X6002161Y-25190261D01*
X5876863Y-25210105D01*
X5876862Y-25210105D01*
X5801501Y-25248504D01*
X5763822Y-25267703D01*
X5763821Y-25267704D01*
X5763816Y-25267707D01*
X5674115Y-25357408D01*
X5659066Y-25386943D01*
X5611090Y-25437738D01*
X5567980Y-25453119D01*
X5450744Y-25471686D01*
X5375383Y-25510085D01*
X5337704Y-25529284D01*
X5337703Y-25529285D01*
X5337698Y-25529288D01*
X5248000Y-25618986D01*
X5247997Y-25618991D01*
X5190398Y-25732032D01*
X5190398Y-25732033D01*
X5171830Y-25849269D01*
X5141901Y-25912404D01*
X5105655Y-25940354D01*
X5076123Y-25955402D01*
X5069717Y-25961808D01*
X5008393Y-25995290D01*
X4938701Y-25990303D01*
X4925749Y-25984610D01*
X4925306Y-25984384D01*
X4925301Y-25984382D01*
X4813963Y-25966749D01*
X4750829Y-25936820D01*
X4722877Y-25900572D01*
X4703050Y-25861658D01*
X4703049Y-25861657D01*
X4703045Y-25861652D01*
X4613347Y-25771954D01*
X4613344Y-25771952D01*
X4613342Y-25771950D01*
X4500304Y-25714354D01*
X4500303Y-25714353D01*
X4500300Y-25714352D01*
X4375003Y-25694508D01*
X4374997Y-25694508D01*
X4249699Y-25714352D01*
X4249698Y-25714352D01*
X4174337Y-25752751D01*
X4136658Y-25771950D01*
X4136657Y-25771951D01*
X4136652Y-25771954D01*
X4046954Y-25861652D01*
X4046951Y-25861657D01*
X4046950Y-25861658D01*
X4027751Y-25899337D01*
X3989352Y-25974698D01*
X3982854Y-26015728D01*
X3952924Y-26078863D01*
X3893612Y-26115793D01*
X3879779Y-26118802D01*
X3824698Y-26127525D01*
X3749337Y-26165924D01*
X3711658Y-26185123D01*
X3711657Y-26185124D01*
X3711652Y-26185127D01*
X3621954Y-26274825D01*
X3621951Y-26274830D01*
X3564352Y-26387871D01*
X3564352Y-26387872D01*
X3544508Y-26513169D01*
X3250000Y-26513169D01*
X3250000Y-24399996D01*
X3594508Y-24399996D01*
X3594508Y-24400003D01*
X3614352Y-24525300D01*
X3614352Y-24525301D01*
X3614354Y-24525304D01*
X3671950Y-24638342D01*
X3671952Y-24638344D01*
X3671954Y-24638347D01*
X3761652Y-24728045D01*
X3761654Y-24728046D01*
X3761658Y-24728050D01*
X3874696Y-24785646D01*
X3874697Y-24785646D01*
X3874699Y-24785647D01*
X3999997Y-24805492D01*
X4000000Y-24805492D01*
X4000003Y-24805492D01*
X4125300Y-24785647D01*
X4125301Y-24785647D01*
X4125302Y-24785646D01*
X4125304Y-24785646D01*
X4238342Y-24728050D01*
X4328050Y-24638342D01*
X4385646Y-24525304D01*
X4385646Y-24525302D01*
X4385647Y-24525301D01*
X4385647Y-24525300D01*
X4405492Y-24400003D01*
X4405492Y-24399996D01*
X4385647Y-24274699D01*
X4385647Y-24274698D01*
X4385646Y-24274696D01*
X4328050Y-24161658D01*
X4328046Y-24161654D01*
X4328045Y-24161652D01*
X4238347Y-24071954D01*
X4238344Y-24071952D01*
X4238342Y-24071950D01*
X4125304Y-24014354D01*
X4125303Y-24014353D01*
X4125300Y-24014352D01*
X4000003Y-23994508D01*
X3999997Y-23994508D01*
X3874699Y-24014352D01*
X3874698Y-24014352D01*
X3799337Y-24052751D01*
X3761658Y-24071950D01*
X3761657Y-24071951D01*
X3761652Y-24071954D01*
X3671954Y-24161652D01*
X3671951Y-24161657D01*
X3614352Y-24274698D01*
X3614352Y-24274699D01*
X3594508Y-24399996D01*
X3250000Y-24399996D01*
X3250000Y-21187496D01*
X4469508Y-21187496D01*
X4469508Y-21187503D01*
X4489352Y-21312800D01*
X4489352Y-21312801D01*
X4489354Y-21312804D01*
X4546950Y-21425842D01*
X4546952Y-21425844D01*
X4546954Y-21425847D01*
X4636652Y-21515545D01*
X4636654Y-21515546D01*
X4636658Y-21515550D01*
X4749696Y-21573146D01*
X4749697Y-21573146D01*
X4749699Y-21573147D01*
X4874997Y-21592992D01*
X4875000Y-21592992D01*
X4875003Y-21592992D01*
X5000300Y-21573147D01*
X5000301Y-21573147D01*
X5000302Y-21573146D01*
X5000304Y-21573146D01*
X5113342Y-21515550D01*
X5203050Y-21425842D01*
X5260646Y-21312804D01*
X5260646Y-21312802D01*
X5260647Y-21312801D01*
X5260647Y-21312800D01*
X5280492Y-21187503D01*
X5280492Y-21187496D01*
X5260647Y-21062199D01*
X5260647Y-21062198D01*
X5257639Y-21056294D01*
X5203050Y-20949158D01*
X5203046Y-20949154D01*
X5203045Y-20949152D01*
X5113347Y-20859454D01*
X5113344Y-20859452D01*
X5113342Y-20859450D01*
X5000304Y-20801854D01*
X5000303Y-20801853D01*
X5000300Y-20801852D01*
X4875003Y-20782008D01*
X4874997Y-20782008D01*
X4749699Y-20801852D01*
X4749698Y-20801852D01*
X4674337Y-20840251D01*
X4636658Y-20859450D01*
X4636657Y-20859451D01*
X4636652Y-20859454D01*
X4546954Y-20949152D01*
X4546951Y-20949157D01*
X4489352Y-21062198D01*
X4489352Y-21062199D01*
X4469508Y-21187496D01*
X3250000Y-21187496D01*
X3250000Y-19249996D01*
X5594508Y-19249996D01*
X5594508Y-19250003D01*
X5614352Y-19375300D01*
X5614353Y-19375304D01*
X5649206Y-19443706D01*
X5662102Y-19512375D01*
X5649206Y-19556294D01*
X5614353Y-19624695D01*
X5614352Y-19624699D01*
X5594508Y-19749996D01*
X5594508Y-19750003D01*
X5614352Y-19875300D01*
X5614353Y-19875304D01*
X5649206Y-19943706D01*
X5662102Y-20012375D01*
X5649206Y-20056294D01*
X5614353Y-20124695D01*
X5614352Y-20124699D01*
X5594508Y-20249996D01*
X5594508Y-20250003D01*
X5614352Y-20375300D01*
X5614353Y-20375304D01*
X5649206Y-20443706D01*
X5662102Y-20512375D01*
X5649206Y-20556294D01*
X5614353Y-20624695D01*
X5614352Y-20624699D01*
X5594508Y-20749996D01*
X5594508Y-20750003D01*
X5614352Y-20875300D01*
X5614352Y-20875301D01*
X5620673Y-20887706D01*
X5671950Y-20988342D01*
X5671952Y-20988344D01*
X5671954Y-20988347D01*
X5761652Y-21078045D01*
X5761654Y-21078046D01*
X5761658Y-21078050D01*
X5874696Y-21135646D01*
X5874697Y-21135646D01*
X5874699Y-21135647D01*
X5999997Y-21155492D01*
X6000000Y-21155492D01*
X6000003Y-21155492D01*
X6125300Y-21135647D01*
X6125301Y-21135647D01*
X6125302Y-21135646D01*
X6125304Y-21135646D01*
X6238342Y-21078050D01*
X6328050Y-20988342D01*
X6385646Y-20875304D01*
X6385646Y-20875302D01*
X6385647Y-20875301D01*
X6385647Y-20875300D01*
X6405492Y-20750003D01*
X6405492Y-20749996D01*
X6385647Y-20624699D01*
X6385646Y-20624696D01*
X6350794Y-20556296D01*
X6337897Y-20487626D01*
X6350794Y-20443704D01*
X6385646Y-20375304D01*
X6385742Y-20374698D01*
X6405492Y-20250003D01*
X6405492Y-20249996D01*
X6385647Y-20124699D01*
X6385646Y-20124696D01*
X6350794Y-20056296D01*
X6337897Y-19987626D01*
X6350794Y-19943704D01*
X6385646Y-19875304D01*
X6405492Y-19750000D01*
X6405492Y-19749996D01*
X6385647Y-19624699D01*
X6385646Y-19624696D01*
X6350794Y-19556296D01*
X6337897Y-19487626D01*
X6350794Y-19443704D01*
X6385646Y-19375304D01*
X6405492Y-19250000D01*
X6405492Y-19249996D01*
X6385647Y-19124699D01*
X6385647Y-19124698D01*
X6385645Y-19124695D01*
X6328050Y-19011658D01*
X6328046Y-19011654D01*
X6328045Y-19011652D01*
X6238347Y-18921954D01*
X6238344Y-18921952D01*
X6238342Y-18921950D01*
X6125304Y-18864354D01*
X6125303Y-18864353D01*
X6125300Y-18864352D01*
X6000003Y-18844508D01*
X5999997Y-18844508D01*
X5874699Y-18864352D01*
X5874698Y-18864352D01*
X5799337Y-18902751D01*
X5761658Y-18921950D01*
X5761657Y-18921951D01*
X5761652Y-18921954D01*
X5671954Y-19011652D01*
X5671951Y-19011657D01*
X5614352Y-19124698D01*
X5614352Y-19124699D01*
X5594508Y-19249996D01*
X3250000Y-19249996D01*
X3250000Y-16999996D01*
X4594508Y-16999996D01*
X4594508Y-17000003D01*
X4614352Y-17125300D01*
X4614352Y-17125301D01*
X4614354Y-17125304D01*
X4671950Y-17238342D01*
X4671952Y-17238344D01*
X4671954Y-17238347D01*
X4761652Y-17328045D01*
X4761654Y-17328046D01*
X4761658Y-17328050D01*
X4874696Y-17385646D01*
X4874697Y-17385646D01*
X4874699Y-17385647D01*
X4999997Y-17405492D01*
X5000000Y-17405492D01*
X5000003Y-17405492D01*
X5125300Y-17385647D01*
X5125301Y-17385647D01*
X5125302Y-17385646D01*
X5125304Y-17385646D01*
X5238342Y-17328050D01*
X5328050Y-17238342D01*
X5385646Y-17125304D01*
X5385646Y-17125302D01*
X5389515Y-17117710D01*
X5437490Y-17066914D01*
X5505311Y-17050119D01*
X5571446Y-17072657D01*
X5610485Y-17117711D01*
X5649206Y-17193706D01*
X5662102Y-17262375D01*
X5649206Y-17306294D01*
X5614353Y-17374695D01*
X5614352Y-17374699D01*
X5594508Y-17499996D01*
X5594508Y-17500003D01*
X5614352Y-17625300D01*
X5614352Y-17625301D01*
X5614354Y-17625304D01*
X5671950Y-17738342D01*
X5671952Y-17738344D01*
X5671954Y-17738347D01*
X5761652Y-17828045D01*
X5761654Y-17828046D01*
X5761658Y-17828050D01*
X5874696Y-17885646D01*
X5874697Y-17885646D01*
X5874699Y-17885647D01*
X5999997Y-17905492D01*
X6000000Y-17905492D01*
X6000003Y-17905492D01*
X6125300Y-17885647D01*
X6125301Y-17885647D01*
X6125302Y-17885646D01*
X6125304Y-17885646D01*
X6238342Y-17828050D01*
X6328050Y-17738342D01*
X6385646Y-17625304D01*
X6385646Y-17625302D01*
X6385647Y-17625301D01*
X6385647Y-17625300D01*
X6405492Y-17500003D01*
X6405492Y-17499996D01*
X6385647Y-17374699D01*
X6385646Y-17374696D01*
X6385645Y-17374695D01*
X6350793Y-17306295D01*
X6337897Y-17237626D01*
X6350794Y-17193704D01*
X6385646Y-17125304D01*
X6385646Y-17125302D01*
X6385647Y-17125300D01*
X6405492Y-17000003D01*
X6405492Y-16999996D01*
X6385647Y-16874699D01*
X6385646Y-16874696D01*
X6350794Y-16806296D01*
X6337897Y-16737626D01*
X6350794Y-16693704D01*
X6357268Y-16680999D01*
X6385646Y-16625304D01*
X6385647Y-16625300D01*
X6405492Y-16500003D01*
X6405492Y-16499996D01*
X6385647Y-16374699D01*
X6385646Y-16374696D01*
X6350794Y-16306296D01*
X6337897Y-16237626D01*
X6350794Y-16193704D01*
X6385646Y-16125304D01*
X6385647Y-16125300D01*
X6405492Y-16000003D01*
X6405492Y-15999996D01*
X6385647Y-15874699D01*
X6385646Y-15874696D01*
X6350794Y-15806296D01*
X6337897Y-15737626D01*
X6350794Y-15693704D01*
X6385646Y-15625304D01*
X6385647Y-15625300D01*
X6405492Y-15500003D01*
X6405492Y-15499996D01*
X6385647Y-15374699D01*
X6385647Y-15374698D01*
X6385646Y-15374696D01*
X6328050Y-15261658D01*
X6328046Y-15261654D01*
X6328045Y-15261652D01*
X6238347Y-15171954D01*
X6238344Y-15171952D01*
X6238342Y-15171950D01*
X6125304Y-15114354D01*
X6125303Y-15114353D01*
X6125300Y-15114352D01*
X6000003Y-15094508D01*
X5999997Y-15094508D01*
X5874699Y-15114352D01*
X5874698Y-15114352D01*
X5799337Y-15152751D01*
X5761658Y-15171950D01*
X5761657Y-15171951D01*
X5761652Y-15171954D01*
X5671954Y-15261652D01*
X5671951Y-15261657D01*
X5614352Y-15374698D01*
X5614352Y-15374699D01*
X5594508Y-15499996D01*
X5594508Y-15500003D01*
X5614352Y-15625300D01*
X5614353Y-15625304D01*
X5649206Y-15693706D01*
X5662102Y-15762375D01*
X5649206Y-15806294D01*
X5614353Y-15874695D01*
X5614352Y-15874699D01*
X5594508Y-15999996D01*
X5594508Y-16000003D01*
X5614352Y-16125300D01*
X5614353Y-16125304D01*
X5649206Y-16193706D01*
X5662102Y-16262375D01*
X5649206Y-16306294D01*
X5614353Y-16374695D01*
X5614352Y-16374699D01*
X5594508Y-16499996D01*
X5594508Y-16500003D01*
X5614352Y-16625300D01*
X5614353Y-16625304D01*
X5649206Y-16693706D01*
X5662102Y-16762375D01*
X5649206Y-16806295D01*
X5610485Y-16882289D01*
X5562510Y-16933085D01*
X5494689Y-16949880D01*
X5428554Y-16927343D01*
X5389516Y-16882290D01*
X5344788Y-16794508D01*
X5328050Y-16761658D01*
X5328047Y-16761655D01*
X5328045Y-16761652D01*
X5238347Y-16671954D01*
X5238344Y-16671952D01*
X5238342Y-16671950D01*
X5125304Y-16614354D01*
X5125303Y-16614353D01*
X5125300Y-16614352D01*
X5000003Y-16594508D01*
X4999997Y-16594508D01*
X4874699Y-16614352D01*
X4874698Y-16614352D01*
X4799337Y-16652751D01*
X4761658Y-16671950D01*
X4761657Y-16671951D01*
X4761652Y-16671954D01*
X4671954Y-16761652D01*
X4671951Y-16761657D01*
X4671950Y-16761658D01*
X4671585Y-16762375D01*
X4614352Y-16874698D01*
X4614352Y-16874699D01*
X4594508Y-16999996D01*
X3250000Y-16999996D01*
X3250000Y-14374000D01*
X3269685Y-14306961D01*
X3322489Y-14261206D01*
X3374000Y-14250000D01*
X6876000Y-14250000D01*
X6943039Y-14269685D01*
G37*
%TD.AperFunction*%
%TD*%
%TA.AperFunction,Conductor*%
%TO.N,+5V*%
G36*
X3305957Y-5269685D02*
G01*
X3351712Y-5322489D01*
X3361656Y-5391647D01*
X3361391Y-5393397D01*
X3344508Y-5499996D01*
X3344508Y-5500003D01*
X3364352Y-5625300D01*
X3364353Y-5625304D01*
X3399206Y-5693706D01*
X3412102Y-5762375D01*
X3399206Y-5806294D01*
X3364353Y-5874695D01*
X3364352Y-5874699D01*
X3344508Y-5999996D01*
X3344508Y-6000003D01*
X3364352Y-6125300D01*
X3364352Y-6125301D01*
X3382805Y-6161517D01*
X3421950Y-6238342D01*
X3421952Y-6238344D01*
X3421954Y-6238347D01*
X3511652Y-6328045D01*
X3511656Y-6328048D01*
X3511658Y-6328050D01*
X3533251Y-6339052D01*
X3584046Y-6387026D01*
X3600841Y-6454847D01*
X3599428Y-6468933D01*
X3594508Y-6499997D01*
X3594508Y-6500003D01*
X3614352Y-6625300D01*
X3614353Y-6625304D01*
X3649206Y-6693706D01*
X3662102Y-6762375D01*
X3649206Y-6806294D01*
X3614353Y-6874695D01*
X3614352Y-6874699D01*
X3594508Y-6999996D01*
X3594508Y-7000003D01*
X3614352Y-7125300D01*
X3614353Y-7125304D01*
X3649206Y-7193706D01*
X3662102Y-7262375D01*
X3649206Y-7306294D01*
X3614353Y-7374695D01*
X3614352Y-7374699D01*
X3594508Y-7499996D01*
X3594508Y-7500003D01*
X3614352Y-7625300D01*
X3614353Y-7625304D01*
X3649206Y-7693706D01*
X3662102Y-7762375D01*
X3649206Y-7806294D01*
X3614353Y-7874695D01*
X3614352Y-7874699D01*
X3594508Y-7999996D01*
X3594508Y-8000000D01*
X3599428Y-8031068D01*
X3590471Y-8100361D01*
X3545474Y-8153812D01*
X3533252Y-8160946D01*
X3511657Y-8171949D01*
X3511657Y-8171950D01*
X3421954Y-8261652D01*
X3421951Y-8261657D01*
X3364352Y-8374698D01*
X3364352Y-8374699D01*
X3344508Y-8499996D01*
X3344508Y-8500003D01*
X3364352Y-8625300D01*
X3364353Y-8625304D01*
X3399206Y-8693706D01*
X3412102Y-8762375D01*
X3399206Y-8806294D01*
X3364353Y-8874695D01*
X3364352Y-8874699D01*
X3344508Y-8999996D01*
X3344508Y-9000003D01*
X3364352Y-9125300D01*
X3364352Y-9125301D01*
X3376533Y-9149206D01*
X3421950Y-9238342D01*
X3421952Y-9238344D01*
X3421954Y-9238347D01*
X3511652Y-9328045D01*
X3511654Y-9328046D01*
X3511658Y-9328050D01*
X3624696Y-9385646D01*
X3742607Y-9404321D01*
X3805738Y-9434248D01*
X3842669Y-9493559D01*
X3845679Y-9507396D01*
X3864352Y-9625300D01*
X3864352Y-9625301D01*
X3865752Y-9628048D01*
X3921950Y-9738342D01*
X3921952Y-9738344D01*
X3921954Y-9738347D01*
X4011652Y-9828045D01*
X4011654Y-9828046D01*
X4011658Y-9828050D01*
X4124696Y-9885646D01*
X4124697Y-9885646D01*
X4124699Y-9885647D01*
X4249997Y-9905492D01*
X4250000Y-9905492D01*
X4250003Y-9905492D01*
X4375300Y-9885647D01*
X4375302Y-9885646D01*
X4375304Y-9885646D01*
X4443704Y-9850793D01*
X4512374Y-9837897D01*
X4556294Y-9850793D01*
X4589440Y-9867682D01*
X4624696Y-9885646D01*
X4624699Y-9885647D01*
X4749997Y-9905492D01*
X4750000Y-9905492D01*
X4750003Y-9905492D01*
X4875300Y-9885647D01*
X4875302Y-9885646D01*
X4875304Y-9885646D01*
X4943704Y-9850793D01*
X5012374Y-9837897D01*
X5056294Y-9850793D01*
X5089440Y-9867682D01*
X5124696Y-9885646D01*
X5124699Y-9885647D01*
X5249997Y-9905492D01*
X5250000Y-9905492D01*
X5250003Y-9905492D01*
X5375300Y-9885647D01*
X5375301Y-9885647D01*
X5375302Y-9885646D01*
X5375304Y-9885646D01*
X5488342Y-9828050D01*
X5578050Y-9738342D01*
X5635646Y-9625304D01*
X5635646Y-9625302D01*
X5635647Y-9625301D01*
X5635647Y-9625300D01*
X5655492Y-9500003D01*
X5655492Y-9499996D01*
X5635647Y-9374699D01*
X5635647Y-9374698D01*
X5630375Y-9364352D01*
X5578050Y-9261658D01*
X5578046Y-9261654D01*
X5578045Y-9261652D01*
X5488347Y-9171954D01*
X5488344Y-9171952D01*
X5488342Y-9171950D01*
X5375304Y-9114354D01*
X5375303Y-9114353D01*
X5375300Y-9114352D01*
X5250003Y-9094508D01*
X5249997Y-9094508D01*
X5124699Y-9114352D01*
X5124695Y-9114353D01*
X5056294Y-9149206D01*
X4987625Y-9162102D01*
X4943706Y-9149206D01*
X4875304Y-9114353D01*
X4875300Y-9114352D01*
X4750003Y-9094508D01*
X4749997Y-9094508D01*
X4624699Y-9114352D01*
X4624695Y-9114353D01*
X4556294Y-9149206D01*
X4487625Y-9162102D01*
X4443706Y-9149206D01*
X4375304Y-9114353D01*
X4375300Y-9114352D01*
X4257396Y-9095679D01*
X4194261Y-9065750D01*
X4157329Y-9006439D01*
X4154324Y-8992627D01*
X4135646Y-8874696D01*
X4100793Y-8806295D01*
X4087897Y-8737626D01*
X4100794Y-8693704D01*
X4135646Y-8625304D01*
X4135646Y-8625302D01*
X4135647Y-8625300D01*
X4155492Y-8500003D01*
X4155492Y-8500002D01*
X4155491Y-8499996D01*
X4154618Y-8494483D01*
X4163569Y-8425192D01*
X4208562Y-8371737D01*
X4275312Y-8351094D01*
X4333384Y-8364596D01*
X4363521Y-8379952D01*
X4374696Y-8385646D01*
X4374699Y-8385647D01*
X4499997Y-8405492D01*
X4500000Y-8405492D01*
X4500003Y-8405492D01*
X4625300Y-8385647D01*
X4625301Y-8385647D01*
X4625302Y-8385646D01*
X4625304Y-8385646D01*
X4738342Y-8328050D01*
X4828050Y-8238342D01*
X4885646Y-8125304D01*
X4885646Y-8125302D01*
X4885647Y-8125301D01*
X4885647Y-8125300D01*
X4905492Y-8000003D01*
X4905492Y-7999996D01*
X4885647Y-7874699D01*
X4885646Y-7874696D01*
X4850794Y-7806296D01*
X4837897Y-7737626D01*
X4850794Y-7693704D01*
X4885646Y-7625304D01*
X4905492Y-7500000D01*
X4905492Y-7499996D01*
X4885647Y-7374699D01*
X4885646Y-7374696D01*
X4872737Y-7349361D01*
X4850793Y-7306295D01*
X4837897Y-7237626D01*
X4850794Y-7193704D01*
X4885646Y-7125304D01*
X4905492Y-7000000D01*
X4905492Y-6999996D01*
X4885647Y-6874699D01*
X4885646Y-6874696D01*
X4850794Y-6806296D01*
X4837897Y-6737626D01*
X4850794Y-6693704D01*
X4870040Y-6655932D01*
X4885646Y-6625304D01*
X4885647Y-6625300D01*
X4905492Y-6500003D01*
X4905492Y-6499996D01*
X4885647Y-6374699D01*
X4885647Y-6374698D01*
X4873467Y-6350794D01*
X4828050Y-6261658D01*
X4828046Y-6261654D01*
X4828045Y-6261652D01*
X4738347Y-6171954D01*
X4738344Y-6171952D01*
X4738342Y-6171950D01*
X4625304Y-6114354D01*
X4625303Y-6114353D01*
X4625300Y-6114352D01*
X4500003Y-6094508D01*
X4499997Y-6094508D01*
X4374699Y-6114352D01*
X4374695Y-6114353D01*
X4333384Y-6135403D01*
X4264715Y-6148299D01*
X4199975Y-6122022D01*
X4159718Y-6064916D01*
X4154618Y-6005515D01*
X4155492Y-6000000D01*
X4155491Y-5999997D01*
X4155492Y-5999996D01*
X4135647Y-5874699D01*
X4135646Y-5874696D01*
X4100794Y-5806296D01*
X4087897Y-5737626D01*
X4100794Y-5693704D01*
X4111152Y-5673376D01*
X4135646Y-5625304D01*
X4136854Y-5617677D01*
X4155492Y-5500003D01*
X4155492Y-5499996D01*
X4138609Y-5393397D01*
X4147564Y-5324104D01*
X4192560Y-5270652D01*
X4259312Y-5250013D01*
X4261082Y-5250000D01*
X5738918Y-5250000D01*
X5805957Y-5269685D01*
X5851712Y-5322489D01*
X5861656Y-5391647D01*
X5861391Y-5393397D01*
X5844508Y-5499996D01*
X5844508Y-5500003D01*
X5864352Y-5625300D01*
X5864353Y-5625304D01*
X5899206Y-5693706D01*
X5912102Y-5762375D01*
X5899206Y-5806294D01*
X5864353Y-5874695D01*
X5864352Y-5874699D01*
X5844508Y-5999996D01*
X5844508Y-6000003D01*
X5864352Y-6125300D01*
X5864353Y-6125304D01*
X5899206Y-6193706D01*
X5912102Y-6262375D01*
X5899206Y-6306294D01*
X5864353Y-6374695D01*
X5864352Y-6374699D01*
X5844508Y-6499996D01*
X5844508Y-6500003D01*
X5864352Y-6625300D01*
X5864353Y-6625304D01*
X5899206Y-6693706D01*
X5912102Y-6762375D01*
X5899206Y-6806294D01*
X5864353Y-6874695D01*
X5864352Y-6874699D01*
X5844508Y-6999996D01*
X5844508Y-7000003D01*
X5864352Y-7125300D01*
X5864353Y-7125304D01*
X5899206Y-7193706D01*
X5912102Y-7262375D01*
X5899206Y-7306294D01*
X5864353Y-7374695D01*
X5864352Y-7374699D01*
X5844508Y-7499996D01*
X5844508Y-7500003D01*
X5864352Y-7625300D01*
X5864353Y-7625304D01*
X5899206Y-7693706D01*
X5912102Y-7762375D01*
X5899206Y-7806294D01*
X5864353Y-7874695D01*
X5864352Y-7874699D01*
X5844508Y-7999996D01*
X5844508Y-8000003D01*
X5864352Y-8125300D01*
X5864353Y-8125304D01*
X5899206Y-8193706D01*
X5912102Y-8262375D01*
X5899206Y-8306294D01*
X5864353Y-8374695D01*
X5864352Y-8374699D01*
X5844508Y-8499996D01*
X5844508Y-8500003D01*
X5864352Y-8625300D01*
X5864352Y-8625301D01*
X5864354Y-8625304D01*
X5921950Y-8738342D01*
X5921952Y-8738344D01*
X5921954Y-8738347D01*
X6011652Y-8828045D01*
X6011654Y-8828046D01*
X6011658Y-8828050D01*
X6124696Y-8885646D01*
X6124698Y-8885646D01*
X6133392Y-8890076D01*
X6132674Y-8891484D01*
X6181304Y-8924734D01*
X6207785Y-8983833D01*
X6214352Y-9025300D01*
X6214352Y-9025301D01*
X6214354Y-9025304D01*
X6271950Y-9138342D01*
X6271952Y-9138344D01*
X6271954Y-9138347D01*
X6361652Y-9228045D01*
X6361654Y-9228046D01*
X6361658Y-9228050D01*
X6474696Y-9285646D01*
X6506276Y-9290647D01*
X6569410Y-9320576D01*
X6606341Y-9379887D01*
X6609351Y-9393722D01*
X6614353Y-9425301D01*
X6614352Y-9425301D01*
X6614354Y-9425304D01*
X6671950Y-9538342D01*
X6671952Y-9538344D01*
X6671954Y-9538347D01*
X6761652Y-9628045D01*
X6761654Y-9628046D01*
X6761658Y-9628050D01*
X6874696Y-9685646D01*
X6874697Y-9685646D01*
X6874699Y-9685647D01*
X7000725Y-9705607D01*
X7063860Y-9735536D01*
X7100792Y-9794847D01*
X7103801Y-9808681D01*
X7114353Y-9875301D01*
X7114353Y-9875304D01*
X7149206Y-9943706D01*
X7162102Y-10012375D01*
X7149206Y-10056294D01*
X7114353Y-10124695D01*
X7114352Y-10124699D01*
X7094508Y-10249996D01*
X7094508Y-10250003D01*
X7114352Y-10375300D01*
X7114353Y-10375304D01*
X7149206Y-10443706D01*
X7162102Y-10512375D01*
X7149206Y-10556294D01*
X7114353Y-10624695D01*
X7114352Y-10624699D01*
X7094508Y-10749996D01*
X7094508Y-10750003D01*
X7114352Y-10875300D01*
X7114353Y-10875304D01*
X7149206Y-10943706D01*
X7162102Y-11012375D01*
X7149206Y-11056294D01*
X7114353Y-11124695D01*
X7114352Y-11124699D01*
X7094508Y-11249996D01*
X7094508Y-11250003D01*
X7114352Y-11375300D01*
X7114353Y-11375304D01*
X7149206Y-11443706D01*
X7162102Y-11512375D01*
X7149206Y-11556294D01*
X7114353Y-11624695D01*
X7114352Y-11624699D01*
X7094508Y-11749996D01*
X7094508Y-11750003D01*
X7114352Y-11875300D01*
X7114353Y-11875304D01*
X7149206Y-11943706D01*
X7162102Y-12012375D01*
X7149206Y-12056294D01*
X7114353Y-12124695D01*
X7114352Y-12124699D01*
X7094508Y-12249996D01*
X7094508Y-12250003D01*
X7114352Y-12375300D01*
X7114353Y-12375304D01*
X7149206Y-12443706D01*
X7162102Y-12512375D01*
X7149206Y-12556294D01*
X7114353Y-12624695D01*
X7114352Y-12624699D01*
X7094508Y-12749996D01*
X7094508Y-12750003D01*
X7114352Y-12875300D01*
X7114353Y-12875304D01*
X7149206Y-12943706D01*
X7162102Y-13012375D01*
X7149206Y-13056294D01*
X7114353Y-13124695D01*
X7114352Y-13124699D01*
X7094508Y-13249996D01*
X7094508Y-13250003D01*
X7114352Y-13375300D01*
X7114353Y-13375304D01*
X7149206Y-13443706D01*
X7162102Y-13512375D01*
X7149206Y-13556294D01*
X7114353Y-13624695D01*
X7114352Y-13624699D01*
X7094508Y-13749996D01*
X7094508Y-13749997D01*
X7094508Y-13750000D01*
X7099706Y-13782819D01*
X7113324Y-13868804D01*
X7104368Y-13938098D01*
X7059371Y-13991549D01*
X6992620Y-14012188D01*
X6955916Y-14007178D01*
X6947994Y-14004852D01*
X6947978Y-14004848D01*
X6876001Y-13994500D01*
X6876000Y-13994500D01*
X6371255Y-13994500D01*
X6304216Y-13974815D01*
X6258461Y-13922011D01*
X6248517Y-13852853D01*
X6277542Y-13789297D01*
X6283574Y-13782819D01*
X6328045Y-13738347D01*
X6328050Y-13738342D01*
X6385646Y-13625304D01*
X6385646Y-13625302D01*
X6385647Y-13625301D01*
X6385647Y-13625300D01*
X6405492Y-13500003D01*
X6405492Y-13499996D01*
X6385647Y-13374699D01*
X6385646Y-13374696D01*
X6359606Y-13323590D01*
X6350793Y-13306295D01*
X6337897Y-13237626D01*
X6350794Y-13193704D01*
X6362547Y-13170638D01*
X6385646Y-13125304D01*
X6385742Y-13124699D01*
X6405492Y-13000003D01*
X6405492Y-12999996D01*
X6385647Y-12874699D01*
X6385646Y-12874696D01*
X6350794Y-12806296D01*
X6337897Y-12737626D01*
X6350794Y-12693704D01*
X6385646Y-12625304D01*
X6385742Y-12624699D01*
X6405492Y-12500003D01*
X6405492Y-12499996D01*
X6385647Y-12374699D01*
X6385646Y-12374696D01*
X6379341Y-12362322D01*
X6350793Y-12306295D01*
X6337897Y-12237626D01*
X6350794Y-12193704D01*
X6385646Y-12125304D01*
X6385742Y-12124699D01*
X6405492Y-12000003D01*
X6405492Y-11999996D01*
X6385647Y-11874699D01*
X6385646Y-11874696D01*
X6350794Y-11806296D01*
X6337897Y-11737626D01*
X6350794Y-11693704D01*
X6360323Y-11675003D01*
X6385646Y-11625304D01*
X6385742Y-11624699D01*
X6405492Y-11500003D01*
X6405492Y-11499996D01*
X6385647Y-11374699D01*
X6385646Y-11374696D01*
X6359849Y-11324067D01*
X6350793Y-11306295D01*
X6337897Y-11237626D01*
X6350794Y-11193704D01*
X6385646Y-11125304D01*
X6385742Y-11124699D01*
X6405492Y-11000003D01*
X6405492Y-10999996D01*
X6385647Y-10874699D01*
X6385646Y-10874696D01*
X6385645Y-10874695D01*
X6350793Y-10806295D01*
X6337897Y-10737626D01*
X6350794Y-10693704D01*
X6371883Y-10652315D01*
X6385646Y-10625304D01*
X6385646Y-10625302D01*
X6385647Y-10625300D01*
X6405492Y-10500003D01*
X6405492Y-10499996D01*
X6385647Y-10374699D01*
X6385647Y-10374698D01*
X6385646Y-10374696D01*
X6328050Y-10261658D01*
X6328046Y-10261654D01*
X6328045Y-10261652D01*
X6238347Y-10171954D01*
X6238344Y-10171952D01*
X6238342Y-10171950D01*
X6125304Y-10114354D01*
X6125303Y-10114353D01*
X6125300Y-10114352D01*
X6000003Y-10094508D01*
X5999997Y-10094508D01*
X5874699Y-10114352D01*
X5874698Y-10114352D01*
X5830912Y-10136663D01*
X5761658Y-10171950D01*
X5761657Y-10171951D01*
X5761652Y-10171954D01*
X5671954Y-10261652D01*
X5671951Y-10261657D01*
X5614352Y-10374698D01*
X5614352Y-10374699D01*
X5594508Y-10499996D01*
X5594508Y-10500003D01*
X5614352Y-10625300D01*
X5614353Y-10625304D01*
X5649206Y-10693706D01*
X5662102Y-10762375D01*
X5649206Y-10806294D01*
X5614353Y-10874695D01*
X5614352Y-10874699D01*
X5594508Y-10999996D01*
X5594508Y-11000003D01*
X5614352Y-11125300D01*
X5614353Y-11125304D01*
X5649206Y-11193706D01*
X5662102Y-11262375D01*
X5649206Y-11306294D01*
X5614353Y-11374695D01*
X5614352Y-11374699D01*
X5594508Y-11499996D01*
X5594508Y-11500003D01*
X5614352Y-11625300D01*
X5614353Y-11625304D01*
X5649206Y-11693706D01*
X5662102Y-11762375D01*
X5649206Y-11806294D01*
X5614353Y-11874695D01*
X5614352Y-11874699D01*
X5594508Y-11999996D01*
X5594508Y-12000003D01*
X5614352Y-12125300D01*
X5614353Y-12125304D01*
X5649206Y-12193706D01*
X5662102Y-12262375D01*
X5649206Y-12306294D01*
X5614353Y-12374695D01*
X5614352Y-12374699D01*
X5594508Y-12499996D01*
X5594508Y-12500003D01*
X5614352Y-12625300D01*
X5614353Y-12625304D01*
X5649206Y-12693706D01*
X5662102Y-12762375D01*
X5649206Y-12806294D01*
X5614353Y-12874695D01*
X5614352Y-12874699D01*
X5594508Y-12999996D01*
X5594508Y-13000003D01*
X5614352Y-13125300D01*
X5614353Y-13125304D01*
X5649206Y-13193706D01*
X5662102Y-13262375D01*
X5649206Y-13306294D01*
X5614353Y-13374695D01*
X5614352Y-13374699D01*
X5594508Y-13499996D01*
X5594508Y-13500003D01*
X5614352Y-13625300D01*
X5614352Y-13625301D01*
X5614354Y-13625304D01*
X5671950Y-13738342D01*
X5671952Y-13738344D01*
X5671954Y-13738347D01*
X5716426Y-13782819D01*
X5749911Y-13844142D01*
X5744927Y-13913834D01*
X5703055Y-13969767D01*
X5637591Y-13994184D01*
X5628745Y-13994500D01*
X3373997Y-13994500D01*
X3319687Y-14000338D01*
X3268181Y-14011543D01*
X3268172Y-14011546D01*
X3241807Y-14018779D01*
X3241796Y-14018783D01*
X3155181Y-14068105D01*
X3155173Y-14068111D01*
X3102371Y-14113863D01*
X3070743Y-14146640D01*
X3024534Y-14234977D01*
X3024533Y-14234977D01*
X3004851Y-14302009D01*
X3004848Y-14302021D01*
X2994500Y-14373998D01*
X2994500Y-14374000D01*
X2994500Y-16999999D01*
X2994500Y-19249999D01*
X2994500Y-21187499D01*
X2994500Y-24399999D01*
X2994500Y-26513172D01*
X2994500Y-26836314D01*
X2994500Y-27586595D01*
X3001950Y-27647682D01*
X3001991Y-27648013D01*
X3016315Y-27705862D01*
X3023623Y-27728631D01*
X3026898Y-27738835D01*
X3081089Y-27822511D01*
X3081092Y-27822514D01*
X3081096Y-27822519D01*
X3129777Y-27872616D01*
X3129786Y-27872625D01*
X3164308Y-27902327D01*
X3164310Y-27902328D01*
X3207688Y-27921954D01*
X3260653Y-27967523D01*
X3279047Y-28015531D01*
X3298882Y-28140771D01*
X3298883Y-28140772D01*
X3300596Y-28144134D01*
X3301445Y-28148656D01*
X3301899Y-28150053D01*
X3301718Y-28150111D01*
X3313491Y-28212804D01*
X3287213Y-28277544D01*
X3277798Y-28288101D01*
X3272108Y-28293790D01*
X3272108Y-28293792D01*
X3214508Y-28406835D01*
X3214508Y-28406836D01*
X3194664Y-28532133D01*
X3194664Y-28532139D01*
X3214508Y-28657437D01*
X3214509Y-28657438D01*
X3214509Y-28657439D01*
X3214510Y-28657441D01*
X3233156Y-28694036D01*
X3233457Y-28694627D01*
X3246352Y-28763297D01*
X3233456Y-28807215D01*
X3183196Y-28905854D01*
X3183196Y-28905855D01*
X3163352Y-29031152D01*
X3163352Y-29031153D01*
X3177147Y-29118258D01*
X3168191Y-29187552D01*
X3135878Y-29231366D01*
X3102373Y-29260398D01*
X3070743Y-29293177D01*
X3024534Y-29381514D01*
X3024533Y-29381514D01*
X3004851Y-29448546D01*
X3004848Y-29448558D01*
X2994500Y-29520535D01*
X2994500Y-29520537D01*
X2994500Y-29771514D01*
X2994500Y-32999999D01*
X2994500Y-33173080D01*
X2994507Y-33174959D01*
X2994519Y-33176625D01*
X2994520Y-33176732D01*
X3005912Y-33250311D01*
X3005915Y-33250326D01*
X3026545Y-33317053D01*
X3026546Y-33317057D01*
X3043832Y-33359215D01*
X3048328Y-33366855D01*
X3046872Y-33367711D01*
X3069427Y-33422724D01*
X3056774Y-33491438D01*
X3056576Y-33491829D01*
X3014353Y-33574695D01*
X3014352Y-33574699D01*
X2994508Y-33699996D01*
X2994508Y-33700003D01*
X3014352Y-33825300D01*
X3014352Y-33825301D01*
X3014354Y-33825304D01*
X3071950Y-33938342D01*
X3071952Y-33938344D01*
X3071954Y-33938347D01*
X3161652Y-34028045D01*
X3161654Y-34028046D01*
X3161658Y-34028050D01*
X3274696Y-34085646D01*
X3274697Y-34085646D01*
X3274699Y-34085647D01*
X3399997Y-34105492D01*
X3400000Y-34105492D01*
X3400003Y-34105492D01*
X3525300Y-34085647D01*
X3525301Y-34085647D01*
X3525302Y-34085646D01*
X3525304Y-34085646D01*
X3638342Y-34028050D01*
X3659187Y-34007204D01*
X3720509Y-33973719D01*
X3781804Y-33975908D01*
X3847332Y-33995150D01*
X3847336Y-33995150D01*
X3847338Y-33995151D01*
X3858969Y-33996823D01*
X3919317Y-34005500D01*
X10738047Y-34005500D01*
X10805086Y-34025185D01*
X10850841Y-34077989D01*
X10860785Y-34147147D01*
X10860520Y-34148897D01*
X10844508Y-34249996D01*
X10844508Y-34250003D01*
X10864352Y-34375300D01*
X10864352Y-34375301D01*
X10864354Y-34375304D01*
X10921950Y-34488342D01*
X10921952Y-34488344D01*
X10921954Y-34488347D01*
X11011652Y-34578045D01*
X11011654Y-34578046D01*
X11011658Y-34578050D01*
X11124696Y-34635646D01*
X11124697Y-34635646D01*
X11124699Y-34635647D01*
X11249997Y-34655492D01*
X11250000Y-34655492D01*
X11250003Y-34655492D01*
X11375300Y-34635647D01*
X11375301Y-34635647D01*
X11375302Y-34635646D01*
X11375304Y-34635646D01*
X11488342Y-34578050D01*
X11578050Y-34488342D01*
X11635646Y-34375304D01*
X11635646Y-34375302D01*
X11635647Y-34375301D01*
X11635647Y-34375300D01*
X11655492Y-34250003D01*
X11655492Y-34249996D01*
X11639480Y-34148897D01*
X11648435Y-34079604D01*
X11693431Y-34026152D01*
X11760183Y-34005513D01*
X11761953Y-34005500D01*
X12876000Y-34005500D01*
X12930313Y-33999661D01*
X12981824Y-33988455D01*
X13008198Y-33981219D01*
X13037074Y-33964775D01*
X13094818Y-33931894D01*
X13094819Y-33931892D01*
X13094828Y-33931888D01*
X13147632Y-33886133D01*
X13179257Y-33853359D01*
X13225465Y-33765024D01*
X13245150Y-33697985D01*
X13255500Y-33626000D01*
X13255500Y-27011081D01*
X13255493Y-27009206D01*
X13255480Y-27007435D01*
X13244084Y-26933833D01*
X13223444Y-26867082D01*
X13223442Y-26867077D01*
X13223438Y-26867065D01*
X13206167Y-26824946D01*
X13206165Y-26824942D01*
X13193738Y-26809408D01*
X13167231Y-26744762D01*
X13179882Y-26676047D01*
X13227676Y-26625080D01*
X13295436Y-26608044D01*
X13346861Y-26621463D01*
X13374696Y-26635646D01*
X13492607Y-26654321D01*
X13555738Y-26684248D01*
X13592669Y-26743559D01*
X13595679Y-26757396D01*
X13614352Y-26875300D01*
X13614352Y-26875301D01*
X13614354Y-26875304D01*
X13671950Y-26988342D01*
X13671952Y-26988344D01*
X13671954Y-26988347D01*
X13761652Y-27078045D01*
X13761654Y-27078046D01*
X13761658Y-27078050D01*
X13874696Y-27135646D01*
X13874697Y-27135646D01*
X13874699Y-27135647D01*
X13999997Y-27155492D01*
X14000000Y-27155492D01*
X14000003Y-27155492D01*
X14125300Y-27135647D01*
X14125301Y-27135647D01*
X14125302Y-27135646D01*
X14125304Y-27135646D01*
X14238342Y-27078050D01*
X14328050Y-26988342D01*
X14385646Y-26875304D01*
X14385646Y-26875302D01*
X14385647Y-26875301D01*
X14385647Y-26875300D01*
X14405492Y-26750003D01*
X14405492Y-26749996D01*
X14385647Y-26624699D01*
X14385647Y-26624698D01*
X14377161Y-26608044D01*
X14328050Y-26511658D01*
X14328046Y-26511654D01*
X14328045Y-26511652D01*
X14238347Y-26421954D01*
X14238344Y-26421952D01*
X14238342Y-26421950D01*
X14125304Y-26364354D01*
X14125303Y-26364353D01*
X14125300Y-26364352D01*
X14007396Y-26345679D01*
X13944261Y-26315750D01*
X13907329Y-26256439D01*
X13904324Y-26242627D01*
X13885646Y-26124696D01*
X13828050Y-26011658D01*
X13828046Y-26011654D01*
X13828045Y-26011652D01*
X13738347Y-25921954D01*
X13738344Y-25921952D01*
X13738342Y-25921950D01*
X13625304Y-25864354D01*
X13625303Y-25864353D01*
X13625300Y-25864352D01*
X13500003Y-25844508D01*
X13499997Y-25844508D01*
X13398897Y-25860520D01*
X13329604Y-25851565D01*
X13276152Y-25806569D01*
X13255513Y-25739817D01*
X13255500Y-25738047D01*
X13255500Y-21510527D01*
X13275185Y-21443488D01*
X13327989Y-21397733D01*
X13360099Y-21388053D01*
X13375304Y-21385646D01*
X13488342Y-21328050D01*
X13578050Y-21238342D01*
X13635646Y-21125304D01*
X13635646Y-21125302D01*
X13635647Y-21125301D01*
X13635647Y-21125300D01*
X13655492Y-21000003D01*
X13655492Y-20999996D01*
X13635647Y-20874699D01*
X13635647Y-20874698D01*
X13625539Y-20854860D01*
X13578050Y-20761658D01*
X13578046Y-20761654D01*
X13578045Y-20761652D01*
X13488347Y-20671954D01*
X13488344Y-20671952D01*
X13488342Y-20671950D01*
X13375304Y-20614354D01*
X13375303Y-20614353D01*
X13375300Y-20614352D01*
X13257396Y-20595679D01*
X13194261Y-20565750D01*
X13157329Y-20506439D01*
X13154324Y-20492627D01*
X13135646Y-20374696D01*
X13135645Y-20374694D01*
X13135645Y-20374693D01*
X13132631Y-20365417D01*
X13135249Y-20364566D01*
X13125132Y-20310710D01*
X13151406Y-20245969D01*
X13159269Y-20236990D01*
X13179257Y-20216277D01*
X13225465Y-20127942D01*
X13226262Y-20125230D01*
X13234066Y-20098649D01*
X13245150Y-20060903D01*
X13255500Y-19988918D01*
X13255500Y-17719000D01*
X13255493Y-17717125D01*
X13255480Y-17715354D01*
X13244085Y-17641753D01*
X13238811Y-17624695D01*
X13223450Y-17575016D01*
X13223447Y-17575007D01*
X13206166Y-17532862D01*
X13206165Y-17532860D01*
X13206165Y-17532859D01*
X13178999Y-17498901D01*
X13152493Y-17434257D01*
X13165144Y-17365542D01*
X13165345Y-17365146D01*
X13185646Y-17325304D01*
X13185647Y-17325300D01*
X13205492Y-17200003D01*
X13205492Y-17199996D01*
X13185647Y-17074699D01*
X13185647Y-17074698D01*
X13185646Y-17074696D01*
X13167696Y-17039468D01*
X13154801Y-16970801D01*
X13175437Y-16916368D01*
X13175146Y-16916216D01*
X13176414Y-16913790D01*
X13177608Y-16910643D01*
X13179249Y-16908365D01*
X13179257Y-16908358D01*
X13225465Y-16820023D01*
X13226667Y-16815932D01*
X13236483Y-16782499D01*
X13245150Y-16752984D01*
X13255500Y-16680999D01*
X13255500Y-15124000D01*
X13249661Y-15069687D01*
X13238455Y-15018176D01*
X13231219Y-14991802D01*
X13227332Y-14984976D01*
X13181894Y-14905181D01*
X13181890Y-14905176D01*
X13181888Y-14905172D01*
X13146097Y-14863867D01*
X13136136Y-14852371D01*
X13103359Y-14820743D01*
X13015022Y-14774534D01*
X13015022Y-14774533D01*
X12947990Y-14754851D01*
X12947978Y-14754848D01*
X12876001Y-14744500D01*
X12876000Y-14744500D01*
X9624000Y-14744500D01*
X9623997Y-14744500D01*
X9569687Y-14750338D01*
X9518181Y-14761543D01*
X9518172Y-14761546D01*
X9491807Y-14768779D01*
X9491796Y-14768783D01*
X9405181Y-14818105D01*
X9405173Y-14818111D01*
X9352371Y-14863863D01*
X9320743Y-14896640D01*
X9274534Y-14984977D01*
X9274533Y-14984977D01*
X9254851Y-15052009D01*
X9254848Y-15052021D01*
X9244500Y-15123998D01*
X9244500Y-17620500D01*
X9224815Y-17687539D01*
X9172011Y-17733294D01*
X9120500Y-17744500D01*
X8010851Y-17744500D01*
X8010851Y-17744482D01*
X7943810Y-17725023D01*
X7897892Y-17672360D01*
X7888053Y-17639896D01*
X7885646Y-17624696D01*
X7850793Y-17556295D01*
X7837897Y-17487626D01*
X7850794Y-17443704D01*
X7853526Y-17438342D01*
X7885646Y-17375304D01*
X7885647Y-17375300D01*
X7905492Y-17250003D01*
X7905492Y-17249996D01*
X7885647Y-17124699D01*
X7885646Y-17124696D01*
X7860171Y-17074699D01*
X7850793Y-17056295D01*
X7837897Y-16987626D01*
X7850794Y-16943704D01*
X7885646Y-16875304D01*
X7892159Y-16834184D01*
X7905492Y-16750003D01*
X7905492Y-16749996D01*
X7885647Y-16624699D01*
X7885646Y-16624696D01*
X7850794Y-16556296D01*
X7837897Y-16487626D01*
X7850794Y-16443704D01*
X7870991Y-16404066D01*
X7885646Y-16375304D01*
X7885742Y-16374698D01*
X7905492Y-16250003D01*
X7905492Y-16249996D01*
X7885647Y-16124699D01*
X7885646Y-16124696D01*
X7850794Y-16056296D01*
X7837897Y-15987626D01*
X7850794Y-15943704D01*
X7885646Y-15875304D01*
X7885647Y-15875300D01*
X7905492Y-15750003D01*
X7905492Y-15749996D01*
X7885647Y-15624699D01*
X7885646Y-15624696D01*
X7850793Y-15556295D01*
X7837897Y-15487626D01*
X7850794Y-15443704D01*
X7885646Y-15375304D01*
X7905492Y-15250000D01*
X7905492Y-15249996D01*
X7885647Y-15124699D01*
X7885646Y-15124696D01*
X7850794Y-15056296D01*
X7837897Y-14987626D01*
X7850794Y-14943704D01*
X7885646Y-14875304D01*
X7885647Y-14875300D01*
X7905492Y-14750003D01*
X7905492Y-14749996D01*
X7885647Y-14624699D01*
X7885646Y-14624696D01*
X7850794Y-14556296D01*
X7837897Y-14487626D01*
X7850794Y-14443704D01*
X7885646Y-14375304D01*
X7905492Y-14250000D01*
X7905492Y-14249996D01*
X7885647Y-14124699D01*
X7885646Y-14124696D01*
X7850794Y-14056296D01*
X7837897Y-13987626D01*
X7850794Y-13943704D01*
X7885646Y-13875304D01*
X7885647Y-13875300D01*
X7905492Y-13750003D01*
X7905492Y-13749996D01*
X7885647Y-13624699D01*
X7885646Y-13624696D01*
X7850794Y-13556296D01*
X7837897Y-13487626D01*
X7850794Y-13443704D01*
X7885646Y-13375304D01*
X7885742Y-13374699D01*
X7905492Y-13250003D01*
X7905492Y-13249996D01*
X7885647Y-13124699D01*
X7885646Y-13124696D01*
X7850794Y-13056296D01*
X7837897Y-12987626D01*
X7850794Y-12943704D01*
X7885646Y-12875304D01*
X7885742Y-12874699D01*
X7905492Y-12750003D01*
X7905492Y-12749996D01*
X7885647Y-12624699D01*
X7885646Y-12624696D01*
X7850794Y-12556296D01*
X7837897Y-12487626D01*
X7850794Y-12443704D01*
X7869147Y-12407685D01*
X7885646Y-12375304D01*
X7885742Y-12374699D01*
X7905492Y-12250003D01*
X7905492Y-12249996D01*
X7885647Y-12124699D01*
X7885646Y-12124696D01*
X7853011Y-12060647D01*
X7850793Y-12056295D01*
X7837897Y-11987626D01*
X7850794Y-11943704D01*
X7866262Y-11913347D01*
X7885646Y-11875304D01*
X7885742Y-11874699D01*
X7905492Y-11750003D01*
X7905492Y-11749996D01*
X7885647Y-11624699D01*
X7885646Y-11624696D01*
X7850794Y-11556296D01*
X7837897Y-11487626D01*
X7850794Y-11443704D01*
X7854387Y-11436652D01*
X7885646Y-11375304D01*
X7885742Y-11374699D01*
X7905492Y-11250003D01*
X7905492Y-11249996D01*
X7885647Y-11124699D01*
X7885646Y-11124696D01*
X7850794Y-11056296D01*
X7837897Y-10987626D01*
X7850794Y-10943704D01*
X7885646Y-10875304D01*
X7885742Y-10874699D01*
X7905492Y-10750003D01*
X7905492Y-10749996D01*
X7885647Y-10624699D01*
X7885646Y-10624696D01*
X7873467Y-10600794D01*
X7850793Y-10556295D01*
X7840220Y-10499996D01*
X12394508Y-10499996D01*
X12394508Y-10500003D01*
X12414352Y-10625300D01*
X12414352Y-10625301D01*
X12419624Y-10635647D01*
X12471950Y-10738342D01*
X12471952Y-10738344D01*
X12471954Y-10738347D01*
X12561652Y-10828045D01*
X12561654Y-10828046D01*
X12561658Y-10828050D01*
X12674696Y-10885646D01*
X12674697Y-10885646D01*
X12674699Y-10885647D01*
X12799997Y-10905492D01*
X12800000Y-10905492D01*
X12800003Y-10905492D01*
X12925300Y-10885647D01*
X12925301Y-10885647D01*
X12925302Y-10885646D01*
X12925304Y-10885646D01*
X13038342Y-10828050D01*
X13128050Y-10738342D01*
X13164133Y-10667524D01*
X13212105Y-10616731D01*
X13279925Y-10599935D01*
X13330909Y-10613335D01*
X13374696Y-10635646D01*
X13374697Y-10635646D01*
X13374699Y-10635647D01*
X13499997Y-10655492D01*
X13500000Y-10655492D01*
X13500003Y-10655492D01*
X13625300Y-10635647D01*
X13625302Y-10635646D01*
X13625304Y-10635646D01*
X13693704Y-10600793D01*
X13762374Y-10587897D01*
X13806294Y-10600793D01*
X13854391Y-10625300D01*
X13874696Y-10635646D01*
X13874699Y-10635647D01*
X13999997Y-10655492D01*
X14000000Y-10655492D01*
X14000003Y-10655492D01*
X14125300Y-10635647D01*
X14125302Y-10635646D01*
X14125304Y-10635646D01*
X14193704Y-10600793D01*
X14262374Y-10587897D01*
X14306294Y-10600793D01*
X14354391Y-10625300D01*
X14374696Y-10635646D01*
X14374699Y-10635647D01*
X14499997Y-10655492D01*
X14500000Y-10655492D01*
X14500003Y-10655492D01*
X14625300Y-10635647D01*
X14625301Y-10635647D01*
X14625302Y-10635646D01*
X14625304Y-10635646D01*
X14738342Y-10578050D01*
X14828050Y-10488342D01*
X14885646Y-10375304D01*
X14885646Y-10375302D01*
X14885647Y-10375301D01*
X14885647Y-10375300D01*
X14905492Y-10250003D01*
X14905492Y-10249996D01*
X14885647Y-10124699D01*
X14885646Y-10124696D01*
X14850794Y-10056296D01*
X14837897Y-9987626D01*
X14850794Y-9943704D01*
X14870264Y-9905492D01*
X14885646Y-9875304D01*
X14885646Y-9875302D01*
X14885647Y-9875300D01*
X14905492Y-9750003D01*
X14905492Y-9749996D01*
X14885647Y-9624699D01*
X14885647Y-9624698D01*
X14861063Y-9576450D01*
X14828050Y-9511658D01*
X14828046Y-9511654D01*
X14828045Y-9511652D01*
X14738347Y-9421954D01*
X14738344Y-9421952D01*
X14738342Y-9421950D01*
X14625304Y-9364354D01*
X14625303Y-9364353D01*
X14625300Y-9364352D01*
X14500003Y-9344508D01*
X14499997Y-9344508D01*
X14374699Y-9364352D01*
X14374695Y-9364353D01*
X14306294Y-9399206D01*
X14237625Y-9412102D01*
X14193706Y-9399206D01*
X14125304Y-9364353D01*
X14125300Y-9364352D01*
X14000003Y-9344508D01*
X13999997Y-9344508D01*
X13874699Y-9364352D01*
X13874695Y-9364353D01*
X13806294Y-9399206D01*
X13737625Y-9412102D01*
X13693706Y-9399206D01*
X13625304Y-9364353D01*
X13625300Y-9364352D01*
X13500003Y-9344508D01*
X13499997Y-9344508D01*
X13374699Y-9364352D01*
X13374698Y-9364352D01*
X13328865Y-9387706D01*
X13261658Y-9421950D01*
X13261657Y-9421951D01*
X13261652Y-9421954D01*
X13171954Y-9511652D01*
X13171951Y-9511657D01*
X13114352Y-9624698D01*
X13114352Y-9624699D01*
X13094508Y-9749996D01*
X13094508Y-9750003D01*
X13114352Y-9875300D01*
X13114353Y-9875304D01*
X13149206Y-9943706D01*
X13162102Y-10012375D01*
X13149205Y-10056297D01*
X13135866Y-10082475D01*
X13087890Y-10133270D01*
X13020069Y-10150064D01*
X12969088Y-10136663D01*
X12925304Y-10114354D01*
X12925303Y-10114353D01*
X12925300Y-10114352D01*
X12800003Y-10094508D01*
X12799997Y-10094508D01*
X12674699Y-10114352D01*
X12674698Y-10114352D01*
X12630912Y-10136663D01*
X12561658Y-10171950D01*
X12561657Y-10171951D01*
X12561652Y-10171954D01*
X12471954Y-10261652D01*
X12471951Y-10261657D01*
X12414352Y-10374698D01*
X12414352Y-10374699D01*
X12394508Y-10499996D01*
X7840220Y-10499996D01*
X7837897Y-10487626D01*
X7850794Y-10443704D01*
X7885646Y-10375304D01*
X7885646Y-10375302D01*
X7885647Y-10375300D01*
X7905492Y-10250003D01*
X7905492Y-10249996D01*
X7885647Y-10124699D01*
X7885646Y-10124696D01*
X7850794Y-10056296D01*
X7837897Y-9987626D01*
X7850794Y-9943704D01*
X7870264Y-9905492D01*
X7885646Y-9875304D01*
X7885646Y-9875302D01*
X7885647Y-9875300D01*
X7905492Y-9750003D01*
X7905492Y-9749996D01*
X7885647Y-9624699D01*
X7885647Y-9624698D01*
X7861063Y-9576450D01*
X7828050Y-9511658D01*
X7828046Y-9511654D01*
X7828045Y-9511652D01*
X7738347Y-9421954D01*
X7738344Y-9421952D01*
X7738342Y-9421950D01*
X7655789Y-9379887D01*
X7625301Y-9364352D01*
X7499273Y-9344392D01*
X7436138Y-9314463D01*
X7399207Y-9255151D01*
X7396198Y-9241316D01*
X7385647Y-9174699D01*
X7385647Y-9174698D01*
X7367125Y-9138347D01*
X7328050Y-9061658D01*
X7328046Y-9061654D01*
X7328045Y-9061652D01*
X7238347Y-8971954D01*
X7238344Y-8971952D01*
X7238342Y-8971950D01*
X7145676Y-8924734D01*
X7125301Y-8914352D01*
X7093722Y-8909351D01*
X7030588Y-8879421D01*
X6993657Y-8820109D01*
X6990649Y-8806284D01*
X6985646Y-8774696D01*
X6928050Y-8661658D01*
X6928046Y-8661654D01*
X6928045Y-8661652D01*
X6838347Y-8571954D01*
X6838344Y-8571952D01*
X6838342Y-8571950D01*
X6725304Y-8514354D01*
X6725302Y-8514353D01*
X6716609Y-8509924D01*
X6717326Y-8508516D01*
X6668692Y-8475261D01*
X6642214Y-8416166D01*
X6635646Y-8374696D01*
X6600793Y-8306295D01*
X6587897Y-8237626D01*
X6600794Y-8193704D01*
X6604469Y-8186492D01*
X6635646Y-8125304D01*
X6635646Y-8125302D01*
X6635647Y-8125300D01*
X6655492Y-8000003D01*
X6655492Y-7999996D01*
X6635647Y-7874699D01*
X6635646Y-7874696D01*
X6600794Y-7806296D01*
X6587897Y-7737626D01*
X6600794Y-7693704D01*
X6635646Y-7625304D01*
X6655492Y-7500000D01*
X6655492Y-7499996D01*
X6635647Y-7374699D01*
X6635646Y-7374696D01*
X6622737Y-7349361D01*
X6600793Y-7306295D01*
X6587897Y-7237626D01*
X6600794Y-7193704D01*
X6635646Y-7125304D01*
X6655492Y-7000000D01*
X6655492Y-6999996D01*
X6635647Y-6874699D01*
X6635646Y-6874696D01*
X6600794Y-6806296D01*
X6587897Y-6737626D01*
X6600794Y-6693704D01*
X6620040Y-6655932D01*
X6635646Y-6625304D01*
X6635647Y-6625300D01*
X6655492Y-6500003D01*
X6655492Y-6499996D01*
X6635647Y-6374699D01*
X6635646Y-6374696D01*
X6616896Y-6337897D01*
X6600793Y-6306295D01*
X6587897Y-6237626D01*
X6600794Y-6193704D01*
X6605938Y-6183608D01*
X6635646Y-6125304D01*
X6635646Y-6125302D01*
X6635647Y-6125300D01*
X6655492Y-6000003D01*
X6655492Y-5999996D01*
X8594508Y-5999996D01*
X8594508Y-6000003D01*
X8614352Y-6125300D01*
X8614353Y-6125304D01*
X8649206Y-6193706D01*
X8662102Y-6262375D01*
X8649206Y-6306294D01*
X8614353Y-6374695D01*
X8614352Y-6374699D01*
X8594508Y-6499996D01*
X8594508Y-6500003D01*
X8614352Y-6625300D01*
X8614353Y-6625304D01*
X8649206Y-6693706D01*
X8662102Y-6762375D01*
X8649206Y-6806294D01*
X8614353Y-6874695D01*
X8614352Y-6874699D01*
X8594508Y-6999996D01*
X8594508Y-7000003D01*
X8614352Y-7125300D01*
X8614353Y-7125304D01*
X8649206Y-7193706D01*
X8662102Y-7262375D01*
X8649206Y-7306294D01*
X8614353Y-7374695D01*
X8614352Y-7374699D01*
X8594508Y-7499996D01*
X8594508Y-7500003D01*
X8614352Y-7625300D01*
X8614353Y-7625304D01*
X8649206Y-7693706D01*
X8662102Y-7762375D01*
X8649206Y-7806294D01*
X8614353Y-7874695D01*
X8614352Y-7874699D01*
X8594508Y-7999996D01*
X8594508Y-8000003D01*
X8614352Y-8125300D01*
X8614353Y-8125304D01*
X8649206Y-8193706D01*
X8662102Y-8262375D01*
X8649206Y-8306294D01*
X8614353Y-8374695D01*
X8614352Y-8374699D01*
X8594508Y-8499996D01*
X8594508Y-8500003D01*
X8614352Y-8625300D01*
X8614353Y-8625304D01*
X8649206Y-8693706D01*
X8662102Y-8762375D01*
X8649206Y-8806294D01*
X8614353Y-8874695D01*
X8614352Y-8874699D01*
X8594508Y-8999996D01*
X8594508Y-9000003D01*
X8614352Y-9125300D01*
X8614353Y-9125304D01*
X8649206Y-9193706D01*
X8662102Y-9262375D01*
X8649206Y-9306294D01*
X8614353Y-9374695D01*
X8614352Y-9374699D01*
X8594508Y-9499996D01*
X8594508Y-9500003D01*
X8614352Y-9625300D01*
X8614352Y-9625301D01*
X8615752Y-9628048D01*
X8671950Y-9738342D01*
X8671952Y-9738344D01*
X8671954Y-9738347D01*
X8761652Y-9828045D01*
X8761654Y-9828046D01*
X8761658Y-9828050D01*
X8874696Y-9885646D01*
X8874697Y-9885646D01*
X8874699Y-9885647D01*
X8999997Y-9905492D01*
X9000000Y-9905492D01*
X9000003Y-9905492D01*
X9125300Y-9885647D01*
X9125301Y-9885647D01*
X9125302Y-9885646D01*
X9125304Y-9885646D01*
X9238342Y-9828050D01*
X9328050Y-9738342D01*
X9385646Y-9625304D01*
X9385646Y-9625302D01*
X9385647Y-9625301D01*
X9385647Y-9625300D01*
X9405492Y-9500003D01*
X9405492Y-9499996D01*
X9385647Y-9374699D01*
X9385646Y-9374696D01*
X9370205Y-9344392D01*
X9350793Y-9306295D01*
X9337897Y-9237626D01*
X9350794Y-9193704D01*
X9360479Y-9174696D01*
X9385646Y-9125304D01*
X9385646Y-9125302D01*
X9385647Y-9125300D01*
X9405492Y-9000003D01*
X9405492Y-8999996D01*
X9385647Y-8874699D01*
X9385646Y-8874696D01*
X9385645Y-8874694D01*
X9350793Y-8806295D01*
X9337897Y-8737626D01*
X9350794Y-8693704D01*
X9385646Y-8625304D01*
X9385646Y-8625302D01*
X9385647Y-8625300D01*
X9405492Y-8500003D01*
X9405492Y-8499996D01*
X9385647Y-8374699D01*
X9385646Y-8374696D01*
X9373620Y-8351094D01*
X9350793Y-8306295D01*
X9337897Y-8237626D01*
X9350794Y-8193704D01*
X9354469Y-8186492D01*
X9385646Y-8125304D01*
X9385646Y-8125302D01*
X9385647Y-8125300D01*
X9405492Y-8000003D01*
X9405492Y-7999996D01*
X9385647Y-7874699D01*
X9385646Y-7874696D01*
X9350794Y-7806296D01*
X9337897Y-7737626D01*
X9350794Y-7693704D01*
X9385646Y-7625304D01*
X9405492Y-7500000D01*
X9405492Y-7499996D01*
X9385647Y-7374699D01*
X9385646Y-7374696D01*
X9372737Y-7349361D01*
X9350793Y-7306295D01*
X9337897Y-7237626D01*
X9350794Y-7193704D01*
X9385646Y-7125304D01*
X9405492Y-7000000D01*
X9405492Y-6999996D01*
X9385647Y-6874699D01*
X9385646Y-6874696D01*
X9350794Y-6806296D01*
X9337897Y-6737626D01*
X9350794Y-6693704D01*
X9385646Y-6625304D01*
X9404321Y-6507392D01*
X9434248Y-6444262D01*
X9493559Y-6407330D01*
X9507372Y-6404324D01*
X9625304Y-6385646D01*
X9693704Y-6350793D01*
X9762374Y-6337897D01*
X9806294Y-6350793D01*
X9863521Y-6379952D01*
X9874696Y-6385646D01*
X9874699Y-6385647D01*
X9999997Y-6405492D01*
X10000000Y-6405492D01*
X10000003Y-6405492D01*
X10125300Y-6385647D01*
X10125301Y-6385647D01*
X10125302Y-6385646D01*
X10125304Y-6385646D01*
X10238342Y-6328050D01*
X10328050Y-6238342D01*
X10385646Y-6125304D01*
X10385646Y-6125302D01*
X10385647Y-6125301D01*
X10385647Y-6125300D01*
X10405492Y-6000003D01*
X10405492Y-5999996D01*
X10385647Y-5874699D01*
X10385647Y-5874698D01*
X10379965Y-5863547D01*
X10328050Y-5761658D01*
X10328046Y-5761654D01*
X10328045Y-5761652D01*
X10238347Y-5671954D01*
X10238344Y-5671952D01*
X10238342Y-5671950D01*
X10125304Y-5614354D01*
X10125303Y-5614353D01*
X10125300Y-5614352D01*
X10000003Y-5594508D01*
X9999997Y-5594508D01*
X9874699Y-5614352D01*
X9874695Y-5614353D01*
X9806294Y-5649206D01*
X9737625Y-5662102D01*
X9693706Y-5649206D01*
X9625304Y-5614353D01*
X9625300Y-5614352D01*
X9500003Y-5594508D01*
X9499997Y-5594508D01*
X9374699Y-5614352D01*
X9374695Y-5614353D01*
X9306294Y-5649206D01*
X9237625Y-5662102D01*
X9193706Y-5649206D01*
X9125304Y-5614353D01*
X9125300Y-5614352D01*
X9000003Y-5594508D01*
X8999997Y-5594508D01*
X8874699Y-5614352D01*
X8874698Y-5614352D01*
X8811622Y-5646492D01*
X8761658Y-5671950D01*
X8761657Y-5671951D01*
X8761652Y-5671954D01*
X8671954Y-5761652D01*
X8671951Y-5761657D01*
X8614352Y-5874698D01*
X8614352Y-5874699D01*
X8594508Y-5999996D01*
X6655492Y-5999996D01*
X6635647Y-5874699D01*
X6635646Y-5874696D01*
X6600794Y-5806296D01*
X6587897Y-5737626D01*
X6600794Y-5693704D01*
X6611152Y-5673376D01*
X6635646Y-5625304D01*
X6636854Y-5617677D01*
X6655492Y-5500003D01*
X6655492Y-5499996D01*
X6638609Y-5393397D01*
X6647564Y-5324104D01*
X6692560Y-5270652D01*
X6759312Y-5250013D01*
X6761082Y-5250000D01*
X16141521Y-5250000D01*
X16208560Y-5269685D01*
X16254315Y-5322489D01*
X16264259Y-5391647D01*
X16235234Y-5455203D01*
X16199975Y-5483358D01*
X16168835Y-5500003D01*
X16033550Y-5572315D01*
X16033548Y-5572316D01*
X16033547Y-5572317D01*
X15873589Y-5703589D01*
X15742317Y-5863547D01*
X15742315Y-5863550D01*
X15736356Y-5874699D01*
X15644769Y-6046043D01*
X15584699Y-6244067D01*
X15564417Y-6450000D01*
X15584699Y-6655932D01*
X15584700Y-6655934D01*
X15644768Y-6853954D01*
X15742315Y-7036450D01*
X15742317Y-7036452D01*
X15873589Y-7196410D01*
X15953095Y-7261658D01*
X16033550Y-7327685D01*
X16216046Y-7425232D01*
X16414066Y-7485300D01*
X16414065Y-7485300D01*
X16432529Y-7487118D01*
X16620000Y-7505583D01*
X16825934Y-7485300D01*
X17023954Y-7425232D01*
X17206450Y-7327685D01*
X17296835Y-7253507D01*
X17361145Y-7226195D01*
X17430012Y-7237986D01*
X17481573Y-7285138D01*
X17499500Y-7349361D01*
X17499500Y-8090638D01*
X17479815Y-8157677D01*
X17427011Y-8203432D01*
X17357853Y-8213376D01*
X17296836Y-8186492D01*
X17222276Y-8125303D01*
X17206450Y-8112315D01*
X17023954Y-8014768D01*
X16825934Y-7954700D01*
X16825932Y-7954699D01*
X16825934Y-7954699D01*
X16620000Y-7934417D01*
X16414067Y-7954699D01*
X16216043Y-8014769D01*
X16105898Y-8073643D01*
X16033550Y-8112315D01*
X16033548Y-8112316D01*
X16033547Y-8112317D01*
X15873589Y-8243589D01*
X15742317Y-8403547D01*
X15742315Y-8403550D01*
X15735573Y-8416164D01*
X15644769Y-8586043D01*
X15584699Y-8784067D01*
X15564417Y-8990000D01*
X15584699Y-9195932D01*
X15613431Y-9290647D01*
X15644768Y-9393954D01*
X15742315Y-9576450D01*
X15742317Y-9576452D01*
X15873589Y-9736410D01*
X15944796Y-9794847D01*
X16033550Y-9867685D01*
X16216046Y-9965232D01*
X16414066Y-10025300D01*
X16414065Y-10025300D01*
X16432529Y-10027118D01*
X16620000Y-10045583D01*
X16825934Y-10025300D01*
X17023954Y-9965232D01*
X17206450Y-9867685D01*
X17296835Y-9793507D01*
X17361145Y-9766195D01*
X17430012Y-9777986D01*
X17481573Y-9825138D01*
X17499500Y-9889361D01*
X17499500Y-10630638D01*
X17479815Y-10697677D01*
X17427011Y-10743432D01*
X17357853Y-10753376D01*
X17296836Y-10726492D01*
X17206452Y-10652317D01*
X17206453Y-10652317D01*
X17206450Y-10652315D01*
X17023954Y-10554768D01*
X16825934Y-10494700D01*
X16825932Y-10494699D01*
X16825934Y-10494699D01*
X16620000Y-10474417D01*
X16414067Y-10494699D01*
X16216043Y-10554769D01*
X16131545Y-10599935D01*
X16033550Y-10652315D01*
X16033548Y-10652316D01*
X16033547Y-10652317D01*
X15873589Y-10783589D01*
X15742317Y-10943547D01*
X15742315Y-10943550D01*
X15718756Y-10987626D01*
X15644769Y-11126043D01*
X15584699Y-11324067D01*
X15564417Y-11530000D01*
X15584699Y-11735932D01*
X15604225Y-11800300D01*
X15644768Y-11933954D01*
X15742315Y-12116450D01*
X15776969Y-12158677D01*
X15873589Y-12276410D01*
X15970209Y-12355702D01*
X16033550Y-12407685D01*
X16216046Y-12505232D01*
X16414066Y-12565300D01*
X16414065Y-12565300D01*
X16432529Y-12567118D01*
X16620000Y-12585583D01*
X16825934Y-12565300D01*
X17023954Y-12505232D01*
X17206450Y-12407685D01*
X17296835Y-12333507D01*
X17361145Y-12306195D01*
X17430012Y-12317986D01*
X17481573Y-12365138D01*
X17499500Y-12429361D01*
X17499500Y-13170638D01*
X17479815Y-13237677D01*
X17427011Y-13283432D01*
X17357853Y-13293376D01*
X17296836Y-13266492D01*
X17208145Y-13193706D01*
X17206450Y-13192315D01*
X17023954Y-13094768D01*
X16825934Y-13034700D01*
X16825932Y-13034699D01*
X16825934Y-13034699D01*
X16620000Y-13014417D01*
X16414067Y-13034699D01*
X16216043Y-13094769D01*
X16105898Y-13153643D01*
X16033550Y-13192315D01*
X16033548Y-13192316D01*
X16033547Y-13192317D01*
X15873589Y-13323589D01*
X15742317Y-13483547D01*
X15742315Y-13483550D01*
X15733521Y-13500003D01*
X15644769Y-13666043D01*
X15584699Y-13864067D01*
X15564417Y-14070000D01*
X15584699Y-14275932D01*
X15592611Y-14302015D01*
X15644768Y-14473954D01*
X15742315Y-14656450D01*
X15742317Y-14656452D01*
X15873589Y-14816410D01*
X15945353Y-14875304D01*
X16033550Y-14947685D01*
X16216046Y-15045232D01*
X16414066Y-15105300D01*
X16414065Y-15105300D01*
X16432529Y-15107118D01*
X16620000Y-15125583D01*
X16825934Y-15105300D01*
X17023954Y-15045232D01*
X17206450Y-14947685D01*
X17296835Y-14873507D01*
X17361145Y-14846195D01*
X17430012Y-14857986D01*
X17481573Y-14905138D01*
X17499500Y-14969361D01*
X17499500Y-15710638D01*
X17479815Y-15777677D01*
X17427011Y-15823432D01*
X17357853Y-15833376D01*
X17296836Y-15806492D01*
X17206452Y-15732317D01*
X17206453Y-15732317D01*
X17206450Y-15732315D01*
X17023954Y-15634768D01*
X16825934Y-15574700D01*
X16825932Y-15574699D01*
X16825934Y-15574699D01*
X16620000Y-15554417D01*
X16414067Y-15574699D01*
X16216043Y-15634769D01*
X16105898Y-15693643D01*
X16033550Y-15732315D01*
X16033548Y-15732316D01*
X16033547Y-15732317D01*
X15873589Y-15863589D01*
X15752074Y-16011658D01*
X15742315Y-16023550D01*
X15724812Y-16056296D01*
X15644767Y-16206045D01*
X15641427Y-16217059D01*
X15603128Y-16275497D01*
X15539316Y-16303953D01*
X15470249Y-16293391D01*
X15437272Y-16266236D01*
X15434951Y-16268558D01*
X15338347Y-16171954D01*
X15338344Y-16171952D01*
X15338342Y-16171950D01*
X15225304Y-16114354D01*
X15225303Y-16114353D01*
X15225300Y-16114352D01*
X15100003Y-16094508D01*
X15099997Y-16094508D01*
X14974699Y-16114352D01*
X14974698Y-16114352D01*
X14899337Y-16152751D01*
X14861658Y-16171950D01*
X14861657Y-16171951D01*
X14861652Y-16171954D01*
X14771954Y-16261652D01*
X14771951Y-16261657D01*
X14771950Y-16261658D01*
X14764899Y-16275497D01*
X14714352Y-16374698D01*
X14714352Y-16374699D01*
X14694508Y-16499996D01*
X14694508Y-16500003D01*
X14714352Y-16625300D01*
X14714352Y-16625301D01*
X14714354Y-16625304D01*
X14771950Y-16738342D01*
X14771952Y-16738344D01*
X14771954Y-16738347D01*
X14861652Y-16828045D01*
X14861654Y-16828046D01*
X14861658Y-16828050D01*
X14974696Y-16885646D01*
X14974697Y-16885646D01*
X14974699Y-16885647D01*
X15099997Y-16905492D01*
X15100000Y-16905492D01*
X15100003Y-16905492D01*
X15225300Y-16885647D01*
X15225301Y-16885647D01*
X15225302Y-16885646D01*
X15225304Y-16885646D01*
X15338342Y-16828050D01*
X15383893Y-16782499D01*
X15445216Y-16749013D01*
X15514907Y-16753997D01*
X15570841Y-16795868D01*
X15590236Y-16834184D01*
X15644768Y-17013954D01*
X15742315Y-17196450D01*
X15745231Y-17200003D01*
X15873589Y-17356410D01*
X15968447Y-17434257D01*
X16033550Y-17487685D01*
X16216046Y-17585232D01*
X16414066Y-17645300D01*
X16414065Y-17645300D01*
X16432529Y-17647118D01*
X16620000Y-17665583D01*
X16825934Y-17645300D01*
X17023954Y-17585232D01*
X17206450Y-17487685D01*
X17296835Y-17413507D01*
X17361145Y-17386195D01*
X17430012Y-17397986D01*
X17481573Y-17445138D01*
X17499500Y-17509361D01*
X17499500Y-18250638D01*
X17479815Y-18317677D01*
X17427011Y-18363432D01*
X17357853Y-18373376D01*
X17296836Y-18346492D01*
X17206452Y-18272317D01*
X17206453Y-18272317D01*
X17206450Y-18272315D01*
X17023954Y-18174768D01*
X16825934Y-18114700D01*
X16825932Y-18114699D01*
X16825934Y-18114699D01*
X16620000Y-18094417D01*
X16414067Y-18114699D01*
X16216043Y-18174769D01*
X16105898Y-18233643D01*
X16033550Y-18272315D01*
X16033548Y-18272316D01*
X16033547Y-18272317D01*
X15873589Y-18403589D01*
X15742317Y-18563547D01*
X15742315Y-18563550D01*
X15703643Y-18635898D01*
X15644769Y-18746043D01*
X15584699Y-18944067D01*
X15564417Y-19150000D01*
X15584699Y-19355932D01*
X15584700Y-19355934D01*
X15644768Y-19553954D01*
X15742315Y-19736450D01*
X15742317Y-19736452D01*
X15873589Y-19896410D01*
X15970209Y-19975702D01*
X16033550Y-20027685D01*
X16216046Y-20125232D01*
X16414066Y-20185300D01*
X16414065Y-20185300D01*
X16432529Y-20187118D01*
X16620000Y-20205583D01*
X16825934Y-20185300D01*
X17023954Y-20125232D01*
X17206450Y-20027685D01*
X17296835Y-19953507D01*
X17361145Y-19926195D01*
X17430012Y-19937986D01*
X17481573Y-19985138D01*
X17499500Y-20049361D01*
X17499500Y-20790638D01*
X17479815Y-20857677D01*
X17427011Y-20903432D01*
X17357853Y-20913376D01*
X17296836Y-20886492D01*
X17206452Y-20812317D01*
X17206453Y-20812317D01*
X17206450Y-20812315D01*
X17023954Y-20714768D01*
X16825934Y-20654700D01*
X16825932Y-20654699D01*
X16825934Y-20654699D01*
X16620000Y-20634417D01*
X16414067Y-20654699D01*
X16216043Y-20714769D01*
X16128322Y-20761658D01*
X16033550Y-20812315D01*
X16033548Y-20812316D01*
X16033547Y-20812317D01*
X15873589Y-20943589D01*
X15742317Y-21103547D01*
X15742315Y-21103550D01*
X15730689Y-21125301D01*
X15644769Y-21286043D01*
X15584699Y-21484067D01*
X15564417Y-21690000D01*
X15584699Y-21895932D01*
X15584700Y-21895934D01*
X15644768Y-22093954D01*
X15742315Y-22276450D01*
X15742317Y-22276452D01*
X15873589Y-22436410D01*
X15970209Y-22515702D01*
X16033550Y-22567685D01*
X16216046Y-22665232D01*
X16414066Y-22725300D01*
X16414065Y-22725300D01*
X16432529Y-22727118D01*
X16620000Y-22745583D01*
X16825934Y-22725300D01*
X17023954Y-22665232D01*
X17206450Y-22567685D01*
X17296835Y-22493507D01*
X17361145Y-22466195D01*
X17430012Y-22477986D01*
X17481573Y-22525138D01*
X17499500Y-22589361D01*
X17499500Y-23330638D01*
X17479815Y-23397677D01*
X17427011Y-23443432D01*
X17357853Y-23453376D01*
X17296836Y-23426492D01*
X17206452Y-23352317D01*
X17206453Y-23352317D01*
X17206450Y-23352315D01*
X17023954Y-23254768D01*
X16825934Y-23194700D01*
X16825932Y-23194699D01*
X16825934Y-23194699D01*
X16620000Y-23174417D01*
X16414067Y-23194699D01*
X16216043Y-23254769D01*
X16105898Y-23313643D01*
X16033550Y-23352315D01*
X16033548Y-23352316D01*
X16033547Y-23352317D01*
X15873589Y-23483589D01*
X15742317Y-23643547D01*
X15742315Y-23643550D01*
X15703643Y-23715898D01*
X15644769Y-23826043D01*
X15584699Y-24024067D01*
X15564417Y-24230000D01*
X15584699Y-24435932D01*
X15584700Y-24435934D01*
X15644768Y-24633954D01*
X15742315Y-24816450D01*
X15742317Y-24816452D01*
X15873589Y-24976410D01*
X15970209Y-25055702D01*
X16033550Y-25107685D01*
X16216046Y-25205232D01*
X16414066Y-25265300D01*
X16414065Y-25265300D01*
X16432529Y-25267118D01*
X16620000Y-25285583D01*
X16825934Y-25265300D01*
X17023954Y-25205232D01*
X17206450Y-25107685D01*
X17296835Y-25033507D01*
X17361145Y-25006195D01*
X17430012Y-25017986D01*
X17481573Y-25065138D01*
X17499500Y-25129361D01*
X17499500Y-25871283D01*
X17479815Y-25938322D01*
X17427011Y-25984077D01*
X17357853Y-25994021D01*
X17296836Y-25967137D01*
X17206172Y-25892732D01*
X17206166Y-25892728D01*
X17023763Y-25795232D01*
X16870000Y-25748587D01*
X16870000Y-26454314D01*
X16865606Y-26449920D01*
X16774394Y-26397259D01*
X16672661Y-26370000D01*
X16567339Y-26370000D01*
X16465606Y-26397259D01*
X16374394Y-26449920D01*
X16370000Y-26454314D01*
X16370000Y-25748587D01*
X16216236Y-25795232D01*
X16033833Y-25892728D01*
X16033826Y-25892732D01*
X15873944Y-26023944D01*
X15742732Y-26183826D01*
X15742728Y-26183833D01*
X15645233Y-26366233D01*
X15598590Y-26520000D01*
X16304314Y-26520000D01*
X16299920Y-26524394D01*
X16247259Y-26615606D01*
X16220000Y-26717339D01*
X16220000Y-26822661D01*
X16247259Y-26924394D01*
X16299920Y-27015606D01*
X16304314Y-27020000D01*
X15598590Y-27020000D01*
X15645233Y-27173766D01*
X15742728Y-27356166D01*
X15742732Y-27356173D01*
X15873944Y-27516055D01*
X16033826Y-27647267D01*
X16033833Y-27647271D01*
X16216233Y-27744766D01*
X16370000Y-27791410D01*
X16370000Y-27085686D01*
X16374394Y-27090080D01*
X16465606Y-27142741D01*
X16567339Y-27170000D01*
X16672661Y-27170000D01*
X16774394Y-27142741D01*
X16865606Y-27090080D01*
X16870000Y-27085686D01*
X16870000Y-27791410D01*
X17023766Y-27744766D01*
X17206166Y-27647271D01*
X17206173Y-27647267D01*
X17296835Y-27572863D01*
X17361145Y-27545550D01*
X17430013Y-27557341D01*
X17481573Y-27604493D01*
X17499500Y-27668716D01*
X17499500Y-28410638D01*
X17479815Y-28477677D01*
X17427011Y-28523432D01*
X17357853Y-28533376D01*
X17296836Y-28506492D01*
X17206452Y-28432317D01*
X17206453Y-28432317D01*
X17206450Y-28432315D01*
X17023954Y-28334768D01*
X16825934Y-28274700D01*
X16825932Y-28274699D01*
X16825934Y-28274699D01*
X16620000Y-28254417D01*
X16414067Y-28274699D01*
X16216043Y-28334769D01*
X16105898Y-28393643D01*
X16033550Y-28432315D01*
X16033548Y-28432316D01*
X16033547Y-28432317D01*
X15873589Y-28563589D01*
X15766051Y-28694627D01*
X15742315Y-28723550D01*
X15705292Y-28792814D01*
X15644769Y-28906043D01*
X15584699Y-29104067D01*
X15564417Y-29310000D01*
X15584699Y-29515932D01*
X15586096Y-29520537D01*
X15644768Y-29713954D01*
X15742315Y-29896450D01*
X15742317Y-29896452D01*
X15873589Y-30056410D01*
X15970209Y-30135702D01*
X16033550Y-30187685D01*
X16216046Y-30285232D01*
X16414066Y-30345300D01*
X16414065Y-30345300D01*
X16432529Y-30347118D01*
X16620000Y-30365583D01*
X16825934Y-30345300D01*
X17023954Y-30285232D01*
X17206450Y-30187685D01*
X17296835Y-30113507D01*
X17361145Y-30086195D01*
X17430012Y-30097986D01*
X17481573Y-30145138D01*
X17499500Y-30209361D01*
X17499500Y-30950638D01*
X17479815Y-31017677D01*
X17427011Y-31063432D01*
X17357853Y-31073376D01*
X17296836Y-31046492D01*
X17206452Y-30972317D01*
X17206453Y-30972317D01*
X17206450Y-30972315D01*
X17023954Y-30874768D01*
X16825934Y-30814700D01*
X16825932Y-30814699D01*
X16825934Y-30814699D01*
X16620000Y-30794417D01*
X16414067Y-30814699D01*
X16216043Y-30874769D01*
X16105898Y-30933643D01*
X16033550Y-30972315D01*
X16033548Y-30972316D01*
X16033547Y-30972317D01*
X15873589Y-31103589D01*
X15742317Y-31263547D01*
X15742315Y-31263550D01*
X15703643Y-31335898D01*
X15644769Y-31446043D01*
X15584699Y-31644067D01*
X15564417Y-31850000D01*
X15584699Y-32055932D01*
X15584700Y-32055934D01*
X15644768Y-32253954D01*
X15742315Y-32436450D01*
X15742317Y-32436452D01*
X15873589Y-32596410D01*
X15970209Y-32675702D01*
X16033550Y-32727685D01*
X16216046Y-32825232D01*
X16414066Y-32885300D01*
X16414065Y-32885300D01*
X16432529Y-32887118D01*
X16620000Y-32905583D01*
X16825934Y-32885300D01*
X17023954Y-32825232D01*
X17206450Y-32727685D01*
X17296835Y-32653507D01*
X17361145Y-32626195D01*
X17430012Y-32637986D01*
X17481573Y-32685138D01*
X17499500Y-32749361D01*
X17499500Y-33490638D01*
X17479815Y-33557677D01*
X17427011Y-33603432D01*
X17357853Y-33613376D01*
X17296836Y-33586492D01*
X17206452Y-33512317D01*
X17206453Y-33512317D01*
X17206450Y-33512315D01*
X17023954Y-33414768D01*
X16825934Y-33354700D01*
X16825932Y-33354699D01*
X16825934Y-33354699D01*
X16620000Y-33334417D01*
X16414067Y-33354699D01*
X16216043Y-33414769D01*
X16128322Y-33461658D01*
X16033550Y-33512315D01*
X16033548Y-33512316D01*
X16033547Y-33512317D01*
X15873589Y-33643589D01*
X15742317Y-33803547D01*
X15742315Y-33803550D01*
X15730689Y-33825301D01*
X15644769Y-33986043D01*
X15584699Y-34184067D01*
X15564417Y-34390000D01*
X15584699Y-34595932D01*
X15607759Y-34671950D01*
X15644768Y-34793954D01*
X15742315Y-34976450D01*
X15742317Y-34976452D01*
X15873589Y-35136410D01*
X15970209Y-35215702D01*
X16033550Y-35267685D01*
X16216046Y-35365232D01*
X16414066Y-35425300D01*
X16414065Y-35425300D01*
X16432529Y-35427118D01*
X16620000Y-35445583D01*
X16825934Y-35425300D01*
X17023954Y-35365232D01*
X17206450Y-35267685D01*
X17296835Y-35193507D01*
X17361145Y-35166195D01*
X17430012Y-35177986D01*
X17481573Y-35225138D01*
X17499500Y-35289361D01*
X17499500Y-36030638D01*
X17479815Y-36097677D01*
X17427011Y-36143432D01*
X17357853Y-36153376D01*
X17296836Y-36126492D01*
X17247410Y-36085930D01*
X17206450Y-36052315D01*
X17023954Y-35954768D01*
X16825934Y-35894700D01*
X16825932Y-35894699D01*
X16825934Y-35894699D01*
X16620000Y-35874417D01*
X16414067Y-35894699D01*
X16216043Y-35954769D01*
X16105898Y-36013643D01*
X16033550Y-36052315D01*
X16033548Y-36052316D01*
X16033547Y-36052317D01*
X15873589Y-36183589D01*
X15742317Y-36343547D01*
X15742315Y-36343550D01*
X15733366Y-36360292D01*
X15644769Y-36526043D01*
X15584699Y-36724067D01*
X15564417Y-36930000D01*
X15584699Y-37135932D01*
X15593294Y-37164266D01*
X15644768Y-37333954D01*
X15742315Y-37516450D01*
X15769074Y-37549056D01*
X15873589Y-37676410D01*
X15970209Y-37755702D01*
X16033550Y-37807685D01*
X16216046Y-37905232D01*
X16414066Y-37965300D01*
X16414065Y-37965300D01*
X16432529Y-37967118D01*
X16620000Y-37985583D01*
X16825934Y-37965300D01*
X17023954Y-37905232D01*
X17206450Y-37807685D01*
X17296835Y-37733507D01*
X17361145Y-37706195D01*
X17430012Y-37717986D01*
X17481573Y-37765138D01*
X17499500Y-37829361D01*
X17499500Y-38570638D01*
X17479815Y-38637677D01*
X17427011Y-38683432D01*
X17357853Y-38693376D01*
X17296836Y-38666492D01*
X17206452Y-38592317D01*
X17206453Y-38592317D01*
X17206450Y-38592315D01*
X17023954Y-38494768D01*
X16825934Y-38434700D01*
X16825932Y-38434699D01*
X16825934Y-38434699D01*
X16620000Y-38414417D01*
X16414067Y-38434699D01*
X16216043Y-38494769D01*
X16105898Y-38553643D01*
X16033550Y-38592315D01*
X16033548Y-38592316D01*
X16033547Y-38592317D01*
X15873589Y-38723589D01*
X15742317Y-38883547D01*
X15742315Y-38883550D01*
X15730587Y-38905492D01*
X15644769Y-39066043D01*
X15584699Y-39264067D01*
X15564417Y-39470000D01*
X15584699Y-39675932D01*
X15600508Y-39728048D01*
X15644768Y-39873954D01*
X15742315Y-40056450D01*
X15742317Y-40056452D01*
X15873589Y-40216410D01*
X15957955Y-40285646D01*
X16033550Y-40347685D01*
X16216046Y-40445232D01*
X16414066Y-40505300D01*
X16414065Y-40505300D01*
X16432529Y-40507118D01*
X16620000Y-40525583D01*
X16825934Y-40505300D01*
X17023954Y-40445232D01*
X17206450Y-40347685D01*
X17296835Y-40273507D01*
X17361145Y-40246195D01*
X17430012Y-40257986D01*
X17481573Y-40305138D01*
X17499500Y-40369361D01*
X17499500Y-41110638D01*
X17479815Y-41177677D01*
X17427011Y-41223432D01*
X17357853Y-41233376D01*
X17296836Y-41206492D01*
X17206452Y-41132317D01*
X17206453Y-41132317D01*
X17206450Y-41132315D01*
X17023954Y-41034768D01*
X16825934Y-40974700D01*
X16825932Y-40974699D01*
X16825934Y-40974699D01*
X16620000Y-40954417D01*
X16414067Y-40974699D01*
X16216043Y-41034769D01*
X16105898Y-41093643D01*
X16033550Y-41132315D01*
X16033548Y-41132316D01*
X16033547Y-41132317D01*
X15873589Y-41263589D01*
X15742317Y-41423547D01*
X15742315Y-41423550D01*
X15703643Y-41495898D01*
X15644769Y-41606043D01*
X15584699Y-41804067D01*
X15564417Y-42010000D01*
X15584699Y-42215932D01*
X15601603Y-42271657D01*
X15644768Y-42413954D01*
X15742315Y-42596450D01*
X15765992Y-42625301D01*
X15873589Y-42756410D01*
X15960878Y-42828045D01*
X16033550Y-42887685D01*
X16216046Y-42985232D01*
X16414066Y-43045300D01*
X16414065Y-43045300D01*
X16432529Y-43047118D01*
X16620000Y-43065583D01*
X16825934Y-43045300D01*
X17023954Y-42985232D01*
X17206450Y-42887685D01*
X17296835Y-42813507D01*
X17361145Y-42786195D01*
X17430012Y-42797986D01*
X17481573Y-42845138D01*
X17499500Y-42909361D01*
X17499500Y-43650638D01*
X17479815Y-43717677D01*
X17427011Y-43763432D01*
X17357853Y-43773376D01*
X17296836Y-43746492D01*
X17247410Y-43705930D01*
X17206450Y-43672315D01*
X17023954Y-43574768D01*
X16825934Y-43514700D01*
X16825932Y-43514699D01*
X16825934Y-43514699D01*
X16620000Y-43494417D01*
X16414067Y-43514699D01*
X16216043Y-43574769D01*
X16179115Y-43594508D01*
X16033550Y-43672315D01*
X16033548Y-43672316D01*
X16033547Y-43672317D01*
X15873589Y-43803589D01*
X15742317Y-43963547D01*
X15742315Y-43963550D01*
X15722834Y-43999996D01*
X15644769Y-44146043D01*
X15584699Y-44344067D01*
X15564417Y-44550000D01*
X15584699Y-44755932D01*
X15584700Y-44755934D01*
X15644768Y-44953954D01*
X15742315Y-45136450D01*
X15742317Y-45136452D01*
X15873589Y-45296410D01*
X15960595Y-45367813D01*
X16033550Y-45427685D01*
X16216046Y-45525232D01*
X16414066Y-45585300D01*
X16414065Y-45585300D01*
X16432529Y-45587118D01*
X16620000Y-45605583D01*
X16825934Y-45585300D01*
X17023954Y-45525232D01*
X17206450Y-45427685D01*
X17296835Y-45353507D01*
X17361145Y-45326195D01*
X17430012Y-45337986D01*
X17481573Y-45385138D01*
X17499500Y-45449361D01*
X17499500Y-46190638D01*
X17479815Y-46257677D01*
X17427011Y-46303432D01*
X17357853Y-46313376D01*
X17296836Y-46286492D01*
X17218417Y-46222136D01*
X17206450Y-46212315D01*
X17023954Y-46114768D01*
X16825934Y-46054700D01*
X16825932Y-46054699D01*
X16825934Y-46054699D01*
X16620000Y-46034417D01*
X16414067Y-46054699D01*
X16216043Y-46114769D01*
X16133386Y-46158951D01*
X16033550Y-46212315D01*
X16033548Y-46212316D01*
X16033547Y-46212317D01*
X15873589Y-46343589D01*
X15742317Y-46503547D01*
X15742315Y-46503550D01*
X15724820Y-46536281D01*
X15644769Y-46686043D01*
X15644768Y-46686045D01*
X15644768Y-46686046D01*
X15637898Y-46708692D01*
X15584699Y-46884067D01*
X15564417Y-47090000D01*
X15584699Y-47295932D01*
X15584700Y-47295934D01*
X15644768Y-47493954D01*
X15742315Y-47676450D01*
X15742317Y-47676452D01*
X15873589Y-47836410D01*
X15970209Y-47915702D01*
X16033550Y-47967685D01*
X16216046Y-48065232D01*
X16414066Y-48125300D01*
X16414065Y-48125300D01*
X16432529Y-48127118D01*
X16620000Y-48145583D01*
X16825934Y-48125300D01*
X17023954Y-48065232D01*
X17206450Y-47967685D01*
X17296835Y-47893507D01*
X17361145Y-47866195D01*
X17430012Y-47877986D01*
X17481573Y-47925138D01*
X17499500Y-47989361D01*
X17499500Y-48730638D01*
X17479815Y-48797677D01*
X17427011Y-48843432D01*
X17357853Y-48853376D01*
X17296836Y-48826492D01*
X17206452Y-48752317D01*
X17206453Y-48752317D01*
X17206450Y-48752315D01*
X17023954Y-48654768D01*
X16825934Y-48594700D01*
X16825932Y-48594699D01*
X16825934Y-48594699D01*
X16620000Y-48574417D01*
X16414067Y-48594699D01*
X16216043Y-48654769D01*
X16105898Y-48713643D01*
X16033550Y-48752315D01*
X16033548Y-48752316D01*
X16033547Y-48752317D01*
X15873589Y-48883589D01*
X15742317Y-49043547D01*
X15742315Y-49043550D01*
X15732944Y-49061082D01*
X15644769Y-49226043D01*
X15584699Y-49424067D01*
X15564417Y-49630000D01*
X15584699Y-49835932D01*
X15584700Y-49835934D01*
X15644768Y-50033954D01*
X15742315Y-50216450D01*
X15742317Y-50216452D01*
X15873589Y-50376410D01*
X16033548Y-50507684D01*
X16049372Y-50516142D01*
X16099217Y-50565104D01*
X16114677Y-50633242D01*
X16090845Y-50698922D01*
X16035288Y-50741290D01*
X15990919Y-50749500D01*
X14007261Y-50749500D01*
X13940222Y-50729815D01*
X13894467Y-50677011D01*
X13884523Y-50607853D01*
X13904159Y-50556609D01*
X13985080Y-50435501D01*
X13985080Y-50435500D01*
X13985084Y-50435495D01*
X14041658Y-50298913D01*
X14070500Y-50153918D01*
X14070500Y-49206082D01*
X14070500Y-49206079D01*
X14041659Y-49061092D01*
X14041658Y-49061091D01*
X14041658Y-49061087D01*
X14034393Y-49043547D01*
X13985087Y-48924511D01*
X13985080Y-48924498D01*
X13902951Y-48801584D01*
X13902948Y-48801580D01*
X13798419Y-48697051D01*
X13798415Y-48697048D01*
X13675501Y-48614919D01*
X13675488Y-48614912D01*
X13538917Y-48558343D01*
X13538907Y-48558340D01*
X13393920Y-48529500D01*
X13393918Y-48529500D01*
X13246082Y-48529500D01*
X13246080Y-48529500D01*
X13101092Y-48558340D01*
X13101082Y-48558343D01*
X12964511Y-48614912D01*
X12964498Y-48614919D01*
X12841584Y-48697048D01*
X12841580Y-48697051D01*
X12737051Y-48801580D01*
X12737048Y-48801584D01*
X12654919Y-48924498D01*
X12654912Y-48924511D01*
X12598343Y-49061082D01*
X12598340Y-49061092D01*
X12569500Y-49206079D01*
X12569500Y-49206082D01*
X12569500Y-50153918D01*
X12569500Y-50153920D01*
X12569499Y-50153920D01*
X12598340Y-50298907D01*
X12598343Y-50298917D01*
X12654912Y-50435488D01*
X12654919Y-50435501D01*
X12735841Y-50556609D01*
X12756719Y-50623287D01*
X12738234Y-50690667D01*
X12686255Y-50737357D01*
X12632739Y-50749500D01*
X5367261Y-50749500D01*
X5300222Y-50729815D01*
X5254467Y-50677011D01*
X5244523Y-50607853D01*
X5264159Y-50556609D01*
X5345080Y-50435501D01*
X5345080Y-50435500D01*
X5345084Y-50435495D01*
X5401658Y-50298913D01*
X5430500Y-50153918D01*
X5430500Y-49206082D01*
X5430500Y-49206079D01*
X5401659Y-49061092D01*
X5401658Y-49061091D01*
X5401658Y-49061087D01*
X5394393Y-49043547D01*
X5345087Y-48924511D01*
X5345080Y-48924498D01*
X5262951Y-48801584D01*
X5262948Y-48801580D01*
X5158419Y-48697051D01*
X5158415Y-48697048D01*
X5035501Y-48614919D01*
X5035488Y-48614912D01*
X4898917Y-48558343D01*
X4898907Y-48558340D01*
X4753920Y-48529500D01*
X4753918Y-48529500D01*
X4606082Y-48529500D01*
X4606080Y-48529500D01*
X4461092Y-48558340D01*
X4461082Y-48558343D01*
X4324511Y-48614912D01*
X4324498Y-48614919D01*
X4201584Y-48697048D01*
X4201580Y-48697051D01*
X4097051Y-48801580D01*
X4097048Y-48801584D01*
X4014919Y-48924498D01*
X4014912Y-48924511D01*
X3958343Y-49061082D01*
X3958340Y-49061092D01*
X3929500Y-49206079D01*
X3929500Y-49206082D01*
X3929500Y-50153918D01*
X3929500Y-50153920D01*
X3929499Y-50153920D01*
X3958340Y-50298907D01*
X3958343Y-50298917D01*
X4014912Y-50435488D01*
X4014919Y-50435501D01*
X4095841Y-50556609D01*
X4116719Y-50623287D01*
X4098234Y-50690667D01*
X4046255Y-50737357D01*
X3992739Y-50749500D01*
X2009081Y-50749500D01*
X1942042Y-50729815D01*
X1896287Y-50677011D01*
X1886343Y-50607853D01*
X1915368Y-50544297D01*
X1950628Y-50516142D01*
X1966450Y-50507685D01*
X2126410Y-50376410D01*
X2257685Y-50216450D01*
X2355232Y-50033954D01*
X2415300Y-49835934D01*
X2435583Y-49630000D01*
X2415300Y-49424066D01*
X2355232Y-49226046D01*
X2257685Y-49043550D01*
X2159988Y-48924505D01*
X2126410Y-48883589D01*
X1966452Y-48752317D01*
X1966453Y-48752317D01*
X1966450Y-48752315D01*
X1783954Y-48654768D01*
X1585934Y-48594700D01*
X1585932Y-48594699D01*
X1585934Y-48594699D01*
X1380000Y-48574417D01*
X1174067Y-48594699D01*
X976043Y-48654769D01*
X865898Y-48713643D01*
X793550Y-48752315D01*
X793548Y-48752316D01*
X793547Y-48752317D01*
X703164Y-48826492D01*
X638854Y-48853804D01*
X569987Y-48842013D01*
X518427Y-48794860D01*
X500500Y-48730638D01*
X500500Y-47989361D01*
X520185Y-47922322D01*
X572989Y-47876567D01*
X642147Y-47866623D01*
X703163Y-47893507D01*
X793550Y-47967685D01*
X976046Y-48065232D01*
X1174066Y-48125300D01*
X1174065Y-48125300D01*
X1192529Y-48127118D01*
X1380000Y-48145583D01*
X1585934Y-48125300D01*
X1783954Y-48065232D01*
X1966450Y-47967685D01*
X2126410Y-47836410D01*
X2257685Y-47676450D01*
X2355232Y-47493954D01*
X2415300Y-47295934D01*
X2435583Y-47090000D01*
X2415300Y-46884066D01*
X2355232Y-46686046D01*
X2257685Y-46503550D01*
X2205702Y-46440209D01*
X2126410Y-46343589D01*
X1978417Y-46222136D01*
X1966450Y-46212315D01*
X1783954Y-46114768D01*
X1748193Y-46103920D01*
X3929499Y-46103920D01*
X3958340Y-46248907D01*
X3958343Y-46248917D01*
X4014912Y-46385488D01*
X4014919Y-46385501D01*
X4097048Y-46508415D01*
X4097051Y-46508419D01*
X4201580Y-46612948D01*
X4201584Y-46612951D01*
X4324498Y-46695080D01*
X4324511Y-46695087D01*
X4461082Y-46751656D01*
X4461087Y-46751658D01*
X4461091Y-46751658D01*
X4461092Y-46751659D01*
X4606079Y-46780500D01*
X4606082Y-46780500D01*
X4753920Y-46780500D01*
X4851462Y-46761096D01*
X4898913Y-46751658D01*
X5035495Y-46695084D01*
X5158416Y-46612951D01*
X5262951Y-46508416D01*
X5345084Y-46385495D01*
X5383768Y-46292102D01*
X5427608Y-46237699D01*
X5493902Y-46215634D01*
X5561602Y-46232913D01*
X5605715Y-46277554D01*
X5649485Y-46353365D01*
X5756635Y-46460515D01*
X5887865Y-46536281D01*
X6034234Y-46575500D01*
X6034236Y-46575500D01*
X6185764Y-46575500D01*
X6185766Y-46575500D01*
X6332135Y-46536281D01*
X6463365Y-46460515D01*
X6570515Y-46353365D01*
X6646281Y-46222135D01*
X6685500Y-46075766D01*
X6685500Y-45924234D01*
X6646281Y-45777865D01*
X6644802Y-45775304D01*
X6636129Y-45760281D01*
X6572455Y-45649996D01*
X8344508Y-45649996D01*
X8344508Y-45650003D01*
X8364352Y-45775300D01*
X8364352Y-45775301D01*
X8382805Y-45811517D01*
X8421950Y-45888342D01*
X8421952Y-45888344D01*
X8421954Y-45888347D01*
X8511652Y-45978045D01*
X8511654Y-45978046D01*
X8511658Y-45978050D01*
X8624696Y-46035646D01*
X8624697Y-46035646D01*
X8624699Y-46035647D01*
X8749997Y-46055492D01*
X8750000Y-46055492D01*
X8750003Y-46055492D01*
X8875300Y-46035647D01*
X8875301Y-46035647D01*
X8875302Y-46035646D01*
X8875304Y-46035646D01*
X8988342Y-45978050D01*
X9078050Y-45888342D01*
X9135646Y-45775304D01*
X9135646Y-45775302D01*
X9139515Y-45767710D01*
X9187490Y-45716914D01*
X9255311Y-45700119D01*
X9321446Y-45722657D01*
X9360485Y-45767710D01*
X9364353Y-45775302D01*
X9364354Y-45775304D01*
X9421950Y-45888342D01*
X9421952Y-45888344D01*
X9421954Y-45888347D01*
X9511652Y-45978045D01*
X9511654Y-45978046D01*
X9511658Y-45978050D01*
X9624696Y-46035646D01*
X9624697Y-46035646D01*
X9624699Y-46035647D01*
X9749997Y-46055492D01*
X9750000Y-46055492D01*
X9750003Y-46055492D01*
X9875300Y-46035647D01*
X9875301Y-46035647D01*
X9875302Y-46035646D01*
X9875304Y-46035646D01*
X9988342Y-45978050D01*
X10056550Y-45909841D01*
X10117871Y-45876358D01*
X10187563Y-45881342D01*
X10243497Y-45923213D01*
X10254709Y-45941220D01*
X10290594Y-46011647D01*
X10290595Y-46011648D01*
X10290598Y-46011652D01*
X10380296Y-46101350D01*
X10380298Y-46101351D01*
X10380302Y-46101355D01*
X10493340Y-46158951D01*
X10493341Y-46158951D01*
X10493343Y-46158952D01*
X10618641Y-46178797D01*
X10618644Y-46178797D01*
X10618647Y-46178797D01*
X10743944Y-46158952D01*
X10743945Y-46158952D01*
X10743946Y-46158951D01*
X10743948Y-46158951D01*
X10856986Y-46101355D01*
X10946694Y-46011647D01*
X10991233Y-45924234D01*
X11314500Y-45924234D01*
X11314500Y-46075766D01*
X11324951Y-46114769D01*
X11353719Y-46222136D01*
X11372613Y-46254860D01*
X11429485Y-46353365D01*
X11536635Y-46460515D01*
X11667865Y-46536281D01*
X11814234Y-46575500D01*
X11814236Y-46575500D01*
X11965764Y-46575500D01*
X11965766Y-46575500D01*
X12112135Y-46536281D01*
X12243365Y-46460515D01*
X12350515Y-46353365D01*
X12394285Y-46277552D01*
X12444849Y-46229340D01*
X12513456Y-46216116D01*
X12578321Y-46242084D01*
X12616231Y-46292102D01*
X12654914Y-46385491D01*
X12654919Y-46385501D01*
X12737048Y-46508415D01*
X12737051Y-46508419D01*
X12841580Y-46612948D01*
X12841584Y-46612951D01*
X12964498Y-46695080D01*
X12964511Y-46695087D01*
X13101082Y-46751656D01*
X13101087Y-46751658D01*
X13101091Y-46751658D01*
X13101092Y-46751659D01*
X13246079Y-46780500D01*
X13246082Y-46780500D01*
X13393920Y-46780500D01*
X13491462Y-46761096D01*
X13538913Y-46751658D01*
X13675495Y-46695084D01*
X13798416Y-46612951D01*
X13902951Y-46508416D01*
X13985084Y-46385495D01*
X14041658Y-46248913D01*
X14070500Y-46103918D01*
X14070500Y-44856082D01*
X14070500Y-44856079D01*
X14041659Y-44711092D01*
X14041658Y-44711091D01*
X14041658Y-44711087D01*
X14041656Y-44711082D01*
X13985087Y-44574511D01*
X13985080Y-44574498D01*
X13902951Y-44451584D01*
X13902948Y-44451580D01*
X13844722Y-44393354D01*
X13811237Y-44332031D01*
X13816221Y-44262339D01*
X13824260Y-44247363D01*
X13823619Y-44247037D01*
X13828048Y-44238343D01*
X13828050Y-44238342D01*
X13885646Y-44125304D01*
X13885646Y-44125302D01*
X13885647Y-44125301D01*
X13885647Y-44125300D01*
X13905492Y-44000003D01*
X13905492Y-43999996D01*
X13885647Y-43874699D01*
X13885647Y-43874698D01*
X13885646Y-43874696D01*
X13828050Y-43761658D01*
X13828046Y-43761654D01*
X13828045Y-43761652D01*
X13738347Y-43671954D01*
X13738344Y-43671952D01*
X13738342Y-43671950D01*
X13625304Y-43614354D01*
X13625303Y-43614353D01*
X13625300Y-43614352D01*
X13500003Y-43594508D01*
X13499997Y-43594508D01*
X13374699Y-43614352D01*
X13374695Y-43614353D01*
X13306294Y-43649206D01*
X13237625Y-43662102D01*
X13193706Y-43649206D01*
X13125304Y-43614353D01*
X13125300Y-43614352D01*
X13000003Y-43594508D01*
X12999997Y-43594508D01*
X12874699Y-43614352D01*
X12874698Y-43614352D01*
X12806295Y-43649206D01*
X12761658Y-43671950D01*
X12761657Y-43671951D01*
X12761652Y-43671954D01*
X12671954Y-43761652D01*
X12671951Y-43761657D01*
X12671950Y-43761658D01*
X12652751Y-43799337D01*
X12614352Y-43874698D01*
X12614352Y-43874699D01*
X12594508Y-43999996D01*
X12594508Y-44000003D01*
X12614352Y-44125300D01*
X12614352Y-44125301D01*
X12632805Y-44161517D01*
X12671950Y-44238342D01*
X12671952Y-44238344D01*
X12671954Y-44238347D01*
X12724428Y-44290821D01*
X12757913Y-44352144D01*
X12752929Y-44421836D01*
X12739849Y-44447393D01*
X12654919Y-44574498D01*
X12654912Y-44574511D01*
X12598343Y-44711082D01*
X12598340Y-44711092D01*
X12569500Y-44856079D01*
X12569500Y-45566730D01*
X12549815Y-45633769D01*
X12497011Y-45679524D01*
X12427853Y-45689468D01*
X12364297Y-45660443D01*
X12356488Y-45652155D01*
X12356262Y-45652382D01*
X12243367Y-45539487D01*
X12243365Y-45539485D01*
X12143927Y-45482074D01*
X12112136Y-45463719D01*
X12038950Y-45444109D01*
X11965766Y-45424500D01*
X11814234Y-45424500D01*
X11667863Y-45463719D01*
X11536635Y-45539485D01*
X11536632Y-45539487D01*
X11429487Y-45646632D01*
X11429485Y-45646635D01*
X11353719Y-45777863D01*
X11327328Y-45876358D01*
X11314500Y-45924234D01*
X10991233Y-45924234D01*
X11004290Y-45898609D01*
X11004290Y-45898607D01*
X11004291Y-45898606D01*
X11004291Y-45898605D01*
X11024136Y-45773308D01*
X11024136Y-45773301D01*
X11004291Y-45648004D01*
X11004291Y-45648003D01*
X10997038Y-45633769D01*
X10946694Y-45534963D01*
X10946690Y-45534959D01*
X10946689Y-45534957D01*
X10856991Y-45445259D01*
X10856988Y-45445257D01*
X10856986Y-45445255D01*
X10743948Y-45387659D01*
X10743947Y-45387658D01*
X10743944Y-45387657D01*
X10618647Y-45367813D01*
X10618641Y-45367813D01*
X10493343Y-45387657D01*
X10493342Y-45387657D01*
X10421036Y-45424500D01*
X10380302Y-45445255D01*
X10380301Y-45445256D01*
X10380299Y-45445256D01*
X10312094Y-45513462D01*
X10250770Y-45546946D01*
X10181079Y-45541961D01*
X10125145Y-45500090D01*
X10113932Y-45482082D01*
X10078050Y-45411658D01*
X10078047Y-45411655D01*
X10078045Y-45411652D01*
X9988347Y-45321954D01*
X9988344Y-45321952D01*
X9988342Y-45321950D01*
X9875304Y-45264354D01*
X9875303Y-45264353D01*
X9875300Y-45264352D01*
X9750003Y-45244508D01*
X9749997Y-45244508D01*
X9624699Y-45264352D01*
X9624698Y-45264352D01*
X9561783Y-45296410D01*
X9511658Y-45321950D01*
X9511657Y-45321951D01*
X9511652Y-45321954D01*
X9421954Y-45411652D01*
X9421949Y-45411659D01*
X9360484Y-45532290D01*
X9312510Y-45583085D01*
X9244689Y-45599880D01*
X9178554Y-45577342D01*
X9139516Y-45532290D01*
X9097261Y-45449361D01*
X9078050Y-45411658D01*
X9078047Y-45411655D01*
X9078045Y-45411652D01*
X8988347Y-45321954D01*
X8988344Y-45321952D01*
X8988342Y-45321950D01*
X8875304Y-45264354D01*
X8875303Y-45264353D01*
X8875300Y-45264352D01*
X8750003Y-45244508D01*
X8749997Y-45244508D01*
X8624699Y-45264352D01*
X8624698Y-45264352D01*
X8561783Y-45296410D01*
X8511658Y-45321950D01*
X8511657Y-45321951D01*
X8511652Y-45321954D01*
X8421954Y-45411652D01*
X8421951Y-45411657D01*
X8421950Y-45411658D01*
X8413784Y-45427685D01*
X8364352Y-45524698D01*
X8364352Y-45524699D01*
X8344508Y-45649996D01*
X6572455Y-45649996D01*
X6570515Y-45646635D01*
X6463365Y-45539485D01*
X6363927Y-45482074D01*
X6332136Y-45463719D01*
X6258950Y-45444109D01*
X6185766Y-45424500D01*
X6034234Y-45424500D01*
X5887863Y-45463719D01*
X5756635Y-45539485D01*
X5756632Y-45539487D01*
X5643738Y-45652382D01*
X5641719Y-45650363D01*
X5596445Y-45683420D01*
X5526698Y-45687573D01*
X5465779Y-45653359D01*
X5433028Y-45591641D01*
X5430500Y-45566730D01*
X5430500Y-44856079D01*
X5401659Y-44711092D01*
X5401658Y-44711091D01*
X5401658Y-44711087D01*
X5401656Y-44711082D01*
X5345087Y-44574511D01*
X5345080Y-44574498D01*
X5262951Y-44451584D01*
X5262948Y-44451580D01*
X5158419Y-44347051D01*
X5158415Y-44347048D01*
X5035501Y-44264919D01*
X5035488Y-44264912D01*
X4898917Y-44208343D01*
X4898907Y-44208340D01*
X4753920Y-44179500D01*
X4753918Y-44179500D01*
X4606082Y-44179500D01*
X4606080Y-44179500D01*
X4461092Y-44208340D01*
X4461082Y-44208343D01*
X4324511Y-44264912D01*
X4324498Y-44264919D01*
X4201584Y-44347048D01*
X4201580Y-44347051D01*
X4097051Y-44451580D01*
X4097048Y-44451584D01*
X4014919Y-44574498D01*
X4014912Y-44574511D01*
X3958343Y-44711082D01*
X3958340Y-44711092D01*
X3929500Y-44856079D01*
X3929500Y-44856082D01*
X3929500Y-46103918D01*
X3929500Y-46103920D01*
X3929499Y-46103920D01*
X1748193Y-46103920D01*
X1585934Y-46054700D01*
X1585932Y-46054699D01*
X1585934Y-46054699D01*
X1380000Y-46034417D01*
X1174067Y-46054699D01*
X976043Y-46114769D01*
X893386Y-46158951D01*
X793550Y-46212315D01*
X793548Y-46212316D01*
X793547Y-46212317D01*
X703164Y-46286492D01*
X638854Y-46313804D01*
X569987Y-46302013D01*
X518427Y-46254860D01*
X500500Y-46190638D01*
X500500Y-45449361D01*
X520185Y-45382322D01*
X572989Y-45336567D01*
X642147Y-45326623D01*
X703163Y-45353507D01*
X744778Y-45387659D01*
X774013Y-45411652D01*
X793550Y-45427685D01*
X976046Y-45525232D01*
X1174066Y-45585300D01*
X1174065Y-45585300D01*
X1192529Y-45587118D01*
X1380000Y-45605583D01*
X1585934Y-45585300D01*
X1783954Y-45525232D01*
X1966450Y-45427685D01*
X2126410Y-45296410D01*
X2257685Y-45136450D01*
X2355232Y-44953954D01*
X2415300Y-44755934D01*
X2430607Y-44600517D01*
X2819508Y-44600517D01*
X2819508Y-44600524D01*
X2839352Y-44725821D01*
X2839352Y-44725822D01*
X2839354Y-44725825D01*
X2896950Y-44838863D01*
X2896952Y-44838865D01*
X2896954Y-44838868D01*
X2986652Y-44928566D01*
X2986654Y-44928567D01*
X2986658Y-44928571D01*
X3099696Y-44986167D01*
X3099697Y-44986167D01*
X3099699Y-44986168D01*
X3224997Y-45006013D01*
X3225000Y-45006013D01*
X3225003Y-45006013D01*
X3350300Y-44986168D01*
X3350301Y-44986168D01*
X3350302Y-44986167D01*
X3350304Y-44986167D01*
X3463342Y-44928571D01*
X3553050Y-44838863D01*
X3610646Y-44725825D01*
X3610646Y-44725823D01*
X3610647Y-44725822D01*
X3610647Y-44725821D01*
X3630492Y-44600524D01*
X3630492Y-44600517D01*
X3610647Y-44475220D01*
X3610647Y-44475219D01*
X3596469Y-44447393D01*
X3553050Y-44362179D01*
X3553046Y-44362175D01*
X3553045Y-44362173D01*
X3463347Y-44272475D01*
X3463344Y-44272473D01*
X3463342Y-44272471D01*
X3350304Y-44214875D01*
X3350303Y-44214874D01*
X3350300Y-44214873D01*
X3225003Y-44195029D01*
X3224997Y-44195029D01*
X3099699Y-44214873D01*
X3099698Y-44214873D01*
X3035935Y-44247363D01*
X2986658Y-44272471D01*
X2986657Y-44272472D01*
X2986652Y-44272475D01*
X2896954Y-44362173D01*
X2896951Y-44362178D01*
X2896950Y-44362179D01*
X2877751Y-44399858D01*
X2839352Y-44475219D01*
X2839352Y-44475220D01*
X2819508Y-44600517D01*
X2430607Y-44600517D01*
X2435583Y-44550000D01*
X2415300Y-44344066D01*
X2355232Y-44146046D01*
X2257685Y-43963550D01*
X2205702Y-43900209D01*
X2126410Y-43803589D01*
X2008677Y-43706969D01*
X1966450Y-43672315D01*
X1783954Y-43574768D01*
X1585934Y-43514700D01*
X1585932Y-43514699D01*
X1585934Y-43514699D01*
X1380000Y-43494417D01*
X1174067Y-43514699D01*
X976043Y-43574769D01*
X939115Y-43594508D01*
X793550Y-43672315D01*
X793548Y-43672316D01*
X793547Y-43672317D01*
X703164Y-43746492D01*
X638854Y-43773804D01*
X569987Y-43762013D01*
X518427Y-43714860D01*
X500500Y-43650638D01*
X500500Y-42909361D01*
X520185Y-42842322D01*
X572989Y-42796567D01*
X642147Y-42786623D01*
X703165Y-42813508D01*
X791066Y-42885647D01*
X793550Y-42887685D01*
X976046Y-42985232D01*
X1174066Y-43045300D01*
X1174065Y-43045300D01*
X1192529Y-43047118D01*
X1380000Y-43065583D01*
X1585934Y-43045300D01*
X1783954Y-42985232D01*
X1966450Y-42887685D01*
X2126410Y-42756410D01*
X2257685Y-42596450D01*
X2303896Y-42509996D01*
X6334508Y-42509996D01*
X6334508Y-42510003D01*
X6354352Y-42635300D01*
X6354352Y-42635301D01*
X6354354Y-42635304D01*
X6411950Y-42748342D01*
X6411952Y-42748344D01*
X6411954Y-42748347D01*
X6501652Y-42838045D01*
X6501654Y-42838046D01*
X6501658Y-42838050D01*
X6614696Y-42895646D01*
X6614697Y-42895646D01*
X6614699Y-42895647D01*
X6739997Y-42915492D01*
X6740000Y-42915492D01*
X6740003Y-42915492D01*
X6865300Y-42895647D01*
X6865301Y-42895647D01*
X6865302Y-42895646D01*
X6865304Y-42895646D01*
X6978342Y-42838050D01*
X7068050Y-42748342D01*
X7071382Y-42741803D01*
X7854207Y-42741803D01*
X7854207Y-42741810D01*
X7874051Y-42867107D01*
X7874051Y-42867108D01*
X7884534Y-42887682D01*
X7931649Y-42980149D01*
X7931651Y-42980151D01*
X7931653Y-42980154D01*
X8021351Y-43069852D01*
X8021353Y-43069853D01*
X8021357Y-43069857D01*
X8134395Y-43127453D01*
X8134396Y-43127453D01*
X8134398Y-43127454D01*
X8259696Y-43147299D01*
X8259699Y-43147299D01*
X8259702Y-43147299D01*
X8384999Y-43127454D01*
X8385000Y-43127454D01*
X8385001Y-43127453D01*
X8385003Y-43127453D01*
X8498041Y-43069857D01*
X8587749Y-42980149D01*
X8645345Y-42867111D01*
X8645345Y-42867109D01*
X8645346Y-42867108D01*
X8645346Y-42867107D01*
X8665191Y-42741810D01*
X8665191Y-42741803D01*
X8645346Y-42616506D01*
X8645346Y-42616505D01*
X8633397Y-42593054D01*
X8587749Y-42503465D01*
X8587745Y-42503461D01*
X8587744Y-42503459D01*
X8498046Y-42413761D01*
X8498043Y-42413759D01*
X8498041Y-42413757D01*
X8385003Y-42356161D01*
X8385002Y-42356160D01*
X8384999Y-42356159D01*
X8259702Y-42336315D01*
X8259696Y-42336315D01*
X8134398Y-42356159D01*
X8134397Y-42356159D01*
X8078392Y-42384696D01*
X8021357Y-42413757D01*
X8021356Y-42413758D01*
X8021351Y-42413761D01*
X7931653Y-42503459D01*
X7931650Y-42503464D01*
X7931649Y-42503465D01*
X7928318Y-42510003D01*
X7874051Y-42616505D01*
X7874051Y-42616506D01*
X7854207Y-42741803D01*
X7071382Y-42741803D01*
X7125646Y-42635304D01*
X7125646Y-42635302D01*
X7125647Y-42635301D01*
X7125647Y-42635300D01*
X7145492Y-42510003D01*
X7145492Y-42509996D01*
X7125647Y-42384699D01*
X7125647Y-42384698D01*
X7120550Y-42374695D01*
X7068050Y-42271658D01*
X7068046Y-42271654D01*
X7068045Y-42271652D01*
X6978347Y-42181954D01*
X6978344Y-42181952D01*
X6978342Y-42181950D01*
X6865304Y-42124354D01*
X6865303Y-42124353D01*
X6865300Y-42124352D01*
X6740003Y-42104508D01*
X6739997Y-42104508D01*
X6614699Y-42124352D01*
X6614698Y-42124352D01*
X6539337Y-42162751D01*
X6501658Y-42181950D01*
X6501657Y-42181951D01*
X6501652Y-42181954D01*
X6411954Y-42271652D01*
X6411951Y-42271657D01*
X6354352Y-42384698D01*
X6354352Y-42384699D01*
X6334508Y-42509996D01*
X2303896Y-42509996D01*
X2355232Y-42413954D01*
X2415300Y-42215934D01*
X2429853Y-42068173D01*
X4699508Y-42068173D01*
X4699508Y-42068180D01*
X4719352Y-42193477D01*
X4719352Y-42193478D01*
X4730793Y-42215932D01*
X4776950Y-42306519D01*
X4776952Y-42306521D01*
X4776954Y-42306524D01*
X4866652Y-42396222D01*
X4866654Y-42396223D01*
X4866658Y-42396227D01*
X4979696Y-42453823D01*
X4979697Y-42453823D01*
X4979699Y-42453824D01*
X5104997Y-42473669D01*
X5105000Y-42473669D01*
X5105003Y-42473669D01*
X5230300Y-42453824D01*
X5230301Y-42453824D01*
X5230302Y-42453823D01*
X5230304Y-42453823D01*
X5343342Y-42396227D01*
X5433050Y-42306519D01*
X5490646Y-42193481D01*
X5490646Y-42193479D01*
X5490647Y-42193478D01*
X5490647Y-42193477D01*
X5510492Y-42068180D01*
X5510492Y-42068173D01*
X5499694Y-41999996D01*
X10394508Y-41999996D01*
X10394508Y-42000003D01*
X10414352Y-42125300D01*
X10414353Y-42125304D01*
X10449206Y-42193706D01*
X10462102Y-42262375D01*
X10449206Y-42306294D01*
X10414353Y-42374695D01*
X10414352Y-42374699D01*
X10394508Y-42499996D01*
X10394508Y-42500003D01*
X10414352Y-42625300D01*
X10414352Y-42625301D01*
X10419449Y-42635304D01*
X10471950Y-42738342D01*
X10471952Y-42738344D01*
X10471954Y-42738347D01*
X10561652Y-42828045D01*
X10561654Y-42828046D01*
X10561658Y-42828050D01*
X10674696Y-42885646D01*
X10674697Y-42885646D01*
X10674699Y-42885647D01*
X10799997Y-42905492D01*
X10800000Y-42905492D01*
X10800003Y-42905492D01*
X10925300Y-42885647D01*
X10925301Y-42885647D01*
X10925302Y-42885646D01*
X10925304Y-42885646D01*
X11038342Y-42828050D01*
X11128050Y-42738342D01*
X11185646Y-42625304D01*
X11185646Y-42625302D01*
X11185647Y-42625301D01*
X11185647Y-42625300D01*
X11205492Y-42500003D01*
X11205492Y-42499996D01*
X11185647Y-42374699D01*
X11185646Y-42374696D01*
X11150794Y-42306296D01*
X11137897Y-42237626D01*
X11150794Y-42193704D01*
X11156781Y-42181954D01*
X11185646Y-42125304D01*
X11185647Y-42125300D01*
X11205492Y-42000003D01*
X11205492Y-41999996D01*
X11185647Y-41874699D01*
X11185647Y-41874698D01*
X11185646Y-41874696D01*
X11128050Y-41761658D01*
X11128046Y-41761654D01*
X11128045Y-41761652D01*
X11038347Y-41671954D01*
X11038344Y-41671952D01*
X11038342Y-41671950D01*
X10925304Y-41614354D01*
X10925303Y-41614353D01*
X10925300Y-41614352D01*
X10800003Y-41594508D01*
X10799997Y-41594508D01*
X10674699Y-41614352D01*
X10674698Y-41614352D01*
X10599337Y-41652751D01*
X10561658Y-41671950D01*
X10561657Y-41671951D01*
X10561652Y-41671954D01*
X10471954Y-41761652D01*
X10471951Y-41761657D01*
X10414352Y-41874698D01*
X10414352Y-41874699D01*
X10394508Y-41999996D01*
X5499694Y-41999996D01*
X5490647Y-41942876D01*
X5490647Y-41942875D01*
X5455909Y-41874699D01*
X5433050Y-41829835D01*
X5433046Y-41829831D01*
X5433045Y-41829829D01*
X5343347Y-41740131D01*
X5343344Y-41740129D01*
X5343342Y-41740127D01*
X5230304Y-41682531D01*
X5230303Y-41682530D01*
X5230300Y-41682529D01*
X5105003Y-41662685D01*
X5104997Y-41662685D01*
X4979699Y-41682529D01*
X4979698Y-41682529D01*
X4904337Y-41720928D01*
X4866658Y-41740127D01*
X4866657Y-41740128D01*
X4866652Y-41740131D01*
X4776954Y-41829829D01*
X4776951Y-41829834D01*
X4719352Y-41942875D01*
X4719352Y-41942876D01*
X4699508Y-42068173D01*
X2429853Y-42068173D01*
X2435583Y-42010000D01*
X2415300Y-41804066D01*
X2355232Y-41606046D01*
X2257685Y-41423550D01*
X2126410Y-41263590D01*
X2126409Y-41263589D01*
X2015589Y-41172641D01*
X1976255Y-41114896D01*
X1974384Y-41045051D01*
X2006571Y-40989109D01*
X3095684Y-39899996D01*
X5594508Y-39899996D01*
X5594508Y-39900003D01*
X5614352Y-40025300D01*
X5614352Y-40025301D01*
X5614354Y-40025304D01*
X5671950Y-40138342D01*
X5671952Y-40138344D01*
X5671954Y-40138347D01*
X5761652Y-40228045D01*
X5761654Y-40228046D01*
X5761658Y-40228050D01*
X5874696Y-40285646D01*
X5874697Y-40285646D01*
X5874699Y-40285647D01*
X5999997Y-40305492D01*
X6000000Y-40305492D01*
X6000003Y-40305492D01*
X6125300Y-40285647D01*
X6125301Y-40285647D01*
X6125302Y-40285646D01*
X6125304Y-40285646D01*
X6238342Y-40228050D01*
X6328050Y-40138342D01*
X6385646Y-40025304D01*
X6404321Y-39907392D01*
X6434248Y-39844262D01*
X6493559Y-39807330D01*
X6507372Y-39804324D01*
X6625304Y-39785646D01*
X6738342Y-39728050D01*
X6828050Y-39638342D01*
X6885646Y-39525304D01*
X6885646Y-39525302D01*
X6885647Y-39525301D01*
X6885647Y-39525300D01*
X6905492Y-39400003D01*
X6905492Y-39399996D01*
X6885647Y-39274699D01*
X6885647Y-39274698D01*
X6880230Y-39264066D01*
X6828050Y-39161658D01*
X6828046Y-39161654D01*
X6828045Y-39161652D01*
X6738347Y-39071954D01*
X6738344Y-39071952D01*
X6738342Y-39071950D01*
X6625304Y-39014354D01*
X6625303Y-39014353D01*
X6625300Y-39014352D01*
X6500003Y-38994508D01*
X6499997Y-38994508D01*
X6374699Y-39014352D01*
X6374698Y-39014352D01*
X6299337Y-39052751D01*
X6261658Y-39071950D01*
X6261657Y-39071951D01*
X6261652Y-39071954D01*
X6171954Y-39161652D01*
X6171951Y-39161657D01*
X6114352Y-39274698D01*
X6114352Y-39274699D01*
X6095679Y-39392603D01*
X6065750Y-39455738D01*
X6006439Y-39492670D01*
X5992603Y-39495679D01*
X5874699Y-39514352D01*
X5874698Y-39514352D01*
X5799337Y-39552751D01*
X5761658Y-39571950D01*
X5761657Y-39571951D01*
X5761652Y-39571954D01*
X5671954Y-39661652D01*
X5671951Y-39661657D01*
X5614352Y-39774698D01*
X5614352Y-39774699D01*
X5594508Y-39899996D01*
X3095684Y-39899996D01*
X4495684Y-38499996D01*
X11494508Y-38499996D01*
X11494508Y-38500003D01*
X11514352Y-38625300D01*
X11514352Y-38625301D01*
X11514354Y-38625304D01*
X11571950Y-38738342D01*
X11571952Y-38738344D01*
X11571954Y-38738347D01*
X11661652Y-38828045D01*
X11661654Y-38828046D01*
X11661658Y-38828050D01*
X11774696Y-38885646D01*
X11774697Y-38885646D01*
X11774699Y-38885647D01*
X11899997Y-38905492D01*
X11900000Y-38905492D01*
X11900003Y-38905492D01*
X12025300Y-38885647D01*
X12025302Y-38885646D01*
X12025304Y-38885646D01*
X12138342Y-38828050D01*
X12138343Y-38828048D01*
X12143704Y-38825317D01*
X12212373Y-38812420D01*
X12256296Y-38825317D01*
X12261656Y-38828048D01*
X12261658Y-38828050D01*
X12370582Y-38883550D01*
X12374696Y-38885646D01*
X12374699Y-38885647D01*
X12499997Y-38905492D01*
X12500000Y-38905492D01*
X12500003Y-38905492D01*
X12625300Y-38885647D01*
X12625301Y-38885647D01*
X12625302Y-38885646D01*
X12625304Y-38885646D01*
X12738342Y-38828050D01*
X12828050Y-38738342D01*
X12885646Y-38625304D01*
X12885646Y-38625302D01*
X12885647Y-38625301D01*
X12885647Y-38625300D01*
X12905492Y-38500003D01*
X12905492Y-38499996D01*
X12885647Y-38374699D01*
X12885647Y-38374698D01*
X12885646Y-38374696D01*
X12828050Y-38261658D01*
X12828045Y-38261653D01*
X12822311Y-38253759D01*
X12823665Y-38252774D01*
X12795590Y-38201368D01*
X12800569Y-38131676D01*
X12823013Y-38096751D01*
X12822311Y-38096241D01*
X12828042Y-38088349D01*
X12828050Y-38088342D01*
X12885646Y-37975304D01*
X12885646Y-37975302D01*
X12885647Y-37975301D01*
X12885647Y-37975300D01*
X12905492Y-37850003D01*
X12905492Y-37849996D01*
X12885647Y-37724699D01*
X12885647Y-37724698D01*
X12876219Y-37706195D01*
X12828050Y-37611658D01*
X12828046Y-37611654D01*
X12828045Y-37611652D01*
X12738347Y-37521954D01*
X12738344Y-37521952D01*
X12738342Y-37521950D01*
X12625304Y-37464354D01*
X12625303Y-37464353D01*
X12625300Y-37464352D01*
X12500003Y-37444508D01*
X12499997Y-37444508D01*
X12374699Y-37464352D01*
X12374695Y-37464353D01*
X12306294Y-37499206D01*
X12237625Y-37512102D01*
X12193706Y-37499206D01*
X12125304Y-37464353D01*
X12125300Y-37464352D01*
X12000003Y-37444508D01*
X11999997Y-37444508D01*
X11874699Y-37464352D01*
X11874698Y-37464352D01*
X11806295Y-37499206D01*
X11761658Y-37521950D01*
X11761657Y-37521951D01*
X11761652Y-37521954D01*
X11671954Y-37611652D01*
X11671951Y-37611657D01*
X11614352Y-37724698D01*
X11614352Y-37724699D01*
X11594508Y-37849996D01*
X11594508Y-37850003D01*
X11614352Y-37975300D01*
X11614352Y-37975301D01*
X11655796Y-38056638D01*
X11668692Y-38125307D01*
X11642416Y-38190048D01*
X11632993Y-38200614D01*
X11571951Y-38261655D01*
X11571951Y-38261657D01*
X11571950Y-38261658D01*
X11568430Y-38268567D01*
X11514352Y-38374698D01*
X11514352Y-38374699D01*
X11494508Y-38499996D01*
X4495684Y-38499996D01*
X5995685Y-36999996D01*
X7094508Y-36999996D01*
X7094508Y-37000003D01*
X7114352Y-37125300D01*
X7114352Y-37125301D01*
X7114354Y-37125304D01*
X7171950Y-37238342D01*
X7171952Y-37238344D01*
X7171954Y-37238347D01*
X7261652Y-37328045D01*
X7261654Y-37328046D01*
X7261658Y-37328050D01*
X7374696Y-37385646D01*
X7374697Y-37385646D01*
X7374699Y-37385647D01*
X7499997Y-37405492D01*
X7500000Y-37405492D01*
X7500003Y-37405492D01*
X7625300Y-37385647D01*
X7625301Y-37385647D01*
X7625302Y-37385646D01*
X7625304Y-37385646D01*
X7738342Y-37328050D01*
X7828050Y-37238342D01*
X7885646Y-37125304D01*
X7885646Y-37125302D01*
X7885647Y-37125301D01*
X7885647Y-37125300D01*
X7905492Y-37000003D01*
X7905492Y-36999996D01*
X7885647Y-36874699D01*
X7885647Y-36874698D01*
X7861737Y-36827773D01*
X7828050Y-36761658D01*
X7828046Y-36761654D01*
X7828045Y-36761652D01*
X7738347Y-36671954D01*
X7738344Y-36671952D01*
X7738342Y-36671950D01*
X7625304Y-36614354D01*
X7625303Y-36614353D01*
X7625300Y-36614352D01*
X7500003Y-36594508D01*
X7499997Y-36594508D01*
X7374699Y-36614352D01*
X7374698Y-36614352D01*
X7299337Y-36652751D01*
X7261658Y-36671950D01*
X7261657Y-36671951D01*
X7261652Y-36671954D01*
X7171954Y-36761652D01*
X7171951Y-36761657D01*
X7171950Y-36761658D01*
X7152751Y-36799337D01*
X7114352Y-36874698D01*
X7114352Y-36874699D01*
X7094508Y-36999996D01*
X5995685Y-36999996D01*
X6555469Y-36440212D01*
X6601614Y-36360288D01*
X6615343Y-36309050D01*
X6617769Y-36299996D01*
X8694508Y-36299996D01*
X8694508Y-36300003D01*
X8714352Y-36425300D01*
X8714352Y-36425301D01*
X8714354Y-36425304D01*
X8771950Y-36538342D01*
X8771952Y-36538344D01*
X8771954Y-36538347D01*
X8861652Y-36628045D01*
X8861654Y-36628046D01*
X8861658Y-36628050D01*
X8974696Y-36685646D01*
X8974697Y-36685646D01*
X8974699Y-36685647D01*
X9099997Y-36705492D01*
X9100000Y-36705492D01*
X9100003Y-36705492D01*
X9225300Y-36685647D01*
X9225301Y-36685647D01*
X9225302Y-36685646D01*
X9225304Y-36685646D01*
X9338342Y-36628050D01*
X9428050Y-36538342D01*
X9485646Y-36425304D01*
X9485646Y-36425302D01*
X9485647Y-36425301D01*
X9485647Y-36425300D01*
X9505492Y-36300003D01*
X9505492Y-36299996D01*
X9485647Y-36174699D01*
X9485647Y-36174698D01*
X9468993Y-36142013D01*
X9428050Y-36061658D01*
X9428046Y-36061654D01*
X9428045Y-36061652D01*
X9338347Y-35971954D01*
X9338344Y-35971952D01*
X9338342Y-35971950D01*
X9225304Y-35914354D01*
X9225303Y-35914353D01*
X9225300Y-35914352D01*
X9100003Y-35894508D01*
X9099997Y-35894508D01*
X8974699Y-35914352D01*
X8974698Y-35914352D01*
X8899337Y-35952751D01*
X8861658Y-35971950D01*
X8861657Y-35971951D01*
X8861652Y-35971954D01*
X8771954Y-36061652D01*
X8771951Y-36061657D01*
X8771950Y-36061658D01*
X8759434Y-36086222D01*
X8714352Y-36174698D01*
X8714352Y-36174699D01*
X8694508Y-36299996D01*
X6617769Y-36299996D01*
X6625500Y-36271144D01*
X6625500Y-35792218D01*
X6639015Y-35735923D01*
X6660646Y-35693471D01*
X6660647Y-35693467D01*
X6680492Y-35568170D01*
X6680492Y-35568163D01*
X6660647Y-35442866D01*
X6660647Y-35442865D01*
X6641604Y-35405492D01*
X6603050Y-35329825D01*
X6603046Y-35329821D01*
X6603045Y-35329819D01*
X6513347Y-35240121D01*
X6513344Y-35240119D01*
X6513342Y-35240117D01*
X6400304Y-35182521D01*
X6400302Y-35182520D01*
X6400301Y-35182520D01*
X6328510Y-35171149D01*
X6265376Y-35141219D01*
X6228445Y-35081908D01*
X6225436Y-35068074D01*
X6214654Y-34999996D01*
X12394508Y-34999996D01*
X12394508Y-35000003D01*
X12414352Y-35125300D01*
X12414352Y-35125301D01*
X12422463Y-35141219D01*
X12471950Y-35238342D01*
X12471952Y-35238344D01*
X12471954Y-35238347D01*
X12561652Y-35328045D01*
X12561654Y-35328046D01*
X12561658Y-35328050D01*
X12674696Y-35385646D01*
X12674697Y-35385646D01*
X12674699Y-35385647D01*
X12799997Y-35405492D01*
X12800000Y-35405492D01*
X12800003Y-35405492D01*
X12925300Y-35385647D01*
X12925301Y-35385647D01*
X12925302Y-35385646D01*
X12925304Y-35385646D01*
X13038342Y-35328050D01*
X13128050Y-35238342D01*
X13185646Y-35125304D01*
X13185646Y-35125302D01*
X13185647Y-35125301D01*
X13185647Y-35125300D01*
X13205492Y-35000003D01*
X13205492Y-34999996D01*
X13185647Y-34874699D01*
X13185647Y-34874698D01*
X13179000Y-34861652D01*
X13128050Y-34761658D01*
X13128046Y-34761654D01*
X13128045Y-34761652D01*
X13038347Y-34671954D01*
X13038344Y-34671952D01*
X13038342Y-34671950D01*
X12925304Y-34614354D01*
X12925303Y-34614353D01*
X12925300Y-34614352D01*
X12800003Y-34594508D01*
X12799997Y-34594508D01*
X12674699Y-34614352D01*
X12674698Y-34614352D01*
X12599337Y-34652751D01*
X12561658Y-34671950D01*
X12561657Y-34671951D01*
X12561652Y-34671954D01*
X12471954Y-34761652D01*
X12471951Y-34761657D01*
X12471950Y-34761658D01*
X12466704Y-34771954D01*
X12414352Y-34874698D01*
X12414352Y-34874699D01*
X12394508Y-34999996D01*
X6214654Y-34999996D01*
X6210647Y-34974698D01*
X6209809Y-34973054D01*
X6153050Y-34861658D01*
X6153046Y-34861654D01*
X6153045Y-34861652D01*
X6063347Y-34771954D01*
X6063344Y-34771952D01*
X6063342Y-34771950D01*
X5950304Y-34714354D01*
X5950303Y-34714353D01*
X5950300Y-34714352D01*
X5825003Y-34694508D01*
X5824997Y-34694508D01*
X5699699Y-34714352D01*
X5699698Y-34714352D01*
X5624337Y-34752751D01*
X5586658Y-34771950D01*
X5586657Y-34771951D01*
X5586652Y-34771954D01*
X5496954Y-34861652D01*
X5496951Y-34861657D01*
X5496950Y-34861658D01*
X5477751Y-34899337D01*
X5439352Y-34974698D01*
X5439352Y-34974699D01*
X5419508Y-35099996D01*
X5419508Y-35100003D01*
X5439352Y-35225300D01*
X5439353Y-35225303D01*
X5439354Y-35225304D01*
X5460948Y-35267685D01*
X5460985Y-35267756D01*
X5474500Y-35324051D01*
X5474500Y-35483334D01*
X5454815Y-35550373D01*
X5402011Y-35596128D01*
X5332853Y-35606072D01*
X5269297Y-35577047D01*
X5262820Y-35571016D01*
X5228614Y-35536810D01*
X5228611Y-35536809D01*
X5143507Y-35483334D01*
X5115940Y-35466012D01*
X5115938Y-35466011D01*
X5115936Y-35466010D01*
X4990338Y-35422062D01*
X4858113Y-35407164D01*
X4858105Y-35407164D01*
X4725881Y-35422061D01*
X4600280Y-35466012D01*
X4600274Y-35466014D01*
X4487602Y-35536813D01*
X4425993Y-35598423D01*
X4425993Y-35598424D01*
X4317730Y-35706685D01*
X4317058Y-35707451D01*
X4308721Y-35715788D01*
X4237930Y-35828439D01*
X4193979Y-35954009D01*
X4179066Y-36086221D01*
X4179066Y-36086222D01*
X4193942Y-36218423D01*
X4193943Y-36218428D01*
X4237860Y-36344015D01*
X4298269Y-36440205D01*
X4308619Y-36456684D01*
X4317582Y-36465652D01*
X4317726Y-36465816D01*
X4355620Y-36503710D01*
X4355636Y-36503740D01*
X4355643Y-36503734D01*
X4401645Y-36549760D01*
X4401817Y-36549907D01*
X4557591Y-36705680D01*
X4591075Y-36767002D01*
X4586091Y-36836693D01*
X4557590Y-36881041D01*
X4221024Y-37217607D01*
X4159701Y-37251092D01*
X4090009Y-37246108D01*
X4045662Y-37217607D01*
X3836734Y-37008679D01*
X3836708Y-37008656D01*
X3827681Y-36999629D01*
X3794359Y-36978692D01*
X3715011Y-36928833D01*
X3705393Y-36925467D01*
X3589407Y-36884881D01*
X3457185Y-36869984D01*
X3457177Y-36869984D01*
X3324951Y-36884882D01*
X3199353Y-36928830D01*
X3199347Y-36928833D01*
X3086683Y-36999626D01*
X3086680Y-36999629D01*
X3072263Y-37014045D01*
X2916592Y-37169714D01*
X2916273Y-37170078D01*
X2907797Y-37178552D01*
X2907793Y-37178556D01*
X2836981Y-37291217D01*
X2793015Y-37416818D01*
X2793015Y-37416820D01*
X2778104Y-37549053D01*
X2778104Y-37549056D01*
X2792993Y-37681282D01*
X2792994Y-37681287D01*
X2811264Y-37733508D01*
X2836938Y-37806892D01*
X2907734Y-37919571D01*
X2916762Y-37928598D01*
X2916775Y-37928613D01*
X2922151Y-37933989D01*
X2922152Y-37933990D01*
X3125717Y-38137554D01*
X3159201Y-38198875D01*
X3154217Y-38268567D01*
X3125716Y-38312915D01*
X2479500Y-38959130D01*
X2418177Y-38992615D01*
X2348485Y-38987631D01*
X2292552Y-38945759D01*
X2282461Y-38929903D01*
X2257685Y-38883550D01*
X2205702Y-38820209D01*
X2126410Y-38723589D01*
X1966452Y-38592317D01*
X1966453Y-38592317D01*
X1966450Y-38592315D01*
X1783954Y-38494768D01*
X1585934Y-38434700D01*
X1585932Y-38434699D01*
X1585934Y-38434699D01*
X1380000Y-38414417D01*
X1174067Y-38434699D01*
X976043Y-38494769D01*
X865898Y-38553643D01*
X793550Y-38592315D01*
X793548Y-38592316D01*
X793547Y-38592317D01*
X703164Y-38666492D01*
X638854Y-38693804D01*
X569987Y-38682013D01*
X518427Y-38634860D01*
X500500Y-38570638D01*
X500500Y-37829361D01*
X520185Y-37762322D01*
X572989Y-37716567D01*
X642147Y-37706623D01*
X703165Y-37733508D01*
X792583Y-37806892D01*
X793550Y-37807685D01*
X976046Y-37905232D01*
X1174066Y-37965300D01*
X1174065Y-37965300D01*
X1192529Y-37967118D01*
X1380000Y-37985583D01*
X1585934Y-37965300D01*
X1783954Y-37905232D01*
X1966450Y-37807685D01*
X2126410Y-37676410D01*
X2257685Y-37516450D01*
X2355232Y-37333954D01*
X2415300Y-37135934D01*
X2435583Y-36930000D01*
X2415300Y-36724066D01*
X2355232Y-36526046D01*
X2257685Y-36343550D01*
X2154997Y-36218423D01*
X2126410Y-36183589D01*
X2007761Y-36086218D01*
X1966450Y-36052315D01*
X1783954Y-35954768D01*
X1585934Y-35894700D01*
X1585932Y-35894699D01*
X1585934Y-35894699D01*
X1380000Y-35874417D01*
X1174067Y-35894699D01*
X976043Y-35954769D01*
X865898Y-36013643D01*
X793550Y-36052315D01*
X793548Y-36052316D01*
X793547Y-36052317D01*
X703164Y-36126492D01*
X638854Y-36153804D01*
X569987Y-36142013D01*
X518427Y-36094860D01*
X500500Y-36030638D01*
X500500Y-35289361D01*
X520185Y-35222322D01*
X572989Y-35176567D01*
X642147Y-35166623D01*
X703163Y-35193507D01*
X793550Y-35267685D01*
X976046Y-35365232D01*
X1174066Y-35425300D01*
X1174065Y-35425300D01*
X1192529Y-35427118D01*
X1380000Y-35445583D01*
X1585934Y-35425300D01*
X1783954Y-35365232D01*
X1966450Y-35267685D01*
X2126410Y-35136410D01*
X2257685Y-34976450D01*
X2355232Y-34793954D01*
X2415300Y-34595934D01*
X2435583Y-34390000D01*
X2415300Y-34184066D01*
X2355232Y-33986046D01*
X2257685Y-33803550D01*
X2172707Y-33700003D01*
X2126410Y-33643589D01*
X1966452Y-33512317D01*
X1966453Y-33512317D01*
X1966450Y-33512315D01*
X1783954Y-33414768D01*
X1585934Y-33354700D01*
X1585932Y-33354699D01*
X1585934Y-33354699D01*
X1380000Y-33334417D01*
X1174067Y-33354699D01*
X976043Y-33414769D01*
X888322Y-33461658D01*
X793550Y-33512315D01*
X793548Y-33512316D01*
X793547Y-33512317D01*
X703164Y-33586492D01*
X638854Y-33613804D01*
X569987Y-33602013D01*
X518427Y-33554860D01*
X500500Y-33490638D01*
X500500Y-32749361D01*
X520185Y-32682322D01*
X572989Y-32636567D01*
X642147Y-32626623D01*
X703163Y-32653507D01*
X793550Y-32727685D01*
X976046Y-32825232D01*
X1174066Y-32885300D01*
X1174065Y-32885300D01*
X1192529Y-32887118D01*
X1380000Y-32905583D01*
X1585934Y-32885300D01*
X1783954Y-32825232D01*
X1966450Y-32727685D01*
X2126410Y-32596410D01*
X2257685Y-32436450D01*
X2355232Y-32253954D01*
X2415300Y-32055934D01*
X2435583Y-31850000D01*
X2415300Y-31644066D01*
X2355232Y-31446046D01*
X2257685Y-31263550D01*
X2205702Y-31200209D01*
X2126410Y-31103589D01*
X1966452Y-30972317D01*
X1966453Y-30972317D01*
X1966450Y-30972315D01*
X1783954Y-30874768D01*
X1585934Y-30814700D01*
X1585932Y-30814699D01*
X1585934Y-30814699D01*
X1380000Y-30794417D01*
X1174067Y-30814699D01*
X976043Y-30874769D01*
X865898Y-30933643D01*
X793550Y-30972315D01*
X793548Y-30972316D01*
X793547Y-30972317D01*
X703164Y-31046492D01*
X638854Y-31073804D01*
X569987Y-31062013D01*
X518427Y-31014860D01*
X500500Y-30950638D01*
X500500Y-30209361D01*
X520185Y-30142322D01*
X572989Y-30096567D01*
X642147Y-30086623D01*
X703163Y-30113507D01*
X793550Y-30187685D01*
X976046Y-30285232D01*
X1174066Y-30345300D01*
X1174065Y-30345300D01*
X1192529Y-30347118D01*
X1380000Y-30365583D01*
X1585934Y-30345300D01*
X1783954Y-30285232D01*
X1966450Y-30187685D01*
X2126410Y-30056410D01*
X2257685Y-29896450D01*
X2355232Y-29713954D01*
X2415300Y-29515934D01*
X2435583Y-29310000D01*
X2415300Y-29104066D01*
X2355232Y-28906046D01*
X2257685Y-28723550D01*
X2203428Y-28657437D01*
X2126410Y-28563589D01*
X1966452Y-28432317D01*
X1966453Y-28432317D01*
X1966450Y-28432315D01*
X1783954Y-28334768D01*
X1585934Y-28274700D01*
X1585932Y-28274699D01*
X1585934Y-28274699D01*
X1380000Y-28254417D01*
X1174067Y-28274699D01*
X976043Y-28334769D01*
X865898Y-28393643D01*
X793550Y-28432315D01*
X793548Y-28432316D01*
X793547Y-28432317D01*
X703164Y-28506492D01*
X638854Y-28533804D01*
X569987Y-28522013D01*
X518427Y-28474860D01*
X500500Y-28410638D01*
X500500Y-27669361D01*
X520185Y-27602322D01*
X572989Y-27556567D01*
X642147Y-27546623D01*
X703163Y-27573507D01*
X738275Y-27602322D01*
X793045Y-27647271D01*
X793550Y-27647685D01*
X976046Y-27745232D01*
X1174066Y-27805300D01*
X1174065Y-27805300D01*
X1192529Y-27807118D01*
X1380000Y-27825583D01*
X1585934Y-27805300D01*
X1783954Y-27745232D01*
X1966450Y-27647685D01*
X2126410Y-27516410D01*
X2257685Y-27356450D01*
X2355232Y-27173954D01*
X2415300Y-26975934D01*
X2435583Y-26770000D01*
X2415300Y-26564066D01*
X2355232Y-26366046D01*
X2257685Y-26183550D01*
X2126701Y-26023944D01*
X2126410Y-26023589D01*
X1966452Y-25892317D01*
X1966453Y-25892317D01*
X1966450Y-25892315D01*
X1783954Y-25794768D01*
X1585934Y-25734700D01*
X1585932Y-25734699D01*
X1585934Y-25734699D01*
X1380000Y-25714417D01*
X1174067Y-25734699D01*
X976043Y-25794769D01*
X882990Y-25844508D01*
X793550Y-25892315D01*
X793548Y-25892316D01*
X793547Y-25892317D01*
X703164Y-25966492D01*
X638854Y-25993804D01*
X569987Y-25982013D01*
X518427Y-25934860D01*
X500500Y-25870638D01*
X500500Y-25128716D01*
X520185Y-25061677D01*
X572989Y-25015922D01*
X642147Y-25005978D01*
X703165Y-25032863D01*
X793826Y-25107267D01*
X793833Y-25107271D01*
X976233Y-25204766D01*
X1130000Y-25251410D01*
X1130000Y-24545686D01*
X1134394Y-24550080D01*
X1225606Y-24602741D01*
X1327339Y-24630000D01*
X1432661Y-24630000D01*
X1534394Y-24602741D01*
X1625606Y-24550080D01*
X1630000Y-24545686D01*
X1630000Y-25251410D01*
X1783766Y-25204766D01*
X1966166Y-25107271D01*
X1966173Y-25107267D01*
X2126055Y-24976055D01*
X2257267Y-24816173D01*
X2257271Y-24816166D01*
X2354766Y-24633766D01*
X2401410Y-24480000D01*
X1695686Y-24480000D01*
X1700080Y-24475606D01*
X1752741Y-24384394D01*
X1780000Y-24282661D01*
X1780000Y-24177339D01*
X1752741Y-24075606D01*
X1700080Y-23984394D01*
X1695686Y-23980000D01*
X2401410Y-23980000D01*
X2354766Y-23826233D01*
X2257271Y-23643833D01*
X2257267Y-23643826D01*
X2126055Y-23483944D01*
X1966173Y-23352732D01*
X1966166Y-23352728D01*
X1783763Y-23255232D01*
X1630000Y-23208587D01*
X1630000Y-23914314D01*
X1625606Y-23909920D01*
X1534394Y-23857259D01*
X1432661Y-23830000D01*
X1327339Y-23830000D01*
X1225606Y-23857259D01*
X1134394Y-23909920D01*
X1130000Y-23914314D01*
X1130000Y-23208587D01*
X976236Y-23255232D01*
X793833Y-23352728D01*
X793827Y-23352732D01*
X703164Y-23427137D01*
X638854Y-23454449D01*
X569987Y-23442658D01*
X518427Y-23395505D01*
X500500Y-23331283D01*
X500500Y-22589361D01*
X520185Y-22522322D01*
X572989Y-22476567D01*
X642147Y-22466623D01*
X703163Y-22493507D01*
X793550Y-22567685D01*
X976046Y-22665232D01*
X1174066Y-22725300D01*
X1174065Y-22725300D01*
X1192529Y-22727118D01*
X1380000Y-22745583D01*
X1585934Y-22725300D01*
X1783954Y-22665232D01*
X1966450Y-22567685D01*
X2126410Y-22436410D01*
X2257685Y-22276450D01*
X2355232Y-22093954D01*
X2415300Y-21895934D01*
X2435583Y-21690000D01*
X2415300Y-21484066D01*
X2355232Y-21286046D01*
X2257685Y-21103550D01*
X2172707Y-21000003D01*
X2126410Y-20943589D01*
X1966452Y-20812317D01*
X1966453Y-20812317D01*
X1966450Y-20812315D01*
X1783954Y-20714768D01*
X1585934Y-20654700D01*
X1585932Y-20654699D01*
X1585934Y-20654699D01*
X1380000Y-20634417D01*
X1174067Y-20654699D01*
X976043Y-20714769D01*
X888322Y-20761658D01*
X793550Y-20812315D01*
X793548Y-20812316D01*
X793547Y-20812317D01*
X703164Y-20886492D01*
X638854Y-20913804D01*
X569987Y-20902013D01*
X518427Y-20854860D01*
X500500Y-20790638D01*
X500500Y-20049361D01*
X520185Y-19982322D01*
X572989Y-19936567D01*
X642147Y-19926623D01*
X703163Y-19953507D01*
X793550Y-20027685D01*
X976046Y-20125232D01*
X1174066Y-20185300D01*
X1174065Y-20185300D01*
X1192529Y-20187118D01*
X1380000Y-20205583D01*
X1585934Y-20185300D01*
X1783954Y-20125232D01*
X1966450Y-20027685D01*
X2126410Y-19896410D01*
X2257685Y-19736450D01*
X2355232Y-19553954D01*
X2415300Y-19355934D01*
X2435583Y-19150000D01*
X2415300Y-18944066D01*
X2355232Y-18746046D01*
X2257685Y-18563550D01*
X2205702Y-18500209D01*
X2126410Y-18403589D01*
X1966452Y-18272317D01*
X1966453Y-18272317D01*
X1966450Y-18272315D01*
X1783954Y-18174768D01*
X1585934Y-18114700D01*
X1585932Y-18114699D01*
X1585934Y-18114699D01*
X1380000Y-18094417D01*
X1174067Y-18114699D01*
X976043Y-18174769D01*
X865898Y-18233643D01*
X793550Y-18272315D01*
X793548Y-18272316D01*
X793547Y-18272317D01*
X703164Y-18346492D01*
X638854Y-18373804D01*
X569987Y-18362013D01*
X518427Y-18314860D01*
X500500Y-18250638D01*
X500500Y-17509361D01*
X520185Y-17442322D01*
X572989Y-17396567D01*
X642147Y-17386623D01*
X703163Y-17413507D01*
X793550Y-17487685D01*
X976046Y-17585232D01*
X1174066Y-17645300D01*
X1174065Y-17645300D01*
X1192529Y-17647118D01*
X1380000Y-17665583D01*
X1585934Y-17645300D01*
X1783954Y-17585232D01*
X1966450Y-17487685D01*
X2126410Y-17356410D01*
X2257685Y-17196450D01*
X2355232Y-17013954D01*
X2415300Y-16815934D01*
X2435583Y-16610000D01*
X2415300Y-16404066D01*
X2355232Y-16206046D01*
X2257685Y-16023550D01*
X2205702Y-15960209D01*
X2126410Y-15863589D01*
X1966452Y-15732317D01*
X1966453Y-15732317D01*
X1966450Y-15732315D01*
X1783954Y-15634768D01*
X1585934Y-15574700D01*
X1585932Y-15574699D01*
X1585934Y-15574699D01*
X1380000Y-15554417D01*
X1174067Y-15574699D01*
X976043Y-15634769D01*
X865898Y-15693643D01*
X793550Y-15732315D01*
X793548Y-15732316D01*
X793547Y-15732317D01*
X703164Y-15806492D01*
X638854Y-15833804D01*
X569987Y-15822013D01*
X518427Y-15774860D01*
X500500Y-15710638D01*
X500500Y-14969361D01*
X520185Y-14902322D01*
X572989Y-14856567D01*
X642147Y-14846623D01*
X703163Y-14873507D01*
X793550Y-14947685D01*
X976046Y-15045232D01*
X1174066Y-15105300D01*
X1174065Y-15105300D01*
X1192529Y-15107118D01*
X1380000Y-15125583D01*
X1585934Y-15105300D01*
X1783954Y-15045232D01*
X1966450Y-14947685D01*
X2126410Y-14816410D01*
X2257685Y-14656450D01*
X2355232Y-14473954D01*
X2415300Y-14275934D01*
X2435583Y-14070000D01*
X2415300Y-13864066D01*
X2355232Y-13666046D01*
X2257685Y-13483550D01*
X2205702Y-13420209D01*
X2126410Y-13323589D01*
X1968145Y-13193706D01*
X1966450Y-13192315D01*
X1783954Y-13094768D01*
X1585934Y-13034700D01*
X1585932Y-13034699D01*
X1585934Y-13034699D01*
X1380000Y-13014417D01*
X1174067Y-13034699D01*
X976043Y-13094769D01*
X865898Y-13153643D01*
X793550Y-13192315D01*
X793548Y-13192316D01*
X793547Y-13192317D01*
X703164Y-13266492D01*
X638854Y-13293804D01*
X569987Y-13282013D01*
X518427Y-13234860D01*
X500500Y-13170638D01*
X500500Y-12429361D01*
X520185Y-12362322D01*
X572989Y-12316567D01*
X642147Y-12306623D01*
X703163Y-12333507D01*
X793550Y-12407685D01*
X976046Y-12505232D01*
X1174066Y-12565300D01*
X1174065Y-12565300D01*
X1192529Y-12567118D01*
X1380000Y-12585583D01*
X1585934Y-12565300D01*
X1783954Y-12505232D01*
X1966450Y-12407685D01*
X2126410Y-12276410D01*
X2257685Y-12116450D01*
X2355232Y-11933954D01*
X2415300Y-11735934D01*
X2421302Y-11674996D01*
X4469508Y-11674996D01*
X4469508Y-11675003D01*
X4489352Y-11800300D01*
X4489352Y-11800301D01*
X4489354Y-11800304D01*
X4546950Y-11913342D01*
X4546952Y-11913344D01*
X4546954Y-11913347D01*
X4636652Y-12003045D01*
X4636654Y-12003046D01*
X4636658Y-12003050D01*
X4749696Y-12060646D01*
X4749697Y-12060646D01*
X4749699Y-12060647D01*
X4874997Y-12080492D01*
X4875000Y-12080492D01*
X4875003Y-12080492D01*
X5000300Y-12060647D01*
X5000301Y-12060647D01*
X5000302Y-12060646D01*
X5000304Y-12060646D01*
X5113342Y-12003050D01*
X5203050Y-11913342D01*
X5260646Y-11800304D01*
X5260646Y-11800302D01*
X5260647Y-11800301D01*
X5260647Y-11800300D01*
X5280492Y-11675003D01*
X5280492Y-11674996D01*
X5260647Y-11549699D01*
X5260647Y-11549698D01*
X5250610Y-11530000D01*
X5203050Y-11436658D01*
X5203046Y-11436654D01*
X5203045Y-11436652D01*
X5113347Y-11346954D01*
X5113344Y-11346952D01*
X5113342Y-11346950D01*
X5000304Y-11289354D01*
X5000303Y-11289353D01*
X5000300Y-11289352D01*
X4875003Y-11269508D01*
X4874997Y-11269508D01*
X4749699Y-11289352D01*
X4749698Y-11289352D01*
X4681570Y-11324066D01*
X4636658Y-11346950D01*
X4636657Y-11346951D01*
X4636652Y-11346954D01*
X4546954Y-11436652D01*
X4546951Y-11436657D01*
X4489352Y-11549698D01*
X4489352Y-11549699D01*
X4469508Y-11674996D01*
X2421302Y-11674996D01*
X2435583Y-11530000D01*
X2415300Y-11324066D01*
X2355232Y-11126046D01*
X2257685Y-10943550D01*
X2201677Y-10875304D01*
X2126410Y-10783589D01*
X1966452Y-10652317D01*
X1966453Y-10652317D01*
X1966450Y-10652315D01*
X1783954Y-10554768D01*
X1585934Y-10494700D01*
X1585932Y-10494699D01*
X1585934Y-10494699D01*
X1380000Y-10474417D01*
X1174067Y-10494699D01*
X976043Y-10554769D01*
X891545Y-10599935D01*
X793550Y-10652315D01*
X793548Y-10652316D01*
X793547Y-10652317D01*
X703164Y-10726492D01*
X638854Y-10753804D01*
X569987Y-10742013D01*
X518427Y-10694860D01*
X500500Y-10630638D01*
X500500Y-9889361D01*
X520185Y-9822322D01*
X572989Y-9776567D01*
X642147Y-9766623D01*
X703163Y-9793507D01*
X793550Y-9867685D01*
X976046Y-9965232D01*
X1174066Y-10025300D01*
X1174065Y-10025300D01*
X1192529Y-10027118D01*
X1380000Y-10045583D01*
X1585934Y-10025300D01*
X1783954Y-9965232D01*
X1966450Y-9867685D01*
X2126410Y-9736410D01*
X2257685Y-9576450D01*
X2355232Y-9393954D01*
X2415300Y-9195934D01*
X2435583Y-8990000D01*
X2415300Y-8784066D01*
X2355232Y-8586046D01*
X2257685Y-8403550D01*
X2195724Y-8328050D01*
X2126410Y-8243589D01*
X1982276Y-8125303D01*
X1966450Y-8112315D01*
X1783954Y-8014768D01*
X1585934Y-7954700D01*
X1585932Y-7954699D01*
X1585934Y-7954699D01*
X1380000Y-7934417D01*
X1174067Y-7954699D01*
X976043Y-8014769D01*
X865898Y-8073643D01*
X793550Y-8112315D01*
X793548Y-8112316D01*
X793547Y-8112317D01*
X703164Y-8186492D01*
X638854Y-8213804D01*
X569987Y-8202013D01*
X518427Y-8154860D01*
X500500Y-8090638D01*
X500500Y-7349361D01*
X520185Y-7282322D01*
X572989Y-7236567D01*
X642147Y-7226623D01*
X703163Y-7253507D01*
X793550Y-7327685D01*
X976046Y-7425232D01*
X1174066Y-7485300D01*
X1174065Y-7485300D01*
X1192529Y-7487118D01*
X1380000Y-7505583D01*
X1585934Y-7485300D01*
X1783954Y-7425232D01*
X1966450Y-7327685D01*
X2126410Y-7196410D01*
X2257685Y-7036450D01*
X2355232Y-6853954D01*
X2415300Y-6655934D01*
X2435583Y-6450000D01*
X2415300Y-6244066D01*
X2355232Y-6046046D01*
X2257685Y-5863550D01*
X2205702Y-5800209D01*
X2126410Y-5703589D01*
X1966452Y-5572317D01*
X1966453Y-5572317D01*
X1966450Y-5572315D01*
X1800025Y-5483358D01*
X1750181Y-5434395D01*
X1734721Y-5366257D01*
X1758553Y-5300578D01*
X1814111Y-5258209D01*
X1858479Y-5250000D01*
X3238918Y-5250000D01*
X3305957Y-5269685D01*
G37*
%TD.AperFunction*%
%TD*%
M02*
