%TF.GenerationSoftware,KiCad,Pcbnew,8.0.6*%
%TF.CreationDate,2024-11-24T01:02:09-06:00*%
%TF.ProjectId,ATesp32,41546573-7033-4322-9e6b-696361645f70,rev?*%
%TF.SameCoordinates,PX47868c0PY608f3d0*%
%TF.FileFunction,Paste,Top*%
%TF.FilePolarity,Positive*%
%FSLAX46Y46*%
G04 Gerber Fmt 4.6, Leading zero omitted, Abs format (unit mm)*
G04 Created by KiCad (PCBNEW 8.0.6) date 2024-11-24 01:02:09*
%MOMM*%
%LPD*%
G01*
G04 APERTURE LIST*
G04 Aperture macros list*
%AMRoundRect*
0 Rectangle with rounded corners*
0 $1 Rounding radius*
0 $2 $3 $4 $5 $6 $7 $8 $9 X,Y pos of 4 corners*
0 Add a 4 corners polygon primitive as box body*
4,1,4,$2,$3,$4,$5,$6,$7,$8,$9,$2,$3,0*
0 Add four circle primitives for the rounded corners*
1,1,$1+$1,$2,$3*
1,1,$1+$1,$4,$5*
1,1,$1+$1,$6,$7*
1,1,$1+$1,$8,$9*
0 Add four rect primitives between the rounded corners*
20,1,$1+$1,$2,$3,$4,$5,0*
20,1,$1+$1,$4,$5,$6,$7,0*
20,1,$1+$1,$6,$7,$8,$9,0*
20,1,$1+$1,$8,$9,$2,$3,0*%
%AMRotRect*
0 Rectangle, with rotation*
0 The origin of the aperture is its center*
0 $1 length*
0 $2 width*
0 $3 Rotation angle, in degrees counterclockwise*
0 Add horizontal line*
21,1,$1,$2,0,0,$3*%
G04 Aperture macros list end*
%ADD10RoundRect,0.135000X-0.135000X-0.185000X0.135000X-0.185000X0.135000X0.185000X-0.135000X0.185000X0*%
%ADD11RoundRect,0.140000X0.021213X-0.219203X0.219203X-0.021213X-0.021213X0.219203X-0.219203X0.021213X0*%
%ADD12RoundRect,0.140000X0.140000X0.170000X-0.140000X0.170000X-0.140000X-0.170000X0.140000X-0.170000X0*%
%ADD13RoundRect,0.140000X-0.021213X0.219203X-0.219203X0.021213X0.021213X-0.219203X0.219203X-0.021213X0*%
%ADD14RoundRect,0.150000X0.150000X-0.587500X0.150000X0.587500X-0.150000X0.587500X-0.150000X-0.587500X0*%
%ADD15R,1.000000X0.900000*%
%ADD16RoundRect,0.150000X0.150000X-0.512500X0.150000X0.512500X-0.150000X0.512500X-0.150000X-0.512500X0*%
%ADD17RoundRect,0.150000X-0.150000X0.512500X-0.150000X-0.512500X0.150000X-0.512500X0.150000X0.512500X0*%
%ADD18RoundRect,0.135000X0.135000X0.185000X-0.135000X0.185000X-0.135000X-0.185000X0.135000X-0.185000X0*%
%ADD19RoundRect,0.140000X0.219203X0.021213X0.021213X0.219203X-0.219203X-0.021213X-0.021213X-0.219203X0*%
%ADD20RoundRect,0.147500X-0.147500X-0.172500X0.147500X-0.172500X0.147500X0.172500X-0.147500X0.172500X0*%
%ADD21RoundRect,0.135000X-0.185000X0.135000X-0.185000X-0.135000X0.185000X-0.135000X0.185000X0.135000X0*%
%ADD22RoundRect,0.135000X0.185000X-0.135000X0.185000X0.135000X-0.185000X0.135000X-0.185000X-0.135000X0*%
%ADD23RoundRect,0.112500X-0.112500X0.187500X-0.112500X-0.187500X0.112500X-0.187500X0.112500X0.187500X0*%
%ADD24RoundRect,0.250000X0.275000X-0.275000X0.275000X0.275000X-0.275000X0.275000X-0.275000X-0.275000X0*%
%ADD25RoundRect,0.062500X0.062500X-0.350000X0.062500X0.350000X-0.062500X0.350000X-0.062500X-0.350000X0*%
%ADD26RoundRect,0.062500X0.350000X-0.062500X0.350000X0.062500X-0.350000X0.062500X-0.350000X-0.062500X0*%
%ADD27RoundRect,0.112500X0.187500X0.112500X-0.187500X0.112500X-0.187500X-0.112500X0.187500X-0.112500X0*%
%ADD28RoundRect,0.250000X0.250000X1.500000X-0.250000X1.500000X-0.250000X-1.500000X0.250000X-1.500000X0*%
%ADD29RoundRect,0.250001X0.499999X1.449999X-0.499999X1.449999X-0.499999X-1.449999X0.499999X-1.449999X0*%
%ADD30RoundRect,0.250000X0.650000X-0.350000X0.650000X0.350000X-0.650000X0.350000X-0.650000X-0.350000X0*%
%ADD31RoundRect,0.147500X0.172500X-0.147500X0.172500X0.147500X-0.172500X0.147500X-0.172500X-0.147500X0*%
%ADD32RoundRect,0.147500X-0.172500X0.147500X-0.172500X-0.147500X0.172500X-0.147500X0.172500X0.147500X0*%
%ADD33RoundRect,0.140000X-0.140000X-0.170000X0.140000X-0.170000X0.140000X0.170000X-0.140000X0.170000X0*%
%ADD34RoundRect,0.250000X-0.403051X0.000000X0.000000X-0.403051X0.403051X0.000000X0.000000X0.403051X0*%
%ADD35RoundRect,0.050000X-0.282843X0.212132X0.212132X-0.282843X0.282843X-0.212132X-0.212132X0.282843X0*%
%ADD36RoundRect,0.050000X-0.282843X-0.212132X-0.212132X-0.282843X0.282843X0.212132X0.212132X0.282843X0*%
%ADD37RoundRect,0.150000X-0.150000X-0.425000X0.150000X-0.425000X0.150000X0.425000X-0.150000X0.425000X0*%
%ADD38RoundRect,0.075000X-0.075000X-0.500000X0.075000X-0.500000X0.075000X0.500000X-0.075000X0.500000X0*%
%ADD39O,1.000000X2.100000*%
%ADD40O,1.000000X1.800000*%
%ADD41RoundRect,0.140000X-0.170000X0.140000X-0.170000X-0.140000X0.170000X-0.140000X0.170000X0.140000X0*%
%ADD42RotRect,1.400000X1.200000X135.000000*%
G04 APERTURE END LIST*
D10*
%TO.C,R14*%
X9890000Y15250000D03*
X10910000Y15250000D03*
%TD*%
D11*
%TO.C,C5*%
X12660589Y23410589D03*
X13339411Y24089411D03*
%TD*%
D10*
%TO.C,R4*%
X12740000Y31750000D03*
X13760000Y31750000D03*
%TD*%
D12*
%TO.C,C9*%
X5380000Y45550000D03*
X4420000Y45550000D03*
%TD*%
D13*
%TO.C,C1*%
X5739411Y26489411D03*
X5060589Y25810589D03*
%TD*%
%TO.C,C3*%
X5039411Y27189411D03*
X4360589Y26510589D03*
%TD*%
D14*
%TO.C,Q1*%
X8300000Y36812500D03*
X10200000Y36812500D03*
X9250000Y38687500D03*
%TD*%
D15*
%TO.C,SW1*%
X5200000Y40800000D03*
X5200000Y36700000D03*
X3600000Y40800000D03*
X3600000Y36700000D03*
%TD*%
D16*
%TO.C,U4*%
X11850000Y33225000D03*
X12800000Y33225000D03*
X13750000Y33225000D03*
X13750000Y35500000D03*
X11850000Y35500000D03*
%TD*%
D17*
%TO.C,U3*%
X13750000Y39750000D03*
X12800000Y39750000D03*
X11850000Y39750000D03*
X11850000Y37475000D03*
X13750000Y37475000D03*
%TD*%
D18*
%TO.C,R1*%
X4509999Y35250000D03*
X3490001Y35250000D03*
%TD*%
D19*
%TO.C,C7*%
X8939411Y27210589D03*
X8260589Y27889411D03*
%TD*%
D20*
%TO.C,D6*%
X12415000Y14250000D03*
X13385000Y14250000D03*
%TD*%
D15*
%TO.C,SW2*%
X5200000Y32900000D03*
X5200000Y28800000D03*
X3600000Y32900000D03*
X3600000Y28800000D03*
%TD*%
D21*
%TO.C,R12*%
X13500000Y12960000D03*
X13500000Y11940000D03*
%TD*%
D22*
%TO.C,R11*%
X13500000Y9940000D03*
X13500000Y10960000D03*
%TD*%
D23*
%TO.C,D1*%
X5350000Y10300000D03*
X5350000Y8200000D03*
%TD*%
D18*
%TO.C,R8*%
X12259999Y16250000D03*
X11240001Y16250000D03*
%TD*%
D24*
%TO.C,U5*%
X8350000Y10437500D03*
X9650000Y10437500D03*
X8350000Y11737500D03*
X9650000Y11737500D03*
D25*
X7750000Y9150000D03*
X8250000Y9150000D03*
X8750000Y9150000D03*
X9250000Y9150000D03*
X9750000Y9150000D03*
X10250000Y9150000D03*
D26*
X10937500Y9837500D03*
X10937500Y10337500D03*
X10937500Y10837500D03*
X10937500Y11337500D03*
X10937500Y11837500D03*
X10937500Y12337500D03*
D25*
X10250000Y13025000D03*
X9750000Y13025000D03*
X9250000Y13025000D03*
X8750000Y13025000D03*
X8250000Y13025000D03*
X7750000Y13025000D03*
D26*
X7062500Y12337500D03*
X7062500Y11837500D03*
X7062500Y11337500D03*
X7062500Y10837500D03*
X7062500Y10337500D03*
X7062500Y9837500D03*
%TD*%
D10*
%TO.C,R2*%
X8240000Y35250000D03*
X9260000Y35250000D03*
%TD*%
D27*
%TO.C,D4*%
X10550000Y33750000D03*
X8450000Y33750000D03*
%TD*%
D18*
%TO.C,R5*%
X7760000Y8000000D03*
X6740000Y8000000D03*
%TD*%
D21*
%TO.C,R3*%
X15100000Y36260000D03*
X15100000Y35240000D03*
%TD*%
D22*
%TO.C,R7*%
X3800000Y8090000D03*
X3800000Y9110000D03*
%TD*%
D20*
%TO.C,D5*%
X12415000Y15250000D03*
X13385000Y15250000D03*
%TD*%
D28*
%TO.C,J2*%
X12000000Y43000000D03*
X10000000Y43000000D03*
D29*
X14350000Y48750000D03*
X7650000Y48750000D03*
%TD*%
D30*
%TO.C,AE1*%
X4800000Y47250000D03*
X4800000Y50150000D03*
%TD*%
D31*
%TO.C,L2*%
X5350000Y43515000D03*
X5350000Y44485000D03*
%TD*%
D32*
%TO.C,D2*%
X15100000Y38235000D03*
X15100000Y37265000D03*
%TD*%
D33*
%TO.C,C10*%
X3520000Y34250000D03*
X4480000Y34250000D03*
%TD*%
D21*
%TO.C,R13*%
X12200000Y12060000D03*
X12200000Y11040000D03*
%TD*%
D33*
%TO.C,C17*%
X10500000Y8000000D03*
X11460000Y8000000D03*
%TD*%
D18*
%TO.C,R9*%
X9110000Y14250000D03*
X8090000Y14250000D03*
%TD*%
D21*
%TO.C,R6*%
X15100000Y40260000D03*
X15100000Y39240000D03*
%TD*%
D34*
%TO.C,U1*%
X8250000Y23130904D03*
X7309548Y22190452D03*
X6369096Y21250000D03*
X9190452Y22190452D03*
X8250000Y21250000D03*
X7309548Y20309548D03*
X10130904Y21250000D03*
X9190452Y20309548D03*
X8250000Y19369096D03*
D35*
X7648959Y25527996D03*
X7366117Y25245153D03*
X7083274Y24962311D03*
X6800431Y24679468D03*
X6517588Y24396625D03*
X6234746Y24113782D03*
X5951903Y23830940D03*
X5669060Y23548097D03*
X5386218Y23265254D03*
X5103375Y22982412D03*
X4820532Y22699569D03*
X4537689Y22416726D03*
X4254847Y22133883D03*
X3972004Y21851041D03*
D36*
X3972004Y20648959D03*
X4254847Y20366117D03*
X4537689Y20083274D03*
X4820532Y19800431D03*
X5103375Y19517588D03*
X5386218Y19234746D03*
X5669060Y18951903D03*
X5951903Y18669060D03*
X6234746Y18386218D03*
X6517588Y18103375D03*
X6800431Y17820532D03*
X7083274Y17537689D03*
X7366117Y17254847D03*
X7648959Y16972004D03*
D35*
X8851041Y16972004D03*
X9133883Y17254847D03*
X9416726Y17537689D03*
X9699569Y17820532D03*
X9982412Y18103375D03*
X10265254Y18386218D03*
X10548097Y18669060D03*
X10830940Y18951903D03*
X11113782Y19234746D03*
X11396625Y19517588D03*
X11679468Y19800431D03*
X11962311Y20083274D03*
X12245153Y20366117D03*
X12527996Y20648959D03*
D36*
X12527996Y21851041D03*
X12245153Y22133883D03*
X11962311Y22416726D03*
X11679468Y22699569D03*
X11396625Y22982412D03*
X11113782Y23265254D03*
X10830940Y23548097D03*
X10548097Y23830940D03*
X10265254Y24113782D03*
X9982412Y24396625D03*
X9699569Y24679468D03*
X9416726Y24962311D03*
X9133883Y25245153D03*
X8851041Y25527996D03*
%TD*%
D37*
%TO.C,J1*%
X5800000Y6325000D03*
X6600000Y6325000D03*
D38*
X7750000Y6325000D03*
X8750000Y6325000D03*
X9250000Y6325000D03*
X10250000Y6325000D03*
D37*
X11400000Y6325000D03*
X12200000Y6325000D03*
X12200000Y6325000D03*
X11400000Y6325000D03*
D38*
X10750000Y6325000D03*
X9750000Y6325000D03*
X8250000Y6325000D03*
X7250000Y6325000D03*
D37*
X6600000Y6325000D03*
X5800000Y6325000D03*
D39*
X4680000Y5750000D03*
D40*
X4680000Y1570000D03*
D39*
X13320000Y5750000D03*
D40*
X13320000Y1570000D03*
%TD*%
D13*
%TO.C,C12*%
X14839411Y25839411D03*
X14160589Y25160589D03*
%TD*%
D12*
%TO.C,C14*%
X9460000Y40250000D03*
X8500000Y40250000D03*
%TD*%
D41*
%TO.C,C4*%
X12500000Y8980000D03*
X12500000Y8020000D03*
%TD*%
D13*
%TO.C,C11*%
X10589411Y29589411D03*
X9910589Y28910589D03*
%TD*%
D41*
%TO.C,C13*%
X11750000Y31730000D03*
X11750000Y30770000D03*
%TD*%
D13*
%TO.C,C6*%
X4439411Y18589411D03*
X3760589Y17910589D03*
%TD*%
D12*
%TO.C,C8*%
X5380000Y42450000D03*
X4420000Y42450000D03*
%TD*%
D10*
%TO.C,R15*%
X10390000Y14250000D03*
X11410000Y14250000D03*
%TD*%
D41*
%TO.C,C15*%
X13500000Y8980000D03*
X13500000Y8020000D03*
%TD*%
D42*
%TO.C,Y1*%
X14128858Y27573223D03*
X12573223Y29128858D03*
X11371142Y27926777D03*
X12926777Y26371142D03*
%TD*%
M02*
