%TF.GenerationSoftware,KiCad,Pcbnew,8.0.6*%
%TF.CreationDate,2024-11-24T01:02:09-06:00*%
%TF.ProjectId,ATesp32,41546573-7033-4322-9e6b-696361645f70,rev?*%
%TF.SameCoordinates,PX47868c0PY608f3d0*%
%TF.FileFunction,Copper,L4,Bot*%
%TF.FilePolarity,Positive*%
%FSLAX46Y46*%
G04 Gerber Fmt 4.6, Leading zero omitted, Abs format (unit mm)*
G04 Created by KiCad (PCBNEW 8.0.6) date 2024-11-24 01:02:09*
%MOMM*%
%LPD*%
G01*
G04 APERTURE LIST*
G04 Aperture macros list*
%AMFreePoly0*
4,1,19,0.500000,-0.750000,0.000000,-0.750000,0.000000,-0.744911,-0.071157,-0.744911,-0.207708,-0.704816,-0.327430,-0.627875,-0.420627,-0.520320,-0.479746,-0.390866,-0.500000,-0.250000,-0.500000,0.250000,-0.479746,0.390866,-0.420627,0.520320,-0.327430,0.627875,-0.207708,0.704816,-0.071157,0.744911,0.000000,0.744911,0.000000,0.750000,0.500000,0.750000,0.500000,-0.750000,0.500000,-0.750000,
$1*%
%AMFreePoly1*
4,1,19,0.000000,0.744911,0.071157,0.744911,0.207708,0.704816,0.327430,0.627875,0.420627,0.520320,0.479746,0.390866,0.500000,0.250000,0.500000,-0.250000,0.479746,-0.390866,0.420627,-0.520320,0.327430,-0.627875,0.207708,-0.704816,0.071157,-0.744911,0.000000,-0.744911,0.000000,-0.750000,-0.500000,-0.750000,-0.500000,0.750000,0.000000,0.750000,0.000000,0.744911,0.000000,0.744911,
$1*%
G04 Aperture macros list end*
%TA.AperFunction,EtchedComponent*%
%ADD10C,0.000000*%
%TD*%
%TA.AperFunction,ComponentPad*%
%ADD11R,1.600000X1.600000*%
%TD*%
%TA.AperFunction,ComponentPad*%
%ADD12O,1.600000X1.600000*%
%TD*%
%TA.AperFunction,ComponentPad*%
%ADD13O,1.000000X2.100000*%
%TD*%
%TA.AperFunction,ComponentPad*%
%ADD14O,1.000000X1.800000*%
%TD*%
%TA.AperFunction,SMDPad,CuDef*%
%ADD15FreePoly0,90.000000*%
%TD*%
%TA.AperFunction,SMDPad,CuDef*%
%ADD16FreePoly1,90.000000*%
%TD*%
%TA.AperFunction,SMDPad,CuDef*%
%ADD17FreePoly0,180.000000*%
%TD*%
%TA.AperFunction,SMDPad,CuDef*%
%ADD18FreePoly1,180.000000*%
%TD*%
%TA.AperFunction,ViaPad*%
%ADD19C,0.300000*%
%TD*%
%TA.AperFunction,Conductor*%
%ADD20C,0.150000*%
%TD*%
G04 APERTURE END LIST*
D10*
%TA.AperFunction,EtchedComponent*%
%TO.C,JP7*%
G36*
X4300000Y12000000D02*
G01*
X3700000Y12000000D01*
X3700000Y12500000D01*
X4300000Y12500000D01*
X4300000Y12000000D01*
G37*
%TD.AperFunction*%
%TA.AperFunction,EtchedComponent*%
%TO.C,JP8*%
G36*
X6800000Y13200000D02*
G01*
X6200000Y13200000D01*
X6200000Y13700000D01*
X6800000Y13700000D01*
X6800000Y13200000D01*
G37*
%TD.AperFunction*%
%TD*%
D11*
%TO.P,U2,1,PB0*%
%TO.N,PB0*%
X1380000Y49880000D03*
D12*
%TO.P,U2,2,PB1*%
%TO.N,PB1*%
X1380000Y47340000D03*
%TO.P,U2,3,PB2*%
%TO.N,PB2*%
X1380000Y44800000D03*
%TO.P,U2,4,PB3*%
%TO.N,PB3*%
X1380000Y42260000D03*
%TO.P,U2,5,PB4*%
%TO.N,PB4*%
X1380000Y39720000D03*
%TO.P,U2,6,PB5*%
%TO.N,PB5*%
X1380000Y37180000D03*
%TO.P,U2,7,PB6*%
%TO.N,PB6*%
X1380000Y34640000D03*
%TO.P,U2,8,PB7*%
%TO.N,PB7*%
X1380000Y32100000D03*
%TO.P,U2,9,~{RESET}*%
%TO.N,unconnected-(U2-~{RESET}-Pad9)*%
X1380000Y29560000D03*
%TO.P,U2,10,VCC*%
%TO.N,+5V*%
X1380000Y27020000D03*
%TO.P,U2,11,GND*%
%TO.N,GND*%
X1380000Y24480000D03*
%TO.P,U2,12,XTAL2*%
%TO.N,unconnected-(U2-XTAL2-Pad12)*%
X1380000Y21940000D03*
%TO.P,U2,13,XTAL1*%
%TO.N,unconnected-(U2-XTAL1-Pad13)*%
X1380000Y19400000D03*
%TO.P,U2,14,PD0*%
%TO.N,PD0*%
X1380000Y16860000D03*
%TO.P,U2,15,PD1*%
%TO.N,PD1*%
X1380000Y14320000D03*
%TO.P,U2,16,PD2*%
%TO.N,D_P*%
X1380000Y11780000D03*
%TO.P,U2,17,PD3*%
%TO.N,D_N*%
X1380000Y9240000D03*
%TO.P,U2,18,PD4*%
%TO.N,PD4*%
X1380000Y6700000D03*
%TO.P,U2,19,PD5*%
%TO.N,PD5*%
X1380000Y4160000D03*
%TO.P,U2,20,PD6*%
%TO.N,PD6*%
X1380000Y1620000D03*
%TO.P,U2,21,PD7*%
%TO.N,PD7*%
X16620000Y1620000D03*
%TO.P,U2,22,PC0*%
%TO.N,PC0*%
X16620000Y4160000D03*
%TO.P,U2,23,PC1*%
%TO.N,PC1*%
X16620000Y6700000D03*
%TO.P,U2,24,PC2*%
%TO.N,PC2*%
X16620000Y9240000D03*
%TO.P,U2,25,PC3*%
%TO.N,PC3*%
X16620000Y11780000D03*
%TO.P,U2,26,PC4*%
%TO.N,PC4*%
X16620000Y14320000D03*
%TO.P,U2,27,PC5*%
%TO.N,PC5*%
X16620000Y16860000D03*
%TO.P,U2,28,PC6*%
%TO.N,PC6*%
X16620000Y19400000D03*
%TO.P,U2,29,PC7*%
%TO.N,PC7*%
X16620000Y21940000D03*
%TO.P,U2,30,AVCC*%
%TO.N,+5V*%
X16620000Y24480000D03*
%TO.P,U2,31,GND*%
%TO.N,GND*%
X16620000Y27020000D03*
%TO.P,U2,32,AREF*%
%TO.N,unconnected-(U2-AREF-Pad32)*%
X16620000Y29560000D03*
%TO.P,U2,33,PA7*%
%TO.N,PA7*%
X16620000Y32100000D03*
%TO.P,U2,34,PA6*%
%TO.N,PA6*%
X16620000Y34640000D03*
%TO.P,U2,35,PA5*%
%TO.N,PA5*%
X16620000Y37180000D03*
%TO.P,U2,36,PA4*%
%TO.N,PA4*%
X16620000Y39720000D03*
%TO.P,U2,37,PA3*%
%TO.N,PA3*%
X16620000Y42260000D03*
%TO.P,U2,38,PA2*%
%TO.N,PA2*%
X16620000Y44800000D03*
%TO.P,U2,39,PA1*%
%TO.N,PA1*%
X16620000Y47340000D03*
%TO.P,U2,40,PA0*%
%TO.N,PA0*%
X16620000Y49880000D03*
%TD*%
D13*
%TO.P,J1,S1,SHIELD*%
%TO.N,GND*%
X4680000Y5750000D03*
D14*
X4680000Y1570000D03*
D13*
X13320000Y5750000D03*
D14*
X13320000Y1570000D03*
%TD*%
D15*
%TO.P,JP4,1,A*%
%TO.N,PD4*%
X4000000Y8250000D03*
D16*
%TO.P,JP4,2,B*%
%TO.N,Net-(JP4-B)*%
X4000000Y9550000D03*
%TD*%
D17*
%TO.P,JP6,1,A*%
%TO.N,PD7*%
X14150000Y14450000D03*
D18*
%TO.P,JP6,2,B*%
%TO.N,Net-(JP6-B)*%
X12850000Y14450000D03*
%TD*%
D15*
%TO.P,JP7,1,A*%
%TO.N,Net-(JP7-A)*%
X4000000Y11600000D03*
D16*
%TO.P,JP7,2,B*%
%TO.N,UART_RX*%
X4000000Y12900000D03*
%TD*%
D15*
%TO.P,JP8,1,A*%
%TO.N,Net-(JP8-A)*%
X6500000Y12800000D03*
D16*
%TO.P,JP8,2,B*%
%TO.N,UART_TX*%
X6500000Y14100000D03*
%TD*%
D19*
%TO.N,GND*%
X5000000Y34250000D03*
X4250000Y41750000D03*
X6250000Y45250000D03*
X4500000Y43750000D03*
X9000000Y44250000D03*
X9000000Y45250000D03*
X4000000Y44750000D03*
X4500000Y43250000D03*
X4000000Y43750000D03*
X6000000Y38750000D03*
X12800000Y34050000D03*
X6000000Y40250000D03*
X6250000Y44750000D03*
X9750000Y19250000D03*
X13500000Y41000000D03*
X12800000Y40750000D03*
X7500000Y31500000D03*
X13250000Y30250000D03*
X4000000Y43250000D03*
X14500000Y41500000D03*
X6000000Y33750000D03*
X7500000Y35500000D03*
X6000000Y32000000D03*
X9250000Y18750000D03*
X7500000Y31000000D03*
X6000000Y39750000D03*
X3400000Y17550000D03*
X9000000Y42750000D03*
X12500000Y13400000D03*
X9000000Y43250000D03*
X11250000Y17000000D03*
X7000000Y41950000D03*
X3750000Y42750000D03*
X6000000Y34250000D03*
X6000000Y38250000D03*
X12750000Y30750000D03*
X7500000Y33500000D03*
X7500000Y28500000D03*
X9500000Y45250000D03*
X4500000Y44250000D03*
X8750000Y18250000D03*
X7500000Y40000000D03*
X6600000Y42350000D03*
X6250000Y44250000D03*
X7500000Y36000000D03*
X7500000Y29500000D03*
X6000000Y30500000D03*
X6000000Y34750000D03*
X14500000Y41000000D03*
X4750000Y41750000D03*
X7500000Y39500000D03*
X15100000Y34750000D03*
X7500000Y34000000D03*
X9000000Y41750000D03*
X6000000Y35250000D03*
X7500000Y37000000D03*
X5105000Y9181823D03*
X13500000Y25000000D03*
X10250000Y19750000D03*
X7500000Y37500000D03*
X3750000Y45750000D03*
X6000000Y37750000D03*
X6250000Y45750000D03*
X9000000Y44750000D03*
X13500000Y7250000D03*
X10750000Y20250000D03*
X9000000Y42250000D03*
X6250000Y42750000D03*
X11750000Y30000000D03*
X6000000Y39250000D03*
X13000000Y7250000D03*
X13500000Y41500000D03*
X6740000Y8740000D03*
X8798959Y28451042D03*
X12750000Y24750000D03*
X6000000Y31000000D03*
X11250000Y20750000D03*
X7500000Y29000000D03*
X14000000Y41500000D03*
X7500000Y41500000D03*
X4500000Y44750000D03*
X5250000Y41750000D03*
X7500000Y38500000D03*
X6250000Y43250000D03*
X12000000Y13400000D03*
X3750000Y45250000D03*
X14000000Y24500000D03*
X7500000Y35000000D03*
X11250000Y30000000D03*
X3750000Y42250000D03*
X14000000Y41000000D03*
X8259699Y8508193D03*
X7500000Y41000000D03*
X7500000Y32500000D03*
X6000000Y35750000D03*
X6000000Y40750000D03*
X7500000Y28000000D03*
X7500000Y30000000D03*
X7500000Y27500000D03*
X7500000Y34500000D03*
X4000000Y44250000D03*
X6000000Y31500000D03*
X7500000Y32000000D03*
X7500000Y38000000D03*
X7500000Y36500000D03*
X10000000Y45250000D03*
X6250000Y43750000D03*
X7500000Y33000000D03*
X4000000Y26850000D03*
X7500000Y39000000D03*
X7500000Y40500000D03*
X12250000Y25250000D03*
X7500000Y30500000D03*
X9000000Y43750000D03*
%TO.N,+3V3*%
X4000000Y27600000D03*
X12750000Y36000000D03*
X12750000Y35500000D03*
X5000000Y35250000D03*
X7900000Y26350000D03*
X8300000Y26750000D03*
X12750000Y35000000D03*
X4000000Y19050000D03*
X12275521Y23775521D03*
%TO.N,+5V*%
X9000000Y34250000D03*
X12750000Y37750000D03*
X11500000Y9000000D03*
X9000000Y36250000D03*
X11500000Y9500000D03*
X6000000Y9500000D03*
X6000000Y10500000D03*
X12750000Y9750000D03*
X12000000Y9750000D03*
X4550000Y10550000D03*
X9000000Y36750000D03*
X9000000Y33750000D03*
X5350000Y9800000D03*
X6000000Y10000000D03*
X9000000Y37250000D03*
X12750000Y37000000D03*
X14600000Y37250000D03*
X8500000Y34250000D03*
%TO.N,Net-(U1-CHIP_PU)*%
X4875000Y39575000D03*
X6002164Y25654247D03*
%TO.N,Net-(U5-VDD)*%
X12500000Y12750000D03*
X10800000Y8750000D03*
X11900000Y12750000D03*
X10800000Y9250000D03*
%TO.N,Net-(J1-CC2)*%
X10618644Y5476695D03*
X3225000Y6649479D03*
%TO.N,D+*%
X8750000Y5600000D03*
X9750000Y5600000D03*
%TO.N,Net-(JP4-B)*%
X6916960Y18740509D03*
X4875000Y30062500D03*
X5576046Y25392666D03*
%TO.N,Net-(JP6-B)*%
X12800000Y16250000D03*
%TO.N,PD7*%
X11036315Y24413685D03*
%TO.N,UART_RX*%
X10197783Y22625768D03*
%TO.N,Net-(JP7-A)*%
X6000000Y11350000D03*
%TO.N,UART_TX*%
X7500000Y14250000D03*
%TO.N,Net-(JP8-A)*%
X6500000Y11850000D03*
%TO.N,Net-(U1-U0TXD)*%
X10750000Y22600000D03*
X9100000Y14950000D03*
%TO.N,PA2*%
X3568844Y22218844D03*
%TO.N,PB2*%
X4375000Y25150000D03*
%TO.N,PA5*%
X5379667Y20771374D03*
%TO.N,PA1*%
X3600156Y22717863D03*
%TO.N,PD6*%
X9729961Y23107331D03*
%TO.N,PA4*%
X5026112Y21124930D03*
%TO.N,PB1*%
X4800000Y24879970D03*
%TO.N,PA6*%
X5745769Y20430828D03*
%TO.N,PB6*%
X6100000Y19450000D03*
%TO.N,PA7*%
X6086315Y20064726D03*
%TO.N,PB0*%
X5314464Y24966547D03*
%TO.N,D_N*%
X6275000Y15681833D03*
%TO.N,D_P*%
X5825000Y16150000D03*
%TO.N,PA0*%
X3684530Y23234530D03*
%TO.N,PB3*%
X3950000Y24736827D03*
%TO.N,PA3*%
X4672557Y21478485D03*
%TO.N,PB7*%
X6456528Y19069907D03*
%TD*%
D20*
%TO.N,Net-(U1-CHIP_PU)*%
X6002164Y25654247D02*
X6000000Y25656411D01*
X6000000Y29500000D02*
X5500000Y30000000D01*
X6000000Y25656411D02*
X6000000Y29500000D01*
X5500000Y38950000D02*
X4875000Y39575000D01*
X5500000Y30000000D02*
X5500000Y38950000D01*
%TO.N,Net-(J1-CC2)*%
X4250000Y4250000D02*
X9391949Y4250000D01*
X3225000Y6649479D02*
X3225000Y5275000D01*
X9391949Y4250000D02*
X10618644Y5476695D01*
X3225000Y5275000D02*
X4250000Y4250000D01*
%TO.N,D+*%
X8750000Y5600000D02*
X9750000Y5600000D01*
%TO.N,PD4*%
X1950000Y6700000D02*
X3500000Y8250000D01*
%TO.N,Net-(JP4-B)*%
X6916960Y18740509D02*
X2970000Y14793549D01*
X2970000Y14793549D02*
X2970000Y11271477D01*
X5575000Y29362500D02*
X4875000Y30062500D01*
X5576046Y25392666D02*
X5575000Y25393712D01*
X5575000Y25393712D02*
X5575000Y29362500D01*
X4000000Y10241477D02*
X4000000Y9550000D01*
X2970000Y11271477D02*
X4000000Y10241477D01*
%TO.N,Net-(JP6-B)*%
X12850000Y14450000D02*
X12850000Y16200000D01*
X12850000Y16200000D02*
X12800000Y16250000D01*
%TO.N,PD7*%
X14150000Y21300000D02*
X14150000Y14450000D01*
X11036315Y24413685D02*
X14150000Y21300000D01*
X14095000Y4145000D02*
X14095000Y13855000D01*
X16620000Y1620000D02*
X14095000Y4145000D01*
%TO.N,UART_RX*%
X10197783Y22625768D02*
X10197783Y21420291D01*
X10197783Y21420291D02*
X4000000Y15222508D01*
X4000000Y15222508D02*
X4000000Y12900000D01*
%TO.N,Net-(JP7-A)*%
X6000000Y11350000D02*
X4250000Y11350000D01*
%TO.N,UART_TX*%
X7500000Y14250000D02*
X6650000Y14250000D01*
%TO.N,Net-(JP8-A)*%
X6500000Y12800000D02*
X6500000Y11850000D01*
%TO.N,Net-(U1-U0TXD)*%
X8250000Y15800000D02*
X9100000Y14950000D01*
X8250000Y18550000D02*
X8250000Y15800000D01*
X10750000Y22600000D02*
X10750000Y21050000D01*
X10750000Y21050000D02*
X8250000Y18550000D01*
%TO.N,PA2*%
X3568844Y22218844D02*
X4917942Y22218844D01*
X10400000Y39163173D02*
X16036827Y44800000D01*
X10400000Y27700902D02*
X10400000Y39163173D01*
X4917942Y22218844D02*
X10400000Y27700902D01*
%TO.N,PB2*%
X4375000Y25150000D02*
X4425000Y25200000D01*
X2600000Y43613173D02*
X1413173Y44800000D01*
X4425000Y27776041D02*
X3750000Y28451041D01*
X2600000Y41534975D02*
X2600000Y43613173D01*
X3750000Y28451041D02*
X3750000Y40384975D01*
X4425000Y25200000D02*
X4425000Y27776041D01*
X3750000Y40384975D02*
X2600000Y41534975D01*
%TO.N,PA5*%
X5379667Y20771374D02*
X14175000Y29566707D01*
X14175000Y34735000D02*
X16620000Y37180000D01*
X14175000Y29566707D02*
X14175000Y34735000D01*
%TO.N,PA1*%
X10050000Y27845876D02*
X10050000Y40770000D01*
X10050000Y40770000D02*
X16620000Y47340000D01*
X3600156Y22717863D02*
X4921987Y22717863D01*
X4921987Y22717863D02*
X10050000Y27845876D01*
%TO.N,PD6*%
X10843710Y23107331D02*
X11675000Y22276041D01*
X3414909Y7464909D02*
X2800000Y6850000D01*
X4728893Y7464909D02*
X3414909Y7464909D01*
X9729961Y23107331D02*
X10843710Y23107331D01*
X2800000Y6850000D02*
X2800000Y3040000D01*
X11675000Y14416477D02*
X7099903Y9841380D01*
X7105364Y9841380D02*
X4728893Y7464909D01*
X2800000Y3040000D02*
X1380000Y1620000D01*
X7099903Y9841380D02*
X7105364Y9841380D01*
X11675000Y22276041D02*
X11675000Y14416477D01*
%TO.N,PA4*%
X16468959Y39720000D02*
X13825000Y37076041D01*
X13825000Y29923818D02*
X5026112Y21124930D01*
X13825000Y37076041D02*
X13825000Y29923818D01*
%TO.N,PB1*%
X4100000Y28596015D02*
X4100000Y40529950D01*
X2950000Y45770000D02*
X1380000Y47340000D01*
X4100000Y40529950D02*
X2950000Y41679950D01*
X2950000Y41679950D02*
X2950000Y45770000D01*
X4800000Y27896015D02*
X4100000Y28596015D01*
X4800000Y24879970D02*
X4800000Y27896015D01*
%TO.N,PA6*%
X14525000Y29210059D02*
X14525000Y32545000D01*
X5745769Y20430828D02*
X14525000Y29210059D01*
X14525000Y32545000D02*
X16620000Y34640000D01*
%TO.N,PB6*%
X6100000Y19450000D02*
X5697487Y19450000D01*
X3050000Y32970000D02*
X1380000Y34640000D01*
X3050000Y22097487D02*
X3050000Y32970000D01*
X5697487Y19450000D02*
X3050000Y22097487D01*
%TO.N,PA7*%
X14875000Y28853411D02*
X14875000Y30355000D01*
X6086315Y20064726D02*
X14875000Y28853411D01*
X14875000Y30355000D02*
X16620000Y32100000D01*
%TO.N,PB0*%
X3300000Y41824925D02*
X3300000Y47960000D01*
X5314464Y24966547D02*
X5150000Y25131011D01*
X5150000Y28040990D02*
X4450000Y28740990D01*
X4450000Y40674925D02*
X3300000Y41824925D01*
X3300000Y47960000D02*
X1380000Y49880000D01*
X4450000Y28740990D02*
X4450000Y40674925D01*
X5150000Y25131011D02*
X5150000Y28040990D01*
%TO.N,PA0*%
X4183489Y23234530D02*
X3684530Y23234530D01*
X9700000Y42960000D02*
X9700000Y28751041D01*
X9700000Y28751041D02*
X4183489Y23234530D01*
X16620000Y49880000D02*
X9700000Y42960000D01*
%TO.N,PB3*%
X3950000Y24736827D02*
X3400000Y25286827D01*
X3400000Y25286827D02*
X3400000Y40240000D01*
X3400000Y40240000D02*
X1380000Y42260000D01*
%TO.N,PA3*%
X10750000Y27555928D02*
X10750000Y36390000D01*
X4672557Y21478485D02*
X10750000Y27555928D01*
X10750000Y36390000D02*
X16620000Y42260000D01*
%TO.N,PB7*%
X5702513Y18950000D02*
X6336621Y18950000D01*
X2700000Y30780000D02*
X2700000Y21952513D01*
X6336621Y18950000D02*
X6456528Y19069907D01*
X2700000Y21952513D02*
X5702513Y18950000D01*
X1380000Y32100000D02*
X2700000Y30780000D01*
%TD*%
%TA.AperFunction,Conductor*%
%TO.N,Net-(U5-VDD)*%
G36*
X12743039Y12930315D02*
G01*
X12788794Y12877511D01*
X12800000Y12826000D01*
X12800000Y10218695D01*
X12780315Y10151656D01*
X12727511Y10105901D01*
X12695399Y10096222D01*
X12640341Y10087502D01*
X12541414Y10037096D01*
X12541407Y10037091D01*
X12462681Y9958364D01*
X12401358Y9924879D01*
X12331666Y9929863D01*
X12287319Y9958364D01*
X12208592Y10037091D01*
X12208588Y10037094D01*
X12208587Y10037095D01*
X12204743Y10039054D01*
X12109658Y10087502D01*
X12000002Y10104869D01*
X11999998Y10104869D01*
X11890341Y10087502D01*
X11791414Y10037096D01*
X11791407Y10037091D01*
X11712909Y9958593D01*
X11712904Y9958586D01*
X11689005Y9911682D01*
X11641030Y9860886D01*
X11573209Y9844092D01*
X11559123Y9845505D01*
X11500002Y9854869D01*
X11499998Y9854869D01*
X11390341Y9837502D01*
X11291414Y9787096D01*
X11291407Y9787091D01*
X11212909Y9708593D01*
X11212904Y9708586D01*
X11162498Y9609659D01*
X11145131Y9500003D01*
X11145131Y9499998D01*
X11162498Y9390342D01*
X11205323Y9306294D01*
X11218219Y9237625D01*
X11205323Y9193706D01*
X11162498Y9109659D01*
X11145131Y9000003D01*
X11145131Y8999998D01*
X11162498Y8890342D01*
X11212904Y8791415D01*
X11212909Y8791408D01*
X11242636Y8761681D01*
X11276121Y8700358D01*
X11271137Y8630666D01*
X11229265Y8574733D01*
X11163801Y8550316D01*
X11154955Y8550000D01*
X10624000Y8550000D01*
X10556961Y8569685D01*
X10511206Y8622489D01*
X10500000Y8674000D01*
X10500000Y12800499D01*
X10519685Y12867538D01*
X10536317Y12888179D01*
X10561822Y12913683D01*
X10623146Y12947167D01*
X10649502Y12950000D01*
X12676000Y12950000D01*
X12743039Y12930315D01*
G37*
%TD.AperFunction*%
%TD*%
M02*
