%TF.GenerationSoftware,KiCad,Pcbnew,8.0.6*%
%TF.CreationDate,2024-11-16T14:05:28-06:00*%
%TF.ProjectId,ATesp32,41546573-7033-4322-9e6b-696361645f70,rev?*%
%TF.SameCoordinates,PX47868c0PY2faf080*%
%TF.FileFunction,Legend,Top*%
%TF.FilePolarity,Positive*%
%FSLAX46Y46*%
G04 Gerber Fmt 4.6, Leading zero omitted, Abs format (unit mm)*
G04 Created by KiCad (PCBNEW 8.0.6) date 2024-11-16 14:05:28*
%MOMM*%
%LPD*%
G01*
G04 APERTURE LIST*
%ADD10C,0.100000*%
%ADD11C,0.150000*%
%ADD12C,0.120000*%
G04 APERTURE END LIST*
D10*
X13053884Y-8741466D02*
X13815789Y-8741466D01*
X13434836Y-9122419D02*
X13434836Y-8360514D01*
X8303884Y-8741466D02*
X9065789Y-8741466D01*
D11*
X7254819Y-13952381D02*
X6778628Y-14285714D01*
X7254819Y-14523809D02*
X6254819Y-14523809D01*
X6254819Y-14523809D02*
X6254819Y-14142857D01*
X6254819Y-14142857D02*
X6302438Y-14047619D01*
X6302438Y-14047619D02*
X6350057Y-14000000D01*
X6350057Y-14000000D02*
X6445295Y-13952381D01*
X6445295Y-13952381D02*
X6588152Y-13952381D01*
X6588152Y-13952381D02*
X6683390Y-14000000D01*
X6683390Y-14000000D02*
X6731009Y-14047619D01*
X6731009Y-14047619D02*
X6778628Y-14142857D01*
X6778628Y-14142857D02*
X6778628Y-14523809D01*
X6731009Y-13523809D02*
X6731009Y-13190476D01*
X7254819Y-13047619D02*
X7254819Y-13523809D01*
X7254819Y-13523809D02*
X6254819Y-13523809D01*
X6254819Y-13523809D02*
X6254819Y-13047619D01*
X7207200Y-12666666D02*
X7254819Y-12523809D01*
X7254819Y-12523809D02*
X7254819Y-12285714D01*
X7254819Y-12285714D02*
X7207200Y-12190476D01*
X7207200Y-12190476D02*
X7159580Y-12142857D01*
X7159580Y-12142857D02*
X7064342Y-12095238D01*
X7064342Y-12095238D02*
X6969104Y-12095238D01*
X6969104Y-12095238D02*
X6873866Y-12142857D01*
X6873866Y-12142857D02*
X6826247Y-12190476D01*
X6826247Y-12190476D02*
X6778628Y-12285714D01*
X6778628Y-12285714D02*
X6731009Y-12476190D01*
X6731009Y-12476190D02*
X6683390Y-12571428D01*
X6683390Y-12571428D02*
X6635771Y-12619047D01*
X6635771Y-12619047D02*
X6540533Y-12666666D01*
X6540533Y-12666666D02*
X6445295Y-12666666D01*
X6445295Y-12666666D02*
X6350057Y-12619047D01*
X6350057Y-12619047D02*
X6302438Y-12571428D01*
X6302438Y-12571428D02*
X6254819Y-12476190D01*
X6254819Y-12476190D02*
X6254819Y-12238095D01*
X6254819Y-12238095D02*
X6302438Y-12095238D01*
X6731009Y-11666666D02*
X6731009Y-11333333D01*
X7254819Y-11190476D02*
X7254819Y-11666666D01*
X7254819Y-11666666D02*
X6254819Y-11666666D01*
X6254819Y-11666666D02*
X6254819Y-11190476D01*
X6254819Y-10904761D02*
X6254819Y-10333333D01*
X7254819Y-10619047D02*
X6254819Y-10619047D01*
X6731009Y-21757142D02*
X6778628Y-21614285D01*
X6778628Y-21614285D02*
X6826247Y-21566666D01*
X6826247Y-21566666D02*
X6921485Y-21519047D01*
X6921485Y-21519047D02*
X7064342Y-21519047D01*
X7064342Y-21519047D02*
X7159580Y-21566666D01*
X7159580Y-21566666D02*
X7207200Y-21614285D01*
X7207200Y-21614285D02*
X7254819Y-21709523D01*
X7254819Y-21709523D02*
X7254819Y-22090475D01*
X7254819Y-22090475D02*
X6254819Y-22090475D01*
X6254819Y-22090475D02*
X6254819Y-21757142D01*
X6254819Y-21757142D02*
X6302438Y-21661904D01*
X6302438Y-21661904D02*
X6350057Y-21614285D01*
X6350057Y-21614285D02*
X6445295Y-21566666D01*
X6445295Y-21566666D02*
X6540533Y-21566666D01*
X6540533Y-21566666D02*
X6635771Y-21614285D01*
X6635771Y-21614285D02*
X6683390Y-21661904D01*
X6683390Y-21661904D02*
X6731009Y-21757142D01*
X6731009Y-21757142D02*
X6731009Y-22090475D01*
X6254819Y-20899999D02*
X6254819Y-20709523D01*
X6254819Y-20709523D02*
X6302438Y-20614285D01*
X6302438Y-20614285D02*
X6397676Y-20519047D01*
X6397676Y-20519047D02*
X6588152Y-20471428D01*
X6588152Y-20471428D02*
X6921485Y-20471428D01*
X6921485Y-20471428D02*
X7111961Y-20519047D01*
X7111961Y-20519047D02*
X7207200Y-20614285D01*
X7207200Y-20614285D02*
X7254819Y-20709523D01*
X7254819Y-20709523D02*
X7254819Y-20899999D01*
X7254819Y-20899999D02*
X7207200Y-20995237D01*
X7207200Y-20995237D02*
X7111961Y-21090475D01*
X7111961Y-21090475D02*
X6921485Y-21138094D01*
X6921485Y-21138094D02*
X6588152Y-21138094D01*
X6588152Y-21138094D02*
X6397676Y-21090475D01*
X6397676Y-21090475D02*
X6302438Y-20995237D01*
X6302438Y-20995237D02*
X6254819Y-20899999D01*
X6254819Y-19852380D02*
X6254819Y-19661904D01*
X6254819Y-19661904D02*
X6302438Y-19566666D01*
X6302438Y-19566666D02*
X6397676Y-19471428D01*
X6397676Y-19471428D02*
X6588152Y-19423809D01*
X6588152Y-19423809D02*
X6921485Y-19423809D01*
X6921485Y-19423809D02*
X7111961Y-19471428D01*
X7111961Y-19471428D02*
X7207200Y-19566666D01*
X7207200Y-19566666D02*
X7254819Y-19661904D01*
X7254819Y-19661904D02*
X7254819Y-19852380D01*
X7254819Y-19852380D02*
X7207200Y-19947618D01*
X7207200Y-19947618D02*
X7111961Y-20042856D01*
X7111961Y-20042856D02*
X6921485Y-20090475D01*
X6921485Y-20090475D02*
X6588152Y-20090475D01*
X6588152Y-20090475D02*
X6397676Y-20042856D01*
X6397676Y-20042856D02*
X6302438Y-19947618D01*
X6302438Y-19947618D02*
X6254819Y-19852380D01*
X6254819Y-19138094D02*
X6254819Y-18566666D01*
X7254819Y-18852380D02*
X6254819Y-18852380D01*
D12*
%TO.C,R14*%
X10246359Y-35620000D02*
X10553641Y-35620000D01*
X10246359Y-36380000D02*
X10553641Y-36380000D01*
%TO.C,C5*%
X12669190Y-27321693D02*
X12821693Y-27169190D01*
X13178307Y-27830810D02*
X13330810Y-27678307D01*
%TO.C,R4*%
X13096359Y-19120000D02*
X13403641Y-19120000D01*
X13096359Y-19880000D02*
X13403641Y-19880000D01*
%TO.C,C9*%
X5007836Y-5340000D02*
X4792164Y-5340000D01*
X5007836Y-6060000D02*
X4792164Y-6060000D01*
%TO.C,C1*%
X5221693Y-24769190D02*
X5069190Y-24921693D01*
X5730810Y-25278307D02*
X5578307Y-25430810D01*
%TO.C,C3*%
X4521693Y-24069190D02*
X4369190Y-24221693D01*
X5030810Y-24578307D02*
X4878307Y-24730810D01*
%TO.C,Q1*%
X7690000Y-13500000D02*
X7690000Y-12850000D01*
X7690000Y-13500000D02*
X7690000Y-14150000D01*
X10810000Y-13500000D02*
X10810000Y-12850000D01*
X10810000Y-13500000D02*
X10810000Y-14150000D01*
X7740000Y-14662500D02*
X7410000Y-14902500D01*
X7410000Y-14422500D01*
X7740000Y-14662500D01*
G36*
X7740000Y-14662500D02*
G01*
X7410000Y-14902500D01*
X7410000Y-14422500D01*
X7740000Y-14662500D01*
G37*
%TO.C,SW1*%
X2850000Y-10300000D02*
X2850000Y-14700000D01*
X4350000Y-10300000D02*
X4450000Y-10300000D01*
X4350000Y-14700000D02*
X4450000Y-14700000D01*
X5950000Y-14700000D02*
X5950000Y-10300000D01*
%TO.C,U4*%
X11240000Y-16887500D02*
X11240000Y-16087500D01*
X11240000Y-16887500D02*
X11240000Y-17687500D01*
X14360000Y-16887500D02*
X14360000Y-16087500D01*
X14360000Y-16887500D02*
X14360000Y-17687500D01*
X11290000Y-18187500D02*
X10960000Y-18427500D01*
X10960000Y-17947500D01*
X11290000Y-18187500D01*
G36*
X11290000Y-18187500D02*
G01*
X10960000Y-18427500D01*
X10960000Y-17947500D01*
X11290000Y-18187500D01*
G37*
%TO.C,U3*%
X11240000Y-12637500D02*
X11240000Y-11837500D01*
X11240000Y-12637500D02*
X11240000Y-13437500D01*
X14360000Y-12637500D02*
X14360000Y-11837500D01*
X14360000Y-12637500D02*
X14360000Y-13437500D01*
X14640000Y-11577500D02*
X14310000Y-11337500D01*
X14640000Y-11097500D01*
X14640000Y-11577500D01*
G36*
X14640000Y-11577500D02*
G01*
X14310000Y-11337500D01*
X14640000Y-11097500D01*
X14640000Y-11577500D01*
G37*
%TO.C,R1*%
X4153641Y-15620000D02*
X3846359Y-15620000D01*
X4153641Y-16380000D02*
X3846359Y-16380000D01*
%TO.C,C7*%
X8421693Y-24030810D02*
X8269190Y-23878307D01*
X8930810Y-23521693D02*
X8778307Y-23369190D01*
D10*
%TO.C,D6*%
X11860000Y-37000000D02*
G75*
G02*
X11760000Y-37000000I-50000J0D01*
G01*
X11760000Y-37000000D02*
G75*
G02*
X11860000Y-37000000I50000J0D01*
G01*
D12*
%TO.C,SW2*%
X2850000Y-18200000D02*
X2850000Y-22600000D01*
X4350000Y-18200000D02*
X4450000Y-18200000D01*
X4350000Y-22600000D02*
X4450000Y-22600000D01*
X5950000Y-22600000D02*
X5950000Y-18200000D01*
%TO.C,R12*%
X13120000Y-38646359D02*
X13120000Y-38953641D01*
X13880000Y-38646359D02*
X13880000Y-38953641D01*
%TO.C,R11*%
X13120000Y-40953641D02*
X13120000Y-40646359D01*
X13880000Y-40953641D02*
X13880000Y-40646359D01*
%TO.C,D1*%
X4500000Y-40390000D02*
X4500000Y-43050000D01*
X6200000Y-40390000D02*
X4500000Y-40390000D01*
X6200000Y-40390000D02*
X6200000Y-43050000D01*
%TO.C,R8*%
X11903641Y-34620000D02*
X11596359Y-34620000D01*
X11903641Y-35380000D02*
X11596359Y-35380000D01*
%TO.C,U5*%
X6890000Y-38052500D02*
X7365000Y-38052500D01*
X6890000Y-38527500D02*
X6890000Y-38052500D01*
X6890000Y-41797500D02*
X6890000Y-41972500D01*
X7365000Y-42272500D02*
X7130000Y-42272500D01*
X11110000Y-38052500D02*
X10635000Y-38052500D01*
X11110000Y-38527500D02*
X11110000Y-38052500D01*
X11110000Y-41797500D02*
X11110000Y-42272500D01*
X11110000Y-42272500D02*
X10635000Y-42272500D01*
X6890000Y-42272500D02*
X6560000Y-42512500D01*
X6560000Y-42032500D01*
X6890000Y-42272500D01*
G36*
X6890000Y-42272500D02*
G01*
X6560000Y-42512500D01*
X6560000Y-42032500D01*
X6890000Y-42272500D01*
G37*
%TO.C,R2*%
X8596359Y-15620000D02*
X8903641Y-15620000D01*
X8596359Y-16380000D02*
X8903641Y-16380000D01*
%TO.C,D4*%
X11110000Y-16650000D02*
X8450000Y-16650000D01*
X11110000Y-18350000D02*
X8450000Y-18350000D01*
X11110000Y-18350000D02*
X11110000Y-16650000D01*
%TO.C,R5*%
X7403641Y-42870000D02*
X7096359Y-42870000D01*
X7403641Y-43630000D02*
X7096359Y-43630000D01*
%TO.C,R3*%
X14720000Y-15346359D02*
X14720000Y-15653641D01*
X15480000Y-15346359D02*
X15480000Y-15653641D01*
%TO.C,R7*%
X3420000Y-42803641D02*
X3420000Y-42496359D01*
X4180000Y-42803641D02*
X4180000Y-42496359D01*
D10*
%TO.C,D5*%
X11860000Y-36000000D02*
G75*
G02*
X11760000Y-36000000I-50000J0D01*
G01*
X11760000Y-36000000D02*
G75*
G02*
X11860000Y-36000000I50000J0D01*
G01*
D12*
%TO.C,J2*%
X6940000Y-4460000D02*
X6940000Y-8710000D01*
X6940000Y-8710000D02*
X7960000Y-8710000D01*
X7960000Y-7110000D02*
X9240000Y-7110000D01*
X7960000Y-8710000D02*
X7960000Y-7110000D01*
X12760000Y-7110000D02*
X12760000Y-10000000D01*
X13340000Y-890000D02*
X8660000Y-890000D01*
X14040000Y-7110000D02*
X12760000Y-7110000D01*
X14040000Y-8710000D02*
X14040000Y-7110000D01*
X15060000Y-4460000D02*
X15060000Y-8710000D01*
X15060000Y-8710000D02*
X14040000Y-8710000D01*
%TO.C,AE1*%
X3640000Y-950000D02*
X3640000Y-4860000D01*
X3640000Y-4860000D02*
X5960000Y-4860000D01*
X5960000Y-4860000D02*
X5960000Y-950000D01*
D10*
%TO.C,D2*%
X15150000Y-12410000D02*
G75*
G02*
X15050000Y-12410000I-50000J0D01*
G01*
X15050000Y-12410000D02*
G75*
G02*
X15150000Y-12410000I50000J0D01*
G01*
D12*
%TO.C,C10*%
X3892164Y-16640000D02*
X4107836Y-16640000D01*
X3892164Y-17360000D02*
X4107836Y-17360000D01*
%TO.C,R13*%
X11820000Y-39546359D02*
X11820000Y-39853641D01*
X12580000Y-39546359D02*
X12580000Y-39853641D01*
%TO.C,C17*%
X10872164Y-42890000D02*
X11087836Y-42890000D01*
X10872164Y-43610000D02*
X11087836Y-43610000D01*
%TO.C,R9*%
X8753641Y-36620000D02*
X8446359Y-36620000D01*
X8753641Y-37380000D02*
X8446359Y-37380000D01*
%TO.C,R6*%
X14720000Y-11346359D02*
X14720000Y-11653641D01*
X15480000Y-11346359D02*
X15480000Y-11653641D01*
%TO.C,U1*%
X3144689Y-30000000D02*
X3604308Y-29540381D01*
X3604308Y-30459619D02*
X3144689Y-30000000D01*
X7790381Y-25354308D02*
X8080294Y-25064395D01*
X7790381Y-34645692D02*
X8250000Y-35105311D01*
X8250000Y-35105311D02*
X8709619Y-34645692D01*
X8709619Y-25354308D02*
X8462132Y-25106821D01*
X12895692Y-29540381D02*
X13355311Y-30000000D01*
X13355311Y-30000000D02*
X12895692Y-30459619D01*
X8653051Y-24831049D02*
X8250000Y-24894689D01*
X8313640Y-24491638D01*
X8653051Y-24831049D01*
G36*
X8653051Y-24831049D02*
G01*
X8250000Y-24894689D01*
X8313640Y-24491638D01*
X8653051Y-24831049D01*
G37*
%TO.C,J1*%
X4420000Y-46755000D02*
X4420000Y-48675000D01*
X4420000Y-52390000D02*
X4420000Y-50685000D01*
X13580000Y-48675000D02*
X13580000Y-46755000D01*
X13580000Y-50685000D02*
X13580000Y-52390000D01*
X13580000Y-52390000D02*
X4420000Y-52390000D01*
%TO.C,C12*%
X14321693Y-25419190D02*
X14169190Y-25571693D01*
X14830810Y-25928307D02*
X14678307Y-26080810D01*
%TO.C,C14*%
X9087836Y-10640000D02*
X8872164Y-10640000D01*
X9087836Y-11360000D02*
X8872164Y-11360000D01*
%TO.C,C4*%
X12140000Y-42642164D02*
X12140000Y-42857836D01*
X12860000Y-42642164D02*
X12860000Y-42857836D01*
%TO.C,C11*%
X10071693Y-21669190D02*
X9919190Y-21821693D01*
X10580810Y-22178307D02*
X10428307Y-22330810D01*
%TO.C,C13*%
X11390000Y-19892164D02*
X11390000Y-20107836D01*
X12110000Y-19892164D02*
X12110000Y-20107836D01*
%TO.C,C6*%
X3921693Y-32669190D02*
X3769190Y-32821693D01*
X4430810Y-33178307D02*
X4278307Y-33330810D01*
%TO.C,C8*%
X5007836Y-8440000D02*
X4792164Y-8440000D01*
X5007836Y-9160000D02*
X4792164Y-9160000D01*
%TO.C,R15*%
X10746359Y-36620000D02*
X11053641Y-36620000D01*
X10746359Y-37380000D02*
X11053641Y-37380000D01*
%TO.C,C15*%
X13140000Y-42642164D02*
X13140000Y-42857836D01*
X13860000Y-42642164D02*
X13860000Y-42857836D01*
%TO.C,Y1*%
X12997487Y-26080940D02*
X15330940Y-23747487D01*
X15330940Y-23747487D02*
X12502513Y-20919060D01*
%TD*%
M02*
