%TF.GenerationSoftware,KiCad,Pcbnew,8.0.6*%
%TF.CreationDate,2024-11-24T01:02:09-06:00*%
%TF.ProjectId,ATesp32,41546573-7033-4322-9e6b-696361645f70,rev?*%
%TF.SameCoordinates,PX47868c0PY608f3d0*%
%TF.FileFunction,Soldermask,Bot*%
%TF.FilePolarity,Negative*%
%FSLAX46Y46*%
G04 Gerber Fmt 4.6, Leading zero omitted, Abs format (unit mm)*
G04 Created by KiCad (PCBNEW 8.0.6) date 2024-11-24 01:02:09*
%MOMM*%
%LPD*%
G01*
G04 APERTURE LIST*
G04 Aperture macros list*
%AMFreePoly0*
4,1,19,0.500000,-0.750000,0.000000,-0.750000,0.000000,-0.744911,-0.071157,-0.744911,-0.207708,-0.704816,-0.327430,-0.627875,-0.420627,-0.520320,-0.479746,-0.390866,-0.500000,-0.250000,-0.500000,0.250000,-0.479746,0.390866,-0.420627,0.520320,-0.327430,0.627875,-0.207708,0.704816,-0.071157,0.744911,0.000000,0.744911,0.000000,0.750000,0.500000,0.750000,0.500000,-0.750000,0.500000,-0.750000,
$1*%
%AMFreePoly1*
4,1,19,0.000000,0.744911,0.071157,0.744911,0.207708,0.704816,0.327430,0.627875,0.420627,0.520320,0.479746,0.390866,0.500000,0.250000,0.500000,-0.250000,0.479746,-0.390866,0.420627,-0.520320,0.327430,-0.627875,0.207708,-0.704816,0.071157,-0.744911,0.000000,-0.744911,0.000000,-0.750000,-0.500000,-0.750000,-0.500000,0.750000,0.000000,0.750000,0.000000,0.744911,0.000000,0.744911,
$1*%
G04 Aperture macros list end*
%ADD10R,1.600000X1.600000*%
%ADD11O,1.600000X1.600000*%
%ADD12C,0.650000*%
%ADD13O,1.000000X2.100000*%
%ADD14O,1.000000X1.800000*%
%ADD15FreePoly0,90.000000*%
%ADD16FreePoly1,90.000000*%
%ADD17FreePoly0,180.000000*%
%ADD18FreePoly1,180.000000*%
G04 APERTURE END LIST*
D10*
%TO.C,U2*%
X1380000Y49880000D03*
D11*
X1380000Y47340000D03*
X1380000Y44800000D03*
X1380000Y42260000D03*
X1380000Y39720000D03*
X1380000Y37180000D03*
X1380000Y34640000D03*
X1380000Y32100000D03*
X1380000Y29560000D03*
X1380000Y27020000D03*
X1380000Y24480000D03*
X1380000Y21940000D03*
X1380000Y19400000D03*
X1380000Y16860000D03*
X1380000Y14320000D03*
X1380000Y11780000D03*
X1380000Y9240000D03*
X1380000Y6700000D03*
X1380000Y4160000D03*
X1380000Y1620000D03*
X16620000Y1620000D03*
X16620000Y4160000D03*
X16620000Y6700000D03*
X16620000Y9240000D03*
X16620000Y11780000D03*
X16620000Y14320000D03*
X16620000Y16860000D03*
X16620000Y19400000D03*
X16620000Y21940000D03*
X16620000Y24480000D03*
X16620000Y27020000D03*
X16620000Y29560000D03*
X16620000Y32100000D03*
X16620000Y34640000D03*
X16620000Y37180000D03*
X16620000Y39720000D03*
X16620000Y42260000D03*
X16620000Y44800000D03*
X16620000Y47340000D03*
X16620000Y49880000D03*
%TD*%
D12*
%TO.C,J1*%
X6110000Y5250000D03*
X11890000Y5250000D03*
D13*
X4680000Y5750000D03*
D14*
X4680000Y1570000D03*
D13*
X13320000Y5750000D03*
D14*
X13320000Y1570000D03*
%TD*%
D15*
%TO.C,JP4*%
X4000000Y8250000D03*
D16*
X4000000Y9550000D03*
%TD*%
D17*
%TO.C,JP6*%
X14150000Y14450000D03*
D18*
X12850000Y14450000D03*
%TD*%
D15*
%TO.C,JP7*%
X4000000Y11600000D03*
D16*
X4000000Y12900000D03*
%TD*%
D15*
%TO.C,JP8*%
X6500000Y12800000D03*
D16*
X6500000Y14100000D03*
%TD*%
M02*
