M48
; DRILL file {KiCad 8.0.6} date 2024-11-16T14:05:37-0600
; FORMAT={-:-/ absolute / metric / decimal}
; #@! TF.CreationDate,2024-11-16T14:05:37-06:00
; #@! TF.GenerationSoftware,Kicad,Pcbnew,8.0.6
; #@! TF.FileFunction,Plated,1,4,PTH
FMAT,2
METRIC
; #@! TA.AperFunction,Plated,PTH,ViaDrill
T1C0.200
; #@! TA.AperFunction,Plated,PTH,ComponentDrill
T2C0.600
; #@! TA.AperFunction,Plated,PTH,ComponentDrill
T3C0.800
%
G90
G05
T1
X3.225Y-44.601
X3.4Y-33.7
X3.569Y-29.031
X3.6Y-28.532
X3.685Y-28.015
X3.75Y-5.5
X3.75Y-6.0
X3.75Y-8.5
X3.75Y-9.0
X3.95Y-26.513
X4.0Y-6.5
X4.0Y-7.0
X4.0Y-7.5
X4.0Y-8.0
X4.0Y-23.65
X4.0Y-24.4
X4.0Y-32.2
X4.25Y-9.5
X4.375Y-26.1
X4.5Y-6.5
X4.5Y-7.0
X4.5Y-7.5
X4.5Y-8.0
X4.55Y-40.7
X4.673Y-29.772
X4.75Y-9.5
X4.8Y-26.37
X4.875Y-11.675
X4.875Y-21.188
X5.0Y-16.0
X5.0Y-17.0
X5.026Y-30.125
X5.105Y-42.068
X5.25Y-9.5
X5.314Y-26.283
X5.35Y-41.45
X5.38Y-30.479
X5.576Y-25.857
X5.746Y-30.819
X5.825Y-35.1
X6.0Y-10.5
X6.0Y-11.0
X6.0Y-11.5
X6.0Y-12.0
X6.0Y-12.5
X6.0Y-13.0
X6.0Y-13.5
X6.0Y-15.5
X6.0Y-16.0
X6.0Y-16.5
X6.0Y-17.0
X6.0Y-17.5
X6.0Y-19.25
X6.0Y-19.75
X6.0Y-20.25
X6.0Y-20.75
X6.0Y-39.9
X6.0Y-40.75
X6.0Y-41.25
X6.0Y-41.75
X6.002Y-25.596
X6.086Y-31.185
X6.1Y-31.8
X6.25Y-5.5
X6.25Y-6.0
X6.25Y-6.5
X6.25Y-7.0
X6.25Y-7.5
X6.25Y-8.0
X6.25Y-8.5
X6.275Y-35.568
X6.457Y-32.18
X6.5Y-39.4
X6.6Y-8.9
X6.74Y-42.51
X6.917Y-32.509
X7.0Y-9.3
X7.5Y-9.75
X7.5Y-10.25
X7.5Y-10.75
X7.5Y-11.25
X7.5Y-11.75
X7.5Y-12.25
X7.5Y-12.75
X7.5Y-13.25
X7.5Y-13.75
X7.5Y-14.25
X7.5Y-14.75
X7.5Y-15.25
X7.5Y-15.75
X7.5Y-16.25
X7.5Y-16.75
X7.5Y-17.25
X7.5Y-17.75
X7.5Y-18.25
X7.5Y-18.75
X7.5Y-19.25
X7.5Y-19.75
X7.5Y-20.25
X7.5Y-20.75
X7.5Y-21.25
X7.5Y-21.75
X7.5Y-22.25
X7.5Y-22.75
X7.5Y-23.25
X7.5Y-23.75
X7.5Y-37.0
X7.9Y-24.9
X8.26Y-42.742
X8.3Y-24.5
X8.5Y-17.0
X8.75Y-33.0
X8.75Y-45.65
X8.799Y-22.799
X9.0Y-6.0
X9.0Y-6.5
X9.0Y-7.0
X9.0Y-7.5
X9.0Y-8.0
X9.0Y-8.5
X9.0Y-9.0
X9.0Y-9.5
X9.0Y-14.0
X9.0Y-14.5
X9.0Y-15.0
X9.0Y-17.0
X9.0Y-17.5
X9.1Y-36.3
X9.25Y-32.5
X9.5Y-6.0
X9.73Y-28.143
X9.75Y-32.0
X9.75Y-45.65
X10.0Y-6.0
X10.198Y-28.624
X10.25Y-31.5
X10.619Y-45.773
X10.75Y-28.65
X10.75Y-31.0
X10.8Y-42.0
X10.8Y-42.5
X11.036Y-26.836
X11.25Y-21.25
X11.25Y-30.5
X11.25Y-34.25
X11.5Y-41.75
X11.5Y-42.25
X11.75Y-21.25
X11.9Y-38.5
X12.0Y-37.85
X12.0Y-41.5
X12.25Y-26.0
X12.276Y-27.474
X12.5Y-37.85
X12.5Y-38.5
X12.75Y-13.5
X12.75Y-14.25
X12.75Y-15.25
X12.75Y-15.75
X12.75Y-16.25
X12.75Y-20.5
X12.75Y-26.5
X12.75Y-41.5
X12.8Y-10.5
X12.8Y-17.2
X12.8Y-35.0
X13.0Y-44.0
X13.25Y-21.0
X13.5Y-9.75
X13.5Y-10.25
X13.5Y-26.25
X13.5Y-44.0
X14.0Y-9.75
X14.0Y-10.25
X14.0Y-26.75
X14.5Y-9.75
X14.5Y-10.25
X14.6Y-14.0
X15.1Y-16.5
T3
X1.38Y-1.37
X1.38Y-3.91
X1.38Y-6.45
X1.38Y-8.99
X1.38Y-11.53
X1.38Y-14.07
X1.38Y-16.61
X1.38Y-19.15
X1.38Y-21.69
X1.38Y-24.23
X1.38Y-26.77
X1.38Y-29.31
X1.38Y-31.85
X1.38Y-34.39
X1.38Y-36.93
X1.38Y-39.47
X1.38Y-42.01
X1.38Y-44.55
X1.38Y-47.09
X1.38Y-49.63
X16.62Y-1.37
X16.62Y-3.91
X16.62Y-6.45
X16.62Y-8.99
X16.62Y-11.53
X16.62Y-14.07
X16.62Y-16.61
X16.62Y-19.15
X16.62Y-21.69
X16.62Y-24.23
X16.62Y-26.77
X16.62Y-29.31
X16.62Y-31.85
X16.62Y-34.39
X16.62Y-36.93
X16.62Y-39.47
X16.62Y-42.01
X16.62Y-44.55
X16.62Y-47.09
X16.62Y-49.63
T2
G00X4.68Y-44.93
M15
G01X4.68Y-46.03
M16
G05
G00X4.68Y-49.28
M15
G01X4.68Y-50.08
M16
G05
G00X13.32Y-44.93
M15
G01X13.32Y-46.03
M16
G05
G00X13.32Y-49.28
M15
G01X13.32Y-50.08
M16
G05
M30
