%TF.GenerationSoftware,KiCad,Pcbnew,8.0.6*%
%TF.CreationDate,2024-11-24T01:02:09-06:00*%
%TF.ProjectId,ATesp32,41546573-7033-4322-9e6b-696361645f70,rev?*%
%TF.SameCoordinates,PX47868c0PY608f3d0*%
%TF.FileFunction,Copper,L3,Inr*%
%TF.FilePolarity,Positive*%
%FSLAX46Y46*%
G04 Gerber Fmt 4.6, Leading zero omitted, Abs format (unit mm)*
G04 Created by KiCad (PCBNEW 8.0.6) date 2024-11-24 01:02:09*
%MOMM*%
%LPD*%
G01*
G04 APERTURE LIST*
%TA.AperFunction,ComponentPad*%
%ADD10R,1.600000X1.600000*%
%TD*%
%TA.AperFunction,ComponentPad*%
%ADD11O,1.600000X1.600000*%
%TD*%
%TA.AperFunction,ComponentPad*%
%ADD12O,1.000000X2.100000*%
%TD*%
%TA.AperFunction,ComponentPad*%
%ADD13O,1.000000X1.800000*%
%TD*%
%TA.AperFunction,ViaPad*%
%ADD14C,0.300000*%
%TD*%
%TA.AperFunction,Conductor*%
%ADD15C,0.200000*%
%TD*%
G04 APERTURE END LIST*
D10*
%TO.N,PB0*%
%TO.C,U2*%
X1380000Y49880000D03*
D11*
%TO.N,PB1*%
X1380000Y47340000D03*
%TO.N,PB2*%
X1380000Y44800000D03*
%TO.N,PB3*%
X1380000Y42260000D03*
%TO.N,PB4*%
X1380000Y39720000D03*
%TO.N,PB5*%
X1380000Y37180000D03*
%TO.N,PB6*%
X1380000Y34640000D03*
%TO.N,PB7*%
X1380000Y32100000D03*
%TO.N,unconnected-(U2-~{RESET}-Pad9)*%
X1380000Y29560000D03*
%TO.N,+5V*%
X1380000Y27020000D03*
%TO.N,GND*%
X1380000Y24480000D03*
%TO.N,unconnected-(U2-XTAL2-Pad12)*%
X1380000Y21940000D03*
%TO.N,unconnected-(U2-XTAL1-Pad13)*%
X1380000Y19400000D03*
%TO.N,PD0*%
X1380000Y16860000D03*
%TO.N,PD1*%
X1380000Y14320000D03*
%TO.N,D_P*%
X1380000Y11780000D03*
%TO.N,D_N*%
X1380000Y9240000D03*
%TO.N,PD4*%
X1380000Y6700000D03*
%TO.N,PD5*%
X1380000Y4160000D03*
%TO.N,PD6*%
X1380000Y1620000D03*
%TO.N,PD7*%
X16620000Y1620000D03*
%TO.N,PC0*%
X16620000Y4160000D03*
%TO.N,PC1*%
X16620000Y6700000D03*
%TO.N,PC2*%
X16620000Y9240000D03*
%TO.N,PC3*%
X16620000Y11780000D03*
%TO.N,PC4*%
X16620000Y14320000D03*
%TO.N,PC5*%
X16620000Y16860000D03*
%TO.N,PC6*%
X16620000Y19400000D03*
%TO.N,PC7*%
X16620000Y21940000D03*
%TO.N,+5V*%
X16620000Y24480000D03*
%TO.N,GND*%
X16620000Y27020000D03*
%TO.N,unconnected-(U2-AREF-Pad32)*%
X16620000Y29560000D03*
%TO.N,PA7*%
X16620000Y32100000D03*
%TO.N,PA6*%
X16620000Y34640000D03*
%TO.N,PA5*%
X16620000Y37180000D03*
%TO.N,PA4*%
X16620000Y39720000D03*
%TO.N,PA3*%
X16620000Y42260000D03*
%TO.N,PA2*%
X16620000Y44800000D03*
%TO.N,PA1*%
X16620000Y47340000D03*
%TO.N,PA0*%
X16620000Y49880000D03*
%TD*%
D12*
%TO.N,GND*%
%TO.C,J1*%
X4680000Y5750000D03*
D13*
X4680000Y1570000D03*
D12*
X13320000Y5750000D03*
D13*
X13320000Y1570000D03*
%TD*%
D14*
%TO.N,GND*%
X5000000Y34250000D03*
X4250000Y41750000D03*
X6250000Y45250000D03*
X4500000Y43750000D03*
X9000000Y44250000D03*
X9000000Y45250000D03*
X4000000Y44750000D03*
X4500000Y43250000D03*
X4000000Y43750000D03*
X6000000Y38750000D03*
X12800000Y34050000D03*
X6000000Y40250000D03*
X6250000Y44750000D03*
X9750000Y19250000D03*
X13500000Y41000000D03*
X12800000Y40750000D03*
X7500000Y31500000D03*
X13250000Y30250000D03*
X4000000Y43250000D03*
X14500000Y41500000D03*
X6000000Y33750000D03*
X7500000Y35500000D03*
X6000000Y32000000D03*
X9250000Y18750000D03*
X7500000Y31000000D03*
X6000000Y39750000D03*
X3400000Y17550000D03*
X9000000Y42750000D03*
X12500000Y13400000D03*
X9000000Y43250000D03*
X11250000Y17000000D03*
X7000000Y41950000D03*
X3750000Y42750000D03*
X6000000Y34250000D03*
X6000000Y38250000D03*
X12750000Y30750000D03*
X7500000Y33500000D03*
X7500000Y28500000D03*
X9500000Y45250000D03*
X4500000Y44250000D03*
X8750000Y18250000D03*
X7500000Y40000000D03*
X6600000Y42350000D03*
X6250000Y44250000D03*
X7500000Y36000000D03*
X7500000Y29500000D03*
X6000000Y30500000D03*
X6000000Y34750000D03*
X14500000Y41000000D03*
X4750000Y41750000D03*
X7500000Y39500000D03*
X15100000Y34750000D03*
X7500000Y34000000D03*
X9000000Y41750000D03*
X6000000Y35250000D03*
X7500000Y37000000D03*
X5105000Y9181823D03*
X13500000Y25000000D03*
X10250000Y19750000D03*
X7500000Y37500000D03*
X3750000Y45750000D03*
X6000000Y37750000D03*
X6250000Y45750000D03*
X9000000Y44750000D03*
X13500000Y7250000D03*
X10750000Y20250000D03*
X9000000Y42250000D03*
X6250000Y42750000D03*
X11750000Y30000000D03*
X6000000Y39250000D03*
X13000000Y7250000D03*
X13500000Y41500000D03*
X6740000Y8740000D03*
X8798959Y28451042D03*
X12750000Y24750000D03*
X6000000Y31000000D03*
X11250000Y20750000D03*
X7500000Y29000000D03*
X14000000Y41500000D03*
X7500000Y41500000D03*
X4500000Y44750000D03*
X5250000Y41750000D03*
X7500000Y38500000D03*
X6250000Y43250000D03*
X12000000Y13400000D03*
X3750000Y45250000D03*
X14000000Y24500000D03*
X7500000Y35000000D03*
X11250000Y30000000D03*
X3750000Y42250000D03*
X14000000Y41000000D03*
X8259699Y8508193D03*
X7500000Y41000000D03*
X7500000Y32500000D03*
X6000000Y35750000D03*
X6000000Y40750000D03*
X7500000Y28000000D03*
X7500000Y30000000D03*
X7500000Y27500000D03*
X7500000Y34500000D03*
X4000000Y44250000D03*
X6000000Y31500000D03*
X7500000Y32000000D03*
X7500000Y38000000D03*
X7500000Y36500000D03*
X10000000Y45250000D03*
X6250000Y43750000D03*
X7500000Y33000000D03*
X4000000Y26850000D03*
X7500000Y39000000D03*
X7500000Y40500000D03*
X12250000Y25250000D03*
X7500000Y30500000D03*
X9000000Y43750000D03*
%TO.N,+3V3*%
X4000000Y27600000D03*
X12750000Y36000000D03*
X12750000Y35500000D03*
X5000000Y35250000D03*
X7900000Y26350000D03*
X8300000Y26750000D03*
X12750000Y35000000D03*
X4000000Y19050000D03*
X12275521Y23775521D03*
%TO.N,+5V*%
X9000000Y34250000D03*
X12750000Y37750000D03*
X11500000Y9000000D03*
X9000000Y36250000D03*
X11500000Y9500000D03*
X6000000Y9500000D03*
X6000000Y10500000D03*
X12750000Y9750000D03*
X12000000Y9750000D03*
X4550000Y10550000D03*
X9000000Y36750000D03*
X9000000Y33750000D03*
X5350000Y9800000D03*
X6000000Y10000000D03*
X9000000Y37250000D03*
X12750000Y37000000D03*
X14600000Y37250000D03*
X8500000Y34250000D03*
%TO.N,Net-(U1-CHIP_PU)*%
X4875000Y39575000D03*
X6002164Y25654247D03*
%TO.N,Net-(U5-VDD)*%
X12500000Y12750000D03*
X10800000Y8750000D03*
X11900000Y12750000D03*
X10800000Y9250000D03*
%TO.N,Net-(J1-CC2)*%
X10618644Y5476695D03*
X3225000Y6649479D03*
%TO.N,D+*%
X8750000Y5600000D03*
X9750000Y5600000D03*
%TO.N,Net-(JP4-B)*%
X6916960Y18740509D03*
X4875000Y30062500D03*
X5576046Y25392666D03*
%TO.N,Net-(JP6-B)*%
X12800000Y16250000D03*
%TO.N,PD7*%
X11036315Y24413685D03*
%TO.N,UART_RX*%
X10197783Y22625768D03*
%TO.N,Net-(JP7-A)*%
X6000000Y11350000D03*
%TO.N,UART_TX*%
X7500000Y14250000D03*
%TO.N,Net-(JP8-A)*%
X6500000Y11850000D03*
%TO.N,Net-(U1-U0TXD)*%
X10750000Y22600000D03*
X9100000Y14950000D03*
%TO.N,PA2*%
X3568844Y22218844D03*
%TO.N,PB2*%
X4375000Y25150000D03*
%TO.N,PA5*%
X5379667Y20771374D03*
%TO.N,PA1*%
X3600156Y22717863D03*
%TO.N,PD6*%
X9729961Y23107331D03*
%TO.N,PA4*%
X5026112Y21124930D03*
%TO.N,PB1*%
X4800000Y24879970D03*
%TO.N,PA6*%
X5745769Y20430828D03*
%TO.N,PB6*%
X6100000Y19450000D03*
%TO.N,PA7*%
X6086315Y20064726D03*
%TO.N,PB0*%
X5314464Y24966547D03*
%TO.N,D_N*%
X6275000Y15681833D03*
%TO.N,D_P*%
X5825000Y16150000D03*
%TO.N,PA0*%
X3684530Y23234530D03*
%TO.N,PB3*%
X3950000Y24736827D03*
%TO.N,PA3*%
X4672557Y21478485D03*
%TO.N,PB7*%
X6456528Y19069907D03*
%TD*%
D15*
%TO.N,D_N*%
X1380000Y10130000D02*
X1380000Y9240000D01*
X6275000Y15681833D02*
X6275000Y15025000D01*
X6275000Y15025000D02*
X1380000Y10130000D01*
%TO.N,D_P*%
X3454520Y12770207D02*
X3393748Y12709434D01*
X3202622Y13531222D02*
X3539372Y13194472D01*
X5825000Y16150000D02*
X5825000Y15140686D01*
X4886394Y14202081D02*
X4843644Y14159330D01*
X3963637Y13618735D02*
X3626886Y13955486D01*
X4843644Y14159330D02*
X4303049Y13618735D01*
X3393748Y12709434D02*
X2464314Y11780000D01*
X5395511Y15050609D02*
X5027815Y15418305D01*
X2464314Y11780000D02*
X1380000Y11780000D01*
X4971246Y14286935D02*
X4886394Y14202081D01*
X3287475Y13955486D02*
X3202622Y13870634D01*
X3539372Y12855061D02*
X3454520Y12770207D01*
X5825000Y15140686D02*
X5734923Y15050609D01*
X4603551Y14994041D02*
X4971246Y14626346D01*
X4688404Y15418305D02*
X4603551Y15333453D01*
X3539372Y13194472D02*
G75*
G02*
X3539339Y12855095I-169672J-169672D01*
G01*
X4303049Y13618735D02*
G75*
G02*
X3963637Y13618735I-169706J169704D01*
G01*
X4603551Y15333453D02*
G75*
G03*
X4603504Y14993994I169749J-169753D01*
G01*
X3202622Y13870634D02*
G75*
G03*
X3202594Y13531194I169678J-169734D01*
G01*
X5027815Y15418305D02*
G75*
G03*
X4688405Y15418305I-169705J-169703D01*
G01*
X3626886Y13955486D02*
G75*
G03*
X3287474Y13955487I-169706J-169703D01*
G01*
X4971246Y14626346D02*
G75*
G02*
X4971287Y14286895I-169746J-169746D01*
G01*
X5734923Y15050609D02*
G75*
G02*
X5395511Y15050609I-169706J169704D01*
G01*
%TD*%
%TA.AperFunction,Conductor*%
%TO.N,+3V3*%
G36*
X6943039Y36980315D02*
G01*
X6988794Y36927511D01*
X7000000Y36876000D01*
X7000000Y33250000D01*
X7004606Y33245394D01*
X7055957Y33230315D01*
X7101712Y33177511D01*
X7111656Y33108353D01*
X7111391Y33106603D01*
X7094508Y33000004D01*
X7094508Y32999997D01*
X7114352Y32874700D01*
X7114353Y32874696D01*
X7149206Y32806294D01*
X7162102Y32737625D01*
X7149206Y32693706D01*
X7114353Y32625305D01*
X7114352Y32625301D01*
X7094508Y32500004D01*
X7094508Y32499997D01*
X7114352Y32374700D01*
X7114353Y32374696D01*
X7149206Y32306294D01*
X7162102Y32237625D01*
X7149206Y32193706D01*
X7114353Y32125305D01*
X7114352Y32125301D01*
X7094508Y32000004D01*
X7094508Y31999997D01*
X7114352Y31874700D01*
X7114353Y31874696D01*
X7149206Y31806294D01*
X7162102Y31737625D01*
X7149206Y31693706D01*
X7114353Y31625305D01*
X7114352Y31625301D01*
X7094508Y31500004D01*
X7094508Y31499997D01*
X7114352Y31374700D01*
X7114353Y31374696D01*
X7149206Y31306294D01*
X7162102Y31237625D01*
X7149206Y31193706D01*
X7114353Y31125305D01*
X7114352Y31125301D01*
X7094508Y31000004D01*
X7094508Y30999997D01*
X7114352Y30874700D01*
X7114353Y30874696D01*
X7149206Y30806294D01*
X7162102Y30737625D01*
X7149206Y30693706D01*
X7114353Y30625305D01*
X7114352Y30625301D01*
X7094508Y30500004D01*
X7094508Y30499997D01*
X7114352Y30374700D01*
X7114353Y30374696D01*
X7149206Y30306294D01*
X7162102Y30237625D01*
X7149206Y30193706D01*
X7114353Y30125305D01*
X7114352Y30125301D01*
X7094508Y30000004D01*
X7094508Y29999997D01*
X7114352Y29874700D01*
X7114353Y29874696D01*
X7149206Y29806294D01*
X7162102Y29737625D01*
X7149206Y29693706D01*
X7114353Y29625305D01*
X7114352Y29625301D01*
X7094508Y29500004D01*
X7094508Y29499997D01*
X7114352Y29374700D01*
X7114353Y29374696D01*
X7149206Y29306294D01*
X7162102Y29237625D01*
X7149206Y29193706D01*
X7114353Y29125305D01*
X7114352Y29125301D01*
X7094508Y29000004D01*
X7094508Y28999997D01*
X7114352Y28874700D01*
X7114353Y28874696D01*
X7149206Y28806294D01*
X7162102Y28737625D01*
X7149206Y28693706D01*
X7114353Y28625305D01*
X7114352Y28625301D01*
X7094508Y28500004D01*
X7094508Y28499997D01*
X7114352Y28374700D01*
X7114353Y28374696D01*
X7149206Y28306294D01*
X7162102Y28237625D01*
X7149206Y28193706D01*
X7114353Y28125305D01*
X7114352Y28125301D01*
X7094508Y28000004D01*
X7094508Y27999997D01*
X7114352Y27874700D01*
X7114353Y27874696D01*
X7149206Y27806294D01*
X7162102Y27737625D01*
X7149206Y27693706D01*
X7114353Y27625305D01*
X7114352Y27625301D01*
X7094508Y27500004D01*
X7094508Y27499997D01*
X7114352Y27374700D01*
X7114352Y27374699D01*
X7114354Y27374696D01*
X7171950Y27261658D01*
X7171952Y27261656D01*
X7171954Y27261653D01*
X7261652Y27171955D01*
X7261654Y27171954D01*
X7261658Y27171950D01*
X7374696Y27114354D01*
X7374697Y27114354D01*
X7374699Y27114353D01*
X7499997Y27094508D01*
X7500000Y27094508D01*
X7500003Y27094508D01*
X7625300Y27114353D01*
X7625301Y27114353D01*
X7625302Y27114354D01*
X7625304Y27114354D01*
X7738342Y27171950D01*
X7828050Y27261658D01*
X7885646Y27374696D01*
X7885646Y27374698D01*
X7885647Y27374699D01*
X7885647Y27374700D01*
X7905492Y27499997D01*
X7905492Y27500004D01*
X7885647Y27625301D01*
X7885646Y27625304D01*
X7850794Y27693704D01*
X7837897Y27762374D01*
X7850794Y27806296D01*
X7885646Y27874696D01*
X7905492Y28000000D01*
X7905492Y28000004D01*
X7885647Y28125301D01*
X7885646Y28125304D01*
X7850794Y28193704D01*
X7837897Y28262374D01*
X7850794Y28306296D01*
X7885646Y28374696D01*
X7885647Y28374700D01*
X7897739Y28451046D01*
X8393467Y28451046D01*
X8393467Y28451039D01*
X8413311Y28325742D01*
X8413311Y28325741D01*
X8413313Y28325738D01*
X8470909Y28212700D01*
X8470911Y28212698D01*
X8470913Y28212695D01*
X8560611Y28122997D01*
X8560613Y28122996D01*
X8560617Y28122992D01*
X8673655Y28065396D01*
X8673656Y28065396D01*
X8673658Y28065395D01*
X8798956Y28045550D01*
X8798959Y28045550D01*
X8798962Y28045550D01*
X8924259Y28065395D01*
X8924260Y28065395D01*
X8924261Y28065396D01*
X8924263Y28065396D01*
X9037301Y28122992D01*
X9127009Y28212700D01*
X9184605Y28325738D01*
X9184605Y28325740D01*
X9184606Y28325741D01*
X9184606Y28325742D01*
X9204451Y28451039D01*
X9204451Y28451046D01*
X9184606Y28576343D01*
X9184606Y28576344D01*
X9184605Y28576346D01*
X9127009Y28689384D01*
X9127005Y28689388D01*
X9127004Y28689390D01*
X9037306Y28779088D01*
X9037303Y28779090D01*
X9037301Y28779092D01*
X8924263Y28836688D01*
X8924262Y28836689D01*
X8924259Y28836690D01*
X8798962Y28856534D01*
X8798956Y28856534D01*
X8673658Y28836690D01*
X8673657Y28836690D01*
X8598296Y28798291D01*
X8560617Y28779092D01*
X8560616Y28779091D01*
X8560611Y28779088D01*
X8470913Y28689390D01*
X8470910Y28689385D01*
X8413311Y28576344D01*
X8413311Y28576343D01*
X8393467Y28451046D01*
X7897739Y28451046D01*
X7905492Y28499997D01*
X7905492Y28500004D01*
X7885647Y28625301D01*
X7885646Y28625304D01*
X7850794Y28693704D01*
X7837897Y28762374D01*
X7850794Y28806296D01*
X7885646Y28874696D01*
X7905492Y29000000D01*
X7905492Y29000004D01*
X7885647Y29125301D01*
X7885646Y29125304D01*
X7850794Y29193704D01*
X7837897Y29262374D01*
X7850794Y29306296D01*
X7885646Y29374696D01*
X7905492Y29500000D01*
X7905492Y29500004D01*
X7885647Y29625301D01*
X7885646Y29625304D01*
X7866896Y29662103D01*
X7850793Y29693705D01*
X7837897Y29762374D01*
X7850794Y29806296D01*
X7880376Y29864354D01*
X7885646Y29874696D01*
X7885646Y29874698D01*
X7885647Y29874700D01*
X7905492Y29999997D01*
X7905492Y30000004D01*
X10844508Y30000004D01*
X10844508Y29999997D01*
X10864352Y29874700D01*
X10864352Y29874699D01*
X10879736Y29844508D01*
X10921950Y29761658D01*
X10921952Y29761656D01*
X10921954Y29761653D01*
X11011652Y29671955D01*
X11011654Y29671954D01*
X11011658Y29671950D01*
X11124696Y29614354D01*
X11124697Y29614354D01*
X11124699Y29614353D01*
X11249997Y29594508D01*
X11250000Y29594508D01*
X11250003Y29594508D01*
X11375300Y29614353D01*
X11375302Y29614354D01*
X11375304Y29614354D01*
X11443704Y29649207D01*
X11512374Y29662103D01*
X11556294Y29649207D01*
X11624696Y29614354D01*
X11624699Y29614353D01*
X11749997Y29594508D01*
X11750000Y29594508D01*
X11750003Y29594508D01*
X11875300Y29614353D01*
X11875301Y29614353D01*
X11875302Y29614354D01*
X11875304Y29614354D01*
X11988342Y29671950D01*
X12078050Y29761658D01*
X12135646Y29874696D01*
X12135646Y29874698D01*
X12135647Y29874699D01*
X12135647Y29874700D01*
X12155492Y29999997D01*
X12155492Y30000004D01*
X12135647Y30125301D01*
X12135647Y30125302D01*
X12135645Y30125305D01*
X12078050Y30238342D01*
X12078046Y30238346D01*
X12078045Y30238348D01*
X11988347Y30328046D01*
X11988344Y30328048D01*
X11988342Y30328050D01*
X11875304Y30385646D01*
X11875303Y30385647D01*
X11875300Y30385648D01*
X11750003Y30405492D01*
X11749997Y30405492D01*
X11624699Y30385648D01*
X11624695Y30385647D01*
X11556294Y30350794D01*
X11487625Y30337898D01*
X11443706Y30350794D01*
X11375304Y30385647D01*
X11375300Y30385648D01*
X11250003Y30405492D01*
X11249997Y30405492D01*
X11124699Y30385648D01*
X11124698Y30385648D01*
X11078865Y30362294D01*
X11011658Y30328050D01*
X11011657Y30328049D01*
X11011652Y30328046D01*
X10921954Y30238348D01*
X10921951Y30238343D01*
X10864352Y30125302D01*
X10864352Y30125301D01*
X10844508Y30000004D01*
X7905492Y30000004D01*
X7885647Y30125301D01*
X7885646Y30125304D01*
X7885645Y30125305D01*
X7850793Y30193705D01*
X7837897Y30262374D01*
X7850794Y30306296D01*
X7855938Y30316392D01*
X7885646Y30374696D01*
X7885646Y30374698D01*
X7885647Y30374700D01*
X7905492Y30499997D01*
X7905492Y30500004D01*
X7885647Y30625301D01*
X7885646Y30625304D01*
X7850794Y30693704D01*
X7837897Y30762374D01*
X7850794Y30806296D01*
X7885646Y30874696D01*
X7885742Y30875302D01*
X7905492Y30999997D01*
X7905492Y31000004D01*
X7885647Y31125301D01*
X7885646Y31125304D01*
X7850794Y31193704D01*
X7837897Y31262374D01*
X7850794Y31306296D01*
X7885646Y31374696D01*
X7905492Y31500000D01*
X7905492Y31500004D01*
X7885647Y31625301D01*
X7885646Y31625304D01*
X7850794Y31693704D01*
X7837897Y31762374D01*
X7850794Y31806296D01*
X7885646Y31874696D01*
X7905492Y32000000D01*
X7905492Y32000004D01*
X7885647Y32125301D01*
X7885646Y32125304D01*
X7850794Y32193704D01*
X7837897Y32262374D01*
X7850794Y32306296D01*
X7885646Y32374696D01*
X7885647Y32374700D01*
X7905492Y32499997D01*
X7905492Y32500004D01*
X7885647Y32625301D01*
X7885646Y32625304D01*
X7850794Y32693704D01*
X7837897Y32762374D01*
X7850794Y32806296D01*
X7885646Y32874696D01*
X7905492Y33000000D01*
X7905492Y33000004D01*
X7888609Y33106603D01*
X7897564Y33175896D01*
X7942560Y33229348D01*
X8009312Y33249987D01*
X8011082Y33250000D01*
X9500000Y33250000D01*
X9500000Y36126000D01*
X9519685Y36193039D01*
X9572489Y36238794D01*
X9624000Y36250000D01*
X12876000Y36250000D01*
X12943039Y36230315D01*
X12988794Y36177511D01*
X13000000Y36126000D01*
X13000000Y34569001D01*
X12980315Y34501962D01*
X12927511Y34456207D01*
X12858353Y34446263D01*
X12856603Y34446527D01*
X12800000Y34455492D01*
X12799998Y34455492D01*
X12799997Y34455492D01*
X12674699Y34435648D01*
X12674698Y34435648D01*
X12599337Y34397249D01*
X12561658Y34378050D01*
X12561657Y34378049D01*
X12561652Y34378046D01*
X12471954Y34288348D01*
X12471951Y34288343D01*
X12414352Y34175302D01*
X12414352Y34175301D01*
X12394508Y34050004D01*
X12394508Y34049997D01*
X12414352Y33924700D01*
X12414352Y33924699D01*
X12415752Y33921952D01*
X12471950Y33811658D01*
X12471952Y33811656D01*
X12471954Y33811653D01*
X12561652Y33721955D01*
X12561654Y33721954D01*
X12561658Y33721950D01*
X12674696Y33664354D01*
X12674697Y33664354D01*
X12674699Y33664353D01*
X12799997Y33644508D01*
X12800000Y33644508D01*
X12800001Y33644508D01*
X12816826Y33647174D01*
X12856602Y33653473D01*
X12925895Y33644519D01*
X12979347Y33599523D01*
X12999987Y33532771D01*
X13000000Y33531000D01*
X13000000Y31261082D01*
X12980315Y31194043D01*
X12927511Y31148288D01*
X12858353Y31138344D01*
X12856603Y31138609D01*
X12750003Y31155492D01*
X12749997Y31155492D01*
X12624699Y31135648D01*
X12624698Y31135648D01*
X12549337Y31097249D01*
X12511658Y31078050D01*
X12511657Y31078049D01*
X12511652Y31078046D01*
X12421954Y30988348D01*
X12421951Y30988343D01*
X12364352Y30875302D01*
X12364352Y30875301D01*
X12344508Y30750004D01*
X12344508Y30749997D01*
X12364352Y30624700D01*
X12364352Y30624699D01*
X12364354Y30624696D01*
X12421950Y30511658D01*
X12421952Y30511656D01*
X12421954Y30511653D01*
X12511652Y30421955D01*
X12511654Y30421954D01*
X12511658Y30421950D01*
X12624696Y30364354D01*
X12742607Y30345679D01*
X12805738Y30315752D01*
X12842669Y30256441D01*
X12845679Y30242604D01*
X12864352Y30124700D01*
X12864352Y30124699D01*
X12869624Y30114353D01*
X12921950Y30011658D01*
X12921952Y30011656D01*
X12921953Y30011654D01*
X12963680Y29969928D01*
X12997166Y29908605D01*
X13000000Y29882246D01*
X13000000Y25261082D01*
X12980315Y25194043D01*
X12927511Y25148288D01*
X12858353Y25138344D01*
X12856603Y25138608D01*
X12844557Y25140516D01*
X12757394Y25154321D01*
X12694261Y25184249D01*
X12657329Y25243561D01*
X12654324Y25257373D01*
X12635646Y25375304D01*
X12578050Y25488342D01*
X12578046Y25488346D01*
X12578045Y25488348D01*
X12488347Y25578046D01*
X12488344Y25578048D01*
X12488342Y25578050D01*
X12375304Y25635646D01*
X12375303Y25635647D01*
X12375300Y25635648D01*
X12250003Y25655492D01*
X12249997Y25655492D01*
X12124699Y25635648D01*
X12124698Y25635648D01*
X12049337Y25597249D01*
X12011658Y25578050D01*
X12011657Y25578049D01*
X12011652Y25578046D01*
X11921954Y25488348D01*
X11921951Y25488343D01*
X11921950Y25488342D01*
X11916704Y25478046D01*
X11864352Y25375302D01*
X11864352Y25375301D01*
X11844508Y25250004D01*
X11844508Y25249997D01*
X11864352Y25124700D01*
X11864352Y25124699D01*
X11882805Y25088483D01*
X11921950Y25011658D01*
X11921952Y25011656D01*
X11921954Y25011653D01*
X12011652Y24921955D01*
X12011654Y24921954D01*
X12011658Y24921950D01*
X12124696Y24864354D01*
X12242607Y24845679D01*
X12305738Y24815752D01*
X12342669Y24756441D01*
X12345679Y24742604D01*
X12364352Y24624700D01*
X12364352Y24624699D01*
X12371064Y24611527D01*
X12421950Y24511658D01*
X12421952Y24511656D01*
X12421954Y24511653D01*
X12511652Y24421955D01*
X12511654Y24421954D01*
X12511658Y24421950D01*
X12624696Y24364354D01*
X12624697Y24364354D01*
X12624699Y24364353D01*
X12749997Y24344508D01*
X12750000Y24344508D01*
X12750002Y24344508D01*
X12856602Y24361392D01*
X12925895Y24352438D01*
X12979347Y24307441D01*
X12999987Y24240690D01*
X13000000Y24238919D01*
X13000000Y17624000D01*
X12980315Y17556961D01*
X12927511Y17511206D01*
X12876000Y17500000D01*
X3919317Y17500000D01*
X3852278Y17519685D01*
X3806523Y17572489D01*
X3796844Y17604598D01*
X3785646Y17675304D01*
X3728050Y17788342D01*
X3728046Y17788346D01*
X3728045Y17788348D01*
X3638347Y17878046D01*
X3638344Y17878048D01*
X3638342Y17878050D01*
X3525304Y17935646D01*
X3525303Y17935647D01*
X3525300Y17935648D01*
X3400003Y17955492D01*
X3400001Y17955492D01*
X3400000Y17955492D01*
X3393396Y17954446D01*
X3324102Y17963403D01*
X3270651Y18008400D01*
X3250013Y18075152D01*
X3250000Y18076920D01*
X3250000Y18250004D01*
X8344508Y18250004D01*
X8344508Y18249997D01*
X8364352Y18124700D01*
X8364352Y18124699D01*
X8364354Y18124696D01*
X8421950Y18011658D01*
X8421952Y18011656D01*
X8421954Y18011653D01*
X8511652Y17921955D01*
X8511654Y17921954D01*
X8511658Y17921950D01*
X8624696Y17864354D01*
X8624697Y17864354D01*
X8624699Y17864353D01*
X8749997Y17844508D01*
X8750000Y17844508D01*
X8750003Y17844508D01*
X8875300Y17864353D01*
X8875301Y17864353D01*
X8875302Y17864354D01*
X8875304Y17864354D01*
X8988342Y17921950D01*
X9078050Y18011658D01*
X9135646Y18124696D01*
X9154321Y18242608D01*
X9184248Y18305738D01*
X9243559Y18342670D01*
X9257372Y18345676D01*
X9375304Y18364354D01*
X9488342Y18421950D01*
X9578050Y18511658D01*
X9635646Y18624696D01*
X9654321Y18742608D01*
X9684248Y18805738D01*
X9743559Y18842670D01*
X9757372Y18845676D01*
X9875304Y18864354D01*
X9988342Y18921950D01*
X10078050Y19011658D01*
X10135646Y19124696D01*
X10154321Y19242608D01*
X10184248Y19305738D01*
X10243559Y19342670D01*
X10257372Y19345676D01*
X10375304Y19364354D01*
X10488342Y19421950D01*
X10578050Y19511658D01*
X10635646Y19624696D01*
X10654321Y19742608D01*
X10684248Y19805738D01*
X10743559Y19842670D01*
X10757372Y19845676D01*
X10875304Y19864354D01*
X10988342Y19921950D01*
X11078050Y20011658D01*
X11135646Y20124696D01*
X11154321Y20242608D01*
X11184248Y20305738D01*
X11243559Y20342670D01*
X11257372Y20345676D01*
X11375304Y20364354D01*
X11488342Y20421950D01*
X11578050Y20511658D01*
X11635646Y20624696D01*
X11635646Y20624698D01*
X11635647Y20624699D01*
X11635647Y20624700D01*
X11655492Y20749997D01*
X11655492Y20750004D01*
X11635647Y20875301D01*
X11635647Y20875302D01*
X11624755Y20896678D01*
X11578050Y20988342D01*
X11578046Y20988346D01*
X11578045Y20988348D01*
X11488347Y21078046D01*
X11488344Y21078048D01*
X11488342Y21078050D01*
X11375304Y21135646D01*
X11375303Y21135647D01*
X11375300Y21135648D01*
X11250003Y21155492D01*
X11249997Y21155492D01*
X11124699Y21135648D01*
X11124698Y21135648D01*
X11053607Y21099424D01*
X11011658Y21078050D01*
X11011657Y21078049D01*
X11011652Y21078046D01*
X10921954Y20988348D01*
X10921951Y20988343D01*
X10864352Y20875302D01*
X10864352Y20875301D01*
X10845679Y20757397D01*
X10815750Y20694262D01*
X10756439Y20657330D01*
X10742603Y20654321D01*
X10624699Y20635648D01*
X10624698Y20635648D01*
X10549337Y20597249D01*
X10511658Y20578050D01*
X10511657Y20578049D01*
X10511652Y20578046D01*
X10421954Y20488348D01*
X10421951Y20488343D01*
X10364352Y20375302D01*
X10364352Y20375301D01*
X10345679Y20257397D01*
X10315750Y20194262D01*
X10256439Y20157330D01*
X10242603Y20154321D01*
X10124699Y20135648D01*
X10124698Y20135648D01*
X10060199Y20102783D01*
X10011658Y20078050D01*
X10011657Y20078049D01*
X10011652Y20078046D01*
X9921954Y19988348D01*
X9921951Y19988343D01*
X9864352Y19875302D01*
X9864352Y19875301D01*
X9845679Y19757397D01*
X9815750Y19694262D01*
X9756439Y19657330D01*
X9742603Y19654321D01*
X9624699Y19635648D01*
X9624698Y19635648D01*
X9549337Y19597249D01*
X9511658Y19578050D01*
X9511657Y19578049D01*
X9511652Y19578046D01*
X9421954Y19488348D01*
X9421951Y19488343D01*
X9364352Y19375302D01*
X9364352Y19375301D01*
X9345679Y19257397D01*
X9315750Y19194262D01*
X9256439Y19157330D01*
X9242603Y19154321D01*
X9124699Y19135648D01*
X9124698Y19135648D01*
X9049337Y19097249D01*
X9011658Y19078050D01*
X9011657Y19078049D01*
X9011652Y19078046D01*
X8921954Y18988348D01*
X8921951Y18988343D01*
X8864352Y18875302D01*
X8864352Y18875301D01*
X8845679Y18757397D01*
X8815750Y18694262D01*
X8756439Y18657330D01*
X8742603Y18654321D01*
X8624699Y18635648D01*
X8624698Y18635648D01*
X8584578Y18615205D01*
X8511658Y18578050D01*
X8511657Y18578049D01*
X8511652Y18578046D01*
X8421954Y18488348D01*
X8421951Y18488343D01*
X8364352Y18375302D01*
X8364352Y18375301D01*
X8344508Y18250004D01*
X3250000Y18250004D01*
X3250000Y21478489D01*
X4267065Y21478489D01*
X4267065Y21478482D01*
X4286909Y21353185D01*
X4286909Y21353184D01*
X4286911Y21353181D01*
X4344507Y21240143D01*
X4344509Y21240141D01*
X4344511Y21240138D01*
X4434209Y21150440D01*
X4434211Y21150439D01*
X4434215Y21150435D01*
X4547253Y21092839D01*
X4547254Y21092839D01*
X4547256Y21092838D01*
X4556538Y21089822D01*
X4555387Y21086282D01*
X4601803Y21064321D01*
X4636546Y21008617D01*
X4637449Y21008910D01*
X4638629Y21005277D01*
X4638779Y21005037D01*
X4638925Y21004368D01*
X4640464Y20999629D01*
X4658917Y20963413D01*
X4698062Y20886588D01*
X4698064Y20886586D01*
X4698066Y20886583D01*
X4787764Y20796885D01*
X4787766Y20796884D01*
X4787770Y20796880D01*
X4900808Y20739284D01*
X4900809Y20739284D01*
X4900811Y20739283D01*
X4910093Y20736267D01*
X4908942Y20732727D01*
X4955358Y20710766D01*
X4990101Y20655061D01*
X4991004Y20655354D01*
X4992184Y20651723D01*
X4992334Y20651482D01*
X4992480Y20650810D01*
X4994019Y20646073D01*
X5012472Y20609857D01*
X5051617Y20533032D01*
X5051619Y20533030D01*
X5051621Y20533027D01*
X5141319Y20443329D01*
X5141321Y20443328D01*
X5141325Y20443324D01*
X5254363Y20385728D01*
X5263331Y20384308D01*
X5326467Y20354380D01*
X5353438Y20313071D01*
X5355693Y20314219D01*
X5360122Y20305526D01*
X5360123Y20305524D01*
X5417719Y20192486D01*
X5417721Y20192484D01*
X5417723Y20192481D01*
X5507421Y20102783D01*
X5507423Y20102782D01*
X5507427Y20102778D01*
X5620465Y20045182D01*
X5620467Y20045182D01*
X5629161Y20040752D01*
X5627858Y20038196D01*
X5672753Y20007509D01*
X5699247Y19948396D01*
X5700667Y19939425D01*
X5700669Y19939422D01*
X5749030Y19844508D01*
X5758266Y19826383D01*
X5762989Y19819882D01*
X5786467Y19754075D01*
X5773154Y19690704D01*
X5714352Y19575302D01*
X5714352Y19575301D01*
X5694508Y19450004D01*
X5694508Y19449997D01*
X5714352Y19324700D01*
X5714352Y19324699D01*
X5732805Y19288483D01*
X5771950Y19211658D01*
X5771952Y19211656D01*
X5771954Y19211653D01*
X5861652Y19121955D01*
X5861654Y19121954D01*
X5861658Y19121950D01*
X5974696Y19064354D01*
X5974706Y19064353D01*
X5983834Y19061386D01*
X6041510Y19021949D01*
X6067991Y18962852D01*
X6070880Y18944606D01*
X6070882Y18944603D01*
X6128478Y18831565D01*
X6128480Y18831563D01*
X6128482Y18831560D01*
X6218180Y18741862D01*
X6218182Y18741861D01*
X6218186Y18741857D01*
X6331224Y18684261D01*
X6448203Y18665734D01*
X6511335Y18635805D01*
X6539286Y18599558D01*
X6588910Y18502167D01*
X6588912Y18502165D01*
X6588914Y18502162D01*
X6678612Y18412464D01*
X6678614Y18412463D01*
X6678618Y18412459D01*
X6791656Y18354863D01*
X6791657Y18354863D01*
X6791659Y18354862D01*
X6916957Y18335017D01*
X6916960Y18335017D01*
X6916963Y18335017D01*
X7042260Y18354862D01*
X7042261Y18354862D01*
X7042262Y18354863D01*
X7042264Y18354863D01*
X7155302Y18412459D01*
X7245010Y18502167D01*
X7302606Y18615205D01*
X7302606Y18615207D01*
X7302607Y18615208D01*
X7302607Y18615209D01*
X7322452Y18740506D01*
X7322452Y18740513D01*
X7302607Y18865810D01*
X7302607Y18865811D01*
X7302606Y18865813D01*
X7245010Y18978851D01*
X7245006Y18978855D01*
X7245005Y18978857D01*
X7155307Y19068555D01*
X7155304Y19068557D01*
X7155302Y19068559D01*
X7050517Y19121950D01*
X7042261Y19126157D01*
X6925286Y19144683D01*
X6862151Y19174612D01*
X6834201Y19210858D01*
X6784578Y19308249D01*
X6784576Y19308251D01*
X6784573Y19308255D01*
X6694875Y19397953D01*
X6694872Y19397955D01*
X6694870Y19397957D01*
X6581832Y19455553D01*
X6581830Y19455554D01*
X6581827Y19455555D01*
X6572685Y19458526D01*
X6515012Y19497966D01*
X6488535Y19557057D01*
X6485646Y19575304D01*
X6428050Y19688342D01*
X6428048Y19688344D01*
X6423326Y19694844D01*
X6399848Y19760651D01*
X6413161Y19824022D01*
X6422663Y19842670D01*
X6471961Y19939422D01*
X6471961Y19939424D01*
X6471962Y19939425D01*
X6471962Y19939426D01*
X6491807Y20064723D01*
X6491807Y20064730D01*
X6471962Y20190027D01*
X6471962Y20190028D01*
X6469805Y20194262D01*
X6414365Y20303068D01*
X6414361Y20303072D01*
X6414360Y20303074D01*
X6324662Y20392772D01*
X6324659Y20392774D01*
X6324657Y20392776D01*
X6211619Y20450372D01*
X6211617Y20450373D01*
X6202924Y20454802D01*
X6204224Y20457354D01*
X6159305Y20488077D01*
X6132835Y20547164D01*
X6131415Y20556130D01*
X6131415Y20556132D01*
X6073819Y20669170D01*
X6073815Y20669174D01*
X6073814Y20669176D01*
X5984116Y20758874D01*
X5984113Y20758876D01*
X5984111Y20758878D01*
X5907286Y20798023D01*
X5871070Y20816476D01*
X5862099Y20817896D01*
X5798964Y20847825D01*
X5772003Y20889134D01*
X5769743Y20887982D01*
X5765313Y20896676D01*
X5765313Y20896678D01*
X5707717Y21009716D01*
X5707713Y21009720D01*
X5707712Y21009722D01*
X5618014Y21099420D01*
X5618011Y21099422D01*
X5618009Y21099424D01*
X5517891Y21150437D01*
X5504968Y21157022D01*
X5495687Y21160037D01*
X5496830Y21163555D01*
X5450285Y21185661D01*
X5415721Y21241257D01*
X5414775Y21240949D01*
X5413528Y21244785D01*
X5413396Y21244998D01*
X5413268Y21245586D01*
X5411759Y21250231D01*
X5411758Y21250233D01*
X5411758Y21250234D01*
X5354162Y21363272D01*
X5354158Y21363276D01*
X5354157Y21363278D01*
X5264459Y21452976D01*
X5264456Y21452978D01*
X5264454Y21452980D01*
X5187629Y21492125D01*
X5151413Y21510578D01*
X5142132Y21513593D01*
X5143275Y21517113D01*
X5096742Y21539205D01*
X5062162Y21594811D01*
X5061220Y21594504D01*
X5059980Y21598319D01*
X5059844Y21598538D01*
X5059713Y21599141D01*
X5058204Y21603786D01*
X5058203Y21603788D01*
X5058203Y21603789D01*
X5000607Y21716827D01*
X5000603Y21716831D01*
X5000602Y21716833D01*
X4910904Y21806531D01*
X4910901Y21806533D01*
X4910899Y21806535D01*
X4797861Y21864131D01*
X4797860Y21864132D01*
X4797857Y21864133D01*
X4672560Y21883977D01*
X4672554Y21883977D01*
X4547256Y21864133D01*
X4547255Y21864133D01*
X4486542Y21833197D01*
X4434215Y21806535D01*
X4434214Y21806534D01*
X4434209Y21806531D01*
X4344511Y21716833D01*
X4344508Y21716828D01*
X4286909Y21603787D01*
X4286909Y21603786D01*
X4267065Y21478489D01*
X3250000Y21478489D01*
X3250000Y21729463D01*
X3269685Y21796502D01*
X3322489Y21842257D01*
X3391647Y21852201D01*
X3430292Y21839949D01*
X3443540Y21833198D01*
X3443544Y21833198D01*
X3443545Y21833197D01*
X3443543Y21833197D01*
X3568841Y21813352D01*
X3568844Y21813352D01*
X3568847Y21813352D01*
X3694144Y21833197D01*
X3694145Y21833197D01*
X3694146Y21833198D01*
X3694148Y21833198D01*
X3807186Y21890794D01*
X3896894Y21980502D01*
X3954490Y22093540D01*
X3954490Y22093542D01*
X3954491Y22093543D01*
X3954491Y22093544D01*
X3974336Y22218841D01*
X3974336Y22218848D01*
X3954491Y22344144D01*
X3954490Y22344146D01*
X3954490Y22344148D01*
X3935542Y22381335D01*
X3922647Y22450001D01*
X3935542Y22493919D01*
X3985802Y22592559D01*
X3986981Y22600000D01*
X4005648Y22717860D01*
X4005648Y22717867D01*
X3985803Y22843164D01*
X3985801Y22843169D01*
X3984089Y22846530D01*
X3983239Y22851054D01*
X3982787Y22852446D01*
X3982967Y22852505D01*
X3971194Y22915199D01*
X3997472Y22979939D01*
X4006881Y22990490D01*
X4012580Y22996188D01*
X4069212Y23107335D01*
X9324469Y23107335D01*
X9324469Y23107328D01*
X9344313Y22982031D01*
X9344313Y22982030D01*
X9357472Y22956205D01*
X9401911Y22868989D01*
X9401913Y22868987D01*
X9401915Y22868984D01*
X9491613Y22779286D01*
X9491615Y22779285D01*
X9491619Y22779281D01*
X9604657Y22721685D01*
X9692555Y22707764D01*
X9755688Y22677836D01*
X9792619Y22618525D01*
X9795629Y22604689D01*
X9812135Y22500467D01*
X9830588Y22464251D01*
X9869733Y22387426D01*
X9869735Y22387424D01*
X9869737Y22387421D01*
X9959435Y22297723D01*
X9959437Y22297722D01*
X9959441Y22297718D01*
X10072479Y22240122D01*
X10072480Y22240122D01*
X10072482Y22240121D01*
X10197780Y22220276D01*
X10197783Y22220276D01*
X10197786Y22220276D01*
X10323083Y22240121D01*
X10323085Y22240122D01*
X10323087Y22240122D01*
X10392310Y22275394D01*
X10460978Y22288290D01*
X10504900Y22275394D01*
X10511656Y22271952D01*
X10511658Y22271950D01*
X10624696Y22214354D01*
X10624697Y22214354D01*
X10624699Y22214353D01*
X10749997Y22194508D01*
X10750000Y22194508D01*
X10750003Y22194508D01*
X10875300Y22214353D01*
X10875301Y22214353D01*
X10875302Y22214354D01*
X10875304Y22214354D01*
X10988342Y22271950D01*
X11078050Y22361658D01*
X11135646Y22474696D01*
X11135646Y22474698D01*
X11135647Y22474699D01*
X11135647Y22474700D01*
X11155492Y22599997D01*
X11155492Y22600004D01*
X11135647Y22725301D01*
X11135647Y22725302D01*
X11135646Y22725304D01*
X11078050Y22838342D01*
X11078046Y22838346D01*
X11078045Y22838348D01*
X10988347Y22928046D01*
X10988344Y22928048D01*
X10988342Y22928050D01*
X10875304Y22985646D01*
X10875303Y22985647D01*
X10875300Y22985648D01*
X10750003Y23005492D01*
X10749997Y23005492D01*
X10624699Y22985648D01*
X10624697Y22985647D01*
X10555469Y22950374D01*
X10486800Y22937479D01*
X10442881Y22950375D01*
X10436126Y22953817D01*
X10436125Y22953818D01*
X10323087Y23011414D01*
X10323086Y23011415D01*
X10323083Y23011416D01*
X10235190Y23025336D01*
X10172055Y23055265D01*
X10135123Y23114576D01*
X10132117Y23128393D01*
X10115607Y23232635D01*
X10058011Y23345673D01*
X10058007Y23345677D01*
X10058006Y23345679D01*
X9968308Y23435377D01*
X9968305Y23435379D01*
X9968303Y23435381D01*
X9855265Y23492977D01*
X9855264Y23492978D01*
X9855261Y23492979D01*
X9729964Y23512823D01*
X9729958Y23512823D01*
X9604660Y23492979D01*
X9604659Y23492979D01*
X9529298Y23454580D01*
X9491619Y23435381D01*
X9491618Y23435380D01*
X9491613Y23435377D01*
X9401915Y23345679D01*
X9401912Y23345674D01*
X9344313Y23232633D01*
X9344313Y23232632D01*
X9324469Y23107335D01*
X4069212Y23107335D01*
X4070176Y23109226D01*
X4070176Y23109228D01*
X4070177Y23109229D01*
X4070177Y23109230D01*
X4090022Y23234527D01*
X4090022Y23234534D01*
X4070177Y23359831D01*
X4070177Y23359832D01*
X4070176Y23359834D01*
X4012580Y23472872D01*
X4012576Y23472876D01*
X4012575Y23472878D01*
X3922877Y23562576D01*
X3922874Y23562578D01*
X3922872Y23562580D01*
X3809834Y23620176D01*
X3809833Y23620177D01*
X3809830Y23620178D01*
X3684533Y23640022D01*
X3684527Y23640022D01*
X3559229Y23620178D01*
X3559228Y23620178D01*
X3486279Y23583008D01*
X3446188Y23562580D01*
X3446186Y23562579D01*
X3437493Y23558149D01*
X3436809Y23559491D01*
X3381072Y23539607D01*
X3313019Y23555436D01*
X3264327Y23605545D01*
X3250000Y23663405D01*
X3250000Y24736831D01*
X3544508Y24736831D01*
X3544508Y24736824D01*
X3564352Y24611527D01*
X3564352Y24611526D01*
X3574400Y24591806D01*
X3621950Y24498485D01*
X3621952Y24498483D01*
X3621954Y24498480D01*
X3711652Y24408782D01*
X3711654Y24408781D01*
X3711658Y24408777D01*
X3824696Y24351181D01*
X3824697Y24351181D01*
X3824699Y24351180D01*
X3949997Y24331335D01*
X3950000Y24331335D01*
X3950003Y24331335D01*
X4075300Y24351180D01*
X4075301Y24351180D01*
X4075302Y24351181D01*
X4075304Y24351181D01*
X4188342Y24408777D01*
X4193254Y24413689D01*
X10630823Y24413689D01*
X10630823Y24413682D01*
X10650667Y24288385D01*
X10650667Y24288384D01*
X10650669Y24288381D01*
X10708265Y24175343D01*
X10708267Y24175341D01*
X10708269Y24175338D01*
X10797967Y24085640D01*
X10797969Y24085639D01*
X10797973Y24085635D01*
X10911011Y24028039D01*
X10911012Y24028039D01*
X10911014Y24028038D01*
X11036312Y24008193D01*
X11036315Y24008193D01*
X11036318Y24008193D01*
X11161615Y24028038D01*
X11161616Y24028038D01*
X11161617Y24028039D01*
X11161619Y24028039D01*
X11274657Y24085635D01*
X11364365Y24175343D01*
X11421961Y24288381D01*
X11421961Y24288383D01*
X11421962Y24288384D01*
X11421962Y24288385D01*
X11441807Y24413682D01*
X11441807Y24413689D01*
X11421962Y24538986D01*
X11421962Y24538987D01*
X11412112Y24558319D01*
X11364365Y24652027D01*
X11364361Y24652031D01*
X11364360Y24652033D01*
X11274662Y24741731D01*
X11274659Y24741733D01*
X11274657Y24741735D01*
X11161619Y24799331D01*
X11161618Y24799332D01*
X11161615Y24799333D01*
X11036318Y24819177D01*
X11036312Y24819177D01*
X10911014Y24799333D01*
X10911013Y24799333D01*
X10837074Y24761658D01*
X10797973Y24741735D01*
X10797972Y24741734D01*
X10797967Y24741731D01*
X10708269Y24652033D01*
X10708266Y24652028D01*
X10708265Y24652027D01*
X10701374Y24638502D01*
X10650667Y24538987D01*
X10650667Y24538986D01*
X10630823Y24413689D01*
X4193254Y24413689D01*
X4278050Y24498485D01*
X4314334Y24569697D01*
X4362304Y24620489D01*
X4430125Y24637285D01*
X4496260Y24614748D01*
X4512497Y24601080D01*
X4561652Y24551925D01*
X4561654Y24551924D01*
X4561658Y24551920D01*
X4674696Y24494324D01*
X4674697Y24494324D01*
X4674699Y24494323D01*
X4799997Y24474478D01*
X4800000Y24474478D01*
X4800003Y24474478D01*
X4925300Y24494323D01*
X4925301Y24494323D01*
X4925302Y24494324D01*
X4925304Y24494324D01*
X5038342Y24551920D01*
X5044743Y24558322D01*
X5106061Y24591806D01*
X5175753Y24586824D01*
X5188714Y24581128D01*
X5189160Y24580901D01*
X5189161Y24580901D01*
X5189163Y24580900D01*
X5314461Y24561055D01*
X5314464Y24561055D01*
X5314467Y24561055D01*
X5439764Y24580900D01*
X5439765Y24580900D01*
X5439766Y24580901D01*
X5439768Y24580901D01*
X5552806Y24638497D01*
X5642514Y24728205D01*
X5700110Y24841243D01*
X5700110Y24841245D01*
X5700111Y24841246D01*
X5700111Y24841247D01*
X5718679Y24958482D01*
X5748608Y25021617D01*
X5784860Y25049571D01*
X5814384Y25064614D01*
X5814383Y25064614D01*
X5814388Y25064616D01*
X5904096Y25154324D01*
X5919142Y25183855D01*
X5967114Y25234649D01*
X6010229Y25250032D01*
X6127464Y25268600D01*
X6127465Y25268600D01*
X6127466Y25268601D01*
X6127468Y25268601D01*
X6240506Y25326197D01*
X6330214Y25415905D01*
X6387810Y25528943D01*
X6387810Y25528945D01*
X6387811Y25528946D01*
X6387811Y25528947D01*
X6407656Y25654244D01*
X6407656Y25654251D01*
X6387811Y25779548D01*
X6387811Y25779549D01*
X6378329Y25798158D01*
X6330214Y25892589D01*
X6330210Y25892593D01*
X6330209Y25892595D01*
X6240511Y25982293D01*
X6240508Y25982295D01*
X6240506Y25982297D01*
X6127468Y26039893D01*
X6127467Y26039894D01*
X6127464Y26039895D01*
X6002167Y26059739D01*
X6002161Y26059739D01*
X5876863Y26039895D01*
X5876862Y26039895D01*
X5801501Y26001496D01*
X5763822Y25982297D01*
X5763821Y25982296D01*
X5763816Y25982293D01*
X5674115Y25892592D01*
X5659066Y25863057D01*
X5611090Y25812262D01*
X5567980Y25796881D01*
X5450744Y25778314D01*
X5375383Y25739915D01*
X5337704Y25720716D01*
X5337703Y25720715D01*
X5337698Y25720712D01*
X5248000Y25631014D01*
X5247997Y25631009D01*
X5190398Y25517968D01*
X5190398Y25517967D01*
X5171830Y25400731D01*
X5141901Y25337596D01*
X5105655Y25309646D01*
X5076123Y25294598D01*
X5069717Y25288192D01*
X5008393Y25254710D01*
X4938701Y25259697D01*
X4925749Y25265390D01*
X4925306Y25265616D01*
X4925301Y25265618D01*
X4813963Y25283251D01*
X4750829Y25313180D01*
X4722877Y25349428D01*
X4703050Y25388342D01*
X4703049Y25388343D01*
X4703045Y25388348D01*
X4613347Y25478046D01*
X4613344Y25478048D01*
X4613342Y25478050D01*
X4500304Y25535646D01*
X4500303Y25535647D01*
X4500300Y25535648D01*
X4375003Y25555492D01*
X4374997Y25555492D01*
X4249699Y25535648D01*
X4249698Y25535648D01*
X4174337Y25497249D01*
X4136658Y25478050D01*
X4136657Y25478049D01*
X4136652Y25478046D01*
X4046954Y25388348D01*
X4046951Y25388343D01*
X4046950Y25388342D01*
X4027751Y25350663D01*
X3989352Y25275302D01*
X3982854Y25234272D01*
X3952924Y25171137D01*
X3893612Y25134207D01*
X3879779Y25131198D01*
X3824698Y25122475D01*
X3749337Y25084076D01*
X3711658Y25064877D01*
X3711657Y25064876D01*
X3711652Y25064873D01*
X3621954Y24975175D01*
X3621951Y24975170D01*
X3564352Y24862129D01*
X3564352Y24862128D01*
X3544508Y24736831D01*
X3250000Y24736831D01*
X3250000Y26850004D01*
X3594508Y26850004D01*
X3594508Y26849997D01*
X3614352Y26724700D01*
X3614352Y26724699D01*
X3614354Y26724696D01*
X3671950Y26611658D01*
X3671952Y26611656D01*
X3671954Y26611653D01*
X3761652Y26521955D01*
X3761654Y26521954D01*
X3761658Y26521950D01*
X3874696Y26464354D01*
X3874697Y26464354D01*
X3874699Y26464353D01*
X3999997Y26444508D01*
X4000000Y26444508D01*
X4000003Y26444508D01*
X4125300Y26464353D01*
X4125301Y26464353D01*
X4125302Y26464354D01*
X4125304Y26464354D01*
X4238342Y26521950D01*
X4328050Y26611658D01*
X4385646Y26724696D01*
X4385646Y26724698D01*
X4385647Y26724699D01*
X4385647Y26724700D01*
X4405492Y26849997D01*
X4405492Y26850004D01*
X4385647Y26975301D01*
X4385647Y26975302D01*
X4385646Y26975304D01*
X4328050Y27088342D01*
X4328046Y27088346D01*
X4328045Y27088348D01*
X4238347Y27178046D01*
X4238344Y27178048D01*
X4238342Y27178050D01*
X4125304Y27235646D01*
X4125303Y27235647D01*
X4125300Y27235648D01*
X4000003Y27255492D01*
X3999997Y27255492D01*
X3874699Y27235648D01*
X3874698Y27235648D01*
X3799337Y27197249D01*
X3761658Y27178050D01*
X3761657Y27178049D01*
X3761652Y27178046D01*
X3671954Y27088348D01*
X3671951Y27088343D01*
X3614352Y26975302D01*
X3614352Y26975301D01*
X3594508Y26850004D01*
X3250000Y26850004D01*
X3250000Y30062504D01*
X4469508Y30062504D01*
X4469508Y30062497D01*
X4489352Y29937200D01*
X4489352Y29937199D01*
X4489354Y29937196D01*
X4546950Y29824158D01*
X4546952Y29824156D01*
X4546954Y29824153D01*
X4636652Y29734455D01*
X4636654Y29734454D01*
X4636658Y29734450D01*
X4749696Y29676854D01*
X4749697Y29676854D01*
X4749699Y29676853D01*
X4874997Y29657008D01*
X4875000Y29657008D01*
X4875003Y29657008D01*
X5000300Y29676853D01*
X5000301Y29676853D01*
X5000302Y29676854D01*
X5000304Y29676854D01*
X5113342Y29734450D01*
X5203050Y29824158D01*
X5260646Y29937196D01*
X5260646Y29937198D01*
X5260647Y29937199D01*
X5260647Y29937200D01*
X5280492Y30062497D01*
X5280492Y30062504D01*
X5260647Y30187801D01*
X5260647Y30187802D01*
X5257639Y30193706D01*
X5203050Y30300842D01*
X5203046Y30300846D01*
X5203045Y30300848D01*
X5113347Y30390546D01*
X5113344Y30390548D01*
X5113342Y30390550D01*
X5000304Y30448146D01*
X5000303Y30448147D01*
X5000300Y30448148D01*
X4875003Y30467992D01*
X4874997Y30467992D01*
X4749699Y30448148D01*
X4749698Y30448148D01*
X4674337Y30409749D01*
X4636658Y30390550D01*
X4636657Y30390549D01*
X4636652Y30390546D01*
X4546954Y30300848D01*
X4546951Y30300843D01*
X4489352Y30187802D01*
X4489352Y30187801D01*
X4469508Y30062504D01*
X3250000Y30062504D01*
X3250000Y32000004D01*
X5594508Y32000004D01*
X5594508Y31999997D01*
X5614352Y31874700D01*
X5614353Y31874696D01*
X5649206Y31806294D01*
X5662102Y31737625D01*
X5649206Y31693706D01*
X5614353Y31625305D01*
X5614352Y31625301D01*
X5594508Y31500004D01*
X5594508Y31499997D01*
X5614352Y31374700D01*
X5614353Y31374696D01*
X5649206Y31306294D01*
X5662102Y31237625D01*
X5649206Y31193706D01*
X5614353Y31125305D01*
X5614352Y31125301D01*
X5594508Y31000004D01*
X5594508Y30999997D01*
X5614352Y30874700D01*
X5614353Y30874696D01*
X5649206Y30806294D01*
X5662102Y30737625D01*
X5649206Y30693706D01*
X5614353Y30625305D01*
X5614352Y30625301D01*
X5594508Y30500004D01*
X5594508Y30499997D01*
X5614352Y30374700D01*
X5614352Y30374699D01*
X5620673Y30362294D01*
X5671950Y30261658D01*
X5671952Y30261656D01*
X5671954Y30261653D01*
X5761652Y30171955D01*
X5761654Y30171954D01*
X5761658Y30171950D01*
X5874696Y30114354D01*
X5874697Y30114354D01*
X5874699Y30114353D01*
X5999997Y30094508D01*
X6000000Y30094508D01*
X6000003Y30094508D01*
X6125300Y30114353D01*
X6125301Y30114353D01*
X6125302Y30114354D01*
X6125304Y30114354D01*
X6238342Y30171950D01*
X6328050Y30261658D01*
X6385646Y30374696D01*
X6385646Y30374698D01*
X6385647Y30374699D01*
X6385647Y30374700D01*
X6405492Y30499997D01*
X6405492Y30500004D01*
X6385647Y30625301D01*
X6385646Y30625304D01*
X6350794Y30693704D01*
X6337897Y30762374D01*
X6350794Y30806296D01*
X6385646Y30874696D01*
X6385742Y30875302D01*
X6405492Y30999997D01*
X6405492Y31000004D01*
X6385647Y31125301D01*
X6385646Y31125304D01*
X6350794Y31193704D01*
X6337897Y31262374D01*
X6350794Y31306296D01*
X6385646Y31374696D01*
X6405492Y31500000D01*
X6405492Y31500004D01*
X6385647Y31625301D01*
X6385646Y31625304D01*
X6350794Y31693704D01*
X6337897Y31762374D01*
X6350794Y31806296D01*
X6385646Y31874696D01*
X6405492Y32000000D01*
X6405492Y32000004D01*
X6385647Y32125301D01*
X6385647Y32125302D01*
X6385645Y32125305D01*
X6328050Y32238342D01*
X6328046Y32238346D01*
X6328045Y32238348D01*
X6238347Y32328046D01*
X6238344Y32328048D01*
X6238342Y32328050D01*
X6125304Y32385646D01*
X6125303Y32385647D01*
X6125300Y32385648D01*
X6000003Y32405492D01*
X5999997Y32405492D01*
X5874699Y32385648D01*
X5874698Y32385648D01*
X5799337Y32347249D01*
X5761658Y32328050D01*
X5761657Y32328049D01*
X5761652Y32328046D01*
X5671954Y32238348D01*
X5671951Y32238343D01*
X5614352Y32125302D01*
X5614352Y32125301D01*
X5594508Y32000004D01*
X3250000Y32000004D01*
X3250000Y34250004D01*
X4594508Y34250004D01*
X4594508Y34249997D01*
X4614352Y34124700D01*
X4614352Y34124699D01*
X4614354Y34124696D01*
X4671950Y34011658D01*
X4671952Y34011656D01*
X4671954Y34011653D01*
X4761652Y33921955D01*
X4761654Y33921954D01*
X4761658Y33921950D01*
X4874696Y33864354D01*
X4874697Y33864354D01*
X4874699Y33864353D01*
X4999997Y33844508D01*
X5000000Y33844508D01*
X5000003Y33844508D01*
X5125300Y33864353D01*
X5125301Y33864353D01*
X5125302Y33864354D01*
X5125304Y33864354D01*
X5238342Y33921950D01*
X5328050Y34011658D01*
X5385646Y34124696D01*
X5385646Y34124698D01*
X5389515Y34132290D01*
X5437490Y34183086D01*
X5505311Y34199881D01*
X5571446Y34177343D01*
X5610485Y34132289D01*
X5649206Y34056294D01*
X5662102Y33987625D01*
X5649206Y33943706D01*
X5614353Y33875305D01*
X5614352Y33875301D01*
X5594508Y33750004D01*
X5594508Y33749997D01*
X5614352Y33624700D01*
X5614352Y33624699D01*
X5614354Y33624696D01*
X5671950Y33511658D01*
X5671952Y33511656D01*
X5671954Y33511653D01*
X5761652Y33421955D01*
X5761654Y33421954D01*
X5761658Y33421950D01*
X5874696Y33364354D01*
X5874697Y33364354D01*
X5874699Y33364353D01*
X5999997Y33344508D01*
X6000000Y33344508D01*
X6000003Y33344508D01*
X6125300Y33364353D01*
X6125301Y33364353D01*
X6125302Y33364354D01*
X6125304Y33364354D01*
X6238342Y33421950D01*
X6328050Y33511658D01*
X6385646Y33624696D01*
X6385646Y33624698D01*
X6385647Y33624699D01*
X6385647Y33624700D01*
X6405492Y33749997D01*
X6405492Y33750004D01*
X6385647Y33875301D01*
X6385646Y33875304D01*
X6385645Y33875305D01*
X6350793Y33943705D01*
X6337897Y34012374D01*
X6350794Y34056296D01*
X6385646Y34124696D01*
X6385646Y34124698D01*
X6385647Y34124700D01*
X6405492Y34249997D01*
X6405492Y34250004D01*
X6385647Y34375301D01*
X6385646Y34375304D01*
X6350794Y34443704D01*
X6337897Y34512374D01*
X6350794Y34556296D01*
X6357268Y34569001D01*
X6385646Y34624696D01*
X6385647Y34624700D01*
X6405492Y34749997D01*
X6405492Y34750004D01*
X6385647Y34875301D01*
X6385646Y34875304D01*
X6350794Y34943704D01*
X6337897Y35012374D01*
X6350794Y35056296D01*
X6385646Y35124696D01*
X6385647Y35124700D01*
X6405492Y35249997D01*
X6405492Y35250004D01*
X6385647Y35375301D01*
X6385646Y35375304D01*
X6350794Y35443704D01*
X6337897Y35512374D01*
X6350794Y35556296D01*
X6385646Y35624696D01*
X6385647Y35624700D01*
X6405492Y35749997D01*
X6405492Y35750004D01*
X6385647Y35875301D01*
X6385647Y35875302D01*
X6385646Y35875304D01*
X6328050Y35988342D01*
X6328046Y35988346D01*
X6328045Y35988348D01*
X6238347Y36078046D01*
X6238344Y36078048D01*
X6238342Y36078050D01*
X6125304Y36135646D01*
X6125303Y36135647D01*
X6125300Y36135648D01*
X6000003Y36155492D01*
X5999997Y36155492D01*
X5874699Y36135648D01*
X5874698Y36135648D01*
X5799337Y36097249D01*
X5761658Y36078050D01*
X5761657Y36078049D01*
X5761652Y36078046D01*
X5671954Y35988348D01*
X5671951Y35988343D01*
X5614352Y35875302D01*
X5614352Y35875301D01*
X5594508Y35750004D01*
X5594508Y35749997D01*
X5614352Y35624700D01*
X5614353Y35624696D01*
X5649206Y35556294D01*
X5662102Y35487625D01*
X5649206Y35443706D01*
X5614353Y35375305D01*
X5614352Y35375301D01*
X5594508Y35250004D01*
X5594508Y35249997D01*
X5614352Y35124700D01*
X5614353Y35124696D01*
X5649206Y35056294D01*
X5662102Y34987625D01*
X5649206Y34943706D01*
X5614353Y34875305D01*
X5614352Y34875301D01*
X5594508Y34750004D01*
X5594508Y34749997D01*
X5614352Y34624700D01*
X5614353Y34624696D01*
X5649206Y34556294D01*
X5662102Y34487625D01*
X5649206Y34443705D01*
X5610485Y34367711D01*
X5562510Y34316915D01*
X5494689Y34300120D01*
X5428554Y34322657D01*
X5389516Y34367710D01*
X5344788Y34455492D01*
X5328050Y34488342D01*
X5328047Y34488345D01*
X5328045Y34488348D01*
X5238347Y34578046D01*
X5238344Y34578048D01*
X5238342Y34578050D01*
X5125304Y34635646D01*
X5125303Y34635647D01*
X5125300Y34635648D01*
X5000003Y34655492D01*
X4999997Y34655492D01*
X4874699Y34635648D01*
X4874698Y34635648D01*
X4799337Y34597249D01*
X4761658Y34578050D01*
X4761657Y34578049D01*
X4761652Y34578046D01*
X4671954Y34488348D01*
X4671951Y34488343D01*
X4671950Y34488342D01*
X4671585Y34487625D01*
X4614352Y34375302D01*
X4614352Y34375301D01*
X4594508Y34250004D01*
X3250000Y34250004D01*
X3250000Y36876000D01*
X3269685Y36943039D01*
X3322489Y36988794D01*
X3374000Y37000000D01*
X6876000Y37000000D01*
X6943039Y36980315D01*
G37*
%TD.AperFunction*%
%TD*%
%TA.AperFunction,Conductor*%
%TO.N,+5V*%
G36*
X3305957Y45980315D02*
G01*
X3351712Y45927511D01*
X3361656Y45858353D01*
X3361391Y45856603D01*
X3344508Y45750004D01*
X3344508Y45749997D01*
X3364352Y45624700D01*
X3364353Y45624696D01*
X3399206Y45556294D01*
X3412102Y45487625D01*
X3399206Y45443706D01*
X3364353Y45375305D01*
X3364352Y45375301D01*
X3344508Y45250004D01*
X3344508Y45249997D01*
X3364352Y45124700D01*
X3364352Y45124699D01*
X3382805Y45088483D01*
X3421950Y45011658D01*
X3421952Y45011656D01*
X3421954Y45011653D01*
X3511652Y44921955D01*
X3511656Y44921952D01*
X3511658Y44921950D01*
X3533251Y44910948D01*
X3584046Y44862974D01*
X3600841Y44795153D01*
X3599428Y44781067D01*
X3594508Y44750003D01*
X3594508Y44749997D01*
X3614352Y44624700D01*
X3614353Y44624696D01*
X3649206Y44556294D01*
X3662102Y44487625D01*
X3649206Y44443706D01*
X3614353Y44375305D01*
X3614352Y44375301D01*
X3594508Y44250004D01*
X3594508Y44249997D01*
X3614352Y44124700D01*
X3614353Y44124696D01*
X3649206Y44056294D01*
X3662102Y43987625D01*
X3649206Y43943706D01*
X3614353Y43875305D01*
X3614352Y43875301D01*
X3594508Y43750004D01*
X3594508Y43749997D01*
X3614352Y43624700D01*
X3614353Y43624696D01*
X3649206Y43556294D01*
X3662102Y43487625D01*
X3649206Y43443706D01*
X3614353Y43375305D01*
X3614352Y43375301D01*
X3594508Y43250004D01*
X3594508Y43250000D01*
X3599428Y43218932D01*
X3590471Y43149639D01*
X3545474Y43096188D01*
X3533252Y43089054D01*
X3511657Y43078051D01*
X3511657Y43078050D01*
X3421954Y42988348D01*
X3421951Y42988343D01*
X3364352Y42875302D01*
X3364352Y42875301D01*
X3344508Y42750004D01*
X3344508Y42749997D01*
X3364352Y42624700D01*
X3364353Y42624696D01*
X3399206Y42556294D01*
X3412102Y42487625D01*
X3399206Y42443706D01*
X3364353Y42375305D01*
X3364352Y42375301D01*
X3344508Y42250004D01*
X3344508Y42249997D01*
X3364352Y42124700D01*
X3364352Y42124699D01*
X3376533Y42100794D01*
X3421950Y42011658D01*
X3421952Y42011656D01*
X3421954Y42011653D01*
X3511652Y41921955D01*
X3511654Y41921954D01*
X3511658Y41921950D01*
X3624696Y41864354D01*
X3742607Y41845679D01*
X3805738Y41815752D01*
X3842669Y41756441D01*
X3845679Y41742604D01*
X3864352Y41624700D01*
X3864352Y41624699D01*
X3865752Y41621952D01*
X3921950Y41511658D01*
X3921952Y41511656D01*
X3921954Y41511653D01*
X4011652Y41421955D01*
X4011654Y41421954D01*
X4011658Y41421950D01*
X4124696Y41364354D01*
X4124697Y41364354D01*
X4124699Y41364353D01*
X4249997Y41344508D01*
X4250000Y41344508D01*
X4250003Y41344508D01*
X4375300Y41364353D01*
X4375302Y41364354D01*
X4375304Y41364354D01*
X4443704Y41399207D01*
X4512374Y41412103D01*
X4556294Y41399207D01*
X4589440Y41382318D01*
X4624696Y41364354D01*
X4624699Y41364353D01*
X4749997Y41344508D01*
X4750000Y41344508D01*
X4750003Y41344508D01*
X4875300Y41364353D01*
X4875302Y41364354D01*
X4875304Y41364354D01*
X4943704Y41399207D01*
X5012374Y41412103D01*
X5056294Y41399207D01*
X5089440Y41382318D01*
X5124696Y41364354D01*
X5124699Y41364353D01*
X5249997Y41344508D01*
X5250000Y41344508D01*
X5250003Y41344508D01*
X5375300Y41364353D01*
X5375301Y41364353D01*
X5375302Y41364354D01*
X5375304Y41364354D01*
X5488342Y41421950D01*
X5578050Y41511658D01*
X5635646Y41624696D01*
X5635646Y41624698D01*
X5635647Y41624699D01*
X5635647Y41624700D01*
X5655492Y41749997D01*
X5655492Y41750004D01*
X5635647Y41875301D01*
X5635647Y41875302D01*
X5630375Y41885648D01*
X5578050Y41988342D01*
X5578046Y41988346D01*
X5578045Y41988348D01*
X5488347Y42078046D01*
X5488344Y42078048D01*
X5488342Y42078050D01*
X5375304Y42135646D01*
X5375303Y42135647D01*
X5375300Y42135648D01*
X5250003Y42155492D01*
X5249997Y42155492D01*
X5124699Y42135648D01*
X5124695Y42135647D01*
X5056294Y42100794D01*
X4987625Y42087898D01*
X4943706Y42100794D01*
X4875304Y42135647D01*
X4875300Y42135648D01*
X4750003Y42155492D01*
X4749997Y42155492D01*
X4624699Y42135648D01*
X4624695Y42135647D01*
X4556294Y42100794D01*
X4487625Y42087898D01*
X4443706Y42100794D01*
X4375304Y42135647D01*
X4375300Y42135648D01*
X4257396Y42154321D01*
X4194261Y42184250D01*
X4157329Y42243561D01*
X4154324Y42257373D01*
X4135646Y42375304D01*
X4100793Y42443705D01*
X4087897Y42512374D01*
X4100794Y42556296D01*
X4135646Y42624696D01*
X4135646Y42624698D01*
X4135647Y42624700D01*
X4155492Y42749997D01*
X4155492Y42749998D01*
X4155491Y42750004D01*
X4154618Y42755517D01*
X4163569Y42824808D01*
X4208562Y42878263D01*
X4275312Y42898906D01*
X4333384Y42885404D01*
X4363521Y42870048D01*
X4374696Y42864354D01*
X4374699Y42864353D01*
X4499997Y42844508D01*
X4500000Y42844508D01*
X4500003Y42844508D01*
X4625300Y42864353D01*
X4625301Y42864353D01*
X4625302Y42864354D01*
X4625304Y42864354D01*
X4738342Y42921950D01*
X4828050Y43011658D01*
X4885646Y43124696D01*
X4885646Y43124698D01*
X4885647Y43124699D01*
X4885647Y43124700D01*
X4905492Y43249997D01*
X4905492Y43250004D01*
X4885647Y43375301D01*
X4885646Y43375304D01*
X4850794Y43443704D01*
X4837897Y43512374D01*
X4850794Y43556296D01*
X4885646Y43624696D01*
X4905492Y43750000D01*
X4905492Y43750004D01*
X4885647Y43875301D01*
X4885646Y43875304D01*
X4872737Y43900639D01*
X4850793Y43943705D01*
X4837897Y44012374D01*
X4850794Y44056296D01*
X4885646Y44124696D01*
X4905492Y44250000D01*
X4905492Y44250004D01*
X4885647Y44375301D01*
X4885646Y44375304D01*
X4850794Y44443704D01*
X4837897Y44512374D01*
X4850794Y44556296D01*
X4870040Y44594068D01*
X4885646Y44624696D01*
X4885647Y44624700D01*
X4905492Y44749997D01*
X4905492Y44750004D01*
X4885647Y44875301D01*
X4885647Y44875302D01*
X4873467Y44899206D01*
X4828050Y44988342D01*
X4828046Y44988346D01*
X4828045Y44988348D01*
X4738347Y45078046D01*
X4738344Y45078048D01*
X4738342Y45078050D01*
X4625304Y45135646D01*
X4625303Y45135647D01*
X4625300Y45135648D01*
X4500003Y45155492D01*
X4499997Y45155492D01*
X4374699Y45135648D01*
X4374695Y45135647D01*
X4333384Y45114597D01*
X4264715Y45101701D01*
X4199975Y45127978D01*
X4159718Y45185084D01*
X4154618Y45244485D01*
X4155492Y45250000D01*
X4155491Y45250003D01*
X4155492Y45250004D01*
X4135647Y45375301D01*
X4135646Y45375304D01*
X4100794Y45443704D01*
X4087897Y45512374D01*
X4100794Y45556296D01*
X4111152Y45576624D01*
X4135646Y45624696D01*
X4136854Y45632323D01*
X4155492Y45749997D01*
X4155492Y45750004D01*
X4138609Y45856603D01*
X4147564Y45925896D01*
X4192560Y45979348D01*
X4259312Y45999987D01*
X4261082Y46000000D01*
X5738918Y46000000D01*
X5805957Y45980315D01*
X5851712Y45927511D01*
X5861656Y45858353D01*
X5861391Y45856603D01*
X5844508Y45750004D01*
X5844508Y45749997D01*
X5864352Y45624700D01*
X5864353Y45624696D01*
X5899206Y45556294D01*
X5912102Y45487625D01*
X5899206Y45443706D01*
X5864353Y45375305D01*
X5864352Y45375301D01*
X5844508Y45250004D01*
X5844508Y45249997D01*
X5864352Y45124700D01*
X5864353Y45124696D01*
X5899206Y45056294D01*
X5912102Y44987625D01*
X5899206Y44943706D01*
X5864353Y44875305D01*
X5864352Y44875301D01*
X5844508Y44750004D01*
X5844508Y44749997D01*
X5864352Y44624700D01*
X5864353Y44624696D01*
X5899206Y44556294D01*
X5912102Y44487625D01*
X5899206Y44443706D01*
X5864353Y44375305D01*
X5864352Y44375301D01*
X5844508Y44250004D01*
X5844508Y44249997D01*
X5864352Y44124700D01*
X5864353Y44124696D01*
X5899206Y44056294D01*
X5912102Y43987625D01*
X5899206Y43943706D01*
X5864353Y43875305D01*
X5864352Y43875301D01*
X5844508Y43750004D01*
X5844508Y43749997D01*
X5864352Y43624700D01*
X5864353Y43624696D01*
X5899206Y43556294D01*
X5912102Y43487625D01*
X5899206Y43443706D01*
X5864353Y43375305D01*
X5864352Y43375301D01*
X5844508Y43250004D01*
X5844508Y43249997D01*
X5864352Y43124700D01*
X5864353Y43124696D01*
X5899206Y43056294D01*
X5912102Y42987625D01*
X5899206Y42943706D01*
X5864353Y42875305D01*
X5864352Y42875301D01*
X5844508Y42750004D01*
X5844508Y42749997D01*
X5864352Y42624700D01*
X5864352Y42624699D01*
X5864354Y42624696D01*
X5921950Y42511658D01*
X5921952Y42511656D01*
X5921954Y42511653D01*
X6011652Y42421955D01*
X6011654Y42421954D01*
X6011658Y42421950D01*
X6124696Y42364354D01*
X6124698Y42364354D01*
X6133392Y42359924D01*
X6132674Y42358516D01*
X6181304Y42325266D01*
X6207785Y42266167D01*
X6214352Y42224700D01*
X6214352Y42224699D01*
X6214354Y42224696D01*
X6271950Y42111658D01*
X6271952Y42111656D01*
X6271954Y42111653D01*
X6361652Y42021955D01*
X6361654Y42021954D01*
X6361658Y42021950D01*
X6474696Y41964354D01*
X6506276Y41959353D01*
X6569410Y41929424D01*
X6606341Y41870113D01*
X6609351Y41856278D01*
X6614353Y41824699D01*
X6614352Y41824699D01*
X6614354Y41824696D01*
X6671950Y41711658D01*
X6671952Y41711656D01*
X6671954Y41711653D01*
X6761652Y41621955D01*
X6761654Y41621954D01*
X6761658Y41621950D01*
X6874696Y41564354D01*
X6874697Y41564354D01*
X6874699Y41564353D01*
X7000725Y41544393D01*
X7063860Y41514464D01*
X7100792Y41455153D01*
X7103801Y41441319D01*
X7114353Y41374699D01*
X7114353Y41374696D01*
X7149206Y41306294D01*
X7162102Y41237625D01*
X7149206Y41193706D01*
X7114353Y41125305D01*
X7114352Y41125301D01*
X7094508Y41000004D01*
X7094508Y40999997D01*
X7114352Y40874700D01*
X7114353Y40874696D01*
X7149206Y40806294D01*
X7162102Y40737625D01*
X7149206Y40693706D01*
X7114353Y40625305D01*
X7114352Y40625301D01*
X7094508Y40500004D01*
X7094508Y40499997D01*
X7114352Y40374700D01*
X7114353Y40374696D01*
X7149206Y40306294D01*
X7162102Y40237625D01*
X7149206Y40193706D01*
X7114353Y40125305D01*
X7114352Y40125301D01*
X7094508Y40000004D01*
X7094508Y39999997D01*
X7114352Y39874700D01*
X7114353Y39874696D01*
X7149206Y39806294D01*
X7162102Y39737625D01*
X7149206Y39693706D01*
X7114353Y39625305D01*
X7114352Y39625301D01*
X7094508Y39500004D01*
X7094508Y39499997D01*
X7114352Y39374700D01*
X7114353Y39374696D01*
X7149206Y39306294D01*
X7162102Y39237625D01*
X7149206Y39193706D01*
X7114353Y39125305D01*
X7114352Y39125301D01*
X7094508Y39000004D01*
X7094508Y38999997D01*
X7114352Y38874700D01*
X7114353Y38874696D01*
X7149206Y38806294D01*
X7162102Y38737625D01*
X7149206Y38693706D01*
X7114353Y38625305D01*
X7114352Y38625301D01*
X7094508Y38500004D01*
X7094508Y38499997D01*
X7114352Y38374700D01*
X7114353Y38374696D01*
X7149206Y38306294D01*
X7162102Y38237625D01*
X7149206Y38193706D01*
X7114353Y38125305D01*
X7114352Y38125301D01*
X7094508Y38000004D01*
X7094508Y37999997D01*
X7114352Y37874700D01*
X7114353Y37874696D01*
X7149206Y37806294D01*
X7162102Y37737625D01*
X7149206Y37693706D01*
X7114353Y37625305D01*
X7114352Y37625301D01*
X7094508Y37500004D01*
X7094508Y37500003D01*
X7094508Y37500000D01*
X7099706Y37467181D01*
X7113324Y37381196D01*
X7104368Y37311902D01*
X7059371Y37258451D01*
X6992620Y37237812D01*
X6955916Y37242822D01*
X6947994Y37245148D01*
X6947978Y37245152D01*
X6876001Y37255500D01*
X6876000Y37255500D01*
X6371255Y37255500D01*
X6304216Y37275185D01*
X6258461Y37327989D01*
X6248517Y37397147D01*
X6277542Y37460703D01*
X6283574Y37467181D01*
X6328045Y37511653D01*
X6328050Y37511658D01*
X6385646Y37624696D01*
X6385646Y37624698D01*
X6385647Y37624699D01*
X6385647Y37624700D01*
X6405492Y37749997D01*
X6405492Y37750004D01*
X6385647Y37875301D01*
X6385646Y37875304D01*
X6359606Y37926410D01*
X6350793Y37943705D01*
X6337897Y38012374D01*
X6350794Y38056296D01*
X6362547Y38079362D01*
X6385646Y38124696D01*
X6385742Y38125301D01*
X6405492Y38249997D01*
X6405492Y38250004D01*
X6385647Y38375301D01*
X6385646Y38375304D01*
X6350794Y38443704D01*
X6337897Y38512374D01*
X6350794Y38556296D01*
X6385646Y38624696D01*
X6385742Y38625301D01*
X6405492Y38749997D01*
X6405492Y38750004D01*
X6385647Y38875301D01*
X6385646Y38875304D01*
X6379341Y38887678D01*
X6350793Y38943705D01*
X6337897Y39012374D01*
X6350794Y39056296D01*
X6385646Y39124696D01*
X6385742Y39125301D01*
X6405492Y39249997D01*
X6405492Y39250004D01*
X6385647Y39375301D01*
X6385646Y39375304D01*
X6350794Y39443704D01*
X6337897Y39512374D01*
X6350794Y39556296D01*
X6360323Y39574997D01*
X6385646Y39624696D01*
X6385742Y39625301D01*
X6405492Y39749997D01*
X6405492Y39750004D01*
X6385647Y39875301D01*
X6385646Y39875304D01*
X6359849Y39925933D01*
X6350793Y39943705D01*
X6337897Y40012374D01*
X6350794Y40056296D01*
X6385646Y40124696D01*
X6385742Y40125301D01*
X6405492Y40249997D01*
X6405492Y40250004D01*
X6385647Y40375301D01*
X6385646Y40375304D01*
X6385645Y40375305D01*
X6350793Y40443705D01*
X6337897Y40512374D01*
X6350794Y40556296D01*
X6371883Y40597685D01*
X6385646Y40624696D01*
X6385646Y40624698D01*
X6385647Y40624700D01*
X6405492Y40749997D01*
X6405492Y40750004D01*
X6385647Y40875301D01*
X6385647Y40875302D01*
X6385646Y40875304D01*
X6328050Y40988342D01*
X6328046Y40988346D01*
X6328045Y40988348D01*
X6238347Y41078046D01*
X6238344Y41078048D01*
X6238342Y41078050D01*
X6125304Y41135646D01*
X6125303Y41135647D01*
X6125300Y41135648D01*
X6000003Y41155492D01*
X5999997Y41155492D01*
X5874699Y41135648D01*
X5874698Y41135648D01*
X5830912Y41113337D01*
X5761658Y41078050D01*
X5761657Y41078049D01*
X5761652Y41078046D01*
X5671954Y40988348D01*
X5671951Y40988343D01*
X5614352Y40875302D01*
X5614352Y40875301D01*
X5594508Y40750004D01*
X5594508Y40749997D01*
X5614352Y40624700D01*
X5614353Y40624696D01*
X5649206Y40556294D01*
X5662102Y40487625D01*
X5649206Y40443706D01*
X5614353Y40375305D01*
X5614352Y40375301D01*
X5594508Y40250004D01*
X5594508Y40249997D01*
X5614352Y40124700D01*
X5614353Y40124696D01*
X5649206Y40056294D01*
X5662102Y39987625D01*
X5649206Y39943706D01*
X5614353Y39875305D01*
X5614352Y39875301D01*
X5594508Y39750004D01*
X5594508Y39749997D01*
X5614352Y39624700D01*
X5614353Y39624696D01*
X5649206Y39556294D01*
X5662102Y39487625D01*
X5649206Y39443706D01*
X5614353Y39375305D01*
X5614352Y39375301D01*
X5594508Y39250004D01*
X5594508Y39249997D01*
X5614352Y39124700D01*
X5614353Y39124696D01*
X5649206Y39056294D01*
X5662102Y38987625D01*
X5649206Y38943706D01*
X5614353Y38875305D01*
X5614352Y38875301D01*
X5594508Y38750004D01*
X5594508Y38749997D01*
X5614352Y38624700D01*
X5614353Y38624696D01*
X5649206Y38556294D01*
X5662102Y38487625D01*
X5649206Y38443706D01*
X5614353Y38375305D01*
X5614352Y38375301D01*
X5594508Y38250004D01*
X5594508Y38249997D01*
X5614352Y38124700D01*
X5614353Y38124696D01*
X5649206Y38056294D01*
X5662102Y37987625D01*
X5649206Y37943706D01*
X5614353Y37875305D01*
X5614352Y37875301D01*
X5594508Y37750004D01*
X5594508Y37749997D01*
X5614352Y37624700D01*
X5614352Y37624699D01*
X5614354Y37624696D01*
X5671950Y37511658D01*
X5671952Y37511656D01*
X5671954Y37511653D01*
X5716426Y37467181D01*
X5749911Y37405858D01*
X5744927Y37336166D01*
X5703055Y37280233D01*
X5637591Y37255816D01*
X5628745Y37255500D01*
X3373997Y37255500D01*
X3319687Y37249662D01*
X3268181Y37238457D01*
X3268172Y37238454D01*
X3241807Y37231221D01*
X3241796Y37231217D01*
X3155181Y37181895D01*
X3155173Y37181889D01*
X3102371Y37136137D01*
X3070743Y37103360D01*
X3024534Y37015023D01*
X3024533Y37015023D01*
X3004851Y36947991D01*
X3004848Y36947979D01*
X2994500Y36876002D01*
X2994500Y36876000D01*
X2994500Y34250001D01*
X2994500Y32000001D01*
X2994500Y30062501D01*
X2994500Y26850001D01*
X2994500Y24736828D01*
X2994500Y24413686D01*
X2994500Y23663405D01*
X3001950Y23602318D01*
X3001991Y23601987D01*
X3016315Y23544138D01*
X3023623Y23521369D01*
X3026898Y23511165D01*
X3081089Y23427489D01*
X3081092Y23427486D01*
X3081096Y23427481D01*
X3129777Y23377384D01*
X3129786Y23377375D01*
X3164308Y23347673D01*
X3164310Y23347672D01*
X3207688Y23328046D01*
X3260653Y23282477D01*
X3279047Y23234469D01*
X3298882Y23109229D01*
X3298883Y23109228D01*
X3300596Y23105866D01*
X3301445Y23101344D01*
X3301899Y23099947D01*
X3301718Y23099889D01*
X3313491Y23037196D01*
X3287213Y22972456D01*
X3277798Y22961899D01*
X3272108Y22956210D01*
X3272108Y22956208D01*
X3214508Y22843165D01*
X3214508Y22843164D01*
X3194664Y22717867D01*
X3194664Y22717861D01*
X3214508Y22592563D01*
X3214509Y22592562D01*
X3214509Y22592561D01*
X3214510Y22592559D01*
X3233156Y22555964D01*
X3233457Y22555373D01*
X3246352Y22486703D01*
X3233456Y22442785D01*
X3183196Y22344146D01*
X3183196Y22344145D01*
X3163352Y22218848D01*
X3163352Y22218847D01*
X3177147Y22131742D01*
X3168191Y22062448D01*
X3135878Y22018634D01*
X3102373Y21989602D01*
X3070743Y21956823D01*
X3024534Y21868486D01*
X3024533Y21868486D01*
X3004851Y21801454D01*
X3004848Y21801442D01*
X2994500Y21729465D01*
X2994500Y21729463D01*
X2994500Y21478486D01*
X2994500Y18250001D01*
X2994500Y18076920D01*
X2994507Y18075041D01*
X2994519Y18073375D01*
X2994520Y18073268D01*
X3005912Y17999689D01*
X3005915Y17999674D01*
X3026545Y17932947D01*
X3026546Y17932943D01*
X3043832Y17890785D01*
X3048328Y17883145D01*
X3046872Y17882289D01*
X3069427Y17827276D01*
X3056774Y17758562D01*
X3056576Y17758171D01*
X3014353Y17675305D01*
X3014352Y17675301D01*
X2994508Y17550004D01*
X2994508Y17549997D01*
X3014352Y17424700D01*
X3014352Y17424699D01*
X3014354Y17424696D01*
X3071950Y17311658D01*
X3071952Y17311656D01*
X3071954Y17311653D01*
X3161652Y17221955D01*
X3161654Y17221954D01*
X3161658Y17221950D01*
X3274696Y17164354D01*
X3274697Y17164354D01*
X3274699Y17164353D01*
X3399997Y17144508D01*
X3400000Y17144508D01*
X3400003Y17144508D01*
X3525300Y17164353D01*
X3525301Y17164353D01*
X3525302Y17164354D01*
X3525304Y17164354D01*
X3638342Y17221950D01*
X3659187Y17242796D01*
X3720509Y17276281D01*
X3781804Y17274092D01*
X3847332Y17254850D01*
X3847336Y17254850D01*
X3847338Y17254849D01*
X3858969Y17253177D01*
X3919317Y17244500D01*
X10738047Y17244500D01*
X10805086Y17224815D01*
X10850841Y17172011D01*
X10860785Y17102853D01*
X10860520Y17101103D01*
X10844508Y17000004D01*
X10844508Y16999997D01*
X10864352Y16874700D01*
X10864352Y16874699D01*
X10864354Y16874696D01*
X10921950Y16761658D01*
X10921952Y16761656D01*
X10921954Y16761653D01*
X11011652Y16671955D01*
X11011654Y16671954D01*
X11011658Y16671950D01*
X11124696Y16614354D01*
X11124697Y16614354D01*
X11124699Y16614353D01*
X11249997Y16594508D01*
X11250000Y16594508D01*
X11250003Y16594508D01*
X11375300Y16614353D01*
X11375301Y16614353D01*
X11375302Y16614354D01*
X11375304Y16614354D01*
X11488342Y16671950D01*
X11578050Y16761658D01*
X11635646Y16874696D01*
X11635646Y16874698D01*
X11635647Y16874699D01*
X11635647Y16874700D01*
X11655492Y16999997D01*
X11655492Y17000004D01*
X11639480Y17101103D01*
X11648435Y17170396D01*
X11693431Y17223848D01*
X11760183Y17244487D01*
X11761953Y17244500D01*
X12876000Y17244500D01*
X12930313Y17250339D01*
X12981824Y17261545D01*
X13008198Y17268781D01*
X13037074Y17285225D01*
X13094818Y17318106D01*
X13094819Y17318108D01*
X13094828Y17318112D01*
X13147632Y17363867D01*
X13179257Y17396641D01*
X13225465Y17484976D01*
X13245150Y17552015D01*
X13255500Y17624000D01*
X13255500Y24238919D01*
X13255493Y24240794D01*
X13255480Y24242565D01*
X13244084Y24316167D01*
X13223444Y24382918D01*
X13223442Y24382923D01*
X13223438Y24382935D01*
X13206167Y24425054D01*
X13206165Y24425058D01*
X13193738Y24440592D01*
X13167231Y24505238D01*
X13179882Y24573953D01*
X13227676Y24624920D01*
X13295436Y24641956D01*
X13346861Y24628537D01*
X13374696Y24614354D01*
X13492607Y24595679D01*
X13555738Y24565752D01*
X13592669Y24506441D01*
X13595679Y24492604D01*
X13614352Y24374700D01*
X13614352Y24374699D01*
X13614354Y24374696D01*
X13671950Y24261658D01*
X13671952Y24261656D01*
X13671954Y24261653D01*
X13761652Y24171955D01*
X13761654Y24171954D01*
X13761658Y24171950D01*
X13874696Y24114354D01*
X13874697Y24114354D01*
X13874699Y24114353D01*
X13999997Y24094508D01*
X14000000Y24094508D01*
X14000003Y24094508D01*
X14125300Y24114353D01*
X14125301Y24114353D01*
X14125302Y24114354D01*
X14125304Y24114354D01*
X14238342Y24171950D01*
X14328050Y24261658D01*
X14385646Y24374696D01*
X14385646Y24374698D01*
X14385647Y24374699D01*
X14385647Y24374700D01*
X14405492Y24499997D01*
X14405492Y24500004D01*
X14385647Y24625301D01*
X14385647Y24625302D01*
X14377161Y24641956D01*
X14328050Y24738342D01*
X14328046Y24738346D01*
X14328045Y24738348D01*
X14238347Y24828046D01*
X14238344Y24828048D01*
X14238342Y24828050D01*
X14125304Y24885646D01*
X14125303Y24885647D01*
X14125300Y24885648D01*
X14007396Y24904321D01*
X13944261Y24934250D01*
X13907329Y24993561D01*
X13904324Y25007373D01*
X13885646Y25125304D01*
X13828050Y25238342D01*
X13828046Y25238346D01*
X13828045Y25238348D01*
X13738347Y25328046D01*
X13738344Y25328048D01*
X13738342Y25328050D01*
X13625304Y25385646D01*
X13625303Y25385647D01*
X13625300Y25385648D01*
X13500003Y25405492D01*
X13499997Y25405492D01*
X13398897Y25389480D01*
X13329604Y25398435D01*
X13276152Y25443431D01*
X13255513Y25510183D01*
X13255500Y25511953D01*
X13255500Y29739473D01*
X13275185Y29806512D01*
X13327989Y29852267D01*
X13360099Y29861947D01*
X13375304Y29864354D01*
X13488342Y29921950D01*
X13578050Y30011658D01*
X13635646Y30124696D01*
X13635646Y30124698D01*
X13635647Y30124699D01*
X13635647Y30124700D01*
X13655492Y30249997D01*
X13655492Y30250004D01*
X13635647Y30375301D01*
X13635647Y30375302D01*
X13625539Y30395140D01*
X13578050Y30488342D01*
X13578046Y30488346D01*
X13578045Y30488348D01*
X13488347Y30578046D01*
X13488344Y30578048D01*
X13488342Y30578050D01*
X13375304Y30635646D01*
X13375303Y30635647D01*
X13375300Y30635648D01*
X13257396Y30654321D01*
X13194261Y30684250D01*
X13157329Y30743561D01*
X13154324Y30757373D01*
X13135646Y30875304D01*
X13135645Y30875306D01*
X13135645Y30875307D01*
X13132631Y30884583D01*
X13135249Y30885434D01*
X13125132Y30939290D01*
X13151406Y31004031D01*
X13159269Y31013010D01*
X13179257Y31033723D01*
X13225465Y31122058D01*
X13226262Y31124770D01*
X13234066Y31151351D01*
X13245150Y31189097D01*
X13255500Y31261082D01*
X13255500Y33531000D01*
X13255493Y33532875D01*
X13255480Y33534646D01*
X13244085Y33608247D01*
X13238811Y33625305D01*
X13223450Y33674984D01*
X13223447Y33674993D01*
X13206166Y33717138D01*
X13206165Y33717140D01*
X13206165Y33717141D01*
X13178999Y33751099D01*
X13152493Y33815743D01*
X13165144Y33884458D01*
X13165345Y33884854D01*
X13185646Y33924696D01*
X13185647Y33924700D01*
X13205492Y34049997D01*
X13205492Y34050004D01*
X13185647Y34175301D01*
X13185647Y34175302D01*
X13185646Y34175304D01*
X13167696Y34210532D01*
X13154801Y34279199D01*
X13175437Y34333632D01*
X13175146Y34333784D01*
X13176414Y34336210D01*
X13177608Y34339357D01*
X13179249Y34341635D01*
X13179257Y34341642D01*
X13225465Y34429977D01*
X13226667Y34434068D01*
X13236483Y34467501D01*
X13245150Y34497016D01*
X13255500Y34569001D01*
X13255500Y36126000D01*
X13249661Y36180313D01*
X13238455Y36231824D01*
X13231219Y36258198D01*
X13227332Y36265024D01*
X13181894Y36344819D01*
X13181890Y36344824D01*
X13181888Y36344828D01*
X13146097Y36386133D01*
X13136136Y36397629D01*
X13103359Y36429257D01*
X13015022Y36475466D01*
X13015022Y36475467D01*
X12947990Y36495149D01*
X12947978Y36495152D01*
X12876001Y36505500D01*
X12876000Y36505500D01*
X9624000Y36505500D01*
X9623997Y36505500D01*
X9569687Y36499662D01*
X9518181Y36488457D01*
X9518172Y36488454D01*
X9491807Y36481221D01*
X9491796Y36481217D01*
X9405181Y36431895D01*
X9405173Y36431889D01*
X9352371Y36386137D01*
X9320743Y36353360D01*
X9274534Y36265023D01*
X9274533Y36265023D01*
X9254851Y36197991D01*
X9254848Y36197979D01*
X9244500Y36126002D01*
X9244500Y33629500D01*
X9224815Y33562461D01*
X9172011Y33516706D01*
X9120500Y33505500D01*
X8010851Y33505500D01*
X8010851Y33505518D01*
X7943810Y33524977D01*
X7897892Y33577640D01*
X7888053Y33610104D01*
X7885646Y33625304D01*
X7850793Y33693705D01*
X7837897Y33762374D01*
X7850794Y33806296D01*
X7853526Y33811658D01*
X7885646Y33874696D01*
X7885647Y33874700D01*
X7905492Y33999997D01*
X7905492Y34000004D01*
X7885647Y34125301D01*
X7885646Y34125304D01*
X7860171Y34175301D01*
X7850793Y34193705D01*
X7837897Y34262374D01*
X7850794Y34306296D01*
X7885646Y34374696D01*
X7892159Y34415816D01*
X7905492Y34499997D01*
X7905492Y34500004D01*
X7885647Y34625301D01*
X7885646Y34625304D01*
X7850794Y34693704D01*
X7837897Y34762374D01*
X7850794Y34806296D01*
X7870991Y34845934D01*
X7885646Y34874696D01*
X7885742Y34875302D01*
X7905492Y34999997D01*
X7905492Y35000004D01*
X7885647Y35125301D01*
X7885646Y35125304D01*
X7850794Y35193704D01*
X7837897Y35262374D01*
X7850794Y35306296D01*
X7885646Y35374696D01*
X7885647Y35374700D01*
X7905492Y35499997D01*
X7905492Y35500004D01*
X7885647Y35625301D01*
X7885646Y35625304D01*
X7850793Y35693705D01*
X7837897Y35762374D01*
X7850794Y35806296D01*
X7885646Y35874696D01*
X7905492Y36000000D01*
X7905492Y36000004D01*
X7885647Y36125301D01*
X7885646Y36125304D01*
X7850794Y36193704D01*
X7837897Y36262374D01*
X7850794Y36306296D01*
X7885646Y36374696D01*
X7885647Y36374700D01*
X7905492Y36499997D01*
X7905492Y36500004D01*
X7885647Y36625301D01*
X7885646Y36625304D01*
X7850794Y36693704D01*
X7837897Y36762374D01*
X7850794Y36806296D01*
X7885646Y36874696D01*
X7905492Y37000000D01*
X7905492Y37000004D01*
X7885647Y37125301D01*
X7885646Y37125304D01*
X7850794Y37193704D01*
X7837897Y37262374D01*
X7850794Y37306296D01*
X7885646Y37374696D01*
X7885647Y37374700D01*
X7905492Y37499997D01*
X7905492Y37500004D01*
X7885647Y37625301D01*
X7885646Y37625304D01*
X7850794Y37693704D01*
X7837897Y37762374D01*
X7850794Y37806296D01*
X7885646Y37874696D01*
X7885742Y37875301D01*
X7905492Y37999997D01*
X7905492Y38000004D01*
X7885647Y38125301D01*
X7885646Y38125304D01*
X7850794Y38193704D01*
X7837897Y38262374D01*
X7850794Y38306296D01*
X7885646Y38374696D01*
X7885742Y38375301D01*
X7905492Y38499997D01*
X7905492Y38500004D01*
X7885647Y38625301D01*
X7885646Y38625304D01*
X7850794Y38693704D01*
X7837897Y38762374D01*
X7850794Y38806296D01*
X7869147Y38842315D01*
X7885646Y38874696D01*
X7885742Y38875301D01*
X7905492Y38999997D01*
X7905492Y39000004D01*
X7885647Y39125301D01*
X7885646Y39125304D01*
X7853011Y39189353D01*
X7850793Y39193705D01*
X7837897Y39262374D01*
X7850794Y39306296D01*
X7866262Y39336653D01*
X7885646Y39374696D01*
X7885742Y39375301D01*
X7905492Y39499997D01*
X7905492Y39500004D01*
X7885647Y39625301D01*
X7885646Y39625304D01*
X7850794Y39693704D01*
X7837897Y39762374D01*
X7850794Y39806296D01*
X7854387Y39813348D01*
X7885646Y39874696D01*
X7885742Y39875301D01*
X7905492Y39999997D01*
X7905492Y40000004D01*
X7885647Y40125301D01*
X7885646Y40125304D01*
X7850794Y40193704D01*
X7837897Y40262374D01*
X7850794Y40306296D01*
X7885646Y40374696D01*
X7885742Y40375301D01*
X7905492Y40499997D01*
X7905492Y40500004D01*
X7885647Y40625301D01*
X7885646Y40625304D01*
X7873467Y40649206D01*
X7850793Y40693705D01*
X7840220Y40750004D01*
X12394508Y40750004D01*
X12394508Y40749997D01*
X12414352Y40624700D01*
X12414352Y40624699D01*
X12419624Y40614353D01*
X12471950Y40511658D01*
X12471952Y40511656D01*
X12471954Y40511653D01*
X12561652Y40421955D01*
X12561654Y40421954D01*
X12561658Y40421950D01*
X12674696Y40364354D01*
X12674697Y40364354D01*
X12674699Y40364353D01*
X12799997Y40344508D01*
X12800000Y40344508D01*
X12800003Y40344508D01*
X12925300Y40364353D01*
X12925301Y40364353D01*
X12925302Y40364354D01*
X12925304Y40364354D01*
X13038342Y40421950D01*
X13128050Y40511658D01*
X13164133Y40582476D01*
X13212105Y40633269D01*
X13279925Y40650065D01*
X13330909Y40636665D01*
X13374696Y40614354D01*
X13374697Y40614354D01*
X13374699Y40614353D01*
X13499997Y40594508D01*
X13500000Y40594508D01*
X13500003Y40594508D01*
X13625300Y40614353D01*
X13625302Y40614354D01*
X13625304Y40614354D01*
X13693704Y40649207D01*
X13762374Y40662103D01*
X13806294Y40649207D01*
X13854391Y40624700D01*
X13874696Y40614354D01*
X13874699Y40614353D01*
X13999997Y40594508D01*
X14000000Y40594508D01*
X14000003Y40594508D01*
X14125300Y40614353D01*
X14125302Y40614354D01*
X14125304Y40614354D01*
X14193704Y40649207D01*
X14262374Y40662103D01*
X14306294Y40649207D01*
X14354391Y40624700D01*
X14374696Y40614354D01*
X14374699Y40614353D01*
X14499997Y40594508D01*
X14500000Y40594508D01*
X14500003Y40594508D01*
X14625300Y40614353D01*
X14625301Y40614353D01*
X14625302Y40614354D01*
X14625304Y40614354D01*
X14738342Y40671950D01*
X14828050Y40761658D01*
X14885646Y40874696D01*
X14885646Y40874698D01*
X14885647Y40874699D01*
X14885647Y40874700D01*
X14905492Y40999997D01*
X14905492Y41000004D01*
X14885647Y41125301D01*
X14885646Y41125304D01*
X14850794Y41193704D01*
X14837897Y41262374D01*
X14850794Y41306296D01*
X14870264Y41344508D01*
X14885646Y41374696D01*
X14885646Y41374698D01*
X14885647Y41374700D01*
X14905492Y41499997D01*
X14905492Y41500004D01*
X14885647Y41625301D01*
X14885647Y41625302D01*
X14861063Y41673550D01*
X14828050Y41738342D01*
X14828046Y41738346D01*
X14828045Y41738348D01*
X14738347Y41828046D01*
X14738344Y41828048D01*
X14738342Y41828050D01*
X14625304Y41885646D01*
X14625303Y41885647D01*
X14625300Y41885648D01*
X14500003Y41905492D01*
X14499997Y41905492D01*
X14374699Y41885648D01*
X14374695Y41885647D01*
X14306294Y41850794D01*
X14237625Y41837898D01*
X14193706Y41850794D01*
X14125304Y41885647D01*
X14125300Y41885648D01*
X14000003Y41905492D01*
X13999997Y41905492D01*
X13874699Y41885648D01*
X13874695Y41885647D01*
X13806294Y41850794D01*
X13737625Y41837898D01*
X13693706Y41850794D01*
X13625304Y41885647D01*
X13625300Y41885648D01*
X13500003Y41905492D01*
X13499997Y41905492D01*
X13374699Y41885648D01*
X13374698Y41885648D01*
X13328865Y41862294D01*
X13261658Y41828050D01*
X13261657Y41828049D01*
X13261652Y41828046D01*
X13171954Y41738348D01*
X13171951Y41738343D01*
X13114352Y41625302D01*
X13114352Y41625301D01*
X13094508Y41500004D01*
X13094508Y41499997D01*
X13114352Y41374700D01*
X13114353Y41374696D01*
X13149206Y41306294D01*
X13162102Y41237625D01*
X13149205Y41193703D01*
X13135866Y41167525D01*
X13087890Y41116730D01*
X13020069Y41099936D01*
X12969088Y41113337D01*
X12925304Y41135646D01*
X12925303Y41135647D01*
X12925300Y41135648D01*
X12800003Y41155492D01*
X12799997Y41155492D01*
X12674699Y41135648D01*
X12674698Y41135648D01*
X12630912Y41113337D01*
X12561658Y41078050D01*
X12561657Y41078049D01*
X12561652Y41078046D01*
X12471954Y40988348D01*
X12471951Y40988343D01*
X12414352Y40875302D01*
X12414352Y40875301D01*
X12394508Y40750004D01*
X7840220Y40750004D01*
X7837897Y40762374D01*
X7850794Y40806296D01*
X7885646Y40874696D01*
X7885646Y40874698D01*
X7885647Y40874700D01*
X7905492Y40999997D01*
X7905492Y41000004D01*
X7885647Y41125301D01*
X7885646Y41125304D01*
X7850794Y41193704D01*
X7837897Y41262374D01*
X7850794Y41306296D01*
X7870264Y41344508D01*
X7885646Y41374696D01*
X7885646Y41374698D01*
X7885647Y41374700D01*
X7905492Y41499997D01*
X7905492Y41500004D01*
X7885647Y41625301D01*
X7885647Y41625302D01*
X7861063Y41673550D01*
X7828050Y41738342D01*
X7828046Y41738346D01*
X7828045Y41738348D01*
X7738347Y41828046D01*
X7738344Y41828048D01*
X7738342Y41828050D01*
X7655789Y41870113D01*
X7625301Y41885648D01*
X7499273Y41905608D01*
X7436138Y41935537D01*
X7399207Y41994849D01*
X7396198Y42008684D01*
X7385647Y42075301D01*
X7385647Y42075302D01*
X7367125Y42111653D01*
X7328050Y42188342D01*
X7328046Y42188346D01*
X7328045Y42188348D01*
X7238347Y42278046D01*
X7238344Y42278048D01*
X7238342Y42278050D01*
X7145676Y42325266D01*
X7125301Y42335648D01*
X7093722Y42340649D01*
X7030588Y42370579D01*
X6993657Y42429891D01*
X6990649Y42443716D01*
X6985646Y42475304D01*
X6928050Y42588342D01*
X6928046Y42588346D01*
X6928045Y42588348D01*
X6838347Y42678046D01*
X6838344Y42678048D01*
X6838342Y42678050D01*
X6725304Y42735646D01*
X6725302Y42735647D01*
X6716609Y42740076D01*
X6717326Y42741484D01*
X6668692Y42774739D01*
X6642214Y42833834D01*
X6635646Y42875304D01*
X6600793Y42943705D01*
X6587897Y43012374D01*
X6600794Y43056296D01*
X6604469Y43063508D01*
X6635646Y43124696D01*
X6635646Y43124698D01*
X6635647Y43124700D01*
X6655492Y43249997D01*
X6655492Y43250004D01*
X6635647Y43375301D01*
X6635646Y43375304D01*
X6600794Y43443704D01*
X6587897Y43512374D01*
X6600794Y43556296D01*
X6635646Y43624696D01*
X6655492Y43750000D01*
X6655492Y43750004D01*
X6635647Y43875301D01*
X6635646Y43875304D01*
X6622737Y43900639D01*
X6600793Y43943705D01*
X6587897Y44012374D01*
X6600794Y44056296D01*
X6635646Y44124696D01*
X6655492Y44250000D01*
X6655492Y44250004D01*
X6635647Y44375301D01*
X6635646Y44375304D01*
X6600794Y44443704D01*
X6587897Y44512374D01*
X6600794Y44556296D01*
X6620040Y44594068D01*
X6635646Y44624696D01*
X6635647Y44624700D01*
X6655492Y44749997D01*
X6655492Y44750004D01*
X6635647Y44875301D01*
X6635646Y44875304D01*
X6616896Y44912103D01*
X6600793Y44943705D01*
X6587897Y45012374D01*
X6600794Y45056296D01*
X6605938Y45066392D01*
X6635646Y45124696D01*
X6635646Y45124698D01*
X6635647Y45124700D01*
X6655492Y45249997D01*
X6655492Y45250004D01*
X8594508Y45250004D01*
X8594508Y45249997D01*
X8614352Y45124700D01*
X8614353Y45124696D01*
X8649206Y45056294D01*
X8662102Y44987625D01*
X8649206Y44943706D01*
X8614353Y44875305D01*
X8614352Y44875301D01*
X8594508Y44750004D01*
X8594508Y44749997D01*
X8614352Y44624700D01*
X8614353Y44624696D01*
X8649206Y44556294D01*
X8662102Y44487625D01*
X8649206Y44443706D01*
X8614353Y44375305D01*
X8614352Y44375301D01*
X8594508Y44250004D01*
X8594508Y44249997D01*
X8614352Y44124700D01*
X8614353Y44124696D01*
X8649206Y44056294D01*
X8662102Y43987625D01*
X8649206Y43943706D01*
X8614353Y43875305D01*
X8614352Y43875301D01*
X8594508Y43750004D01*
X8594508Y43749997D01*
X8614352Y43624700D01*
X8614353Y43624696D01*
X8649206Y43556294D01*
X8662102Y43487625D01*
X8649206Y43443706D01*
X8614353Y43375305D01*
X8614352Y43375301D01*
X8594508Y43250004D01*
X8594508Y43249997D01*
X8614352Y43124700D01*
X8614353Y43124696D01*
X8649206Y43056294D01*
X8662102Y42987625D01*
X8649206Y42943706D01*
X8614353Y42875305D01*
X8614352Y42875301D01*
X8594508Y42750004D01*
X8594508Y42749997D01*
X8614352Y42624700D01*
X8614353Y42624696D01*
X8649206Y42556294D01*
X8662102Y42487625D01*
X8649206Y42443706D01*
X8614353Y42375305D01*
X8614352Y42375301D01*
X8594508Y42250004D01*
X8594508Y42249997D01*
X8614352Y42124700D01*
X8614353Y42124696D01*
X8649206Y42056294D01*
X8662102Y41987625D01*
X8649206Y41943706D01*
X8614353Y41875305D01*
X8614352Y41875301D01*
X8594508Y41750004D01*
X8594508Y41749997D01*
X8614352Y41624700D01*
X8614352Y41624699D01*
X8615752Y41621952D01*
X8671950Y41511658D01*
X8671952Y41511656D01*
X8671954Y41511653D01*
X8761652Y41421955D01*
X8761654Y41421954D01*
X8761658Y41421950D01*
X8874696Y41364354D01*
X8874697Y41364354D01*
X8874699Y41364353D01*
X8999997Y41344508D01*
X9000000Y41344508D01*
X9000003Y41344508D01*
X9125300Y41364353D01*
X9125301Y41364353D01*
X9125302Y41364354D01*
X9125304Y41364354D01*
X9238342Y41421950D01*
X9328050Y41511658D01*
X9385646Y41624696D01*
X9385646Y41624698D01*
X9385647Y41624699D01*
X9385647Y41624700D01*
X9405492Y41749997D01*
X9405492Y41750004D01*
X9385647Y41875301D01*
X9385646Y41875304D01*
X9370205Y41905608D01*
X9350793Y41943705D01*
X9337897Y42012374D01*
X9350794Y42056296D01*
X9360479Y42075304D01*
X9385646Y42124696D01*
X9385646Y42124698D01*
X9385647Y42124700D01*
X9405492Y42249997D01*
X9405492Y42250004D01*
X9385647Y42375301D01*
X9385646Y42375304D01*
X9385645Y42375306D01*
X9350793Y42443705D01*
X9337897Y42512374D01*
X9350794Y42556296D01*
X9385646Y42624696D01*
X9385646Y42624698D01*
X9385647Y42624700D01*
X9405492Y42749997D01*
X9405492Y42750004D01*
X9385647Y42875301D01*
X9385646Y42875304D01*
X9373620Y42898906D01*
X9350793Y42943705D01*
X9337897Y43012374D01*
X9350794Y43056296D01*
X9354469Y43063508D01*
X9385646Y43124696D01*
X9385646Y43124698D01*
X9385647Y43124700D01*
X9405492Y43249997D01*
X9405492Y43250004D01*
X9385647Y43375301D01*
X9385646Y43375304D01*
X9350794Y43443704D01*
X9337897Y43512374D01*
X9350794Y43556296D01*
X9385646Y43624696D01*
X9405492Y43750000D01*
X9405492Y43750004D01*
X9385647Y43875301D01*
X9385646Y43875304D01*
X9372737Y43900639D01*
X9350793Y43943705D01*
X9337897Y44012374D01*
X9350794Y44056296D01*
X9385646Y44124696D01*
X9405492Y44250000D01*
X9405492Y44250004D01*
X9385647Y44375301D01*
X9385646Y44375304D01*
X9350794Y44443704D01*
X9337897Y44512374D01*
X9350794Y44556296D01*
X9385646Y44624696D01*
X9404321Y44742608D01*
X9434248Y44805738D01*
X9493559Y44842670D01*
X9507372Y44845676D01*
X9625304Y44864354D01*
X9693704Y44899207D01*
X9762374Y44912103D01*
X9806294Y44899207D01*
X9863521Y44870048D01*
X9874696Y44864354D01*
X9874699Y44864353D01*
X9999997Y44844508D01*
X10000000Y44844508D01*
X10000003Y44844508D01*
X10125300Y44864353D01*
X10125301Y44864353D01*
X10125302Y44864354D01*
X10125304Y44864354D01*
X10238342Y44921950D01*
X10328050Y45011658D01*
X10385646Y45124696D01*
X10385646Y45124698D01*
X10385647Y45124699D01*
X10385647Y45124700D01*
X10405492Y45249997D01*
X10405492Y45250004D01*
X10385647Y45375301D01*
X10385647Y45375302D01*
X10379965Y45386453D01*
X10328050Y45488342D01*
X10328046Y45488346D01*
X10328045Y45488348D01*
X10238347Y45578046D01*
X10238344Y45578048D01*
X10238342Y45578050D01*
X10125304Y45635646D01*
X10125303Y45635647D01*
X10125300Y45635648D01*
X10000003Y45655492D01*
X9999997Y45655492D01*
X9874699Y45635648D01*
X9874695Y45635647D01*
X9806294Y45600794D01*
X9737625Y45587898D01*
X9693706Y45600794D01*
X9625304Y45635647D01*
X9625300Y45635648D01*
X9500003Y45655492D01*
X9499997Y45655492D01*
X9374699Y45635648D01*
X9374695Y45635647D01*
X9306294Y45600794D01*
X9237625Y45587898D01*
X9193706Y45600794D01*
X9125304Y45635647D01*
X9125300Y45635648D01*
X9000003Y45655492D01*
X8999997Y45655492D01*
X8874699Y45635648D01*
X8874698Y45635648D01*
X8811622Y45603508D01*
X8761658Y45578050D01*
X8761657Y45578049D01*
X8761652Y45578046D01*
X8671954Y45488348D01*
X8671951Y45488343D01*
X8614352Y45375302D01*
X8614352Y45375301D01*
X8594508Y45250004D01*
X6655492Y45250004D01*
X6635647Y45375301D01*
X6635646Y45375304D01*
X6600794Y45443704D01*
X6587897Y45512374D01*
X6600794Y45556296D01*
X6611152Y45576624D01*
X6635646Y45624696D01*
X6636854Y45632323D01*
X6655492Y45749997D01*
X6655492Y45750004D01*
X6638609Y45856603D01*
X6647564Y45925896D01*
X6692560Y45979348D01*
X6759312Y45999987D01*
X6761082Y46000000D01*
X16141521Y46000000D01*
X16208560Y45980315D01*
X16254315Y45927511D01*
X16264259Y45858353D01*
X16235234Y45794797D01*
X16199975Y45766642D01*
X16168835Y45749997D01*
X16033550Y45677685D01*
X16033548Y45677684D01*
X16033547Y45677683D01*
X15873589Y45546411D01*
X15742317Y45386453D01*
X15742315Y45386450D01*
X15736356Y45375301D01*
X15644769Y45203957D01*
X15584699Y45005933D01*
X15564417Y44800000D01*
X15584699Y44594068D01*
X15584700Y44594066D01*
X15644768Y44396046D01*
X15742315Y44213550D01*
X15742317Y44213548D01*
X15873589Y44053590D01*
X15953095Y43988342D01*
X16033550Y43922315D01*
X16216046Y43824768D01*
X16414066Y43764700D01*
X16414065Y43764700D01*
X16432529Y43762882D01*
X16620000Y43744417D01*
X16825934Y43764700D01*
X17023954Y43824768D01*
X17206450Y43922315D01*
X17296835Y43996493D01*
X17361145Y44023805D01*
X17430012Y44012014D01*
X17481573Y43964862D01*
X17499500Y43900639D01*
X17499500Y43159362D01*
X17479815Y43092323D01*
X17427011Y43046568D01*
X17357853Y43036624D01*
X17296836Y43063508D01*
X17222276Y43124697D01*
X17206450Y43137685D01*
X17023954Y43235232D01*
X16825934Y43295300D01*
X16825932Y43295301D01*
X16825934Y43295301D01*
X16620000Y43315583D01*
X16414067Y43295301D01*
X16216043Y43235231D01*
X16105898Y43176357D01*
X16033550Y43137685D01*
X16033548Y43137684D01*
X16033547Y43137683D01*
X15873589Y43006411D01*
X15742317Y42846453D01*
X15742315Y42846450D01*
X15735573Y42833836D01*
X15644769Y42663957D01*
X15584699Y42465933D01*
X15564417Y42260000D01*
X15584699Y42054068D01*
X15613431Y41959353D01*
X15644768Y41856046D01*
X15742315Y41673550D01*
X15742317Y41673548D01*
X15873589Y41513590D01*
X15944796Y41455153D01*
X16033550Y41382315D01*
X16216046Y41284768D01*
X16414066Y41224700D01*
X16414065Y41224700D01*
X16432529Y41222882D01*
X16620000Y41204417D01*
X16825934Y41224700D01*
X17023954Y41284768D01*
X17206450Y41382315D01*
X17296835Y41456493D01*
X17361145Y41483805D01*
X17430012Y41472014D01*
X17481573Y41424862D01*
X17499500Y41360639D01*
X17499500Y40619362D01*
X17479815Y40552323D01*
X17427011Y40506568D01*
X17357853Y40496624D01*
X17296836Y40523508D01*
X17206452Y40597683D01*
X17206453Y40597683D01*
X17206450Y40597685D01*
X17023954Y40695232D01*
X16825934Y40755300D01*
X16825932Y40755301D01*
X16825934Y40755301D01*
X16620000Y40775583D01*
X16414067Y40755301D01*
X16216043Y40695231D01*
X16131545Y40650065D01*
X16033550Y40597685D01*
X16033548Y40597684D01*
X16033547Y40597683D01*
X15873589Y40466411D01*
X15742317Y40306453D01*
X15742315Y40306450D01*
X15718756Y40262374D01*
X15644769Y40123957D01*
X15584699Y39925933D01*
X15564417Y39720000D01*
X15584699Y39514068D01*
X15604225Y39449700D01*
X15644768Y39316046D01*
X15742315Y39133550D01*
X15776969Y39091323D01*
X15873589Y38973590D01*
X15970209Y38894298D01*
X16033550Y38842315D01*
X16216046Y38744768D01*
X16414066Y38684700D01*
X16414065Y38684700D01*
X16432529Y38682882D01*
X16620000Y38664417D01*
X16825934Y38684700D01*
X17023954Y38744768D01*
X17206450Y38842315D01*
X17296835Y38916493D01*
X17361145Y38943805D01*
X17430012Y38932014D01*
X17481573Y38884862D01*
X17499500Y38820639D01*
X17499500Y38079362D01*
X17479815Y38012323D01*
X17427011Y37966568D01*
X17357853Y37956624D01*
X17296836Y37983508D01*
X17208145Y38056294D01*
X17206450Y38057685D01*
X17023954Y38155232D01*
X16825934Y38215300D01*
X16825932Y38215301D01*
X16825934Y38215301D01*
X16620000Y38235583D01*
X16414067Y38215301D01*
X16216043Y38155231D01*
X16105898Y38096357D01*
X16033550Y38057685D01*
X16033548Y38057684D01*
X16033547Y38057683D01*
X15873589Y37926411D01*
X15742317Y37766453D01*
X15742315Y37766450D01*
X15733521Y37749997D01*
X15644769Y37583957D01*
X15584699Y37385933D01*
X15564417Y37180000D01*
X15584699Y36974068D01*
X15592611Y36947985D01*
X15644768Y36776046D01*
X15742315Y36593550D01*
X15742317Y36593548D01*
X15873589Y36433590D01*
X15945353Y36374696D01*
X16033550Y36302315D01*
X16216046Y36204768D01*
X16414066Y36144700D01*
X16414065Y36144700D01*
X16432529Y36142882D01*
X16620000Y36124417D01*
X16825934Y36144700D01*
X17023954Y36204768D01*
X17206450Y36302315D01*
X17296835Y36376493D01*
X17361145Y36403805D01*
X17430012Y36392014D01*
X17481573Y36344862D01*
X17499500Y36280639D01*
X17499500Y35539362D01*
X17479815Y35472323D01*
X17427011Y35426568D01*
X17357853Y35416624D01*
X17296836Y35443508D01*
X17206452Y35517683D01*
X17206453Y35517683D01*
X17206450Y35517685D01*
X17023954Y35615232D01*
X16825934Y35675300D01*
X16825932Y35675301D01*
X16825934Y35675301D01*
X16620000Y35695583D01*
X16414067Y35675301D01*
X16216043Y35615231D01*
X16105898Y35556357D01*
X16033550Y35517685D01*
X16033548Y35517684D01*
X16033547Y35517683D01*
X15873589Y35386411D01*
X15752074Y35238342D01*
X15742315Y35226450D01*
X15724812Y35193704D01*
X15644767Y35043955D01*
X15641427Y35032941D01*
X15603128Y34974503D01*
X15539316Y34946047D01*
X15470249Y34956609D01*
X15437272Y34983764D01*
X15434951Y34981442D01*
X15338347Y35078046D01*
X15338344Y35078048D01*
X15338342Y35078050D01*
X15225304Y35135646D01*
X15225303Y35135647D01*
X15225300Y35135648D01*
X15100003Y35155492D01*
X15099997Y35155492D01*
X14974699Y35135648D01*
X14974698Y35135648D01*
X14899337Y35097249D01*
X14861658Y35078050D01*
X14861657Y35078049D01*
X14861652Y35078046D01*
X14771954Y34988348D01*
X14771951Y34988343D01*
X14771950Y34988342D01*
X14764899Y34974503D01*
X14714352Y34875302D01*
X14714352Y34875301D01*
X14694508Y34750004D01*
X14694508Y34749997D01*
X14714352Y34624700D01*
X14714352Y34624699D01*
X14714354Y34624696D01*
X14771950Y34511658D01*
X14771952Y34511656D01*
X14771954Y34511653D01*
X14861652Y34421955D01*
X14861654Y34421954D01*
X14861658Y34421950D01*
X14974696Y34364354D01*
X14974697Y34364354D01*
X14974699Y34364353D01*
X15099997Y34344508D01*
X15100000Y34344508D01*
X15100003Y34344508D01*
X15225300Y34364353D01*
X15225301Y34364353D01*
X15225302Y34364354D01*
X15225304Y34364354D01*
X15338342Y34421950D01*
X15383893Y34467501D01*
X15445216Y34500987D01*
X15514907Y34496003D01*
X15570841Y34454132D01*
X15590236Y34415816D01*
X15644768Y34236046D01*
X15742315Y34053550D01*
X15745231Y34049997D01*
X15873589Y33893590D01*
X15968447Y33815743D01*
X16033550Y33762315D01*
X16216046Y33664768D01*
X16414066Y33604700D01*
X16414065Y33604700D01*
X16432529Y33602882D01*
X16620000Y33584417D01*
X16825934Y33604700D01*
X17023954Y33664768D01*
X17206450Y33762315D01*
X17296835Y33836493D01*
X17361145Y33863805D01*
X17430012Y33852014D01*
X17481573Y33804862D01*
X17499500Y33740639D01*
X17499500Y32999362D01*
X17479815Y32932323D01*
X17427011Y32886568D01*
X17357853Y32876624D01*
X17296836Y32903508D01*
X17206452Y32977683D01*
X17206453Y32977683D01*
X17206450Y32977685D01*
X17023954Y33075232D01*
X16825934Y33135300D01*
X16825932Y33135301D01*
X16825934Y33135301D01*
X16620000Y33155583D01*
X16414067Y33135301D01*
X16216043Y33075231D01*
X16105898Y33016357D01*
X16033550Y32977685D01*
X16033548Y32977684D01*
X16033547Y32977683D01*
X15873589Y32846411D01*
X15742317Y32686453D01*
X15742315Y32686450D01*
X15703643Y32614102D01*
X15644769Y32503957D01*
X15584699Y32305933D01*
X15564417Y32100000D01*
X15584699Y31894068D01*
X15584700Y31894066D01*
X15644768Y31696046D01*
X15742315Y31513550D01*
X15742317Y31513548D01*
X15873589Y31353590D01*
X15970209Y31274298D01*
X16033550Y31222315D01*
X16216046Y31124768D01*
X16414066Y31064700D01*
X16414065Y31064700D01*
X16432529Y31062882D01*
X16620000Y31044417D01*
X16825934Y31064700D01*
X17023954Y31124768D01*
X17206450Y31222315D01*
X17296835Y31296493D01*
X17361145Y31323805D01*
X17430012Y31312014D01*
X17481573Y31264862D01*
X17499500Y31200639D01*
X17499500Y30459362D01*
X17479815Y30392323D01*
X17427011Y30346568D01*
X17357853Y30336624D01*
X17296836Y30363508D01*
X17206452Y30437683D01*
X17206453Y30437683D01*
X17206450Y30437685D01*
X17023954Y30535232D01*
X16825934Y30595300D01*
X16825932Y30595301D01*
X16825934Y30595301D01*
X16620000Y30615583D01*
X16414067Y30595301D01*
X16216043Y30535231D01*
X16128322Y30488342D01*
X16033550Y30437685D01*
X16033548Y30437684D01*
X16033547Y30437683D01*
X15873589Y30306411D01*
X15742317Y30146453D01*
X15742315Y30146450D01*
X15730689Y30124699D01*
X15644769Y29963957D01*
X15584699Y29765933D01*
X15564417Y29560000D01*
X15584699Y29354068D01*
X15584700Y29354066D01*
X15644768Y29156046D01*
X15742315Y28973550D01*
X15742317Y28973548D01*
X15873589Y28813590D01*
X15970209Y28734298D01*
X16033550Y28682315D01*
X16216046Y28584768D01*
X16414066Y28524700D01*
X16414065Y28524700D01*
X16432529Y28522882D01*
X16620000Y28504417D01*
X16825934Y28524700D01*
X17023954Y28584768D01*
X17206450Y28682315D01*
X17296835Y28756493D01*
X17361145Y28783805D01*
X17430012Y28772014D01*
X17481573Y28724862D01*
X17499500Y28660639D01*
X17499500Y27919362D01*
X17479815Y27852323D01*
X17427011Y27806568D01*
X17357853Y27796624D01*
X17296836Y27823508D01*
X17206452Y27897683D01*
X17206453Y27897683D01*
X17206450Y27897685D01*
X17023954Y27995232D01*
X16825934Y28055300D01*
X16825932Y28055301D01*
X16825934Y28055301D01*
X16620000Y28075583D01*
X16414067Y28055301D01*
X16216043Y27995231D01*
X16105898Y27936357D01*
X16033550Y27897685D01*
X16033548Y27897684D01*
X16033547Y27897683D01*
X15873589Y27766411D01*
X15742317Y27606453D01*
X15742315Y27606450D01*
X15703643Y27534102D01*
X15644769Y27423957D01*
X15584699Y27225933D01*
X15564417Y27020000D01*
X15584699Y26814068D01*
X15584700Y26814066D01*
X15644768Y26616046D01*
X15742315Y26433550D01*
X15742317Y26433548D01*
X15873589Y26273590D01*
X15970209Y26194298D01*
X16033550Y26142315D01*
X16216046Y26044768D01*
X16414066Y25984700D01*
X16414065Y25984700D01*
X16432529Y25982882D01*
X16620000Y25964417D01*
X16825934Y25984700D01*
X17023954Y26044768D01*
X17206450Y26142315D01*
X17296835Y26216493D01*
X17361145Y26243805D01*
X17430012Y26232014D01*
X17481573Y26184862D01*
X17499500Y26120639D01*
X17499500Y25378717D01*
X17479815Y25311678D01*
X17427011Y25265923D01*
X17357853Y25255979D01*
X17296836Y25282863D01*
X17206172Y25357268D01*
X17206166Y25357272D01*
X17023763Y25454768D01*
X16870000Y25501413D01*
X16870000Y24795686D01*
X16865606Y24800080D01*
X16774394Y24852741D01*
X16672661Y24880000D01*
X16567339Y24880000D01*
X16465606Y24852741D01*
X16374394Y24800080D01*
X16370000Y24795686D01*
X16370000Y25501413D01*
X16216236Y25454768D01*
X16033833Y25357272D01*
X16033826Y25357268D01*
X15873944Y25226056D01*
X15742732Y25066174D01*
X15742728Y25066167D01*
X15645233Y24883767D01*
X15598590Y24730000D01*
X16304314Y24730000D01*
X16299920Y24725606D01*
X16247259Y24634394D01*
X16220000Y24532661D01*
X16220000Y24427339D01*
X16247259Y24325606D01*
X16299920Y24234394D01*
X16304314Y24230000D01*
X15598590Y24230000D01*
X15645233Y24076234D01*
X15742728Y23893834D01*
X15742732Y23893827D01*
X15873944Y23733945D01*
X16033826Y23602733D01*
X16033833Y23602729D01*
X16216233Y23505234D01*
X16370000Y23458590D01*
X16370000Y24164314D01*
X16374394Y24159920D01*
X16465606Y24107259D01*
X16567339Y24080000D01*
X16672661Y24080000D01*
X16774394Y24107259D01*
X16865606Y24159920D01*
X16870000Y24164314D01*
X16870000Y23458590D01*
X17023766Y23505234D01*
X17206166Y23602729D01*
X17206173Y23602733D01*
X17296835Y23677137D01*
X17361145Y23704450D01*
X17430013Y23692659D01*
X17481573Y23645507D01*
X17499500Y23581284D01*
X17499500Y22839362D01*
X17479815Y22772323D01*
X17427011Y22726568D01*
X17357853Y22716624D01*
X17296836Y22743508D01*
X17206452Y22817683D01*
X17206453Y22817683D01*
X17206450Y22817685D01*
X17023954Y22915232D01*
X16825934Y22975300D01*
X16825932Y22975301D01*
X16825934Y22975301D01*
X16620000Y22995583D01*
X16414067Y22975301D01*
X16216043Y22915231D01*
X16105898Y22856357D01*
X16033550Y22817685D01*
X16033548Y22817684D01*
X16033547Y22817683D01*
X15873589Y22686411D01*
X15766051Y22555373D01*
X15742315Y22526450D01*
X15705292Y22457186D01*
X15644769Y22343957D01*
X15584699Y22145933D01*
X15564417Y21940000D01*
X15584699Y21734068D01*
X15586096Y21729463D01*
X15644768Y21536046D01*
X15742315Y21353550D01*
X15742317Y21353548D01*
X15873589Y21193590D01*
X15970209Y21114298D01*
X16033550Y21062315D01*
X16216046Y20964768D01*
X16414066Y20904700D01*
X16414065Y20904700D01*
X16432529Y20902882D01*
X16620000Y20884417D01*
X16825934Y20904700D01*
X17023954Y20964768D01*
X17206450Y21062315D01*
X17296835Y21136493D01*
X17361145Y21163805D01*
X17430012Y21152014D01*
X17481573Y21104862D01*
X17499500Y21040639D01*
X17499500Y20299362D01*
X17479815Y20232323D01*
X17427011Y20186568D01*
X17357853Y20176624D01*
X17296836Y20203508D01*
X17206452Y20277683D01*
X17206453Y20277683D01*
X17206450Y20277685D01*
X17023954Y20375232D01*
X16825934Y20435300D01*
X16825932Y20435301D01*
X16825934Y20435301D01*
X16620000Y20455583D01*
X16414067Y20435301D01*
X16216043Y20375231D01*
X16105898Y20316357D01*
X16033550Y20277685D01*
X16033548Y20277684D01*
X16033547Y20277683D01*
X15873589Y20146411D01*
X15742317Y19986453D01*
X15742315Y19986450D01*
X15703643Y19914102D01*
X15644769Y19803957D01*
X15584699Y19605933D01*
X15564417Y19400000D01*
X15584699Y19194068D01*
X15584700Y19194066D01*
X15644768Y18996046D01*
X15742315Y18813550D01*
X15742317Y18813548D01*
X15873589Y18653590D01*
X15970209Y18574298D01*
X16033550Y18522315D01*
X16216046Y18424768D01*
X16414066Y18364700D01*
X16414065Y18364700D01*
X16432529Y18362882D01*
X16620000Y18344417D01*
X16825934Y18364700D01*
X17023954Y18424768D01*
X17206450Y18522315D01*
X17296835Y18596493D01*
X17361145Y18623805D01*
X17430012Y18612014D01*
X17481573Y18564862D01*
X17499500Y18500639D01*
X17499500Y17759362D01*
X17479815Y17692323D01*
X17427011Y17646568D01*
X17357853Y17636624D01*
X17296836Y17663508D01*
X17206452Y17737683D01*
X17206453Y17737683D01*
X17206450Y17737685D01*
X17023954Y17835232D01*
X16825934Y17895300D01*
X16825932Y17895301D01*
X16825934Y17895301D01*
X16620000Y17915583D01*
X16414067Y17895301D01*
X16216043Y17835231D01*
X16128322Y17788342D01*
X16033550Y17737685D01*
X16033548Y17737684D01*
X16033547Y17737683D01*
X15873589Y17606411D01*
X15742317Y17446453D01*
X15742315Y17446450D01*
X15730689Y17424699D01*
X15644769Y17263957D01*
X15584699Y17065933D01*
X15564417Y16860000D01*
X15584699Y16654068D01*
X15607759Y16578050D01*
X15644768Y16456046D01*
X15742315Y16273550D01*
X15742317Y16273548D01*
X15873589Y16113590D01*
X15970209Y16034298D01*
X16033550Y15982315D01*
X16216046Y15884768D01*
X16414066Y15824700D01*
X16414065Y15824700D01*
X16432529Y15822882D01*
X16620000Y15804417D01*
X16825934Y15824700D01*
X17023954Y15884768D01*
X17206450Y15982315D01*
X17296835Y16056493D01*
X17361145Y16083805D01*
X17430012Y16072014D01*
X17481573Y16024862D01*
X17499500Y15960639D01*
X17499500Y15219362D01*
X17479815Y15152323D01*
X17427011Y15106568D01*
X17357853Y15096624D01*
X17296836Y15123508D01*
X17247410Y15164070D01*
X17206450Y15197685D01*
X17023954Y15295232D01*
X16825934Y15355300D01*
X16825932Y15355301D01*
X16825934Y15355301D01*
X16620000Y15375583D01*
X16414067Y15355301D01*
X16216043Y15295231D01*
X16105898Y15236357D01*
X16033550Y15197685D01*
X16033548Y15197684D01*
X16033547Y15197683D01*
X15873589Y15066411D01*
X15742317Y14906453D01*
X15742315Y14906450D01*
X15733366Y14889708D01*
X15644769Y14723957D01*
X15584699Y14525933D01*
X15564417Y14320000D01*
X15584699Y14114068D01*
X15593294Y14085734D01*
X15644768Y13916046D01*
X15742315Y13733550D01*
X15769074Y13700944D01*
X15873589Y13573590D01*
X15970209Y13494298D01*
X16033550Y13442315D01*
X16216046Y13344768D01*
X16414066Y13284700D01*
X16414065Y13284700D01*
X16432529Y13282882D01*
X16620000Y13264417D01*
X16825934Y13284700D01*
X17023954Y13344768D01*
X17206450Y13442315D01*
X17296835Y13516493D01*
X17361145Y13543805D01*
X17430012Y13532014D01*
X17481573Y13484862D01*
X17499500Y13420639D01*
X17499500Y12679362D01*
X17479815Y12612323D01*
X17427011Y12566568D01*
X17357853Y12556624D01*
X17296836Y12583508D01*
X17206452Y12657683D01*
X17206453Y12657683D01*
X17206450Y12657685D01*
X17023954Y12755232D01*
X16825934Y12815300D01*
X16825932Y12815301D01*
X16825934Y12815301D01*
X16620000Y12835583D01*
X16414067Y12815301D01*
X16216043Y12755231D01*
X16105898Y12696357D01*
X16033550Y12657685D01*
X16033548Y12657684D01*
X16033547Y12657683D01*
X15873589Y12526411D01*
X15742317Y12366453D01*
X15742315Y12366450D01*
X15730587Y12344508D01*
X15644769Y12183957D01*
X15584699Y11985933D01*
X15564417Y11780000D01*
X15584699Y11574068D01*
X15600508Y11521952D01*
X15644768Y11376046D01*
X15742315Y11193550D01*
X15742317Y11193548D01*
X15873589Y11033590D01*
X15957955Y10964354D01*
X16033550Y10902315D01*
X16216046Y10804768D01*
X16414066Y10744700D01*
X16414065Y10744700D01*
X16432529Y10742882D01*
X16620000Y10724417D01*
X16825934Y10744700D01*
X17023954Y10804768D01*
X17206450Y10902315D01*
X17296835Y10976493D01*
X17361145Y11003805D01*
X17430012Y10992014D01*
X17481573Y10944862D01*
X17499500Y10880639D01*
X17499500Y10139362D01*
X17479815Y10072323D01*
X17427011Y10026568D01*
X17357853Y10016624D01*
X17296836Y10043508D01*
X17206452Y10117683D01*
X17206453Y10117683D01*
X17206450Y10117685D01*
X17023954Y10215232D01*
X16825934Y10275300D01*
X16825932Y10275301D01*
X16825934Y10275301D01*
X16620000Y10295583D01*
X16414067Y10275301D01*
X16216043Y10215231D01*
X16105898Y10156357D01*
X16033550Y10117685D01*
X16033548Y10117684D01*
X16033547Y10117683D01*
X15873589Y9986411D01*
X15742317Y9826453D01*
X15742315Y9826450D01*
X15703643Y9754102D01*
X15644769Y9643957D01*
X15584699Y9445933D01*
X15564417Y9240000D01*
X15584699Y9034068D01*
X15601603Y8978343D01*
X15644768Y8836046D01*
X15742315Y8653550D01*
X15765992Y8624699D01*
X15873589Y8493590D01*
X15960878Y8421955D01*
X16033550Y8362315D01*
X16216046Y8264768D01*
X16414066Y8204700D01*
X16414065Y8204700D01*
X16432529Y8202882D01*
X16620000Y8184417D01*
X16825934Y8204700D01*
X17023954Y8264768D01*
X17206450Y8362315D01*
X17296835Y8436493D01*
X17361145Y8463805D01*
X17430012Y8452014D01*
X17481573Y8404862D01*
X17499500Y8340639D01*
X17499500Y7599362D01*
X17479815Y7532323D01*
X17427011Y7486568D01*
X17357853Y7476624D01*
X17296836Y7503508D01*
X17247410Y7544070D01*
X17206450Y7577685D01*
X17023954Y7675232D01*
X16825934Y7735300D01*
X16825932Y7735301D01*
X16825934Y7735301D01*
X16620000Y7755583D01*
X16414067Y7735301D01*
X16216043Y7675231D01*
X16179115Y7655492D01*
X16033550Y7577685D01*
X16033548Y7577684D01*
X16033547Y7577683D01*
X15873589Y7446411D01*
X15742317Y7286453D01*
X15742315Y7286450D01*
X15722834Y7250004D01*
X15644769Y7103957D01*
X15584699Y6905933D01*
X15564417Y6700000D01*
X15584699Y6494068D01*
X15584700Y6494066D01*
X15644768Y6296046D01*
X15742315Y6113550D01*
X15742317Y6113548D01*
X15873589Y5953590D01*
X15960595Y5882187D01*
X16033550Y5822315D01*
X16216046Y5724768D01*
X16414066Y5664700D01*
X16414065Y5664700D01*
X16432529Y5662882D01*
X16620000Y5644417D01*
X16825934Y5664700D01*
X17023954Y5724768D01*
X17206450Y5822315D01*
X17296835Y5896493D01*
X17361145Y5923805D01*
X17430012Y5912014D01*
X17481573Y5864862D01*
X17499500Y5800639D01*
X17499500Y5059362D01*
X17479815Y4992323D01*
X17427011Y4946568D01*
X17357853Y4936624D01*
X17296836Y4963508D01*
X17247410Y5004070D01*
X17206450Y5037685D01*
X17023954Y5135232D01*
X16825934Y5195300D01*
X16825932Y5195301D01*
X16825934Y5195301D01*
X16620000Y5215583D01*
X16414067Y5195301D01*
X16216043Y5135231D01*
X16133386Y5091049D01*
X16033550Y5037685D01*
X16033548Y5037684D01*
X16033547Y5037683D01*
X15873589Y4906411D01*
X15742317Y4746453D01*
X15742315Y4746450D01*
X15724820Y4713719D01*
X15644769Y4563957D01*
X15584699Y4365933D01*
X15564417Y4160000D01*
X15584699Y3954068D01*
X15584700Y3954066D01*
X15644768Y3756046D01*
X15742315Y3573550D01*
X15742317Y3573548D01*
X15873589Y3413590D01*
X15970209Y3334298D01*
X16033550Y3282315D01*
X16216046Y3184768D01*
X16414066Y3124700D01*
X16414065Y3124700D01*
X16432529Y3122882D01*
X16620000Y3104417D01*
X16825934Y3124700D01*
X17023954Y3184768D01*
X17206450Y3282315D01*
X17296835Y3356493D01*
X17361145Y3383805D01*
X17430012Y3372014D01*
X17481573Y3324862D01*
X17499500Y3260639D01*
X17499500Y2519362D01*
X17479815Y2452323D01*
X17427011Y2406568D01*
X17357853Y2396624D01*
X17296836Y2423508D01*
X17206452Y2497683D01*
X17206453Y2497683D01*
X17206450Y2497685D01*
X17023954Y2595232D01*
X16825934Y2655300D01*
X16825932Y2655301D01*
X16825934Y2655301D01*
X16620000Y2675583D01*
X16414067Y2655301D01*
X16216043Y2595231D01*
X16105898Y2536357D01*
X16033550Y2497685D01*
X16033548Y2497684D01*
X16033547Y2497683D01*
X15873589Y2366411D01*
X15742317Y2206453D01*
X15742315Y2206450D01*
X15732944Y2188918D01*
X15644769Y2023957D01*
X15584699Y1825933D01*
X15564417Y1620000D01*
X15584699Y1414068D01*
X15584700Y1414066D01*
X15644768Y1216046D01*
X15742315Y1033550D01*
X15742317Y1033548D01*
X15873589Y873590D01*
X16033548Y742316D01*
X16049372Y733858D01*
X16099217Y684896D01*
X16114677Y616758D01*
X16090845Y551078D01*
X16035288Y508710D01*
X15990919Y500500D01*
X14007261Y500500D01*
X13940222Y520185D01*
X13894467Y572989D01*
X13884523Y642147D01*
X13904159Y693391D01*
X13985080Y814499D01*
X13985080Y814500D01*
X13985084Y814505D01*
X14041658Y951087D01*
X14070500Y1096082D01*
X14070500Y2043918D01*
X14070500Y2043921D01*
X14041659Y2188908D01*
X14041658Y2188909D01*
X14041658Y2188913D01*
X14034393Y2206453D01*
X13985087Y2325489D01*
X13985080Y2325502D01*
X13902951Y2448416D01*
X13902948Y2448420D01*
X13798419Y2552949D01*
X13798415Y2552952D01*
X13675501Y2635081D01*
X13675488Y2635088D01*
X13538917Y2691657D01*
X13538907Y2691660D01*
X13393920Y2720500D01*
X13393918Y2720500D01*
X13246082Y2720500D01*
X13246080Y2720500D01*
X13101092Y2691660D01*
X13101082Y2691657D01*
X12964511Y2635088D01*
X12964498Y2635081D01*
X12841584Y2552952D01*
X12841580Y2552949D01*
X12737051Y2448420D01*
X12737048Y2448416D01*
X12654919Y2325502D01*
X12654912Y2325489D01*
X12598343Y2188918D01*
X12598340Y2188908D01*
X12569500Y2043921D01*
X12569500Y2043918D01*
X12569500Y1096082D01*
X12569500Y1096080D01*
X12569499Y1096080D01*
X12598340Y951093D01*
X12598343Y951083D01*
X12654912Y814512D01*
X12654919Y814499D01*
X12735841Y693391D01*
X12756719Y626713D01*
X12738234Y559333D01*
X12686255Y512643D01*
X12632739Y500500D01*
X5367261Y500500D01*
X5300222Y520185D01*
X5254467Y572989D01*
X5244523Y642147D01*
X5264159Y693391D01*
X5345080Y814499D01*
X5345080Y814500D01*
X5345084Y814505D01*
X5401658Y951087D01*
X5430500Y1096082D01*
X5430500Y2043918D01*
X5430500Y2043921D01*
X5401659Y2188908D01*
X5401658Y2188909D01*
X5401658Y2188913D01*
X5394393Y2206453D01*
X5345087Y2325489D01*
X5345080Y2325502D01*
X5262951Y2448416D01*
X5262948Y2448420D01*
X5158419Y2552949D01*
X5158415Y2552952D01*
X5035501Y2635081D01*
X5035488Y2635088D01*
X4898917Y2691657D01*
X4898907Y2691660D01*
X4753920Y2720500D01*
X4753918Y2720500D01*
X4606082Y2720500D01*
X4606080Y2720500D01*
X4461092Y2691660D01*
X4461082Y2691657D01*
X4324511Y2635088D01*
X4324498Y2635081D01*
X4201584Y2552952D01*
X4201580Y2552949D01*
X4097051Y2448420D01*
X4097048Y2448416D01*
X4014919Y2325502D01*
X4014912Y2325489D01*
X3958343Y2188918D01*
X3958340Y2188908D01*
X3929500Y2043921D01*
X3929500Y2043918D01*
X3929500Y1096082D01*
X3929500Y1096080D01*
X3929499Y1096080D01*
X3958340Y951093D01*
X3958343Y951083D01*
X4014912Y814512D01*
X4014919Y814499D01*
X4095841Y693391D01*
X4116719Y626713D01*
X4098234Y559333D01*
X4046255Y512643D01*
X3992739Y500500D01*
X2009081Y500500D01*
X1942042Y520185D01*
X1896287Y572989D01*
X1886343Y642147D01*
X1915368Y705703D01*
X1950628Y733858D01*
X1966450Y742315D01*
X2126410Y873590D01*
X2257685Y1033550D01*
X2355232Y1216046D01*
X2415300Y1414066D01*
X2435583Y1620000D01*
X2415300Y1825934D01*
X2355232Y2023954D01*
X2257685Y2206450D01*
X2159988Y2325495D01*
X2126410Y2366411D01*
X1966452Y2497683D01*
X1966453Y2497683D01*
X1966450Y2497685D01*
X1783954Y2595232D01*
X1585934Y2655300D01*
X1585932Y2655301D01*
X1585934Y2655301D01*
X1380000Y2675583D01*
X1174067Y2655301D01*
X976043Y2595231D01*
X865898Y2536357D01*
X793550Y2497685D01*
X793548Y2497684D01*
X793547Y2497683D01*
X703164Y2423508D01*
X638854Y2396196D01*
X569987Y2407987D01*
X518427Y2455140D01*
X500500Y2519362D01*
X500500Y3260639D01*
X520185Y3327678D01*
X572989Y3373433D01*
X642147Y3383377D01*
X703163Y3356493D01*
X793550Y3282315D01*
X976046Y3184768D01*
X1174066Y3124700D01*
X1174065Y3124700D01*
X1192529Y3122882D01*
X1380000Y3104417D01*
X1585934Y3124700D01*
X1783954Y3184768D01*
X1966450Y3282315D01*
X2126410Y3413590D01*
X2257685Y3573550D01*
X2355232Y3756046D01*
X2415300Y3954066D01*
X2435583Y4160000D01*
X2415300Y4365934D01*
X2355232Y4563954D01*
X2257685Y4746450D01*
X2177219Y4844499D01*
X2126410Y4906411D01*
X2007563Y5003945D01*
X1966450Y5037685D01*
X1801076Y5126080D01*
X3929499Y5126080D01*
X3958340Y4981093D01*
X3958343Y4981083D01*
X4014912Y4844512D01*
X4014919Y4844499D01*
X4097048Y4721585D01*
X4097051Y4721581D01*
X4201580Y4617052D01*
X4201584Y4617049D01*
X4324498Y4534920D01*
X4324511Y4534913D01*
X4461082Y4478344D01*
X4461087Y4478342D01*
X4461091Y4478342D01*
X4461092Y4478341D01*
X4606079Y4449500D01*
X4606082Y4449500D01*
X4753920Y4449500D01*
X4851462Y4468904D01*
X4898913Y4478342D01*
X5035495Y4534916D01*
X5158416Y4617049D01*
X5262951Y4721584D01*
X5345084Y4844505D01*
X5388593Y4949547D01*
X5432431Y5003945D01*
X5498725Y5026011D01*
X5566424Y5008732D01*
X5610539Y4964091D01*
X5649485Y4896635D01*
X5756635Y4789485D01*
X5887865Y4713719D01*
X6034234Y4674500D01*
X6034236Y4674500D01*
X6185764Y4674500D01*
X6185766Y4674500D01*
X6332135Y4713719D01*
X6463365Y4789485D01*
X6570515Y4896635D01*
X6646281Y5027865D01*
X6685500Y5174234D01*
X6685500Y5325766D01*
X6646281Y5472135D01*
X6644802Y5474696D01*
X6636129Y5489719D01*
X6572455Y5600004D01*
X8344508Y5600004D01*
X8344508Y5599997D01*
X8364352Y5474700D01*
X8364352Y5474699D01*
X8382805Y5438483D01*
X8421950Y5361658D01*
X8421952Y5361656D01*
X8421954Y5361653D01*
X8511652Y5271955D01*
X8511654Y5271954D01*
X8511658Y5271950D01*
X8624696Y5214354D01*
X8624697Y5214354D01*
X8624699Y5214353D01*
X8749997Y5194508D01*
X8750000Y5194508D01*
X8750003Y5194508D01*
X8875300Y5214353D01*
X8875301Y5214353D01*
X8875302Y5214354D01*
X8875304Y5214354D01*
X8988342Y5271950D01*
X9078050Y5361658D01*
X9135646Y5474696D01*
X9135646Y5474698D01*
X9139515Y5482290D01*
X9187490Y5533086D01*
X9255311Y5549881D01*
X9321446Y5527343D01*
X9360485Y5482290D01*
X9364353Y5474698D01*
X9364354Y5474696D01*
X9421950Y5361658D01*
X9421952Y5361656D01*
X9421954Y5361653D01*
X9511652Y5271955D01*
X9511654Y5271954D01*
X9511658Y5271950D01*
X9624696Y5214354D01*
X9624697Y5214354D01*
X9624699Y5214353D01*
X9749997Y5194508D01*
X9750000Y5194508D01*
X9750003Y5194508D01*
X9875300Y5214353D01*
X9875301Y5214353D01*
X9875302Y5214354D01*
X9875304Y5214354D01*
X9988342Y5271950D01*
X10056550Y5340159D01*
X10117871Y5373642D01*
X10187563Y5368658D01*
X10243497Y5326787D01*
X10254709Y5308780D01*
X10290594Y5238353D01*
X10290595Y5238352D01*
X10290598Y5238348D01*
X10380296Y5148650D01*
X10380298Y5148649D01*
X10380302Y5148645D01*
X10493340Y5091049D01*
X10493341Y5091049D01*
X10493343Y5091048D01*
X10618641Y5071203D01*
X10618644Y5071203D01*
X10618647Y5071203D01*
X10743944Y5091048D01*
X10743945Y5091048D01*
X10743946Y5091049D01*
X10743948Y5091049D01*
X10856986Y5148645D01*
X10946694Y5238353D01*
X10991233Y5325766D01*
X11314500Y5325766D01*
X11314500Y5174234D01*
X11324951Y5135231D01*
X11353719Y5027864D01*
X11362702Y5012306D01*
X11429485Y4896635D01*
X11536635Y4789485D01*
X11667865Y4713719D01*
X11814234Y4674500D01*
X11814236Y4674500D01*
X11965764Y4674500D01*
X11965766Y4674500D01*
X12112135Y4713719D01*
X12243365Y4789485D01*
X12350515Y4896635D01*
X12389460Y4964091D01*
X12440027Y5012306D01*
X12508634Y5025529D01*
X12573499Y4999561D01*
X12611408Y4949542D01*
X12654912Y4844512D01*
X12654919Y4844499D01*
X12737048Y4721585D01*
X12737051Y4721581D01*
X12841580Y4617052D01*
X12841584Y4617049D01*
X12964498Y4534920D01*
X12964511Y4534913D01*
X13101082Y4478344D01*
X13101087Y4478342D01*
X13101091Y4478342D01*
X13101092Y4478341D01*
X13246079Y4449500D01*
X13246082Y4449500D01*
X13393920Y4449500D01*
X13491462Y4468904D01*
X13538913Y4478342D01*
X13675495Y4534916D01*
X13798416Y4617049D01*
X13902951Y4721584D01*
X13985084Y4844505D01*
X14041658Y4981087D01*
X14063531Y5091048D01*
X14070500Y5126080D01*
X14070500Y6373921D01*
X14041659Y6518908D01*
X14041658Y6518909D01*
X14041658Y6518913D01*
X14041656Y6518918D01*
X13985087Y6655489D01*
X13985080Y6655502D01*
X13902951Y6778416D01*
X13902948Y6778420D01*
X13836306Y6845062D01*
X13802821Y6906385D01*
X13807805Y6976077D01*
X13823669Y7005628D01*
X13828044Y7011653D01*
X13828050Y7011658D01*
X13885646Y7124696D01*
X13885646Y7124698D01*
X13885647Y7124699D01*
X13885647Y7124700D01*
X13905492Y7249997D01*
X13905492Y7250004D01*
X13885647Y7375301D01*
X13885647Y7375302D01*
X13885646Y7375304D01*
X13828050Y7488342D01*
X13828046Y7488346D01*
X13828045Y7488348D01*
X13738347Y7578046D01*
X13738344Y7578048D01*
X13738342Y7578050D01*
X13625304Y7635646D01*
X13625303Y7635647D01*
X13625300Y7635648D01*
X13500003Y7655492D01*
X13499997Y7655492D01*
X13374699Y7635648D01*
X13374695Y7635647D01*
X13306294Y7600794D01*
X13237625Y7587898D01*
X13193706Y7600794D01*
X13125304Y7635647D01*
X13125300Y7635648D01*
X13000003Y7655492D01*
X12999997Y7655492D01*
X12874699Y7635648D01*
X12874698Y7635648D01*
X12806295Y7600794D01*
X12761658Y7578050D01*
X12761657Y7578049D01*
X12761652Y7578046D01*
X12671954Y7488348D01*
X12671951Y7488343D01*
X12671950Y7488342D01*
X12652751Y7450663D01*
X12614352Y7375302D01*
X12614352Y7375301D01*
X12594508Y7250004D01*
X12594508Y7249997D01*
X12614352Y7124700D01*
X12614352Y7124699D01*
X12632805Y7088483D01*
X12671950Y7011658D01*
X12671952Y7011656D01*
X12671954Y7011653D01*
X12733438Y6950169D01*
X12766923Y6888846D01*
X12761939Y6819154D01*
X12739539Y6784245D01*
X12740910Y6783120D01*
X12737046Y6778413D01*
X12654919Y6655502D01*
X12654912Y6655489D01*
X12598343Y6518918D01*
X12598340Y6518908D01*
X12569500Y6373921D01*
X12569500Y5683270D01*
X12549815Y5616231D01*
X12497011Y5570476D01*
X12427853Y5560532D01*
X12364297Y5589557D01*
X12356488Y5597845D01*
X12356262Y5597618D01*
X12243367Y5710513D01*
X12243365Y5710515D01*
X12143927Y5767926D01*
X12112136Y5786281D01*
X12038950Y5805891D01*
X11965766Y5825500D01*
X11814234Y5825500D01*
X11667863Y5786281D01*
X11536635Y5710515D01*
X11536632Y5710513D01*
X11429487Y5603368D01*
X11429485Y5603365D01*
X11353719Y5472137D01*
X11327328Y5373642D01*
X11314500Y5325766D01*
X10991233Y5325766D01*
X11004290Y5351391D01*
X11004290Y5351393D01*
X11004291Y5351394D01*
X11004291Y5351395D01*
X11024136Y5476692D01*
X11024136Y5476699D01*
X11004291Y5601996D01*
X11004291Y5601997D01*
X10997038Y5616231D01*
X10946694Y5715037D01*
X10946690Y5715041D01*
X10946689Y5715043D01*
X10856991Y5804741D01*
X10856988Y5804743D01*
X10856986Y5804745D01*
X10743948Y5862341D01*
X10743947Y5862342D01*
X10743944Y5862343D01*
X10618647Y5882187D01*
X10618641Y5882187D01*
X10493343Y5862343D01*
X10493342Y5862343D01*
X10421036Y5825500D01*
X10380302Y5804745D01*
X10380301Y5804744D01*
X10380299Y5804744D01*
X10312094Y5736538D01*
X10250770Y5703054D01*
X10181079Y5708039D01*
X10125145Y5749910D01*
X10113932Y5767918D01*
X10078050Y5838342D01*
X10078047Y5838345D01*
X10078045Y5838348D01*
X9988347Y5928046D01*
X9988344Y5928048D01*
X9988342Y5928050D01*
X9875304Y5985646D01*
X9875303Y5985647D01*
X9875300Y5985648D01*
X9750003Y6005492D01*
X9749997Y6005492D01*
X9624699Y5985648D01*
X9624698Y5985648D01*
X9561783Y5953590D01*
X9511658Y5928050D01*
X9511657Y5928049D01*
X9511652Y5928046D01*
X9421954Y5838348D01*
X9421949Y5838341D01*
X9360484Y5717710D01*
X9312510Y5666915D01*
X9244689Y5650120D01*
X9178554Y5672658D01*
X9139516Y5717710D01*
X9097261Y5800639D01*
X9078050Y5838342D01*
X9078047Y5838345D01*
X9078045Y5838348D01*
X8988347Y5928046D01*
X8988344Y5928048D01*
X8988342Y5928050D01*
X8875304Y5985646D01*
X8875303Y5985647D01*
X8875300Y5985648D01*
X8750003Y6005492D01*
X8749997Y6005492D01*
X8624699Y5985648D01*
X8624698Y5985648D01*
X8561783Y5953590D01*
X8511658Y5928050D01*
X8511657Y5928049D01*
X8511652Y5928046D01*
X8421954Y5838348D01*
X8421951Y5838343D01*
X8421950Y5838342D01*
X8413784Y5822315D01*
X8364352Y5725302D01*
X8364352Y5725301D01*
X8344508Y5600004D01*
X6572455Y5600004D01*
X6570515Y5603365D01*
X6463365Y5710515D01*
X6363927Y5767926D01*
X6332136Y5786281D01*
X6258950Y5805891D01*
X6185766Y5825500D01*
X6034234Y5825500D01*
X5887863Y5786281D01*
X5756635Y5710515D01*
X5756632Y5710513D01*
X5643738Y5597618D01*
X5641719Y5599637D01*
X5596445Y5566580D01*
X5526698Y5562427D01*
X5465779Y5596641D01*
X5433028Y5658359D01*
X5430500Y5683270D01*
X5430500Y6373921D01*
X5401659Y6518908D01*
X5401658Y6518909D01*
X5401658Y6518913D01*
X5401656Y6518918D01*
X5345087Y6655489D01*
X5345080Y6655502D01*
X5262951Y6778416D01*
X5262948Y6778420D01*
X5158419Y6882949D01*
X5158415Y6882952D01*
X5035501Y6965081D01*
X5035488Y6965088D01*
X4898917Y7021657D01*
X4898907Y7021660D01*
X4753920Y7050500D01*
X4753918Y7050500D01*
X4606082Y7050500D01*
X4606080Y7050500D01*
X4461092Y7021660D01*
X4461082Y7021657D01*
X4324511Y6965088D01*
X4324498Y6965081D01*
X4201584Y6882952D01*
X4201580Y6882949D01*
X4097051Y6778420D01*
X4097048Y6778416D01*
X4014919Y6655502D01*
X4014912Y6655489D01*
X3958343Y6518918D01*
X3958340Y6518908D01*
X3929500Y6373921D01*
X3929500Y6373918D01*
X3929500Y5126082D01*
X3929500Y5126080D01*
X3929499Y5126080D01*
X1801076Y5126080D01*
X1783954Y5135232D01*
X1585934Y5195300D01*
X1585932Y5195301D01*
X1585934Y5195301D01*
X1380000Y5215583D01*
X1174067Y5195301D01*
X976043Y5135231D01*
X893386Y5091049D01*
X793550Y5037685D01*
X793548Y5037684D01*
X793547Y5037683D01*
X703164Y4963508D01*
X638854Y4936196D01*
X569987Y4947987D01*
X518427Y4995140D01*
X500500Y5059362D01*
X500500Y5800639D01*
X520185Y5867678D01*
X572989Y5913433D01*
X642147Y5923377D01*
X703163Y5896493D01*
X744778Y5862341D01*
X774013Y5838348D01*
X793550Y5822315D01*
X976046Y5724768D01*
X1174066Y5664700D01*
X1174065Y5664700D01*
X1192529Y5662882D01*
X1380000Y5644417D01*
X1585934Y5664700D01*
X1783954Y5724768D01*
X1966450Y5822315D01*
X2126410Y5953590D01*
X2257685Y6113550D01*
X2355232Y6296046D01*
X2415300Y6494066D01*
X2430607Y6649483D01*
X2819508Y6649483D01*
X2819508Y6649476D01*
X2839352Y6524179D01*
X2839352Y6524178D01*
X2854694Y6494068D01*
X2896950Y6411137D01*
X2896952Y6411135D01*
X2896954Y6411132D01*
X2986652Y6321434D01*
X2986654Y6321433D01*
X2986658Y6321429D01*
X3099696Y6263833D01*
X3099697Y6263833D01*
X3099699Y6263832D01*
X3224997Y6243987D01*
X3225000Y6243987D01*
X3225003Y6243987D01*
X3350300Y6263832D01*
X3350301Y6263832D01*
X3350302Y6263833D01*
X3350304Y6263833D01*
X3463342Y6321429D01*
X3553050Y6411137D01*
X3610646Y6524175D01*
X3610646Y6524177D01*
X3610647Y6524178D01*
X3610647Y6524179D01*
X3630492Y6649476D01*
X3630492Y6649483D01*
X3610647Y6774780D01*
X3610647Y6774781D01*
X3605825Y6784245D01*
X3553050Y6887821D01*
X3553046Y6887825D01*
X3553045Y6887827D01*
X3463347Y6977525D01*
X3463344Y6977527D01*
X3463342Y6977529D01*
X3350304Y7035125D01*
X3350303Y7035126D01*
X3350300Y7035127D01*
X3225003Y7054971D01*
X3224997Y7054971D01*
X3099699Y7035127D01*
X3099698Y7035127D01*
X3041805Y7005628D01*
X2986658Y6977529D01*
X2986657Y6977528D01*
X2986652Y6977525D01*
X2896954Y6887827D01*
X2896951Y6887822D01*
X2896950Y6887821D01*
X2877751Y6850142D01*
X2839352Y6774781D01*
X2839352Y6774780D01*
X2819508Y6649483D01*
X2430607Y6649483D01*
X2435583Y6700000D01*
X2415300Y6905934D01*
X2355232Y7103954D01*
X2257685Y7286450D01*
X2205702Y7349791D01*
X2126410Y7446411D01*
X2008677Y7543031D01*
X1966450Y7577685D01*
X1783954Y7675232D01*
X1585934Y7735300D01*
X1585932Y7735301D01*
X1585934Y7735301D01*
X1380000Y7755583D01*
X1174067Y7735301D01*
X976043Y7675231D01*
X939115Y7655492D01*
X793550Y7577685D01*
X793548Y7577684D01*
X793547Y7577683D01*
X703164Y7503508D01*
X638854Y7476196D01*
X569987Y7487987D01*
X518427Y7535140D01*
X500500Y7599362D01*
X500500Y8340639D01*
X520185Y8407678D01*
X572989Y8453433D01*
X642147Y8463377D01*
X703165Y8436492D01*
X791066Y8364353D01*
X793550Y8362315D01*
X976046Y8264768D01*
X1174066Y8204700D01*
X1174065Y8204700D01*
X1192529Y8202882D01*
X1380000Y8184417D01*
X1585934Y8204700D01*
X1783954Y8264768D01*
X1966450Y8362315D01*
X2126410Y8493590D01*
X2257685Y8653550D01*
X2303896Y8740004D01*
X6334508Y8740004D01*
X6334508Y8739997D01*
X6354352Y8614700D01*
X6354352Y8614699D01*
X6354354Y8614696D01*
X6411950Y8501658D01*
X6411952Y8501656D01*
X6411954Y8501653D01*
X6501652Y8411955D01*
X6501654Y8411954D01*
X6501658Y8411950D01*
X6614696Y8354354D01*
X6614697Y8354354D01*
X6614699Y8354353D01*
X6739997Y8334508D01*
X6740000Y8334508D01*
X6740003Y8334508D01*
X6865300Y8354353D01*
X6865301Y8354353D01*
X6865302Y8354354D01*
X6865304Y8354354D01*
X6978342Y8411950D01*
X7068050Y8501658D01*
X7071382Y8508197D01*
X7854207Y8508197D01*
X7854207Y8508190D01*
X7874051Y8382893D01*
X7874051Y8382892D01*
X7884534Y8362318D01*
X7931649Y8269851D01*
X7931651Y8269849D01*
X7931653Y8269846D01*
X8021351Y8180148D01*
X8021353Y8180147D01*
X8021357Y8180143D01*
X8134395Y8122547D01*
X8134396Y8122547D01*
X8134398Y8122546D01*
X8259696Y8102701D01*
X8259699Y8102701D01*
X8259702Y8102701D01*
X8384999Y8122546D01*
X8385000Y8122546D01*
X8385001Y8122547D01*
X8385003Y8122547D01*
X8498041Y8180143D01*
X8587749Y8269851D01*
X8645345Y8382889D01*
X8645345Y8382891D01*
X8645346Y8382892D01*
X8645346Y8382893D01*
X8665191Y8508190D01*
X8665191Y8508197D01*
X8645346Y8633494D01*
X8645346Y8633495D01*
X8633397Y8656946D01*
X8587749Y8746535D01*
X8587745Y8746539D01*
X8587744Y8746541D01*
X8498046Y8836239D01*
X8498043Y8836241D01*
X8498041Y8836243D01*
X8385003Y8893839D01*
X8385002Y8893840D01*
X8384999Y8893841D01*
X8259702Y8913685D01*
X8259696Y8913685D01*
X8134398Y8893841D01*
X8134397Y8893841D01*
X8078392Y8865304D01*
X8021357Y8836243D01*
X8021356Y8836242D01*
X8021351Y8836239D01*
X7931653Y8746541D01*
X7931650Y8746536D01*
X7931649Y8746535D01*
X7928318Y8739997D01*
X7874051Y8633495D01*
X7874051Y8633494D01*
X7854207Y8508197D01*
X7071382Y8508197D01*
X7125646Y8614696D01*
X7125646Y8614698D01*
X7125647Y8614699D01*
X7125647Y8614700D01*
X7145492Y8739997D01*
X7145492Y8740004D01*
X7125647Y8865301D01*
X7125647Y8865302D01*
X7120550Y8875305D01*
X7068050Y8978342D01*
X7068046Y8978346D01*
X7068045Y8978348D01*
X6978347Y9068046D01*
X6978344Y9068048D01*
X6978342Y9068050D01*
X6865304Y9125646D01*
X6865303Y9125647D01*
X6865300Y9125648D01*
X6740003Y9145492D01*
X6739997Y9145492D01*
X6614699Y9125648D01*
X6614698Y9125648D01*
X6539337Y9087249D01*
X6501658Y9068050D01*
X6501657Y9068049D01*
X6501652Y9068046D01*
X6411954Y8978348D01*
X6411951Y8978343D01*
X6354352Y8865302D01*
X6354352Y8865301D01*
X6334508Y8740004D01*
X2303896Y8740004D01*
X2355232Y8836046D01*
X2415300Y9034066D01*
X2429853Y9181827D01*
X4699508Y9181827D01*
X4699508Y9181820D01*
X4719352Y9056523D01*
X4719352Y9056522D01*
X4730793Y9034068D01*
X4776950Y8943481D01*
X4776952Y8943479D01*
X4776954Y8943476D01*
X4866652Y8853778D01*
X4866654Y8853777D01*
X4866658Y8853773D01*
X4979696Y8796177D01*
X4979697Y8796177D01*
X4979699Y8796176D01*
X5104997Y8776331D01*
X5105000Y8776331D01*
X5105003Y8776331D01*
X5230300Y8796176D01*
X5230301Y8796176D01*
X5230302Y8796177D01*
X5230304Y8796177D01*
X5343342Y8853773D01*
X5433050Y8943481D01*
X5490646Y9056519D01*
X5490646Y9056521D01*
X5490647Y9056522D01*
X5490647Y9056523D01*
X5510492Y9181820D01*
X5510492Y9181827D01*
X5499694Y9250004D01*
X10394508Y9250004D01*
X10394508Y9249997D01*
X10414352Y9124700D01*
X10414353Y9124696D01*
X10449206Y9056294D01*
X10462102Y8987625D01*
X10449206Y8943706D01*
X10414353Y8875305D01*
X10414352Y8875301D01*
X10394508Y8750004D01*
X10394508Y8749997D01*
X10414352Y8624700D01*
X10414352Y8624699D01*
X10419449Y8614696D01*
X10471950Y8511658D01*
X10471952Y8511656D01*
X10471954Y8511653D01*
X10561652Y8421955D01*
X10561654Y8421954D01*
X10561658Y8421950D01*
X10674696Y8364354D01*
X10674697Y8364354D01*
X10674699Y8364353D01*
X10799997Y8344508D01*
X10800000Y8344508D01*
X10800003Y8344508D01*
X10925300Y8364353D01*
X10925301Y8364353D01*
X10925302Y8364354D01*
X10925304Y8364354D01*
X11038342Y8421950D01*
X11128050Y8511658D01*
X11185646Y8624696D01*
X11185646Y8624698D01*
X11185647Y8624699D01*
X11185647Y8624700D01*
X11205492Y8749997D01*
X11205492Y8750004D01*
X11185647Y8875301D01*
X11185646Y8875304D01*
X11150794Y8943704D01*
X11137897Y9012374D01*
X11150794Y9056296D01*
X11156781Y9068046D01*
X11185646Y9124696D01*
X11185647Y9124700D01*
X11205492Y9249997D01*
X11205492Y9250004D01*
X11185647Y9375301D01*
X11185647Y9375302D01*
X11185646Y9375304D01*
X11128050Y9488342D01*
X11128046Y9488346D01*
X11128045Y9488348D01*
X11038347Y9578046D01*
X11038344Y9578048D01*
X11038342Y9578050D01*
X10925304Y9635646D01*
X10925303Y9635647D01*
X10925300Y9635648D01*
X10800003Y9655492D01*
X10799997Y9655492D01*
X10674699Y9635648D01*
X10674698Y9635648D01*
X10599337Y9597249D01*
X10561658Y9578050D01*
X10561657Y9578049D01*
X10561652Y9578046D01*
X10471954Y9488348D01*
X10471951Y9488343D01*
X10414352Y9375302D01*
X10414352Y9375301D01*
X10394508Y9250004D01*
X5499694Y9250004D01*
X5490647Y9307124D01*
X5490647Y9307125D01*
X5455909Y9375301D01*
X5433050Y9420165D01*
X5433046Y9420169D01*
X5433045Y9420171D01*
X5343347Y9509869D01*
X5343344Y9509871D01*
X5343342Y9509873D01*
X5230304Y9567469D01*
X5230303Y9567470D01*
X5230300Y9567471D01*
X5105003Y9587315D01*
X5104997Y9587315D01*
X4979699Y9567471D01*
X4979698Y9567471D01*
X4904337Y9529072D01*
X4866658Y9509873D01*
X4866657Y9509872D01*
X4866652Y9509869D01*
X4776954Y9420171D01*
X4776951Y9420166D01*
X4719352Y9307125D01*
X4719352Y9307124D01*
X4699508Y9181827D01*
X2429853Y9181827D01*
X2435583Y9240000D01*
X2415300Y9445934D01*
X2355232Y9643954D01*
X2257685Y9826450D01*
X2126410Y9986410D01*
X2126409Y9986411D01*
X2015589Y10077359D01*
X1976255Y10135104D01*
X1974384Y10204949D01*
X2006571Y10260891D01*
X3095684Y11350004D01*
X5594508Y11350004D01*
X5594508Y11349997D01*
X5614352Y11224700D01*
X5614352Y11224699D01*
X5614354Y11224696D01*
X5671950Y11111658D01*
X5671952Y11111656D01*
X5671954Y11111653D01*
X5761652Y11021955D01*
X5761654Y11021954D01*
X5761658Y11021950D01*
X5874696Y10964354D01*
X5874697Y10964354D01*
X5874699Y10964353D01*
X5999997Y10944508D01*
X6000000Y10944508D01*
X6000003Y10944508D01*
X6125300Y10964353D01*
X6125301Y10964353D01*
X6125302Y10964354D01*
X6125304Y10964354D01*
X6238342Y11021950D01*
X6328050Y11111658D01*
X6385646Y11224696D01*
X6404321Y11342608D01*
X6434248Y11405738D01*
X6493559Y11442670D01*
X6507372Y11445676D01*
X6625304Y11464354D01*
X6738342Y11521950D01*
X6828050Y11611658D01*
X6885646Y11724696D01*
X6885646Y11724698D01*
X6885647Y11724699D01*
X6885647Y11724700D01*
X6905492Y11849997D01*
X6905492Y11850004D01*
X6885647Y11975301D01*
X6885647Y11975302D01*
X6880230Y11985934D01*
X6828050Y12088342D01*
X6828046Y12088346D01*
X6828045Y12088348D01*
X6738347Y12178046D01*
X6738344Y12178048D01*
X6738342Y12178050D01*
X6625304Y12235646D01*
X6625303Y12235647D01*
X6625300Y12235648D01*
X6500003Y12255492D01*
X6499997Y12255492D01*
X6374699Y12235648D01*
X6374698Y12235648D01*
X6299337Y12197249D01*
X6261658Y12178050D01*
X6261657Y12178049D01*
X6261652Y12178046D01*
X6171954Y12088348D01*
X6171951Y12088343D01*
X6114352Y11975302D01*
X6114352Y11975301D01*
X6095679Y11857397D01*
X6065750Y11794262D01*
X6006439Y11757330D01*
X5992603Y11754321D01*
X5874699Y11735648D01*
X5874698Y11735648D01*
X5799337Y11697249D01*
X5761658Y11678050D01*
X5761657Y11678049D01*
X5761652Y11678046D01*
X5671954Y11588348D01*
X5671951Y11588343D01*
X5614352Y11475302D01*
X5614352Y11475301D01*
X5594508Y11350004D01*
X3095684Y11350004D01*
X4495684Y12750004D01*
X11494508Y12750004D01*
X11494508Y12749997D01*
X11514352Y12624700D01*
X11514352Y12624699D01*
X11514354Y12624696D01*
X11571950Y12511658D01*
X11571952Y12511656D01*
X11571954Y12511653D01*
X11661652Y12421955D01*
X11661654Y12421954D01*
X11661658Y12421950D01*
X11774696Y12364354D01*
X11774697Y12364354D01*
X11774699Y12364353D01*
X11899997Y12344508D01*
X11900000Y12344508D01*
X11900003Y12344508D01*
X12025300Y12364353D01*
X12025302Y12364354D01*
X12025304Y12364354D01*
X12138342Y12421950D01*
X12138343Y12421952D01*
X12143704Y12424683D01*
X12212373Y12437580D01*
X12256296Y12424683D01*
X12261656Y12421952D01*
X12261658Y12421950D01*
X12370582Y12366450D01*
X12374696Y12364354D01*
X12374699Y12364353D01*
X12499997Y12344508D01*
X12500000Y12344508D01*
X12500003Y12344508D01*
X12625300Y12364353D01*
X12625301Y12364353D01*
X12625302Y12364354D01*
X12625304Y12364354D01*
X12738342Y12421950D01*
X12828050Y12511658D01*
X12885646Y12624696D01*
X12885646Y12624698D01*
X12885647Y12624699D01*
X12885647Y12624700D01*
X12905492Y12749997D01*
X12905492Y12750004D01*
X12885647Y12875301D01*
X12885647Y12875302D01*
X12885646Y12875304D01*
X12828050Y12988342D01*
X12828045Y12988347D01*
X12822311Y12996241D01*
X12823665Y12997226D01*
X12795590Y13048632D01*
X12800569Y13118324D01*
X12823013Y13153249D01*
X12822311Y13153759D01*
X12828042Y13161651D01*
X12828050Y13161658D01*
X12885646Y13274696D01*
X12885646Y13274698D01*
X12885647Y13274699D01*
X12885647Y13274700D01*
X12905492Y13399997D01*
X12905492Y13400004D01*
X12885647Y13525301D01*
X12885647Y13525302D01*
X12876219Y13543805D01*
X12828050Y13638342D01*
X12828046Y13638346D01*
X12828045Y13638348D01*
X12738347Y13728046D01*
X12738344Y13728048D01*
X12738342Y13728050D01*
X12625304Y13785646D01*
X12625303Y13785647D01*
X12625300Y13785648D01*
X12500003Y13805492D01*
X12499997Y13805492D01*
X12374699Y13785648D01*
X12374695Y13785647D01*
X12306294Y13750794D01*
X12237625Y13737898D01*
X12193706Y13750794D01*
X12125304Y13785647D01*
X12125300Y13785648D01*
X12000003Y13805492D01*
X11999997Y13805492D01*
X11874699Y13785648D01*
X11874698Y13785648D01*
X11806295Y13750794D01*
X11761658Y13728050D01*
X11761657Y13728049D01*
X11761652Y13728046D01*
X11671954Y13638348D01*
X11671951Y13638343D01*
X11614352Y13525302D01*
X11614352Y13525301D01*
X11594508Y13400004D01*
X11594508Y13399997D01*
X11614352Y13274700D01*
X11614352Y13274699D01*
X11655796Y13193362D01*
X11668692Y13124693D01*
X11642416Y13059952D01*
X11632993Y13049386D01*
X11571951Y12988345D01*
X11571951Y12988343D01*
X11571950Y12988342D01*
X11568430Y12981433D01*
X11514352Y12875302D01*
X11514352Y12875301D01*
X11494508Y12750004D01*
X4495684Y12750004D01*
X5995685Y14250004D01*
X7094508Y14250004D01*
X7094508Y14249997D01*
X7114352Y14124700D01*
X7114352Y14124699D01*
X7114354Y14124696D01*
X7171950Y14011658D01*
X7171952Y14011656D01*
X7171954Y14011653D01*
X7261652Y13921955D01*
X7261654Y13921954D01*
X7261658Y13921950D01*
X7374696Y13864354D01*
X7374697Y13864354D01*
X7374699Y13864353D01*
X7499997Y13844508D01*
X7500000Y13844508D01*
X7500003Y13844508D01*
X7625300Y13864353D01*
X7625301Y13864353D01*
X7625302Y13864354D01*
X7625304Y13864354D01*
X7738342Y13921950D01*
X7828050Y14011658D01*
X7885646Y14124696D01*
X7885646Y14124698D01*
X7885647Y14124699D01*
X7885647Y14124700D01*
X7905492Y14249997D01*
X7905492Y14250004D01*
X7885647Y14375301D01*
X7885647Y14375302D01*
X7861737Y14422227D01*
X7828050Y14488342D01*
X7828046Y14488346D01*
X7828045Y14488348D01*
X7738347Y14578046D01*
X7738344Y14578048D01*
X7738342Y14578050D01*
X7625304Y14635646D01*
X7625303Y14635647D01*
X7625300Y14635648D01*
X7500003Y14655492D01*
X7499997Y14655492D01*
X7374699Y14635648D01*
X7374698Y14635648D01*
X7299337Y14597249D01*
X7261658Y14578050D01*
X7261657Y14578049D01*
X7261652Y14578046D01*
X7171954Y14488348D01*
X7171951Y14488343D01*
X7171950Y14488342D01*
X7152751Y14450663D01*
X7114352Y14375302D01*
X7114352Y14375301D01*
X7094508Y14250004D01*
X5995685Y14250004D01*
X6555469Y14809788D01*
X6601614Y14889712D01*
X6615343Y14940950D01*
X6617769Y14950004D01*
X8694508Y14950004D01*
X8694508Y14949997D01*
X8714352Y14824700D01*
X8714352Y14824699D01*
X8714354Y14824696D01*
X8771950Y14711658D01*
X8771952Y14711656D01*
X8771954Y14711653D01*
X8861652Y14621955D01*
X8861654Y14621954D01*
X8861658Y14621950D01*
X8974696Y14564354D01*
X8974697Y14564354D01*
X8974699Y14564353D01*
X9099997Y14544508D01*
X9100000Y14544508D01*
X9100003Y14544508D01*
X9225300Y14564353D01*
X9225301Y14564353D01*
X9225302Y14564354D01*
X9225304Y14564354D01*
X9338342Y14621950D01*
X9428050Y14711658D01*
X9485646Y14824696D01*
X9485646Y14824698D01*
X9485647Y14824699D01*
X9485647Y14824700D01*
X9505492Y14949997D01*
X9505492Y14950004D01*
X9485647Y15075301D01*
X9485647Y15075302D01*
X9468993Y15107987D01*
X9428050Y15188342D01*
X9428046Y15188346D01*
X9428045Y15188348D01*
X9338347Y15278046D01*
X9338344Y15278048D01*
X9338342Y15278050D01*
X9225304Y15335646D01*
X9225303Y15335647D01*
X9225300Y15335648D01*
X9100003Y15355492D01*
X9099997Y15355492D01*
X8974699Y15335648D01*
X8974698Y15335648D01*
X8899337Y15297249D01*
X8861658Y15278050D01*
X8861657Y15278049D01*
X8861652Y15278046D01*
X8771954Y15188348D01*
X8771951Y15188343D01*
X8771950Y15188342D01*
X8759434Y15163778D01*
X8714352Y15075302D01*
X8714352Y15075301D01*
X8694508Y14950004D01*
X6617769Y14950004D01*
X6625500Y14978856D01*
X6625500Y15457782D01*
X6639015Y15514077D01*
X6660646Y15556529D01*
X6660647Y15556533D01*
X6680492Y15681830D01*
X6680492Y15681837D01*
X6660647Y15807134D01*
X6660647Y15807135D01*
X6641604Y15844508D01*
X6603050Y15920175D01*
X6603046Y15920179D01*
X6603045Y15920181D01*
X6513347Y16009879D01*
X6513344Y16009881D01*
X6513342Y16009883D01*
X6400304Y16067479D01*
X6400302Y16067480D01*
X6400301Y16067480D01*
X6328510Y16078851D01*
X6265376Y16108781D01*
X6228445Y16168092D01*
X6225436Y16181926D01*
X6214654Y16250004D01*
X12394508Y16250004D01*
X12394508Y16249997D01*
X12414352Y16124700D01*
X12414352Y16124699D01*
X12422463Y16108781D01*
X12471950Y16011658D01*
X12471952Y16011656D01*
X12471954Y16011653D01*
X12561652Y15921955D01*
X12561654Y15921954D01*
X12561658Y15921950D01*
X12674696Y15864354D01*
X12674697Y15864354D01*
X12674699Y15864353D01*
X12799997Y15844508D01*
X12800000Y15844508D01*
X12800003Y15844508D01*
X12925300Y15864353D01*
X12925301Y15864353D01*
X12925302Y15864354D01*
X12925304Y15864354D01*
X13038342Y15921950D01*
X13128050Y16011658D01*
X13185646Y16124696D01*
X13185646Y16124698D01*
X13185647Y16124699D01*
X13185647Y16124700D01*
X13205492Y16249997D01*
X13205492Y16250004D01*
X13185647Y16375301D01*
X13185647Y16375302D01*
X13179000Y16388348D01*
X13128050Y16488342D01*
X13128046Y16488346D01*
X13128045Y16488348D01*
X13038347Y16578046D01*
X13038344Y16578048D01*
X13038342Y16578050D01*
X12925304Y16635646D01*
X12925303Y16635647D01*
X12925300Y16635648D01*
X12800003Y16655492D01*
X12799997Y16655492D01*
X12674699Y16635648D01*
X12674698Y16635648D01*
X12599337Y16597249D01*
X12561658Y16578050D01*
X12561657Y16578049D01*
X12561652Y16578046D01*
X12471954Y16488348D01*
X12471951Y16488343D01*
X12471950Y16488342D01*
X12466704Y16478046D01*
X12414352Y16375302D01*
X12414352Y16375301D01*
X12394508Y16250004D01*
X6214654Y16250004D01*
X6210647Y16275302D01*
X6209809Y16276946D01*
X6153050Y16388342D01*
X6153046Y16388346D01*
X6153045Y16388348D01*
X6063347Y16478046D01*
X6063344Y16478048D01*
X6063342Y16478050D01*
X5950304Y16535646D01*
X5950303Y16535647D01*
X5950300Y16535648D01*
X5825003Y16555492D01*
X5824997Y16555492D01*
X5699699Y16535648D01*
X5699698Y16535648D01*
X5624337Y16497249D01*
X5586658Y16478050D01*
X5586657Y16478049D01*
X5586652Y16478046D01*
X5496954Y16388348D01*
X5496951Y16388343D01*
X5496950Y16388342D01*
X5477751Y16350663D01*
X5439352Y16275302D01*
X5439352Y16275301D01*
X5419508Y16150004D01*
X5419508Y16149997D01*
X5439352Y16024700D01*
X5439353Y16024697D01*
X5439354Y16024696D01*
X5460948Y15982315D01*
X5460985Y15982244D01*
X5474500Y15925949D01*
X5474500Y15766666D01*
X5454815Y15699627D01*
X5402011Y15653872D01*
X5332853Y15643928D01*
X5269297Y15672953D01*
X5262820Y15678984D01*
X5228614Y15713190D01*
X5228611Y15713191D01*
X5143507Y15766666D01*
X5115940Y15783988D01*
X5115938Y15783989D01*
X5115936Y15783990D01*
X4990338Y15827938D01*
X4858113Y15842836D01*
X4858105Y15842836D01*
X4725881Y15827939D01*
X4600280Y15783988D01*
X4600274Y15783986D01*
X4487602Y15713187D01*
X4425993Y15651577D01*
X4425993Y15651576D01*
X4317730Y15543315D01*
X4317058Y15542549D01*
X4308721Y15534212D01*
X4237930Y15421561D01*
X4193979Y15295991D01*
X4179066Y15163779D01*
X4179066Y15163778D01*
X4193942Y15031577D01*
X4193943Y15031572D01*
X4237860Y14905985D01*
X4298269Y14809795D01*
X4308619Y14793316D01*
X4317582Y14784348D01*
X4317726Y14784184D01*
X4355620Y14746290D01*
X4355636Y14746260D01*
X4355643Y14746266D01*
X4401645Y14700240D01*
X4401817Y14700093D01*
X4557591Y14544320D01*
X4591075Y14482998D01*
X4586091Y14413307D01*
X4557590Y14368959D01*
X4221024Y14032393D01*
X4159701Y13998908D01*
X4090009Y14003892D01*
X4045662Y14032393D01*
X3836734Y14241321D01*
X3836708Y14241344D01*
X3827681Y14250371D01*
X3794359Y14271308D01*
X3715011Y14321167D01*
X3705393Y14324533D01*
X3589407Y14365119D01*
X3457185Y14380016D01*
X3457177Y14380016D01*
X3324951Y14365118D01*
X3199353Y14321170D01*
X3199347Y14321167D01*
X3086683Y14250374D01*
X3086680Y14250371D01*
X3072263Y14235955D01*
X2916592Y14080286D01*
X2916273Y14079922D01*
X2907797Y14071448D01*
X2907793Y14071444D01*
X2836981Y13958783D01*
X2793015Y13833182D01*
X2793015Y13833180D01*
X2778104Y13700947D01*
X2778104Y13700944D01*
X2792993Y13568718D01*
X2792994Y13568713D01*
X2811264Y13516492D01*
X2836938Y13443108D01*
X2907734Y13330429D01*
X2916762Y13321402D01*
X2916775Y13321387D01*
X2922151Y13316011D01*
X2922152Y13316010D01*
X3125717Y13112446D01*
X3159201Y13051125D01*
X3154217Y12981433D01*
X3125716Y12937085D01*
X2479500Y12290870D01*
X2418177Y12257385D01*
X2348485Y12262369D01*
X2292552Y12304241D01*
X2282461Y12320097D01*
X2257685Y12366450D01*
X2205702Y12429791D01*
X2126410Y12526411D01*
X1966452Y12657683D01*
X1966453Y12657683D01*
X1966450Y12657685D01*
X1783954Y12755232D01*
X1585934Y12815300D01*
X1585932Y12815301D01*
X1585934Y12815301D01*
X1380000Y12835583D01*
X1174067Y12815301D01*
X976043Y12755231D01*
X865898Y12696357D01*
X793550Y12657685D01*
X793548Y12657684D01*
X793547Y12657683D01*
X703164Y12583508D01*
X638854Y12556196D01*
X569987Y12567987D01*
X518427Y12615140D01*
X500500Y12679362D01*
X500500Y13420639D01*
X520185Y13487678D01*
X572989Y13533433D01*
X642147Y13543377D01*
X703165Y13516492D01*
X792583Y13443108D01*
X793550Y13442315D01*
X976046Y13344768D01*
X1174066Y13284700D01*
X1174065Y13284700D01*
X1192529Y13282882D01*
X1380000Y13264417D01*
X1585934Y13284700D01*
X1783954Y13344768D01*
X1966450Y13442315D01*
X2126410Y13573590D01*
X2257685Y13733550D01*
X2355232Y13916046D01*
X2415300Y14114066D01*
X2435583Y14320000D01*
X2415300Y14525934D01*
X2355232Y14723954D01*
X2257685Y14906450D01*
X2154997Y15031577D01*
X2126410Y15066411D01*
X2007761Y15163782D01*
X1966450Y15197685D01*
X1783954Y15295232D01*
X1585934Y15355300D01*
X1585932Y15355301D01*
X1585934Y15355301D01*
X1380000Y15375583D01*
X1174067Y15355301D01*
X976043Y15295231D01*
X865898Y15236357D01*
X793550Y15197685D01*
X793548Y15197684D01*
X793547Y15197683D01*
X703164Y15123508D01*
X638854Y15096196D01*
X569987Y15107987D01*
X518427Y15155140D01*
X500500Y15219362D01*
X500500Y15960639D01*
X520185Y16027678D01*
X572989Y16073433D01*
X642147Y16083377D01*
X703163Y16056493D01*
X793550Y15982315D01*
X976046Y15884768D01*
X1174066Y15824700D01*
X1174065Y15824700D01*
X1192529Y15822882D01*
X1380000Y15804417D01*
X1585934Y15824700D01*
X1783954Y15884768D01*
X1966450Y15982315D01*
X2126410Y16113590D01*
X2257685Y16273550D01*
X2355232Y16456046D01*
X2415300Y16654066D01*
X2435583Y16860000D01*
X2415300Y17065934D01*
X2355232Y17263954D01*
X2257685Y17446450D01*
X2172707Y17549997D01*
X2126410Y17606411D01*
X1966452Y17737683D01*
X1966453Y17737683D01*
X1966450Y17737685D01*
X1783954Y17835232D01*
X1585934Y17895300D01*
X1585932Y17895301D01*
X1585934Y17895301D01*
X1380000Y17915583D01*
X1174067Y17895301D01*
X976043Y17835231D01*
X888322Y17788342D01*
X793550Y17737685D01*
X793548Y17737684D01*
X793547Y17737683D01*
X703164Y17663508D01*
X638854Y17636196D01*
X569987Y17647987D01*
X518427Y17695140D01*
X500500Y17759362D01*
X500500Y18500639D01*
X520185Y18567678D01*
X572989Y18613433D01*
X642147Y18623377D01*
X703163Y18596493D01*
X793550Y18522315D01*
X976046Y18424768D01*
X1174066Y18364700D01*
X1174065Y18364700D01*
X1192529Y18362882D01*
X1380000Y18344417D01*
X1585934Y18364700D01*
X1783954Y18424768D01*
X1966450Y18522315D01*
X2126410Y18653590D01*
X2257685Y18813550D01*
X2355232Y18996046D01*
X2415300Y19194066D01*
X2435583Y19400000D01*
X2415300Y19605934D01*
X2355232Y19803954D01*
X2257685Y19986450D01*
X2205702Y20049791D01*
X2126410Y20146411D01*
X1966452Y20277683D01*
X1966453Y20277683D01*
X1966450Y20277685D01*
X1783954Y20375232D01*
X1585934Y20435300D01*
X1585932Y20435301D01*
X1585934Y20435301D01*
X1380000Y20455583D01*
X1174067Y20435301D01*
X976043Y20375231D01*
X865898Y20316357D01*
X793550Y20277685D01*
X793548Y20277684D01*
X793547Y20277683D01*
X703164Y20203508D01*
X638854Y20176196D01*
X569987Y20187987D01*
X518427Y20235140D01*
X500500Y20299362D01*
X500500Y21040639D01*
X520185Y21107678D01*
X572989Y21153433D01*
X642147Y21163377D01*
X703163Y21136493D01*
X793550Y21062315D01*
X976046Y20964768D01*
X1174066Y20904700D01*
X1174065Y20904700D01*
X1192529Y20902882D01*
X1380000Y20884417D01*
X1585934Y20904700D01*
X1783954Y20964768D01*
X1966450Y21062315D01*
X2126410Y21193590D01*
X2257685Y21353550D01*
X2355232Y21536046D01*
X2415300Y21734066D01*
X2435583Y21940000D01*
X2415300Y22145934D01*
X2355232Y22343954D01*
X2257685Y22526450D01*
X2203428Y22592563D01*
X2126410Y22686411D01*
X1966452Y22817683D01*
X1966453Y22817683D01*
X1966450Y22817685D01*
X1783954Y22915232D01*
X1585934Y22975300D01*
X1585932Y22975301D01*
X1585934Y22975301D01*
X1380000Y22995583D01*
X1174067Y22975301D01*
X976043Y22915231D01*
X865898Y22856357D01*
X793550Y22817685D01*
X793548Y22817684D01*
X793547Y22817683D01*
X703164Y22743508D01*
X638854Y22716196D01*
X569987Y22727987D01*
X518427Y22775140D01*
X500500Y22839362D01*
X500500Y23580639D01*
X520185Y23647678D01*
X572989Y23693433D01*
X642147Y23703377D01*
X703163Y23676493D01*
X738275Y23647678D01*
X793045Y23602729D01*
X793550Y23602315D01*
X976046Y23504768D01*
X1174066Y23444700D01*
X1174065Y23444700D01*
X1192529Y23442882D01*
X1380000Y23424417D01*
X1585934Y23444700D01*
X1783954Y23504768D01*
X1966450Y23602315D01*
X2126410Y23733590D01*
X2257685Y23893550D01*
X2355232Y24076046D01*
X2415300Y24274066D01*
X2435583Y24480000D01*
X2415300Y24685934D01*
X2355232Y24883954D01*
X2257685Y25066450D01*
X2126701Y25226056D01*
X2126410Y25226411D01*
X1966452Y25357683D01*
X1966453Y25357683D01*
X1966450Y25357685D01*
X1783954Y25455232D01*
X1585934Y25515300D01*
X1585932Y25515301D01*
X1585934Y25515301D01*
X1380000Y25535583D01*
X1174067Y25515301D01*
X976043Y25455231D01*
X882990Y25405492D01*
X793550Y25357685D01*
X793548Y25357684D01*
X793547Y25357683D01*
X703164Y25283508D01*
X638854Y25256196D01*
X569987Y25267987D01*
X518427Y25315140D01*
X500500Y25379362D01*
X500500Y26121284D01*
X520185Y26188323D01*
X572989Y26234078D01*
X642147Y26244022D01*
X703165Y26217137D01*
X793826Y26142733D01*
X793833Y26142729D01*
X976233Y26045234D01*
X1130000Y25998590D01*
X1130000Y26704314D01*
X1134394Y26699920D01*
X1225606Y26647259D01*
X1327339Y26620000D01*
X1432661Y26620000D01*
X1534394Y26647259D01*
X1625606Y26699920D01*
X1630000Y26704314D01*
X1630000Y25998590D01*
X1783766Y26045234D01*
X1966166Y26142729D01*
X1966173Y26142733D01*
X2126055Y26273945D01*
X2257267Y26433827D01*
X2257271Y26433834D01*
X2354766Y26616234D01*
X2401410Y26770000D01*
X1695686Y26770000D01*
X1700080Y26774394D01*
X1752741Y26865606D01*
X1780000Y26967339D01*
X1780000Y27072661D01*
X1752741Y27174394D01*
X1700080Y27265606D01*
X1695686Y27270000D01*
X2401410Y27270000D01*
X2354766Y27423767D01*
X2257271Y27606167D01*
X2257267Y27606174D01*
X2126055Y27766056D01*
X1966173Y27897268D01*
X1966166Y27897272D01*
X1783763Y27994768D01*
X1630000Y28041413D01*
X1630000Y27335686D01*
X1625606Y27340080D01*
X1534394Y27392741D01*
X1432661Y27420000D01*
X1327339Y27420000D01*
X1225606Y27392741D01*
X1134394Y27340080D01*
X1130000Y27335686D01*
X1130000Y28041413D01*
X976236Y27994768D01*
X793833Y27897272D01*
X793827Y27897268D01*
X703164Y27822863D01*
X638854Y27795551D01*
X569987Y27807342D01*
X518427Y27854495D01*
X500500Y27918717D01*
X500500Y28660639D01*
X520185Y28727678D01*
X572989Y28773433D01*
X642147Y28783377D01*
X703163Y28756493D01*
X793550Y28682315D01*
X976046Y28584768D01*
X1174066Y28524700D01*
X1174065Y28524700D01*
X1192529Y28522882D01*
X1380000Y28504417D01*
X1585934Y28524700D01*
X1783954Y28584768D01*
X1966450Y28682315D01*
X2126410Y28813590D01*
X2257685Y28973550D01*
X2355232Y29156046D01*
X2415300Y29354066D01*
X2435583Y29560000D01*
X2415300Y29765934D01*
X2355232Y29963954D01*
X2257685Y30146450D01*
X2172707Y30249997D01*
X2126410Y30306411D01*
X1966452Y30437683D01*
X1966453Y30437683D01*
X1966450Y30437685D01*
X1783954Y30535232D01*
X1585934Y30595300D01*
X1585932Y30595301D01*
X1585934Y30595301D01*
X1380000Y30615583D01*
X1174067Y30595301D01*
X976043Y30535231D01*
X888322Y30488342D01*
X793550Y30437685D01*
X793548Y30437684D01*
X793547Y30437683D01*
X703164Y30363508D01*
X638854Y30336196D01*
X569987Y30347987D01*
X518427Y30395140D01*
X500500Y30459362D01*
X500500Y31200639D01*
X520185Y31267678D01*
X572989Y31313433D01*
X642147Y31323377D01*
X703163Y31296493D01*
X793550Y31222315D01*
X976046Y31124768D01*
X1174066Y31064700D01*
X1174065Y31064700D01*
X1192529Y31062882D01*
X1380000Y31044417D01*
X1585934Y31064700D01*
X1783954Y31124768D01*
X1966450Y31222315D01*
X2126410Y31353590D01*
X2257685Y31513550D01*
X2355232Y31696046D01*
X2415300Y31894066D01*
X2435583Y32100000D01*
X2415300Y32305934D01*
X2355232Y32503954D01*
X2257685Y32686450D01*
X2205702Y32749791D01*
X2126410Y32846411D01*
X1966452Y32977683D01*
X1966453Y32977683D01*
X1966450Y32977685D01*
X1783954Y33075232D01*
X1585934Y33135300D01*
X1585932Y33135301D01*
X1585934Y33135301D01*
X1380000Y33155583D01*
X1174067Y33135301D01*
X976043Y33075231D01*
X865898Y33016357D01*
X793550Y32977685D01*
X793548Y32977684D01*
X793547Y32977683D01*
X703164Y32903508D01*
X638854Y32876196D01*
X569987Y32887987D01*
X518427Y32935140D01*
X500500Y32999362D01*
X500500Y33740639D01*
X520185Y33807678D01*
X572989Y33853433D01*
X642147Y33863377D01*
X703163Y33836493D01*
X793550Y33762315D01*
X976046Y33664768D01*
X1174066Y33604700D01*
X1174065Y33604700D01*
X1192529Y33602882D01*
X1380000Y33584417D01*
X1585934Y33604700D01*
X1783954Y33664768D01*
X1966450Y33762315D01*
X2126410Y33893590D01*
X2257685Y34053550D01*
X2355232Y34236046D01*
X2415300Y34434066D01*
X2435583Y34640000D01*
X2415300Y34845934D01*
X2355232Y35043954D01*
X2257685Y35226450D01*
X2205702Y35289791D01*
X2126410Y35386411D01*
X1966452Y35517683D01*
X1966453Y35517683D01*
X1966450Y35517685D01*
X1783954Y35615232D01*
X1585934Y35675300D01*
X1585932Y35675301D01*
X1585934Y35675301D01*
X1380000Y35695583D01*
X1174067Y35675301D01*
X976043Y35615231D01*
X865898Y35556357D01*
X793550Y35517685D01*
X793548Y35517684D01*
X793547Y35517683D01*
X703164Y35443508D01*
X638854Y35416196D01*
X569987Y35427987D01*
X518427Y35475140D01*
X500500Y35539362D01*
X500500Y36280639D01*
X520185Y36347678D01*
X572989Y36393433D01*
X642147Y36403377D01*
X703163Y36376493D01*
X793550Y36302315D01*
X976046Y36204768D01*
X1174066Y36144700D01*
X1174065Y36144700D01*
X1192529Y36142882D01*
X1380000Y36124417D01*
X1585934Y36144700D01*
X1783954Y36204768D01*
X1966450Y36302315D01*
X2126410Y36433590D01*
X2257685Y36593550D01*
X2355232Y36776046D01*
X2415300Y36974066D01*
X2435583Y37180000D01*
X2415300Y37385934D01*
X2355232Y37583954D01*
X2257685Y37766450D01*
X2205702Y37829791D01*
X2126410Y37926411D01*
X1968145Y38056294D01*
X1966450Y38057685D01*
X1783954Y38155232D01*
X1585934Y38215300D01*
X1585932Y38215301D01*
X1585934Y38215301D01*
X1380000Y38235583D01*
X1174067Y38215301D01*
X976043Y38155231D01*
X865898Y38096357D01*
X793550Y38057685D01*
X793548Y38057684D01*
X793547Y38057683D01*
X703164Y37983508D01*
X638854Y37956196D01*
X569987Y37967987D01*
X518427Y38015140D01*
X500500Y38079362D01*
X500500Y38820639D01*
X520185Y38887678D01*
X572989Y38933433D01*
X642147Y38943377D01*
X703163Y38916493D01*
X793550Y38842315D01*
X976046Y38744768D01*
X1174066Y38684700D01*
X1174065Y38684700D01*
X1192529Y38682882D01*
X1380000Y38664417D01*
X1585934Y38684700D01*
X1783954Y38744768D01*
X1966450Y38842315D01*
X2126410Y38973590D01*
X2257685Y39133550D01*
X2355232Y39316046D01*
X2415300Y39514066D01*
X2421302Y39575004D01*
X4469508Y39575004D01*
X4469508Y39574997D01*
X4489352Y39449700D01*
X4489352Y39449699D01*
X4489354Y39449696D01*
X4546950Y39336658D01*
X4546952Y39336656D01*
X4546954Y39336653D01*
X4636652Y39246955D01*
X4636654Y39246954D01*
X4636658Y39246950D01*
X4749696Y39189354D01*
X4749697Y39189354D01*
X4749699Y39189353D01*
X4874997Y39169508D01*
X4875000Y39169508D01*
X4875003Y39169508D01*
X5000300Y39189353D01*
X5000301Y39189353D01*
X5000302Y39189354D01*
X5000304Y39189354D01*
X5113342Y39246950D01*
X5203050Y39336658D01*
X5260646Y39449696D01*
X5260646Y39449698D01*
X5260647Y39449699D01*
X5260647Y39449700D01*
X5280492Y39574997D01*
X5280492Y39575004D01*
X5260647Y39700301D01*
X5260647Y39700302D01*
X5250610Y39720000D01*
X5203050Y39813342D01*
X5203046Y39813346D01*
X5203045Y39813348D01*
X5113347Y39903046D01*
X5113344Y39903048D01*
X5113342Y39903050D01*
X5000304Y39960646D01*
X5000303Y39960647D01*
X5000300Y39960648D01*
X4875003Y39980492D01*
X4874997Y39980492D01*
X4749699Y39960648D01*
X4749698Y39960648D01*
X4681570Y39925934D01*
X4636658Y39903050D01*
X4636657Y39903049D01*
X4636652Y39903046D01*
X4546954Y39813348D01*
X4546951Y39813343D01*
X4489352Y39700302D01*
X4489352Y39700301D01*
X4469508Y39575004D01*
X2421302Y39575004D01*
X2435583Y39720000D01*
X2415300Y39925934D01*
X2355232Y40123954D01*
X2257685Y40306450D01*
X2201677Y40374696D01*
X2126410Y40466411D01*
X1966452Y40597683D01*
X1966453Y40597683D01*
X1966450Y40597685D01*
X1783954Y40695232D01*
X1585934Y40755300D01*
X1585932Y40755301D01*
X1585934Y40755301D01*
X1380000Y40775583D01*
X1174067Y40755301D01*
X976043Y40695231D01*
X891545Y40650065D01*
X793550Y40597685D01*
X793548Y40597684D01*
X793547Y40597683D01*
X703164Y40523508D01*
X638854Y40496196D01*
X569987Y40507987D01*
X518427Y40555140D01*
X500500Y40619362D01*
X500500Y41360639D01*
X520185Y41427678D01*
X572989Y41473433D01*
X642147Y41483377D01*
X703163Y41456493D01*
X793550Y41382315D01*
X976046Y41284768D01*
X1174066Y41224700D01*
X1174065Y41224700D01*
X1192529Y41222882D01*
X1380000Y41204417D01*
X1585934Y41224700D01*
X1783954Y41284768D01*
X1966450Y41382315D01*
X2126410Y41513590D01*
X2257685Y41673550D01*
X2355232Y41856046D01*
X2415300Y42054066D01*
X2435583Y42260000D01*
X2415300Y42465934D01*
X2355232Y42663954D01*
X2257685Y42846450D01*
X2195724Y42921950D01*
X2126410Y43006411D01*
X1982276Y43124697D01*
X1966450Y43137685D01*
X1783954Y43235232D01*
X1585934Y43295300D01*
X1585932Y43295301D01*
X1585934Y43295301D01*
X1380000Y43315583D01*
X1174067Y43295301D01*
X976043Y43235231D01*
X865898Y43176357D01*
X793550Y43137685D01*
X793548Y43137684D01*
X793547Y43137683D01*
X703164Y43063508D01*
X638854Y43036196D01*
X569987Y43047987D01*
X518427Y43095140D01*
X500500Y43159362D01*
X500500Y43900639D01*
X520185Y43967678D01*
X572989Y44013433D01*
X642147Y44023377D01*
X703163Y43996493D01*
X793550Y43922315D01*
X976046Y43824768D01*
X1174066Y43764700D01*
X1174065Y43764700D01*
X1192529Y43762882D01*
X1380000Y43744417D01*
X1585934Y43764700D01*
X1783954Y43824768D01*
X1966450Y43922315D01*
X2126410Y44053590D01*
X2257685Y44213550D01*
X2355232Y44396046D01*
X2415300Y44594066D01*
X2435583Y44800000D01*
X2415300Y45005934D01*
X2355232Y45203954D01*
X2257685Y45386450D01*
X2205702Y45449791D01*
X2126410Y45546411D01*
X1966452Y45677683D01*
X1966453Y45677683D01*
X1966450Y45677685D01*
X1800025Y45766642D01*
X1750181Y45815605D01*
X1734721Y45883743D01*
X1758553Y45949422D01*
X1814111Y45991791D01*
X1858479Y46000000D01*
X3238918Y46000000D01*
X3305957Y45980315D01*
G37*
%TD.AperFunction*%
%TD*%
M02*
