%TF.GenerationSoftware,KiCad,Pcbnew,8.0.6*%
%TF.CreationDate,2024-11-16T14:28:32-06:00*%
%TF.ProjectId,ATesp32,41546573-7033-4322-9e6b-696361645f70,rev?*%
%TF.SameCoordinates,PX47868c0PY608f3d0*%
%TF.FileFunction,Copper,L2,Inr*%
%TF.FilePolarity,Positive*%
%FSLAX46Y46*%
G04 Gerber Fmt 4.6, Leading zero omitted, Abs format (unit mm)*
G04 Created by KiCad (PCBNEW 8.0.6) date 2024-11-16 14:28:32*
%MOMM*%
%LPD*%
G01*
G04 APERTURE LIST*
%TA.AperFunction,ComponentPad*%
%ADD10R,1.600000X1.600000*%
%TD*%
%TA.AperFunction,ComponentPad*%
%ADD11O,1.600000X1.600000*%
%TD*%
%TA.AperFunction,ComponentPad*%
%ADD12O,1.000000X2.100000*%
%TD*%
%TA.AperFunction,ComponentPad*%
%ADD13O,1.000000X1.800000*%
%TD*%
%TA.AperFunction,ViaPad*%
%ADD14C,0.300000*%
%TD*%
%TA.AperFunction,Conductor*%
%ADD15C,0.150000*%
%TD*%
G04 APERTURE END LIST*
D10*
%TO.N,PB0*%
%TO.C,U2*%
X1380000Y49880000D03*
D11*
%TO.N,PB1*%
X1380000Y47340000D03*
%TO.N,PB2*%
X1380000Y44800000D03*
%TO.N,PB3*%
X1380000Y42260000D03*
%TO.N,PB4*%
X1380000Y39720000D03*
%TO.N,PB5*%
X1380000Y37180000D03*
%TO.N,PB6*%
X1380000Y34640000D03*
%TO.N,PB7*%
X1380000Y32100000D03*
%TO.N,unconnected-(U2-~{RESET}-Pad9)*%
X1380000Y29560000D03*
%TO.N,+5V*%
X1380000Y27020000D03*
%TO.N,GND*%
X1380000Y24480000D03*
%TO.N,unconnected-(U2-XTAL2-Pad12)*%
X1380000Y21940000D03*
%TO.N,unconnected-(U2-XTAL1-Pad13)*%
X1380000Y19400000D03*
%TO.N,PD0*%
X1380000Y16860000D03*
%TO.N,PD1*%
X1380000Y14320000D03*
%TO.N,D_P*%
X1380000Y11780000D03*
%TO.N,D_N*%
X1380000Y9240000D03*
%TO.N,PD4*%
X1380000Y6700000D03*
%TO.N,PD5*%
X1380000Y4160000D03*
%TO.N,PD6*%
X1380000Y1620000D03*
%TO.N,PD7*%
X16620000Y1620000D03*
%TO.N,PC0*%
X16620000Y4160000D03*
%TO.N,PC1*%
X16620000Y6700000D03*
%TO.N,PC2*%
X16620000Y9240000D03*
%TO.N,PC3*%
X16620000Y11780000D03*
%TO.N,PC4*%
X16620000Y14320000D03*
%TO.N,PC5*%
X16620000Y16860000D03*
%TO.N,PC6*%
X16620000Y19400000D03*
%TO.N,PC7*%
X16620000Y21940000D03*
%TO.N,+5V*%
X16620000Y24480000D03*
%TO.N,GND*%
X16620000Y27020000D03*
%TO.N,unconnected-(U2-AREF-Pad32)*%
X16620000Y29560000D03*
%TO.N,PA7*%
X16620000Y32100000D03*
%TO.N,PA6*%
X16620000Y34640000D03*
%TO.N,PA5*%
X16620000Y37180000D03*
%TO.N,PA4*%
X16620000Y39720000D03*
%TO.N,PA3*%
X16620000Y42260000D03*
%TO.N,PA2*%
X16620000Y44800000D03*
%TO.N,PA1*%
X16620000Y47340000D03*
%TO.N,PA0*%
X16620000Y49880000D03*
%TD*%
D12*
%TO.N,GND*%
%TO.C,J1*%
X4680000Y5770000D03*
D13*
X4680000Y1570000D03*
D12*
X13320000Y5770000D03*
D13*
X13320000Y1570000D03*
%TD*%
D14*
%TO.N,GND*%
X5000000Y34250000D03*
X4250000Y41750000D03*
X6250000Y45250000D03*
X4500000Y43750000D03*
X9000000Y44250000D03*
X9000000Y45250000D03*
X4000000Y44750000D03*
X4500000Y43250000D03*
X4000000Y43750000D03*
X6000000Y38750000D03*
X12800000Y34050000D03*
X6000000Y40250000D03*
X6250000Y44750000D03*
X9750000Y19250000D03*
X13500000Y41000000D03*
X12800000Y40750000D03*
X7500000Y31500000D03*
X13250000Y30250000D03*
X4000000Y43250000D03*
X14500000Y41500000D03*
X6000000Y33750000D03*
X7500000Y35500000D03*
X6000000Y32000000D03*
X9250000Y18750000D03*
X7500000Y31000000D03*
X6000000Y39750000D03*
X3400000Y17550000D03*
X9000000Y42750000D03*
X12500000Y13400000D03*
X9000000Y43250000D03*
X11250000Y17000000D03*
X7000000Y41950000D03*
X3750000Y42750000D03*
X6000000Y34250000D03*
X6000000Y38250000D03*
X12750000Y30750000D03*
X7500000Y33500000D03*
X7500000Y28500000D03*
X9500000Y45250000D03*
X4500000Y44250000D03*
X8750000Y18250000D03*
X7500000Y40000000D03*
X6600000Y42350000D03*
X6250000Y44250000D03*
X7500000Y36000000D03*
X7500000Y29500000D03*
X6000000Y30500000D03*
X6000000Y34750000D03*
X14500000Y41000000D03*
X4750000Y41750000D03*
X7500000Y39500000D03*
X15100000Y34750000D03*
X7500000Y34000000D03*
X9000000Y41750000D03*
X6000000Y35250000D03*
X7500000Y37000000D03*
X5105000Y9181823D03*
X13500000Y25000000D03*
X10250000Y19750000D03*
X7500000Y37500000D03*
X3750000Y45750000D03*
X6000000Y37750000D03*
X6250000Y45750000D03*
X9000000Y44750000D03*
X13500000Y7250000D03*
X10750000Y20250000D03*
X9000000Y42250000D03*
X6250000Y42750000D03*
X11750000Y30000000D03*
X6000000Y39250000D03*
X13000000Y7250000D03*
X13500000Y41500000D03*
X6740000Y8740000D03*
X8798959Y28451042D03*
X12750000Y24750000D03*
X6000000Y31000000D03*
X11250000Y20750000D03*
X7500000Y29000000D03*
X14000000Y41500000D03*
X7500000Y41500000D03*
X4500000Y44750000D03*
X5250000Y41750000D03*
X7500000Y38500000D03*
X6250000Y43250000D03*
X12000000Y13400000D03*
X3750000Y45250000D03*
X14000000Y24500000D03*
X7500000Y35000000D03*
X11250000Y30000000D03*
X3750000Y42250000D03*
X14000000Y41000000D03*
X8259699Y8508193D03*
X7500000Y41000000D03*
X7500000Y32500000D03*
X6000000Y35750000D03*
X6000000Y40750000D03*
X7500000Y28000000D03*
X7500000Y30000000D03*
X7500000Y27500000D03*
X7500000Y34500000D03*
X4000000Y44250000D03*
X6000000Y31500000D03*
X7500000Y32000000D03*
X7500000Y38000000D03*
X7500000Y36500000D03*
X10000000Y45250000D03*
X6250000Y43750000D03*
X7500000Y33000000D03*
X4000000Y26850000D03*
X7500000Y39000000D03*
X7500000Y40500000D03*
X12250000Y25250000D03*
X7500000Y30500000D03*
X9000000Y43750000D03*
%TO.N,+3V3*%
X4000000Y27600000D03*
X12750000Y36000000D03*
X12750000Y35500000D03*
X5000000Y35250000D03*
X7900000Y26350000D03*
X8300000Y26750000D03*
X12750000Y35000000D03*
X4000000Y19050000D03*
X12275521Y23775521D03*
%TO.N,+5V*%
X9000000Y34250000D03*
X12750000Y37750000D03*
X11500000Y9000000D03*
X9000000Y36250000D03*
X11500000Y9500000D03*
X6000000Y9500000D03*
X6000000Y10500000D03*
X12750000Y9750000D03*
X12000000Y9750000D03*
X4550000Y10550000D03*
X9000000Y36750000D03*
X9000000Y33750000D03*
X5350000Y9800000D03*
X6000000Y10000000D03*
X9000000Y37250000D03*
X12750000Y37000000D03*
X14600000Y37250000D03*
X8500000Y34250000D03*
%TO.N,Net-(U1-CHIP_PU)*%
X4875000Y39575000D03*
X6002164Y25654247D03*
%TO.N,Net-(U5-VDD)*%
X12500000Y12750000D03*
X10800000Y8750000D03*
X11900000Y12750000D03*
X10800000Y9250000D03*
%TO.N,Net-(J1-CC2)*%
X10618644Y5476695D03*
X3225000Y6649479D03*
%TO.N,D+*%
X8750000Y5600000D03*
X9750000Y5600000D03*
%TO.N,Net-(JP4-B)*%
X6916960Y18740509D03*
X4875000Y30062500D03*
X5576046Y25392666D03*
%TO.N,Net-(JP6-B)*%
X12800000Y16250000D03*
%TO.N,PD7*%
X11036315Y24413685D03*
%TO.N,UART_RX*%
X10197783Y22625768D03*
%TO.N,Net-(JP7-A)*%
X6000000Y11350000D03*
%TO.N,UART_TX*%
X7500000Y14250000D03*
%TO.N,Net-(JP8-A)*%
X6500000Y11850000D03*
%TO.N,Net-(U1-U0TXD)*%
X10750000Y22600000D03*
X9100000Y14950000D03*
%TO.N,PA2*%
X3568844Y22218844D03*
%TO.N,PB2*%
X4375000Y25150000D03*
%TO.N,PA5*%
X5379667Y20771374D03*
%TO.N,PA1*%
X3600156Y22717863D03*
%TO.N,PD6*%
X9729961Y23107331D03*
%TO.N,PA4*%
X5026112Y21124930D03*
%TO.N,PB1*%
X4800000Y24879970D03*
%TO.N,PA6*%
X5745769Y20430828D03*
%TO.N,PB6*%
X6100000Y19450000D03*
%TO.N,PA7*%
X6086315Y20064726D03*
%TO.N,PB0*%
X5314464Y24966547D03*
%TO.N,D_N*%
X6275000Y15681833D03*
%TO.N,D_P*%
X5825000Y16150000D03*
%TO.N,PA0*%
X3684530Y23234530D03*
%TO.N,PB3*%
X3950000Y24736827D03*
%TO.N,PA3*%
X4672557Y21478485D03*
%TO.N,PB7*%
X6456528Y19069907D03*
%TD*%
D15*
%TO.N,Net-(JP4-B)*%
X5576046Y25392666D02*
X6916960Y24051752D01*
X6916960Y24051752D02*
X6916960Y18740509D01*
%TD*%
%TA.AperFunction,Conductor*%
%TO.N,GND*%
G36*
X16208560Y45980315D02*
G01*
X16254315Y45927511D01*
X16264259Y45858353D01*
X16235234Y45794797D01*
X16199974Y45766642D01*
X16033550Y45677685D01*
X16033548Y45677684D01*
X16033547Y45677683D01*
X15873589Y45546411D01*
X15742317Y45386453D01*
X15742315Y45386450D01*
X15703643Y45314102D01*
X15644769Y45203957D01*
X15584699Y45005933D01*
X15564417Y44800000D01*
X15584699Y44594068D01*
X15584700Y44594066D01*
X15644768Y44396046D01*
X15742315Y44213550D01*
X15742317Y44213548D01*
X15873589Y44053590D01*
X15970209Y43974298D01*
X16033550Y43922315D01*
X16216046Y43824768D01*
X16414066Y43764700D01*
X16414065Y43764700D01*
X16432529Y43762882D01*
X16620000Y43744417D01*
X16825934Y43764700D01*
X17023954Y43824768D01*
X17206450Y43922315D01*
X17296835Y43996493D01*
X17361145Y44023805D01*
X17430012Y44012014D01*
X17481573Y43964862D01*
X17499500Y43900639D01*
X17499500Y43159362D01*
X17479815Y43092323D01*
X17427011Y43046568D01*
X17357853Y43036624D01*
X17296836Y43063508D01*
X17206452Y43137683D01*
X17206453Y43137683D01*
X17206450Y43137685D01*
X17023954Y43235232D01*
X16825934Y43295300D01*
X16825932Y43295301D01*
X16825934Y43295301D01*
X16620000Y43315583D01*
X16414067Y43295301D01*
X16216043Y43235231D01*
X16105898Y43176357D01*
X16033550Y43137685D01*
X16033548Y43137684D01*
X16033547Y43137683D01*
X15873589Y43006411D01*
X15742317Y42846453D01*
X15742315Y42846450D01*
X15703643Y42774102D01*
X15644769Y42663957D01*
X15584699Y42465933D01*
X15564417Y42260000D01*
X15584699Y42054068D01*
X15584700Y42054066D01*
X15644768Y41856046D01*
X15742315Y41673550D01*
X15742317Y41673548D01*
X15873589Y41513590D01*
X15970209Y41434298D01*
X16033550Y41382315D01*
X16216046Y41284768D01*
X16414066Y41224700D01*
X16414065Y41224700D01*
X16432529Y41222882D01*
X16620000Y41204417D01*
X16825934Y41224700D01*
X17023954Y41284768D01*
X17206450Y41382315D01*
X17296835Y41456493D01*
X17361145Y41483805D01*
X17430012Y41472014D01*
X17481573Y41424862D01*
X17499500Y41360639D01*
X17499500Y40619362D01*
X17479815Y40552323D01*
X17427011Y40506568D01*
X17357853Y40496624D01*
X17296836Y40523508D01*
X17206452Y40597683D01*
X17206453Y40597683D01*
X17206450Y40597685D01*
X17023954Y40695232D01*
X16825934Y40755300D01*
X16825932Y40755301D01*
X16825934Y40755301D01*
X16620000Y40775583D01*
X16414067Y40755301D01*
X16216043Y40695231D01*
X16105898Y40636357D01*
X16033550Y40597685D01*
X16033548Y40597684D01*
X16033547Y40597683D01*
X15873589Y40466411D01*
X15742317Y40306453D01*
X15742315Y40306450D01*
X15703643Y40234102D01*
X15644769Y40123957D01*
X15584699Y39925933D01*
X15564417Y39720000D01*
X15584699Y39514068D01*
X15584700Y39514066D01*
X15644768Y39316046D01*
X15742315Y39133550D01*
X15742317Y39133548D01*
X15873589Y38973590D01*
X15970209Y38894298D01*
X16033550Y38842315D01*
X16216046Y38744768D01*
X16414066Y38684700D01*
X16414065Y38684700D01*
X16432529Y38682882D01*
X16620000Y38664417D01*
X16825934Y38684700D01*
X17023954Y38744768D01*
X17206450Y38842315D01*
X17296835Y38916493D01*
X17361145Y38943805D01*
X17430012Y38932014D01*
X17481573Y38884862D01*
X17499500Y38820639D01*
X17499500Y38079362D01*
X17479815Y38012323D01*
X17427011Y37966568D01*
X17357853Y37956624D01*
X17296836Y37983508D01*
X17206452Y38057683D01*
X17206453Y38057683D01*
X17206450Y38057685D01*
X17023954Y38155232D01*
X16825934Y38215300D01*
X16825932Y38215301D01*
X16825934Y38215301D01*
X16620000Y38235583D01*
X16414067Y38215301D01*
X16216043Y38155231D01*
X16179403Y38135646D01*
X16033550Y38057685D01*
X16033548Y38057684D01*
X16033547Y38057683D01*
X15873589Y37926411D01*
X15742317Y37766453D01*
X15742315Y37766450D01*
X15733521Y37749997D01*
X15644769Y37583957D01*
X15584699Y37385933D01*
X15564417Y37180000D01*
X15584699Y36974068D01*
X15600508Y36921952D01*
X15644768Y36776046D01*
X15742315Y36593550D01*
X15742317Y36593548D01*
X15873589Y36433590D01*
X15944611Y36375305D01*
X16033550Y36302315D01*
X16216046Y36204768D01*
X16414066Y36144700D01*
X16414065Y36144700D01*
X16432529Y36142882D01*
X16620000Y36124417D01*
X16825934Y36144700D01*
X17023954Y36204768D01*
X17206450Y36302315D01*
X17296835Y36376493D01*
X17361145Y36403805D01*
X17430012Y36392014D01*
X17481573Y36344862D01*
X17499500Y36280639D01*
X17499500Y35539362D01*
X17479815Y35472323D01*
X17427011Y35426568D01*
X17357853Y35416624D01*
X17296836Y35443508D01*
X17242205Y35488342D01*
X17206450Y35517685D01*
X17023954Y35615232D01*
X16825934Y35675300D01*
X16825932Y35675301D01*
X16825934Y35675301D01*
X16620000Y35695583D01*
X16414067Y35675301D01*
X16216043Y35615231D01*
X16146484Y35578050D01*
X16033550Y35517685D01*
X16033548Y35517684D01*
X16033547Y35517683D01*
X15873589Y35386411D01*
X15742317Y35226453D01*
X15742315Y35226450D01*
X15724813Y35193706D01*
X15644769Y35043957D01*
X15584699Y34845933D01*
X15564417Y34640000D01*
X15584699Y34434068D01*
X15602526Y34375301D01*
X15644768Y34236046D01*
X15742315Y34053550D01*
X15742317Y34053548D01*
X15873589Y33893590D01*
X15968436Y33815752D01*
X16033550Y33762315D01*
X16216046Y33664768D01*
X16414066Y33604700D01*
X16414065Y33604700D01*
X16432529Y33602882D01*
X16620000Y33584417D01*
X16825934Y33604700D01*
X17023954Y33664768D01*
X17206450Y33762315D01*
X17296835Y33836493D01*
X17361145Y33863805D01*
X17430012Y33852014D01*
X17481573Y33804862D01*
X17499500Y33740639D01*
X17499500Y32999362D01*
X17479815Y32932323D01*
X17427011Y32886568D01*
X17357853Y32876624D01*
X17296836Y32903508D01*
X17206452Y32977683D01*
X17206453Y32977683D01*
X17206450Y32977685D01*
X17023954Y33075232D01*
X16825934Y33135300D01*
X16825932Y33135301D01*
X16825934Y33135301D01*
X16620000Y33155583D01*
X16414067Y33135301D01*
X16216043Y33075231D01*
X16105898Y33016357D01*
X16033550Y32977685D01*
X16033548Y32977684D01*
X16033547Y32977683D01*
X15873589Y32846411D01*
X15742317Y32686453D01*
X15742315Y32686450D01*
X15703643Y32614102D01*
X15644769Y32503957D01*
X15584699Y32305933D01*
X15564417Y32100000D01*
X15584699Y31894068D01*
X15584700Y31894066D01*
X15644768Y31696046D01*
X15742315Y31513550D01*
X15742317Y31513548D01*
X15873589Y31353590D01*
X15970209Y31274298D01*
X16033550Y31222315D01*
X16216046Y31124768D01*
X16414066Y31064700D01*
X16414065Y31064700D01*
X16432529Y31062882D01*
X16620000Y31044417D01*
X16825934Y31064700D01*
X17023954Y31124768D01*
X17206450Y31222315D01*
X17296835Y31296493D01*
X17361145Y31323805D01*
X17430012Y31312014D01*
X17481573Y31264862D01*
X17499500Y31200639D01*
X17499500Y30459362D01*
X17479815Y30392323D01*
X17427011Y30346568D01*
X17357853Y30336624D01*
X17296836Y30363508D01*
X17206452Y30437683D01*
X17206453Y30437683D01*
X17206450Y30437685D01*
X17023954Y30535232D01*
X16825934Y30595300D01*
X16825932Y30595301D01*
X16825934Y30595301D01*
X16620000Y30615583D01*
X16414067Y30595301D01*
X16216043Y30535231D01*
X16105898Y30476357D01*
X16033550Y30437685D01*
X16033548Y30437684D01*
X16033547Y30437683D01*
X15873589Y30306411D01*
X15742317Y30146453D01*
X15742315Y30146450D01*
X15703643Y30074102D01*
X15644769Y29963957D01*
X15584699Y29765933D01*
X15564417Y29560000D01*
X15584699Y29354068D01*
X15584700Y29354066D01*
X15644768Y29156046D01*
X15742315Y28973550D01*
X15742317Y28973548D01*
X15873589Y28813590D01*
X15970209Y28734298D01*
X16033550Y28682315D01*
X16216046Y28584768D01*
X16414066Y28524700D01*
X16414065Y28524700D01*
X16432529Y28522882D01*
X16620000Y28504417D01*
X16825934Y28524700D01*
X17023954Y28584768D01*
X17206450Y28682315D01*
X17296835Y28756493D01*
X17361145Y28783805D01*
X17430012Y28772014D01*
X17481573Y28724862D01*
X17499500Y28660639D01*
X17499500Y27918717D01*
X17479815Y27851678D01*
X17427011Y27805923D01*
X17357853Y27795979D01*
X17296836Y27822863D01*
X17206172Y27897268D01*
X17206166Y27897272D01*
X17023763Y27994768D01*
X16870000Y28041413D01*
X16870000Y27335686D01*
X16865606Y27340080D01*
X16774394Y27392741D01*
X16672661Y27420000D01*
X16567339Y27420000D01*
X16465606Y27392741D01*
X16374394Y27340080D01*
X16370000Y27335686D01*
X16370000Y28041413D01*
X16216236Y27994768D01*
X16033833Y27897272D01*
X16033826Y27897268D01*
X15873944Y27766056D01*
X15742732Y27606174D01*
X15742728Y27606167D01*
X15645233Y27423767D01*
X15598590Y27270000D01*
X16304314Y27270000D01*
X16299920Y27265606D01*
X16247259Y27174394D01*
X16220000Y27072661D01*
X16220000Y26967339D01*
X16247259Y26865606D01*
X16299920Y26774394D01*
X16304314Y26770000D01*
X15598590Y26770000D01*
X15645233Y26616234D01*
X15742728Y26433834D01*
X15742732Y26433827D01*
X15873944Y26273945D01*
X16033826Y26142733D01*
X16033833Y26142729D01*
X16216233Y26045234D01*
X16370000Y25998590D01*
X16370000Y26704314D01*
X16374394Y26699920D01*
X16465606Y26647259D01*
X16567339Y26620000D01*
X16672661Y26620000D01*
X16774394Y26647259D01*
X16865606Y26699920D01*
X16870000Y26704314D01*
X16870000Y25998590D01*
X17023766Y26045234D01*
X17206166Y26142729D01*
X17206173Y26142733D01*
X17296835Y26217137D01*
X17361145Y26244450D01*
X17430013Y26232659D01*
X17481573Y26185507D01*
X17499500Y26121284D01*
X17499500Y25379362D01*
X17479815Y25312323D01*
X17427011Y25266568D01*
X17357853Y25256624D01*
X17296836Y25283508D01*
X17244818Y25326197D01*
X17206450Y25357685D01*
X17023954Y25455232D01*
X16825934Y25515300D01*
X16825932Y25515301D01*
X16825934Y25515301D01*
X16620000Y25535583D01*
X16414067Y25515301D01*
X16216043Y25455231D01*
X16142471Y25415905D01*
X16033550Y25357685D01*
X16033548Y25357684D01*
X16033547Y25357683D01*
X15873589Y25226411D01*
X15742317Y25066453D01*
X15742315Y25066450D01*
X15703643Y24994102D01*
X15644769Y24883957D01*
X15584699Y24685933D01*
X15564417Y24480000D01*
X15584699Y24274068D01*
X15596734Y24234394D01*
X15644768Y24076046D01*
X15742315Y23893550D01*
X15776969Y23851323D01*
X15873589Y23733590D01*
X15970209Y23654298D01*
X16033550Y23602315D01*
X16216046Y23504768D01*
X16414066Y23444700D01*
X16414065Y23444700D01*
X16432529Y23442882D01*
X16620000Y23424417D01*
X16825934Y23444700D01*
X17023954Y23504768D01*
X17206450Y23602315D01*
X17296835Y23676493D01*
X17361145Y23703805D01*
X17430012Y23692014D01*
X17481573Y23644862D01*
X17499500Y23580639D01*
X17499500Y22839362D01*
X17479815Y22772323D01*
X17427011Y22726568D01*
X17357853Y22716624D01*
X17296836Y22743508D01*
X17206452Y22817683D01*
X17206453Y22817683D01*
X17206450Y22817685D01*
X17023954Y22915232D01*
X16825934Y22975300D01*
X16825932Y22975301D01*
X16825934Y22975301D01*
X16620000Y22995583D01*
X16414067Y22975301D01*
X16216043Y22915231D01*
X16129532Y22868989D01*
X16033550Y22817685D01*
X16033548Y22817684D01*
X16033547Y22817683D01*
X15873589Y22686411D01*
X15766051Y22555373D01*
X15742315Y22526450D01*
X15717231Y22479521D01*
X15644769Y22343957D01*
X15584699Y22145933D01*
X15564417Y21940000D01*
X15584699Y21734068D01*
X15589929Y21716828D01*
X15644768Y21536046D01*
X15742315Y21353550D01*
X15742618Y21353181D01*
X15873589Y21193590D01*
X15970209Y21114298D01*
X16033550Y21062315D01*
X16216046Y20964768D01*
X16414066Y20904700D01*
X16414065Y20904700D01*
X16432529Y20902882D01*
X16620000Y20884417D01*
X16825934Y20904700D01*
X17023954Y20964768D01*
X17206450Y21062315D01*
X17296835Y21136493D01*
X17361145Y21163805D01*
X17430012Y21152014D01*
X17481573Y21104862D01*
X17499500Y21040639D01*
X17499500Y20299362D01*
X17479815Y20232323D01*
X17427011Y20186568D01*
X17357853Y20176624D01*
X17296836Y20203508D01*
X17206452Y20277683D01*
X17206453Y20277683D01*
X17206450Y20277685D01*
X17023954Y20375232D01*
X16825934Y20435300D01*
X16825932Y20435301D01*
X16825934Y20435301D01*
X16620000Y20455583D01*
X16414067Y20435301D01*
X16216043Y20375231D01*
X16145745Y20337655D01*
X16033550Y20277685D01*
X16033548Y20277684D01*
X16033547Y20277683D01*
X15873589Y20146411D01*
X15742317Y19986453D01*
X15742315Y19986450D01*
X15717178Y19939422D01*
X15644769Y19803957D01*
X15584699Y19605933D01*
X15564417Y19400000D01*
X15584699Y19194068D01*
X15584700Y19194066D01*
X15644768Y18996046D01*
X15742315Y18813550D01*
X15742317Y18813548D01*
X15873589Y18653590D01*
X15970209Y18574298D01*
X16033550Y18522315D01*
X16216046Y18424768D01*
X16414066Y18364700D01*
X16414065Y18364700D01*
X16432529Y18362882D01*
X16620000Y18344417D01*
X16825934Y18364700D01*
X17023954Y18424768D01*
X17206450Y18522315D01*
X17296835Y18596493D01*
X17361145Y18623805D01*
X17430012Y18612014D01*
X17481573Y18564862D01*
X17499500Y18500639D01*
X17499500Y17759362D01*
X17479815Y17692323D01*
X17427011Y17646568D01*
X17357853Y17636624D01*
X17296836Y17663508D01*
X17206452Y17737683D01*
X17206453Y17737683D01*
X17206450Y17737685D01*
X17023954Y17835232D01*
X16825934Y17895300D01*
X16825932Y17895301D01*
X16825934Y17895301D01*
X16620000Y17915583D01*
X16414067Y17895301D01*
X16216043Y17835231D01*
X16105898Y17776357D01*
X16033550Y17737685D01*
X16033548Y17737684D01*
X16033547Y17737683D01*
X15873589Y17606411D01*
X15742317Y17446453D01*
X15742315Y17446450D01*
X15703643Y17374102D01*
X15644769Y17263957D01*
X15584699Y17065933D01*
X15564417Y16860000D01*
X15584699Y16654068D01*
X15607759Y16578050D01*
X15644768Y16456046D01*
X15742315Y16273550D01*
X15742317Y16273548D01*
X15873589Y16113590D01*
X15970209Y16034298D01*
X16033550Y15982315D01*
X16216046Y15884768D01*
X16414066Y15824700D01*
X16414065Y15824700D01*
X16432529Y15822882D01*
X16620000Y15804417D01*
X16825934Y15824700D01*
X17023954Y15884768D01*
X17206450Y15982315D01*
X17296835Y16056493D01*
X17361145Y16083805D01*
X17430012Y16072014D01*
X17481573Y16024862D01*
X17499500Y15960639D01*
X17499500Y15219362D01*
X17479815Y15152323D01*
X17427011Y15106568D01*
X17357853Y15096624D01*
X17296836Y15123508D01*
X17247410Y15164070D01*
X17206450Y15197685D01*
X17023954Y15295232D01*
X16825934Y15355300D01*
X16825932Y15355301D01*
X16825934Y15355301D01*
X16620000Y15375583D01*
X16414067Y15355301D01*
X16238692Y15302102D01*
X16219195Y15296187D01*
X16216043Y15295231D01*
X16105898Y15236357D01*
X16033550Y15197685D01*
X16033548Y15197684D01*
X16033547Y15197683D01*
X15873589Y15066411D01*
X15742317Y14906453D01*
X15742315Y14906450D01*
X15703643Y14834102D01*
X15644769Y14723957D01*
X15584699Y14525933D01*
X15564417Y14320000D01*
X15584699Y14114068D01*
X15584700Y14114066D01*
X15644768Y13916046D01*
X15742315Y13733550D01*
X15742317Y13733548D01*
X15873589Y13573590D01*
X15970209Y13494298D01*
X16033550Y13442315D01*
X16216046Y13344768D01*
X16414066Y13284700D01*
X16414065Y13284700D01*
X16432529Y13282882D01*
X16620000Y13264417D01*
X16825934Y13284700D01*
X17023954Y13344768D01*
X17206450Y13442315D01*
X17296835Y13516493D01*
X17361145Y13543805D01*
X17430012Y13532014D01*
X17481573Y13484862D01*
X17499500Y13420639D01*
X17499500Y12679362D01*
X17479815Y12612323D01*
X17427011Y12566568D01*
X17357853Y12556624D01*
X17296836Y12583508D01*
X17206452Y12657683D01*
X17206453Y12657683D01*
X17206450Y12657685D01*
X17023954Y12755232D01*
X16825934Y12815300D01*
X16825932Y12815301D01*
X16825934Y12815301D01*
X16620000Y12835583D01*
X16414067Y12815301D01*
X16216043Y12755231D01*
X16105898Y12696357D01*
X16033550Y12657685D01*
X16033548Y12657684D01*
X16033547Y12657683D01*
X15873589Y12526411D01*
X15742317Y12366453D01*
X15742315Y12366450D01*
X15730587Y12344508D01*
X15644769Y12183957D01*
X15584699Y11985933D01*
X15564417Y11780000D01*
X15584699Y11574068D01*
X15600508Y11521952D01*
X15644768Y11376046D01*
X15742315Y11193550D01*
X15742317Y11193548D01*
X15873589Y11033590D01*
X15957955Y10964354D01*
X16033550Y10902315D01*
X16216046Y10804768D01*
X16414066Y10744700D01*
X16414065Y10744700D01*
X16432529Y10742882D01*
X16620000Y10724417D01*
X16825934Y10744700D01*
X17023954Y10804768D01*
X17206450Y10902315D01*
X17296835Y10976493D01*
X17361145Y11003805D01*
X17430012Y10992014D01*
X17481573Y10944862D01*
X17499500Y10880639D01*
X17499500Y10139362D01*
X17479815Y10072323D01*
X17427011Y10026568D01*
X17357853Y10016624D01*
X17296836Y10043508D01*
X17247410Y10084070D01*
X17206450Y10117685D01*
X17023954Y10215232D01*
X16825934Y10275300D01*
X16825932Y10275301D01*
X16825934Y10275301D01*
X16620000Y10295583D01*
X16414067Y10275301D01*
X16216043Y10215231D01*
X16120861Y10164354D01*
X16033550Y10117685D01*
X16033548Y10117684D01*
X16033547Y10117683D01*
X15873589Y9986411D01*
X15742317Y9826453D01*
X15742315Y9826450D01*
X15708065Y9762374D01*
X15644769Y9643957D01*
X15584699Y9445933D01*
X15564417Y9240000D01*
X15584699Y9034068D01*
X15612110Y8943706D01*
X15644768Y8836046D01*
X15742315Y8653550D01*
X15765992Y8624699D01*
X15873589Y8493590D01*
X15960878Y8421955D01*
X16033550Y8362315D01*
X16216046Y8264768D01*
X16414066Y8204700D01*
X16414065Y8204700D01*
X16432529Y8202882D01*
X16620000Y8184417D01*
X16825934Y8204700D01*
X17023954Y8264768D01*
X17206450Y8362315D01*
X17296835Y8436493D01*
X17361145Y8463805D01*
X17430012Y8452014D01*
X17481573Y8404862D01*
X17499500Y8340639D01*
X17499500Y7599362D01*
X17479815Y7532323D01*
X17427011Y7486568D01*
X17357853Y7476624D01*
X17296836Y7503508D01*
X17206452Y7577683D01*
X17206453Y7577683D01*
X17206450Y7577685D01*
X17023954Y7675232D01*
X16825934Y7735300D01*
X16825932Y7735301D01*
X16825934Y7735301D01*
X16620000Y7755583D01*
X16414067Y7735301D01*
X16216043Y7675231D01*
X16105898Y7616357D01*
X16033550Y7577685D01*
X16033548Y7577684D01*
X16033547Y7577683D01*
X15873589Y7446411D01*
X15742317Y7286453D01*
X15742315Y7286450D01*
X15703643Y7214102D01*
X15644769Y7103957D01*
X15584699Y6905933D01*
X15564417Y6700000D01*
X15584699Y6494068D01*
X15584700Y6494066D01*
X15644768Y6296046D01*
X15742315Y6113550D01*
X15742317Y6113548D01*
X15873589Y5953590D01*
X15960595Y5882187D01*
X16033550Y5822315D01*
X16216046Y5724768D01*
X16414066Y5664700D01*
X16414065Y5664700D01*
X16432529Y5662882D01*
X16620000Y5644417D01*
X16825934Y5664700D01*
X17023954Y5724768D01*
X17206450Y5822315D01*
X17296835Y5896493D01*
X17361145Y5923805D01*
X17430012Y5912014D01*
X17481573Y5864862D01*
X17499500Y5800639D01*
X17499500Y5059362D01*
X17479815Y4992323D01*
X17427011Y4946568D01*
X17357853Y4936624D01*
X17296836Y4963508D01*
X17242060Y5008461D01*
X17206450Y5037685D01*
X17023954Y5135232D01*
X16825934Y5195300D01*
X16825932Y5195301D01*
X16825934Y5195301D01*
X16620000Y5215583D01*
X16414067Y5195301D01*
X16216043Y5135231D01*
X16157997Y5104204D01*
X16033550Y5037685D01*
X16033548Y5037684D01*
X16033547Y5037683D01*
X15873589Y4906411D01*
X15742317Y4746453D01*
X15742315Y4746450D01*
X15724820Y4713719D01*
X15644769Y4563957D01*
X15644768Y4563955D01*
X15644768Y4563954D01*
X15637898Y4541308D01*
X15584699Y4365933D01*
X15564417Y4160000D01*
X15584699Y3954068D01*
X15584700Y3954066D01*
X15644768Y3756046D01*
X15742315Y3573550D01*
X15742317Y3573548D01*
X15873589Y3413590D01*
X15970209Y3334298D01*
X16033550Y3282315D01*
X16216046Y3184768D01*
X16414066Y3124700D01*
X16414065Y3124700D01*
X16432529Y3122882D01*
X16620000Y3104417D01*
X16825934Y3124700D01*
X17023954Y3184768D01*
X17206450Y3282315D01*
X17296835Y3356493D01*
X17361145Y3383805D01*
X17430012Y3372014D01*
X17481573Y3324862D01*
X17499500Y3260639D01*
X17499500Y2519362D01*
X17479815Y2452323D01*
X17427011Y2406568D01*
X17357853Y2396624D01*
X17296836Y2423508D01*
X17206452Y2497683D01*
X17206453Y2497683D01*
X17206450Y2497685D01*
X17023954Y2595232D01*
X16825934Y2655300D01*
X16825932Y2655301D01*
X16825934Y2655301D01*
X16620000Y2675583D01*
X16414067Y2655301D01*
X16216043Y2595231D01*
X16136220Y2552564D01*
X16033550Y2497685D01*
X16033548Y2497684D01*
X16033547Y2497683D01*
X15873589Y2366411D01*
X15742317Y2206453D01*
X15742315Y2206450D01*
X15714389Y2154205D01*
X15644769Y2023957D01*
X15584699Y1825933D01*
X15564417Y1620000D01*
X15584699Y1414068D01*
X15584700Y1414066D01*
X15644768Y1216046D01*
X15742315Y1033550D01*
X15742317Y1033548D01*
X15873589Y873590D01*
X16033548Y742316D01*
X16049372Y733858D01*
X16099217Y684896D01*
X16114677Y616758D01*
X16090845Y551078D01*
X16035288Y508710D01*
X15990919Y500500D01*
X14006660Y500500D01*
X13939621Y520185D01*
X13893866Y572989D01*
X13883922Y642147D01*
X13903558Y693390D01*
X13984634Y814731D01*
X13984642Y814746D01*
X14041177Y951233D01*
X14041179Y951241D01*
X14069999Y1096127D01*
X14070000Y1096129D01*
X14070000Y1320000D01*
X13620000Y1320000D01*
X13620000Y1820000D01*
X14070000Y1820000D01*
X14070000Y2043872D01*
X14069999Y2043874D01*
X14041179Y2188760D01*
X14041177Y2188768D01*
X13984642Y2325255D01*
X13984637Y2325265D01*
X13902563Y2448097D01*
X13902560Y2448101D01*
X13798100Y2552561D01*
X13798096Y2552564D01*
X13675264Y2634638D01*
X13675254Y2634643D01*
X13570000Y2678241D01*
X13570000Y2136989D01*
X13560060Y2154205D01*
X13504205Y2210060D01*
X13435796Y2249556D01*
X13359496Y2270000D01*
X13280504Y2270000D01*
X13204204Y2249556D01*
X13135795Y2210060D01*
X13079940Y2154205D01*
X13070000Y2136989D01*
X13070000Y2678241D01*
X13069999Y2678241D01*
X12964745Y2634643D01*
X12964735Y2634638D01*
X12841903Y2552564D01*
X12841899Y2552561D01*
X12737439Y2448101D01*
X12737436Y2448097D01*
X12655362Y2325265D01*
X12655357Y2325255D01*
X12598822Y2188768D01*
X12598820Y2188760D01*
X12570000Y2043874D01*
X12570000Y1820000D01*
X13020000Y1820000D01*
X13020000Y1320000D01*
X12570000Y1320000D01*
X12570000Y1096127D01*
X12598820Y951241D01*
X12598822Y951233D01*
X12655357Y814746D01*
X12655365Y814731D01*
X12736442Y693390D01*
X12757320Y626713D01*
X12738835Y559333D01*
X12686856Y512643D01*
X12633340Y500500D01*
X5366660Y500500D01*
X5299621Y520185D01*
X5253866Y572989D01*
X5243922Y642147D01*
X5263558Y693390D01*
X5344634Y814731D01*
X5344642Y814746D01*
X5401177Y951233D01*
X5401179Y951241D01*
X5429999Y1096127D01*
X5430000Y1096129D01*
X5430000Y1320000D01*
X4980000Y1320000D01*
X4980000Y1820000D01*
X5430000Y1820000D01*
X5430000Y2043872D01*
X5429999Y2043874D01*
X5401179Y2188760D01*
X5401177Y2188768D01*
X5344642Y2325255D01*
X5344637Y2325265D01*
X5262563Y2448097D01*
X5262560Y2448101D01*
X5158100Y2552561D01*
X5158096Y2552564D01*
X5035264Y2634638D01*
X5035254Y2634643D01*
X4930000Y2678241D01*
X4930000Y2136989D01*
X4920060Y2154205D01*
X4864205Y2210060D01*
X4795796Y2249556D01*
X4719496Y2270000D01*
X4640504Y2270000D01*
X4564204Y2249556D01*
X4495795Y2210060D01*
X4439940Y2154205D01*
X4430000Y2136989D01*
X4430000Y2678241D01*
X4429999Y2678241D01*
X4324745Y2634643D01*
X4324735Y2634638D01*
X4201903Y2552564D01*
X4201899Y2552561D01*
X4097439Y2448101D01*
X4097436Y2448097D01*
X4015362Y2325265D01*
X4015357Y2325255D01*
X3958822Y2188768D01*
X3958820Y2188760D01*
X3930000Y2043874D01*
X3930000Y1820000D01*
X4380000Y1820000D01*
X4380000Y1320000D01*
X3930000Y1320000D01*
X3930000Y1096127D01*
X3958820Y951241D01*
X3958822Y951233D01*
X4015357Y814746D01*
X4015365Y814731D01*
X4096442Y693390D01*
X4117320Y626713D01*
X4098835Y559333D01*
X4046856Y512643D01*
X3993340Y500500D01*
X2009081Y500500D01*
X1942042Y520185D01*
X1896287Y572989D01*
X1886343Y642147D01*
X1915368Y705703D01*
X1950628Y733858D01*
X1966450Y742315D01*
X2126410Y873590D01*
X2257685Y1033550D01*
X2355232Y1216046D01*
X2415300Y1414066D01*
X2435583Y1620000D01*
X2415300Y1825934D01*
X2355232Y2023954D01*
X2257685Y2206450D01*
X2160177Y2325265D01*
X2126410Y2366411D01*
X1966452Y2497683D01*
X1966453Y2497683D01*
X1966450Y2497685D01*
X1783954Y2595232D01*
X1585934Y2655300D01*
X1585932Y2655301D01*
X1585934Y2655301D01*
X1380000Y2675583D01*
X1174067Y2655301D01*
X976043Y2595231D01*
X896220Y2552564D01*
X793550Y2497685D01*
X793548Y2497684D01*
X793547Y2497683D01*
X703164Y2423508D01*
X638854Y2396196D01*
X569987Y2407987D01*
X518427Y2455140D01*
X500500Y2519362D01*
X500500Y3260639D01*
X520185Y3327678D01*
X572989Y3373433D01*
X642147Y3383377D01*
X703163Y3356493D01*
X793550Y3282315D01*
X976046Y3184768D01*
X1174066Y3124700D01*
X1174065Y3124700D01*
X1192529Y3122882D01*
X1380000Y3104417D01*
X1585934Y3124700D01*
X1783954Y3184768D01*
X1966450Y3282315D01*
X2126410Y3413590D01*
X2257685Y3573550D01*
X2355232Y3756046D01*
X2415300Y3954066D01*
X2435583Y4160000D01*
X2415300Y4365934D01*
X2355232Y4563954D01*
X2257685Y4746450D01*
X2160603Y4864746D01*
X2126410Y4906411D01*
X2002060Y5008461D01*
X1966450Y5037685D01*
X1783954Y5135232D01*
X1585934Y5195300D01*
X1585932Y5195301D01*
X1585934Y5195301D01*
X1380000Y5215583D01*
X1174067Y5195301D01*
X976043Y5135231D01*
X917997Y5104204D01*
X793550Y5037685D01*
X793548Y5037684D01*
X793547Y5037683D01*
X703164Y4963508D01*
X638854Y4936196D01*
X569987Y4947987D01*
X518427Y4995140D01*
X500500Y5059362D01*
X500500Y5800639D01*
X520185Y5867678D01*
X572989Y5913433D01*
X642147Y5923377D01*
X703163Y5896493D01*
X744778Y5862341D01*
X774013Y5838348D01*
X793550Y5822315D01*
X976046Y5724768D01*
X1174066Y5664700D01*
X1174065Y5664700D01*
X1192529Y5662882D01*
X1380000Y5644417D01*
X1585934Y5664700D01*
X1783954Y5724768D01*
X1966450Y5822315D01*
X2126410Y5953590D01*
X2257685Y6113550D01*
X2355232Y6296046D01*
X2415300Y6494066D01*
X2430607Y6649483D01*
X2819508Y6649483D01*
X2819508Y6649476D01*
X2839352Y6524179D01*
X2839352Y6524178D01*
X2839354Y6524175D01*
X2896950Y6411137D01*
X2896952Y6411135D01*
X2896954Y6411132D01*
X2986652Y6321434D01*
X2986654Y6321433D01*
X2986658Y6321429D01*
X3099696Y6263833D01*
X3099697Y6263833D01*
X3099699Y6263832D01*
X3224997Y6243987D01*
X3225000Y6243987D01*
X3225003Y6243987D01*
X3350300Y6263832D01*
X3350301Y6263832D01*
X3350302Y6263833D01*
X3350304Y6263833D01*
X3463342Y6321429D01*
X3535787Y6393874D01*
X3930000Y6393874D01*
X3930000Y6020000D01*
X4380000Y6020000D01*
X4380000Y5520000D01*
X3930000Y5520000D01*
X3930000Y5146127D01*
X3958820Y5001241D01*
X3958822Y5001233D01*
X4015357Y4864746D01*
X4015362Y4864736D01*
X4097436Y4741904D01*
X4097439Y4741900D01*
X4201899Y4637440D01*
X4201907Y4637434D01*
X4324739Y4555360D01*
X4324743Y4555358D01*
X4429999Y4511760D01*
X4430000Y4511760D01*
X4430000Y5053012D01*
X4439940Y5035795D01*
X4495795Y4979940D01*
X4564204Y4940444D01*
X4640504Y4920000D01*
X4719496Y4920000D01*
X4795796Y4940444D01*
X4864205Y4979940D01*
X4920060Y5035795D01*
X4930000Y5053012D01*
X4930000Y4511760D01*
X5035256Y4555358D01*
X5035260Y4555360D01*
X5158092Y4637434D01*
X5158100Y4637440D01*
X5262560Y4741900D01*
X5262563Y4741904D01*
X5344637Y4864736D01*
X5344644Y4864749D01*
X5383453Y4958442D01*
X5427294Y5012846D01*
X5493588Y5034911D01*
X5561287Y5017632D01*
X5605401Y4972990D01*
X5649482Y4896639D01*
X5649484Y4896637D01*
X5649485Y4896635D01*
X5756635Y4789485D01*
X5887865Y4713719D01*
X6034234Y4674500D01*
X6034236Y4674500D01*
X6185764Y4674500D01*
X6185766Y4674500D01*
X6332135Y4713719D01*
X6463365Y4789485D01*
X6570515Y4896635D01*
X6646281Y5027865D01*
X6685500Y5174234D01*
X6685500Y5325766D01*
X6646281Y5472135D01*
X6644802Y5474696D01*
X6618646Y5520000D01*
X6572455Y5600004D01*
X8344508Y5600004D01*
X8344508Y5599997D01*
X8364352Y5474700D01*
X8364352Y5474699D01*
X8382805Y5438483D01*
X8421950Y5361658D01*
X8421952Y5361656D01*
X8421954Y5361653D01*
X8511652Y5271955D01*
X8511654Y5271954D01*
X8511658Y5271950D01*
X8624696Y5214354D01*
X8624697Y5214354D01*
X8624699Y5214353D01*
X8749997Y5194508D01*
X8750000Y5194508D01*
X8750003Y5194508D01*
X8875300Y5214353D01*
X8875301Y5214353D01*
X8875302Y5214354D01*
X8875304Y5214354D01*
X8988342Y5271950D01*
X9078050Y5361658D01*
X9135646Y5474696D01*
X9135646Y5474698D01*
X9139515Y5482290D01*
X9187490Y5533086D01*
X9255311Y5549881D01*
X9321446Y5527343D01*
X9360485Y5482290D01*
X9364353Y5474698D01*
X9364354Y5474696D01*
X9421950Y5361658D01*
X9421952Y5361656D01*
X9421954Y5361653D01*
X9511652Y5271955D01*
X9511654Y5271954D01*
X9511658Y5271950D01*
X9624696Y5214354D01*
X9624697Y5214354D01*
X9624699Y5214353D01*
X9749997Y5194508D01*
X9750000Y5194508D01*
X9750003Y5194508D01*
X9875300Y5214353D01*
X9875301Y5214353D01*
X9875302Y5214354D01*
X9875304Y5214354D01*
X9988342Y5271950D01*
X10056550Y5340159D01*
X10117871Y5373642D01*
X10187563Y5368658D01*
X10243497Y5326787D01*
X10254709Y5308780D01*
X10290594Y5238353D01*
X10290595Y5238352D01*
X10290598Y5238348D01*
X10380296Y5148650D01*
X10380298Y5148649D01*
X10380302Y5148645D01*
X10493340Y5091049D01*
X10493341Y5091049D01*
X10493343Y5091048D01*
X10618641Y5071203D01*
X10618644Y5071203D01*
X10618647Y5071203D01*
X10743944Y5091048D01*
X10743945Y5091048D01*
X10743946Y5091049D01*
X10743948Y5091049D01*
X10856986Y5148645D01*
X10946694Y5238353D01*
X10991233Y5325766D01*
X11314500Y5325766D01*
X11314500Y5174234D01*
X11324951Y5135231D01*
X11353719Y5027864D01*
X11385401Y4972990D01*
X11429485Y4896635D01*
X11536635Y4789485D01*
X11667865Y4713719D01*
X11814234Y4674500D01*
X11814236Y4674500D01*
X11965764Y4674500D01*
X11965766Y4674500D01*
X12112135Y4713719D01*
X12243365Y4789485D01*
X12350515Y4896635D01*
X12394598Y4972990D01*
X12445164Y5021205D01*
X12513771Y5034429D01*
X12578636Y5008461D01*
X12616546Y4958443D01*
X12655357Y4864746D01*
X12655362Y4864736D01*
X12737436Y4741904D01*
X12737439Y4741900D01*
X12841899Y4637440D01*
X12841907Y4637434D01*
X12964739Y4555360D01*
X12964743Y4555358D01*
X13069999Y4511760D01*
X13070000Y4511760D01*
X13070000Y5053012D01*
X13079940Y5035795D01*
X13135795Y4979940D01*
X13204204Y4940444D01*
X13280504Y4920000D01*
X13359496Y4920000D01*
X13435796Y4940444D01*
X13504205Y4979940D01*
X13560060Y5035795D01*
X13570000Y5053012D01*
X13570000Y4511760D01*
X13675256Y4555358D01*
X13675260Y4555360D01*
X13798092Y4637434D01*
X13798100Y4637440D01*
X13902560Y4741900D01*
X13902563Y4741904D01*
X13984637Y4864736D01*
X13984642Y4864746D01*
X14041177Y5001233D01*
X14041179Y5001241D01*
X14069999Y5146127D01*
X14070000Y5146129D01*
X14070000Y5520000D01*
X13620000Y5520000D01*
X13620000Y6020000D01*
X14070000Y6020000D01*
X14070000Y6393872D01*
X14069999Y6393874D01*
X14041179Y6538760D01*
X14041177Y6538768D01*
X13984642Y6675255D01*
X13984637Y6675265D01*
X13902563Y6798097D01*
X13902560Y6798101D01*
X13798100Y6902561D01*
X13798096Y6902564D01*
X13675264Y6984638D01*
X13675254Y6984643D01*
X13570000Y7028241D01*
X13570000Y6486989D01*
X13560060Y6504205D01*
X13504205Y6560060D01*
X13435796Y6599556D01*
X13359496Y6620000D01*
X13280504Y6620000D01*
X13204204Y6599556D01*
X13135795Y6560060D01*
X13079940Y6504205D01*
X13070000Y6486989D01*
X13070000Y7028241D01*
X13069999Y7028241D01*
X12964745Y6984643D01*
X12964735Y6984638D01*
X12841903Y6902564D01*
X12841899Y6902561D01*
X12737439Y6798101D01*
X12737436Y6798097D01*
X12655362Y6675265D01*
X12655357Y6675255D01*
X12598822Y6538768D01*
X12598820Y6538760D01*
X12570000Y6393874D01*
X12570000Y6020000D01*
X13020000Y6020000D01*
X13020000Y5520000D01*
X12565316Y5520000D01*
X12514309Y5492149D01*
X12444618Y5497135D01*
X12388685Y5539007D01*
X12380566Y5551315D01*
X12350515Y5603365D01*
X12243365Y5710515D01*
X12143927Y5767926D01*
X12112136Y5786281D01*
X12038950Y5805891D01*
X11965766Y5825500D01*
X11814234Y5825500D01*
X11667863Y5786281D01*
X11536635Y5710515D01*
X11536632Y5710513D01*
X11429487Y5603368D01*
X11429485Y5603365D01*
X11353719Y5472137D01*
X11327328Y5373642D01*
X11314500Y5325766D01*
X10991233Y5325766D01*
X11004290Y5351391D01*
X11004290Y5351393D01*
X11004291Y5351394D01*
X11004291Y5351395D01*
X11024136Y5476692D01*
X11024136Y5476699D01*
X11004291Y5601996D01*
X11004291Y5601997D01*
X11004290Y5601999D01*
X10946694Y5715037D01*
X10946690Y5715041D01*
X10946689Y5715043D01*
X10856991Y5804741D01*
X10856988Y5804743D01*
X10856986Y5804745D01*
X10743948Y5862341D01*
X10743947Y5862342D01*
X10743944Y5862343D01*
X10618647Y5882187D01*
X10618641Y5882187D01*
X10493343Y5862343D01*
X10493342Y5862343D01*
X10421036Y5825500D01*
X10380302Y5804745D01*
X10380301Y5804744D01*
X10380299Y5804744D01*
X10312094Y5736538D01*
X10250770Y5703054D01*
X10181079Y5708039D01*
X10125145Y5749910D01*
X10113932Y5767918D01*
X10078050Y5838342D01*
X10078047Y5838345D01*
X10078045Y5838348D01*
X9988347Y5928046D01*
X9988344Y5928048D01*
X9988342Y5928050D01*
X9875304Y5985646D01*
X9875303Y5985647D01*
X9875300Y5985648D01*
X9750003Y6005492D01*
X9749997Y6005492D01*
X9624699Y5985648D01*
X9624698Y5985648D01*
X9561783Y5953590D01*
X9511658Y5928050D01*
X9511657Y5928049D01*
X9511652Y5928046D01*
X9421954Y5838348D01*
X9421949Y5838341D01*
X9360484Y5717710D01*
X9312510Y5666915D01*
X9244689Y5650120D01*
X9178554Y5672658D01*
X9139516Y5717710D01*
X9097261Y5800639D01*
X9078050Y5838342D01*
X9078047Y5838345D01*
X9078045Y5838348D01*
X8988347Y5928046D01*
X8988344Y5928048D01*
X8988342Y5928050D01*
X8875304Y5985646D01*
X8875303Y5985647D01*
X8875300Y5985648D01*
X8750003Y6005492D01*
X8749997Y6005492D01*
X8624699Y5985648D01*
X8624698Y5985648D01*
X8561783Y5953590D01*
X8511658Y5928050D01*
X8511657Y5928049D01*
X8511652Y5928046D01*
X8421954Y5838348D01*
X8421951Y5838343D01*
X8421950Y5838342D01*
X8413784Y5822315D01*
X8364352Y5725302D01*
X8364352Y5725301D01*
X8344508Y5600004D01*
X6572455Y5600004D01*
X6570515Y5603365D01*
X6463365Y5710515D01*
X6363927Y5767926D01*
X6332136Y5786281D01*
X6258950Y5805891D01*
X6185766Y5825500D01*
X6034234Y5825500D01*
X5887863Y5786281D01*
X5756635Y5710515D01*
X5756632Y5710513D01*
X5649487Y5603368D01*
X5649483Y5603362D01*
X5619432Y5551314D01*
X5568864Y5503099D01*
X5500257Y5489878D01*
X5435392Y5515847D01*
X5430713Y5520000D01*
X4980000Y5520000D01*
X4980000Y6020000D01*
X5430000Y6020000D01*
X5430000Y6393872D01*
X5429999Y6393874D01*
X5401179Y6538760D01*
X5401177Y6538768D01*
X5344642Y6675255D01*
X5344637Y6675265D01*
X5262563Y6798097D01*
X5262560Y6798101D01*
X5158100Y6902561D01*
X5158096Y6902564D01*
X5035264Y6984638D01*
X5035254Y6984643D01*
X4930000Y7028241D01*
X4930000Y6486989D01*
X4920060Y6504205D01*
X4864205Y6560060D01*
X4795796Y6599556D01*
X4719496Y6620000D01*
X4640504Y6620000D01*
X4564204Y6599556D01*
X4495795Y6560060D01*
X4439940Y6504205D01*
X4430000Y6486989D01*
X4430000Y7028241D01*
X4429999Y7028241D01*
X4324745Y6984643D01*
X4324735Y6984638D01*
X4201903Y6902564D01*
X4201899Y6902561D01*
X4097439Y6798101D01*
X4097436Y6798097D01*
X4015362Y6675265D01*
X4015357Y6675255D01*
X3958822Y6538768D01*
X3958820Y6538760D01*
X3930000Y6393874D01*
X3535787Y6393874D01*
X3553050Y6411137D01*
X3610646Y6524175D01*
X3610646Y6524177D01*
X3610647Y6524178D01*
X3610647Y6524179D01*
X3630492Y6649476D01*
X3630492Y6649483D01*
X3610647Y6774780D01*
X3610647Y6774781D01*
X3598765Y6798101D01*
X3553050Y6887821D01*
X3553046Y6887825D01*
X3553045Y6887827D01*
X3463347Y6977525D01*
X3463344Y6977527D01*
X3463342Y6977529D01*
X3350304Y7035125D01*
X3350303Y7035126D01*
X3350300Y7035127D01*
X3225003Y7054971D01*
X3224997Y7054971D01*
X3099699Y7035127D01*
X3099698Y7035127D01*
X3024337Y6996728D01*
X2986658Y6977529D01*
X2986657Y6977528D01*
X2986652Y6977525D01*
X2896954Y6887827D01*
X2896951Y6887822D01*
X2839352Y6774781D01*
X2839352Y6774780D01*
X2819508Y6649483D01*
X2430607Y6649483D01*
X2435583Y6700000D01*
X2415300Y6905934D01*
X2355232Y7103954D01*
X2257685Y7286450D01*
X2205702Y7349791D01*
X2126410Y7446411D01*
X1966452Y7577683D01*
X1966453Y7577683D01*
X1966450Y7577685D01*
X1783954Y7675232D01*
X1585934Y7735300D01*
X1585932Y7735301D01*
X1585934Y7735301D01*
X1380000Y7755583D01*
X1174067Y7735301D01*
X976043Y7675231D01*
X865898Y7616357D01*
X793550Y7577685D01*
X793548Y7577684D01*
X793547Y7577683D01*
X703164Y7503508D01*
X638854Y7476196D01*
X569987Y7487987D01*
X518427Y7535140D01*
X500500Y7599362D01*
X500500Y8340639D01*
X520185Y8407678D01*
X572989Y8453433D01*
X642147Y8463377D01*
X703165Y8436492D01*
X791066Y8364353D01*
X793550Y8362315D01*
X976046Y8264768D01*
X1174066Y8204700D01*
X1174065Y8204700D01*
X1192529Y8202882D01*
X1380000Y8184417D01*
X1585934Y8204700D01*
X1783954Y8264768D01*
X1966450Y8362315D01*
X2126410Y8493590D01*
X2257685Y8653550D01*
X2355232Y8836046D01*
X2415300Y9034066D01*
X2435583Y9240000D01*
X2415300Y9445934D01*
X2355232Y9643954D01*
X2271821Y9800004D01*
X4944508Y9800004D01*
X4944508Y9799997D01*
X4964352Y9674700D01*
X4964352Y9674699D01*
X4974139Y9655492D01*
X5021950Y9561658D01*
X5021952Y9561656D01*
X5021954Y9561653D01*
X5111652Y9471955D01*
X5111654Y9471954D01*
X5111658Y9471950D01*
X5224696Y9414354D01*
X5224697Y9414354D01*
X5224699Y9414353D01*
X5349997Y9394508D01*
X5350000Y9394508D01*
X5350003Y9394508D01*
X5475301Y9414353D01*
X5476539Y9414755D01*
X5478128Y9414801D01*
X5484944Y9415880D01*
X5485083Y9415000D01*
X5546380Y9416754D01*
X5606214Y9380676D01*
X5625346Y9353122D01*
X5671949Y9261660D01*
X5671954Y9261653D01*
X5761652Y9171955D01*
X5761654Y9171954D01*
X5761658Y9171950D01*
X5874696Y9114354D01*
X5874697Y9114354D01*
X5874699Y9114353D01*
X5999997Y9094508D01*
X6000000Y9094508D01*
X6000003Y9094508D01*
X6125300Y9114353D01*
X6125301Y9114353D01*
X6125302Y9114354D01*
X6125304Y9114354D01*
X6238342Y9171950D01*
X6316396Y9250004D01*
X10394508Y9250004D01*
X10394508Y9249997D01*
X10414352Y9124700D01*
X10414353Y9124696D01*
X10449206Y9056294D01*
X10462102Y8987625D01*
X10449206Y8943706D01*
X10414353Y8875305D01*
X10414352Y8875301D01*
X10394508Y8750004D01*
X10394508Y8749997D01*
X10414352Y8624700D01*
X10414352Y8624699D01*
X10419624Y8614353D01*
X10471950Y8511658D01*
X10471952Y8511656D01*
X10471954Y8511653D01*
X10561652Y8421955D01*
X10561654Y8421954D01*
X10561658Y8421950D01*
X10674696Y8364354D01*
X10674697Y8364354D01*
X10674699Y8364353D01*
X10799997Y8344508D01*
X10800000Y8344508D01*
X10800003Y8344508D01*
X10925300Y8364353D01*
X10925301Y8364353D01*
X10925302Y8364354D01*
X10925304Y8364354D01*
X11038342Y8421950D01*
X11128050Y8511658D01*
X11164133Y8582476D01*
X11212105Y8633269D01*
X11279925Y8650065D01*
X11330909Y8636665D01*
X11374696Y8614354D01*
X11374697Y8614354D01*
X11374699Y8614353D01*
X11499997Y8594508D01*
X11500000Y8594508D01*
X11500003Y8594508D01*
X11625300Y8614353D01*
X11625301Y8614353D01*
X11625302Y8614354D01*
X11625304Y8614354D01*
X11738342Y8671950D01*
X11828050Y8761658D01*
X11885646Y8874696D01*
X11885646Y8874698D01*
X11885647Y8874699D01*
X11885647Y8874700D01*
X11905492Y8999997D01*
X11905492Y9000004D01*
X11885647Y9125301D01*
X11885646Y9125304D01*
X11864597Y9166614D01*
X11851700Y9235283D01*
X11877976Y9300024D01*
X11935082Y9340281D01*
X11994483Y9345382D01*
X12000000Y9344508D01*
X12000001Y9344509D01*
X12000002Y9344508D01*
X12000003Y9344508D01*
X12125300Y9364353D01*
X12125301Y9364353D01*
X12125302Y9364354D01*
X12125304Y9364354D01*
X12238342Y9421950D01*
X12262326Y9445934D01*
X12287319Y9470926D01*
X12348642Y9504411D01*
X12418334Y9499427D01*
X12462681Y9470926D01*
X12511652Y9421955D01*
X12511654Y9421954D01*
X12511658Y9421950D01*
X12624696Y9364354D01*
X12624697Y9364354D01*
X12624699Y9364353D01*
X12749997Y9344508D01*
X12750000Y9344508D01*
X12750003Y9344508D01*
X12875300Y9364353D01*
X12875301Y9364353D01*
X12875302Y9364354D01*
X12875304Y9364354D01*
X12988342Y9421950D01*
X13078050Y9511658D01*
X13135646Y9624696D01*
X13135646Y9624698D01*
X13135647Y9624699D01*
X13135647Y9624700D01*
X13155492Y9749997D01*
X13155492Y9750004D01*
X13135647Y9875301D01*
X13135647Y9875302D01*
X13125000Y9896198D01*
X13078050Y9988342D01*
X13078046Y9988346D01*
X13078045Y9988348D01*
X12988347Y10078046D01*
X12988344Y10078048D01*
X12988342Y10078050D01*
X12875304Y10135646D01*
X12875303Y10135647D01*
X12875300Y10135648D01*
X12750003Y10155492D01*
X12749997Y10155492D01*
X12624699Y10135648D01*
X12624698Y10135648D01*
X12549337Y10097249D01*
X12511658Y10078050D01*
X12511657Y10078049D01*
X12511652Y10078046D01*
X12462681Y10029074D01*
X12401358Y9995589D01*
X12331666Y10000573D01*
X12287319Y10029074D01*
X12238347Y10078046D01*
X12238344Y10078048D01*
X12238342Y10078050D01*
X12125304Y10135646D01*
X12125303Y10135647D01*
X12125300Y10135648D01*
X12000003Y10155492D01*
X11999997Y10155492D01*
X11874699Y10135648D01*
X11874698Y10135648D01*
X11799337Y10097249D01*
X11761658Y10078050D01*
X11761657Y10078049D01*
X11761652Y10078046D01*
X11671950Y9988343D01*
X11671949Y9988343D01*
X11660946Y9966748D01*
X11612971Y9915954D01*
X11545149Y9899160D01*
X11531068Y9900572D01*
X11500000Y9905492D01*
X11499997Y9905492D01*
X11374699Y9885648D01*
X11374698Y9885648D01*
X11299337Y9847249D01*
X11261658Y9828050D01*
X11261657Y9828049D01*
X11261652Y9828046D01*
X11171954Y9738348D01*
X11171950Y9738343D01*
X11135866Y9667525D01*
X11087891Y9616730D01*
X11020069Y9599936D01*
X10969088Y9613337D01*
X10925304Y9635646D01*
X10925303Y9635647D01*
X10925300Y9635648D01*
X10800003Y9655492D01*
X10799997Y9655492D01*
X10674699Y9635648D01*
X10674698Y9635648D01*
X10630912Y9613337D01*
X10561658Y9578050D01*
X10561657Y9578049D01*
X10561652Y9578046D01*
X10471954Y9488348D01*
X10471951Y9488343D01*
X10471950Y9488342D01*
X10463599Y9471952D01*
X10414352Y9375302D01*
X10414352Y9375301D01*
X10394508Y9250004D01*
X6316396Y9250004D01*
X6328050Y9261658D01*
X6385646Y9374696D01*
X6385646Y9374698D01*
X6385647Y9374699D01*
X6385647Y9374700D01*
X6405492Y9499997D01*
X6405492Y9500004D01*
X6385647Y9625301D01*
X6385646Y9625304D01*
X6350794Y9693704D01*
X6337897Y9762374D01*
X6350794Y9806296D01*
X6361063Y9826450D01*
X6385646Y9874696D01*
X6385742Y9875302D01*
X6405492Y9999997D01*
X6405492Y10000004D01*
X6385647Y10125301D01*
X6385646Y10125304D01*
X6355703Y10184070D01*
X6350793Y10193705D01*
X6337897Y10262374D01*
X6350794Y10306296D01*
X6378529Y10360729D01*
X6385646Y10374696D01*
X6385647Y10374700D01*
X6405492Y10499997D01*
X6405492Y10500004D01*
X6385647Y10625301D01*
X6385647Y10625302D01*
X6385646Y10625304D01*
X6328050Y10738342D01*
X6328046Y10738346D01*
X6328045Y10738348D01*
X6231442Y10834951D01*
X6233485Y10836995D01*
X6200317Y10880000D01*
X6194330Y10949612D01*
X6226929Y11011411D01*
X6233482Y11017090D01*
X6328045Y11111653D01*
X6328050Y11111658D01*
X6385646Y11224696D01*
X6404321Y11342608D01*
X6434248Y11405738D01*
X6493559Y11442670D01*
X6507372Y11445676D01*
X6625304Y11464354D01*
X6738342Y11521950D01*
X6828050Y11611658D01*
X6885646Y11724696D01*
X6885646Y11724698D01*
X6885647Y11724699D01*
X6885647Y11724700D01*
X6905492Y11849997D01*
X6905492Y11850004D01*
X6885647Y11975301D01*
X6885647Y11975302D01*
X6880230Y11985934D01*
X6828050Y12088342D01*
X6828046Y12088346D01*
X6828045Y12088348D01*
X6738347Y12178046D01*
X6738344Y12178048D01*
X6738342Y12178050D01*
X6625304Y12235646D01*
X6625303Y12235647D01*
X6625300Y12235648D01*
X6500003Y12255492D01*
X6499997Y12255492D01*
X6374699Y12235648D01*
X6374698Y12235648D01*
X6299337Y12197249D01*
X6261658Y12178050D01*
X6261657Y12178049D01*
X6261652Y12178046D01*
X6171954Y12088348D01*
X6171951Y12088343D01*
X6114352Y11975302D01*
X6114352Y11975301D01*
X6095679Y11857397D01*
X6065750Y11794262D01*
X6006439Y11757330D01*
X5992603Y11754321D01*
X5874699Y11735648D01*
X5874698Y11735648D01*
X5799337Y11697249D01*
X5761658Y11678050D01*
X5761657Y11678049D01*
X5761652Y11678046D01*
X5671954Y11588348D01*
X5671951Y11588343D01*
X5614352Y11475302D01*
X5614352Y11475301D01*
X5594508Y11350004D01*
X5594508Y11349997D01*
X5614352Y11224700D01*
X5614352Y11224699D01*
X5614354Y11224696D01*
X5671950Y11111658D01*
X5671952Y11111656D01*
X5671954Y11111653D01*
X5768558Y11015049D01*
X5766515Y11013007D01*
X5799689Y10969984D01*
X5805665Y10900370D01*
X5773057Y10838576D01*
X5766512Y10832906D01*
X5671954Y10738348D01*
X5671951Y10738343D01*
X5671950Y10738342D01*
X5664855Y10724417D01*
X5614352Y10625302D01*
X5614352Y10625301D01*
X5594508Y10500004D01*
X5594508Y10499997D01*
X5614352Y10374700D01*
X5621471Y10360729D01*
X5634367Y10292060D01*
X5608091Y10227320D01*
X5550985Y10187062D01*
X5484961Y10184233D01*
X5484944Y10184120D01*
X5484390Y10184208D01*
X5481179Y10184070D01*
X5476110Y10185520D01*
X5350003Y10205492D01*
X5349997Y10205492D01*
X5224699Y10185648D01*
X5224698Y10185648D01*
X5149337Y10147249D01*
X5111658Y10128050D01*
X5111657Y10128049D01*
X5111652Y10128046D01*
X5021954Y10038348D01*
X5021951Y10038343D01*
X4964352Y9925302D01*
X4964352Y9925301D01*
X4944508Y9800004D01*
X2271821Y9800004D01*
X2257685Y9826450D01*
X2192817Y9905492D01*
X2126410Y9986411D01*
X2008677Y10083031D01*
X1966450Y10117685D01*
X1783954Y10215232D01*
X1585934Y10275300D01*
X1585932Y10275301D01*
X1585934Y10275301D01*
X1380000Y10295583D01*
X1174067Y10275301D01*
X976043Y10215231D01*
X880861Y10164354D01*
X793550Y10117685D01*
X793548Y10117684D01*
X793547Y10117683D01*
X703164Y10043508D01*
X638854Y10016196D01*
X569987Y10027987D01*
X518427Y10075140D01*
X500500Y10139362D01*
X500500Y10550004D01*
X4144508Y10550004D01*
X4144508Y10549997D01*
X4164352Y10424700D01*
X4164352Y10424699D01*
X4164354Y10424696D01*
X4221950Y10311658D01*
X4221952Y10311656D01*
X4221954Y10311653D01*
X4311652Y10221955D01*
X4311654Y10221954D01*
X4311658Y10221950D01*
X4424696Y10164354D01*
X4424697Y10164354D01*
X4424699Y10164353D01*
X4549997Y10144508D01*
X4550000Y10144508D01*
X4550003Y10144508D01*
X4675300Y10164353D01*
X4675301Y10164353D01*
X4675302Y10164354D01*
X4675304Y10164354D01*
X4788342Y10221950D01*
X4878050Y10311658D01*
X4935646Y10424696D01*
X4935646Y10424698D01*
X4935647Y10424699D01*
X4935647Y10424700D01*
X4955492Y10549997D01*
X4955492Y10550004D01*
X4935647Y10675301D01*
X4935647Y10675302D01*
X4935646Y10675304D01*
X4878050Y10788342D01*
X4878046Y10788346D01*
X4878045Y10788348D01*
X4788347Y10878046D01*
X4788344Y10878048D01*
X4788342Y10878050D01*
X4675304Y10935646D01*
X4675303Y10935647D01*
X4675300Y10935648D01*
X4550003Y10955492D01*
X4549997Y10955492D01*
X4424699Y10935648D01*
X4424698Y10935648D01*
X4355463Y10900370D01*
X4311658Y10878050D01*
X4311657Y10878049D01*
X4311652Y10878046D01*
X4221954Y10788348D01*
X4221951Y10788343D01*
X4164352Y10675302D01*
X4164352Y10675301D01*
X4144508Y10550004D01*
X500500Y10550004D01*
X500500Y10880639D01*
X520185Y10947678D01*
X572989Y10993433D01*
X642147Y11003377D01*
X703165Y10976492D01*
X789678Y10905492D01*
X793550Y10902315D01*
X976046Y10804768D01*
X1174066Y10744700D01*
X1174065Y10744700D01*
X1192529Y10742882D01*
X1380000Y10724417D01*
X1585934Y10744700D01*
X1783954Y10804768D01*
X1966450Y10902315D01*
X2126410Y11033590D01*
X2257685Y11193550D01*
X2355232Y11376046D01*
X2415300Y11574066D01*
X2435583Y11780000D01*
X2415300Y11985934D01*
X2355232Y12183954D01*
X2257685Y12366450D01*
X2205702Y12429791D01*
X2126410Y12526411D01*
X1966452Y12657683D01*
X1966453Y12657683D01*
X1966450Y12657685D01*
X1793735Y12750004D01*
X11494508Y12750004D01*
X11494508Y12749997D01*
X11514352Y12624700D01*
X11514352Y12624699D01*
X11514354Y12624696D01*
X11571950Y12511658D01*
X11571952Y12511656D01*
X11571954Y12511653D01*
X11661652Y12421955D01*
X11661654Y12421954D01*
X11661658Y12421950D01*
X11774696Y12364354D01*
X11774697Y12364354D01*
X11774699Y12364353D01*
X11899997Y12344508D01*
X11900000Y12344508D01*
X11900003Y12344508D01*
X12025300Y12364353D01*
X12025302Y12364354D01*
X12025304Y12364354D01*
X12138342Y12421950D01*
X12138343Y12421952D01*
X12143704Y12424683D01*
X12212373Y12437580D01*
X12256296Y12424683D01*
X12261656Y12421952D01*
X12261658Y12421950D01*
X12370582Y12366450D01*
X12374696Y12364354D01*
X12374699Y12364353D01*
X12499997Y12344508D01*
X12500000Y12344508D01*
X12500003Y12344508D01*
X12625300Y12364353D01*
X12625301Y12364353D01*
X12625302Y12364354D01*
X12625304Y12364354D01*
X12738342Y12421950D01*
X12828050Y12511658D01*
X12885646Y12624696D01*
X12885646Y12624698D01*
X12885647Y12624699D01*
X12885647Y12624700D01*
X12905492Y12749997D01*
X12905492Y12750004D01*
X12885647Y12875301D01*
X12885647Y12875302D01*
X12885646Y12875304D01*
X12828050Y12988342D01*
X12828046Y12988346D01*
X12828045Y12988348D01*
X12738347Y13078046D01*
X12738344Y13078048D01*
X12738342Y13078050D01*
X12625304Y13135646D01*
X12625303Y13135647D01*
X12625300Y13135648D01*
X12500003Y13155492D01*
X12499997Y13155492D01*
X12374699Y13135648D01*
X12374698Y13135648D01*
X12290747Y13092872D01*
X12261658Y13078050D01*
X12261657Y13078050D01*
X12256295Y13075317D01*
X12187626Y13062421D01*
X12143705Y13075317D01*
X12138342Y13078050D01*
X12025304Y13135646D01*
X12025303Y13135647D01*
X12025300Y13135648D01*
X11900003Y13155492D01*
X11899997Y13155492D01*
X11774699Y13135648D01*
X11774698Y13135648D01*
X11699337Y13097249D01*
X11661658Y13078050D01*
X11661657Y13078049D01*
X11661652Y13078046D01*
X11571954Y12988348D01*
X11571951Y12988343D01*
X11514352Y12875302D01*
X11514352Y12875301D01*
X11494508Y12750004D01*
X1793735Y12750004D01*
X1783954Y12755232D01*
X1585934Y12815300D01*
X1585932Y12815301D01*
X1585934Y12815301D01*
X1380000Y12835583D01*
X1174067Y12815301D01*
X976043Y12755231D01*
X865898Y12696357D01*
X793550Y12657685D01*
X793548Y12657684D01*
X793547Y12657683D01*
X703164Y12583508D01*
X638854Y12556196D01*
X569987Y12567987D01*
X518427Y12615140D01*
X500500Y12679362D01*
X500500Y13420639D01*
X520185Y13487678D01*
X572989Y13533433D01*
X642147Y13543377D01*
X703163Y13516493D01*
X793550Y13442315D01*
X976046Y13344768D01*
X1174066Y13284700D01*
X1174065Y13284700D01*
X1192529Y13282882D01*
X1380000Y13264417D01*
X1585934Y13284700D01*
X1783954Y13344768D01*
X1966450Y13442315D01*
X2126410Y13573590D01*
X2257685Y13733550D01*
X2355232Y13916046D01*
X2415300Y14114066D01*
X2428689Y14250004D01*
X7094508Y14250004D01*
X7094508Y14249997D01*
X7114352Y14124700D01*
X7114352Y14124699D01*
X7114354Y14124696D01*
X7171950Y14011658D01*
X7171952Y14011656D01*
X7171954Y14011653D01*
X7261652Y13921955D01*
X7261654Y13921954D01*
X7261658Y13921950D01*
X7374696Y13864354D01*
X7374697Y13864354D01*
X7374699Y13864353D01*
X7499997Y13844508D01*
X7500000Y13844508D01*
X7500003Y13844508D01*
X7625300Y13864353D01*
X7625301Y13864353D01*
X7625302Y13864354D01*
X7625304Y13864354D01*
X7738342Y13921950D01*
X7828050Y14011658D01*
X7885646Y14124696D01*
X7885646Y14124698D01*
X7885647Y14124699D01*
X7885647Y14124700D01*
X7905492Y14249997D01*
X7905492Y14250004D01*
X7885647Y14375301D01*
X7885647Y14375302D01*
X7885646Y14375304D01*
X7828050Y14488342D01*
X7828046Y14488346D01*
X7828045Y14488348D01*
X7738347Y14578046D01*
X7738344Y14578048D01*
X7738342Y14578050D01*
X7625304Y14635646D01*
X7625303Y14635647D01*
X7625300Y14635648D01*
X7500003Y14655492D01*
X7499997Y14655492D01*
X7374699Y14635648D01*
X7374698Y14635648D01*
X7299337Y14597249D01*
X7261658Y14578050D01*
X7261657Y14578049D01*
X7261652Y14578046D01*
X7171954Y14488348D01*
X7171951Y14488343D01*
X7114352Y14375302D01*
X7114352Y14375301D01*
X7094508Y14250004D01*
X2428689Y14250004D01*
X2435583Y14320000D01*
X2415300Y14525934D01*
X2355232Y14723954D01*
X2257685Y14906450D01*
X2221941Y14950004D01*
X8694508Y14950004D01*
X8694508Y14949997D01*
X8714352Y14824700D01*
X8714352Y14824699D01*
X8714354Y14824696D01*
X8771950Y14711658D01*
X8771952Y14711656D01*
X8771954Y14711653D01*
X8861652Y14621955D01*
X8861654Y14621954D01*
X8861658Y14621950D01*
X8974696Y14564354D01*
X8974697Y14564354D01*
X8974699Y14564353D01*
X9099997Y14544508D01*
X9100000Y14544508D01*
X9100003Y14544508D01*
X9225300Y14564353D01*
X9225301Y14564353D01*
X9225302Y14564354D01*
X9225304Y14564354D01*
X9338342Y14621950D01*
X9428050Y14711658D01*
X9485646Y14824696D01*
X9485646Y14824698D01*
X9485647Y14824699D01*
X9485647Y14824700D01*
X9505492Y14949997D01*
X9505492Y14950004D01*
X9485647Y15075301D01*
X9485647Y15075302D01*
X9468993Y15107987D01*
X9428050Y15188342D01*
X9428046Y15188346D01*
X9428045Y15188348D01*
X9338347Y15278046D01*
X9338344Y15278048D01*
X9338342Y15278050D01*
X9225304Y15335646D01*
X9225303Y15335647D01*
X9225300Y15335648D01*
X9100003Y15355492D01*
X9099997Y15355492D01*
X8974699Y15335648D01*
X8974698Y15335648D01*
X8899337Y15297249D01*
X8861658Y15278050D01*
X8861657Y15278049D01*
X8861652Y15278046D01*
X8771954Y15188348D01*
X8771951Y15188343D01*
X8714352Y15075302D01*
X8714352Y15075301D01*
X8694508Y14950004D01*
X2221941Y14950004D01*
X2205702Y14969791D01*
X2126410Y15066411D01*
X2008677Y15163031D01*
X1966450Y15197685D01*
X1783954Y15295232D01*
X1585934Y15355300D01*
X1585932Y15355301D01*
X1585934Y15355301D01*
X1380000Y15375583D01*
X1174067Y15355301D01*
X998692Y15302102D01*
X979195Y15296187D01*
X976043Y15295231D01*
X865898Y15236357D01*
X793550Y15197685D01*
X793548Y15197684D01*
X793547Y15197683D01*
X703164Y15123508D01*
X638854Y15096196D01*
X569987Y15107987D01*
X518427Y15155140D01*
X500500Y15219362D01*
X500500Y15960639D01*
X520185Y16027678D01*
X572989Y16073433D01*
X642147Y16083377D01*
X703163Y16056493D01*
X793550Y15982315D01*
X976046Y15884768D01*
X1174066Y15824700D01*
X1174065Y15824700D01*
X1192529Y15822882D01*
X1380000Y15804417D01*
X1585934Y15824700D01*
X1783954Y15884768D01*
X1966450Y15982315D01*
X2126410Y16113590D01*
X2156294Y16150004D01*
X5419508Y16150004D01*
X5419508Y16149997D01*
X5439352Y16024700D01*
X5439352Y16024699D01*
X5457805Y15988483D01*
X5496950Y15911658D01*
X5496952Y15911656D01*
X5496954Y15911653D01*
X5586652Y15821955D01*
X5586654Y15821954D01*
X5586658Y15821950D01*
X5699696Y15764354D01*
X5699697Y15764354D01*
X5699699Y15764353D01*
X5771487Y15752983D01*
X5834622Y15723054D01*
X5871554Y15663743D01*
X5874563Y15649909D01*
X5889353Y15556532D01*
X5889352Y15556532D01*
X5889354Y15556529D01*
X5946950Y15443491D01*
X5946952Y15443489D01*
X5946954Y15443486D01*
X6036652Y15353788D01*
X6036654Y15353787D01*
X6036658Y15353783D01*
X6149696Y15296187D01*
X6149697Y15296187D01*
X6149699Y15296186D01*
X6274997Y15276341D01*
X6275000Y15276341D01*
X6275003Y15276341D01*
X6400300Y15296186D01*
X6400301Y15296186D01*
X6400302Y15296187D01*
X6400304Y15296187D01*
X6513342Y15353783D01*
X6603050Y15443491D01*
X6660646Y15556529D01*
X6660646Y15556531D01*
X6660647Y15556532D01*
X6660647Y15556533D01*
X6680492Y15681830D01*
X6680492Y15681837D01*
X6660647Y15807134D01*
X6660647Y15807135D01*
X6641604Y15844508D01*
X6603050Y15920175D01*
X6603046Y15920179D01*
X6603045Y15920181D01*
X6513347Y16009879D01*
X6513344Y16009881D01*
X6513342Y16009883D01*
X6400304Y16067479D01*
X6400302Y16067480D01*
X6400301Y16067480D01*
X6328510Y16078851D01*
X6265376Y16108781D01*
X6228445Y16168092D01*
X6225436Y16181926D01*
X6214654Y16250004D01*
X12394508Y16250004D01*
X12394508Y16249997D01*
X12414352Y16124700D01*
X12414352Y16124699D01*
X12422463Y16108781D01*
X12471950Y16011658D01*
X12471952Y16011656D01*
X12471954Y16011653D01*
X12561652Y15921955D01*
X12561654Y15921954D01*
X12561658Y15921950D01*
X12674696Y15864354D01*
X12674697Y15864354D01*
X12674699Y15864353D01*
X12799997Y15844508D01*
X12800000Y15844508D01*
X12800003Y15844508D01*
X12925300Y15864353D01*
X12925301Y15864353D01*
X12925302Y15864354D01*
X12925304Y15864354D01*
X13038342Y15921950D01*
X13128050Y16011658D01*
X13185646Y16124696D01*
X13185646Y16124698D01*
X13185647Y16124699D01*
X13185647Y16124700D01*
X13205492Y16249997D01*
X13205492Y16250004D01*
X13185647Y16375301D01*
X13185647Y16375302D01*
X13179000Y16388348D01*
X13128050Y16488342D01*
X13128046Y16488346D01*
X13128045Y16488348D01*
X13038347Y16578046D01*
X13038344Y16578048D01*
X13038342Y16578050D01*
X12925304Y16635646D01*
X12925303Y16635647D01*
X12925300Y16635648D01*
X12800003Y16655492D01*
X12799997Y16655492D01*
X12674699Y16635648D01*
X12674698Y16635648D01*
X12599337Y16597249D01*
X12561658Y16578050D01*
X12561657Y16578049D01*
X12561652Y16578046D01*
X12471954Y16488348D01*
X12471951Y16488343D01*
X12471950Y16488342D01*
X12466704Y16478046D01*
X12414352Y16375302D01*
X12414352Y16375301D01*
X12394508Y16250004D01*
X6214654Y16250004D01*
X6210647Y16275302D01*
X6209809Y16276946D01*
X6153050Y16388342D01*
X6153046Y16388346D01*
X6153045Y16388348D01*
X6063347Y16478046D01*
X6063344Y16478048D01*
X6063342Y16478050D01*
X5950304Y16535646D01*
X5950303Y16535647D01*
X5950300Y16535648D01*
X5825003Y16555492D01*
X5824997Y16555492D01*
X5699699Y16535648D01*
X5699698Y16535648D01*
X5624337Y16497249D01*
X5586658Y16478050D01*
X5586657Y16478049D01*
X5586652Y16478046D01*
X5496954Y16388348D01*
X5496951Y16388343D01*
X5496950Y16388342D01*
X5477751Y16350663D01*
X5439352Y16275302D01*
X5439352Y16275301D01*
X5419508Y16150004D01*
X2156294Y16150004D01*
X2257685Y16273550D01*
X2355232Y16456046D01*
X2415300Y16654066D01*
X2435583Y16860000D01*
X2415300Y17065934D01*
X2355232Y17263954D01*
X2257685Y17446450D01*
X2205702Y17509791D01*
X2126410Y17606411D01*
X1966452Y17737683D01*
X1966453Y17737683D01*
X1966450Y17737685D01*
X1783954Y17835232D01*
X1585934Y17895300D01*
X1585932Y17895301D01*
X1585934Y17895301D01*
X1380000Y17915583D01*
X1174067Y17895301D01*
X976043Y17835231D01*
X865898Y17776357D01*
X793550Y17737685D01*
X793548Y17737684D01*
X793547Y17737683D01*
X703164Y17663508D01*
X638854Y17636196D01*
X569987Y17647987D01*
X518427Y17695140D01*
X500500Y17759362D01*
X500500Y18500639D01*
X520185Y18567678D01*
X572989Y18613433D01*
X642147Y18623377D01*
X703163Y18596493D01*
X793550Y18522315D01*
X976046Y18424768D01*
X1174066Y18364700D01*
X1174065Y18364700D01*
X1192529Y18362882D01*
X1380000Y18344417D01*
X1585934Y18364700D01*
X1783954Y18424768D01*
X1966450Y18522315D01*
X2126410Y18653590D01*
X2257685Y18813550D01*
X2355232Y18996046D01*
X2371600Y19050004D01*
X3594508Y19050004D01*
X3594508Y19049997D01*
X3614352Y18924700D01*
X3614352Y18924699D01*
X3614354Y18924696D01*
X3671950Y18811658D01*
X3671952Y18811656D01*
X3671954Y18811653D01*
X3761652Y18721955D01*
X3761654Y18721954D01*
X3761658Y18721950D01*
X3874696Y18664354D01*
X3874697Y18664354D01*
X3874699Y18664353D01*
X3999997Y18644508D01*
X4000000Y18644508D01*
X4000003Y18644508D01*
X4125300Y18664353D01*
X4125301Y18664353D01*
X4125302Y18664354D01*
X4125304Y18664354D01*
X4238342Y18721950D01*
X4328050Y18811658D01*
X4385646Y18924696D01*
X4385646Y18924698D01*
X4385647Y18924699D01*
X4385647Y18924700D01*
X4405492Y19049997D01*
X4405492Y19050004D01*
X4385647Y19175301D01*
X4385647Y19175302D01*
X4367125Y19211653D01*
X4328050Y19288342D01*
X4328046Y19288346D01*
X4328045Y19288348D01*
X4238347Y19378046D01*
X4238344Y19378048D01*
X4238342Y19378050D01*
X4125304Y19435646D01*
X4125303Y19435647D01*
X4125300Y19435648D01*
X4000003Y19455492D01*
X3999997Y19455492D01*
X3874699Y19435648D01*
X3874698Y19435648D01*
X3804737Y19400000D01*
X3761658Y19378050D01*
X3761657Y19378049D01*
X3761652Y19378046D01*
X3671954Y19288348D01*
X3671951Y19288343D01*
X3614352Y19175302D01*
X3614352Y19175301D01*
X3594508Y19050004D01*
X2371600Y19050004D01*
X2415300Y19194066D01*
X2435583Y19400000D01*
X2415300Y19605934D01*
X2355232Y19803954D01*
X2257685Y19986450D01*
X2162214Y20102783D01*
X2126410Y20146411D01*
X1966452Y20277683D01*
X1966453Y20277683D01*
X1966450Y20277685D01*
X1783954Y20375232D01*
X1585934Y20435300D01*
X1585932Y20435301D01*
X1585934Y20435301D01*
X1380000Y20455583D01*
X1174067Y20435301D01*
X976043Y20375231D01*
X905745Y20337655D01*
X793550Y20277685D01*
X793548Y20277684D01*
X793547Y20277683D01*
X703164Y20203508D01*
X638854Y20176196D01*
X569987Y20187987D01*
X518427Y20235140D01*
X500500Y20299362D01*
X500500Y21040639D01*
X520185Y21107678D01*
X572989Y21153433D01*
X642147Y21163377D01*
X703165Y21136492D01*
X791105Y21064321D01*
X793550Y21062315D01*
X976046Y20964768D01*
X1174066Y20904700D01*
X1174065Y20904700D01*
X1192529Y20902882D01*
X1380000Y20884417D01*
X1585934Y20904700D01*
X1783954Y20964768D01*
X1966450Y21062315D01*
X2126410Y21193590D01*
X2257685Y21353550D01*
X2355232Y21536046D01*
X2415300Y21734066D01*
X2435583Y21940000D01*
X2415300Y22145934D01*
X2393182Y22218848D01*
X3163352Y22218848D01*
X3163352Y22218841D01*
X3183196Y22093544D01*
X3183196Y22093543D01*
X3183198Y22093540D01*
X3240794Y21980502D01*
X3240796Y21980500D01*
X3240798Y21980497D01*
X3330496Y21890799D01*
X3330498Y21890798D01*
X3330502Y21890794D01*
X3443540Y21833198D01*
X3443541Y21833198D01*
X3443543Y21833197D01*
X3568841Y21813352D01*
X3568844Y21813352D01*
X3568847Y21813352D01*
X3694144Y21833197D01*
X3694145Y21833197D01*
X3694146Y21833198D01*
X3694148Y21833198D01*
X3807186Y21890794D01*
X3896894Y21980502D01*
X3954490Y22093540D01*
X3954490Y22093542D01*
X3954491Y22093543D01*
X3954491Y22093544D01*
X3974336Y22218841D01*
X3974336Y22218848D01*
X3954491Y22344144D01*
X3954490Y22344146D01*
X3954490Y22344148D01*
X3935542Y22381335D01*
X3922647Y22450001D01*
X3935542Y22493919D01*
X3985802Y22592559D01*
X3986981Y22600000D01*
X4005648Y22717860D01*
X4005648Y22717867D01*
X3985803Y22843164D01*
X3985801Y22843169D01*
X3984089Y22846530D01*
X3983239Y22851054D01*
X3982787Y22852446D01*
X3982967Y22852505D01*
X3971194Y22915199D01*
X3997472Y22979939D01*
X4006881Y22990490D01*
X4012580Y22996188D01*
X4070176Y23109226D01*
X4070176Y23109228D01*
X4070177Y23109229D01*
X4070177Y23109230D01*
X4090022Y23234527D01*
X4090022Y23234534D01*
X4070177Y23359831D01*
X4070177Y23359832D01*
X4064981Y23370029D01*
X4012580Y23472872D01*
X4012576Y23472876D01*
X4012575Y23472878D01*
X3922877Y23562576D01*
X3922874Y23562578D01*
X3922872Y23562580D01*
X3809834Y23620176D01*
X3809833Y23620177D01*
X3809830Y23620178D01*
X3684533Y23640022D01*
X3684527Y23640022D01*
X3559229Y23620178D01*
X3559228Y23620178D01*
X3483867Y23581779D01*
X3446188Y23562580D01*
X3446187Y23562579D01*
X3446182Y23562576D01*
X3356484Y23472878D01*
X3356481Y23472873D01*
X3356480Y23472872D01*
X3342126Y23444700D01*
X3298882Y23359832D01*
X3298882Y23359831D01*
X3279038Y23234534D01*
X3279038Y23234527D01*
X3298882Y23109230D01*
X3298883Y23109228D01*
X3300596Y23105866D01*
X3301445Y23101344D01*
X3301899Y23099947D01*
X3301718Y23099889D01*
X3313491Y23037196D01*
X3287213Y22972456D01*
X3277798Y22961899D01*
X3272108Y22956210D01*
X3272108Y22956208D01*
X3272106Y22956206D01*
X3272106Y22956205D01*
X3269135Y22950374D01*
X3214508Y22843165D01*
X3214508Y22843164D01*
X3194664Y22717867D01*
X3194664Y22717861D01*
X3214508Y22592563D01*
X3214509Y22592562D01*
X3214509Y22592561D01*
X3214510Y22592559D01*
X3233156Y22555964D01*
X3233457Y22555373D01*
X3246352Y22486703D01*
X3233456Y22442785D01*
X3183196Y22344146D01*
X3183196Y22344145D01*
X3163352Y22218848D01*
X2393182Y22218848D01*
X2355232Y22343954D01*
X2257685Y22526450D01*
X2197327Y22599997D01*
X2126410Y22686411D01*
X1966452Y22817683D01*
X1966453Y22817683D01*
X1966450Y22817685D01*
X1783954Y22915232D01*
X1585934Y22975300D01*
X1585932Y22975301D01*
X1585934Y22975301D01*
X1380000Y22995583D01*
X1174067Y22975301D01*
X976043Y22915231D01*
X889532Y22868989D01*
X793550Y22817685D01*
X793548Y22817684D01*
X793547Y22817683D01*
X703164Y22743508D01*
X638854Y22716196D01*
X569987Y22727987D01*
X518427Y22775140D01*
X500500Y22839362D01*
X500500Y23581284D01*
X520185Y23648323D01*
X572989Y23694078D01*
X642147Y23704022D01*
X703165Y23677137D01*
X793826Y23602733D01*
X793833Y23602729D01*
X976233Y23505234D01*
X1130000Y23458590D01*
X1130000Y24164314D01*
X1134394Y24159920D01*
X1225606Y24107259D01*
X1327339Y24080000D01*
X1432661Y24080000D01*
X1534394Y24107259D01*
X1625606Y24159920D01*
X1630000Y24164314D01*
X1630000Y23458590D01*
X1783766Y23505234D01*
X1966166Y23602729D01*
X1966173Y23602733D01*
X2126055Y23733945D01*
X2257267Y23893827D01*
X2257271Y23893834D01*
X2354766Y24076234D01*
X2401410Y24230000D01*
X1695686Y24230000D01*
X1700080Y24234394D01*
X1752741Y24325606D01*
X1780000Y24427339D01*
X1780000Y24532661D01*
X1752741Y24634394D01*
X1700080Y24725606D01*
X1695686Y24730000D01*
X2401410Y24730000D01*
X2399338Y24736831D01*
X3544508Y24736831D01*
X3544508Y24736824D01*
X3564352Y24611527D01*
X3564352Y24611526D01*
X3564354Y24611523D01*
X3621950Y24498485D01*
X3621952Y24498483D01*
X3621954Y24498480D01*
X3711652Y24408782D01*
X3711654Y24408781D01*
X3711658Y24408777D01*
X3824696Y24351181D01*
X3824697Y24351181D01*
X3824699Y24351180D01*
X3949997Y24331335D01*
X3950000Y24331335D01*
X3950003Y24331335D01*
X4075300Y24351180D01*
X4075301Y24351180D01*
X4075302Y24351181D01*
X4075304Y24351181D01*
X4188342Y24408777D01*
X4278050Y24498485D01*
X4314334Y24569697D01*
X4362304Y24620489D01*
X4430125Y24637285D01*
X4496260Y24614748D01*
X4512497Y24601080D01*
X4561652Y24551925D01*
X4561654Y24551924D01*
X4561658Y24551920D01*
X4674696Y24494324D01*
X4674697Y24494324D01*
X4674699Y24494323D01*
X4799997Y24474478D01*
X4800000Y24474478D01*
X4800003Y24474478D01*
X4925300Y24494323D01*
X4925301Y24494323D01*
X4925302Y24494324D01*
X4925304Y24494324D01*
X5038342Y24551920D01*
X5044743Y24558322D01*
X5106061Y24591806D01*
X5175753Y24586824D01*
X5188714Y24581128D01*
X5189160Y24580901D01*
X5189161Y24580901D01*
X5189163Y24580900D01*
X5314461Y24561055D01*
X5314464Y24561055D01*
X5314467Y24561055D01*
X5439764Y24580900D01*
X5439765Y24580900D01*
X5439766Y24580901D01*
X5439768Y24580901D01*
X5552806Y24638497D01*
X5566342Y24652033D01*
X5623667Y24709357D01*
X5684990Y24742842D01*
X5754682Y24737858D01*
X5799029Y24709357D01*
X6555141Y23953245D01*
X6588626Y23891922D01*
X6591460Y23865564D01*
X6591460Y20425336D01*
X6571775Y20358297D01*
X6518971Y20312542D01*
X6449813Y20302598D01*
X6386257Y20331623D01*
X6379779Y20337655D01*
X6324662Y20392772D01*
X6324659Y20392774D01*
X6324657Y20392776D01*
X6211619Y20450372D01*
X6211617Y20450373D01*
X6202924Y20454802D01*
X6204224Y20457354D01*
X6159305Y20488077D01*
X6132835Y20547164D01*
X6131415Y20556130D01*
X6131415Y20556132D01*
X6073819Y20669170D01*
X6073815Y20669174D01*
X6073814Y20669176D01*
X5984116Y20758874D01*
X5984113Y20758876D01*
X5984111Y20758878D01*
X5907286Y20798023D01*
X5871070Y20816476D01*
X5862099Y20817896D01*
X5798964Y20847825D01*
X5772003Y20889134D01*
X5769743Y20887982D01*
X5765313Y20896676D01*
X5765313Y20896678D01*
X5707717Y21009716D01*
X5707713Y21009720D01*
X5707712Y21009722D01*
X5618014Y21099420D01*
X5618011Y21099422D01*
X5618009Y21099424D01*
X5517891Y21150437D01*
X5504968Y21157022D01*
X5495687Y21160037D01*
X5496830Y21163555D01*
X5450285Y21185661D01*
X5415721Y21241257D01*
X5414775Y21240949D01*
X5413528Y21244785D01*
X5413396Y21244998D01*
X5413268Y21245586D01*
X5411759Y21250231D01*
X5411758Y21250233D01*
X5411758Y21250234D01*
X5354162Y21363272D01*
X5354158Y21363276D01*
X5354157Y21363278D01*
X5264459Y21452976D01*
X5264456Y21452978D01*
X5264454Y21452980D01*
X5187629Y21492125D01*
X5151413Y21510578D01*
X5142132Y21513593D01*
X5143275Y21517113D01*
X5096742Y21539205D01*
X5062162Y21594811D01*
X5061220Y21594504D01*
X5059980Y21598319D01*
X5059844Y21598538D01*
X5059713Y21599141D01*
X5058204Y21603786D01*
X5058203Y21603788D01*
X5058203Y21603789D01*
X5000607Y21716827D01*
X5000603Y21716831D01*
X5000602Y21716833D01*
X4910904Y21806531D01*
X4910901Y21806533D01*
X4910899Y21806535D01*
X4797861Y21864131D01*
X4797860Y21864132D01*
X4797857Y21864133D01*
X4672560Y21883977D01*
X4672554Y21883977D01*
X4547256Y21864133D01*
X4547255Y21864133D01*
X4486542Y21833197D01*
X4434215Y21806535D01*
X4434214Y21806534D01*
X4434209Y21806531D01*
X4344511Y21716833D01*
X4344508Y21716828D01*
X4286909Y21603787D01*
X4286909Y21603786D01*
X4267065Y21478489D01*
X4267065Y21478482D01*
X4286909Y21353185D01*
X4286909Y21353184D01*
X4286911Y21353181D01*
X4344507Y21240143D01*
X4344509Y21240141D01*
X4344511Y21240138D01*
X4434209Y21150440D01*
X4434211Y21150439D01*
X4434215Y21150435D01*
X4547253Y21092839D01*
X4547254Y21092839D01*
X4547256Y21092838D01*
X4556538Y21089822D01*
X4555387Y21086282D01*
X4601803Y21064321D01*
X4636546Y21008617D01*
X4637449Y21008910D01*
X4638629Y21005277D01*
X4638779Y21005037D01*
X4638925Y21004368D01*
X4640464Y20999629D01*
X4640466Y20999626D01*
X4698062Y20886588D01*
X4698064Y20886586D01*
X4698066Y20886583D01*
X4787764Y20796885D01*
X4787766Y20796884D01*
X4787770Y20796880D01*
X4900808Y20739284D01*
X4900809Y20739284D01*
X4900811Y20739283D01*
X4910093Y20736267D01*
X4908942Y20732727D01*
X4955358Y20710766D01*
X4990101Y20655061D01*
X4991004Y20655354D01*
X4992184Y20651723D01*
X4992334Y20651482D01*
X4992480Y20650810D01*
X4994019Y20646073D01*
X4994021Y20646070D01*
X5051617Y20533032D01*
X5051619Y20533030D01*
X5051621Y20533027D01*
X5141319Y20443329D01*
X5141321Y20443328D01*
X5141325Y20443324D01*
X5254363Y20385728D01*
X5263331Y20384308D01*
X5326467Y20354380D01*
X5353438Y20313071D01*
X5355693Y20314219D01*
X5360122Y20305526D01*
X5360123Y20305524D01*
X5417719Y20192486D01*
X5417721Y20192484D01*
X5417723Y20192481D01*
X5507421Y20102783D01*
X5507423Y20102782D01*
X5507427Y20102778D01*
X5620465Y20045182D01*
X5620467Y20045182D01*
X5629161Y20040752D01*
X5627858Y20038196D01*
X5672753Y20007509D01*
X5699247Y19948396D01*
X5700667Y19939425D01*
X5758266Y19826383D01*
X5762989Y19819882D01*
X5786467Y19754075D01*
X5773154Y19690704D01*
X5714352Y19575302D01*
X5714352Y19575301D01*
X5694508Y19450004D01*
X5694508Y19449997D01*
X5714352Y19324700D01*
X5714352Y19324699D01*
X5714354Y19324696D01*
X5771950Y19211658D01*
X5771952Y19211656D01*
X5771954Y19211653D01*
X5861652Y19121955D01*
X5861654Y19121954D01*
X5861658Y19121950D01*
X5974696Y19064354D01*
X5974706Y19064353D01*
X5983834Y19061386D01*
X6041510Y19021949D01*
X6067991Y18962852D01*
X6070880Y18944606D01*
X6081025Y18924696D01*
X6128478Y18831565D01*
X6128480Y18831563D01*
X6128482Y18831560D01*
X6218180Y18741862D01*
X6218182Y18741861D01*
X6218186Y18741857D01*
X6331224Y18684261D01*
X6448203Y18665734D01*
X6511335Y18635805D01*
X6539286Y18599558D01*
X6588910Y18502167D01*
X6588912Y18502165D01*
X6588914Y18502162D01*
X6678612Y18412464D01*
X6678614Y18412463D01*
X6678618Y18412459D01*
X6791656Y18354863D01*
X6791657Y18354863D01*
X6791659Y18354862D01*
X6916957Y18335017D01*
X6916960Y18335017D01*
X6916963Y18335017D01*
X7042260Y18354862D01*
X7042261Y18354862D01*
X7042262Y18354863D01*
X7042264Y18354863D01*
X7155302Y18412459D01*
X7245010Y18502167D01*
X7302606Y18615205D01*
X7302606Y18615207D01*
X7302607Y18615208D01*
X7302607Y18615209D01*
X7322452Y18740506D01*
X7322452Y18740513D01*
X7302607Y18865810D01*
X7302607Y18865811D01*
X7262460Y18944603D01*
X7255974Y18957333D01*
X7242460Y19013625D01*
X7242460Y23107335D01*
X9324469Y23107335D01*
X9324469Y23107328D01*
X9344313Y22982031D01*
X9344313Y22982030D01*
X9354571Y22961899D01*
X9401911Y22868989D01*
X9401913Y22868987D01*
X9401915Y22868984D01*
X9491613Y22779286D01*
X9491615Y22779285D01*
X9491619Y22779281D01*
X9604657Y22721685D01*
X9692555Y22707764D01*
X9755688Y22677836D01*
X9792619Y22618525D01*
X9795629Y22604689D01*
X9812135Y22500467D01*
X9830588Y22464251D01*
X9869733Y22387426D01*
X9869735Y22387424D01*
X9869737Y22387421D01*
X9959435Y22297723D01*
X9959437Y22297722D01*
X9959441Y22297718D01*
X10072479Y22240122D01*
X10072480Y22240122D01*
X10072482Y22240121D01*
X10197780Y22220276D01*
X10197783Y22220276D01*
X10197786Y22220276D01*
X10323083Y22240121D01*
X10323085Y22240122D01*
X10323087Y22240122D01*
X10392310Y22275394D01*
X10460978Y22288290D01*
X10504900Y22275394D01*
X10511656Y22271952D01*
X10511658Y22271950D01*
X10624696Y22214354D01*
X10624697Y22214354D01*
X10624699Y22214353D01*
X10749997Y22194508D01*
X10750000Y22194508D01*
X10750003Y22194508D01*
X10875300Y22214353D01*
X10875301Y22214353D01*
X10875302Y22214354D01*
X10875304Y22214354D01*
X10988342Y22271950D01*
X11078050Y22361658D01*
X11135646Y22474696D01*
X11135646Y22474698D01*
X11135647Y22474699D01*
X11135647Y22474700D01*
X11155492Y22599997D01*
X11155492Y22600004D01*
X11135647Y22725301D01*
X11135647Y22725302D01*
X11134279Y22727987D01*
X11078050Y22838342D01*
X11078046Y22838346D01*
X11078045Y22838348D01*
X10988347Y22928046D01*
X10988344Y22928048D01*
X10988342Y22928050D01*
X10875304Y22985646D01*
X10875303Y22985647D01*
X10875300Y22985648D01*
X10750003Y23005492D01*
X10749997Y23005492D01*
X10624699Y22985648D01*
X10624697Y22985647D01*
X10555469Y22950374D01*
X10486800Y22937479D01*
X10442881Y22950375D01*
X10436126Y22953817D01*
X10436125Y22953818D01*
X10323087Y23011414D01*
X10323086Y23011415D01*
X10323083Y23011416D01*
X10235190Y23025336D01*
X10172055Y23055265D01*
X10135123Y23114576D01*
X10132117Y23128393D01*
X10115607Y23232635D01*
X10058011Y23345673D01*
X10058007Y23345677D01*
X10058006Y23345679D01*
X9968308Y23435377D01*
X9968305Y23435379D01*
X9968303Y23435381D01*
X9855265Y23492977D01*
X9855264Y23492978D01*
X9855261Y23492979D01*
X9729964Y23512823D01*
X9729958Y23512823D01*
X9604660Y23492979D01*
X9604659Y23492979D01*
X9537169Y23458590D01*
X9491619Y23435381D01*
X9491618Y23435380D01*
X9491613Y23435377D01*
X9401915Y23345679D01*
X9401912Y23345674D01*
X9344313Y23232633D01*
X9344313Y23232632D01*
X9324469Y23107335D01*
X7242460Y23107335D01*
X7242460Y23775525D01*
X11870029Y23775525D01*
X11870029Y23775518D01*
X11889873Y23650221D01*
X11889873Y23650220D01*
X11905181Y23620178D01*
X11947471Y23537179D01*
X11947473Y23537177D01*
X11947475Y23537174D01*
X12037173Y23447476D01*
X12037175Y23447475D01*
X12037179Y23447471D01*
X12150217Y23389875D01*
X12150218Y23389875D01*
X12150220Y23389874D01*
X12275518Y23370029D01*
X12275521Y23370029D01*
X12275524Y23370029D01*
X12400821Y23389874D01*
X12400822Y23389874D01*
X12400823Y23389875D01*
X12400825Y23389875D01*
X12513863Y23447471D01*
X12603571Y23537179D01*
X12661167Y23650217D01*
X12661167Y23650219D01*
X12661168Y23650220D01*
X12661168Y23650221D01*
X12681013Y23775518D01*
X12681013Y23775525D01*
X12661168Y23900822D01*
X12661168Y23900823D01*
X12652963Y23916926D01*
X12603571Y24013863D01*
X12603567Y24013867D01*
X12603566Y24013869D01*
X12513868Y24103567D01*
X12513865Y24103569D01*
X12513863Y24103571D01*
X12400825Y24161167D01*
X12400824Y24161168D01*
X12400821Y24161169D01*
X12275524Y24181013D01*
X12275518Y24181013D01*
X12150220Y24161169D01*
X12150219Y24161169D01*
X12074858Y24122770D01*
X12037179Y24103571D01*
X12037178Y24103570D01*
X12037173Y24103567D01*
X11947475Y24013869D01*
X11947472Y24013864D01*
X11947471Y24013863D01*
X11928272Y23976184D01*
X11889873Y23900823D01*
X11889873Y23900822D01*
X11870029Y23775525D01*
X7242460Y23775525D01*
X7242460Y23998897D01*
X7242461Y23998910D01*
X7242461Y24094604D01*
X7242461Y24094605D01*
X7220278Y24177391D01*
X7198851Y24214502D01*
X7189903Y24230000D01*
X7177427Y24251611D01*
X7177426Y24251612D01*
X7177425Y24251614D01*
X7116822Y24312217D01*
X7116821Y24312218D01*
X7112491Y24316548D01*
X7112480Y24316558D01*
X7015349Y24413689D01*
X10630823Y24413689D01*
X10630823Y24413682D01*
X10650667Y24288385D01*
X10650667Y24288384D01*
X10650669Y24288381D01*
X10708265Y24175343D01*
X10708267Y24175341D01*
X10708269Y24175338D01*
X10797967Y24085640D01*
X10797969Y24085639D01*
X10797973Y24085635D01*
X10911011Y24028039D01*
X10911012Y24028039D01*
X10911014Y24028038D01*
X11036312Y24008193D01*
X11036315Y24008193D01*
X11036318Y24008193D01*
X11161615Y24028038D01*
X11161616Y24028038D01*
X11161617Y24028039D01*
X11161619Y24028039D01*
X11274657Y24085635D01*
X11364365Y24175343D01*
X11421961Y24288381D01*
X11421961Y24288383D01*
X11421962Y24288384D01*
X11421962Y24288385D01*
X11441807Y24413682D01*
X11441807Y24413689D01*
X11421962Y24538986D01*
X11421962Y24538987D01*
X11412112Y24558319D01*
X11364365Y24652027D01*
X11364361Y24652031D01*
X11364360Y24652033D01*
X11274662Y24741731D01*
X11274659Y24741733D01*
X11274657Y24741735D01*
X11161619Y24799331D01*
X11161618Y24799332D01*
X11161615Y24799333D01*
X11036318Y24819177D01*
X11036312Y24819177D01*
X10911014Y24799333D01*
X10911013Y24799333D01*
X10835652Y24760934D01*
X10797973Y24741735D01*
X10797972Y24741734D01*
X10797967Y24741731D01*
X10708269Y24652033D01*
X10708266Y24652028D01*
X10708265Y24652027D01*
X10692979Y24622027D01*
X10650667Y24538987D01*
X10650667Y24538986D01*
X10630823Y24413689D01*
X7015349Y24413689D01*
X6259355Y25169684D01*
X6225870Y25231007D01*
X6230854Y25300699D01*
X6259353Y25345045D01*
X6330214Y25415905D01*
X6387810Y25528943D01*
X6387810Y25528945D01*
X6387811Y25528946D01*
X6387811Y25528947D01*
X6407656Y25654244D01*
X6407656Y25654251D01*
X6387811Y25779548D01*
X6387811Y25779549D01*
X6378329Y25798158D01*
X6330214Y25892589D01*
X6330210Y25892593D01*
X6330209Y25892595D01*
X6240511Y25982293D01*
X6240508Y25982295D01*
X6240506Y25982297D01*
X6127468Y26039893D01*
X6127467Y26039894D01*
X6127464Y26039895D01*
X6002167Y26059739D01*
X6002161Y26059739D01*
X5876863Y26039895D01*
X5876862Y26039895D01*
X5801501Y26001496D01*
X5763822Y25982297D01*
X5763821Y25982296D01*
X5763816Y25982293D01*
X5674115Y25892592D01*
X5659066Y25863057D01*
X5611090Y25812262D01*
X5567980Y25796881D01*
X5450744Y25778314D01*
X5375383Y25739915D01*
X5337704Y25720716D01*
X5337703Y25720715D01*
X5337698Y25720712D01*
X5248000Y25631014D01*
X5247997Y25631009D01*
X5190398Y25517968D01*
X5190398Y25517967D01*
X5171830Y25400731D01*
X5141901Y25337596D01*
X5105655Y25309646D01*
X5076123Y25294598D01*
X5069717Y25288192D01*
X5008393Y25254710D01*
X4938701Y25259697D01*
X4925749Y25265390D01*
X4925306Y25265616D01*
X4925301Y25265618D01*
X4813963Y25283251D01*
X4750829Y25313180D01*
X4722877Y25349428D01*
X4703050Y25388342D01*
X4703049Y25388343D01*
X4703045Y25388348D01*
X4613347Y25478046D01*
X4613344Y25478048D01*
X4613342Y25478050D01*
X4500304Y25535646D01*
X4500303Y25535647D01*
X4500300Y25535648D01*
X4375003Y25555492D01*
X4374997Y25555492D01*
X4249699Y25535648D01*
X4249698Y25535648D01*
X4182510Y25501413D01*
X4136658Y25478050D01*
X4136657Y25478049D01*
X4136652Y25478046D01*
X4046954Y25388348D01*
X4046951Y25388343D01*
X4046950Y25388342D01*
X4042046Y25378717D01*
X3989352Y25275302D01*
X3982854Y25234272D01*
X3952924Y25171137D01*
X3893612Y25134207D01*
X3879779Y25131198D01*
X3824698Y25122475D01*
X3749337Y25084076D01*
X3711658Y25064877D01*
X3711657Y25064876D01*
X3711652Y25064873D01*
X3621954Y24975175D01*
X3621951Y24975170D01*
X3564352Y24862129D01*
X3564352Y24862128D01*
X3544508Y24736831D01*
X2399338Y24736831D01*
X2354766Y24883767D01*
X2257271Y25066167D01*
X2257267Y25066174D01*
X2126055Y25226056D01*
X1966173Y25357268D01*
X1966166Y25357272D01*
X1783763Y25454768D01*
X1630000Y25501413D01*
X1630000Y24795686D01*
X1625606Y24800080D01*
X1534394Y24852741D01*
X1432661Y24880000D01*
X1327339Y24880000D01*
X1225606Y24852741D01*
X1134394Y24800080D01*
X1130000Y24795686D01*
X1130000Y25501413D01*
X976236Y25454768D01*
X793833Y25357272D01*
X793827Y25357268D01*
X703164Y25282863D01*
X638854Y25255551D01*
X569987Y25267342D01*
X518427Y25314495D01*
X500500Y25378717D01*
X500500Y26120639D01*
X520185Y26187678D01*
X572989Y26233433D01*
X642147Y26243377D01*
X703165Y26216492D01*
X793045Y26142729D01*
X793550Y26142315D01*
X976046Y26044768D01*
X1174066Y25984700D01*
X1174065Y25984700D01*
X1192529Y25982882D01*
X1380000Y25964417D01*
X1585934Y25984700D01*
X1783954Y26044768D01*
X1966450Y26142315D01*
X2126410Y26273590D01*
X2189121Y26350004D01*
X7494508Y26350004D01*
X7494508Y26349997D01*
X7514352Y26224700D01*
X7514352Y26224699D01*
X7518534Y26216492D01*
X7571950Y26111658D01*
X7571952Y26111656D01*
X7571954Y26111653D01*
X7661652Y26021955D01*
X7661654Y26021954D01*
X7661658Y26021950D01*
X7774696Y25964354D01*
X7774697Y25964354D01*
X7774699Y25964353D01*
X7899997Y25944508D01*
X7900000Y25944508D01*
X7900003Y25944508D01*
X8025300Y25964353D01*
X8025301Y25964353D01*
X8025302Y25964354D01*
X8025304Y25964354D01*
X8138342Y26021950D01*
X8228050Y26111658D01*
X8285646Y26224696D01*
X8290647Y26256277D01*
X8320576Y26319410D01*
X8379887Y26356342D01*
X8393715Y26359352D01*
X8425304Y26364354D01*
X8538342Y26421950D01*
X8628050Y26511658D01*
X8685646Y26624696D01*
X8685646Y26624698D01*
X8685647Y26624699D01*
X8685647Y26624700D01*
X8705492Y26749997D01*
X8705492Y26750004D01*
X8685647Y26875301D01*
X8685647Y26875302D01*
X8685646Y26875304D01*
X8628050Y26988342D01*
X8628046Y26988346D01*
X8628045Y26988348D01*
X8538347Y27078046D01*
X8538344Y27078048D01*
X8538342Y27078050D01*
X8425304Y27135646D01*
X8425303Y27135647D01*
X8425300Y27135648D01*
X8300003Y27155492D01*
X8299997Y27155492D01*
X8174699Y27135648D01*
X8174698Y27135648D01*
X8099337Y27097249D01*
X8061658Y27078050D01*
X8061657Y27078049D01*
X8061652Y27078046D01*
X7971954Y26988348D01*
X7971951Y26988343D01*
X7971950Y26988342D01*
X7952751Y26950663D01*
X7914352Y26875302D01*
X7909351Y26843723D01*
X7879421Y26780588D01*
X7820109Y26743658D01*
X7806277Y26740649D01*
X7774698Y26735648D01*
X7704580Y26699920D01*
X7661658Y26678050D01*
X7661657Y26678049D01*
X7661652Y26678046D01*
X7571954Y26588348D01*
X7571951Y26588343D01*
X7514352Y26475302D01*
X7514352Y26475301D01*
X7494508Y26350004D01*
X2189121Y26350004D01*
X2257685Y26433550D01*
X2355232Y26616046D01*
X2415300Y26814066D01*
X2435583Y27020000D01*
X2415300Y27225934D01*
X2355232Y27423954D01*
X2261130Y27600004D01*
X3594508Y27600004D01*
X3594508Y27599997D01*
X3614352Y27474700D01*
X3614352Y27474699D01*
X3614354Y27474696D01*
X3671950Y27361658D01*
X3671952Y27361656D01*
X3671954Y27361653D01*
X3761652Y27271955D01*
X3761654Y27271954D01*
X3761658Y27271950D01*
X3874696Y27214354D01*
X3874697Y27214354D01*
X3874699Y27214353D01*
X3999997Y27194508D01*
X4000000Y27194508D01*
X4000003Y27194508D01*
X4125300Y27214353D01*
X4125301Y27214353D01*
X4125302Y27214354D01*
X4125304Y27214354D01*
X4238342Y27271950D01*
X4328050Y27361658D01*
X4385646Y27474696D01*
X4385646Y27474698D01*
X4385647Y27474699D01*
X4385647Y27474700D01*
X4405492Y27599997D01*
X4405492Y27600004D01*
X4385647Y27725301D01*
X4385647Y27725302D01*
X4385646Y27725304D01*
X4328050Y27838342D01*
X4328046Y27838346D01*
X4328045Y27838348D01*
X4238347Y27928046D01*
X4238344Y27928048D01*
X4238342Y27928050D01*
X4125304Y27985646D01*
X4125303Y27985647D01*
X4125300Y27985648D01*
X4000003Y28005492D01*
X3999997Y28005492D01*
X3874699Y27985648D01*
X3874698Y27985648D01*
X3799337Y27947249D01*
X3761658Y27928050D01*
X3761657Y27928049D01*
X3761652Y27928046D01*
X3671954Y27838348D01*
X3671951Y27838343D01*
X3614352Y27725302D01*
X3614352Y27725301D01*
X3594508Y27600004D01*
X2261130Y27600004D01*
X2257685Y27606450D01*
X2205702Y27669791D01*
X2126410Y27766411D01*
X1966452Y27897683D01*
X1966453Y27897683D01*
X1966450Y27897685D01*
X1783954Y27995232D01*
X1585934Y28055300D01*
X1585932Y28055301D01*
X1585934Y28055301D01*
X1380000Y28075583D01*
X1174067Y28055301D01*
X976043Y27995231D01*
X865898Y27936357D01*
X793550Y27897685D01*
X793548Y27897684D01*
X793547Y27897683D01*
X703164Y27823508D01*
X638854Y27796196D01*
X569987Y27807987D01*
X518427Y27855140D01*
X500500Y27919362D01*
X500500Y28660639D01*
X520185Y28727678D01*
X572989Y28773433D01*
X642147Y28783377D01*
X703163Y28756493D01*
X793550Y28682315D01*
X976046Y28584768D01*
X1174066Y28524700D01*
X1174065Y28524700D01*
X1192529Y28522882D01*
X1380000Y28504417D01*
X1585934Y28524700D01*
X1783954Y28584768D01*
X1966450Y28682315D01*
X2126410Y28813590D01*
X2257685Y28973550D01*
X2355232Y29156046D01*
X2415300Y29354066D01*
X2435583Y29560000D01*
X2415300Y29765934D01*
X2355232Y29963954D01*
X2302555Y30062504D01*
X4469508Y30062504D01*
X4469508Y30062497D01*
X4489352Y29937200D01*
X4489352Y29937199D01*
X4489354Y29937196D01*
X4546950Y29824158D01*
X4546952Y29824156D01*
X4546954Y29824153D01*
X4636652Y29734455D01*
X4636654Y29734454D01*
X4636658Y29734450D01*
X4749696Y29676854D01*
X4749697Y29676854D01*
X4749699Y29676853D01*
X4874997Y29657008D01*
X4875000Y29657008D01*
X4875003Y29657008D01*
X5000300Y29676853D01*
X5000301Y29676853D01*
X5000302Y29676854D01*
X5000304Y29676854D01*
X5113342Y29734450D01*
X5203050Y29824158D01*
X5260646Y29937196D01*
X5260646Y29937198D01*
X5260647Y29937199D01*
X5260647Y29937200D01*
X5280492Y30062497D01*
X5280492Y30062504D01*
X5260647Y30187801D01*
X5260647Y30187802D01*
X5260646Y30187804D01*
X5203050Y30300842D01*
X5203046Y30300846D01*
X5203045Y30300848D01*
X5113347Y30390546D01*
X5113344Y30390548D01*
X5113342Y30390550D01*
X5000304Y30448146D01*
X5000303Y30448147D01*
X5000300Y30448148D01*
X4875003Y30467992D01*
X4874997Y30467992D01*
X4749699Y30448148D01*
X4749698Y30448148D01*
X4674337Y30409749D01*
X4636658Y30390550D01*
X4636657Y30390549D01*
X4636652Y30390546D01*
X4546954Y30300848D01*
X4546951Y30300843D01*
X4489352Y30187802D01*
X4489352Y30187801D01*
X4469508Y30062504D01*
X2302555Y30062504D01*
X2257685Y30146450D01*
X2130975Y30300848D01*
X2126410Y30306411D01*
X1966452Y30437683D01*
X1966453Y30437683D01*
X1966450Y30437685D01*
X1783954Y30535232D01*
X1585934Y30595300D01*
X1585932Y30595301D01*
X1585934Y30595301D01*
X1380000Y30615583D01*
X1174067Y30595301D01*
X976043Y30535231D01*
X865898Y30476357D01*
X793550Y30437685D01*
X793548Y30437684D01*
X793547Y30437683D01*
X703164Y30363508D01*
X638854Y30336196D01*
X569987Y30347987D01*
X518427Y30395140D01*
X500500Y30459362D01*
X500500Y31200639D01*
X520185Y31267678D01*
X572989Y31313433D01*
X642147Y31323377D01*
X703163Y31296493D01*
X793550Y31222315D01*
X976046Y31124768D01*
X1174066Y31064700D01*
X1174065Y31064700D01*
X1192529Y31062882D01*
X1380000Y31044417D01*
X1585934Y31064700D01*
X1783954Y31124768D01*
X1966450Y31222315D01*
X2126410Y31353590D01*
X2257685Y31513550D01*
X2355232Y31696046D01*
X2415300Y31894066D01*
X2435583Y32100000D01*
X2415300Y32305934D01*
X2355232Y32503954D01*
X2257685Y32686450D01*
X2205702Y32749791D01*
X2126410Y32846411D01*
X1966452Y32977683D01*
X1966453Y32977683D01*
X1966450Y32977685D01*
X1783954Y33075232D01*
X1585934Y33135300D01*
X1585932Y33135301D01*
X1585934Y33135301D01*
X1380000Y33155583D01*
X1174067Y33135301D01*
X976043Y33075231D01*
X865898Y33016357D01*
X793550Y32977685D01*
X793548Y32977684D01*
X793547Y32977683D01*
X703164Y32903508D01*
X638854Y32876196D01*
X569987Y32887987D01*
X518427Y32935140D01*
X500500Y32999362D01*
X500500Y33740639D01*
X520185Y33807678D01*
X572989Y33853433D01*
X642147Y33863377D01*
X703163Y33836493D01*
X793550Y33762315D01*
X976046Y33664768D01*
X1174066Y33604700D01*
X1174065Y33604700D01*
X1192529Y33602882D01*
X1380000Y33584417D01*
X1585934Y33604700D01*
X1783954Y33664768D01*
X1966450Y33762315D01*
X2126410Y33893590D01*
X2257685Y34053550D01*
X2355232Y34236046D01*
X2359466Y34250004D01*
X8094508Y34250004D01*
X8094508Y34249997D01*
X8114352Y34124700D01*
X8114352Y34124699D01*
X8114354Y34124696D01*
X8171950Y34011658D01*
X8171952Y34011656D01*
X8171954Y34011653D01*
X8261652Y33921955D01*
X8261654Y33921954D01*
X8261658Y33921950D01*
X8374696Y33864354D01*
X8492607Y33845679D01*
X8555738Y33815752D01*
X8592669Y33756441D01*
X8595679Y33742604D01*
X8614352Y33624700D01*
X8614352Y33624699D01*
X8632805Y33588483D01*
X8671950Y33511658D01*
X8671952Y33511656D01*
X8671954Y33511653D01*
X8761652Y33421955D01*
X8761654Y33421954D01*
X8761658Y33421950D01*
X8874696Y33364354D01*
X8874697Y33364354D01*
X8874699Y33364353D01*
X8999997Y33344508D01*
X9000000Y33344508D01*
X9000003Y33344508D01*
X9125300Y33364353D01*
X9125301Y33364353D01*
X9125302Y33364354D01*
X9125304Y33364354D01*
X9238342Y33421950D01*
X9328050Y33511658D01*
X9385646Y33624696D01*
X9385646Y33624698D01*
X9385647Y33624699D01*
X9385647Y33624700D01*
X9405492Y33749997D01*
X9405492Y33750004D01*
X9385647Y33875301D01*
X9385646Y33875304D01*
X9376329Y33893590D01*
X9350793Y33943705D01*
X9337897Y34012374D01*
X9350794Y34056296D01*
X9351125Y34056946D01*
X9385646Y34124696D01*
X9385646Y34124698D01*
X9385647Y34124700D01*
X9405492Y34249997D01*
X9405492Y34250004D01*
X9385647Y34375301D01*
X9385647Y34375302D01*
X9385646Y34375304D01*
X9328050Y34488342D01*
X9328046Y34488346D01*
X9328045Y34488348D01*
X9238347Y34578046D01*
X9238344Y34578048D01*
X9238342Y34578050D01*
X9125304Y34635646D01*
X9125303Y34635647D01*
X9125300Y34635648D01*
X9000003Y34655492D01*
X8999997Y34655492D01*
X8874699Y34635648D01*
X8874695Y34635647D01*
X8806294Y34600794D01*
X8737625Y34587898D01*
X8693706Y34600794D01*
X8625304Y34635647D01*
X8625300Y34635648D01*
X8500003Y34655492D01*
X8499997Y34655492D01*
X8374699Y34635648D01*
X8374698Y34635648D01*
X8306295Y34600794D01*
X8261658Y34578050D01*
X8261657Y34578049D01*
X8261652Y34578046D01*
X8171954Y34488348D01*
X8171951Y34488343D01*
X8114352Y34375302D01*
X8114352Y34375301D01*
X8094508Y34250004D01*
X2359466Y34250004D01*
X2415300Y34434066D01*
X2435583Y34640000D01*
X2415300Y34845934D01*
X2355232Y35043954D01*
X2257685Y35226450D01*
X2238355Y35250004D01*
X4594508Y35250004D01*
X4594508Y35249997D01*
X4614352Y35124700D01*
X4614352Y35124699D01*
X4614354Y35124696D01*
X4671950Y35011658D01*
X4671952Y35011656D01*
X4671954Y35011653D01*
X4761652Y34921955D01*
X4761654Y34921954D01*
X4761658Y34921950D01*
X4874696Y34864354D01*
X4874697Y34864354D01*
X4874699Y34864353D01*
X4999997Y34844508D01*
X5000000Y34844508D01*
X5000003Y34844508D01*
X5125300Y34864353D01*
X5125301Y34864353D01*
X5125302Y34864354D01*
X5125304Y34864354D01*
X5238342Y34921950D01*
X5328050Y35011658D01*
X5385646Y35124696D01*
X5385646Y35124698D01*
X5385647Y35124699D01*
X5385647Y35124700D01*
X5405492Y35249997D01*
X5405492Y35250004D01*
X5385647Y35375301D01*
X5385647Y35375302D01*
X5364592Y35416624D01*
X5328050Y35488342D01*
X5328046Y35488346D01*
X5328045Y35488348D01*
X5238347Y35578046D01*
X5238344Y35578048D01*
X5238342Y35578050D01*
X5125304Y35635646D01*
X5125303Y35635647D01*
X5125300Y35635648D01*
X5000003Y35655492D01*
X4999997Y35655492D01*
X4874699Y35635648D01*
X4874698Y35635648D01*
X4834631Y35615232D01*
X4761658Y35578050D01*
X4761657Y35578049D01*
X4761652Y35578046D01*
X4671954Y35488348D01*
X4671951Y35488343D01*
X4671950Y35488342D01*
X4663788Y35472323D01*
X4614352Y35375302D01*
X4614352Y35375301D01*
X4594508Y35250004D01*
X2238355Y35250004D01*
X2192159Y35306294D01*
X2126410Y35386411D01*
X2002205Y35488342D01*
X1966450Y35517685D01*
X1783954Y35615232D01*
X1585934Y35675300D01*
X1585932Y35675301D01*
X1585934Y35675301D01*
X1380000Y35695583D01*
X1174067Y35675301D01*
X976043Y35615231D01*
X906484Y35578050D01*
X793550Y35517685D01*
X793548Y35517684D01*
X793547Y35517683D01*
X703164Y35443508D01*
X638854Y35416196D01*
X569987Y35427987D01*
X518427Y35475140D01*
X500500Y35539362D01*
X500500Y36280639D01*
X520185Y36347678D01*
X572989Y36393433D01*
X642147Y36403377D01*
X703163Y36376493D01*
X793550Y36302315D01*
X976046Y36204768D01*
X1174066Y36144700D01*
X1174065Y36144700D01*
X1192529Y36142882D01*
X1380000Y36124417D01*
X1585934Y36144700D01*
X1783954Y36204768D01*
X1966450Y36302315D01*
X2126410Y36433590D01*
X2257685Y36593550D01*
X2355232Y36776046D01*
X2415300Y36974066D01*
X2435583Y37180000D01*
X2428688Y37250004D01*
X8594508Y37250004D01*
X8594508Y37249997D01*
X8614352Y37124700D01*
X8614353Y37124696D01*
X8649206Y37056294D01*
X8662102Y36987625D01*
X8649206Y36943706D01*
X8614353Y36875305D01*
X8614352Y36875301D01*
X8594508Y36750004D01*
X8594508Y36749997D01*
X8614352Y36624700D01*
X8614353Y36624696D01*
X8649206Y36556294D01*
X8662102Y36487625D01*
X8649206Y36443706D01*
X8614353Y36375305D01*
X8614352Y36375301D01*
X8594508Y36250004D01*
X8594508Y36249997D01*
X8614352Y36124700D01*
X8614352Y36124699D01*
X8614496Y36124417D01*
X8671950Y36011658D01*
X8671952Y36011656D01*
X8671954Y36011653D01*
X8761652Y35921955D01*
X8761654Y35921954D01*
X8761658Y35921950D01*
X8874696Y35864354D01*
X8874697Y35864354D01*
X8874699Y35864353D01*
X8999997Y35844508D01*
X9000000Y35844508D01*
X9000003Y35844508D01*
X9125300Y35864353D01*
X9125301Y35864353D01*
X9125302Y35864354D01*
X9125304Y35864354D01*
X9238342Y35921950D01*
X9328050Y36011658D01*
X9385646Y36124696D01*
X9385646Y36124698D01*
X9385647Y36124699D01*
X9385647Y36124700D01*
X9405492Y36249997D01*
X9405492Y36250004D01*
X9385647Y36375301D01*
X9385646Y36375304D01*
X9370264Y36405492D01*
X9350793Y36443705D01*
X9337897Y36512374D01*
X9350794Y36556296D01*
X9385646Y36624696D01*
X9385647Y36624700D01*
X9405492Y36749997D01*
X9405492Y36750004D01*
X9385647Y36875301D01*
X9385646Y36875304D01*
X9385645Y36875305D01*
X9350793Y36943705D01*
X9337897Y37012374D01*
X9350794Y37056296D01*
X9385646Y37124696D01*
X9385646Y37124698D01*
X9385647Y37124700D01*
X9405492Y37249997D01*
X9405492Y37250004D01*
X9385647Y37375301D01*
X9385647Y37375302D01*
X9380230Y37385934D01*
X9328050Y37488342D01*
X9328046Y37488346D01*
X9328045Y37488348D01*
X9238347Y37578046D01*
X9238344Y37578048D01*
X9238342Y37578050D01*
X9125304Y37635646D01*
X9125303Y37635647D01*
X9125300Y37635648D01*
X9000003Y37655492D01*
X8999997Y37655492D01*
X8874699Y37635648D01*
X8874698Y37635648D01*
X8799337Y37597249D01*
X8761658Y37578050D01*
X8761657Y37578049D01*
X8761652Y37578046D01*
X8671954Y37488348D01*
X8671951Y37488343D01*
X8614352Y37375302D01*
X8614352Y37375301D01*
X8594508Y37250004D01*
X2428688Y37250004D01*
X2415300Y37385934D01*
X2355232Y37583954D01*
X2266476Y37750004D01*
X12344508Y37750004D01*
X12344508Y37749997D01*
X12364352Y37624700D01*
X12364352Y37624699D01*
X12364354Y37624696D01*
X12421950Y37511658D01*
X12421952Y37511656D01*
X12421954Y37511653D01*
X12470926Y37462681D01*
X12504411Y37401358D01*
X12499427Y37331666D01*
X12470926Y37287319D01*
X12421954Y37238348D01*
X12421951Y37238343D01*
X12364352Y37125302D01*
X12364352Y37125301D01*
X12344508Y37000004D01*
X12344508Y36999997D01*
X12364352Y36874700D01*
X12364352Y36874699D01*
X12369624Y36864353D01*
X12421950Y36761658D01*
X12421952Y36761656D01*
X12421954Y36761653D01*
X12511652Y36671955D01*
X12511655Y36671953D01*
X12511658Y36671950D01*
X12564845Y36644850D01*
X12632290Y36610484D01*
X12683085Y36562510D01*
X12699880Y36494689D01*
X12677342Y36428554D01*
X12632290Y36389516D01*
X12511659Y36328051D01*
X12511652Y36328046D01*
X12421954Y36238348D01*
X12421951Y36238343D01*
X12364352Y36125302D01*
X12364352Y36125301D01*
X12344508Y36000004D01*
X12344508Y35999997D01*
X12364352Y35874700D01*
X12364353Y35874696D01*
X12399206Y35806294D01*
X12412102Y35737625D01*
X12399206Y35693706D01*
X12364353Y35625305D01*
X12364352Y35625301D01*
X12344508Y35500004D01*
X12344508Y35499997D01*
X12364352Y35374700D01*
X12364353Y35374696D01*
X12399206Y35306294D01*
X12412102Y35237625D01*
X12399206Y35193706D01*
X12364353Y35125305D01*
X12364352Y35125301D01*
X12344508Y35000004D01*
X12344508Y34999997D01*
X12364352Y34874700D01*
X12364352Y34874699D01*
X12379736Y34844508D01*
X12421950Y34761658D01*
X12421952Y34761656D01*
X12421954Y34761653D01*
X12511652Y34671955D01*
X12511654Y34671954D01*
X12511658Y34671950D01*
X12624696Y34614354D01*
X12624697Y34614354D01*
X12624699Y34614353D01*
X12749997Y34594508D01*
X12750000Y34594508D01*
X12750003Y34594508D01*
X12875300Y34614353D01*
X12875301Y34614353D01*
X12875302Y34614354D01*
X12875304Y34614354D01*
X12988342Y34671950D01*
X13078050Y34761658D01*
X13135646Y34874696D01*
X13135646Y34874698D01*
X13135647Y34874699D01*
X13135647Y34874700D01*
X13155492Y34999997D01*
X13155492Y35000004D01*
X13135647Y35125301D01*
X13135646Y35125304D01*
X13100794Y35193704D01*
X13087897Y35262374D01*
X13100794Y35306296D01*
X13135646Y35374696D01*
X13135742Y35375302D01*
X13155492Y35499997D01*
X13155492Y35500004D01*
X13135647Y35625301D01*
X13135646Y35625304D01*
X13120264Y35655492D01*
X13100793Y35693705D01*
X13087897Y35762374D01*
X13100794Y35806296D01*
X13120264Y35844508D01*
X13135646Y35874696D01*
X13135647Y35874700D01*
X13155492Y35999997D01*
X13155492Y36000004D01*
X13135647Y36125301D01*
X13135647Y36125302D01*
X13125763Y36144700D01*
X13078050Y36238342D01*
X13078046Y36238346D01*
X13078045Y36238348D01*
X12988347Y36328046D01*
X12988344Y36328048D01*
X12988342Y36328050D01*
X12875304Y36385646D01*
X12875302Y36385647D01*
X12867710Y36389515D01*
X12816914Y36437490D01*
X12800119Y36505311D01*
X12822657Y36571446D01*
X12867710Y36610485D01*
X12875302Y36614354D01*
X12875304Y36614354D01*
X12988342Y36671950D01*
X13078050Y36761658D01*
X13135646Y36874696D01*
X13135646Y36874698D01*
X13135647Y36874699D01*
X13135647Y36874700D01*
X13155492Y36999997D01*
X13155492Y37000004D01*
X13135647Y37125301D01*
X13135647Y37125302D01*
X13135646Y37125304D01*
X13078050Y37238342D01*
X13078046Y37238346D01*
X13078045Y37238348D01*
X13066389Y37250004D01*
X14194508Y37250004D01*
X14194508Y37249997D01*
X14214352Y37124700D01*
X14214352Y37124699D01*
X14214354Y37124696D01*
X14271950Y37011658D01*
X14271952Y37011656D01*
X14271954Y37011653D01*
X14361652Y36921955D01*
X14361654Y36921954D01*
X14361658Y36921950D01*
X14474696Y36864354D01*
X14474697Y36864354D01*
X14474699Y36864353D01*
X14599997Y36844508D01*
X14600000Y36844508D01*
X14600003Y36844508D01*
X14725300Y36864353D01*
X14725301Y36864353D01*
X14725302Y36864354D01*
X14725304Y36864354D01*
X14838342Y36921950D01*
X14928050Y37011658D01*
X14985646Y37124696D01*
X14985646Y37124698D01*
X14985647Y37124699D01*
X14985647Y37124700D01*
X15005492Y37249997D01*
X15005492Y37250004D01*
X14985647Y37375301D01*
X14985647Y37375302D01*
X14980230Y37385934D01*
X14928050Y37488342D01*
X14928046Y37488346D01*
X14928045Y37488348D01*
X14838347Y37578046D01*
X14838344Y37578048D01*
X14838342Y37578050D01*
X14725304Y37635646D01*
X14725303Y37635647D01*
X14725300Y37635648D01*
X14600003Y37655492D01*
X14599997Y37655492D01*
X14474699Y37635648D01*
X14474698Y37635648D01*
X14399337Y37597249D01*
X14361658Y37578050D01*
X14361657Y37578049D01*
X14361652Y37578046D01*
X14271954Y37488348D01*
X14271951Y37488343D01*
X14214352Y37375302D01*
X14214352Y37375301D01*
X14194508Y37250004D01*
X13066389Y37250004D01*
X13029074Y37287319D01*
X12995589Y37348642D01*
X13000573Y37418334D01*
X13029074Y37462681D01*
X13078045Y37511653D01*
X13078050Y37511658D01*
X13135646Y37624696D01*
X13135646Y37624698D01*
X13135647Y37624699D01*
X13135647Y37624700D01*
X13155492Y37749997D01*
X13155492Y37750004D01*
X13135647Y37875301D01*
X13135647Y37875302D01*
X13135646Y37875304D01*
X13078050Y37988342D01*
X13078046Y37988346D01*
X13078045Y37988348D01*
X12988347Y38078046D01*
X12988344Y38078048D01*
X12988342Y38078050D01*
X12875304Y38135646D01*
X12875303Y38135647D01*
X12875300Y38135648D01*
X12750003Y38155492D01*
X12749997Y38155492D01*
X12624699Y38135648D01*
X12624698Y38135648D01*
X12549337Y38097249D01*
X12511658Y38078050D01*
X12511657Y38078049D01*
X12511652Y38078046D01*
X12421954Y37988348D01*
X12421951Y37988343D01*
X12364352Y37875302D01*
X12364352Y37875301D01*
X12344508Y37750004D01*
X2266476Y37750004D01*
X2257685Y37766450D01*
X2168353Y37875302D01*
X2126410Y37926411D01*
X1966452Y38057683D01*
X1966453Y38057683D01*
X1966450Y38057685D01*
X1783954Y38155232D01*
X1585934Y38215300D01*
X1585932Y38215301D01*
X1585934Y38215301D01*
X1380000Y38235583D01*
X1174067Y38215301D01*
X976043Y38155231D01*
X939403Y38135646D01*
X793550Y38057685D01*
X793548Y38057684D01*
X793547Y38057683D01*
X703164Y37983508D01*
X638854Y37956196D01*
X569987Y37967987D01*
X518427Y38015140D01*
X500500Y38079362D01*
X500500Y38820639D01*
X520185Y38887678D01*
X572989Y38933433D01*
X642147Y38943377D01*
X703163Y38916493D01*
X793550Y38842315D01*
X976046Y38744768D01*
X1174066Y38684700D01*
X1174065Y38684700D01*
X1192529Y38682882D01*
X1380000Y38664417D01*
X1585934Y38684700D01*
X1783954Y38744768D01*
X1966450Y38842315D01*
X2126410Y38973590D01*
X2257685Y39133550D01*
X2355232Y39316046D01*
X2415300Y39514066D01*
X2421302Y39575004D01*
X4469508Y39575004D01*
X4469508Y39574997D01*
X4489352Y39449700D01*
X4489352Y39449699D01*
X4489354Y39449696D01*
X4546950Y39336658D01*
X4546952Y39336656D01*
X4546954Y39336653D01*
X4636652Y39246955D01*
X4636654Y39246954D01*
X4636658Y39246950D01*
X4749696Y39189354D01*
X4749697Y39189354D01*
X4749699Y39189353D01*
X4874997Y39169508D01*
X4875000Y39169508D01*
X4875003Y39169508D01*
X5000300Y39189353D01*
X5000301Y39189353D01*
X5000302Y39189354D01*
X5000304Y39189354D01*
X5113342Y39246950D01*
X5203050Y39336658D01*
X5260646Y39449696D01*
X5260646Y39449698D01*
X5260647Y39449699D01*
X5260647Y39449700D01*
X5280492Y39574997D01*
X5280492Y39575004D01*
X5260647Y39700301D01*
X5260647Y39700302D01*
X5250610Y39720000D01*
X5203050Y39813342D01*
X5203046Y39813346D01*
X5203045Y39813348D01*
X5113347Y39903046D01*
X5113344Y39903048D01*
X5113342Y39903050D01*
X5000304Y39960646D01*
X5000303Y39960647D01*
X5000300Y39960648D01*
X4875003Y39980492D01*
X4874997Y39980492D01*
X4749699Y39960648D01*
X4749698Y39960648D01*
X4681570Y39925934D01*
X4636658Y39903050D01*
X4636657Y39903049D01*
X4636652Y39903046D01*
X4546954Y39813348D01*
X4546951Y39813343D01*
X4489352Y39700302D01*
X4489352Y39700301D01*
X4469508Y39575004D01*
X2421302Y39575004D01*
X2435583Y39720000D01*
X2415300Y39925934D01*
X2355232Y40123954D01*
X2257685Y40306450D01*
X2205702Y40369791D01*
X2126410Y40466411D01*
X1966452Y40597683D01*
X1966453Y40597683D01*
X1966450Y40597685D01*
X1783954Y40695232D01*
X1585934Y40755300D01*
X1585932Y40755301D01*
X1585934Y40755301D01*
X1380000Y40775583D01*
X1174067Y40755301D01*
X976043Y40695231D01*
X865898Y40636357D01*
X793550Y40597685D01*
X793548Y40597684D01*
X793547Y40597683D01*
X703164Y40523508D01*
X638854Y40496196D01*
X569987Y40507987D01*
X518427Y40555140D01*
X500500Y40619362D01*
X500500Y41360639D01*
X520185Y41427678D01*
X572989Y41473433D01*
X642147Y41483377D01*
X703163Y41456493D01*
X793550Y41382315D01*
X976046Y41284768D01*
X1174066Y41224700D01*
X1174065Y41224700D01*
X1192529Y41222882D01*
X1380000Y41204417D01*
X1585934Y41224700D01*
X1783954Y41284768D01*
X1966450Y41382315D01*
X2126410Y41513590D01*
X2257685Y41673550D01*
X2355232Y41856046D01*
X2415300Y42054066D01*
X2435583Y42260000D01*
X2415300Y42465934D01*
X2355232Y42663954D01*
X2257685Y42846450D01*
X2205702Y42909791D01*
X2126410Y43006411D01*
X1966452Y43137683D01*
X1966453Y43137683D01*
X1966450Y43137685D01*
X1783954Y43235232D01*
X1585934Y43295300D01*
X1585932Y43295301D01*
X1585934Y43295301D01*
X1380000Y43315583D01*
X1174067Y43295301D01*
X976043Y43235231D01*
X865898Y43176357D01*
X793550Y43137685D01*
X793548Y43137684D01*
X793547Y43137683D01*
X703164Y43063508D01*
X638854Y43036196D01*
X569987Y43047987D01*
X518427Y43095140D01*
X500500Y43159362D01*
X500500Y43900639D01*
X520185Y43967678D01*
X572989Y44013433D01*
X642147Y44023377D01*
X703163Y43996493D01*
X793550Y43922315D01*
X976046Y43824768D01*
X1174066Y43764700D01*
X1174065Y43764700D01*
X1192529Y43762882D01*
X1380000Y43744417D01*
X1585934Y43764700D01*
X1783954Y43824768D01*
X1966450Y43922315D01*
X2126410Y44053590D01*
X2257685Y44213550D01*
X2355232Y44396046D01*
X2415300Y44594066D01*
X2435583Y44800000D01*
X2415300Y45005934D01*
X2355232Y45203954D01*
X2257685Y45386450D01*
X2205702Y45449791D01*
X2126410Y45546411D01*
X1966452Y45677683D01*
X1966453Y45677683D01*
X1966450Y45677685D01*
X1800025Y45766642D01*
X1750181Y45815605D01*
X1734721Y45883743D01*
X1758553Y45949422D01*
X1814111Y45991791D01*
X1858479Y46000000D01*
X16141521Y46000000D01*
X16208560Y45980315D01*
G37*
%TD.AperFunction*%
%TD*%
M02*
