M48
; DRILL file {KiCad 8.0.6} date 2024-11-24T01:02:17-0600
; FORMAT={-:-/ absolute / metric / decimal}
; #@! TF.CreationDate,2024-11-24T01:02:17-06:00
; #@! TF.GenerationSoftware,Kicad,Pcbnew,8.0.6
; #@! TF.FileFunction,Plated,1,4,PTH
FMAT,2
METRIC
; #@! TA.AperFunction,Plated,PTH,ViaDrill
T1C0.200
; #@! TA.AperFunction,Plated,PTH,ComponentDrill
T2C0.600
; #@! TA.AperFunction,Plated,PTH,ComponentDrill
T3C0.800
%
G90
G05
T1
X3.225Y6.649
X3.4Y17.55
X3.569Y22.219
X3.6Y22.718
X3.685Y23.235
X3.75Y45.75
X3.75Y45.25
X3.75Y42.75
X3.75Y42.25
X3.95Y24.737
X4.0Y44.75
X4.0Y44.25
X4.0Y43.75
X4.0Y43.25
X4.0Y27.6
X4.0Y26.85
X4.0Y19.05
X4.25Y41.75
X4.375Y25.15
X4.5Y44.75
X4.5Y44.25
X4.5Y43.75
X4.5Y43.25
X4.55Y10.55
X4.673Y21.478
X4.75Y41.75
X4.8Y24.88
X4.875Y39.575
X4.875Y30.062
X5.0Y35.25
X5.0Y34.25
X5.026Y21.125
X5.105Y9.182
X5.25Y41.75
X5.314Y24.967
X5.35Y9.8
X5.38Y20.771
X5.576Y25.393
X5.746Y20.431
X5.825Y16.15
X6.0Y40.75
X6.0Y40.25
X6.0Y39.75
X6.0Y39.25
X6.0Y38.75
X6.0Y38.25
X6.0Y37.75
X6.0Y35.75
X6.0Y35.25
X6.0Y34.75
X6.0Y34.25
X6.0Y33.75
X6.0Y32.0
X6.0Y31.5
X6.0Y31.0
X6.0Y30.5
X6.0Y11.35
X6.0Y10.5
X6.0Y10.0
X6.0Y9.5
X6.002Y25.654
X6.086Y20.065
X6.1Y19.45
X6.25Y45.75
X6.25Y45.25
X6.25Y44.75
X6.25Y44.25
X6.25Y43.75
X6.25Y43.25
X6.25Y42.75
X6.275Y15.682
X6.457Y19.07
X6.5Y11.85
X6.6Y42.35
X6.74Y8.74
X6.917Y18.741
X7.0Y41.95
X7.5Y41.5
X7.5Y41.0
X7.5Y40.5
X7.5Y40.0
X7.5Y39.5
X7.5Y39.0
X7.5Y38.5
X7.5Y38.0
X7.5Y37.5
X7.5Y37.0
X7.5Y36.5
X7.5Y36.0
X7.5Y35.5
X7.5Y35.0
X7.5Y34.5
X7.5Y34.0
X7.5Y33.5
X7.5Y33.0
X7.5Y32.5
X7.5Y32.0
X7.5Y31.5
X7.5Y31.0
X7.5Y30.5
X7.5Y30.0
X7.5Y29.5
X7.5Y29.0
X7.5Y28.5
X7.5Y28.0
X7.5Y27.5
X7.5Y14.25
X7.9Y26.35
X8.26Y8.508
X8.3Y26.75
X8.5Y34.25
X8.75Y18.25
X8.75Y5.6
X8.799Y28.451
X9.0Y45.25
X9.0Y44.75
X9.0Y44.25
X9.0Y43.75
X9.0Y43.25
X9.0Y42.75
X9.0Y42.25
X9.0Y41.75
X9.0Y37.25
X9.0Y36.75
X9.0Y36.25
X9.0Y34.25
X9.0Y33.75
X9.1Y14.95
X9.25Y18.75
X9.5Y45.25
X9.73Y23.107
X9.75Y19.25
X9.75Y5.6
X10.0Y45.25
X10.198Y22.626
X10.25Y19.75
X10.619Y5.477
X10.75Y22.6
X10.75Y20.25
X10.8Y9.25
X10.8Y8.75
X11.036Y24.414
X11.25Y30.0
X11.25Y20.75
X11.25Y17.0
X11.5Y9.5
X11.5Y9.0
X11.75Y30.0
X11.9Y12.75
X12.0Y13.4
X12.0Y9.75
X12.25Y25.25
X12.276Y23.776
X12.5Y13.4
X12.5Y12.75
X12.75Y37.75
X12.75Y37.0
X12.75Y36.0
X12.75Y35.5
X12.75Y35.0
X12.75Y30.75
X12.75Y24.75
X12.75Y9.75
X12.8Y40.75
X12.8Y34.05
X12.8Y16.25
X13.0Y7.25
X13.25Y30.25
X13.5Y41.5
X13.5Y41.0
X13.5Y25.0
X13.5Y7.25
X14.0Y41.5
X14.0Y41.0
X14.0Y24.5
X14.5Y41.5
X14.5Y41.0
X14.6Y37.25
X15.1Y34.75
T3
X1.38Y49.88
X1.38Y47.34
X1.38Y44.8
X1.38Y42.26
X1.38Y39.72
X1.38Y37.18
X1.38Y34.64
X1.38Y32.1
X1.38Y29.56
X1.38Y27.02
X1.38Y24.48
X1.38Y21.94
X1.38Y19.4
X1.38Y16.86
X1.38Y14.32
X1.38Y11.78
X1.38Y9.24
X1.38Y6.7
X1.38Y4.16
X1.38Y1.62
X16.62Y49.88
X16.62Y47.34
X16.62Y44.8
X16.62Y42.26
X16.62Y39.72
X16.62Y37.18
X16.62Y34.64
X16.62Y32.1
X16.62Y29.56
X16.62Y27.02
X16.62Y24.48
X16.62Y21.94
X16.62Y19.4
X16.62Y16.86
X16.62Y14.32
X16.62Y11.78
X16.62Y9.24
X16.62Y6.7
X16.62Y4.16
X16.62Y1.62
T2
G00X4.68Y6.3
M15
G01X4.68Y5.2
M16
G05
G00X4.68Y1.97
M15
G01X4.68Y1.17
M16
G05
G00X13.32Y6.3
M15
G01X13.32Y5.2
M16
G05
G00X13.32Y1.97
M15
G01X13.32Y1.17
M16
G05
M30
