%TF.GenerationSoftware,KiCad,Pcbnew,8.0.6*%
%TF.CreationDate,2024-11-16T14:05:28-06:00*%
%TF.ProjectId,ATesp32,41546573-7033-4322-9e6b-696361645f70,rev?*%
%TF.SameCoordinates,PX47868c0PY2faf080*%
%TF.FileFunction,Copper,L2,Inr*%
%TF.FilePolarity,Positive*%
%FSLAX46Y46*%
G04 Gerber Fmt 4.6, Leading zero omitted, Abs format (unit mm)*
G04 Created by KiCad (PCBNEW 8.0.6) date 2024-11-16 14:05:28*
%MOMM*%
%LPD*%
G01*
G04 APERTURE LIST*
%TA.AperFunction,ComponentPad*%
%ADD10R,1.600000X1.600000*%
%TD*%
%TA.AperFunction,ComponentPad*%
%ADD11O,1.600000X1.600000*%
%TD*%
%TA.AperFunction,ComponentPad*%
%ADD12O,1.000000X2.100000*%
%TD*%
%TA.AperFunction,ComponentPad*%
%ADD13O,1.000000X1.800000*%
%TD*%
%TA.AperFunction,ViaPad*%
%ADD14C,0.300000*%
%TD*%
%TA.AperFunction,Conductor*%
%ADD15C,0.150000*%
%TD*%
G04 APERTURE END LIST*
D10*
%TO.N,PB0*%
%TO.C,U2*%
X1380000Y-1370000D03*
D11*
%TO.N,PB1*%
X1380000Y-3910000D03*
%TO.N,PB2*%
X1380000Y-6450000D03*
%TO.N,PB3*%
X1380000Y-8990000D03*
%TO.N,PB4*%
X1380000Y-11530000D03*
%TO.N,PB5*%
X1380000Y-14070000D03*
%TO.N,PB6*%
X1380000Y-16610000D03*
%TO.N,PB7*%
X1380000Y-19150000D03*
%TO.N,unconnected-(U2-~{RESET}-Pad9)*%
X1380000Y-21690000D03*
%TO.N,+5V*%
X1380000Y-24230000D03*
%TO.N,GND*%
X1380000Y-26770000D03*
%TO.N,unconnected-(U2-XTAL2-Pad12)*%
X1380000Y-29310000D03*
%TO.N,unconnected-(U2-XTAL1-Pad13)*%
X1380000Y-31850000D03*
%TO.N,PD0*%
X1380000Y-34390000D03*
%TO.N,PD1*%
X1380000Y-36930000D03*
%TO.N,D_P*%
X1380000Y-39470000D03*
%TO.N,D_N*%
X1380000Y-42010000D03*
%TO.N,PD4*%
X1380000Y-44550000D03*
%TO.N,PD5*%
X1380000Y-47090000D03*
%TO.N,PD6*%
X1380000Y-49630000D03*
%TO.N,PD7*%
X16620000Y-49630000D03*
%TO.N,PC0*%
X16620000Y-47090000D03*
%TO.N,PC1*%
X16620000Y-44550000D03*
%TO.N,PC2*%
X16620000Y-42010000D03*
%TO.N,PC3*%
X16620000Y-39470000D03*
%TO.N,PC4*%
X16620000Y-36930000D03*
%TO.N,PC5*%
X16620000Y-34390000D03*
%TO.N,PC6*%
X16620000Y-31850000D03*
%TO.N,PC7*%
X16620000Y-29310000D03*
%TO.N,+5V*%
X16620000Y-26770000D03*
%TO.N,GND*%
X16620000Y-24230000D03*
%TO.N,unconnected-(U2-AREF-Pad32)*%
X16620000Y-21690000D03*
%TO.N,PA7*%
X16620000Y-19150000D03*
%TO.N,PA6*%
X16620000Y-16610000D03*
%TO.N,PA5*%
X16620000Y-14070000D03*
%TO.N,PA4*%
X16620000Y-11530000D03*
%TO.N,PA3*%
X16620000Y-8990000D03*
%TO.N,PA2*%
X16620000Y-6450000D03*
%TO.N,PA1*%
X16620000Y-3910000D03*
%TO.N,PA0*%
X16620000Y-1370000D03*
%TD*%
D12*
%TO.N,GND*%
%TO.C,J1*%
X4680000Y-45480000D03*
D13*
X4680000Y-49680000D03*
D12*
X13320000Y-45480000D03*
D13*
X13320000Y-49680000D03*
%TD*%
D14*
%TO.N,GND*%
X5000000Y-17000000D03*
X4250000Y-9500000D03*
X6250000Y-6000000D03*
X4500000Y-7500000D03*
X9000000Y-7000000D03*
X9000000Y-6000000D03*
X4000000Y-6500000D03*
X4500000Y-8000000D03*
X4000000Y-7500000D03*
X6000000Y-12500000D03*
X12800000Y-17200000D03*
X6000000Y-11000000D03*
X6250000Y-6500000D03*
X9750000Y-32000000D03*
X13500000Y-10250000D03*
X12800000Y-10500000D03*
X7500000Y-19750000D03*
X13250000Y-21000000D03*
X4000000Y-8000000D03*
X14500000Y-9750000D03*
X6000000Y-17500000D03*
X7500000Y-15750000D03*
X6000000Y-19250000D03*
X9250000Y-32500000D03*
X7500000Y-20250000D03*
X6000000Y-11500000D03*
X3400000Y-33700000D03*
X9000000Y-8500000D03*
X12500000Y-37850000D03*
X9000000Y-8000000D03*
X11250000Y-34250000D03*
X7000000Y-9300000D03*
X3750000Y-8500000D03*
X6000000Y-17000000D03*
X6000000Y-13000000D03*
X12750000Y-20500000D03*
X7500000Y-17750000D03*
X7500000Y-22750000D03*
X9500000Y-6000000D03*
X4500000Y-7000000D03*
X8750000Y-33000000D03*
X7500000Y-11250000D03*
X6600000Y-8900000D03*
X6250000Y-7000000D03*
X7500000Y-15250000D03*
X7500000Y-21750000D03*
X6000000Y-20750000D03*
X6000000Y-16500000D03*
X14500000Y-10250000D03*
X4750000Y-9500000D03*
X7500000Y-11750000D03*
X15100000Y-16500000D03*
X7500000Y-17250000D03*
X9000000Y-9500000D03*
X6000000Y-16000000D03*
X7500000Y-14250000D03*
X5105000Y-42068177D03*
X13500000Y-26250000D03*
X10250000Y-31500000D03*
X7500000Y-13750000D03*
X3750000Y-5500000D03*
X6000000Y-13500000D03*
X6250000Y-5500000D03*
X9000000Y-6500000D03*
X13500000Y-44000000D03*
X10750000Y-31000000D03*
X9000000Y-9000000D03*
X6250000Y-8500000D03*
X11750000Y-21250000D03*
X6000000Y-12000000D03*
X13000000Y-44000000D03*
X13500000Y-9750000D03*
X6740000Y-42510000D03*
X8798959Y-22798958D03*
X12750000Y-26500000D03*
X6000000Y-20250000D03*
X11250000Y-30500000D03*
X7500000Y-22250000D03*
X14000000Y-9750000D03*
X7500000Y-9750000D03*
X4500000Y-6500000D03*
X5250000Y-9500000D03*
X7500000Y-12750000D03*
X6250000Y-8000000D03*
X12000000Y-37850000D03*
X3750000Y-6000000D03*
X14000000Y-26750000D03*
X7500000Y-16250000D03*
X11250000Y-21250000D03*
X3750000Y-9000000D03*
X14000000Y-10250000D03*
X8259699Y-42741807D03*
X7500000Y-10250000D03*
X7500000Y-18750000D03*
X6000000Y-15500000D03*
X6000000Y-10500000D03*
X7500000Y-23250000D03*
X7500000Y-21250000D03*
X7500000Y-23750000D03*
X7500000Y-16750000D03*
X4000000Y-7000000D03*
X6000000Y-19750000D03*
X7500000Y-19250000D03*
X7500000Y-13250000D03*
X7500000Y-14750000D03*
X10000000Y-6000000D03*
X6250000Y-7500000D03*
X7500000Y-18250000D03*
X4000000Y-24400000D03*
X7500000Y-12250000D03*
X7500000Y-10750000D03*
X12250000Y-26000000D03*
X7500000Y-20750000D03*
X9000000Y-7500000D03*
%TO.N,+3V3*%
X4000000Y-23650000D03*
X12750000Y-15250000D03*
X12750000Y-15750000D03*
X5000000Y-16000000D03*
X7900000Y-24900000D03*
X8300000Y-24500000D03*
X12750000Y-16250000D03*
X4000000Y-32200000D03*
X12275521Y-27474479D03*
%TO.N,+5V*%
X9000000Y-17000000D03*
X12750000Y-13500000D03*
X11500000Y-42250000D03*
X9000000Y-15000000D03*
X11500000Y-41750000D03*
X6000000Y-41750000D03*
X6000000Y-40750000D03*
X12750000Y-41500000D03*
X12000000Y-41500000D03*
X4550000Y-40700000D03*
X9000000Y-14500000D03*
X9000000Y-17500000D03*
X5350000Y-41450000D03*
X6000000Y-41250000D03*
X9000000Y-14000000D03*
X12750000Y-14250000D03*
X14600000Y-14000000D03*
X8500000Y-17000000D03*
%TO.N,Net-(U1-CHIP_PU)*%
X4875000Y-11675000D03*
X6002164Y-25595753D03*
%TO.N,Net-(U5-VDD)*%
X12500000Y-38500000D03*
X10800000Y-42500000D03*
X11900000Y-38500000D03*
X10800000Y-42000000D03*
%TO.N,Net-(J1-CC2)*%
X10618644Y-45773305D03*
X3225000Y-44600521D03*
%TO.N,D+*%
X8750000Y-45650000D03*
X9750000Y-45650000D03*
%TO.N,Net-(JP4-B)*%
X6916960Y-32509491D03*
X4875000Y-21187500D03*
X5576046Y-25857334D03*
%TO.N,Net-(JP6-B)*%
X12800000Y-35000000D03*
%TO.N,PD7*%
X11036315Y-26836315D03*
%TO.N,UART_RX*%
X10197783Y-28624232D03*
%TO.N,Net-(JP7-A)*%
X6000000Y-39900000D03*
%TO.N,UART_TX*%
X7500000Y-37000000D03*
%TO.N,Net-(JP8-A)*%
X6500000Y-39400000D03*
%TO.N,Net-(U1-U0TXD)*%
X10750000Y-28650000D03*
X9100000Y-36300000D03*
%TO.N,PA2*%
X3568844Y-29031156D03*
%TO.N,PB2*%
X4375000Y-26100000D03*
%TO.N,PA5*%
X5379667Y-30478626D03*
%TO.N,PA1*%
X3600156Y-28532137D03*
%TO.N,PD6*%
X9729961Y-28142669D03*
%TO.N,PA4*%
X5026112Y-30125070D03*
%TO.N,PB1*%
X4800000Y-26370030D03*
%TO.N,PA6*%
X5745769Y-30819172D03*
%TO.N,PB6*%
X6100000Y-31800000D03*
%TO.N,PA7*%
X6086315Y-31185274D03*
%TO.N,PB0*%
X5314464Y-26283453D03*
%TO.N,D_N*%
X6275000Y-35568167D03*
%TO.N,D_P*%
X5825000Y-35100000D03*
%TO.N,PA0*%
X3684530Y-28015470D03*
%TO.N,PB3*%
X3950000Y-26513173D03*
%TO.N,PA3*%
X4672557Y-29771515D03*
%TO.N,PB7*%
X6456528Y-32180093D03*
%TD*%
D15*
%TO.N,Net-(JP4-B)*%
X5576046Y-25857334D02*
X6916960Y-27198248D01*
X6916960Y-27198248D02*
X6916960Y-32509491D01*
%TD*%
%TA.AperFunction,Conductor*%
%TO.N,GND*%
G36*
X16208560Y-5269685D02*
G01*
X16254315Y-5322489D01*
X16264259Y-5391647D01*
X16235234Y-5455203D01*
X16199974Y-5483358D01*
X16033550Y-5572315D01*
X16033548Y-5572316D01*
X16033547Y-5572317D01*
X15873589Y-5703589D01*
X15742317Y-5863547D01*
X15742315Y-5863550D01*
X15703643Y-5935898D01*
X15644769Y-6046043D01*
X15584699Y-6244067D01*
X15564417Y-6450000D01*
X15584699Y-6655932D01*
X15584700Y-6655934D01*
X15644768Y-6853954D01*
X15742315Y-7036450D01*
X15742317Y-7036452D01*
X15873589Y-7196410D01*
X15970209Y-7275702D01*
X16033550Y-7327685D01*
X16216046Y-7425232D01*
X16414066Y-7485300D01*
X16414065Y-7485300D01*
X16432529Y-7487118D01*
X16620000Y-7505583D01*
X16825934Y-7485300D01*
X17023954Y-7425232D01*
X17206450Y-7327685D01*
X17296835Y-7253507D01*
X17361145Y-7226195D01*
X17430012Y-7237986D01*
X17481573Y-7285138D01*
X17499500Y-7349361D01*
X17499500Y-8090638D01*
X17479815Y-8157677D01*
X17427011Y-8203432D01*
X17357853Y-8213376D01*
X17296836Y-8186492D01*
X17206452Y-8112317D01*
X17206453Y-8112317D01*
X17206450Y-8112315D01*
X17023954Y-8014768D01*
X16825934Y-7954700D01*
X16825932Y-7954699D01*
X16825934Y-7954699D01*
X16620000Y-7934417D01*
X16414067Y-7954699D01*
X16216043Y-8014769D01*
X16105898Y-8073643D01*
X16033550Y-8112315D01*
X16033548Y-8112316D01*
X16033547Y-8112317D01*
X15873589Y-8243589D01*
X15742317Y-8403547D01*
X15742315Y-8403550D01*
X15703643Y-8475898D01*
X15644769Y-8586043D01*
X15584699Y-8784067D01*
X15564417Y-8990000D01*
X15584699Y-9195932D01*
X15584700Y-9195934D01*
X15644768Y-9393954D01*
X15742315Y-9576450D01*
X15742317Y-9576452D01*
X15873589Y-9736410D01*
X15970209Y-9815702D01*
X16033550Y-9867685D01*
X16216046Y-9965232D01*
X16414066Y-10025300D01*
X16414065Y-10025300D01*
X16432529Y-10027118D01*
X16620000Y-10045583D01*
X16825934Y-10025300D01*
X17023954Y-9965232D01*
X17206450Y-9867685D01*
X17296835Y-9793507D01*
X17361145Y-9766195D01*
X17430012Y-9777986D01*
X17481573Y-9825138D01*
X17499500Y-9889361D01*
X17499500Y-10630638D01*
X17479815Y-10697677D01*
X17427011Y-10743432D01*
X17357853Y-10753376D01*
X17296836Y-10726492D01*
X17206452Y-10652317D01*
X17206453Y-10652317D01*
X17206450Y-10652315D01*
X17023954Y-10554768D01*
X16825934Y-10494700D01*
X16825932Y-10494699D01*
X16825934Y-10494699D01*
X16620000Y-10474417D01*
X16414067Y-10494699D01*
X16216043Y-10554769D01*
X16105898Y-10613643D01*
X16033550Y-10652315D01*
X16033548Y-10652316D01*
X16033547Y-10652317D01*
X15873589Y-10783589D01*
X15742317Y-10943547D01*
X15742315Y-10943550D01*
X15703643Y-11015898D01*
X15644769Y-11126043D01*
X15584699Y-11324067D01*
X15564417Y-11530000D01*
X15584699Y-11735932D01*
X15584700Y-11735934D01*
X15644768Y-11933954D01*
X15742315Y-12116450D01*
X15742317Y-12116452D01*
X15873589Y-12276410D01*
X15970209Y-12355702D01*
X16033550Y-12407685D01*
X16216046Y-12505232D01*
X16414066Y-12565300D01*
X16414065Y-12565300D01*
X16432529Y-12567118D01*
X16620000Y-12585583D01*
X16825934Y-12565300D01*
X17023954Y-12505232D01*
X17206450Y-12407685D01*
X17296835Y-12333507D01*
X17361145Y-12306195D01*
X17430012Y-12317986D01*
X17481573Y-12365138D01*
X17499500Y-12429361D01*
X17499500Y-13170638D01*
X17479815Y-13237677D01*
X17427011Y-13283432D01*
X17357853Y-13293376D01*
X17296836Y-13266492D01*
X17206452Y-13192317D01*
X17206453Y-13192317D01*
X17206450Y-13192315D01*
X17023954Y-13094768D01*
X16825934Y-13034700D01*
X16825932Y-13034699D01*
X16825934Y-13034699D01*
X16620000Y-13014417D01*
X16414067Y-13034699D01*
X16216043Y-13094769D01*
X16179403Y-13114354D01*
X16033550Y-13192315D01*
X16033548Y-13192316D01*
X16033547Y-13192317D01*
X15873589Y-13323589D01*
X15742317Y-13483547D01*
X15742315Y-13483550D01*
X15733521Y-13500003D01*
X15644769Y-13666043D01*
X15584699Y-13864067D01*
X15564417Y-14070000D01*
X15584699Y-14275932D01*
X15600508Y-14328048D01*
X15644768Y-14473954D01*
X15742315Y-14656450D01*
X15742317Y-14656452D01*
X15873589Y-14816410D01*
X15944611Y-14874695D01*
X16033550Y-14947685D01*
X16216046Y-15045232D01*
X16414066Y-15105300D01*
X16414065Y-15105300D01*
X16432529Y-15107118D01*
X16620000Y-15125583D01*
X16825934Y-15105300D01*
X17023954Y-15045232D01*
X17206450Y-14947685D01*
X17296835Y-14873507D01*
X17361145Y-14846195D01*
X17430012Y-14857986D01*
X17481573Y-14905138D01*
X17499500Y-14969361D01*
X17499500Y-15710638D01*
X17479815Y-15777677D01*
X17427011Y-15823432D01*
X17357853Y-15833376D01*
X17296836Y-15806492D01*
X17242205Y-15761658D01*
X17206450Y-15732315D01*
X17023954Y-15634768D01*
X16825934Y-15574700D01*
X16825932Y-15574699D01*
X16825934Y-15574699D01*
X16620000Y-15554417D01*
X16414067Y-15574699D01*
X16216043Y-15634769D01*
X16146484Y-15671950D01*
X16033550Y-15732315D01*
X16033548Y-15732316D01*
X16033547Y-15732317D01*
X15873589Y-15863589D01*
X15742317Y-16023547D01*
X15742315Y-16023550D01*
X15724813Y-16056294D01*
X15644769Y-16206043D01*
X15584699Y-16404067D01*
X15564417Y-16610000D01*
X15584699Y-16815932D01*
X15602526Y-16874699D01*
X15644768Y-17013954D01*
X15742315Y-17196450D01*
X15742317Y-17196452D01*
X15873589Y-17356410D01*
X15968436Y-17434248D01*
X16033550Y-17487685D01*
X16216046Y-17585232D01*
X16414066Y-17645300D01*
X16414065Y-17645300D01*
X16432529Y-17647118D01*
X16620000Y-17665583D01*
X16825934Y-17645300D01*
X17023954Y-17585232D01*
X17206450Y-17487685D01*
X17296835Y-17413507D01*
X17361145Y-17386195D01*
X17430012Y-17397986D01*
X17481573Y-17445138D01*
X17499500Y-17509361D01*
X17499500Y-18250638D01*
X17479815Y-18317677D01*
X17427011Y-18363432D01*
X17357853Y-18373376D01*
X17296836Y-18346492D01*
X17206452Y-18272317D01*
X17206453Y-18272317D01*
X17206450Y-18272315D01*
X17023954Y-18174768D01*
X16825934Y-18114700D01*
X16825932Y-18114699D01*
X16825934Y-18114699D01*
X16620000Y-18094417D01*
X16414067Y-18114699D01*
X16216043Y-18174769D01*
X16105898Y-18233643D01*
X16033550Y-18272315D01*
X16033548Y-18272316D01*
X16033547Y-18272317D01*
X15873589Y-18403589D01*
X15742317Y-18563547D01*
X15742315Y-18563550D01*
X15703643Y-18635898D01*
X15644769Y-18746043D01*
X15584699Y-18944067D01*
X15564417Y-19150000D01*
X15584699Y-19355932D01*
X15584700Y-19355934D01*
X15644768Y-19553954D01*
X15742315Y-19736450D01*
X15742317Y-19736452D01*
X15873589Y-19896410D01*
X15970209Y-19975702D01*
X16033550Y-20027685D01*
X16216046Y-20125232D01*
X16414066Y-20185300D01*
X16414065Y-20185300D01*
X16432529Y-20187118D01*
X16620000Y-20205583D01*
X16825934Y-20185300D01*
X17023954Y-20125232D01*
X17206450Y-20027685D01*
X17296835Y-19953507D01*
X17361145Y-19926195D01*
X17430012Y-19937986D01*
X17481573Y-19985138D01*
X17499500Y-20049361D01*
X17499500Y-20790638D01*
X17479815Y-20857677D01*
X17427011Y-20903432D01*
X17357853Y-20913376D01*
X17296836Y-20886492D01*
X17206452Y-20812317D01*
X17206453Y-20812317D01*
X17206450Y-20812315D01*
X17023954Y-20714768D01*
X16825934Y-20654700D01*
X16825932Y-20654699D01*
X16825934Y-20654699D01*
X16620000Y-20634417D01*
X16414067Y-20654699D01*
X16216043Y-20714769D01*
X16105898Y-20773643D01*
X16033550Y-20812315D01*
X16033548Y-20812316D01*
X16033547Y-20812317D01*
X15873589Y-20943589D01*
X15742317Y-21103547D01*
X15742315Y-21103550D01*
X15703643Y-21175898D01*
X15644769Y-21286043D01*
X15584699Y-21484067D01*
X15564417Y-21690000D01*
X15584699Y-21895932D01*
X15584700Y-21895934D01*
X15644768Y-22093954D01*
X15742315Y-22276450D01*
X15742317Y-22276452D01*
X15873589Y-22436410D01*
X15970209Y-22515702D01*
X16033550Y-22567685D01*
X16216046Y-22665232D01*
X16414066Y-22725300D01*
X16414065Y-22725300D01*
X16432529Y-22727118D01*
X16620000Y-22745583D01*
X16825934Y-22725300D01*
X17023954Y-22665232D01*
X17206450Y-22567685D01*
X17296835Y-22493507D01*
X17361145Y-22466195D01*
X17430012Y-22477986D01*
X17481573Y-22525138D01*
X17499500Y-22589361D01*
X17499500Y-23331283D01*
X17479815Y-23398322D01*
X17427011Y-23444077D01*
X17357853Y-23454021D01*
X17296836Y-23427137D01*
X17206172Y-23352732D01*
X17206166Y-23352728D01*
X17023763Y-23255232D01*
X16870000Y-23208587D01*
X16870000Y-23914314D01*
X16865606Y-23909920D01*
X16774394Y-23857259D01*
X16672661Y-23830000D01*
X16567339Y-23830000D01*
X16465606Y-23857259D01*
X16374394Y-23909920D01*
X16370000Y-23914314D01*
X16370000Y-23208587D01*
X16216236Y-23255232D01*
X16033833Y-23352728D01*
X16033826Y-23352732D01*
X15873944Y-23483944D01*
X15742732Y-23643826D01*
X15742728Y-23643833D01*
X15645233Y-23826233D01*
X15598590Y-23980000D01*
X16304314Y-23980000D01*
X16299920Y-23984394D01*
X16247259Y-24075606D01*
X16220000Y-24177339D01*
X16220000Y-24282661D01*
X16247259Y-24384394D01*
X16299920Y-24475606D01*
X16304314Y-24480000D01*
X15598590Y-24480000D01*
X15645233Y-24633766D01*
X15742728Y-24816166D01*
X15742732Y-24816173D01*
X15873944Y-24976055D01*
X16033826Y-25107267D01*
X16033833Y-25107271D01*
X16216233Y-25204766D01*
X16370000Y-25251410D01*
X16370000Y-24545686D01*
X16374394Y-24550080D01*
X16465606Y-24602741D01*
X16567339Y-24630000D01*
X16672661Y-24630000D01*
X16774394Y-24602741D01*
X16865606Y-24550080D01*
X16870000Y-24545686D01*
X16870000Y-25251410D01*
X17023766Y-25204766D01*
X17206166Y-25107271D01*
X17206173Y-25107267D01*
X17296835Y-25032863D01*
X17361145Y-25005550D01*
X17430013Y-25017341D01*
X17481573Y-25064493D01*
X17499500Y-25128716D01*
X17499500Y-25870638D01*
X17479815Y-25937677D01*
X17427011Y-25983432D01*
X17357853Y-25993376D01*
X17296836Y-25966492D01*
X17244818Y-25923803D01*
X17206450Y-25892315D01*
X17023954Y-25794768D01*
X16825934Y-25734700D01*
X16825932Y-25734699D01*
X16825934Y-25734699D01*
X16620000Y-25714417D01*
X16414067Y-25734699D01*
X16216043Y-25794769D01*
X16142471Y-25834095D01*
X16033550Y-25892315D01*
X16033548Y-25892316D01*
X16033547Y-25892317D01*
X15873589Y-26023589D01*
X15742317Y-26183547D01*
X15742315Y-26183550D01*
X15703643Y-26255898D01*
X15644769Y-26366043D01*
X15584699Y-26564067D01*
X15564417Y-26770000D01*
X15584699Y-26975932D01*
X15596734Y-27015606D01*
X15644768Y-27173954D01*
X15742315Y-27356450D01*
X15776969Y-27398677D01*
X15873589Y-27516410D01*
X15970209Y-27595702D01*
X16033550Y-27647685D01*
X16216046Y-27745232D01*
X16414066Y-27805300D01*
X16414065Y-27805300D01*
X16432529Y-27807118D01*
X16620000Y-27825583D01*
X16825934Y-27805300D01*
X17023954Y-27745232D01*
X17206450Y-27647685D01*
X17296835Y-27573507D01*
X17361145Y-27546195D01*
X17430012Y-27557986D01*
X17481573Y-27605138D01*
X17499500Y-27669361D01*
X17499500Y-28410638D01*
X17479815Y-28477677D01*
X17427011Y-28523432D01*
X17357853Y-28533376D01*
X17296836Y-28506492D01*
X17206452Y-28432317D01*
X17206453Y-28432317D01*
X17206450Y-28432315D01*
X17023954Y-28334768D01*
X16825934Y-28274700D01*
X16825932Y-28274699D01*
X16825934Y-28274699D01*
X16620000Y-28254417D01*
X16414067Y-28274699D01*
X16216043Y-28334769D01*
X16129532Y-28381011D01*
X16033550Y-28432315D01*
X16033548Y-28432316D01*
X16033547Y-28432317D01*
X15873589Y-28563589D01*
X15766051Y-28694627D01*
X15742315Y-28723550D01*
X15717231Y-28770479D01*
X15644769Y-28906043D01*
X15584699Y-29104067D01*
X15564417Y-29310000D01*
X15584699Y-29515932D01*
X15589929Y-29533172D01*
X15644768Y-29713954D01*
X15742315Y-29896450D01*
X15742618Y-29896819D01*
X15873589Y-30056410D01*
X15970209Y-30135702D01*
X16033550Y-30187685D01*
X16216046Y-30285232D01*
X16414066Y-30345300D01*
X16414065Y-30345300D01*
X16432529Y-30347118D01*
X16620000Y-30365583D01*
X16825934Y-30345300D01*
X17023954Y-30285232D01*
X17206450Y-30187685D01*
X17296835Y-30113507D01*
X17361145Y-30086195D01*
X17430012Y-30097986D01*
X17481573Y-30145138D01*
X17499500Y-30209361D01*
X17499500Y-30950638D01*
X17479815Y-31017677D01*
X17427011Y-31063432D01*
X17357853Y-31073376D01*
X17296836Y-31046492D01*
X17206452Y-30972317D01*
X17206453Y-30972317D01*
X17206450Y-30972315D01*
X17023954Y-30874768D01*
X16825934Y-30814700D01*
X16825932Y-30814699D01*
X16825934Y-30814699D01*
X16620000Y-30794417D01*
X16414067Y-30814699D01*
X16216043Y-30874769D01*
X16145745Y-30912345D01*
X16033550Y-30972315D01*
X16033548Y-30972316D01*
X16033547Y-30972317D01*
X15873589Y-31103589D01*
X15742317Y-31263547D01*
X15742315Y-31263550D01*
X15717178Y-31310578D01*
X15644769Y-31446043D01*
X15584699Y-31644067D01*
X15564417Y-31850000D01*
X15584699Y-32055932D01*
X15584700Y-32055934D01*
X15644768Y-32253954D01*
X15742315Y-32436450D01*
X15742317Y-32436452D01*
X15873589Y-32596410D01*
X15970209Y-32675702D01*
X16033550Y-32727685D01*
X16216046Y-32825232D01*
X16414066Y-32885300D01*
X16414065Y-32885300D01*
X16432529Y-32887118D01*
X16620000Y-32905583D01*
X16825934Y-32885300D01*
X17023954Y-32825232D01*
X17206450Y-32727685D01*
X17296835Y-32653507D01*
X17361145Y-32626195D01*
X17430012Y-32637986D01*
X17481573Y-32685138D01*
X17499500Y-32749361D01*
X17499500Y-33490638D01*
X17479815Y-33557677D01*
X17427011Y-33603432D01*
X17357853Y-33613376D01*
X17296836Y-33586492D01*
X17206452Y-33512317D01*
X17206453Y-33512317D01*
X17206450Y-33512315D01*
X17023954Y-33414768D01*
X16825934Y-33354700D01*
X16825932Y-33354699D01*
X16825934Y-33354699D01*
X16620000Y-33334417D01*
X16414067Y-33354699D01*
X16216043Y-33414769D01*
X16105898Y-33473643D01*
X16033550Y-33512315D01*
X16033548Y-33512316D01*
X16033547Y-33512317D01*
X15873589Y-33643589D01*
X15742317Y-33803547D01*
X15742315Y-33803550D01*
X15703643Y-33875898D01*
X15644769Y-33986043D01*
X15584699Y-34184067D01*
X15564417Y-34390000D01*
X15584699Y-34595932D01*
X15607759Y-34671950D01*
X15644768Y-34793954D01*
X15742315Y-34976450D01*
X15742317Y-34976452D01*
X15873589Y-35136410D01*
X15970209Y-35215702D01*
X16033550Y-35267685D01*
X16216046Y-35365232D01*
X16414066Y-35425300D01*
X16414065Y-35425300D01*
X16432529Y-35427118D01*
X16620000Y-35445583D01*
X16825934Y-35425300D01*
X17023954Y-35365232D01*
X17206450Y-35267685D01*
X17296835Y-35193507D01*
X17361145Y-35166195D01*
X17430012Y-35177986D01*
X17481573Y-35225138D01*
X17499500Y-35289361D01*
X17499500Y-36030638D01*
X17479815Y-36097677D01*
X17427011Y-36143432D01*
X17357853Y-36153376D01*
X17296836Y-36126492D01*
X17247410Y-36085930D01*
X17206450Y-36052315D01*
X17023954Y-35954768D01*
X16825934Y-35894700D01*
X16825932Y-35894699D01*
X16825934Y-35894699D01*
X16620000Y-35874417D01*
X16414067Y-35894699D01*
X16238692Y-35947898D01*
X16219195Y-35953813D01*
X16216043Y-35954769D01*
X16105898Y-36013643D01*
X16033550Y-36052315D01*
X16033548Y-36052316D01*
X16033547Y-36052317D01*
X15873589Y-36183589D01*
X15742317Y-36343547D01*
X15742315Y-36343550D01*
X15703643Y-36415898D01*
X15644769Y-36526043D01*
X15584699Y-36724067D01*
X15564417Y-36930000D01*
X15584699Y-37135932D01*
X15584700Y-37135934D01*
X15644768Y-37333954D01*
X15742315Y-37516450D01*
X15742317Y-37516452D01*
X15873589Y-37676410D01*
X15970209Y-37755702D01*
X16033550Y-37807685D01*
X16216046Y-37905232D01*
X16414066Y-37965300D01*
X16414065Y-37965300D01*
X16432529Y-37967118D01*
X16620000Y-37985583D01*
X16825934Y-37965300D01*
X17023954Y-37905232D01*
X17206450Y-37807685D01*
X17296835Y-37733507D01*
X17361145Y-37706195D01*
X17430012Y-37717986D01*
X17481573Y-37765138D01*
X17499500Y-37829361D01*
X17499500Y-38570638D01*
X17479815Y-38637677D01*
X17427011Y-38683432D01*
X17357853Y-38693376D01*
X17296836Y-38666492D01*
X17206452Y-38592317D01*
X17206453Y-38592317D01*
X17206450Y-38592315D01*
X17023954Y-38494768D01*
X16825934Y-38434700D01*
X16825932Y-38434699D01*
X16825934Y-38434699D01*
X16620000Y-38414417D01*
X16414067Y-38434699D01*
X16216043Y-38494769D01*
X16105898Y-38553643D01*
X16033550Y-38592315D01*
X16033548Y-38592316D01*
X16033547Y-38592317D01*
X15873589Y-38723589D01*
X15742317Y-38883547D01*
X15742315Y-38883550D01*
X15730587Y-38905492D01*
X15644769Y-39066043D01*
X15584699Y-39264067D01*
X15564417Y-39470000D01*
X15584699Y-39675932D01*
X15600508Y-39728048D01*
X15644768Y-39873954D01*
X15742315Y-40056450D01*
X15742317Y-40056452D01*
X15873589Y-40216410D01*
X15957955Y-40285646D01*
X16033550Y-40347685D01*
X16216046Y-40445232D01*
X16414066Y-40505300D01*
X16414065Y-40505300D01*
X16432529Y-40507118D01*
X16620000Y-40525583D01*
X16825934Y-40505300D01*
X17023954Y-40445232D01*
X17206450Y-40347685D01*
X17296835Y-40273507D01*
X17361145Y-40246195D01*
X17430012Y-40257986D01*
X17481573Y-40305138D01*
X17499500Y-40369361D01*
X17499500Y-41110638D01*
X17479815Y-41177677D01*
X17427011Y-41223432D01*
X17357853Y-41233376D01*
X17296836Y-41206492D01*
X17247410Y-41165930D01*
X17206450Y-41132315D01*
X17023954Y-41034768D01*
X16825934Y-40974700D01*
X16825932Y-40974699D01*
X16825934Y-40974699D01*
X16620000Y-40954417D01*
X16414067Y-40974699D01*
X16216043Y-41034769D01*
X16120861Y-41085646D01*
X16033550Y-41132315D01*
X16033548Y-41132316D01*
X16033547Y-41132317D01*
X15873589Y-41263589D01*
X15742317Y-41423547D01*
X15742315Y-41423550D01*
X15708065Y-41487626D01*
X15644769Y-41606043D01*
X15584699Y-41804067D01*
X15564417Y-42010000D01*
X15584699Y-42215932D01*
X15612110Y-42306294D01*
X15644768Y-42413954D01*
X15742315Y-42596450D01*
X15765992Y-42625301D01*
X15873589Y-42756410D01*
X15960878Y-42828045D01*
X16033550Y-42887685D01*
X16216046Y-42985232D01*
X16414066Y-43045300D01*
X16414065Y-43045300D01*
X16432529Y-43047118D01*
X16620000Y-43065583D01*
X16825934Y-43045300D01*
X17023954Y-42985232D01*
X17206450Y-42887685D01*
X17296835Y-42813507D01*
X17361145Y-42786195D01*
X17430012Y-42797986D01*
X17481573Y-42845138D01*
X17499500Y-42909361D01*
X17499500Y-43650638D01*
X17479815Y-43717677D01*
X17427011Y-43763432D01*
X17357853Y-43773376D01*
X17296836Y-43746492D01*
X17206452Y-43672317D01*
X17206453Y-43672317D01*
X17206450Y-43672315D01*
X17023954Y-43574768D01*
X16825934Y-43514700D01*
X16825932Y-43514699D01*
X16825934Y-43514699D01*
X16620000Y-43494417D01*
X16414067Y-43514699D01*
X16216043Y-43574769D01*
X16105898Y-43633643D01*
X16033550Y-43672315D01*
X16033548Y-43672316D01*
X16033547Y-43672317D01*
X15873589Y-43803589D01*
X15742317Y-43963547D01*
X15742315Y-43963550D01*
X15703643Y-44035898D01*
X15644769Y-44146043D01*
X15584699Y-44344067D01*
X15564417Y-44550000D01*
X15584699Y-44755932D01*
X15584700Y-44755934D01*
X15644768Y-44953954D01*
X15742315Y-45136450D01*
X15742317Y-45136452D01*
X15873589Y-45296410D01*
X15960595Y-45367813D01*
X16033550Y-45427685D01*
X16216046Y-45525232D01*
X16414066Y-45585300D01*
X16414065Y-45585300D01*
X16432529Y-45587118D01*
X16620000Y-45605583D01*
X16825934Y-45585300D01*
X17023954Y-45525232D01*
X17206450Y-45427685D01*
X17296835Y-45353507D01*
X17361145Y-45326195D01*
X17430012Y-45337986D01*
X17481573Y-45385138D01*
X17499500Y-45449361D01*
X17499500Y-46190638D01*
X17479815Y-46257677D01*
X17427011Y-46303432D01*
X17357853Y-46313376D01*
X17296836Y-46286492D01*
X17242060Y-46241539D01*
X17206450Y-46212315D01*
X17023954Y-46114768D01*
X16825934Y-46054700D01*
X16825932Y-46054699D01*
X16825934Y-46054699D01*
X16620000Y-46034417D01*
X16414067Y-46054699D01*
X16216043Y-46114769D01*
X16157997Y-46145796D01*
X16033550Y-46212315D01*
X16033548Y-46212316D01*
X16033547Y-46212317D01*
X15873589Y-46343589D01*
X15742317Y-46503547D01*
X15742315Y-46503550D01*
X15724820Y-46536281D01*
X15644769Y-46686043D01*
X15644768Y-46686045D01*
X15644768Y-46686046D01*
X15637898Y-46708692D01*
X15584699Y-46884067D01*
X15564417Y-47090000D01*
X15584699Y-47295932D01*
X15584700Y-47295934D01*
X15644768Y-47493954D01*
X15742315Y-47676450D01*
X15742317Y-47676452D01*
X15873589Y-47836410D01*
X15970209Y-47915702D01*
X16033550Y-47967685D01*
X16216046Y-48065232D01*
X16414066Y-48125300D01*
X16414065Y-48125300D01*
X16432529Y-48127118D01*
X16620000Y-48145583D01*
X16825934Y-48125300D01*
X17023954Y-48065232D01*
X17206450Y-47967685D01*
X17296835Y-47893507D01*
X17361145Y-47866195D01*
X17430012Y-47877986D01*
X17481573Y-47925138D01*
X17499500Y-47989361D01*
X17499500Y-48730638D01*
X17479815Y-48797677D01*
X17427011Y-48843432D01*
X17357853Y-48853376D01*
X17296836Y-48826492D01*
X17206452Y-48752317D01*
X17206453Y-48752317D01*
X17206450Y-48752315D01*
X17023954Y-48654768D01*
X16825934Y-48594700D01*
X16825932Y-48594699D01*
X16825934Y-48594699D01*
X16620000Y-48574417D01*
X16414067Y-48594699D01*
X16216043Y-48654769D01*
X16136220Y-48697436D01*
X16033550Y-48752315D01*
X16033548Y-48752316D01*
X16033547Y-48752317D01*
X15873589Y-48883589D01*
X15742317Y-49043547D01*
X15742315Y-49043550D01*
X15714389Y-49095795D01*
X15644769Y-49226043D01*
X15584699Y-49424067D01*
X15564417Y-49630000D01*
X15584699Y-49835932D01*
X15584700Y-49835934D01*
X15644768Y-50033954D01*
X15742315Y-50216450D01*
X15742317Y-50216452D01*
X15873589Y-50376410D01*
X16033548Y-50507684D01*
X16049372Y-50516142D01*
X16099217Y-50565104D01*
X16114677Y-50633242D01*
X16090845Y-50698922D01*
X16035288Y-50741290D01*
X15990919Y-50749500D01*
X14006660Y-50749500D01*
X13939621Y-50729815D01*
X13893866Y-50677011D01*
X13883922Y-50607853D01*
X13903558Y-50556610D01*
X13984634Y-50435269D01*
X13984642Y-50435254D01*
X14041177Y-50298767D01*
X14041179Y-50298759D01*
X14069999Y-50153873D01*
X14070000Y-50153871D01*
X14070000Y-49930000D01*
X13620000Y-49930000D01*
X13620000Y-49430000D01*
X14070000Y-49430000D01*
X14070000Y-49206128D01*
X14069999Y-49206126D01*
X14041179Y-49061240D01*
X14041177Y-49061232D01*
X13984642Y-48924745D01*
X13984637Y-48924735D01*
X13902563Y-48801903D01*
X13902560Y-48801899D01*
X13798100Y-48697439D01*
X13798096Y-48697436D01*
X13675264Y-48615362D01*
X13675254Y-48615357D01*
X13570000Y-48571759D01*
X13570000Y-49113011D01*
X13560060Y-49095795D01*
X13504205Y-49039940D01*
X13435796Y-49000444D01*
X13359496Y-48980000D01*
X13280504Y-48980000D01*
X13204204Y-49000444D01*
X13135795Y-49039940D01*
X13079940Y-49095795D01*
X13070000Y-49113011D01*
X13070000Y-48571759D01*
X13069999Y-48571759D01*
X12964745Y-48615357D01*
X12964735Y-48615362D01*
X12841903Y-48697436D01*
X12841899Y-48697439D01*
X12737439Y-48801899D01*
X12737436Y-48801903D01*
X12655362Y-48924735D01*
X12655357Y-48924745D01*
X12598822Y-49061232D01*
X12598820Y-49061240D01*
X12570000Y-49206126D01*
X12570000Y-49430000D01*
X13020000Y-49430000D01*
X13020000Y-49930000D01*
X12570000Y-49930000D01*
X12570000Y-50153873D01*
X12598820Y-50298759D01*
X12598822Y-50298767D01*
X12655357Y-50435254D01*
X12655365Y-50435269D01*
X12736442Y-50556610D01*
X12757320Y-50623287D01*
X12738835Y-50690667D01*
X12686856Y-50737357D01*
X12633340Y-50749500D01*
X5366660Y-50749500D01*
X5299621Y-50729815D01*
X5253866Y-50677011D01*
X5243922Y-50607853D01*
X5263558Y-50556610D01*
X5344634Y-50435269D01*
X5344642Y-50435254D01*
X5401177Y-50298767D01*
X5401179Y-50298759D01*
X5429999Y-50153873D01*
X5430000Y-50153871D01*
X5430000Y-49930000D01*
X4980000Y-49930000D01*
X4980000Y-49430000D01*
X5430000Y-49430000D01*
X5430000Y-49206128D01*
X5429999Y-49206126D01*
X5401179Y-49061240D01*
X5401177Y-49061232D01*
X5344642Y-48924745D01*
X5344637Y-48924735D01*
X5262563Y-48801903D01*
X5262560Y-48801899D01*
X5158100Y-48697439D01*
X5158096Y-48697436D01*
X5035264Y-48615362D01*
X5035254Y-48615357D01*
X4930000Y-48571759D01*
X4930000Y-49113011D01*
X4920060Y-49095795D01*
X4864205Y-49039940D01*
X4795796Y-49000444D01*
X4719496Y-48980000D01*
X4640504Y-48980000D01*
X4564204Y-49000444D01*
X4495795Y-49039940D01*
X4439940Y-49095795D01*
X4430000Y-49113011D01*
X4430000Y-48571759D01*
X4429999Y-48571759D01*
X4324745Y-48615357D01*
X4324735Y-48615362D01*
X4201903Y-48697436D01*
X4201899Y-48697439D01*
X4097439Y-48801899D01*
X4097436Y-48801903D01*
X4015362Y-48924735D01*
X4015357Y-48924745D01*
X3958822Y-49061232D01*
X3958820Y-49061240D01*
X3930000Y-49206126D01*
X3930000Y-49430000D01*
X4380000Y-49430000D01*
X4380000Y-49930000D01*
X3930000Y-49930000D01*
X3930000Y-50153873D01*
X3958820Y-50298759D01*
X3958822Y-50298767D01*
X4015357Y-50435254D01*
X4015365Y-50435269D01*
X4096442Y-50556610D01*
X4117320Y-50623287D01*
X4098835Y-50690667D01*
X4046856Y-50737357D01*
X3993340Y-50749500D01*
X2009081Y-50749500D01*
X1942042Y-50729815D01*
X1896287Y-50677011D01*
X1886343Y-50607853D01*
X1915368Y-50544297D01*
X1950628Y-50516142D01*
X1966450Y-50507685D01*
X2126410Y-50376410D01*
X2257685Y-50216450D01*
X2355232Y-50033954D01*
X2415300Y-49835934D01*
X2435583Y-49630000D01*
X2415300Y-49424066D01*
X2355232Y-49226046D01*
X2257685Y-49043550D01*
X2160177Y-48924735D01*
X2126410Y-48883589D01*
X1966452Y-48752317D01*
X1966453Y-48752317D01*
X1966450Y-48752315D01*
X1783954Y-48654768D01*
X1585934Y-48594700D01*
X1585932Y-48594699D01*
X1585934Y-48594699D01*
X1380000Y-48574417D01*
X1174067Y-48594699D01*
X976043Y-48654769D01*
X896220Y-48697436D01*
X793550Y-48752315D01*
X793548Y-48752316D01*
X793547Y-48752317D01*
X703164Y-48826492D01*
X638854Y-48853804D01*
X569987Y-48842013D01*
X518427Y-48794860D01*
X500500Y-48730638D01*
X500500Y-47989361D01*
X520185Y-47922322D01*
X572989Y-47876567D01*
X642147Y-47866623D01*
X703163Y-47893507D01*
X793550Y-47967685D01*
X976046Y-48065232D01*
X1174066Y-48125300D01*
X1174065Y-48125300D01*
X1192529Y-48127118D01*
X1380000Y-48145583D01*
X1585934Y-48125300D01*
X1783954Y-48065232D01*
X1966450Y-47967685D01*
X2126410Y-47836410D01*
X2257685Y-47676450D01*
X2355232Y-47493954D01*
X2415300Y-47295934D01*
X2435583Y-47090000D01*
X2415300Y-46884066D01*
X2355232Y-46686046D01*
X2257685Y-46503550D01*
X2160603Y-46385254D01*
X2126410Y-46343589D01*
X2002060Y-46241539D01*
X1966450Y-46212315D01*
X1783954Y-46114768D01*
X1585934Y-46054700D01*
X1585932Y-46054699D01*
X1585934Y-46054699D01*
X1380000Y-46034417D01*
X1174067Y-46054699D01*
X976043Y-46114769D01*
X917997Y-46145796D01*
X793550Y-46212315D01*
X793548Y-46212316D01*
X793547Y-46212317D01*
X703164Y-46286492D01*
X638854Y-46313804D01*
X569987Y-46302013D01*
X518427Y-46254860D01*
X500500Y-46190638D01*
X500500Y-45449361D01*
X520185Y-45382322D01*
X572989Y-45336567D01*
X642147Y-45326623D01*
X703163Y-45353507D01*
X744778Y-45387659D01*
X774013Y-45411652D01*
X793550Y-45427685D01*
X976046Y-45525232D01*
X1174066Y-45585300D01*
X1174065Y-45585300D01*
X1192529Y-45587118D01*
X1380000Y-45605583D01*
X1585934Y-45585300D01*
X1783954Y-45525232D01*
X1966450Y-45427685D01*
X2126410Y-45296410D01*
X2257685Y-45136450D01*
X2355232Y-44953954D01*
X2415300Y-44755934D01*
X2430607Y-44600517D01*
X2819508Y-44600517D01*
X2819508Y-44600524D01*
X2839352Y-44725821D01*
X2839352Y-44725822D01*
X2839354Y-44725825D01*
X2896950Y-44838863D01*
X2896952Y-44838865D01*
X2896954Y-44838868D01*
X2986652Y-44928566D01*
X2986654Y-44928567D01*
X2986658Y-44928571D01*
X3099696Y-44986167D01*
X3099697Y-44986167D01*
X3099699Y-44986168D01*
X3224997Y-45006013D01*
X3225000Y-45006013D01*
X3225003Y-45006013D01*
X3350300Y-44986168D01*
X3350301Y-44986168D01*
X3350302Y-44986167D01*
X3350304Y-44986167D01*
X3463342Y-44928571D01*
X3535787Y-44856126D01*
X3930000Y-44856126D01*
X3930000Y-45230000D01*
X4380000Y-45230000D01*
X4380000Y-45730000D01*
X3930000Y-45730000D01*
X3930000Y-46103873D01*
X3958820Y-46248759D01*
X3958822Y-46248767D01*
X4015357Y-46385254D01*
X4015362Y-46385264D01*
X4097436Y-46508096D01*
X4097439Y-46508100D01*
X4201899Y-46612560D01*
X4201907Y-46612566D01*
X4324739Y-46694640D01*
X4324743Y-46694642D01*
X4429999Y-46738240D01*
X4430000Y-46738240D01*
X4430000Y-46196988D01*
X4439940Y-46214205D01*
X4495795Y-46270060D01*
X4564204Y-46309556D01*
X4640504Y-46330000D01*
X4719496Y-46330000D01*
X4795796Y-46309556D01*
X4864205Y-46270060D01*
X4920060Y-46214205D01*
X4930000Y-46196988D01*
X4930000Y-46738240D01*
X5035256Y-46694642D01*
X5035260Y-46694640D01*
X5158092Y-46612566D01*
X5158100Y-46612560D01*
X5262560Y-46508100D01*
X5262563Y-46508096D01*
X5344637Y-46385264D01*
X5344644Y-46385251D01*
X5383453Y-46291558D01*
X5427294Y-46237154D01*
X5493588Y-46215089D01*
X5561287Y-46232368D01*
X5605401Y-46277010D01*
X5649482Y-46353361D01*
X5649484Y-46353363D01*
X5649485Y-46353365D01*
X5756635Y-46460515D01*
X5887865Y-46536281D01*
X6034234Y-46575500D01*
X6034236Y-46575500D01*
X6185764Y-46575500D01*
X6185766Y-46575500D01*
X6332135Y-46536281D01*
X6463365Y-46460515D01*
X6570515Y-46353365D01*
X6646281Y-46222135D01*
X6685500Y-46075766D01*
X6685500Y-45924234D01*
X6646281Y-45777865D01*
X6644802Y-45775304D01*
X6618646Y-45730000D01*
X6572455Y-45649996D01*
X8344508Y-45649996D01*
X8344508Y-45650003D01*
X8364352Y-45775300D01*
X8364352Y-45775301D01*
X8382805Y-45811517D01*
X8421950Y-45888342D01*
X8421952Y-45888344D01*
X8421954Y-45888347D01*
X8511652Y-45978045D01*
X8511654Y-45978046D01*
X8511658Y-45978050D01*
X8624696Y-46035646D01*
X8624697Y-46035646D01*
X8624699Y-46035647D01*
X8749997Y-46055492D01*
X8750000Y-46055492D01*
X8750003Y-46055492D01*
X8875300Y-46035647D01*
X8875301Y-46035647D01*
X8875302Y-46035646D01*
X8875304Y-46035646D01*
X8988342Y-45978050D01*
X9078050Y-45888342D01*
X9135646Y-45775304D01*
X9135646Y-45775302D01*
X9139515Y-45767710D01*
X9187490Y-45716914D01*
X9255311Y-45700119D01*
X9321446Y-45722657D01*
X9360485Y-45767710D01*
X9364353Y-45775302D01*
X9364354Y-45775304D01*
X9421950Y-45888342D01*
X9421952Y-45888344D01*
X9421954Y-45888347D01*
X9511652Y-45978045D01*
X9511654Y-45978046D01*
X9511658Y-45978050D01*
X9624696Y-46035646D01*
X9624697Y-46035646D01*
X9624699Y-46035647D01*
X9749997Y-46055492D01*
X9750000Y-46055492D01*
X9750003Y-46055492D01*
X9875300Y-46035647D01*
X9875301Y-46035647D01*
X9875302Y-46035646D01*
X9875304Y-46035646D01*
X9988342Y-45978050D01*
X10056550Y-45909841D01*
X10117871Y-45876358D01*
X10187563Y-45881342D01*
X10243497Y-45923213D01*
X10254709Y-45941220D01*
X10290594Y-46011647D01*
X10290595Y-46011648D01*
X10290598Y-46011652D01*
X10380296Y-46101350D01*
X10380298Y-46101351D01*
X10380302Y-46101355D01*
X10493340Y-46158951D01*
X10493341Y-46158951D01*
X10493343Y-46158952D01*
X10618641Y-46178797D01*
X10618644Y-46178797D01*
X10618647Y-46178797D01*
X10743944Y-46158952D01*
X10743945Y-46158952D01*
X10743946Y-46158951D01*
X10743948Y-46158951D01*
X10856986Y-46101355D01*
X10946694Y-46011647D01*
X10991233Y-45924234D01*
X11314500Y-45924234D01*
X11314500Y-46075766D01*
X11324951Y-46114769D01*
X11353719Y-46222136D01*
X11385401Y-46277010D01*
X11429485Y-46353365D01*
X11536635Y-46460515D01*
X11667865Y-46536281D01*
X11814234Y-46575500D01*
X11814236Y-46575500D01*
X11965764Y-46575500D01*
X11965766Y-46575500D01*
X12112135Y-46536281D01*
X12243365Y-46460515D01*
X12350515Y-46353365D01*
X12394598Y-46277010D01*
X12445164Y-46228795D01*
X12513771Y-46215571D01*
X12578636Y-46241539D01*
X12616546Y-46291557D01*
X12655357Y-46385254D01*
X12655362Y-46385264D01*
X12737436Y-46508096D01*
X12737439Y-46508100D01*
X12841899Y-46612560D01*
X12841907Y-46612566D01*
X12964739Y-46694640D01*
X12964743Y-46694642D01*
X13069999Y-46738240D01*
X13070000Y-46738240D01*
X13070000Y-46196988D01*
X13079940Y-46214205D01*
X13135795Y-46270060D01*
X13204204Y-46309556D01*
X13280504Y-46330000D01*
X13359496Y-46330000D01*
X13435796Y-46309556D01*
X13504205Y-46270060D01*
X13560060Y-46214205D01*
X13570000Y-46196988D01*
X13570000Y-46738240D01*
X13675256Y-46694642D01*
X13675260Y-46694640D01*
X13798092Y-46612566D01*
X13798100Y-46612560D01*
X13902560Y-46508100D01*
X13902563Y-46508096D01*
X13984637Y-46385264D01*
X13984642Y-46385254D01*
X14041177Y-46248767D01*
X14041179Y-46248759D01*
X14069999Y-46103873D01*
X14070000Y-46103871D01*
X14070000Y-45730000D01*
X13620000Y-45730000D01*
X13620000Y-45230000D01*
X14070000Y-45230000D01*
X14070000Y-44856128D01*
X14069999Y-44856126D01*
X14041179Y-44711240D01*
X14041177Y-44711232D01*
X13984642Y-44574745D01*
X13984637Y-44574735D01*
X13902563Y-44451903D01*
X13902560Y-44451899D01*
X13798100Y-44347439D01*
X13798096Y-44347436D01*
X13675264Y-44265362D01*
X13675254Y-44265357D01*
X13570000Y-44221759D01*
X13570000Y-44763011D01*
X13560060Y-44745795D01*
X13504205Y-44689940D01*
X13435796Y-44650444D01*
X13359496Y-44630000D01*
X13280504Y-44630000D01*
X13204204Y-44650444D01*
X13135795Y-44689940D01*
X13079940Y-44745795D01*
X13070000Y-44763011D01*
X13070000Y-44221759D01*
X13069999Y-44221759D01*
X12964745Y-44265357D01*
X12964735Y-44265362D01*
X12841903Y-44347436D01*
X12841899Y-44347439D01*
X12737439Y-44451899D01*
X12737436Y-44451903D01*
X12655362Y-44574735D01*
X12655357Y-44574745D01*
X12598822Y-44711232D01*
X12598820Y-44711240D01*
X12570000Y-44856126D01*
X12570000Y-45230000D01*
X13020000Y-45230000D01*
X13020000Y-45730000D01*
X12565316Y-45730000D01*
X12514309Y-45757851D01*
X12444618Y-45752865D01*
X12388685Y-45710993D01*
X12380566Y-45698685D01*
X12350515Y-45646635D01*
X12243365Y-45539485D01*
X12143927Y-45482074D01*
X12112136Y-45463719D01*
X12038950Y-45444109D01*
X11965766Y-45424500D01*
X11814234Y-45424500D01*
X11667863Y-45463719D01*
X11536635Y-45539485D01*
X11536632Y-45539487D01*
X11429487Y-45646632D01*
X11429485Y-45646635D01*
X11353719Y-45777863D01*
X11327328Y-45876358D01*
X11314500Y-45924234D01*
X10991233Y-45924234D01*
X11004290Y-45898609D01*
X11004290Y-45898607D01*
X11004291Y-45898606D01*
X11004291Y-45898605D01*
X11024136Y-45773308D01*
X11024136Y-45773301D01*
X11004291Y-45648004D01*
X11004291Y-45648003D01*
X11004290Y-45648001D01*
X10946694Y-45534963D01*
X10946690Y-45534959D01*
X10946689Y-45534957D01*
X10856991Y-45445259D01*
X10856988Y-45445257D01*
X10856986Y-45445255D01*
X10743948Y-45387659D01*
X10743947Y-45387658D01*
X10743944Y-45387657D01*
X10618647Y-45367813D01*
X10618641Y-45367813D01*
X10493343Y-45387657D01*
X10493342Y-45387657D01*
X10421036Y-45424500D01*
X10380302Y-45445255D01*
X10380301Y-45445256D01*
X10380299Y-45445256D01*
X10312094Y-45513462D01*
X10250770Y-45546946D01*
X10181079Y-45541961D01*
X10125145Y-45500090D01*
X10113932Y-45482082D01*
X10078050Y-45411658D01*
X10078047Y-45411655D01*
X10078045Y-45411652D01*
X9988347Y-45321954D01*
X9988344Y-45321952D01*
X9988342Y-45321950D01*
X9875304Y-45264354D01*
X9875303Y-45264353D01*
X9875300Y-45264352D01*
X9750003Y-45244508D01*
X9749997Y-45244508D01*
X9624699Y-45264352D01*
X9624698Y-45264352D01*
X9561783Y-45296410D01*
X9511658Y-45321950D01*
X9511657Y-45321951D01*
X9511652Y-45321954D01*
X9421954Y-45411652D01*
X9421949Y-45411659D01*
X9360484Y-45532290D01*
X9312510Y-45583085D01*
X9244689Y-45599880D01*
X9178554Y-45577342D01*
X9139516Y-45532290D01*
X9097261Y-45449361D01*
X9078050Y-45411658D01*
X9078047Y-45411655D01*
X9078045Y-45411652D01*
X8988347Y-45321954D01*
X8988344Y-45321952D01*
X8988342Y-45321950D01*
X8875304Y-45264354D01*
X8875303Y-45264353D01*
X8875300Y-45264352D01*
X8750003Y-45244508D01*
X8749997Y-45244508D01*
X8624699Y-45264352D01*
X8624698Y-45264352D01*
X8561783Y-45296410D01*
X8511658Y-45321950D01*
X8511657Y-45321951D01*
X8511652Y-45321954D01*
X8421954Y-45411652D01*
X8421951Y-45411657D01*
X8421950Y-45411658D01*
X8413784Y-45427685D01*
X8364352Y-45524698D01*
X8364352Y-45524699D01*
X8344508Y-45649996D01*
X6572455Y-45649996D01*
X6570515Y-45646635D01*
X6463365Y-45539485D01*
X6363927Y-45482074D01*
X6332136Y-45463719D01*
X6258950Y-45444109D01*
X6185766Y-45424500D01*
X6034234Y-45424500D01*
X5887863Y-45463719D01*
X5756635Y-45539485D01*
X5756632Y-45539487D01*
X5649487Y-45646632D01*
X5649483Y-45646638D01*
X5619432Y-45698686D01*
X5568864Y-45746901D01*
X5500257Y-45760122D01*
X5435392Y-45734153D01*
X5430713Y-45730000D01*
X4980000Y-45730000D01*
X4980000Y-45230000D01*
X5430000Y-45230000D01*
X5430000Y-44856128D01*
X5429999Y-44856126D01*
X5401179Y-44711240D01*
X5401177Y-44711232D01*
X5344642Y-44574745D01*
X5344637Y-44574735D01*
X5262563Y-44451903D01*
X5262560Y-44451899D01*
X5158100Y-44347439D01*
X5158096Y-44347436D01*
X5035264Y-44265362D01*
X5035254Y-44265357D01*
X4930000Y-44221759D01*
X4930000Y-44763011D01*
X4920060Y-44745795D01*
X4864205Y-44689940D01*
X4795796Y-44650444D01*
X4719496Y-44630000D01*
X4640504Y-44630000D01*
X4564204Y-44650444D01*
X4495795Y-44689940D01*
X4439940Y-44745795D01*
X4430000Y-44763011D01*
X4430000Y-44221759D01*
X4429999Y-44221759D01*
X4324745Y-44265357D01*
X4324735Y-44265362D01*
X4201903Y-44347436D01*
X4201899Y-44347439D01*
X4097439Y-44451899D01*
X4097436Y-44451903D01*
X4015362Y-44574735D01*
X4015357Y-44574745D01*
X3958822Y-44711232D01*
X3958820Y-44711240D01*
X3930000Y-44856126D01*
X3535787Y-44856126D01*
X3553050Y-44838863D01*
X3610646Y-44725825D01*
X3610646Y-44725823D01*
X3610647Y-44725822D01*
X3610647Y-44725821D01*
X3630492Y-44600524D01*
X3630492Y-44600517D01*
X3610647Y-44475220D01*
X3610647Y-44475219D01*
X3598765Y-44451899D01*
X3553050Y-44362179D01*
X3553046Y-44362175D01*
X3553045Y-44362173D01*
X3463347Y-44272475D01*
X3463344Y-44272473D01*
X3463342Y-44272471D01*
X3350304Y-44214875D01*
X3350303Y-44214874D01*
X3350300Y-44214873D01*
X3225003Y-44195029D01*
X3224997Y-44195029D01*
X3099699Y-44214873D01*
X3099698Y-44214873D01*
X3024337Y-44253272D01*
X2986658Y-44272471D01*
X2986657Y-44272472D01*
X2986652Y-44272475D01*
X2896954Y-44362173D01*
X2896951Y-44362178D01*
X2839352Y-44475219D01*
X2839352Y-44475220D01*
X2819508Y-44600517D01*
X2430607Y-44600517D01*
X2435583Y-44550000D01*
X2415300Y-44344066D01*
X2355232Y-44146046D01*
X2257685Y-43963550D01*
X2205702Y-43900209D01*
X2126410Y-43803589D01*
X1966452Y-43672317D01*
X1966453Y-43672317D01*
X1966450Y-43672315D01*
X1783954Y-43574768D01*
X1585934Y-43514700D01*
X1585932Y-43514699D01*
X1585934Y-43514699D01*
X1380000Y-43494417D01*
X1174067Y-43514699D01*
X976043Y-43574769D01*
X865898Y-43633643D01*
X793550Y-43672315D01*
X793548Y-43672316D01*
X793547Y-43672317D01*
X703164Y-43746492D01*
X638854Y-43773804D01*
X569987Y-43762013D01*
X518427Y-43714860D01*
X500500Y-43650638D01*
X500500Y-42909361D01*
X520185Y-42842322D01*
X572989Y-42796567D01*
X642147Y-42786623D01*
X703165Y-42813508D01*
X791066Y-42885647D01*
X793550Y-42887685D01*
X976046Y-42985232D01*
X1174066Y-43045300D01*
X1174065Y-43045300D01*
X1192529Y-43047118D01*
X1380000Y-43065583D01*
X1585934Y-43045300D01*
X1783954Y-42985232D01*
X1966450Y-42887685D01*
X2126410Y-42756410D01*
X2257685Y-42596450D01*
X2355232Y-42413954D01*
X2415300Y-42215934D01*
X2435583Y-42010000D01*
X2415300Y-41804066D01*
X2355232Y-41606046D01*
X2271821Y-41449996D01*
X4944508Y-41449996D01*
X4944508Y-41450003D01*
X4964352Y-41575300D01*
X4964352Y-41575301D01*
X4974139Y-41594508D01*
X5021950Y-41688342D01*
X5021952Y-41688344D01*
X5021954Y-41688347D01*
X5111652Y-41778045D01*
X5111654Y-41778046D01*
X5111658Y-41778050D01*
X5224696Y-41835646D01*
X5224697Y-41835646D01*
X5224699Y-41835647D01*
X5349997Y-41855492D01*
X5350000Y-41855492D01*
X5350003Y-41855492D01*
X5475301Y-41835647D01*
X5476539Y-41835245D01*
X5478128Y-41835199D01*
X5484944Y-41834120D01*
X5485083Y-41835000D01*
X5546380Y-41833246D01*
X5606214Y-41869324D01*
X5625346Y-41896878D01*
X5671949Y-41988340D01*
X5671954Y-41988347D01*
X5761652Y-42078045D01*
X5761654Y-42078046D01*
X5761658Y-42078050D01*
X5874696Y-42135646D01*
X5874697Y-42135646D01*
X5874699Y-42135647D01*
X5999997Y-42155492D01*
X6000000Y-42155492D01*
X6000003Y-42155492D01*
X6125300Y-42135647D01*
X6125301Y-42135647D01*
X6125302Y-42135646D01*
X6125304Y-42135646D01*
X6238342Y-42078050D01*
X6316396Y-41999996D01*
X10394508Y-41999996D01*
X10394508Y-42000003D01*
X10414352Y-42125300D01*
X10414353Y-42125304D01*
X10449206Y-42193706D01*
X10462102Y-42262375D01*
X10449206Y-42306294D01*
X10414353Y-42374695D01*
X10414352Y-42374699D01*
X10394508Y-42499996D01*
X10394508Y-42500003D01*
X10414352Y-42625300D01*
X10414352Y-42625301D01*
X10419624Y-42635647D01*
X10471950Y-42738342D01*
X10471952Y-42738344D01*
X10471954Y-42738347D01*
X10561652Y-42828045D01*
X10561654Y-42828046D01*
X10561658Y-42828050D01*
X10674696Y-42885646D01*
X10674697Y-42885646D01*
X10674699Y-42885647D01*
X10799997Y-42905492D01*
X10800000Y-42905492D01*
X10800003Y-42905492D01*
X10925300Y-42885647D01*
X10925301Y-42885647D01*
X10925302Y-42885646D01*
X10925304Y-42885646D01*
X11038342Y-42828050D01*
X11128050Y-42738342D01*
X11164133Y-42667524D01*
X11212105Y-42616731D01*
X11279925Y-42599935D01*
X11330909Y-42613335D01*
X11374696Y-42635646D01*
X11374697Y-42635646D01*
X11374699Y-42635647D01*
X11499997Y-42655492D01*
X11500000Y-42655492D01*
X11500003Y-42655492D01*
X11625300Y-42635647D01*
X11625301Y-42635647D01*
X11625302Y-42635646D01*
X11625304Y-42635646D01*
X11738342Y-42578050D01*
X11828050Y-42488342D01*
X11885646Y-42375304D01*
X11885646Y-42375302D01*
X11885647Y-42375301D01*
X11885647Y-42375300D01*
X11905492Y-42250003D01*
X11905492Y-42249996D01*
X11885647Y-42124699D01*
X11885646Y-42124696D01*
X11864597Y-42083386D01*
X11851700Y-42014717D01*
X11877976Y-41949976D01*
X11935082Y-41909719D01*
X11994483Y-41904618D01*
X12000000Y-41905492D01*
X12000001Y-41905491D01*
X12000002Y-41905492D01*
X12000003Y-41905492D01*
X12125300Y-41885647D01*
X12125301Y-41885647D01*
X12125302Y-41885646D01*
X12125304Y-41885646D01*
X12238342Y-41828050D01*
X12262326Y-41804066D01*
X12287319Y-41779074D01*
X12348642Y-41745589D01*
X12418334Y-41750573D01*
X12462681Y-41779074D01*
X12511652Y-41828045D01*
X12511654Y-41828046D01*
X12511658Y-41828050D01*
X12624696Y-41885646D01*
X12624697Y-41885646D01*
X12624699Y-41885647D01*
X12749997Y-41905492D01*
X12750000Y-41905492D01*
X12750003Y-41905492D01*
X12875300Y-41885647D01*
X12875301Y-41885647D01*
X12875302Y-41885646D01*
X12875304Y-41885646D01*
X12988342Y-41828050D01*
X13078050Y-41738342D01*
X13135646Y-41625304D01*
X13135646Y-41625302D01*
X13135647Y-41625301D01*
X13135647Y-41625300D01*
X13155492Y-41500003D01*
X13155492Y-41499996D01*
X13135647Y-41374699D01*
X13135647Y-41374698D01*
X13125000Y-41353802D01*
X13078050Y-41261658D01*
X13078046Y-41261654D01*
X13078045Y-41261652D01*
X12988347Y-41171954D01*
X12988344Y-41171952D01*
X12988342Y-41171950D01*
X12875304Y-41114354D01*
X12875303Y-41114353D01*
X12875300Y-41114352D01*
X12750003Y-41094508D01*
X12749997Y-41094508D01*
X12624699Y-41114352D01*
X12624698Y-41114352D01*
X12549337Y-41152751D01*
X12511658Y-41171950D01*
X12511657Y-41171951D01*
X12511652Y-41171954D01*
X12462681Y-41220926D01*
X12401358Y-41254411D01*
X12331666Y-41249427D01*
X12287319Y-41220926D01*
X12238347Y-41171954D01*
X12238344Y-41171952D01*
X12238342Y-41171950D01*
X12125304Y-41114354D01*
X12125303Y-41114353D01*
X12125300Y-41114352D01*
X12000003Y-41094508D01*
X11999997Y-41094508D01*
X11874699Y-41114352D01*
X11874698Y-41114352D01*
X11799337Y-41152751D01*
X11761658Y-41171950D01*
X11761657Y-41171951D01*
X11761652Y-41171954D01*
X11671950Y-41261657D01*
X11671949Y-41261657D01*
X11660946Y-41283252D01*
X11612971Y-41334046D01*
X11545149Y-41350840D01*
X11531068Y-41349428D01*
X11500000Y-41344508D01*
X11499997Y-41344508D01*
X11374699Y-41364352D01*
X11374698Y-41364352D01*
X11299337Y-41402751D01*
X11261658Y-41421950D01*
X11261657Y-41421951D01*
X11261652Y-41421954D01*
X11171954Y-41511652D01*
X11171950Y-41511657D01*
X11135866Y-41582475D01*
X11087891Y-41633270D01*
X11020069Y-41650064D01*
X10969088Y-41636663D01*
X10925304Y-41614354D01*
X10925303Y-41614353D01*
X10925300Y-41614352D01*
X10800003Y-41594508D01*
X10799997Y-41594508D01*
X10674699Y-41614352D01*
X10674698Y-41614352D01*
X10630912Y-41636663D01*
X10561658Y-41671950D01*
X10561657Y-41671951D01*
X10561652Y-41671954D01*
X10471954Y-41761652D01*
X10471951Y-41761657D01*
X10471950Y-41761658D01*
X10463599Y-41778048D01*
X10414352Y-41874698D01*
X10414352Y-41874699D01*
X10394508Y-41999996D01*
X6316396Y-41999996D01*
X6328050Y-41988342D01*
X6385646Y-41875304D01*
X6385646Y-41875302D01*
X6385647Y-41875301D01*
X6385647Y-41875300D01*
X6405492Y-41750003D01*
X6405492Y-41749996D01*
X6385647Y-41624699D01*
X6385646Y-41624696D01*
X6350794Y-41556296D01*
X6337897Y-41487626D01*
X6350794Y-41443704D01*
X6361063Y-41423550D01*
X6385646Y-41375304D01*
X6385742Y-41374698D01*
X6405492Y-41250003D01*
X6405492Y-41249996D01*
X6385647Y-41124699D01*
X6385646Y-41124696D01*
X6355703Y-41065930D01*
X6350793Y-41056295D01*
X6337897Y-40987626D01*
X6350794Y-40943704D01*
X6378529Y-40889271D01*
X6385646Y-40875304D01*
X6385647Y-40875300D01*
X6405492Y-40750003D01*
X6405492Y-40749996D01*
X6385647Y-40624699D01*
X6385647Y-40624698D01*
X6385646Y-40624696D01*
X6328050Y-40511658D01*
X6328046Y-40511654D01*
X6328045Y-40511652D01*
X6231442Y-40415049D01*
X6233485Y-40413005D01*
X6200317Y-40370000D01*
X6194330Y-40300388D01*
X6226929Y-40238589D01*
X6233482Y-40232910D01*
X6328045Y-40138347D01*
X6328050Y-40138342D01*
X6385646Y-40025304D01*
X6404321Y-39907392D01*
X6434248Y-39844262D01*
X6493559Y-39807330D01*
X6507372Y-39804324D01*
X6625304Y-39785646D01*
X6738342Y-39728050D01*
X6828050Y-39638342D01*
X6885646Y-39525304D01*
X6885646Y-39525302D01*
X6885647Y-39525301D01*
X6885647Y-39525300D01*
X6905492Y-39400003D01*
X6905492Y-39399996D01*
X6885647Y-39274699D01*
X6885647Y-39274698D01*
X6880230Y-39264066D01*
X6828050Y-39161658D01*
X6828046Y-39161654D01*
X6828045Y-39161652D01*
X6738347Y-39071954D01*
X6738344Y-39071952D01*
X6738342Y-39071950D01*
X6625304Y-39014354D01*
X6625303Y-39014353D01*
X6625300Y-39014352D01*
X6500003Y-38994508D01*
X6499997Y-38994508D01*
X6374699Y-39014352D01*
X6374698Y-39014352D01*
X6299337Y-39052751D01*
X6261658Y-39071950D01*
X6261657Y-39071951D01*
X6261652Y-39071954D01*
X6171954Y-39161652D01*
X6171951Y-39161657D01*
X6114352Y-39274698D01*
X6114352Y-39274699D01*
X6095679Y-39392603D01*
X6065750Y-39455738D01*
X6006439Y-39492670D01*
X5992603Y-39495679D01*
X5874699Y-39514352D01*
X5874698Y-39514352D01*
X5799337Y-39552751D01*
X5761658Y-39571950D01*
X5761657Y-39571951D01*
X5761652Y-39571954D01*
X5671954Y-39661652D01*
X5671951Y-39661657D01*
X5614352Y-39774698D01*
X5614352Y-39774699D01*
X5594508Y-39899996D01*
X5594508Y-39900003D01*
X5614352Y-40025300D01*
X5614352Y-40025301D01*
X5614354Y-40025304D01*
X5671950Y-40138342D01*
X5671952Y-40138344D01*
X5671954Y-40138347D01*
X5768558Y-40234951D01*
X5766515Y-40236993D01*
X5799689Y-40280016D01*
X5805665Y-40349630D01*
X5773057Y-40411424D01*
X5766512Y-40417094D01*
X5671954Y-40511652D01*
X5671951Y-40511657D01*
X5671950Y-40511658D01*
X5664855Y-40525583D01*
X5614352Y-40624698D01*
X5614352Y-40624699D01*
X5594508Y-40749996D01*
X5594508Y-40750003D01*
X5614352Y-40875300D01*
X5621471Y-40889271D01*
X5634367Y-40957940D01*
X5608091Y-41022680D01*
X5550985Y-41062938D01*
X5484961Y-41065767D01*
X5484944Y-41065880D01*
X5484390Y-41065792D01*
X5481179Y-41065930D01*
X5476110Y-41064480D01*
X5350003Y-41044508D01*
X5349997Y-41044508D01*
X5224699Y-41064352D01*
X5224698Y-41064352D01*
X5149337Y-41102751D01*
X5111658Y-41121950D01*
X5111657Y-41121951D01*
X5111652Y-41121954D01*
X5021954Y-41211652D01*
X5021951Y-41211657D01*
X4964352Y-41324698D01*
X4964352Y-41324699D01*
X4944508Y-41449996D01*
X2271821Y-41449996D01*
X2257685Y-41423550D01*
X2192817Y-41344508D01*
X2126410Y-41263589D01*
X2008677Y-41166969D01*
X1966450Y-41132315D01*
X1783954Y-41034768D01*
X1585934Y-40974700D01*
X1585932Y-40974699D01*
X1585934Y-40974699D01*
X1380000Y-40954417D01*
X1174067Y-40974699D01*
X976043Y-41034769D01*
X880861Y-41085646D01*
X793550Y-41132315D01*
X793548Y-41132316D01*
X793547Y-41132317D01*
X703164Y-41206492D01*
X638854Y-41233804D01*
X569987Y-41222013D01*
X518427Y-41174860D01*
X500500Y-41110638D01*
X500500Y-40699996D01*
X4144508Y-40699996D01*
X4144508Y-40700003D01*
X4164352Y-40825300D01*
X4164352Y-40825301D01*
X4164354Y-40825304D01*
X4221950Y-40938342D01*
X4221952Y-40938344D01*
X4221954Y-40938347D01*
X4311652Y-41028045D01*
X4311654Y-41028046D01*
X4311658Y-41028050D01*
X4424696Y-41085646D01*
X4424697Y-41085646D01*
X4424699Y-41085647D01*
X4549997Y-41105492D01*
X4550000Y-41105492D01*
X4550003Y-41105492D01*
X4675300Y-41085647D01*
X4675301Y-41085647D01*
X4675302Y-41085646D01*
X4675304Y-41085646D01*
X4788342Y-41028050D01*
X4878050Y-40938342D01*
X4935646Y-40825304D01*
X4935646Y-40825302D01*
X4935647Y-40825301D01*
X4935647Y-40825300D01*
X4955492Y-40700003D01*
X4955492Y-40699996D01*
X4935647Y-40574699D01*
X4935647Y-40574698D01*
X4935646Y-40574696D01*
X4878050Y-40461658D01*
X4878046Y-40461654D01*
X4878045Y-40461652D01*
X4788347Y-40371954D01*
X4788344Y-40371952D01*
X4788342Y-40371950D01*
X4675304Y-40314354D01*
X4675303Y-40314353D01*
X4675300Y-40314352D01*
X4550003Y-40294508D01*
X4549997Y-40294508D01*
X4424699Y-40314352D01*
X4424698Y-40314352D01*
X4355463Y-40349630D01*
X4311658Y-40371950D01*
X4311657Y-40371951D01*
X4311652Y-40371954D01*
X4221954Y-40461652D01*
X4221951Y-40461657D01*
X4164352Y-40574698D01*
X4164352Y-40574699D01*
X4144508Y-40699996D01*
X500500Y-40699996D01*
X500500Y-40369361D01*
X520185Y-40302322D01*
X572989Y-40256567D01*
X642147Y-40246623D01*
X703165Y-40273508D01*
X789678Y-40344508D01*
X793550Y-40347685D01*
X976046Y-40445232D01*
X1174066Y-40505300D01*
X1174065Y-40505300D01*
X1192529Y-40507118D01*
X1380000Y-40525583D01*
X1585934Y-40505300D01*
X1783954Y-40445232D01*
X1966450Y-40347685D01*
X2126410Y-40216410D01*
X2257685Y-40056450D01*
X2355232Y-39873954D01*
X2415300Y-39675934D01*
X2435583Y-39470000D01*
X2415300Y-39264066D01*
X2355232Y-39066046D01*
X2257685Y-38883550D01*
X2205702Y-38820209D01*
X2126410Y-38723589D01*
X1966452Y-38592317D01*
X1966453Y-38592317D01*
X1966450Y-38592315D01*
X1793735Y-38499996D01*
X11494508Y-38499996D01*
X11494508Y-38500003D01*
X11514352Y-38625300D01*
X11514352Y-38625301D01*
X11514354Y-38625304D01*
X11571950Y-38738342D01*
X11571952Y-38738344D01*
X11571954Y-38738347D01*
X11661652Y-38828045D01*
X11661654Y-38828046D01*
X11661658Y-38828050D01*
X11774696Y-38885646D01*
X11774697Y-38885646D01*
X11774699Y-38885647D01*
X11899997Y-38905492D01*
X11900000Y-38905492D01*
X11900003Y-38905492D01*
X12025300Y-38885647D01*
X12025302Y-38885646D01*
X12025304Y-38885646D01*
X12138342Y-38828050D01*
X12138343Y-38828048D01*
X12143704Y-38825317D01*
X12212373Y-38812420D01*
X12256296Y-38825317D01*
X12261656Y-38828048D01*
X12261658Y-38828050D01*
X12370582Y-38883550D01*
X12374696Y-38885646D01*
X12374699Y-38885647D01*
X12499997Y-38905492D01*
X12500000Y-38905492D01*
X12500003Y-38905492D01*
X12625300Y-38885647D01*
X12625301Y-38885647D01*
X12625302Y-38885646D01*
X12625304Y-38885646D01*
X12738342Y-38828050D01*
X12828050Y-38738342D01*
X12885646Y-38625304D01*
X12885646Y-38625302D01*
X12885647Y-38625301D01*
X12885647Y-38625300D01*
X12905492Y-38500003D01*
X12905492Y-38499996D01*
X12885647Y-38374699D01*
X12885647Y-38374698D01*
X12885646Y-38374696D01*
X12828050Y-38261658D01*
X12828046Y-38261654D01*
X12828045Y-38261652D01*
X12738347Y-38171954D01*
X12738344Y-38171952D01*
X12738342Y-38171950D01*
X12625304Y-38114354D01*
X12625303Y-38114353D01*
X12625300Y-38114352D01*
X12500003Y-38094508D01*
X12499997Y-38094508D01*
X12374699Y-38114352D01*
X12374698Y-38114352D01*
X12290747Y-38157128D01*
X12261658Y-38171950D01*
X12261657Y-38171950D01*
X12256295Y-38174683D01*
X12187626Y-38187579D01*
X12143705Y-38174683D01*
X12138342Y-38171950D01*
X12025304Y-38114354D01*
X12025303Y-38114353D01*
X12025300Y-38114352D01*
X11900003Y-38094508D01*
X11899997Y-38094508D01*
X11774699Y-38114352D01*
X11774698Y-38114352D01*
X11699337Y-38152751D01*
X11661658Y-38171950D01*
X11661657Y-38171951D01*
X11661652Y-38171954D01*
X11571954Y-38261652D01*
X11571951Y-38261657D01*
X11514352Y-38374698D01*
X11514352Y-38374699D01*
X11494508Y-38499996D01*
X1793735Y-38499996D01*
X1783954Y-38494768D01*
X1585934Y-38434700D01*
X1585932Y-38434699D01*
X1585934Y-38434699D01*
X1380000Y-38414417D01*
X1174067Y-38434699D01*
X976043Y-38494769D01*
X865898Y-38553643D01*
X793550Y-38592315D01*
X793548Y-38592316D01*
X793547Y-38592317D01*
X703164Y-38666492D01*
X638854Y-38693804D01*
X569987Y-38682013D01*
X518427Y-38634860D01*
X500500Y-38570638D01*
X500500Y-37829361D01*
X520185Y-37762322D01*
X572989Y-37716567D01*
X642147Y-37706623D01*
X703163Y-37733507D01*
X793550Y-37807685D01*
X976046Y-37905232D01*
X1174066Y-37965300D01*
X1174065Y-37965300D01*
X1192529Y-37967118D01*
X1380000Y-37985583D01*
X1585934Y-37965300D01*
X1783954Y-37905232D01*
X1966450Y-37807685D01*
X2126410Y-37676410D01*
X2257685Y-37516450D01*
X2355232Y-37333954D01*
X2415300Y-37135934D01*
X2428689Y-36999996D01*
X7094508Y-36999996D01*
X7094508Y-37000003D01*
X7114352Y-37125300D01*
X7114352Y-37125301D01*
X7114354Y-37125304D01*
X7171950Y-37238342D01*
X7171952Y-37238344D01*
X7171954Y-37238347D01*
X7261652Y-37328045D01*
X7261654Y-37328046D01*
X7261658Y-37328050D01*
X7374696Y-37385646D01*
X7374697Y-37385646D01*
X7374699Y-37385647D01*
X7499997Y-37405492D01*
X7500000Y-37405492D01*
X7500003Y-37405492D01*
X7625300Y-37385647D01*
X7625301Y-37385647D01*
X7625302Y-37385646D01*
X7625304Y-37385646D01*
X7738342Y-37328050D01*
X7828050Y-37238342D01*
X7885646Y-37125304D01*
X7885646Y-37125302D01*
X7885647Y-37125301D01*
X7885647Y-37125300D01*
X7905492Y-37000003D01*
X7905492Y-36999996D01*
X7885647Y-36874699D01*
X7885647Y-36874698D01*
X7885646Y-36874696D01*
X7828050Y-36761658D01*
X7828046Y-36761654D01*
X7828045Y-36761652D01*
X7738347Y-36671954D01*
X7738344Y-36671952D01*
X7738342Y-36671950D01*
X7625304Y-36614354D01*
X7625303Y-36614353D01*
X7625300Y-36614352D01*
X7500003Y-36594508D01*
X7499997Y-36594508D01*
X7374699Y-36614352D01*
X7374698Y-36614352D01*
X7299337Y-36652751D01*
X7261658Y-36671950D01*
X7261657Y-36671951D01*
X7261652Y-36671954D01*
X7171954Y-36761652D01*
X7171951Y-36761657D01*
X7114352Y-36874698D01*
X7114352Y-36874699D01*
X7094508Y-36999996D01*
X2428689Y-36999996D01*
X2435583Y-36930000D01*
X2415300Y-36724066D01*
X2355232Y-36526046D01*
X2257685Y-36343550D01*
X2221941Y-36299996D01*
X8694508Y-36299996D01*
X8694508Y-36300003D01*
X8714352Y-36425300D01*
X8714352Y-36425301D01*
X8714354Y-36425304D01*
X8771950Y-36538342D01*
X8771952Y-36538344D01*
X8771954Y-36538347D01*
X8861652Y-36628045D01*
X8861654Y-36628046D01*
X8861658Y-36628050D01*
X8974696Y-36685646D01*
X8974697Y-36685646D01*
X8974699Y-36685647D01*
X9099997Y-36705492D01*
X9100000Y-36705492D01*
X9100003Y-36705492D01*
X9225300Y-36685647D01*
X9225301Y-36685647D01*
X9225302Y-36685646D01*
X9225304Y-36685646D01*
X9338342Y-36628050D01*
X9428050Y-36538342D01*
X9485646Y-36425304D01*
X9485646Y-36425302D01*
X9485647Y-36425301D01*
X9485647Y-36425300D01*
X9505492Y-36300003D01*
X9505492Y-36299996D01*
X9485647Y-36174699D01*
X9485647Y-36174698D01*
X9468993Y-36142013D01*
X9428050Y-36061658D01*
X9428046Y-36061654D01*
X9428045Y-36061652D01*
X9338347Y-35971954D01*
X9338344Y-35971952D01*
X9338342Y-35971950D01*
X9225304Y-35914354D01*
X9225303Y-35914353D01*
X9225300Y-35914352D01*
X9100003Y-35894508D01*
X9099997Y-35894508D01*
X8974699Y-35914352D01*
X8974698Y-35914352D01*
X8899337Y-35952751D01*
X8861658Y-35971950D01*
X8861657Y-35971951D01*
X8861652Y-35971954D01*
X8771954Y-36061652D01*
X8771951Y-36061657D01*
X8714352Y-36174698D01*
X8714352Y-36174699D01*
X8694508Y-36299996D01*
X2221941Y-36299996D01*
X2205702Y-36280209D01*
X2126410Y-36183589D01*
X2008677Y-36086969D01*
X1966450Y-36052315D01*
X1783954Y-35954768D01*
X1585934Y-35894700D01*
X1585932Y-35894699D01*
X1585934Y-35894699D01*
X1380000Y-35874417D01*
X1174067Y-35894699D01*
X998692Y-35947898D01*
X979195Y-35953813D01*
X976043Y-35954769D01*
X865898Y-36013643D01*
X793550Y-36052315D01*
X793548Y-36052316D01*
X793547Y-36052317D01*
X703164Y-36126492D01*
X638854Y-36153804D01*
X569987Y-36142013D01*
X518427Y-36094860D01*
X500500Y-36030638D01*
X500500Y-35289361D01*
X520185Y-35222322D01*
X572989Y-35176567D01*
X642147Y-35166623D01*
X703163Y-35193507D01*
X793550Y-35267685D01*
X976046Y-35365232D01*
X1174066Y-35425300D01*
X1174065Y-35425300D01*
X1192529Y-35427118D01*
X1380000Y-35445583D01*
X1585934Y-35425300D01*
X1783954Y-35365232D01*
X1966450Y-35267685D01*
X2126410Y-35136410D01*
X2156294Y-35099996D01*
X5419508Y-35099996D01*
X5419508Y-35100003D01*
X5439352Y-35225300D01*
X5439352Y-35225301D01*
X5457805Y-35261517D01*
X5496950Y-35338342D01*
X5496952Y-35338344D01*
X5496954Y-35338347D01*
X5586652Y-35428045D01*
X5586654Y-35428046D01*
X5586658Y-35428050D01*
X5699696Y-35485646D01*
X5699697Y-35485646D01*
X5699699Y-35485647D01*
X5771487Y-35497017D01*
X5834622Y-35526946D01*
X5871554Y-35586257D01*
X5874563Y-35600091D01*
X5889353Y-35693468D01*
X5889352Y-35693468D01*
X5889354Y-35693471D01*
X5946950Y-35806509D01*
X5946952Y-35806511D01*
X5946954Y-35806514D01*
X6036652Y-35896212D01*
X6036654Y-35896213D01*
X6036658Y-35896217D01*
X6149696Y-35953813D01*
X6149697Y-35953813D01*
X6149699Y-35953814D01*
X6274997Y-35973659D01*
X6275000Y-35973659D01*
X6275003Y-35973659D01*
X6400300Y-35953814D01*
X6400301Y-35953814D01*
X6400302Y-35953813D01*
X6400304Y-35953813D01*
X6513342Y-35896217D01*
X6603050Y-35806509D01*
X6660646Y-35693471D01*
X6660646Y-35693469D01*
X6660647Y-35693468D01*
X6660647Y-35693467D01*
X6680492Y-35568170D01*
X6680492Y-35568163D01*
X6660647Y-35442866D01*
X6660647Y-35442865D01*
X6641604Y-35405492D01*
X6603050Y-35329825D01*
X6603046Y-35329821D01*
X6603045Y-35329819D01*
X6513347Y-35240121D01*
X6513344Y-35240119D01*
X6513342Y-35240117D01*
X6400304Y-35182521D01*
X6400302Y-35182520D01*
X6400301Y-35182520D01*
X6328510Y-35171149D01*
X6265376Y-35141219D01*
X6228445Y-35081908D01*
X6225436Y-35068074D01*
X6214654Y-34999996D01*
X12394508Y-34999996D01*
X12394508Y-35000003D01*
X12414352Y-35125300D01*
X12414352Y-35125301D01*
X12422463Y-35141219D01*
X12471950Y-35238342D01*
X12471952Y-35238344D01*
X12471954Y-35238347D01*
X12561652Y-35328045D01*
X12561654Y-35328046D01*
X12561658Y-35328050D01*
X12674696Y-35385646D01*
X12674697Y-35385646D01*
X12674699Y-35385647D01*
X12799997Y-35405492D01*
X12800000Y-35405492D01*
X12800003Y-35405492D01*
X12925300Y-35385647D01*
X12925301Y-35385647D01*
X12925302Y-35385646D01*
X12925304Y-35385646D01*
X13038342Y-35328050D01*
X13128050Y-35238342D01*
X13185646Y-35125304D01*
X13185646Y-35125302D01*
X13185647Y-35125301D01*
X13185647Y-35125300D01*
X13205492Y-35000003D01*
X13205492Y-34999996D01*
X13185647Y-34874699D01*
X13185647Y-34874698D01*
X13179000Y-34861652D01*
X13128050Y-34761658D01*
X13128046Y-34761654D01*
X13128045Y-34761652D01*
X13038347Y-34671954D01*
X13038344Y-34671952D01*
X13038342Y-34671950D01*
X12925304Y-34614354D01*
X12925303Y-34614353D01*
X12925300Y-34614352D01*
X12800003Y-34594508D01*
X12799997Y-34594508D01*
X12674699Y-34614352D01*
X12674698Y-34614352D01*
X12599337Y-34652751D01*
X12561658Y-34671950D01*
X12561657Y-34671951D01*
X12561652Y-34671954D01*
X12471954Y-34761652D01*
X12471951Y-34761657D01*
X12471950Y-34761658D01*
X12466704Y-34771954D01*
X12414352Y-34874698D01*
X12414352Y-34874699D01*
X12394508Y-34999996D01*
X6214654Y-34999996D01*
X6210647Y-34974698D01*
X6209809Y-34973054D01*
X6153050Y-34861658D01*
X6153046Y-34861654D01*
X6153045Y-34861652D01*
X6063347Y-34771954D01*
X6063344Y-34771952D01*
X6063342Y-34771950D01*
X5950304Y-34714354D01*
X5950303Y-34714353D01*
X5950300Y-34714352D01*
X5825003Y-34694508D01*
X5824997Y-34694508D01*
X5699699Y-34714352D01*
X5699698Y-34714352D01*
X5624337Y-34752751D01*
X5586658Y-34771950D01*
X5586657Y-34771951D01*
X5586652Y-34771954D01*
X5496954Y-34861652D01*
X5496951Y-34861657D01*
X5496950Y-34861658D01*
X5477751Y-34899337D01*
X5439352Y-34974698D01*
X5439352Y-34974699D01*
X5419508Y-35099996D01*
X2156294Y-35099996D01*
X2257685Y-34976450D01*
X2355232Y-34793954D01*
X2415300Y-34595934D01*
X2435583Y-34390000D01*
X2415300Y-34184066D01*
X2355232Y-33986046D01*
X2257685Y-33803550D01*
X2205702Y-33740209D01*
X2126410Y-33643589D01*
X1966452Y-33512317D01*
X1966453Y-33512317D01*
X1966450Y-33512315D01*
X1783954Y-33414768D01*
X1585934Y-33354700D01*
X1585932Y-33354699D01*
X1585934Y-33354699D01*
X1380000Y-33334417D01*
X1174067Y-33354699D01*
X976043Y-33414769D01*
X865898Y-33473643D01*
X793550Y-33512315D01*
X793548Y-33512316D01*
X793547Y-33512317D01*
X703164Y-33586492D01*
X638854Y-33613804D01*
X569987Y-33602013D01*
X518427Y-33554860D01*
X500500Y-33490638D01*
X500500Y-32749361D01*
X520185Y-32682322D01*
X572989Y-32636567D01*
X642147Y-32626623D01*
X703163Y-32653507D01*
X793550Y-32727685D01*
X976046Y-32825232D01*
X1174066Y-32885300D01*
X1174065Y-32885300D01*
X1192529Y-32887118D01*
X1380000Y-32905583D01*
X1585934Y-32885300D01*
X1783954Y-32825232D01*
X1966450Y-32727685D01*
X2126410Y-32596410D01*
X2257685Y-32436450D01*
X2355232Y-32253954D01*
X2371600Y-32199996D01*
X3594508Y-32199996D01*
X3594508Y-32200003D01*
X3614352Y-32325300D01*
X3614352Y-32325301D01*
X3614354Y-32325304D01*
X3671950Y-32438342D01*
X3671952Y-32438344D01*
X3671954Y-32438347D01*
X3761652Y-32528045D01*
X3761654Y-32528046D01*
X3761658Y-32528050D01*
X3874696Y-32585646D01*
X3874697Y-32585646D01*
X3874699Y-32585647D01*
X3999997Y-32605492D01*
X4000000Y-32605492D01*
X4000003Y-32605492D01*
X4125300Y-32585647D01*
X4125301Y-32585647D01*
X4125302Y-32585646D01*
X4125304Y-32585646D01*
X4238342Y-32528050D01*
X4328050Y-32438342D01*
X4385646Y-32325304D01*
X4385646Y-32325302D01*
X4385647Y-32325301D01*
X4385647Y-32325300D01*
X4405492Y-32200003D01*
X4405492Y-32199996D01*
X4385647Y-32074699D01*
X4385647Y-32074698D01*
X4367125Y-32038347D01*
X4328050Y-31961658D01*
X4328046Y-31961654D01*
X4328045Y-31961652D01*
X4238347Y-31871954D01*
X4238344Y-31871952D01*
X4238342Y-31871950D01*
X4125304Y-31814354D01*
X4125303Y-31814353D01*
X4125300Y-31814352D01*
X4000003Y-31794508D01*
X3999997Y-31794508D01*
X3874699Y-31814352D01*
X3874698Y-31814352D01*
X3804737Y-31850000D01*
X3761658Y-31871950D01*
X3761657Y-31871951D01*
X3761652Y-31871954D01*
X3671954Y-31961652D01*
X3671951Y-31961657D01*
X3614352Y-32074698D01*
X3614352Y-32074699D01*
X3594508Y-32199996D01*
X2371600Y-32199996D01*
X2415300Y-32055934D01*
X2435583Y-31850000D01*
X2415300Y-31644066D01*
X2355232Y-31446046D01*
X2257685Y-31263550D01*
X2162214Y-31147217D01*
X2126410Y-31103589D01*
X1966452Y-30972317D01*
X1966453Y-30972317D01*
X1966450Y-30972315D01*
X1783954Y-30874768D01*
X1585934Y-30814700D01*
X1585932Y-30814699D01*
X1585934Y-30814699D01*
X1380000Y-30794417D01*
X1174067Y-30814699D01*
X976043Y-30874769D01*
X905745Y-30912345D01*
X793550Y-30972315D01*
X793548Y-30972316D01*
X793547Y-30972317D01*
X703164Y-31046492D01*
X638854Y-31073804D01*
X569987Y-31062013D01*
X518427Y-31014860D01*
X500500Y-30950638D01*
X500500Y-30209361D01*
X520185Y-30142322D01*
X572989Y-30096567D01*
X642147Y-30086623D01*
X703165Y-30113508D01*
X791105Y-30185679D01*
X793550Y-30187685D01*
X976046Y-30285232D01*
X1174066Y-30345300D01*
X1174065Y-30345300D01*
X1192529Y-30347118D01*
X1380000Y-30365583D01*
X1585934Y-30345300D01*
X1783954Y-30285232D01*
X1966450Y-30187685D01*
X2126410Y-30056410D01*
X2257685Y-29896450D01*
X2355232Y-29713954D01*
X2415300Y-29515934D01*
X2435583Y-29310000D01*
X2415300Y-29104066D01*
X2393182Y-29031152D01*
X3163352Y-29031152D01*
X3163352Y-29031159D01*
X3183196Y-29156456D01*
X3183196Y-29156457D01*
X3183198Y-29156460D01*
X3240794Y-29269498D01*
X3240796Y-29269500D01*
X3240798Y-29269503D01*
X3330496Y-29359201D01*
X3330498Y-29359202D01*
X3330502Y-29359206D01*
X3443540Y-29416802D01*
X3443541Y-29416802D01*
X3443543Y-29416803D01*
X3568841Y-29436648D01*
X3568844Y-29436648D01*
X3568847Y-29436648D01*
X3694144Y-29416803D01*
X3694145Y-29416803D01*
X3694146Y-29416802D01*
X3694148Y-29416802D01*
X3807186Y-29359206D01*
X3896894Y-29269498D01*
X3954490Y-29156460D01*
X3954490Y-29156458D01*
X3954491Y-29156457D01*
X3954491Y-29156456D01*
X3974336Y-29031159D01*
X3974336Y-29031152D01*
X3954491Y-28905856D01*
X3954490Y-28905854D01*
X3954490Y-28905852D01*
X3935542Y-28868665D01*
X3922647Y-28799999D01*
X3935542Y-28756081D01*
X3985802Y-28657441D01*
X3986981Y-28650000D01*
X4005648Y-28532140D01*
X4005648Y-28532133D01*
X3985803Y-28406836D01*
X3985801Y-28406831D01*
X3984089Y-28403470D01*
X3983239Y-28398946D01*
X3982787Y-28397554D01*
X3982967Y-28397495D01*
X3971194Y-28334801D01*
X3997472Y-28270061D01*
X4006881Y-28259510D01*
X4012580Y-28253812D01*
X4070176Y-28140774D01*
X4070176Y-28140772D01*
X4070177Y-28140771D01*
X4070177Y-28140770D01*
X4090022Y-28015473D01*
X4090022Y-28015466D01*
X4070177Y-27890169D01*
X4070177Y-27890168D01*
X4064981Y-27879971D01*
X4012580Y-27777128D01*
X4012576Y-27777124D01*
X4012575Y-27777122D01*
X3922877Y-27687424D01*
X3922874Y-27687422D01*
X3922872Y-27687420D01*
X3809834Y-27629824D01*
X3809833Y-27629823D01*
X3809830Y-27629822D01*
X3684533Y-27609978D01*
X3684527Y-27609978D01*
X3559229Y-27629822D01*
X3559228Y-27629822D01*
X3483867Y-27668221D01*
X3446188Y-27687420D01*
X3446187Y-27687421D01*
X3446182Y-27687424D01*
X3356484Y-27777122D01*
X3356481Y-27777127D01*
X3356480Y-27777128D01*
X3342126Y-27805300D01*
X3298882Y-27890168D01*
X3298882Y-27890169D01*
X3279038Y-28015466D01*
X3279038Y-28015473D01*
X3298882Y-28140770D01*
X3298883Y-28140772D01*
X3300596Y-28144134D01*
X3301445Y-28148656D01*
X3301899Y-28150053D01*
X3301718Y-28150111D01*
X3313491Y-28212804D01*
X3287213Y-28277544D01*
X3277798Y-28288101D01*
X3272108Y-28293790D01*
X3272108Y-28293792D01*
X3272106Y-28293794D01*
X3272106Y-28293795D01*
X3269135Y-28299626D01*
X3214508Y-28406835D01*
X3214508Y-28406836D01*
X3194664Y-28532133D01*
X3194664Y-28532139D01*
X3214508Y-28657437D01*
X3214509Y-28657438D01*
X3214509Y-28657439D01*
X3214510Y-28657441D01*
X3233156Y-28694036D01*
X3233457Y-28694627D01*
X3246352Y-28763297D01*
X3233456Y-28807215D01*
X3183196Y-28905854D01*
X3183196Y-28905855D01*
X3163352Y-29031152D01*
X2393182Y-29031152D01*
X2355232Y-28906046D01*
X2257685Y-28723550D01*
X2197327Y-28650003D01*
X2126410Y-28563589D01*
X1966452Y-28432317D01*
X1966453Y-28432317D01*
X1966450Y-28432315D01*
X1783954Y-28334768D01*
X1585934Y-28274700D01*
X1585932Y-28274699D01*
X1585934Y-28274699D01*
X1380000Y-28254417D01*
X1174067Y-28274699D01*
X976043Y-28334769D01*
X889532Y-28381011D01*
X793550Y-28432315D01*
X793548Y-28432316D01*
X793547Y-28432317D01*
X703164Y-28506492D01*
X638854Y-28533804D01*
X569987Y-28522013D01*
X518427Y-28474860D01*
X500500Y-28410638D01*
X500500Y-27668716D01*
X520185Y-27601677D01*
X572989Y-27555922D01*
X642147Y-27545978D01*
X703165Y-27572863D01*
X793826Y-27647267D01*
X793833Y-27647271D01*
X976233Y-27744766D01*
X1130000Y-27791410D01*
X1130000Y-27085686D01*
X1134394Y-27090080D01*
X1225606Y-27142741D01*
X1327339Y-27170000D01*
X1432661Y-27170000D01*
X1534394Y-27142741D01*
X1625606Y-27090080D01*
X1630000Y-27085686D01*
X1630000Y-27791410D01*
X1783766Y-27744766D01*
X1966166Y-27647271D01*
X1966173Y-27647267D01*
X2126055Y-27516055D01*
X2257267Y-27356173D01*
X2257271Y-27356166D01*
X2354766Y-27173766D01*
X2401410Y-27020000D01*
X1695686Y-27020000D01*
X1700080Y-27015606D01*
X1752741Y-26924394D01*
X1780000Y-26822661D01*
X1780000Y-26717339D01*
X1752741Y-26615606D01*
X1700080Y-26524394D01*
X1695686Y-26520000D01*
X2401410Y-26520000D01*
X2399338Y-26513169D01*
X3544508Y-26513169D01*
X3544508Y-26513176D01*
X3564352Y-26638473D01*
X3564352Y-26638474D01*
X3564354Y-26638477D01*
X3621950Y-26751515D01*
X3621952Y-26751517D01*
X3621954Y-26751520D01*
X3711652Y-26841218D01*
X3711654Y-26841219D01*
X3711658Y-26841223D01*
X3824696Y-26898819D01*
X3824697Y-26898819D01*
X3824699Y-26898820D01*
X3949997Y-26918665D01*
X3950000Y-26918665D01*
X3950003Y-26918665D01*
X4075300Y-26898820D01*
X4075301Y-26898820D01*
X4075302Y-26898819D01*
X4075304Y-26898819D01*
X4188342Y-26841223D01*
X4278050Y-26751515D01*
X4314334Y-26680303D01*
X4362304Y-26629511D01*
X4430125Y-26612715D01*
X4496260Y-26635252D01*
X4512497Y-26648920D01*
X4561652Y-26698075D01*
X4561654Y-26698076D01*
X4561658Y-26698080D01*
X4674696Y-26755676D01*
X4674697Y-26755676D01*
X4674699Y-26755677D01*
X4799997Y-26775522D01*
X4800000Y-26775522D01*
X4800003Y-26775522D01*
X4925300Y-26755677D01*
X4925301Y-26755677D01*
X4925302Y-26755676D01*
X4925304Y-26755676D01*
X5038342Y-26698080D01*
X5044743Y-26691678D01*
X5106061Y-26658194D01*
X5175753Y-26663176D01*
X5188714Y-26668872D01*
X5189160Y-26669099D01*
X5189161Y-26669099D01*
X5189163Y-26669100D01*
X5314461Y-26688945D01*
X5314464Y-26688945D01*
X5314467Y-26688945D01*
X5439764Y-26669100D01*
X5439765Y-26669100D01*
X5439766Y-26669099D01*
X5439768Y-26669099D01*
X5552806Y-26611503D01*
X5566342Y-26597967D01*
X5623667Y-26540643D01*
X5684990Y-26507158D01*
X5754682Y-26512142D01*
X5799029Y-26540643D01*
X6555141Y-27296755D01*
X6588626Y-27358078D01*
X6591460Y-27384436D01*
X6591460Y-30824664D01*
X6571775Y-30891703D01*
X6518971Y-30937458D01*
X6449813Y-30947402D01*
X6386257Y-30918377D01*
X6379779Y-30912345D01*
X6324662Y-30857228D01*
X6324659Y-30857226D01*
X6324657Y-30857224D01*
X6211619Y-30799628D01*
X6211617Y-30799627D01*
X6202924Y-30795198D01*
X6204224Y-30792646D01*
X6159305Y-30761923D01*
X6132835Y-30702836D01*
X6131415Y-30693870D01*
X6131415Y-30693868D01*
X6073819Y-30580830D01*
X6073815Y-30580826D01*
X6073814Y-30580824D01*
X5984116Y-30491126D01*
X5984113Y-30491124D01*
X5984111Y-30491122D01*
X5907286Y-30451977D01*
X5871070Y-30433524D01*
X5862099Y-30432104D01*
X5798964Y-30402175D01*
X5772003Y-30360866D01*
X5769743Y-30362018D01*
X5765313Y-30353324D01*
X5765313Y-30353322D01*
X5707717Y-30240284D01*
X5707713Y-30240280D01*
X5707712Y-30240278D01*
X5618014Y-30150580D01*
X5618011Y-30150578D01*
X5618009Y-30150576D01*
X5517891Y-30099563D01*
X5504968Y-30092978D01*
X5495687Y-30089963D01*
X5496830Y-30086445D01*
X5450285Y-30064339D01*
X5415721Y-30008743D01*
X5414775Y-30009051D01*
X5413528Y-30005215D01*
X5413396Y-30005002D01*
X5413268Y-30004414D01*
X5411759Y-29999769D01*
X5411758Y-29999767D01*
X5411758Y-29999766D01*
X5354162Y-29886728D01*
X5354158Y-29886724D01*
X5354157Y-29886722D01*
X5264459Y-29797024D01*
X5264456Y-29797022D01*
X5264454Y-29797020D01*
X5187629Y-29757875D01*
X5151413Y-29739422D01*
X5142132Y-29736407D01*
X5143275Y-29732887D01*
X5096742Y-29710795D01*
X5062162Y-29655189D01*
X5061220Y-29655496D01*
X5059980Y-29651681D01*
X5059844Y-29651462D01*
X5059713Y-29650859D01*
X5058204Y-29646214D01*
X5058203Y-29646212D01*
X5058203Y-29646211D01*
X5000607Y-29533173D01*
X5000603Y-29533169D01*
X5000602Y-29533167D01*
X4910904Y-29443469D01*
X4910901Y-29443467D01*
X4910899Y-29443465D01*
X4797861Y-29385869D01*
X4797860Y-29385868D01*
X4797857Y-29385867D01*
X4672560Y-29366023D01*
X4672554Y-29366023D01*
X4547256Y-29385867D01*
X4547255Y-29385867D01*
X4486542Y-29416803D01*
X4434215Y-29443465D01*
X4434214Y-29443466D01*
X4434209Y-29443469D01*
X4344511Y-29533167D01*
X4344508Y-29533172D01*
X4286909Y-29646213D01*
X4286909Y-29646214D01*
X4267065Y-29771511D01*
X4267065Y-29771518D01*
X4286909Y-29896815D01*
X4286909Y-29896816D01*
X4286911Y-29896819D01*
X4344507Y-30009857D01*
X4344509Y-30009859D01*
X4344511Y-30009862D01*
X4434209Y-30099560D01*
X4434211Y-30099561D01*
X4434215Y-30099565D01*
X4547253Y-30157161D01*
X4547254Y-30157161D01*
X4547256Y-30157162D01*
X4556538Y-30160178D01*
X4555387Y-30163718D01*
X4601803Y-30185679D01*
X4636546Y-30241383D01*
X4637449Y-30241090D01*
X4638629Y-30244723D01*
X4638779Y-30244963D01*
X4638925Y-30245632D01*
X4640464Y-30250371D01*
X4640466Y-30250374D01*
X4698062Y-30363412D01*
X4698064Y-30363414D01*
X4698066Y-30363417D01*
X4787764Y-30453115D01*
X4787766Y-30453116D01*
X4787770Y-30453120D01*
X4900808Y-30510716D01*
X4900809Y-30510716D01*
X4900811Y-30510717D01*
X4910093Y-30513733D01*
X4908942Y-30517273D01*
X4955358Y-30539234D01*
X4990101Y-30594939D01*
X4991004Y-30594646D01*
X4992184Y-30598277D01*
X4992334Y-30598518D01*
X4992480Y-30599190D01*
X4994019Y-30603927D01*
X4994021Y-30603930D01*
X5051617Y-30716968D01*
X5051619Y-30716970D01*
X5051621Y-30716973D01*
X5141319Y-30806671D01*
X5141321Y-30806672D01*
X5141325Y-30806676D01*
X5254363Y-30864272D01*
X5263331Y-30865692D01*
X5326467Y-30895620D01*
X5353438Y-30936929D01*
X5355693Y-30935781D01*
X5360122Y-30944474D01*
X5360123Y-30944476D01*
X5417719Y-31057514D01*
X5417721Y-31057516D01*
X5417723Y-31057519D01*
X5507421Y-31147217D01*
X5507423Y-31147218D01*
X5507427Y-31147222D01*
X5620465Y-31204818D01*
X5620467Y-31204818D01*
X5629161Y-31209248D01*
X5627858Y-31211804D01*
X5672753Y-31242491D01*
X5699247Y-31301604D01*
X5700667Y-31310575D01*
X5758266Y-31423617D01*
X5762989Y-31430118D01*
X5786467Y-31495925D01*
X5773154Y-31559296D01*
X5714352Y-31674698D01*
X5714352Y-31674699D01*
X5694508Y-31799996D01*
X5694508Y-31800003D01*
X5714352Y-31925300D01*
X5714352Y-31925301D01*
X5714354Y-31925304D01*
X5771950Y-32038342D01*
X5771952Y-32038344D01*
X5771954Y-32038347D01*
X5861652Y-32128045D01*
X5861654Y-32128046D01*
X5861658Y-32128050D01*
X5974696Y-32185646D01*
X5974706Y-32185647D01*
X5983834Y-32188614D01*
X6041510Y-32228051D01*
X6067991Y-32287148D01*
X6070880Y-32305394D01*
X6081025Y-32325304D01*
X6128478Y-32418435D01*
X6128480Y-32418437D01*
X6128482Y-32418440D01*
X6218180Y-32508138D01*
X6218182Y-32508139D01*
X6218186Y-32508143D01*
X6331224Y-32565739D01*
X6448203Y-32584266D01*
X6511335Y-32614195D01*
X6539286Y-32650442D01*
X6588910Y-32747833D01*
X6588912Y-32747835D01*
X6588914Y-32747838D01*
X6678612Y-32837536D01*
X6678614Y-32837537D01*
X6678618Y-32837541D01*
X6791656Y-32895137D01*
X6791657Y-32895137D01*
X6791659Y-32895138D01*
X6916957Y-32914983D01*
X6916960Y-32914983D01*
X6916963Y-32914983D01*
X7042260Y-32895138D01*
X7042261Y-32895138D01*
X7042262Y-32895137D01*
X7042264Y-32895137D01*
X7155302Y-32837541D01*
X7245010Y-32747833D01*
X7302606Y-32634795D01*
X7302606Y-32634793D01*
X7302607Y-32634792D01*
X7302607Y-32634791D01*
X7322452Y-32509494D01*
X7322452Y-32509487D01*
X7302607Y-32384190D01*
X7302607Y-32384189D01*
X7262460Y-32305397D01*
X7255974Y-32292667D01*
X7242460Y-32236375D01*
X7242460Y-28142665D01*
X9324469Y-28142665D01*
X9324469Y-28142672D01*
X9344313Y-28267969D01*
X9344313Y-28267970D01*
X9354571Y-28288101D01*
X9401911Y-28381011D01*
X9401913Y-28381013D01*
X9401915Y-28381016D01*
X9491613Y-28470714D01*
X9491615Y-28470715D01*
X9491619Y-28470719D01*
X9604657Y-28528315D01*
X9692555Y-28542236D01*
X9755688Y-28572164D01*
X9792619Y-28631475D01*
X9795629Y-28645311D01*
X9812135Y-28749533D01*
X9830588Y-28785749D01*
X9869733Y-28862574D01*
X9869735Y-28862576D01*
X9869737Y-28862579D01*
X9959435Y-28952277D01*
X9959437Y-28952278D01*
X9959441Y-28952282D01*
X10072479Y-29009878D01*
X10072480Y-29009878D01*
X10072482Y-29009879D01*
X10197780Y-29029724D01*
X10197783Y-29029724D01*
X10197786Y-29029724D01*
X10323083Y-29009879D01*
X10323085Y-29009878D01*
X10323087Y-29009878D01*
X10392310Y-28974606D01*
X10460978Y-28961710D01*
X10504900Y-28974606D01*
X10511656Y-28978048D01*
X10511658Y-28978050D01*
X10624696Y-29035646D01*
X10624697Y-29035646D01*
X10624699Y-29035647D01*
X10749997Y-29055492D01*
X10750000Y-29055492D01*
X10750003Y-29055492D01*
X10875300Y-29035647D01*
X10875301Y-29035647D01*
X10875302Y-29035646D01*
X10875304Y-29035646D01*
X10988342Y-28978050D01*
X11078050Y-28888342D01*
X11135646Y-28775304D01*
X11135646Y-28775302D01*
X11135647Y-28775301D01*
X11135647Y-28775300D01*
X11155492Y-28650003D01*
X11155492Y-28649996D01*
X11135647Y-28524699D01*
X11135647Y-28524698D01*
X11134279Y-28522013D01*
X11078050Y-28411658D01*
X11078046Y-28411654D01*
X11078045Y-28411652D01*
X10988347Y-28321954D01*
X10988344Y-28321952D01*
X10988342Y-28321950D01*
X10875304Y-28264354D01*
X10875303Y-28264353D01*
X10875300Y-28264352D01*
X10750003Y-28244508D01*
X10749997Y-28244508D01*
X10624699Y-28264352D01*
X10624697Y-28264353D01*
X10555469Y-28299626D01*
X10486800Y-28312521D01*
X10442881Y-28299625D01*
X10436126Y-28296183D01*
X10436125Y-28296182D01*
X10323087Y-28238586D01*
X10323086Y-28238585D01*
X10323083Y-28238584D01*
X10235190Y-28224664D01*
X10172055Y-28194735D01*
X10135123Y-28135424D01*
X10132117Y-28121607D01*
X10115607Y-28017365D01*
X10058011Y-27904327D01*
X10058007Y-27904323D01*
X10058006Y-27904321D01*
X9968308Y-27814623D01*
X9968305Y-27814621D01*
X9968303Y-27814619D01*
X9855265Y-27757023D01*
X9855264Y-27757022D01*
X9855261Y-27757021D01*
X9729964Y-27737177D01*
X9729958Y-27737177D01*
X9604660Y-27757021D01*
X9604659Y-27757021D01*
X9537169Y-27791410D01*
X9491619Y-27814619D01*
X9491618Y-27814620D01*
X9491613Y-27814623D01*
X9401915Y-27904321D01*
X9401912Y-27904326D01*
X9344313Y-28017367D01*
X9344313Y-28017368D01*
X9324469Y-28142665D01*
X7242460Y-28142665D01*
X7242460Y-27474475D01*
X11870029Y-27474475D01*
X11870029Y-27474482D01*
X11889873Y-27599779D01*
X11889873Y-27599780D01*
X11905181Y-27629822D01*
X11947471Y-27712821D01*
X11947473Y-27712823D01*
X11947475Y-27712826D01*
X12037173Y-27802524D01*
X12037175Y-27802525D01*
X12037179Y-27802529D01*
X12150217Y-27860125D01*
X12150218Y-27860125D01*
X12150220Y-27860126D01*
X12275518Y-27879971D01*
X12275521Y-27879971D01*
X12275524Y-27879971D01*
X12400821Y-27860126D01*
X12400822Y-27860126D01*
X12400823Y-27860125D01*
X12400825Y-27860125D01*
X12513863Y-27802529D01*
X12603571Y-27712821D01*
X12661167Y-27599783D01*
X12661167Y-27599781D01*
X12661168Y-27599780D01*
X12661168Y-27599779D01*
X12681013Y-27474482D01*
X12681013Y-27474475D01*
X12661168Y-27349178D01*
X12661168Y-27349177D01*
X12652963Y-27333074D01*
X12603571Y-27236137D01*
X12603567Y-27236133D01*
X12603566Y-27236131D01*
X12513868Y-27146433D01*
X12513865Y-27146431D01*
X12513863Y-27146429D01*
X12400825Y-27088833D01*
X12400824Y-27088832D01*
X12400821Y-27088831D01*
X12275524Y-27068987D01*
X12275518Y-27068987D01*
X12150220Y-27088831D01*
X12150219Y-27088831D01*
X12074858Y-27127230D01*
X12037179Y-27146429D01*
X12037178Y-27146430D01*
X12037173Y-27146433D01*
X11947475Y-27236131D01*
X11947472Y-27236136D01*
X11947471Y-27236137D01*
X11928272Y-27273816D01*
X11889873Y-27349177D01*
X11889873Y-27349178D01*
X11870029Y-27474475D01*
X7242460Y-27474475D01*
X7242460Y-27251103D01*
X7242461Y-27251090D01*
X7242461Y-27155396D01*
X7242461Y-27155395D01*
X7220278Y-27072609D01*
X7198851Y-27035498D01*
X7189903Y-27020000D01*
X7177427Y-26998389D01*
X7177426Y-26998388D01*
X7177425Y-26998386D01*
X7116822Y-26937783D01*
X7116821Y-26937782D01*
X7112491Y-26933452D01*
X7112480Y-26933442D01*
X7015349Y-26836311D01*
X10630823Y-26836311D01*
X10630823Y-26836318D01*
X10650667Y-26961615D01*
X10650667Y-26961616D01*
X10650669Y-26961619D01*
X10708265Y-27074657D01*
X10708267Y-27074659D01*
X10708269Y-27074662D01*
X10797967Y-27164360D01*
X10797969Y-27164361D01*
X10797973Y-27164365D01*
X10911011Y-27221961D01*
X10911012Y-27221961D01*
X10911014Y-27221962D01*
X11036312Y-27241807D01*
X11036315Y-27241807D01*
X11036318Y-27241807D01*
X11161615Y-27221962D01*
X11161616Y-27221962D01*
X11161617Y-27221961D01*
X11161619Y-27221961D01*
X11274657Y-27164365D01*
X11364365Y-27074657D01*
X11421961Y-26961619D01*
X11421961Y-26961617D01*
X11421962Y-26961616D01*
X11421962Y-26961615D01*
X11441807Y-26836318D01*
X11441807Y-26836311D01*
X11421962Y-26711014D01*
X11421962Y-26711013D01*
X11412112Y-26691681D01*
X11364365Y-26597973D01*
X11364361Y-26597969D01*
X11364360Y-26597967D01*
X11274662Y-26508269D01*
X11274659Y-26508267D01*
X11274657Y-26508265D01*
X11161619Y-26450669D01*
X11161618Y-26450668D01*
X11161615Y-26450667D01*
X11036318Y-26430823D01*
X11036312Y-26430823D01*
X10911014Y-26450667D01*
X10911013Y-26450667D01*
X10835652Y-26489066D01*
X10797973Y-26508265D01*
X10797972Y-26508266D01*
X10797967Y-26508269D01*
X10708269Y-26597967D01*
X10708266Y-26597972D01*
X10708265Y-26597973D01*
X10692979Y-26627973D01*
X10650667Y-26711013D01*
X10650667Y-26711014D01*
X10630823Y-26836311D01*
X7015349Y-26836311D01*
X6259355Y-26080316D01*
X6225870Y-26018993D01*
X6230854Y-25949301D01*
X6259353Y-25904955D01*
X6330214Y-25834095D01*
X6387810Y-25721057D01*
X6387810Y-25721055D01*
X6387811Y-25721054D01*
X6387811Y-25721053D01*
X6407656Y-25595756D01*
X6407656Y-25595749D01*
X6387811Y-25470452D01*
X6387811Y-25470451D01*
X6378329Y-25451842D01*
X6330214Y-25357411D01*
X6330210Y-25357407D01*
X6330209Y-25357405D01*
X6240511Y-25267707D01*
X6240508Y-25267705D01*
X6240506Y-25267703D01*
X6127468Y-25210107D01*
X6127467Y-25210106D01*
X6127464Y-25210105D01*
X6002167Y-25190261D01*
X6002161Y-25190261D01*
X5876863Y-25210105D01*
X5876862Y-25210105D01*
X5801501Y-25248504D01*
X5763822Y-25267703D01*
X5763821Y-25267704D01*
X5763816Y-25267707D01*
X5674115Y-25357408D01*
X5659066Y-25386943D01*
X5611090Y-25437738D01*
X5567980Y-25453119D01*
X5450744Y-25471686D01*
X5375383Y-25510085D01*
X5337704Y-25529284D01*
X5337703Y-25529285D01*
X5337698Y-25529288D01*
X5248000Y-25618986D01*
X5247997Y-25618991D01*
X5190398Y-25732032D01*
X5190398Y-25732033D01*
X5171830Y-25849269D01*
X5141901Y-25912404D01*
X5105655Y-25940354D01*
X5076123Y-25955402D01*
X5069717Y-25961808D01*
X5008393Y-25995290D01*
X4938701Y-25990303D01*
X4925749Y-25984610D01*
X4925306Y-25984384D01*
X4925301Y-25984382D01*
X4813963Y-25966749D01*
X4750829Y-25936820D01*
X4722877Y-25900572D01*
X4703050Y-25861658D01*
X4703049Y-25861657D01*
X4703045Y-25861652D01*
X4613347Y-25771954D01*
X4613344Y-25771952D01*
X4613342Y-25771950D01*
X4500304Y-25714354D01*
X4500303Y-25714353D01*
X4500300Y-25714352D01*
X4375003Y-25694508D01*
X4374997Y-25694508D01*
X4249699Y-25714352D01*
X4249698Y-25714352D01*
X4182510Y-25748587D01*
X4136658Y-25771950D01*
X4136657Y-25771951D01*
X4136652Y-25771954D01*
X4046954Y-25861652D01*
X4046951Y-25861657D01*
X4046950Y-25861658D01*
X4042046Y-25871283D01*
X3989352Y-25974698D01*
X3982854Y-26015728D01*
X3952924Y-26078863D01*
X3893612Y-26115793D01*
X3879779Y-26118802D01*
X3824698Y-26127525D01*
X3749337Y-26165924D01*
X3711658Y-26185123D01*
X3711657Y-26185124D01*
X3711652Y-26185127D01*
X3621954Y-26274825D01*
X3621951Y-26274830D01*
X3564352Y-26387871D01*
X3564352Y-26387872D01*
X3544508Y-26513169D01*
X2399338Y-26513169D01*
X2354766Y-26366233D01*
X2257271Y-26183833D01*
X2257267Y-26183826D01*
X2126055Y-26023944D01*
X1966173Y-25892732D01*
X1966166Y-25892728D01*
X1783763Y-25795232D01*
X1630000Y-25748587D01*
X1630000Y-26454314D01*
X1625606Y-26449920D01*
X1534394Y-26397259D01*
X1432661Y-26370000D01*
X1327339Y-26370000D01*
X1225606Y-26397259D01*
X1134394Y-26449920D01*
X1130000Y-26454314D01*
X1130000Y-25748587D01*
X976236Y-25795232D01*
X793833Y-25892728D01*
X793827Y-25892732D01*
X703164Y-25967137D01*
X638854Y-25994449D01*
X569987Y-25982658D01*
X518427Y-25935505D01*
X500500Y-25871283D01*
X500500Y-25129361D01*
X520185Y-25062322D01*
X572989Y-25016567D01*
X642147Y-25006623D01*
X703165Y-25033508D01*
X793045Y-25107271D01*
X793550Y-25107685D01*
X976046Y-25205232D01*
X1174066Y-25265300D01*
X1174065Y-25265300D01*
X1192529Y-25267118D01*
X1380000Y-25285583D01*
X1585934Y-25265300D01*
X1783954Y-25205232D01*
X1966450Y-25107685D01*
X2126410Y-24976410D01*
X2189121Y-24899996D01*
X7494508Y-24899996D01*
X7494508Y-24900003D01*
X7514352Y-25025300D01*
X7514352Y-25025301D01*
X7518534Y-25033508D01*
X7571950Y-25138342D01*
X7571952Y-25138344D01*
X7571954Y-25138347D01*
X7661652Y-25228045D01*
X7661654Y-25228046D01*
X7661658Y-25228050D01*
X7774696Y-25285646D01*
X7774697Y-25285646D01*
X7774699Y-25285647D01*
X7899997Y-25305492D01*
X7900000Y-25305492D01*
X7900003Y-25305492D01*
X8025300Y-25285647D01*
X8025301Y-25285647D01*
X8025302Y-25285646D01*
X8025304Y-25285646D01*
X8138342Y-25228050D01*
X8228050Y-25138342D01*
X8285646Y-25025304D01*
X8290647Y-24993723D01*
X8320576Y-24930590D01*
X8379887Y-24893658D01*
X8393715Y-24890648D01*
X8425304Y-24885646D01*
X8538342Y-24828050D01*
X8628050Y-24738342D01*
X8685646Y-24625304D01*
X8685646Y-24625302D01*
X8685647Y-24625301D01*
X8685647Y-24625300D01*
X8705492Y-24500003D01*
X8705492Y-24499996D01*
X8685647Y-24374699D01*
X8685647Y-24374698D01*
X8685646Y-24374696D01*
X8628050Y-24261658D01*
X8628046Y-24261654D01*
X8628045Y-24261652D01*
X8538347Y-24171954D01*
X8538344Y-24171952D01*
X8538342Y-24171950D01*
X8425304Y-24114354D01*
X8425303Y-24114353D01*
X8425300Y-24114352D01*
X8300003Y-24094508D01*
X8299997Y-24094508D01*
X8174699Y-24114352D01*
X8174698Y-24114352D01*
X8099337Y-24152751D01*
X8061658Y-24171950D01*
X8061657Y-24171951D01*
X8061652Y-24171954D01*
X7971954Y-24261652D01*
X7971951Y-24261657D01*
X7971950Y-24261658D01*
X7952751Y-24299337D01*
X7914352Y-24374698D01*
X7909351Y-24406277D01*
X7879421Y-24469412D01*
X7820109Y-24506342D01*
X7806277Y-24509351D01*
X7774698Y-24514352D01*
X7704580Y-24550080D01*
X7661658Y-24571950D01*
X7661657Y-24571951D01*
X7661652Y-24571954D01*
X7571954Y-24661652D01*
X7571951Y-24661657D01*
X7514352Y-24774698D01*
X7514352Y-24774699D01*
X7494508Y-24899996D01*
X2189121Y-24899996D01*
X2257685Y-24816450D01*
X2355232Y-24633954D01*
X2415300Y-24435934D01*
X2435583Y-24230000D01*
X2415300Y-24024066D01*
X2355232Y-23826046D01*
X2261130Y-23649996D01*
X3594508Y-23649996D01*
X3594508Y-23650003D01*
X3614352Y-23775300D01*
X3614352Y-23775301D01*
X3614354Y-23775304D01*
X3671950Y-23888342D01*
X3671952Y-23888344D01*
X3671954Y-23888347D01*
X3761652Y-23978045D01*
X3761654Y-23978046D01*
X3761658Y-23978050D01*
X3874696Y-24035646D01*
X3874697Y-24035646D01*
X3874699Y-24035647D01*
X3999997Y-24055492D01*
X4000000Y-24055492D01*
X4000003Y-24055492D01*
X4125300Y-24035647D01*
X4125301Y-24035647D01*
X4125302Y-24035646D01*
X4125304Y-24035646D01*
X4238342Y-23978050D01*
X4328050Y-23888342D01*
X4385646Y-23775304D01*
X4385646Y-23775302D01*
X4385647Y-23775301D01*
X4385647Y-23775300D01*
X4405492Y-23650003D01*
X4405492Y-23649996D01*
X4385647Y-23524699D01*
X4385647Y-23524698D01*
X4385646Y-23524696D01*
X4328050Y-23411658D01*
X4328046Y-23411654D01*
X4328045Y-23411652D01*
X4238347Y-23321954D01*
X4238344Y-23321952D01*
X4238342Y-23321950D01*
X4125304Y-23264354D01*
X4125303Y-23264353D01*
X4125300Y-23264352D01*
X4000003Y-23244508D01*
X3999997Y-23244508D01*
X3874699Y-23264352D01*
X3874698Y-23264352D01*
X3799337Y-23302751D01*
X3761658Y-23321950D01*
X3761657Y-23321951D01*
X3761652Y-23321954D01*
X3671954Y-23411652D01*
X3671951Y-23411657D01*
X3614352Y-23524698D01*
X3614352Y-23524699D01*
X3594508Y-23649996D01*
X2261130Y-23649996D01*
X2257685Y-23643550D01*
X2205702Y-23580209D01*
X2126410Y-23483589D01*
X1966452Y-23352317D01*
X1966453Y-23352317D01*
X1966450Y-23352315D01*
X1783954Y-23254768D01*
X1585934Y-23194700D01*
X1585932Y-23194699D01*
X1585934Y-23194699D01*
X1380000Y-23174417D01*
X1174067Y-23194699D01*
X976043Y-23254769D01*
X865898Y-23313643D01*
X793550Y-23352315D01*
X793548Y-23352316D01*
X793547Y-23352317D01*
X703164Y-23426492D01*
X638854Y-23453804D01*
X569987Y-23442013D01*
X518427Y-23394860D01*
X500500Y-23330638D01*
X500500Y-22589361D01*
X520185Y-22522322D01*
X572989Y-22476567D01*
X642147Y-22466623D01*
X703163Y-22493507D01*
X793550Y-22567685D01*
X976046Y-22665232D01*
X1174066Y-22725300D01*
X1174065Y-22725300D01*
X1192529Y-22727118D01*
X1380000Y-22745583D01*
X1585934Y-22725300D01*
X1783954Y-22665232D01*
X1966450Y-22567685D01*
X2126410Y-22436410D01*
X2257685Y-22276450D01*
X2355232Y-22093954D01*
X2415300Y-21895934D01*
X2435583Y-21690000D01*
X2415300Y-21484066D01*
X2355232Y-21286046D01*
X2302555Y-21187496D01*
X4469508Y-21187496D01*
X4469508Y-21187503D01*
X4489352Y-21312800D01*
X4489352Y-21312801D01*
X4489354Y-21312804D01*
X4546950Y-21425842D01*
X4546952Y-21425844D01*
X4546954Y-21425847D01*
X4636652Y-21515545D01*
X4636654Y-21515546D01*
X4636658Y-21515550D01*
X4749696Y-21573146D01*
X4749697Y-21573146D01*
X4749699Y-21573147D01*
X4874997Y-21592992D01*
X4875000Y-21592992D01*
X4875003Y-21592992D01*
X5000300Y-21573147D01*
X5000301Y-21573147D01*
X5000302Y-21573146D01*
X5000304Y-21573146D01*
X5113342Y-21515550D01*
X5203050Y-21425842D01*
X5260646Y-21312804D01*
X5260646Y-21312802D01*
X5260647Y-21312801D01*
X5260647Y-21312800D01*
X5280492Y-21187503D01*
X5280492Y-21187496D01*
X5260647Y-21062199D01*
X5260647Y-21062198D01*
X5260646Y-21062196D01*
X5203050Y-20949158D01*
X5203046Y-20949154D01*
X5203045Y-20949152D01*
X5113347Y-20859454D01*
X5113344Y-20859452D01*
X5113342Y-20859450D01*
X5000304Y-20801854D01*
X5000303Y-20801853D01*
X5000300Y-20801852D01*
X4875003Y-20782008D01*
X4874997Y-20782008D01*
X4749699Y-20801852D01*
X4749698Y-20801852D01*
X4674337Y-20840251D01*
X4636658Y-20859450D01*
X4636657Y-20859451D01*
X4636652Y-20859454D01*
X4546954Y-20949152D01*
X4546951Y-20949157D01*
X4489352Y-21062198D01*
X4489352Y-21062199D01*
X4469508Y-21187496D01*
X2302555Y-21187496D01*
X2257685Y-21103550D01*
X2130975Y-20949152D01*
X2126410Y-20943589D01*
X1966452Y-20812317D01*
X1966453Y-20812317D01*
X1966450Y-20812315D01*
X1783954Y-20714768D01*
X1585934Y-20654700D01*
X1585932Y-20654699D01*
X1585934Y-20654699D01*
X1380000Y-20634417D01*
X1174067Y-20654699D01*
X976043Y-20714769D01*
X865898Y-20773643D01*
X793550Y-20812315D01*
X793548Y-20812316D01*
X793547Y-20812317D01*
X703164Y-20886492D01*
X638854Y-20913804D01*
X569987Y-20902013D01*
X518427Y-20854860D01*
X500500Y-20790638D01*
X500500Y-20049361D01*
X520185Y-19982322D01*
X572989Y-19936567D01*
X642147Y-19926623D01*
X703163Y-19953507D01*
X793550Y-20027685D01*
X976046Y-20125232D01*
X1174066Y-20185300D01*
X1174065Y-20185300D01*
X1192529Y-20187118D01*
X1380000Y-20205583D01*
X1585934Y-20185300D01*
X1783954Y-20125232D01*
X1966450Y-20027685D01*
X2126410Y-19896410D01*
X2257685Y-19736450D01*
X2355232Y-19553954D01*
X2415300Y-19355934D01*
X2435583Y-19150000D01*
X2415300Y-18944066D01*
X2355232Y-18746046D01*
X2257685Y-18563550D01*
X2205702Y-18500209D01*
X2126410Y-18403589D01*
X1966452Y-18272317D01*
X1966453Y-18272317D01*
X1966450Y-18272315D01*
X1783954Y-18174768D01*
X1585934Y-18114700D01*
X1585932Y-18114699D01*
X1585934Y-18114699D01*
X1380000Y-18094417D01*
X1174067Y-18114699D01*
X976043Y-18174769D01*
X865898Y-18233643D01*
X793550Y-18272315D01*
X793548Y-18272316D01*
X793547Y-18272317D01*
X703164Y-18346492D01*
X638854Y-18373804D01*
X569987Y-18362013D01*
X518427Y-18314860D01*
X500500Y-18250638D01*
X500500Y-17509361D01*
X520185Y-17442322D01*
X572989Y-17396567D01*
X642147Y-17386623D01*
X703163Y-17413507D01*
X793550Y-17487685D01*
X976046Y-17585232D01*
X1174066Y-17645300D01*
X1174065Y-17645300D01*
X1192529Y-17647118D01*
X1380000Y-17665583D01*
X1585934Y-17645300D01*
X1783954Y-17585232D01*
X1966450Y-17487685D01*
X2126410Y-17356410D01*
X2257685Y-17196450D01*
X2355232Y-17013954D01*
X2359466Y-16999996D01*
X8094508Y-16999996D01*
X8094508Y-17000003D01*
X8114352Y-17125300D01*
X8114352Y-17125301D01*
X8114354Y-17125304D01*
X8171950Y-17238342D01*
X8171952Y-17238344D01*
X8171954Y-17238347D01*
X8261652Y-17328045D01*
X8261654Y-17328046D01*
X8261658Y-17328050D01*
X8374696Y-17385646D01*
X8492607Y-17404321D01*
X8555738Y-17434248D01*
X8592669Y-17493559D01*
X8595679Y-17507396D01*
X8614352Y-17625300D01*
X8614352Y-17625301D01*
X8632805Y-17661517D01*
X8671950Y-17738342D01*
X8671952Y-17738344D01*
X8671954Y-17738347D01*
X8761652Y-17828045D01*
X8761654Y-17828046D01*
X8761658Y-17828050D01*
X8874696Y-17885646D01*
X8874697Y-17885646D01*
X8874699Y-17885647D01*
X8999997Y-17905492D01*
X9000000Y-17905492D01*
X9000003Y-17905492D01*
X9125300Y-17885647D01*
X9125301Y-17885647D01*
X9125302Y-17885646D01*
X9125304Y-17885646D01*
X9238342Y-17828050D01*
X9328050Y-17738342D01*
X9385646Y-17625304D01*
X9385646Y-17625302D01*
X9385647Y-17625301D01*
X9385647Y-17625300D01*
X9405492Y-17500003D01*
X9405492Y-17499996D01*
X9385647Y-17374699D01*
X9385646Y-17374696D01*
X9376329Y-17356410D01*
X9350793Y-17306295D01*
X9337897Y-17237626D01*
X9350794Y-17193704D01*
X9351125Y-17193054D01*
X9385646Y-17125304D01*
X9385646Y-17125302D01*
X9385647Y-17125300D01*
X9405492Y-17000003D01*
X9405492Y-16999996D01*
X9385647Y-16874699D01*
X9385647Y-16874698D01*
X9385646Y-16874696D01*
X9328050Y-16761658D01*
X9328046Y-16761654D01*
X9328045Y-16761652D01*
X9238347Y-16671954D01*
X9238344Y-16671952D01*
X9238342Y-16671950D01*
X9125304Y-16614354D01*
X9125303Y-16614353D01*
X9125300Y-16614352D01*
X9000003Y-16594508D01*
X8999997Y-16594508D01*
X8874699Y-16614352D01*
X8874695Y-16614353D01*
X8806294Y-16649206D01*
X8737625Y-16662102D01*
X8693706Y-16649206D01*
X8625304Y-16614353D01*
X8625300Y-16614352D01*
X8500003Y-16594508D01*
X8499997Y-16594508D01*
X8374699Y-16614352D01*
X8374698Y-16614352D01*
X8306295Y-16649206D01*
X8261658Y-16671950D01*
X8261657Y-16671951D01*
X8261652Y-16671954D01*
X8171954Y-16761652D01*
X8171951Y-16761657D01*
X8114352Y-16874698D01*
X8114352Y-16874699D01*
X8094508Y-16999996D01*
X2359466Y-16999996D01*
X2415300Y-16815934D01*
X2435583Y-16610000D01*
X2415300Y-16404066D01*
X2355232Y-16206046D01*
X2257685Y-16023550D01*
X2238355Y-15999996D01*
X4594508Y-15999996D01*
X4594508Y-16000003D01*
X4614352Y-16125300D01*
X4614352Y-16125301D01*
X4614354Y-16125304D01*
X4671950Y-16238342D01*
X4671952Y-16238344D01*
X4671954Y-16238347D01*
X4761652Y-16328045D01*
X4761654Y-16328046D01*
X4761658Y-16328050D01*
X4874696Y-16385646D01*
X4874697Y-16385646D01*
X4874699Y-16385647D01*
X4999997Y-16405492D01*
X5000000Y-16405492D01*
X5000003Y-16405492D01*
X5125300Y-16385647D01*
X5125301Y-16385647D01*
X5125302Y-16385646D01*
X5125304Y-16385646D01*
X5238342Y-16328050D01*
X5328050Y-16238342D01*
X5385646Y-16125304D01*
X5385646Y-16125302D01*
X5385647Y-16125301D01*
X5385647Y-16125300D01*
X5405492Y-16000003D01*
X5405492Y-15999996D01*
X5385647Y-15874699D01*
X5385647Y-15874698D01*
X5364592Y-15833376D01*
X5328050Y-15761658D01*
X5328046Y-15761654D01*
X5328045Y-15761652D01*
X5238347Y-15671954D01*
X5238344Y-15671952D01*
X5238342Y-15671950D01*
X5125304Y-15614354D01*
X5125303Y-15614353D01*
X5125300Y-15614352D01*
X5000003Y-15594508D01*
X4999997Y-15594508D01*
X4874699Y-15614352D01*
X4874698Y-15614352D01*
X4834631Y-15634768D01*
X4761658Y-15671950D01*
X4761657Y-15671951D01*
X4761652Y-15671954D01*
X4671954Y-15761652D01*
X4671951Y-15761657D01*
X4671950Y-15761658D01*
X4663788Y-15777677D01*
X4614352Y-15874698D01*
X4614352Y-15874699D01*
X4594508Y-15999996D01*
X2238355Y-15999996D01*
X2192159Y-15943706D01*
X2126410Y-15863589D01*
X2002205Y-15761658D01*
X1966450Y-15732315D01*
X1783954Y-15634768D01*
X1585934Y-15574700D01*
X1585932Y-15574699D01*
X1585934Y-15574699D01*
X1380000Y-15554417D01*
X1174067Y-15574699D01*
X976043Y-15634769D01*
X906484Y-15671950D01*
X793550Y-15732315D01*
X793548Y-15732316D01*
X793547Y-15732317D01*
X703164Y-15806492D01*
X638854Y-15833804D01*
X569987Y-15822013D01*
X518427Y-15774860D01*
X500500Y-15710638D01*
X500500Y-14969361D01*
X520185Y-14902322D01*
X572989Y-14856567D01*
X642147Y-14846623D01*
X703163Y-14873507D01*
X793550Y-14947685D01*
X976046Y-15045232D01*
X1174066Y-15105300D01*
X1174065Y-15105300D01*
X1192529Y-15107118D01*
X1380000Y-15125583D01*
X1585934Y-15105300D01*
X1783954Y-15045232D01*
X1966450Y-14947685D01*
X2126410Y-14816410D01*
X2257685Y-14656450D01*
X2355232Y-14473954D01*
X2415300Y-14275934D01*
X2435583Y-14070000D01*
X2428688Y-13999996D01*
X8594508Y-13999996D01*
X8594508Y-14000003D01*
X8614352Y-14125300D01*
X8614353Y-14125304D01*
X8649206Y-14193706D01*
X8662102Y-14262375D01*
X8649206Y-14306294D01*
X8614353Y-14374695D01*
X8614352Y-14374699D01*
X8594508Y-14499996D01*
X8594508Y-14500003D01*
X8614352Y-14625300D01*
X8614353Y-14625304D01*
X8649206Y-14693706D01*
X8662102Y-14762375D01*
X8649206Y-14806294D01*
X8614353Y-14874695D01*
X8614352Y-14874699D01*
X8594508Y-14999996D01*
X8594508Y-15000003D01*
X8614352Y-15125300D01*
X8614352Y-15125301D01*
X8614496Y-15125583D01*
X8671950Y-15238342D01*
X8671952Y-15238344D01*
X8671954Y-15238347D01*
X8761652Y-15328045D01*
X8761654Y-15328046D01*
X8761658Y-15328050D01*
X8874696Y-15385646D01*
X8874697Y-15385646D01*
X8874699Y-15385647D01*
X8999997Y-15405492D01*
X9000000Y-15405492D01*
X9000003Y-15405492D01*
X9125300Y-15385647D01*
X9125301Y-15385647D01*
X9125302Y-15385646D01*
X9125304Y-15385646D01*
X9238342Y-15328050D01*
X9328050Y-15238342D01*
X9385646Y-15125304D01*
X9385646Y-15125302D01*
X9385647Y-15125301D01*
X9385647Y-15125300D01*
X9405492Y-15000003D01*
X9405492Y-14999996D01*
X9385647Y-14874699D01*
X9385646Y-14874696D01*
X9370264Y-14844508D01*
X9350793Y-14806295D01*
X9337897Y-14737626D01*
X9350794Y-14693704D01*
X9385646Y-14625304D01*
X9385647Y-14625300D01*
X9405492Y-14500003D01*
X9405492Y-14499996D01*
X9385647Y-14374699D01*
X9385646Y-14374696D01*
X9385645Y-14374695D01*
X9350793Y-14306295D01*
X9337897Y-14237626D01*
X9350794Y-14193704D01*
X9385646Y-14125304D01*
X9385646Y-14125302D01*
X9385647Y-14125300D01*
X9405492Y-14000003D01*
X9405492Y-13999996D01*
X9385647Y-13874699D01*
X9385647Y-13874698D01*
X9380230Y-13864066D01*
X9328050Y-13761658D01*
X9328046Y-13761654D01*
X9328045Y-13761652D01*
X9238347Y-13671954D01*
X9238344Y-13671952D01*
X9238342Y-13671950D01*
X9125304Y-13614354D01*
X9125303Y-13614353D01*
X9125300Y-13614352D01*
X9000003Y-13594508D01*
X8999997Y-13594508D01*
X8874699Y-13614352D01*
X8874698Y-13614352D01*
X8799337Y-13652751D01*
X8761658Y-13671950D01*
X8761657Y-13671951D01*
X8761652Y-13671954D01*
X8671954Y-13761652D01*
X8671951Y-13761657D01*
X8614352Y-13874698D01*
X8614352Y-13874699D01*
X8594508Y-13999996D01*
X2428688Y-13999996D01*
X2415300Y-13864066D01*
X2355232Y-13666046D01*
X2266476Y-13499996D01*
X12344508Y-13499996D01*
X12344508Y-13500003D01*
X12364352Y-13625300D01*
X12364352Y-13625301D01*
X12364354Y-13625304D01*
X12421950Y-13738342D01*
X12421952Y-13738344D01*
X12421954Y-13738347D01*
X12470926Y-13787319D01*
X12504411Y-13848642D01*
X12499427Y-13918334D01*
X12470926Y-13962681D01*
X12421954Y-14011652D01*
X12421951Y-14011657D01*
X12364352Y-14124698D01*
X12364352Y-14124699D01*
X12344508Y-14249996D01*
X12344508Y-14250003D01*
X12364352Y-14375300D01*
X12364352Y-14375301D01*
X12369624Y-14385647D01*
X12421950Y-14488342D01*
X12421952Y-14488344D01*
X12421954Y-14488347D01*
X12511652Y-14578045D01*
X12511655Y-14578047D01*
X12511658Y-14578050D01*
X12564845Y-14605150D01*
X12632290Y-14639516D01*
X12683085Y-14687490D01*
X12699880Y-14755311D01*
X12677342Y-14821446D01*
X12632290Y-14860484D01*
X12511659Y-14921949D01*
X12511652Y-14921954D01*
X12421954Y-15011652D01*
X12421951Y-15011657D01*
X12364352Y-15124698D01*
X12364352Y-15124699D01*
X12344508Y-15249996D01*
X12344508Y-15250003D01*
X12364352Y-15375300D01*
X12364353Y-15375304D01*
X12399206Y-15443706D01*
X12412102Y-15512375D01*
X12399206Y-15556294D01*
X12364353Y-15624695D01*
X12364352Y-15624699D01*
X12344508Y-15749996D01*
X12344508Y-15750003D01*
X12364352Y-15875300D01*
X12364353Y-15875304D01*
X12399206Y-15943706D01*
X12412102Y-16012375D01*
X12399206Y-16056294D01*
X12364353Y-16124695D01*
X12364352Y-16124699D01*
X12344508Y-16249996D01*
X12344508Y-16250003D01*
X12364352Y-16375300D01*
X12364352Y-16375301D01*
X12379736Y-16405492D01*
X12421950Y-16488342D01*
X12421952Y-16488344D01*
X12421954Y-16488347D01*
X12511652Y-16578045D01*
X12511654Y-16578046D01*
X12511658Y-16578050D01*
X12624696Y-16635646D01*
X12624697Y-16635646D01*
X12624699Y-16635647D01*
X12749997Y-16655492D01*
X12750000Y-16655492D01*
X12750003Y-16655492D01*
X12875300Y-16635647D01*
X12875301Y-16635647D01*
X12875302Y-16635646D01*
X12875304Y-16635646D01*
X12988342Y-16578050D01*
X13078050Y-16488342D01*
X13135646Y-16375304D01*
X13135646Y-16375302D01*
X13135647Y-16375301D01*
X13135647Y-16375300D01*
X13155492Y-16250003D01*
X13155492Y-16249996D01*
X13135647Y-16124699D01*
X13135646Y-16124696D01*
X13100794Y-16056296D01*
X13087897Y-15987626D01*
X13100794Y-15943704D01*
X13135646Y-15875304D01*
X13135742Y-15874698D01*
X13155492Y-15750003D01*
X13155492Y-15749996D01*
X13135647Y-15624699D01*
X13135646Y-15624696D01*
X13120264Y-15594508D01*
X13100793Y-15556295D01*
X13087897Y-15487626D01*
X13100794Y-15443704D01*
X13120264Y-15405492D01*
X13135646Y-15375304D01*
X13135647Y-15375300D01*
X13155492Y-15250003D01*
X13155492Y-15249996D01*
X13135647Y-15124699D01*
X13135647Y-15124698D01*
X13125763Y-15105300D01*
X13078050Y-15011658D01*
X13078046Y-15011654D01*
X13078045Y-15011652D01*
X12988347Y-14921954D01*
X12988344Y-14921952D01*
X12988342Y-14921950D01*
X12875304Y-14864354D01*
X12875302Y-14864353D01*
X12867710Y-14860485D01*
X12816914Y-14812510D01*
X12800119Y-14744689D01*
X12822657Y-14678554D01*
X12867710Y-14639515D01*
X12875302Y-14635646D01*
X12875304Y-14635646D01*
X12988342Y-14578050D01*
X13078050Y-14488342D01*
X13135646Y-14375304D01*
X13135646Y-14375302D01*
X13135647Y-14375301D01*
X13135647Y-14375300D01*
X13155492Y-14250003D01*
X13155492Y-14249996D01*
X13135647Y-14124699D01*
X13135647Y-14124698D01*
X13135646Y-14124696D01*
X13078050Y-14011658D01*
X13078046Y-14011654D01*
X13078045Y-14011652D01*
X13066389Y-13999996D01*
X14194508Y-13999996D01*
X14194508Y-14000003D01*
X14214352Y-14125300D01*
X14214352Y-14125301D01*
X14214354Y-14125304D01*
X14271950Y-14238342D01*
X14271952Y-14238344D01*
X14271954Y-14238347D01*
X14361652Y-14328045D01*
X14361654Y-14328046D01*
X14361658Y-14328050D01*
X14474696Y-14385646D01*
X14474697Y-14385646D01*
X14474699Y-14385647D01*
X14599997Y-14405492D01*
X14600000Y-14405492D01*
X14600003Y-14405492D01*
X14725300Y-14385647D01*
X14725301Y-14385647D01*
X14725302Y-14385646D01*
X14725304Y-14385646D01*
X14838342Y-14328050D01*
X14928050Y-14238342D01*
X14985646Y-14125304D01*
X14985646Y-14125302D01*
X14985647Y-14125301D01*
X14985647Y-14125300D01*
X15005492Y-14000003D01*
X15005492Y-13999996D01*
X14985647Y-13874699D01*
X14985647Y-13874698D01*
X14980230Y-13864066D01*
X14928050Y-13761658D01*
X14928046Y-13761654D01*
X14928045Y-13761652D01*
X14838347Y-13671954D01*
X14838344Y-13671952D01*
X14838342Y-13671950D01*
X14725304Y-13614354D01*
X14725303Y-13614353D01*
X14725300Y-13614352D01*
X14600003Y-13594508D01*
X14599997Y-13594508D01*
X14474699Y-13614352D01*
X14474698Y-13614352D01*
X14399337Y-13652751D01*
X14361658Y-13671950D01*
X14361657Y-13671951D01*
X14361652Y-13671954D01*
X14271954Y-13761652D01*
X14271951Y-13761657D01*
X14214352Y-13874698D01*
X14214352Y-13874699D01*
X14194508Y-13999996D01*
X13066389Y-13999996D01*
X13029074Y-13962681D01*
X12995589Y-13901358D01*
X13000573Y-13831666D01*
X13029074Y-13787319D01*
X13078045Y-13738347D01*
X13078050Y-13738342D01*
X13135646Y-13625304D01*
X13135646Y-13625302D01*
X13135647Y-13625301D01*
X13135647Y-13625300D01*
X13155492Y-13500003D01*
X13155492Y-13499996D01*
X13135647Y-13374699D01*
X13135647Y-13374698D01*
X13135646Y-13374696D01*
X13078050Y-13261658D01*
X13078046Y-13261654D01*
X13078045Y-13261652D01*
X12988347Y-13171954D01*
X12988344Y-13171952D01*
X12988342Y-13171950D01*
X12875304Y-13114354D01*
X12875303Y-13114353D01*
X12875300Y-13114352D01*
X12750003Y-13094508D01*
X12749997Y-13094508D01*
X12624699Y-13114352D01*
X12624698Y-13114352D01*
X12549337Y-13152751D01*
X12511658Y-13171950D01*
X12511657Y-13171951D01*
X12511652Y-13171954D01*
X12421954Y-13261652D01*
X12421951Y-13261657D01*
X12364352Y-13374698D01*
X12364352Y-13374699D01*
X12344508Y-13499996D01*
X2266476Y-13499996D01*
X2257685Y-13483550D01*
X2168353Y-13374698D01*
X2126410Y-13323589D01*
X1966452Y-13192317D01*
X1966453Y-13192317D01*
X1966450Y-13192315D01*
X1783954Y-13094768D01*
X1585934Y-13034700D01*
X1585932Y-13034699D01*
X1585934Y-13034699D01*
X1380000Y-13014417D01*
X1174067Y-13034699D01*
X976043Y-13094769D01*
X939403Y-13114354D01*
X793550Y-13192315D01*
X793548Y-13192316D01*
X793547Y-13192317D01*
X703164Y-13266492D01*
X638854Y-13293804D01*
X569987Y-13282013D01*
X518427Y-13234860D01*
X500500Y-13170638D01*
X500500Y-12429361D01*
X520185Y-12362322D01*
X572989Y-12316567D01*
X642147Y-12306623D01*
X703163Y-12333507D01*
X793550Y-12407685D01*
X976046Y-12505232D01*
X1174066Y-12565300D01*
X1174065Y-12565300D01*
X1192529Y-12567118D01*
X1380000Y-12585583D01*
X1585934Y-12565300D01*
X1783954Y-12505232D01*
X1966450Y-12407685D01*
X2126410Y-12276410D01*
X2257685Y-12116450D01*
X2355232Y-11933954D01*
X2415300Y-11735934D01*
X2421302Y-11674996D01*
X4469508Y-11674996D01*
X4469508Y-11675003D01*
X4489352Y-11800300D01*
X4489352Y-11800301D01*
X4489354Y-11800304D01*
X4546950Y-11913342D01*
X4546952Y-11913344D01*
X4546954Y-11913347D01*
X4636652Y-12003045D01*
X4636654Y-12003046D01*
X4636658Y-12003050D01*
X4749696Y-12060646D01*
X4749697Y-12060646D01*
X4749699Y-12060647D01*
X4874997Y-12080492D01*
X4875000Y-12080492D01*
X4875003Y-12080492D01*
X5000300Y-12060647D01*
X5000301Y-12060647D01*
X5000302Y-12060646D01*
X5000304Y-12060646D01*
X5113342Y-12003050D01*
X5203050Y-11913342D01*
X5260646Y-11800304D01*
X5260646Y-11800302D01*
X5260647Y-11800301D01*
X5260647Y-11800300D01*
X5280492Y-11675003D01*
X5280492Y-11674996D01*
X5260647Y-11549699D01*
X5260647Y-11549698D01*
X5250610Y-11530000D01*
X5203050Y-11436658D01*
X5203046Y-11436654D01*
X5203045Y-11436652D01*
X5113347Y-11346954D01*
X5113344Y-11346952D01*
X5113342Y-11346950D01*
X5000304Y-11289354D01*
X5000303Y-11289353D01*
X5000300Y-11289352D01*
X4875003Y-11269508D01*
X4874997Y-11269508D01*
X4749699Y-11289352D01*
X4749698Y-11289352D01*
X4681570Y-11324066D01*
X4636658Y-11346950D01*
X4636657Y-11346951D01*
X4636652Y-11346954D01*
X4546954Y-11436652D01*
X4546951Y-11436657D01*
X4489352Y-11549698D01*
X4489352Y-11549699D01*
X4469508Y-11674996D01*
X2421302Y-11674996D01*
X2435583Y-11530000D01*
X2415300Y-11324066D01*
X2355232Y-11126046D01*
X2257685Y-10943550D01*
X2205702Y-10880209D01*
X2126410Y-10783589D01*
X1966452Y-10652317D01*
X1966453Y-10652317D01*
X1966450Y-10652315D01*
X1783954Y-10554768D01*
X1585934Y-10494700D01*
X1585932Y-10494699D01*
X1585934Y-10494699D01*
X1380000Y-10474417D01*
X1174067Y-10494699D01*
X976043Y-10554769D01*
X865898Y-10613643D01*
X793550Y-10652315D01*
X793548Y-10652316D01*
X793547Y-10652317D01*
X703164Y-10726492D01*
X638854Y-10753804D01*
X569987Y-10742013D01*
X518427Y-10694860D01*
X500500Y-10630638D01*
X500500Y-9889361D01*
X520185Y-9822322D01*
X572989Y-9776567D01*
X642147Y-9766623D01*
X703163Y-9793507D01*
X793550Y-9867685D01*
X976046Y-9965232D01*
X1174066Y-10025300D01*
X1174065Y-10025300D01*
X1192529Y-10027118D01*
X1380000Y-10045583D01*
X1585934Y-10025300D01*
X1783954Y-9965232D01*
X1966450Y-9867685D01*
X2126410Y-9736410D01*
X2257685Y-9576450D01*
X2355232Y-9393954D01*
X2415300Y-9195934D01*
X2435583Y-8990000D01*
X2415300Y-8784066D01*
X2355232Y-8586046D01*
X2257685Y-8403550D01*
X2205702Y-8340209D01*
X2126410Y-8243589D01*
X1966452Y-8112317D01*
X1966453Y-8112317D01*
X1966450Y-8112315D01*
X1783954Y-8014768D01*
X1585934Y-7954700D01*
X1585932Y-7954699D01*
X1585934Y-7954699D01*
X1380000Y-7934417D01*
X1174067Y-7954699D01*
X976043Y-8014769D01*
X865898Y-8073643D01*
X793550Y-8112315D01*
X793548Y-8112316D01*
X793547Y-8112317D01*
X703164Y-8186492D01*
X638854Y-8213804D01*
X569987Y-8202013D01*
X518427Y-8154860D01*
X500500Y-8090638D01*
X500500Y-7349361D01*
X520185Y-7282322D01*
X572989Y-7236567D01*
X642147Y-7226623D01*
X703163Y-7253507D01*
X793550Y-7327685D01*
X976046Y-7425232D01*
X1174066Y-7485300D01*
X1174065Y-7485300D01*
X1192529Y-7487118D01*
X1380000Y-7505583D01*
X1585934Y-7485300D01*
X1783954Y-7425232D01*
X1966450Y-7327685D01*
X2126410Y-7196410D01*
X2257685Y-7036450D01*
X2355232Y-6853954D01*
X2415300Y-6655934D01*
X2435583Y-6450000D01*
X2415300Y-6244066D01*
X2355232Y-6046046D01*
X2257685Y-5863550D01*
X2205702Y-5800209D01*
X2126410Y-5703589D01*
X1966452Y-5572317D01*
X1966453Y-5572317D01*
X1966450Y-5572315D01*
X1800025Y-5483358D01*
X1750181Y-5434395D01*
X1734721Y-5366257D01*
X1758553Y-5300578D01*
X1814111Y-5258209D01*
X1858479Y-5250000D01*
X16141521Y-5250000D01*
X16208560Y-5269685D01*
G37*
%TD.AperFunction*%
%TD*%
M02*
