%TF.GenerationSoftware,KiCad,Pcbnew,8.0.6*%
%TF.CreationDate,2024-11-16T14:05:28-06:00*%
%TF.ProjectId,ATesp32,41546573-7033-4322-9e6b-696361645f70,rev?*%
%TF.SameCoordinates,PX47868c0PY2faf080*%
%TF.FileFunction,Legend,Bot*%
%TF.FilePolarity,Positive*%
%FSLAX46Y46*%
G04 Gerber Fmt 4.6, Leading zero omitted, Abs format (unit mm)*
G04 Created by KiCad (PCBNEW 8.0.6) date 2024-11-16 14:05:28*
%MOMM*%
%LPD*%
G01*
G04 APERTURE LIST*
%ADD10C,0.150000*%
%ADD11C,0.120000*%
G04 APERTURE END LIST*
D10*
X5254819Y-41516666D02*
X5969104Y-41516666D01*
X5969104Y-41516666D02*
X6111961Y-41469047D01*
X6111961Y-41469047D02*
X6207200Y-41373809D01*
X6207200Y-41373809D02*
X6254819Y-41230952D01*
X6254819Y-41230952D02*
X6254819Y-41135714D01*
X6254819Y-41992857D02*
X5254819Y-41992857D01*
X5254819Y-41992857D02*
X5254819Y-42373809D01*
X5254819Y-42373809D02*
X5302438Y-42469047D01*
X5302438Y-42469047D02*
X5350057Y-42516666D01*
X5350057Y-42516666D02*
X5445295Y-42564285D01*
X5445295Y-42564285D02*
X5588152Y-42564285D01*
X5588152Y-42564285D02*
X5683390Y-42516666D01*
X5683390Y-42516666D02*
X5731009Y-42469047D01*
X5731009Y-42469047D02*
X5778628Y-42373809D01*
X5778628Y-42373809D02*
X5778628Y-41992857D01*
X5588152Y-43421428D02*
X6254819Y-43421428D01*
X5207200Y-43183333D02*
X5921485Y-42945238D01*
X5921485Y-42945238D02*
X5921485Y-43564285D01*
X14333333Y-34454819D02*
X14333333Y-35169104D01*
X14333333Y-35169104D02*
X14380952Y-35311961D01*
X14380952Y-35311961D02*
X14476190Y-35407200D01*
X14476190Y-35407200D02*
X14619047Y-35454819D01*
X14619047Y-35454819D02*
X14714285Y-35454819D01*
X13857142Y-35454819D02*
X13857142Y-34454819D01*
X13857142Y-34454819D02*
X13476190Y-34454819D01*
X13476190Y-34454819D02*
X13380952Y-34502438D01*
X13380952Y-34502438D02*
X13333333Y-34550057D01*
X13333333Y-34550057D02*
X13285714Y-34645295D01*
X13285714Y-34645295D02*
X13285714Y-34788152D01*
X13285714Y-34788152D02*
X13333333Y-34883390D01*
X13333333Y-34883390D02*
X13380952Y-34931009D01*
X13380952Y-34931009D02*
X13476190Y-34978628D01*
X13476190Y-34978628D02*
X13857142Y-34978628D01*
X12428571Y-34454819D02*
X12619047Y-34454819D01*
X12619047Y-34454819D02*
X12714285Y-34502438D01*
X12714285Y-34502438D02*
X12761904Y-34550057D01*
X12761904Y-34550057D02*
X12857142Y-34692914D01*
X12857142Y-34692914D02*
X12904761Y-34883390D01*
X12904761Y-34883390D02*
X12904761Y-35264342D01*
X12904761Y-35264342D02*
X12857142Y-35359580D01*
X12857142Y-35359580D02*
X12809523Y-35407200D01*
X12809523Y-35407200D02*
X12714285Y-35454819D01*
X12714285Y-35454819D02*
X12523809Y-35454819D01*
X12523809Y-35454819D02*
X12428571Y-35407200D01*
X12428571Y-35407200D02*
X12380952Y-35359580D01*
X12380952Y-35359580D02*
X12333333Y-35264342D01*
X12333333Y-35264342D02*
X12333333Y-35026247D01*
X12333333Y-35026247D02*
X12380952Y-34931009D01*
X12380952Y-34931009D02*
X12428571Y-34883390D01*
X12428571Y-34883390D02*
X12523809Y-34835771D01*
X12523809Y-34835771D02*
X12714285Y-34835771D01*
X12714285Y-34835771D02*
X12809523Y-34883390D01*
X12809523Y-34883390D02*
X12857142Y-34931009D01*
X12857142Y-34931009D02*
X12904761Y-35026247D01*
X3454819Y-35166666D02*
X4169104Y-35166666D01*
X4169104Y-35166666D02*
X4311961Y-35119047D01*
X4311961Y-35119047D02*
X4407200Y-35023809D01*
X4407200Y-35023809D02*
X4454819Y-34880952D01*
X4454819Y-34880952D02*
X4454819Y-34785714D01*
X4454819Y-35642857D02*
X3454819Y-35642857D01*
X3454819Y-35642857D02*
X3454819Y-36023809D01*
X3454819Y-36023809D02*
X3502438Y-36119047D01*
X3502438Y-36119047D02*
X3550057Y-36166666D01*
X3550057Y-36166666D02*
X3645295Y-36214285D01*
X3645295Y-36214285D02*
X3788152Y-36214285D01*
X3788152Y-36214285D02*
X3883390Y-36166666D01*
X3883390Y-36166666D02*
X3931009Y-36119047D01*
X3931009Y-36119047D02*
X3978628Y-36023809D01*
X3978628Y-36023809D02*
X3978628Y-35642857D01*
X3454819Y-36547619D02*
X3454819Y-37214285D01*
X3454819Y-37214285D02*
X4454819Y-36785714D01*
X7754819Y-36966666D02*
X8469104Y-36966666D01*
X8469104Y-36966666D02*
X8611961Y-36919047D01*
X8611961Y-36919047D02*
X8707200Y-36823809D01*
X8707200Y-36823809D02*
X8754819Y-36680952D01*
X8754819Y-36680952D02*
X8754819Y-36585714D01*
X8754819Y-37442857D02*
X7754819Y-37442857D01*
X7754819Y-37442857D02*
X7754819Y-37823809D01*
X7754819Y-37823809D02*
X7802438Y-37919047D01*
X7802438Y-37919047D02*
X7850057Y-37966666D01*
X7850057Y-37966666D02*
X7945295Y-38014285D01*
X7945295Y-38014285D02*
X8088152Y-38014285D01*
X8088152Y-38014285D02*
X8183390Y-37966666D01*
X8183390Y-37966666D02*
X8231009Y-37919047D01*
X8231009Y-37919047D02*
X8278628Y-37823809D01*
X8278628Y-37823809D02*
X8278628Y-37442857D01*
X8183390Y-38585714D02*
X8135771Y-38490476D01*
X8135771Y-38490476D02*
X8088152Y-38442857D01*
X8088152Y-38442857D02*
X7992914Y-38395238D01*
X7992914Y-38395238D02*
X7945295Y-38395238D01*
X7945295Y-38395238D02*
X7850057Y-38442857D01*
X7850057Y-38442857D02*
X7802438Y-38490476D01*
X7802438Y-38490476D02*
X7754819Y-38585714D01*
X7754819Y-38585714D02*
X7754819Y-38776190D01*
X7754819Y-38776190D02*
X7802438Y-38871428D01*
X7802438Y-38871428D02*
X7850057Y-38919047D01*
X7850057Y-38919047D02*
X7945295Y-38966666D01*
X7945295Y-38966666D02*
X7992914Y-38966666D01*
X7992914Y-38966666D02*
X8088152Y-38919047D01*
X8088152Y-38919047D02*
X8135771Y-38871428D01*
X8135771Y-38871428D02*
X8183390Y-38776190D01*
X8183390Y-38776190D02*
X8183390Y-38585714D01*
X8183390Y-38585714D02*
X8231009Y-38490476D01*
X8231009Y-38490476D02*
X8278628Y-38442857D01*
X8278628Y-38442857D02*
X8373866Y-38395238D01*
X8373866Y-38395238D02*
X8564342Y-38395238D01*
X8564342Y-38395238D02*
X8659580Y-38442857D01*
X8659580Y-38442857D02*
X8707200Y-38490476D01*
X8707200Y-38490476D02*
X8754819Y-38585714D01*
X8754819Y-38585714D02*
X8754819Y-38776190D01*
X8754819Y-38776190D02*
X8707200Y-38871428D01*
X8707200Y-38871428D02*
X8659580Y-38919047D01*
X8659580Y-38919047D02*
X8564342Y-38966666D01*
X8564342Y-38966666D02*
X8373866Y-38966666D01*
X8373866Y-38966666D02*
X8278628Y-38919047D01*
X8278628Y-38919047D02*
X8231009Y-38871428D01*
X8231009Y-38871428D02*
X8183390Y-38776190D01*
D11*
%TO.C,JP4*%
X3000000Y-43050000D02*
X3000000Y-41650000D01*
X3700000Y-40950000D02*
X4300000Y-40950000D01*
X4300000Y-43750000D02*
X3700000Y-43750000D01*
X5000000Y-41650000D02*
X5000000Y-43050000D01*
X3000000Y-41650000D02*
G75*
G02*
X3700000Y-40950000I700000J0D01*
G01*
X3700000Y-43750000D02*
G75*
G02*
X3000000Y-43050000I-1J699999D01*
G01*
X4300000Y-40950000D02*
G75*
G02*
X5000000Y-41650000I0J-700000D01*
G01*
X5000000Y-43050000D02*
G75*
G02*
X4300000Y-43750000I-699999J-1D01*
G01*
%TO.C,JP6*%
X12100000Y-37100000D02*
X12100000Y-36500000D01*
X12800000Y-35800000D02*
X14200000Y-35800000D01*
X14200000Y-37800000D02*
X12800000Y-37800000D01*
X14900000Y-36500000D02*
X14900000Y-37100000D01*
X12100000Y-36500000D02*
G75*
G02*
X12800000Y-35800000I700000J0D01*
G01*
X12800000Y-37800000D02*
G75*
G02*
X12100000Y-37100000I0J700000D01*
G01*
X14200000Y-35800000D02*
G75*
G02*
X14900000Y-36500000I1J-699999D01*
G01*
X14900000Y-37100000D02*
G75*
G02*
X14200000Y-37800000I-699999J-1D01*
G01*
%TO.C,JP7*%
X3000000Y-39700000D02*
X3000000Y-38300000D01*
X3700000Y-37600000D02*
X4300000Y-37600000D01*
X4300000Y-40400000D02*
X3700000Y-40400000D01*
X5000000Y-38300000D02*
X5000000Y-39700000D01*
X3000000Y-38300000D02*
G75*
G02*
X3700000Y-37600000I700000J0D01*
G01*
X3700000Y-40400000D02*
G75*
G02*
X3000000Y-39700000I-1J699999D01*
G01*
X4300000Y-37600000D02*
G75*
G02*
X5000000Y-38300000I0J-700000D01*
G01*
X5000000Y-39700000D02*
G75*
G02*
X4300000Y-40400000I-699999J-1D01*
G01*
%TO.C,JP8*%
X5500000Y-38500000D02*
X5500000Y-37100000D01*
X6200000Y-36400000D02*
X6800000Y-36400000D01*
X6800000Y-39200000D02*
X6200000Y-39200000D01*
X7500000Y-37100000D02*
X7500000Y-38500000D01*
X5500000Y-37100000D02*
G75*
G02*
X6200000Y-36400000I700000J0D01*
G01*
X6200000Y-39200000D02*
G75*
G02*
X5500000Y-38500000I-1J699999D01*
G01*
X6800000Y-36400000D02*
G75*
G02*
X7500000Y-37100000I0J-700000D01*
G01*
X7500000Y-38500000D02*
G75*
G02*
X6800000Y-39200000I-699999J-1D01*
G01*
%TD*%
M02*
