%TF.GenerationSoftware,KiCad,Pcbnew,8.0.6*%
%TF.CreationDate,2024-11-16T14:28:32-06:00*%
%TF.ProjectId,ATesp32,41546573-7033-4322-9e6b-696361645f70,rev?*%
%TF.SameCoordinates,PX47868c0PY608f3d0*%
%TF.FileFunction,Copper,L1,Top*%
%TF.FilePolarity,Positive*%
%FSLAX46Y46*%
G04 Gerber Fmt 4.6, Leading zero omitted, Abs format (unit mm)*
G04 Created by KiCad (PCBNEW 8.0.6) date 2024-11-16 14:28:32*
%MOMM*%
%LPD*%
G01*
G04 APERTURE LIST*
G04 Aperture macros list*
%AMRoundRect*
0 Rectangle with rounded corners*
0 $1 Rounding radius*
0 $2 $3 $4 $5 $6 $7 $8 $9 X,Y pos of 4 corners*
0 Add a 4 corners polygon primitive as box body*
4,1,4,$2,$3,$4,$5,$6,$7,$8,$9,$2,$3,0*
0 Add four circle primitives for the rounded corners*
1,1,$1+$1,$2,$3*
1,1,$1+$1,$4,$5*
1,1,$1+$1,$6,$7*
1,1,$1+$1,$8,$9*
0 Add four rect primitives between the rounded corners*
20,1,$1+$1,$2,$3,$4,$5,0*
20,1,$1+$1,$4,$5,$6,$7,0*
20,1,$1+$1,$6,$7,$8,$9,0*
20,1,$1+$1,$8,$9,$2,$3,0*%
%AMRotRect*
0 Rectangle, with rotation*
0 The origin of the aperture is its center*
0 $1 length*
0 $2 width*
0 $3 Rotation angle, in degrees counterclockwise*
0 Add horizontal line*
21,1,$1,$2,0,0,$3*%
G04 Aperture macros list end*
%TA.AperFunction,SMDPad,CuDef*%
%ADD10RoundRect,0.135000X-0.135000X-0.185000X0.135000X-0.185000X0.135000X0.185000X-0.135000X0.185000X0*%
%TD*%
%TA.AperFunction,SMDPad,CuDef*%
%ADD11RoundRect,0.140000X0.021213X-0.219203X0.219203X-0.021213X-0.021213X0.219203X-0.219203X0.021213X0*%
%TD*%
%TA.AperFunction,SMDPad,CuDef*%
%ADD12RoundRect,0.140000X0.140000X0.170000X-0.140000X0.170000X-0.140000X-0.170000X0.140000X-0.170000X0*%
%TD*%
%TA.AperFunction,SMDPad,CuDef*%
%ADD13RoundRect,0.140000X-0.021213X0.219203X-0.219203X0.021213X0.021213X-0.219203X0.219203X-0.021213X0*%
%TD*%
%TA.AperFunction,SMDPad,CuDef*%
%ADD14RoundRect,0.150000X0.150000X-0.587500X0.150000X0.587500X-0.150000X0.587500X-0.150000X-0.587500X0*%
%TD*%
%TA.AperFunction,SMDPad,CuDef*%
%ADD15R,1.000000X0.900000*%
%TD*%
%TA.AperFunction,SMDPad,CuDef*%
%ADD16RoundRect,0.150000X0.150000X-0.512500X0.150000X0.512500X-0.150000X0.512500X-0.150000X-0.512500X0*%
%TD*%
%TA.AperFunction,SMDPad,CuDef*%
%ADD17RoundRect,0.150000X-0.150000X0.512500X-0.150000X-0.512500X0.150000X-0.512500X0.150000X0.512500X0*%
%TD*%
%TA.AperFunction,SMDPad,CuDef*%
%ADD18RoundRect,0.135000X0.135000X0.185000X-0.135000X0.185000X-0.135000X-0.185000X0.135000X-0.185000X0*%
%TD*%
%TA.AperFunction,SMDPad,CuDef*%
%ADD19RoundRect,0.140000X0.219203X0.021213X0.021213X0.219203X-0.219203X-0.021213X-0.021213X-0.219203X0*%
%TD*%
%TA.AperFunction,SMDPad,CuDef*%
%ADD20RoundRect,0.147500X-0.147500X-0.172500X0.147500X-0.172500X0.147500X0.172500X-0.147500X0.172500X0*%
%TD*%
%TA.AperFunction,SMDPad,CuDef*%
%ADD21RoundRect,0.135000X-0.185000X0.135000X-0.185000X-0.135000X0.185000X-0.135000X0.185000X0.135000X0*%
%TD*%
%TA.AperFunction,SMDPad,CuDef*%
%ADD22RoundRect,0.135000X0.185000X-0.135000X0.185000X0.135000X-0.185000X0.135000X-0.185000X-0.135000X0*%
%TD*%
%TA.AperFunction,SMDPad,CuDef*%
%ADD23RoundRect,0.112500X-0.112500X0.187500X-0.112500X-0.187500X0.112500X-0.187500X0.112500X0.187500X0*%
%TD*%
%TA.AperFunction,SMDPad,CuDef*%
%ADD24RoundRect,0.062500X0.062500X-0.350000X0.062500X0.350000X-0.062500X0.350000X-0.062500X-0.350000X0*%
%TD*%
%TA.AperFunction,SMDPad,CuDef*%
%ADD25RoundRect,0.062500X0.350000X-0.062500X0.350000X0.062500X-0.350000X0.062500X-0.350000X-0.062500X0*%
%TD*%
%TA.AperFunction,HeatsinkPad*%
%ADD26R,2.600000X2.600000*%
%TD*%
%TA.AperFunction,SMDPad,CuDef*%
%ADD27RoundRect,0.112500X0.187500X0.112500X-0.187500X0.112500X-0.187500X-0.112500X0.187500X-0.112500X0*%
%TD*%
%TA.AperFunction,ComponentPad*%
%ADD28R,1.600000X1.600000*%
%TD*%
%TA.AperFunction,ComponentPad*%
%ADD29O,1.600000X1.600000*%
%TD*%
%TA.AperFunction,SMDPad,CuDef*%
%ADD30RoundRect,0.250000X0.250000X1.500000X-0.250000X1.500000X-0.250000X-1.500000X0.250000X-1.500000X0*%
%TD*%
%TA.AperFunction,SMDPad,CuDef*%
%ADD31RoundRect,0.250001X0.499999X1.449999X-0.499999X1.449999X-0.499999X-1.449999X0.499999X-1.449999X0*%
%TD*%
%TA.AperFunction,SMDPad,CuDef*%
%ADD32RoundRect,0.250000X0.650000X-0.350000X0.650000X0.350000X-0.650000X0.350000X-0.650000X-0.350000X0*%
%TD*%
%TA.AperFunction,SMDPad,CuDef*%
%ADD33RoundRect,0.147500X0.172500X-0.147500X0.172500X0.147500X-0.172500X0.147500X-0.172500X-0.147500X0*%
%TD*%
%TA.AperFunction,SMDPad,CuDef*%
%ADD34RoundRect,0.147500X-0.172500X0.147500X-0.172500X-0.147500X0.172500X-0.147500X0.172500X0.147500X0*%
%TD*%
%TA.AperFunction,SMDPad,CuDef*%
%ADD35RoundRect,0.140000X-0.140000X-0.170000X0.140000X-0.170000X0.140000X0.170000X-0.140000X0.170000X0*%
%TD*%
%TA.AperFunction,SMDPad,CuDef*%
%ADD36RoundRect,0.050000X-0.282843X0.212132X0.212132X-0.282843X0.282843X-0.212132X-0.212132X0.282843X0*%
%TD*%
%TA.AperFunction,SMDPad,CuDef*%
%ADD37RoundRect,0.050000X-0.282843X-0.212132X-0.212132X-0.282843X0.282843X0.212132X0.212132X0.282843X0*%
%TD*%
%TA.AperFunction,HeatsinkPad*%
%ADD38RotRect,4.000000X4.000000X315.000000*%
%TD*%
%TA.AperFunction,SMDPad,CuDef*%
%ADD39R,0.600000X1.240000*%
%TD*%
%TA.AperFunction,SMDPad,CuDef*%
%ADD40R,0.300000X1.240000*%
%TD*%
%TA.AperFunction,ComponentPad*%
%ADD41O,1.000000X2.100000*%
%TD*%
%TA.AperFunction,ComponentPad*%
%ADD42O,1.000000X1.800000*%
%TD*%
%TA.AperFunction,SMDPad,CuDef*%
%ADD43RoundRect,0.140000X-0.170000X0.140000X-0.170000X-0.140000X0.170000X-0.140000X0.170000X0.140000X0*%
%TD*%
%TA.AperFunction,SMDPad,CuDef*%
%ADD44RotRect,1.400000X1.200000X135.000000*%
%TD*%
%TA.AperFunction,ViaPad*%
%ADD45C,0.300000*%
%TD*%
%TA.AperFunction,Conductor*%
%ADD46C,0.355542*%
%TD*%
%TA.AperFunction,Conductor*%
%ADD47C,0.500000*%
%TD*%
%TA.AperFunction,Conductor*%
%ADD48C,0.150000*%
%TD*%
%TA.AperFunction,Conductor*%
%ADD49C,0.250000*%
%TD*%
%TA.AperFunction,Conductor*%
%ADD50C,0.750000*%
%TD*%
%TA.AperFunction,Conductor*%
%ADD51C,0.200000*%
%TD*%
G04 APERTURE END LIST*
D10*
%TO.P,R14,1*%
%TO.N,Net-(U5-~{TXT}{slash}GPIO.0)*%
X9890000Y15250000D03*
%TO.P,R14,2*%
%TO.N,Net-(D5-K)*%
X10910000Y15250000D03*
%TD*%
D11*
%TO.P,C5,1*%
%TO.N,+3V3*%
X12660589Y23410589D03*
%TO.P,C5,2*%
%TO.N,GND*%
X13339411Y24089411D03*
%TD*%
D10*
%TO.P,R4,1*%
%TO.N,Net-(D4-K)*%
X12740000Y31750000D03*
%TO.P,R4,2*%
%TO.N,Net-(U4-EN)*%
X13760000Y31750000D03*
%TD*%
D12*
%TO.P,C9,1*%
%TO.N,Net-(AE1-FEED)*%
X5380000Y45550000D03*
%TO.P,C9,2*%
%TO.N,GND*%
X4420000Y45550000D03*
%TD*%
D13*
%TO.P,C1,1*%
%TO.N,+3V3*%
X5739411Y26489411D03*
%TO.P,C1,2*%
%TO.N,GND*%
X5060589Y25810589D03*
%TD*%
%TO.P,C3,1*%
%TO.N,+3V3*%
X5039411Y27189411D03*
%TO.P,C3,2*%
%TO.N,GND*%
X4360589Y26510589D03*
%TD*%
D14*
%TO.P,Q1,1,G*%
%TO.N,+5V*%
X8300000Y36812500D03*
%TO.P,Q1,2,S*%
%TO.N,Net-(D4-K)*%
X10200000Y36812500D03*
%TO.P,Q1,3,D*%
%TO.N,+BATT*%
X9250000Y38687500D03*
%TD*%
D15*
%TO.P,SW1,1,1*%
%TO.N,GND*%
X5200000Y40800000D03*
X5200000Y36700000D03*
%TO.P,SW1,2,2*%
%TO.N,Net-(U1-CHIP_PU)*%
X3600000Y40800000D03*
X3600000Y36700000D03*
%TD*%
D16*
%TO.P,U4,1,VIN*%
%TO.N,Net-(D4-K)*%
X11850000Y33225000D03*
%TO.P,U4,2,GND*%
%TO.N,GND*%
X12800000Y33225000D03*
%TO.P,U4,3,EN*%
%TO.N,Net-(U4-EN)*%
X13750000Y33225000D03*
%TO.P,U4,4,NC*%
%TO.N,unconnected-(U4-NC-Pad4)*%
X13750000Y35500000D03*
%TO.P,U4,5,VOUT*%
%TO.N,+3V3*%
X11850000Y35500000D03*
%TD*%
D17*
%TO.P,U3,1,STAT*%
%TO.N,Net-(U3-STAT)*%
X13750000Y39750000D03*
%TO.P,U3,2,V_{SS}*%
%TO.N,GND*%
X12800000Y39750000D03*
%TO.P,U3,3,V_{BAT}*%
%TO.N,+BATT*%
X11850000Y39750000D03*
%TO.P,U3,4,V_{DD}*%
%TO.N,+5V*%
X11850000Y37475000D03*
%TO.P,U3,5,PROG*%
%TO.N,Net-(U3-PROG)*%
X13750000Y37475000D03*
%TD*%
D18*
%TO.P,R1,1*%
%TO.N,+3V3*%
X4509999Y35250000D03*
%TO.P,R1,2*%
%TO.N,Net-(U1-CHIP_PU)*%
X3490001Y35250000D03*
%TD*%
D19*
%TO.P,C7,1*%
%TO.N,+3V3*%
X8939411Y27210589D03*
%TO.P,C7,2*%
%TO.N,GND*%
X8260589Y27889411D03*
%TD*%
D20*
%TO.P,D6,1,K*%
%TO.N,Net-(D6-K)*%
X12415000Y14250000D03*
%TO.P,D6,2,A*%
%TO.N,GND*%
X13385000Y14250000D03*
%TD*%
D15*
%TO.P,SW2,1,1*%
%TO.N,GND*%
X5200000Y32900000D03*
X5200000Y28800000D03*
%TO.P,SW2,2,2*%
%TO.N,Net-(JP4-B)*%
X3600000Y32900000D03*
X3600000Y28800000D03*
%TD*%
D21*
%TO.P,R12,1*%
%TO.N,GND*%
X13500000Y12960000D03*
%TO.P,R12,2*%
%TO.N,Net-(U5-VBUS)*%
X13500000Y11940000D03*
%TD*%
D22*
%TO.P,R11,1*%
%TO.N,+5V*%
X13500000Y9940000D03*
%TO.P,R11,2*%
%TO.N,Net-(U5-VBUS)*%
X13500000Y10960000D03*
%TD*%
D23*
%TO.P,D1,1,K*%
%TO.N,+5V*%
X5350000Y10300000D03*
%TO.P,D1,2,A*%
%TO.N,Net-(D1-A)*%
X5350000Y8200000D03*
%TD*%
D18*
%TO.P,R8,1*%
%TO.N,Net-(JP6-B)*%
X12259999Y16250000D03*
%TO.P,R8,2*%
%TO.N,GND*%
X11240001Y16250000D03*
%TD*%
D24*
%TO.P,U5,1,~{RI}/CLK*%
%TO.N,unconnected-(U5-~{RI}{slash}CLK-Pad1)*%
X7750000Y9150000D03*
%TO.P,U5,2,GND*%
%TO.N,GND*%
X8250000Y9150000D03*
%TO.P,U5,3,D+*%
%TO.N,D+*%
X8750000Y9150000D03*
%TO.P,U5,4,D-*%
%TO.N,D-*%
X9250000Y9150000D03*
%TO.P,U5,5,VIO*%
%TO.N,Net-(U5-VDD)*%
X9750000Y9150000D03*
%TO.P,U5,6,VDD*%
X10250000Y9150000D03*
D25*
%TO.P,U5,7,VREGIN*%
%TO.N,+5V*%
X10937500Y9837500D03*
%TO.P,U5,8,VBUS*%
%TO.N,Net-(U5-VBUS)*%
X10937500Y10337500D03*
%TO.P,U5,9,~{RST}*%
%TO.N,Net-(U5-~{RST})*%
X10937500Y10837500D03*
%TO.P,U5,10,NC*%
%TO.N,unconnected-(U5-NC-Pad10)*%
X10937500Y11337500D03*
%TO.P,U5,11,~{WAKEUP}/GPIO.3*%
%TO.N,unconnected-(U5-~{WAKEUP}{slash}GPIO.3-Pad11)*%
X10937500Y11837500D03*
%TO.P,U5,12,RS485/GPIO.2*%
%TO.N,unconnected-(U5-RS485{slash}GPIO.2-Pad12)*%
X10937500Y12337500D03*
D24*
%TO.P,U5,13,~{RXT}/GPIO.1*%
%TO.N,Net-(U5-~{RXT}{slash}GPIO.1)*%
X10250000Y13025000D03*
%TO.P,U5,14,~{TXT}/GPIO.0*%
%TO.N,Net-(U5-~{TXT}{slash}GPIO.0)*%
X9750000Y13025000D03*
%TO.P,U5,15,~{SUSPEND}*%
%TO.N,unconnected-(U5-~{SUSPEND}-Pad15)*%
X9250000Y13025000D03*
%TO.P,U5,16,NC*%
%TO.N,unconnected-(U5-NC-Pad16)*%
X8750000Y13025000D03*
%TO.P,U5,17,SUSPEND*%
%TO.N,unconnected-(U5-SUSPEND-Pad17)*%
X8250000Y13025000D03*
%TO.P,U5,18,~{CTS}*%
%TO.N,unconnected-(U5-~{CTS}-Pad18)*%
X7750000Y13025000D03*
D25*
%TO.P,U5,19,~{RTS}*%
%TO.N,unconnected-(U5-~{RTS}-Pad19)*%
X7062500Y12337500D03*
%TO.P,U5,20,RXD*%
%TO.N,Net-(JP8-A)*%
X7062500Y11837500D03*
%TO.P,U5,21,TXD*%
%TO.N,Net-(JP7-A)*%
X7062500Y11337500D03*
%TO.P,U5,22,~{DSR}*%
%TO.N,unconnected-(U5-~{DSR}-Pad22)*%
X7062500Y10837500D03*
%TO.P,U5,23,~{DTR}*%
%TO.N,unconnected-(U5-~{DTR}-Pad23)*%
X7062500Y10337500D03*
%TO.P,U5,24,~{DCD}*%
%TO.N,unconnected-(U5-~{DCD}-Pad24)*%
X7062500Y9837500D03*
D26*
%TO.P,U5,25,GND*%
%TO.N,GND*%
X9000000Y11087500D03*
%TD*%
D10*
%TO.P,R2,1*%
%TO.N,GND*%
X8240000Y35250000D03*
%TO.P,R2,2*%
%TO.N,+5V*%
X9260000Y35250000D03*
%TD*%
D27*
%TO.P,D4,1,K*%
%TO.N,Net-(D4-K)*%
X10550000Y33750000D03*
%TO.P,D4,2,A*%
%TO.N,+5V*%
X8450000Y33750000D03*
%TD*%
D18*
%TO.P,R5,1*%
%TO.N,Net-(J1-CC1)*%
X7760000Y8000000D03*
%TO.P,R5,2*%
%TO.N,GND*%
X6740000Y8000000D03*
%TD*%
D21*
%TO.P,R3,1*%
%TO.N,Net-(U3-PROG)*%
X15100000Y36260000D03*
%TO.P,R3,2*%
%TO.N,GND*%
X15100000Y35240000D03*
%TD*%
D22*
%TO.P,R7,1*%
%TO.N,Net-(J1-CC2)*%
X3800000Y8090000D03*
%TO.P,R7,2*%
%TO.N,GND*%
X3800000Y9110000D03*
%TD*%
D20*
%TO.P,D5,1,K*%
%TO.N,Net-(D5-K)*%
X12415000Y15250000D03*
%TO.P,D5,2,A*%
%TO.N,GND*%
X13385000Y15250000D03*
%TD*%
D28*
%TO.P,U2,1,PB0*%
%TO.N,PB0*%
X1380000Y49880000D03*
D29*
%TO.P,U2,2,PB1*%
%TO.N,PB1*%
X1380000Y47340000D03*
%TO.P,U2,3,PB2*%
%TO.N,PB2*%
X1380000Y44800000D03*
%TO.P,U2,4,PB3*%
%TO.N,PB3*%
X1380000Y42260000D03*
%TO.P,U2,5,PB4*%
%TO.N,PB4*%
X1380000Y39720000D03*
%TO.P,U2,6,PB5*%
%TO.N,PB5*%
X1380000Y37180000D03*
%TO.P,U2,7,PB6*%
%TO.N,PB6*%
X1380000Y34640000D03*
%TO.P,U2,8,PB7*%
%TO.N,PB7*%
X1380000Y32100000D03*
%TO.P,U2,9,~{RESET}*%
%TO.N,unconnected-(U2-~{RESET}-Pad9)*%
X1380000Y29560000D03*
%TO.P,U2,10,VCC*%
%TO.N,+5V*%
X1380000Y27020000D03*
%TO.P,U2,11,GND*%
%TO.N,GND*%
X1380000Y24480000D03*
%TO.P,U2,12,XTAL2*%
%TO.N,unconnected-(U2-XTAL2-Pad12)*%
X1380000Y21940000D03*
%TO.P,U2,13,XTAL1*%
%TO.N,unconnected-(U2-XTAL1-Pad13)*%
X1380000Y19400000D03*
%TO.P,U2,14,PD0*%
%TO.N,PD0*%
X1380000Y16860000D03*
%TO.P,U2,15,PD1*%
%TO.N,PD1*%
X1380000Y14320000D03*
%TO.P,U2,16,PD2*%
%TO.N,D_P*%
X1380000Y11780000D03*
%TO.P,U2,17,PD3*%
%TO.N,D_N*%
X1380000Y9240000D03*
%TO.P,U2,18,PD4*%
%TO.N,PD4*%
X1380000Y6700000D03*
%TO.P,U2,19,PD5*%
%TO.N,PD5*%
X1380000Y4160000D03*
%TO.P,U2,20,PD6*%
%TO.N,PD6*%
X1380000Y1620000D03*
%TO.P,U2,21,PD7*%
%TO.N,PD7*%
X16620000Y1620000D03*
%TO.P,U2,22,PC0*%
%TO.N,PC0*%
X16620000Y4160000D03*
%TO.P,U2,23,PC1*%
%TO.N,PC1*%
X16620000Y6700000D03*
%TO.P,U2,24,PC2*%
%TO.N,PC2*%
X16620000Y9240000D03*
%TO.P,U2,25,PC3*%
%TO.N,PC3*%
X16620000Y11780000D03*
%TO.P,U2,26,PC4*%
%TO.N,PC4*%
X16620000Y14320000D03*
%TO.P,U2,27,PC5*%
%TO.N,PC5*%
X16620000Y16860000D03*
%TO.P,U2,28,PC6*%
%TO.N,PC6*%
X16620000Y19400000D03*
%TO.P,U2,29,PC7*%
%TO.N,PC7*%
X16620000Y21940000D03*
%TO.P,U2,30,AVCC*%
%TO.N,+5V*%
X16620000Y24480000D03*
%TO.P,U2,31,GND*%
%TO.N,GND*%
X16620000Y27020000D03*
%TO.P,U2,32,AREF*%
%TO.N,unconnected-(U2-AREF-Pad32)*%
X16620000Y29560000D03*
%TO.P,U2,33,PA7*%
%TO.N,PA7*%
X16620000Y32100000D03*
%TO.P,U2,34,PA6*%
%TO.N,PA6*%
X16620000Y34640000D03*
%TO.P,U2,35,PA5*%
%TO.N,PA5*%
X16620000Y37180000D03*
%TO.P,U2,36,PA4*%
%TO.N,PA4*%
X16620000Y39720000D03*
%TO.P,U2,37,PA3*%
%TO.N,PA3*%
X16620000Y42260000D03*
%TO.P,U2,38,PA2*%
%TO.N,PA2*%
X16620000Y44800000D03*
%TO.P,U2,39,PA1*%
%TO.N,PA1*%
X16620000Y47340000D03*
%TO.P,U2,40,PA0*%
%TO.N,PA0*%
X16620000Y49880000D03*
%TD*%
D30*
%TO.P,J2,1,Pin_1*%
%TO.N,+BATT*%
X12000000Y43000000D03*
%TO.P,J2,2,Pin_2*%
%TO.N,GND*%
X10000000Y43000000D03*
D31*
%TO.P,J2,MP*%
%TO.N,N/C*%
X14350000Y48750000D03*
X7650000Y48750000D03*
%TD*%
D32*
%TO.P,AE1,1,FEED*%
%TO.N,Net-(AE1-FEED)*%
X4800000Y47250000D03*
%TO.P,AE1,2,PCB_Trace*%
%TO.N,unconnected-(AE1-PCB_Trace-Pad2)*%
X4800000Y50150000D03*
%TD*%
D33*
%TO.P,L2,1*%
%TO.N,Net-(U1-LNA_IN)*%
X5350000Y43515000D03*
%TO.P,L2,2*%
%TO.N,Net-(AE1-FEED)*%
X5350000Y44485000D03*
%TD*%
D34*
%TO.P,D2,1,K*%
%TO.N,Net-(D2-K)*%
X15100000Y38235000D03*
%TO.P,D2,2,A*%
%TO.N,+5V*%
X15100000Y37265000D03*
%TD*%
D35*
%TO.P,C10,1*%
%TO.N,Net-(U1-CHIP_PU)*%
X3520000Y34250000D03*
%TO.P,C10,2*%
%TO.N,GND*%
X4480000Y34250000D03*
%TD*%
D21*
%TO.P,R13,1*%
%TO.N,Net-(U5-VDD)*%
X12200000Y12060000D03*
%TO.P,R13,2*%
%TO.N,Net-(U5-~{RST})*%
X12200000Y11040000D03*
%TD*%
D35*
%TO.P,C17,1*%
%TO.N,Net-(U5-VDD)*%
X10500000Y8000000D03*
%TO.P,C17,2*%
%TO.N,GND*%
X11460000Y8000000D03*
%TD*%
D18*
%TO.P,R9,1*%
%TO.N,Net-(U1-U0TXD)*%
X9110000Y14250000D03*
%TO.P,R9,2*%
%TO.N,UART_TX*%
X8090000Y14250000D03*
%TD*%
D21*
%TO.P,R6,1*%
%TO.N,Net-(U3-STAT)*%
X15100000Y40260000D03*
%TO.P,R6,2*%
%TO.N,Net-(D2-K)*%
X15100000Y39240000D03*
%TD*%
D36*
%TO.P,U1,1,LNA_IN*%
%TO.N,Net-(U1-LNA_IN)*%
X7648959Y25527996D03*
%TO.P,U1,2,VDD3P3*%
%TO.N,+3V3*%
X7366117Y25245153D03*
%TO.P,U1,3,VDD3P3*%
X7083274Y24962311D03*
%TO.P,U1,4,CHIP_PU*%
%TO.N,Net-(U1-CHIP_PU)*%
X6800431Y24679468D03*
%TO.P,U1,5,GPIO0*%
%TO.N,Net-(JP4-B)*%
X6517588Y24396625D03*
%TO.P,U1,6,GPIO1*%
%TO.N,PB0*%
X6234746Y24113782D03*
%TO.P,U1,7,GPIO2*%
%TO.N,PB1*%
X5951903Y23830940D03*
%TO.P,U1,8,GPIO3*%
%TO.N,PB2*%
X5669060Y23548097D03*
%TO.P,U1,9,GPIO4*%
%TO.N,PB3*%
X5386218Y23265254D03*
%TO.P,U1,10,GPIO5*%
%TO.N,PB4*%
X5103375Y22982412D03*
%TO.P,U1,11,GPIO6*%
%TO.N,PB5*%
X4820532Y22699569D03*
%TO.P,U1,12,GPIO7*%
%TO.N,PA0*%
X4537689Y22416726D03*
%TO.P,U1,13,GPIO8*%
%TO.N,PA1*%
X4254847Y22133883D03*
%TO.P,U1,14,GPIO9*%
%TO.N,PA2*%
X3972004Y21851041D03*
D37*
%TO.P,U1,15,GPIO10*%
%TO.N,PA3*%
X3972004Y20648959D03*
%TO.P,U1,16,GPIO11*%
%TO.N,PA4*%
X4254847Y20366117D03*
%TO.P,U1,17,GPIO12*%
%TO.N,PA5*%
X4537689Y20083274D03*
%TO.P,U1,18,GPIO13*%
%TO.N,PA6*%
X4820532Y19800431D03*
%TO.P,U1,19,GPIO14*%
%TO.N,PA7*%
X5103375Y19517588D03*
%TO.P,U1,20,VDD3P3_RTC*%
%TO.N,+3V3*%
X5386218Y19234746D03*
%TO.P,U1,21,XTAL_32K_P*%
%TO.N,PB6*%
X5669060Y18951903D03*
%TO.P,U1,22,XTAL_32K_N*%
%TO.N,PB7*%
X5951903Y18669060D03*
%TO.P,U1,23,GPIO17*%
%TO.N,PD0*%
X6234746Y18386218D03*
%TO.P,U1,24,GPIO18*%
%TO.N,PD1*%
X6517588Y18103375D03*
%TO.P,U1,25,GPIO19/USB_D-*%
%TO.N,D_N*%
X6800431Y17820532D03*
%TO.P,U1,26,GPIO20/USB_D+*%
%TO.N,D_P*%
X7083274Y17537689D03*
%TO.P,U1,27,GPIO21*%
%TO.N,PD5*%
X7366117Y17254847D03*
%TO.P,U1,28,SPICS1*%
%TO.N,unconnected-(U1-SPICS1-Pad28)*%
X7648959Y16972004D03*
D36*
%TO.P,U1,29,VDD_SPI*%
%TO.N,unconnected-(U1-VDD_SPI-Pad29)*%
X8851041Y16972004D03*
%TO.P,U1,30,SPIHD*%
%TO.N,unconnected-(U1-SPIHD-Pad30)*%
X9133883Y17254847D03*
%TO.P,U1,31,SPIWP*%
%TO.N,unconnected-(U1-SPIWP-Pad31)*%
X9416726Y17537689D03*
%TO.P,U1,32,SPICS0*%
%TO.N,unconnected-(U1-SPICS0-Pad32)*%
X9699569Y17820532D03*
%TO.P,U1,33,SPICLK*%
%TO.N,unconnected-(U1-SPICLK-Pad33)*%
X9982412Y18103375D03*
%TO.P,U1,34,SPIQ*%
%TO.N,unconnected-(U1-SPIQ-Pad34)*%
X10265254Y18386218D03*
%TO.P,U1,35,SPID*%
%TO.N,unconnected-(U1-SPID-Pad35)*%
X10548097Y18669060D03*
%TO.P,U1,36,SPICLK_N*%
%TO.N,PC0*%
X10830940Y18951903D03*
%TO.P,U1,37,SPICLK_P*%
%TO.N,PC1*%
X11113782Y19234746D03*
%TO.P,U1,38,GPIO33*%
%TO.N,PC2*%
X11396625Y19517588D03*
%TO.P,U1,39,GPIO34*%
%TO.N,PC3*%
X11679468Y19800431D03*
%TO.P,U1,40,GPIO35*%
%TO.N,PC4*%
X11962311Y20083274D03*
%TO.P,U1,41,GPIO36*%
%TO.N,PC5*%
X12245153Y20366117D03*
%TO.P,U1,42,GPIO37*%
%TO.N,PC6*%
X12527996Y20648959D03*
D37*
%TO.P,U1,43,GPIO38*%
%TO.N,PC7*%
X12527996Y21851041D03*
%TO.P,U1,44,MTCK*%
%TO.N,unconnected-(U1-MTCK-Pad44)*%
X12245153Y22133883D03*
%TO.P,U1,45,MTDO*%
%TO.N,unconnected-(U1-MTDO-Pad45)*%
X11962311Y22416726D03*
%TO.P,U1,46,VDD3P3_CPU*%
%TO.N,+3V3*%
X11679468Y22699569D03*
%TO.P,U1,47,MTDI*%
%TO.N,unconnected-(U1-MTDI-Pad47)*%
X11396625Y22982412D03*
%TO.P,U1,48,MTMS*%
%TO.N,unconnected-(U1-MTMS-Pad48)*%
X11113782Y23265254D03*
%TO.P,U1,49,U0TXD*%
%TO.N,Net-(U1-U0TXD)*%
X10830940Y23548097D03*
%TO.P,U1,50,U0RXD*%
%TO.N,UART_RX*%
X10548097Y23830940D03*
%TO.P,U1,51,GPIO45*%
%TO.N,PD6*%
X10265254Y24113782D03*
%TO.P,U1,52,GPIO46*%
%TO.N,PD7*%
X9982412Y24396625D03*
%TO.P,U1,53,XTAL_N*%
%TO.N,XTAL_N*%
X9699569Y24679468D03*
%TO.P,U1,54,XTAL_P*%
%TO.N,XTAL_P*%
X9416726Y24962311D03*
%TO.P,U1,55,VDDA*%
%TO.N,+3V3*%
X9133883Y25245153D03*
%TO.P,U1,56,VDDA*%
X8851041Y25527996D03*
D38*
%TO.P,U1,57,GND*%
%TO.N,GND*%
X8250000Y21250000D03*
%TD*%
D39*
%TO.P,J1,A1,GND*%
%TO.N,GND*%
X5800000Y6370000D03*
%TO.P,J1,A4,VBUS*%
%TO.N,Net-(D1-A)*%
X6600000Y6370000D03*
D40*
%TO.P,J1,A5,CC1*%
%TO.N,Net-(J1-CC1)*%
X7750000Y6370000D03*
%TO.P,J1,A6,D+*%
%TO.N,D+*%
X8750000Y6370000D03*
%TO.P,J1,A7,D-*%
%TO.N,D-*%
X9250000Y6370000D03*
%TO.P,J1,A8,SBU1*%
%TO.N,unconnected-(J1-SBU1-PadA8)*%
X10250000Y6370000D03*
D39*
%TO.P,J1,A9,VBUS*%
%TO.N,Net-(D1-A)*%
X11400000Y6370000D03*
%TO.P,J1,A12,GND*%
%TO.N,GND*%
X12200000Y6370000D03*
%TO.P,J1,B1,GND*%
X12200000Y6370000D03*
%TO.P,J1,B4,VBUS*%
%TO.N,Net-(D1-A)*%
X11400000Y6370000D03*
D40*
%TO.P,J1,B5,CC2*%
%TO.N,Net-(J1-CC2)*%
X10750000Y6370000D03*
%TO.P,J1,B6,D+*%
%TO.N,D+*%
X9750000Y6370000D03*
%TO.P,J1,B7,D-*%
%TO.N,D-*%
X8250000Y6370000D03*
%TO.P,J1,B8,SBU2*%
%TO.N,unconnected-(J1-SBU2-PadB8)*%
X7250000Y6370000D03*
D39*
%TO.P,J1,B9,VBUS*%
%TO.N,Net-(D1-A)*%
X6600000Y6370000D03*
%TO.P,J1,B12,GND*%
%TO.N,GND*%
X5800000Y6370000D03*
D41*
%TO.P,J1,S1,SHIELD*%
X4680000Y5770000D03*
D42*
X4680000Y1570000D03*
D41*
X13320000Y5770000D03*
D42*
X13320000Y1570000D03*
%TD*%
D13*
%TO.P,C12,1*%
%TO.N,XTAL_N*%
X14839411Y25839411D03*
%TO.P,C12,2*%
%TO.N,GND*%
X14160589Y25160589D03*
%TD*%
D12*
%TO.P,C14,1*%
%TO.N,+BATT*%
X9460000Y40250000D03*
%TO.P,C14,2*%
%TO.N,GND*%
X8500000Y40250000D03*
%TD*%
D43*
%TO.P,C4,1*%
%TO.N,+5V*%
X12500000Y8980000D03*
%TO.P,C4,2*%
%TO.N,GND*%
X12500000Y8020000D03*
%TD*%
D13*
%TO.P,C11,1*%
%TO.N,GND*%
X10589411Y29589411D03*
%TO.P,C11,2*%
%TO.N,XTAL_P*%
X9910589Y28910589D03*
%TD*%
D43*
%TO.P,C13,1*%
%TO.N,Net-(D4-K)*%
X11750000Y31730000D03*
%TO.P,C13,2*%
%TO.N,GND*%
X11750000Y30770000D03*
%TD*%
D13*
%TO.P,C6,1*%
%TO.N,+3V3*%
X4439411Y18589411D03*
%TO.P,C6,2*%
%TO.N,GND*%
X3760589Y17910589D03*
%TD*%
D12*
%TO.P,C8,1*%
%TO.N,Net-(U1-LNA_IN)*%
X5380000Y42450000D03*
%TO.P,C8,2*%
%TO.N,GND*%
X4420000Y42450000D03*
%TD*%
D10*
%TO.P,R15,1*%
%TO.N,Net-(U5-~{RXT}{slash}GPIO.1)*%
X10390000Y14250000D03*
%TO.P,R15,2*%
%TO.N,Net-(D6-K)*%
X11410000Y14250000D03*
%TD*%
D43*
%TO.P,C15,1*%
%TO.N,+5V*%
X13500000Y8980000D03*
%TO.P,C15,2*%
%TO.N,GND*%
X13500000Y8020000D03*
%TD*%
D44*
%TO.P,Y1,1,1*%
%TO.N,XTAL_N*%
X14128858Y27573223D03*
%TO.P,Y1,2,2*%
%TO.N,GND*%
X12573223Y29128858D03*
%TO.P,Y1,3,3*%
%TO.N,XTAL_P*%
X11371142Y27926777D03*
%TO.P,Y1,4,4*%
%TO.N,GND*%
X12926777Y26371142D03*
%TD*%
D45*
%TO.N,GND*%
X5000000Y34250000D03*
X4250000Y41750000D03*
X6250000Y45250000D03*
X4500000Y43750000D03*
X9000000Y44250000D03*
X9000000Y45250000D03*
X4000000Y44750000D03*
X4500000Y43250000D03*
X4000000Y43750000D03*
X6000000Y38750000D03*
X12800000Y34050000D03*
X6000000Y40250000D03*
X6250000Y44750000D03*
X9750000Y19250000D03*
X13500000Y41000000D03*
X12800000Y40750000D03*
X7500000Y31500000D03*
X13250000Y30250000D03*
X4000000Y43250000D03*
X14500000Y41500000D03*
X6000000Y33750000D03*
X7500000Y35500000D03*
X6000000Y32000000D03*
X9250000Y18750000D03*
X7500000Y31000000D03*
X6000000Y39750000D03*
X3400000Y17550000D03*
X9000000Y42750000D03*
X12500000Y13400000D03*
X9000000Y43250000D03*
X11250000Y17000000D03*
X7000000Y41950000D03*
X3750000Y42750000D03*
X6000000Y34250000D03*
X6000000Y38250000D03*
X12750000Y30750000D03*
X7500000Y33500000D03*
X7500000Y28500000D03*
X9500000Y45250000D03*
X4500000Y44250000D03*
X8750000Y18250000D03*
X7500000Y40000000D03*
X6600000Y42350000D03*
X6250000Y44250000D03*
X7500000Y36000000D03*
X7500000Y29500000D03*
X6000000Y30500000D03*
X6000000Y34750000D03*
X14500000Y41000000D03*
X4750000Y41750000D03*
X7500000Y39500000D03*
X15100000Y34750000D03*
X7500000Y34000000D03*
X9000000Y41750000D03*
X6000000Y35250000D03*
X7500000Y37000000D03*
X5105000Y9181823D03*
X13500000Y25000000D03*
X10250000Y19750000D03*
X7500000Y37500000D03*
X3750000Y45750000D03*
X6000000Y37750000D03*
X6250000Y45750000D03*
X9000000Y44750000D03*
X13500000Y7250000D03*
X10750000Y20250000D03*
X9000000Y42250000D03*
X6250000Y42750000D03*
X11750000Y30000000D03*
X6000000Y39250000D03*
X13000000Y7250000D03*
X13500000Y41500000D03*
X6740000Y8740000D03*
X8798959Y28451042D03*
X12750000Y24750000D03*
X6000000Y31000000D03*
X11250000Y20750000D03*
X7500000Y29000000D03*
X14000000Y41500000D03*
X7500000Y41500000D03*
X4500000Y44750000D03*
X5250000Y41750000D03*
X7500000Y38500000D03*
X6250000Y43250000D03*
X12000000Y13400000D03*
X3750000Y45250000D03*
X14000000Y24500000D03*
X7500000Y35000000D03*
X11250000Y30000000D03*
X3750000Y42250000D03*
X14000000Y41000000D03*
X8259699Y8508193D03*
X7500000Y41000000D03*
X7500000Y32500000D03*
X6000000Y35750000D03*
X6000000Y40750000D03*
X7500000Y28000000D03*
X7500000Y30000000D03*
X7500000Y27500000D03*
X7500000Y34500000D03*
X4000000Y44250000D03*
X6000000Y31500000D03*
X7500000Y32000000D03*
X7500000Y38000000D03*
X7500000Y36500000D03*
X10000000Y45250000D03*
X6250000Y43750000D03*
X7500000Y33000000D03*
X4000000Y26850000D03*
X7500000Y39000000D03*
X7500000Y40500000D03*
X12250000Y25250000D03*
X7500000Y30500000D03*
X9000000Y43750000D03*
%TO.N,+3V3*%
X4000000Y27600000D03*
X12750000Y36000000D03*
X12750000Y35500000D03*
X5000000Y35250000D03*
X7900000Y26350000D03*
X8300000Y26750000D03*
X12750000Y35000000D03*
X4000000Y19050000D03*
X12275521Y23775521D03*
%TO.N,+5V*%
X9000000Y34250000D03*
X12750000Y37750000D03*
X11500000Y9000000D03*
X9000000Y36250000D03*
X11500000Y9500000D03*
X6000000Y9500000D03*
X6000000Y10500000D03*
X12750000Y9750000D03*
X12000000Y9750000D03*
X4550000Y10550000D03*
X9000000Y36750000D03*
X9000000Y33750000D03*
X5350000Y9800000D03*
X6000000Y10000000D03*
X9000000Y37250000D03*
X12750000Y37000000D03*
X14600000Y37250000D03*
X8500000Y34250000D03*
%TO.N,Net-(U1-CHIP_PU)*%
X4875000Y39575000D03*
X6002164Y25654247D03*
%TO.N,Net-(U5-VDD)*%
X12500000Y12750000D03*
X10800000Y8750000D03*
X11900000Y12750000D03*
X10800000Y9250000D03*
%TO.N,Net-(J1-CC2)*%
X10618644Y5476695D03*
X3225000Y6649479D03*
%TO.N,D+*%
X8750000Y5600000D03*
X9750000Y5600000D03*
%TO.N,Net-(JP4-B)*%
X6916960Y18740509D03*
X4875000Y30062500D03*
X5576046Y25392666D03*
%TO.N,Net-(JP6-B)*%
X12800000Y16250000D03*
%TO.N,PD7*%
X11036315Y24413685D03*
%TO.N,UART_RX*%
X10197783Y22625768D03*
%TO.N,Net-(JP7-A)*%
X6000000Y11350000D03*
%TO.N,UART_TX*%
X7500000Y14250000D03*
%TO.N,Net-(JP8-A)*%
X6500000Y11850000D03*
%TO.N,Net-(U1-U0TXD)*%
X10750000Y22600000D03*
X9100000Y14950000D03*
%TO.N,PA2*%
X3568844Y22218844D03*
%TO.N,PB2*%
X4375000Y25150000D03*
%TO.N,PA5*%
X5379667Y20771374D03*
%TO.N,PA1*%
X3600156Y22717863D03*
%TO.N,PD6*%
X9729961Y23107331D03*
%TO.N,PA4*%
X5026112Y21124930D03*
%TO.N,PB1*%
X4800000Y24879970D03*
%TO.N,PA6*%
X5745769Y20430828D03*
%TO.N,PB6*%
X6100000Y19450000D03*
%TO.N,PA7*%
X6086315Y20064726D03*
%TO.N,PB0*%
X5314464Y24966547D03*
%TO.N,D_N*%
X6275000Y15681833D03*
%TO.N,D_P*%
X5825000Y16150000D03*
%TO.N,PA0*%
X3684530Y23234530D03*
%TO.N,PB3*%
X3950000Y24736827D03*
%TO.N,PA3*%
X4672557Y21478485D03*
%TO.N,PB7*%
X6456528Y19069907D03*
%TD*%
D46*
%TO.N,Net-(AE1-FEED)*%
X5380000Y45550000D02*
X5380000Y44515000D01*
X5380000Y46670000D02*
X4800000Y47250000D01*
X5380000Y45550000D02*
X5380000Y46670000D01*
D47*
%TO.N,GND*%
X15100000Y35240000D02*
X15100000Y34750000D01*
X4480000Y34250000D02*
X5000000Y34250000D01*
X3400000Y17550000D02*
X3760589Y17910589D01*
X4021178Y26850000D02*
X4360589Y26510589D01*
X6740000Y8740000D02*
X6740000Y8000000D01*
D48*
X11250000Y17000000D02*
X11240001Y16990001D01*
X11240001Y16990001D02*
X11240001Y16250000D01*
X3800000Y9110000D02*
X5033177Y9110000D01*
D49*
X8250000Y9150000D02*
X8250000Y10337500D01*
D47*
X5800000Y6370000D02*
X5280000Y6370000D01*
D49*
X8250000Y9150000D02*
X8250000Y8517892D01*
D47*
X12800000Y33225000D02*
X12800000Y34050000D01*
X5060589Y25810589D02*
X4360589Y26510589D01*
X5280000Y6370000D02*
X4680000Y5770000D01*
X12800000Y39750000D02*
X12800000Y40750000D01*
X4000000Y26850000D02*
X4021178Y26850000D01*
D48*
X5033177Y9110000D02*
X5105000Y9181823D01*
D49*
X8250000Y8517892D02*
X8259699Y8508193D01*
D47*
%TO.N,+3V3*%
X12275521Y23775521D02*
X12295657Y23775521D01*
X4509999Y35250000D02*
X5000000Y35250000D01*
D48*
X5386218Y19234746D02*
X4740883Y18589411D01*
X4740883Y18589411D02*
X4439411Y18589411D01*
D47*
X4000000Y19050000D02*
X4439411Y18610589D01*
X5039411Y27189411D02*
X4628822Y27600000D01*
X12295657Y23775521D02*
X12660589Y23410589D01*
D48*
X11679468Y22699569D02*
X12390488Y23410589D01*
D47*
X4628822Y27600000D02*
X4000000Y27600000D01*
%TO.N,+5V*%
X15100000Y37265000D02*
X14615000Y37265000D01*
X14615000Y37265000D02*
X14600000Y37250000D01*
D46*
%TO.N,Net-(U1-LNA_IN)*%
X6700000Y26586940D02*
X7703952Y25582988D01*
X5380000Y42450000D02*
X5380000Y43485000D01*
X6700000Y41130000D02*
X6700000Y26586940D01*
X5380000Y42450000D02*
X6700000Y41130000D01*
D48*
%TO.N,Net-(U1-CHIP_PU)*%
X4825000Y39575000D02*
X3600000Y40800000D01*
X4875000Y39575000D02*
X4825000Y39575000D01*
X6002164Y25477735D02*
X6800431Y24679468D01*
X3600000Y40800000D02*
X3600000Y36700000D01*
X3490001Y35250000D02*
X3490001Y34279999D01*
X6002164Y25654247D02*
X6002164Y25477735D01*
X3600000Y36700000D02*
X3600000Y35359999D01*
D50*
%TO.N,+BATT*%
X12000000Y43000000D02*
X11850000Y42850000D01*
D49*
%TO.N,Net-(D2-K)*%
X15100000Y39240000D02*
X15100000Y38235000D01*
%TO.N,Net-(D5-K)*%
X10910000Y15250000D02*
X12415000Y15250000D01*
%TO.N,Net-(D6-K)*%
X11410000Y14250000D02*
X12415000Y14250000D01*
D48*
%TO.N,Net-(J1-CC2)*%
X3225000Y6649479D02*
X3225000Y7515000D01*
X10750000Y5608051D02*
X10750000Y6370000D01*
X3225000Y7515000D02*
X3800000Y8090000D01*
X10618644Y5476695D02*
X10750000Y5608051D01*
%TO.N,D-*%
X9200000Y8481249D02*
X9250000Y8531249D01*
X8950000Y5175000D02*
X9250000Y5475000D01*
X9250000Y6370000D02*
X9250000Y7300001D01*
X9250000Y8531249D02*
X9250000Y9150000D01*
X9250000Y7300001D02*
X9200000Y7350001D01*
X9200000Y7350001D02*
X9200000Y8481249D01*
X8573959Y5175000D02*
X8950000Y5175000D01*
X8250000Y6370000D02*
X8250000Y5498959D01*
X9250000Y5475000D02*
X9250000Y6370000D01*
X8250000Y5498959D02*
X8573959Y5175000D01*
%TO.N,Net-(J1-CC1)*%
X7750000Y6370000D02*
X7750000Y7990000D01*
%TO.N,D+*%
X8750000Y8531249D02*
X8750000Y9150000D01*
X9750000Y5600000D02*
X9750000Y6370000D01*
X8750000Y7300001D02*
X8800000Y7350001D01*
X8800000Y7350001D02*
X8800000Y8481249D01*
X8800000Y8481249D02*
X8750000Y8531249D01*
X8750000Y6370000D02*
X8750000Y5600000D01*
X8750000Y6370000D02*
X8750000Y7300001D01*
%TO.N,Net-(JP4-B)*%
X3600000Y31337500D02*
X3600000Y32900000D01*
X4862500Y30062500D02*
X3600000Y28800000D01*
X5576046Y25338167D02*
X6517588Y24396625D01*
X4875000Y30062500D02*
X4862500Y30062500D01*
X5576046Y25392666D02*
X5576046Y25338167D01*
X4875000Y30062500D02*
X3600000Y31337500D01*
%TO.N,Net-(JP6-B)*%
X12800000Y16250000D02*
X12259999Y16250000D01*
%TO.N,PD7*%
X11036315Y24413685D02*
X10727396Y24722604D01*
X10727396Y24722604D02*
X10308391Y24722604D01*
X10308391Y24722604D02*
X9982412Y24396625D01*
%TO.N,UART_RX*%
X10154960Y22774507D02*
X10154960Y23437803D01*
X10197783Y22731684D02*
X10154960Y22774507D01*
X10154960Y23437803D02*
X10548097Y23830940D01*
X10197783Y22625768D02*
X10197783Y22731684D01*
%TO.N,Net-(JP7-A)*%
X6000000Y11350000D02*
X7050000Y11350000D01*
%TO.N,UART_TX*%
X7500000Y14250000D02*
X8090000Y14250000D01*
%TO.N,Net-(JP8-A)*%
X6500000Y11850000D02*
X7050000Y11850000D01*
D49*
%TO.N,Net-(U3-PROG)*%
X15100000Y36260000D02*
X14776828Y36260000D01*
X14776828Y36260000D02*
X13750000Y37286828D01*
D47*
%TO.N,Net-(U4-EN)*%
X13760000Y31750000D02*
X13760000Y33215000D01*
D48*
%TO.N,Net-(U1-U0TXD)*%
X10504960Y22919482D02*
X10504960Y23186762D01*
X10750000Y22600000D02*
X10750000Y22674442D01*
X10504960Y23186762D02*
X10830940Y23512742D01*
X10750000Y22674442D02*
X10504960Y22919482D01*
X9100000Y14950000D02*
X9100000Y14260000D01*
%TO.N,Net-(U5-VBUS)*%
X13500000Y11940000D02*
X13500000Y10960000D01*
X10937500Y10337500D02*
X12877500Y10337500D01*
X12877500Y10337500D02*
X13500000Y10960000D01*
%TO.N,Net-(U5-~{RST})*%
X10937500Y10837500D02*
X11997500Y10837500D01*
X11997500Y10837500D02*
X12200000Y11040000D01*
D49*
%TO.N,Net-(U5-~{TXT}{slash}GPIO.0)*%
X9750000Y13025000D02*
X9750000Y15110000D01*
%TO.N,Net-(U5-~{RXT}{slash}GPIO.1)*%
X10250000Y13025000D02*
X10250000Y14110000D01*
D48*
%TO.N,PA2*%
X3936647Y21851041D02*
X3568844Y22218844D01*
%TO.N,PB2*%
X4990524Y24088404D02*
X5096591Y24088404D01*
X4375000Y24703928D02*
X4990524Y24088404D01*
X5096591Y24088404D02*
X5636898Y23548097D01*
X4375000Y25150000D02*
X4375000Y24703928D01*
%TO.N,PC1*%
X11113782Y19234746D02*
X14450000Y15898528D01*
X14450000Y15898528D02*
X14450000Y8870000D01*
X14450000Y8870000D02*
X16620000Y6700000D01*
%TO.N,PA5*%
X4537689Y20083274D02*
X5154345Y20699930D01*
X5154345Y20699930D02*
X5308223Y20699930D01*
X5308223Y20699930D02*
X5379667Y20771374D01*
%TO.N,PC7*%
X12527996Y21851041D02*
X16531041Y21851041D01*
%TO.N,PA1*%
X3670867Y22717863D02*
X4254847Y22133883D01*
X3600156Y22717863D02*
X3670867Y22717863D01*
%TO.N,PD6*%
X9729961Y23578489D02*
X9729961Y23107331D01*
X10265254Y24113782D02*
X9729961Y23578489D01*
%TO.N,PA4*%
X5026112Y21124930D02*
X4876703Y20975521D01*
X4864251Y20975521D02*
X4254847Y20366117D01*
X4876703Y20975521D02*
X4864251Y20975521D01*
%TO.N,PD5*%
X1380000Y4160000D02*
X2700000Y5480000D01*
X2700000Y5480000D02*
X2700000Y10627896D01*
X7040137Y16928867D02*
X7366117Y17254847D01*
X2700000Y10627896D02*
X7040137Y14968033D01*
X7040137Y14968033D02*
X7040137Y16928867D01*
%TO.N,PB5*%
X2455000Y25065101D02*
X4820532Y22699569D01*
X2455000Y36105000D02*
X2455000Y25065101D01*
X1380000Y37180000D02*
X2455000Y36105000D01*
%TO.N,PB1*%
X5523051Y24156919D02*
X5625924Y24156919D01*
X5625924Y24156919D02*
X5951903Y23830940D01*
X4800000Y24879970D02*
X5523051Y24156919D01*
%TO.N,PA6*%
X5366475Y20346374D02*
X5661315Y20346374D01*
X4820532Y19800431D02*
X5366475Y20346374D01*
X5661315Y20346374D02*
X5745769Y20430828D01*
%TO.N,PB6*%
X6100000Y19382843D02*
X5669060Y18951903D01*
X6100000Y19450000D02*
X6100000Y19382843D01*
%TO.N,PC4*%
X11962311Y20083274D02*
X15500000Y16545585D01*
X15500000Y16545585D02*
X15500000Y15440000D01*
X15500000Y15440000D02*
X16620000Y14320000D01*
%TO.N,PA7*%
X5429355Y19843568D02*
X5865157Y19843568D01*
X5865157Y19843568D02*
X6086315Y20064726D01*
X5103375Y19517588D02*
X5429355Y19843568D01*
%TO.N,PB0*%
X5731011Y24550000D02*
X5798528Y24550000D01*
X5314464Y24966547D02*
X5731011Y24550000D01*
X5798528Y24550000D02*
X6234746Y24113782D01*
%TO.N,PC5*%
X15751270Y16860000D02*
X16620000Y16860000D01*
X12245153Y20366117D02*
X15751270Y16860000D01*
%TO.N,PC0*%
X10830940Y18951903D02*
X14100000Y15682843D01*
X14100000Y6680000D02*
X16620000Y4160000D01*
X14100000Y15682843D02*
X14100000Y6680000D01*
D51*
%TO.N,D_N*%
X5375000Y16395101D02*
X6800431Y17820532D01*
X5375000Y15963603D02*
X5375000Y16395101D01*
X5656770Y15681833D02*
X5375000Y15963603D01*
X6275000Y15681833D02*
X5656770Y15681833D01*
D48*
%TO.N,PC2*%
X14800000Y11060000D02*
X16620000Y9240000D01*
X11396625Y19517588D02*
X14800000Y16114213D01*
X14800000Y16114213D02*
X14800000Y11060000D01*
%TO.N,PD1*%
X2734213Y14320000D02*
X6517588Y18103375D01*
X1380000Y14320000D02*
X2734213Y14320000D01*
%TO.N,PD0*%
X1380000Y16860000D02*
X4708528Y16860000D01*
X4708528Y16860000D02*
X6234746Y18386218D01*
%TO.N,PC6*%
X16620000Y19400000D02*
X13776955Y19400000D01*
X13776955Y19400000D02*
X12527996Y20648959D01*
D51*
%TO.N,D_P*%
X5825000Y16279416D02*
X6732295Y17186711D01*
X5825000Y16150000D02*
X5825000Y16279416D01*
X6732295Y17186711D02*
X7083274Y17537689D01*
D48*
%TO.N,PA0*%
X3684530Y23234530D02*
X4502334Y22416726D01*
%TO.N,PB3*%
X3950000Y24633953D02*
X4992719Y23591234D01*
X3950000Y24736827D02*
X3950000Y24633953D01*
X5060238Y23591234D02*
X5386218Y23265254D01*
X4992719Y23591234D02*
X5060238Y23591234D01*
%TO.N,PB4*%
X5103375Y22982412D02*
X2825000Y25260787D01*
X2825000Y38275000D02*
X1380000Y39720000D01*
X2825000Y25260787D02*
X2825000Y38275000D01*
%TO.N,PC3*%
X15150000Y13250000D02*
X16620000Y11780000D01*
X15150000Y16329899D02*
X15150000Y13250000D01*
X11679468Y19800431D02*
X15150000Y16329899D01*
%TO.N,PA3*%
X4672557Y21478485D02*
X4300000Y21105928D01*
X4300000Y20976955D02*
X3972004Y20648959D01*
X4300000Y21105928D02*
X4300000Y20976955D01*
%TO.N,PB7*%
X6456528Y19069907D02*
X6352750Y19069907D01*
X6352750Y19069907D02*
X5951903Y18669060D01*
D51*
%TO.N,XTAL_P*%
X11371142Y27926777D02*
X11371142Y26916727D01*
X11371142Y26916727D02*
X9416726Y24962311D01*
X10894401Y27926777D02*
X9910589Y28910589D01*
%TO.N,XTAL_N*%
X12670101Y27650000D02*
X9699569Y24679468D01*
X14128858Y26821142D02*
X14128858Y27573223D01*
X14839411Y25839411D02*
X14839411Y26110589D01*
X13652081Y27650000D02*
X12670101Y27650000D01*
X14839411Y26110589D02*
X14128858Y26821142D01*
D49*
%TO.N,Net-(U3-STAT)*%
X14260000Y40260000D02*
X13750000Y39750000D01*
X15100000Y40260000D02*
X14260000Y40260000D01*
%TD*%
%TA.AperFunction,Conductor*%
%TO.N,GND*%
G36*
X13754351Y8481137D02*
G01*
X13806190Y8434291D01*
X13824500Y8369440D01*
X13824500Y6625200D01*
X13858159Y6543942D01*
X13866443Y6523942D01*
X13866445Y6523940D01*
X13963681Y6426704D01*
X13997166Y6365381D01*
X14000000Y6339023D01*
X14000000Y5874000D01*
X13980315Y5806961D01*
X13927511Y5761206D01*
X13876000Y5750000D01*
X12208201Y5750000D01*
X12146200Y5766614D01*
X12112140Y5786279D01*
X12112134Y5786282D01*
X12091903Y5791703D01*
X12032243Y5828070D01*
X12001716Y5890918D01*
X12000000Y5911477D01*
X12000000Y7500000D01*
X11374000Y7500000D01*
X11306961Y7519685D01*
X11261206Y7572489D01*
X11250000Y7624000D01*
X11250000Y8323188D01*
X11269685Y8390227D01*
X11322489Y8435982D01*
X11376046Y8446185D01*
X11376032Y8446932D01*
X11380421Y8447019D01*
X11380437Y8447021D01*
X11380445Y8447021D01*
X11380460Y8447019D01*
X13682460Y8492156D01*
X13685418Y8492519D01*
X13754351Y8481137D01*
G37*
%TD.AperFunction*%
%TD*%
%TA.AperFunction,Conductor*%
%TO.N,Net-(U5-VDD)*%
G36*
X10480275Y9530315D02*
G01*
X10482041Y9529159D01*
X10484883Y9527260D01*
X10484886Y9527260D01*
X10484887Y9527259D01*
X10504322Y9523394D01*
X10561599Y9512000D01*
X10567020Y9512001D01*
X10601966Y9506977D01*
X10616102Y9502825D01*
X10674000Y9494500D01*
X10920500Y9494500D01*
X10987539Y9474815D01*
X11033294Y9422011D01*
X11044500Y9370500D01*
X11044500Y8776457D01*
X11049633Y8730808D01*
X11061870Y8677097D01*
X11065015Y8665005D01*
X11084269Y8630519D01*
X11100000Y8570072D01*
X11100000Y8529594D01*
X11084221Y8469061D01*
X11072507Y8448120D01*
X11063103Y8416093D01*
X11040901Y8378668D01*
X11042997Y8377201D01*
X11036774Y8368315D01*
X10986027Y8259488D01*
X10986027Y8259487D01*
X10979500Y8209902D01*
X10979500Y7790106D01*
X10979501Y7790100D01*
X10986028Y7740513D01*
X10986029Y7740511D01*
X10986029Y7740510D01*
X11037035Y7631128D01*
X11047942Y7591984D01*
X11048450Y7587261D01*
X11036048Y7518501D01*
X10988440Y7467361D01*
X10925161Y7450000D01*
X9824000Y7450000D01*
X9756961Y7469685D01*
X9711206Y7522489D01*
X9700000Y7574000D01*
X9700000Y9426000D01*
X9719685Y9493039D01*
X9772489Y9538794D01*
X9824000Y9550000D01*
X10413236Y9550000D01*
X10480275Y9530315D01*
G37*
%TD.AperFunction*%
%TD*%
%TA.AperFunction,Conductor*%
%TO.N,+3V3*%
G36*
X9043335Y27890819D02*
G01*
X9087681Y27862319D01*
X10366685Y26583315D01*
X10400170Y26521992D01*
X10395186Y26452300D01*
X10366685Y26407953D01*
X9136256Y25177523D01*
X9136254Y25177521D01*
X8942048Y24983314D01*
X8880725Y24949829D01*
X8811034Y24954813D01*
X8766686Y24983314D01*
X8163622Y25586378D01*
X8131528Y25641966D01*
X8103038Y25748294D01*
X8103035Y25748300D01*
X8046658Y25845946D01*
X8046655Y25845949D01*
X8046654Y25845952D01*
X7558982Y26333624D01*
X7525498Y26394946D01*
X7530482Y26464638D01*
X7558979Y26508980D01*
X8322370Y27272371D01*
X8371727Y27302616D01*
X8418869Y27317933D01*
X8493768Y27372350D01*
X8777649Y27656232D01*
X8832067Y27731131D01*
X8847383Y27778270D01*
X8877629Y27827630D01*
X8912322Y27862323D01*
X8973644Y27895805D01*
X9043335Y27890819D01*
G37*
%TD.AperFunction*%
%TD*%
%TA.AperFunction,Conductor*%
%TO.N,GND*%
G36*
X8774999Y40079130D02*
G01*
X8773472Y40059736D01*
X8770559Y40041341D01*
X8768346Y40027371D01*
X8765773Y40016153D01*
X8765929Y40016115D01*
X8751560Y39956270D01*
X8744500Y39896625D01*
X8744500Y39489239D01*
X8730986Y39432946D01*
X8714352Y39400301D01*
X8699500Y39306525D01*
X8699501Y38129500D01*
X8679816Y38062461D01*
X8627013Y38016706D01*
X8575501Y38005500D01*
X8223997Y38005500D01*
X8169687Y37999662D01*
X8118181Y37988457D01*
X8118172Y37988454D01*
X8091807Y37981221D01*
X8091796Y37981217D01*
X8005181Y37931895D01*
X8005173Y37931889D01*
X7952371Y37886137D01*
X7920743Y37853360D01*
X7874534Y37765024D01*
X7853602Y37693736D01*
X7852289Y37694122D01*
X7826578Y37647042D01*
X7827686Y37646237D01*
X7821951Y37638345D01*
X7764352Y37525302D01*
X7749500Y37431525D01*
X7749500Y36193483D01*
X7760188Y36126000D01*
X7764354Y36099696D01*
X7819875Y35990730D01*
X7821952Y35986654D01*
X7823662Y35984301D01*
X7825243Y35980196D01*
X7826381Y35977963D01*
X7826148Y35977845D01*
X7846630Y35924675D01*
X7850336Y35890201D01*
X7850338Y35890191D01*
X7861543Y35838682D01*
X7861546Y35838673D01*
X7868779Y35812308D01*
X7868783Y35812297D01*
X7918105Y35725682D01*
X7918110Y35725675D01*
X7918112Y35725672D01*
X7944580Y35695126D01*
X7963863Y35672872D01*
X7963866Y35672869D01*
X7963867Y35672868D01*
X7996641Y35641243D01*
X8084976Y35595035D01*
X8084977Y35595035D01*
X8084977Y35595034D01*
X8135105Y35580316D01*
X8152015Y35575350D01*
X8152019Y35575350D01*
X8152021Y35575349D01*
X8163652Y35573677D01*
X8224000Y35565000D01*
X8376388Y35565000D01*
X8430822Y35552413D01*
X8432967Y35551365D01*
X8466214Y35527633D01*
X8467630Y35526217D01*
X8491341Y35493014D01*
X8492392Y35490865D01*
X8505000Y35436387D01*
X8505000Y35063614D01*
X8492405Y35009163D01*
X8491796Y35007917D01*
X8491742Y35007806D01*
X8491301Y35006906D01*
X8467631Y34973787D01*
X8466213Y34972369D01*
X8433029Y34948668D01*
X8430883Y34947618D01*
X8376386Y34935000D01*
X8223997Y34935000D01*
X8169687Y34929162D01*
X8118181Y34917957D01*
X8118172Y34917954D01*
X8091807Y34910721D01*
X8091796Y34910717D01*
X8005181Y34861395D01*
X8005173Y34861389D01*
X7952371Y34815637D01*
X7920743Y34782860D01*
X7874534Y34694523D01*
X7874533Y34694523D01*
X7854851Y34627491D01*
X7854848Y34627479D01*
X7844500Y34555502D01*
X7844500Y33423998D01*
X7850338Y33369688D01*
X7861543Y33318182D01*
X7861546Y33318173D01*
X7868779Y33291808D01*
X7868783Y33291797D01*
X7918105Y33205182D01*
X7918110Y33205175D01*
X7918112Y33205172D01*
X7944580Y33174626D01*
X7963863Y33152372D01*
X7963866Y33152369D01*
X7963867Y33152368D01*
X7996641Y33120743D01*
X8084976Y33074535D01*
X8084977Y33074535D01*
X8084977Y33074534D01*
X8135105Y33059816D01*
X8152015Y33054850D01*
X8152019Y33054850D01*
X8152021Y33054849D01*
X8163652Y33053177D01*
X8224000Y33044500D01*
X8224001Y33044500D01*
X9376000Y33044500D01*
X9443039Y33024815D01*
X9488794Y32972011D01*
X9500000Y32920500D01*
X9500000Y31000000D01*
X9876878Y31000000D01*
X9894523Y30998739D01*
X9924000Y30994500D01*
X9924001Y30994500D01*
X10831689Y30994500D01*
X10831692Y30994500D01*
X10867780Y30999034D01*
X10883234Y31000000D01*
X10950000Y31000000D01*
X10000000Y30050000D01*
X10650000Y29400000D01*
X10498389Y29248390D01*
X10437066Y29214905D01*
X10367374Y29219889D01*
X10323028Y29248389D01*
X10143768Y29427649D01*
X10131830Y29436323D01*
X10068871Y29482066D01*
X10068872Y29482066D01*
X9951226Y29520292D01*
X9951225Y29520292D01*
X9827527Y29520292D01*
X9827525Y29520292D01*
X9709882Y29482067D01*
X9634984Y29427650D01*
X9634982Y29427648D01*
X9634981Y29427648D01*
X9393528Y29186194D01*
X9393521Y29186186D01*
X9339112Y29111299D01*
X9339111Y29111298D01*
X9300886Y28993655D01*
X9300886Y28993651D01*
X9300886Y28869953D01*
X9339111Y28752309D01*
X9339112Y28752308D01*
X9393524Y28677414D01*
X9572787Y28498151D01*
X9606272Y28436828D01*
X9601288Y28367136D01*
X9572787Y28322789D01*
X9358229Y28108230D01*
X9296906Y28074745D01*
X9227215Y28079729D01*
X9203510Y28091595D01*
X9181498Y28105741D01*
X9181491Y28105745D01*
X9181471Y28105758D01*
X9157706Y28119291D01*
X9157703Y28119292D01*
X9157701Y28119293D01*
X9061570Y28145668D01*
X8991864Y28150655D01*
X8946342Y28149843D01*
X8946336Y28149842D01*
X8851203Y28120057D01*
X8789875Y28086571D01*
X8731665Y28042997D01*
X8731650Y28042984D01*
X8696966Y28008300D01*
X8696955Y28008288D01*
X8659778Y27961126D01*
X8629530Y27911763D01*
X8603470Y27855233D01*
X8591177Y27834261D01*
X8588496Y27830571D01*
X8575860Y27815776D01*
X8334226Y27574141D01*
X8319433Y27561506D01*
X8315739Y27558822D01*
X8294761Y27546527D01*
X8238242Y27520474D01*
X8238236Y27520471D01*
X8188874Y27490224D01*
X8141705Y27453038D01*
X8141693Y27453028D01*
X7378317Y26689652D01*
X7316994Y26656167D01*
X7247302Y26661151D01*
X7202955Y26689652D01*
X7164590Y26728017D01*
X7131105Y26789340D01*
X7128271Y26815698D01*
X7128271Y40250000D01*
X8774999Y40250000D01*
X8774999Y40079130D01*
G37*
%TD.AperFunction*%
%TD*%
%TA.AperFunction,Conductor*%
%TO.N,+5V*%
G36*
X12943039Y37980315D02*
G01*
X12988794Y37927511D01*
X13000000Y37876000D01*
X13000000Y36874000D01*
X12980315Y36806961D01*
X12927511Y36761206D01*
X12876000Y36750000D01*
X11629500Y36750000D01*
X11562461Y36769685D01*
X11516706Y36822489D01*
X11505500Y36874000D01*
X11505500Y37476000D01*
X11500709Y37520556D01*
X11500000Y37533810D01*
X11500000Y37876000D01*
X11519685Y37943039D01*
X11572489Y37988794D01*
X11624000Y38000000D01*
X12876000Y38000000D01*
X12943039Y37980315D01*
G37*
%TD.AperFunction*%
%TD*%
%TA.AperFunction,Conductor*%
%TO.N,+BATT*%
G36*
X12243039Y44730315D02*
G01*
X12288794Y44677511D01*
X12300000Y44626000D01*
X12300000Y41016818D01*
X12285877Y40959346D01*
X12274535Y40937663D01*
X12274534Y40937662D01*
X12254850Y40870625D01*
X12254848Y40870617D01*
X12244500Y40798640D01*
X12244500Y40123998D01*
X12248790Y40084095D01*
X12249500Y40070841D01*
X12249500Y39205983D01*
X12264354Y39112196D01*
X12264354Y39112195D01*
X12273680Y39093892D01*
X12286484Y39068763D01*
X12300000Y39012469D01*
X12300000Y38486484D01*
X12280315Y38419445D01*
X12227511Y38373690D01*
X12158353Y38363746D01*
X12134921Y38371174D01*
X12134583Y38370131D01*
X12125301Y38373148D01*
X12031524Y38388000D01*
X11668482Y38388000D01*
X11587519Y38375177D01*
X11574696Y38373146D01*
X11461658Y38315550D01*
X11461657Y38315549D01*
X11461652Y38315546D01*
X11371954Y38225848D01*
X11371951Y38225843D01*
X11371950Y38225842D01*
X11316850Y38117704D01*
X11268877Y38066909D01*
X11206367Y38050000D01*
X9124000Y38050000D01*
X9056961Y38069685D01*
X9011206Y38122489D01*
X9000000Y38174000D01*
X9000000Y39896621D01*
X9013517Y39952919D01*
X9016017Y39957825D01*
X9030500Y40049265D01*
X9030499Y40450734D01*
X9030499Y40450735D01*
X9030499Y40450740D01*
X9016017Y40542174D01*
X9016017Y40542175D01*
X9013515Y40547086D01*
X9000000Y40603380D01*
X9000000Y40726000D01*
X9019685Y40793039D01*
X9072489Y40838794D01*
X9124000Y40850000D01*
X11000000Y40850000D01*
X11000000Y44626000D01*
X11019685Y44693039D01*
X11072489Y44738794D01*
X11124000Y44750000D01*
X12176000Y44750000D01*
X12243039Y44730315D01*
G37*
%TD.AperFunction*%
%TD*%
%TA.AperFunction,Conductor*%
%TO.N,GND*%
G36*
X13043334Y27190820D02*
G01*
X13087681Y27162319D01*
X14243389Y26006611D01*
X14276874Y25945288D01*
X14279708Y25918930D01*
X14279708Y25800585D01*
X14295149Y25758159D01*
X14320777Y25687747D01*
X14320779Y25687744D01*
X14320780Y25687743D01*
X14351217Y25648077D01*
X14351223Y25648070D01*
X14351224Y25648069D01*
X14648069Y25351225D01*
X14687747Y25320777D01*
X14785664Y25285139D01*
X14841928Y25243713D01*
X14866864Y25178445D01*
X14852555Y25110056D01*
X14830935Y25080936D01*
X13337681Y23587681D01*
X13276358Y23554196D01*
X13206666Y23559180D01*
X13162319Y23587681D01*
X13156687Y23593313D01*
X13151140Y23599235D01*
X13148773Y23601934D01*
X12851932Y23898774D01*
X12849231Y23901143D01*
X12843316Y23906684D01*
X11337681Y25412319D01*
X11304196Y25473642D01*
X11309180Y25543334D01*
X11337681Y25587681D01*
X12912319Y27162319D01*
X12973642Y27195804D01*
X13043334Y27190820D01*
G37*
%TD.AperFunction*%
%TD*%
%TA.AperFunction,Conductor*%
%TO.N,+5V*%
G36*
X6193039Y10730315D02*
G01*
X6238794Y10677511D01*
X6250000Y10626000D01*
X6250000Y9374000D01*
X6230315Y9306961D01*
X6177511Y9261206D01*
X6126000Y9250000D01*
X5539624Y9250000D01*
X5472585Y9269685D01*
X5429139Y9317706D01*
X5392095Y9390410D01*
X5392092Y9390413D01*
X5392090Y9390416D01*
X5313592Y9468914D01*
X5313588Y9468917D01*
X5313587Y9468918D01*
X5309743Y9470877D01*
X5214658Y9519325D01*
X5105002Y9536692D01*
X5104998Y9536692D01*
X4995341Y9519325D01*
X4896414Y9468919D01*
X4896408Y9468915D01*
X4849315Y9421820D01*
X4787992Y9388334D01*
X4761633Y9385500D01*
X4374000Y9385500D01*
X4306961Y9405185D01*
X4261206Y9457989D01*
X4250000Y9509500D01*
X4250000Y10626000D01*
X4269685Y10693039D01*
X4322489Y10738794D01*
X4374000Y10750000D01*
X6126000Y10750000D01*
X6193039Y10730315D01*
G37*
%TD.AperFunction*%
%TD*%
%TA.AperFunction,Conductor*%
%TO.N,Net-(D1-A)*%
G36*
X6232539Y8730315D02*
G01*
X6278294Y8677511D01*
X6289500Y8626000D01*
X6289500Y8329760D01*
X6277882Y8277354D01*
X6275932Y8273174D01*
X6275931Y8273170D01*
X6269500Y8224317D01*
X6269500Y7775684D01*
X6275931Y7726829D01*
X6301938Y7671058D01*
X6325935Y7619596D01*
X6409596Y7535935D01*
X6516827Y7485932D01*
X6565683Y7479500D01*
X6776000Y7479500D01*
X6843039Y7459815D01*
X6888794Y7407011D01*
X6900000Y7355500D01*
X6900000Y7020916D01*
X6899500Y7010738D01*
X6899500Y5730248D01*
X6911131Y5671771D01*
X6911132Y5671770D01*
X6955447Y5605448D01*
X7021769Y5561133D01*
X7021770Y5561132D01*
X7080247Y5549501D01*
X7080250Y5549500D01*
X7080252Y5549500D01*
X7419750Y5549500D01*
X7475808Y5560651D01*
X7524192Y5560651D01*
X7580249Y5549500D01*
X7851782Y5549500D01*
X7918821Y5529815D01*
X7964576Y5477011D01*
X7973400Y5449690D01*
X7974500Y5444159D01*
X8011189Y5355584D01*
X8013419Y5350202D01*
X8016444Y5342899D01*
X8220148Y5139195D01*
X8417900Y4941443D01*
X8447554Y4929161D01*
X8447556Y4929159D01*
X8447557Y4929159D01*
X8468529Y4920473D01*
X8519159Y4899500D01*
X8519162Y4899500D01*
X9004799Y4899500D01*
X9004800Y4899500D01*
X9106058Y4941443D01*
X9183557Y5018942D01*
X9183556Y5018942D01*
X9435384Y5270769D01*
X9496706Y5304253D01*
X9566398Y5299269D01*
X9579339Y5293581D01*
X9640339Y5262500D01*
X9640341Y5262500D01*
X9640343Y5262499D01*
X9749998Y5245131D01*
X9750000Y5245131D01*
X9750002Y5245131D01*
X9859658Y5262499D01*
X9859659Y5262500D01*
X9859661Y5262500D01*
X9958587Y5312905D01*
X10037095Y5391413D01*
X10047069Y5410989D01*
X10095038Y5461782D01*
X10162858Y5478579D01*
X10228994Y5456044D01*
X10272447Y5401331D01*
X10280025Y5374095D01*
X10281143Y5367036D01*
X10331548Y5268110D01*
X10331553Y5268103D01*
X10410051Y5189605D01*
X10410054Y5189603D01*
X10410057Y5189600D01*
X10508983Y5139195D01*
X10508985Y5139194D01*
X10618642Y5121826D01*
X10618644Y5121826D01*
X10618646Y5121826D01*
X10728302Y5139194D01*
X10728303Y5139195D01*
X10728305Y5139195D01*
X10827231Y5189600D01*
X10905739Y5268108D01*
X10956144Y5367034D01*
X10961007Y5397744D01*
X10980382Y5447242D01*
X10983551Y5451987D01*
X10983557Y5451992D01*
X11000703Y5493386D01*
X11025500Y5553251D01*
X11025500Y5553256D01*
X11027395Y5562779D01*
X11045909Y5607480D01*
X11088867Y5671769D01*
X11100500Y5730252D01*
X11100500Y6876000D01*
X11120185Y6943039D01*
X11172989Y6988794D01*
X11224500Y7000000D01*
X11575500Y7000000D01*
X11642539Y6980315D01*
X11688294Y6927511D01*
X11699500Y6876000D01*
X11699500Y5876138D01*
X11679815Y5809099D01*
X11637501Y5768752D01*
X11536641Y5710519D01*
X11536632Y5710513D01*
X11429487Y5603368D01*
X11429485Y5603365D01*
X11353719Y5472137D01*
X11314500Y5325766D01*
X11314500Y5174235D01*
X11353719Y5027864D01*
X11391602Y4962250D01*
X11429485Y4896635D01*
X11536635Y4789485D01*
X11667865Y4713719D01*
X11814234Y4674500D01*
X11814236Y4674500D01*
X11876000Y4674500D01*
X11943039Y4654815D01*
X11988794Y4602011D01*
X12000000Y4550500D01*
X12000000Y3874000D01*
X11980315Y3806961D01*
X11927511Y3761206D01*
X11876000Y3750000D01*
X3124000Y3750000D01*
X3056961Y3769685D01*
X3011206Y3822489D01*
X3000000Y3874000D01*
X3000000Y5151005D01*
X3979499Y5151005D01*
X4006418Y5015678D01*
X4006421Y5015668D01*
X4059221Y4888196D01*
X4059228Y4888183D01*
X4135885Y4773459D01*
X4135888Y4773455D01*
X4233454Y4675889D01*
X4233458Y4675886D01*
X4348182Y4599229D01*
X4348195Y4599222D01*
X4465822Y4550500D01*
X4475672Y4546420D01*
X4475676Y4546420D01*
X4475677Y4546419D01*
X4611004Y4519500D01*
X4611007Y4519500D01*
X4748995Y4519500D01*
X4840041Y4537611D01*
X4884328Y4546420D01*
X5011811Y4599225D01*
X5126542Y4675886D01*
X5224114Y4773458D01*
X5300775Y4888189D01*
X5304274Y4896635D01*
X5352256Y5012476D01*
X5396096Y5066880D01*
X5462390Y5088945D01*
X5530090Y5071666D01*
X5574203Y5027026D01*
X5649485Y4896635D01*
X5756635Y4789485D01*
X5887865Y4713719D01*
X6034234Y4674500D01*
X6034236Y4674500D01*
X6185764Y4674500D01*
X6185766Y4674500D01*
X6332135Y4713719D01*
X6463365Y4789485D01*
X6570515Y4896635D01*
X6646281Y5027865D01*
X6685500Y5174234D01*
X6685500Y5325766D01*
X6646281Y5472135D01*
X6570515Y5603365D01*
X6463365Y5710515D01*
X6461008Y5711876D01*
X6362499Y5768752D01*
X6314284Y5819319D01*
X6300500Y5876138D01*
X6300500Y7009751D01*
X6300499Y7009753D01*
X6288868Y7068230D01*
X6288867Y7068231D01*
X6244552Y7134553D01*
X6178230Y7178868D01*
X6178229Y7178869D01*
X6119752Y7190500D01*
X6119748Y7190500D01*
X5480252Y7190500D01*
X5480247Y7190500D01*
X5421770Y7178869D01*
X5421769Y7178868D01*
X5355447Y7134553D01*
X5311132Y7068231D01*
X5311131Y7068230D01*
X5299500Y7009753D01*
X5299500Y6980536D01*
X5279815Y6913497D01*
X5227011Y6867742D01*
X5157853Y6857798D01*
X5106610Y6877434D01*
X5011822Y6940769D01*
X5011804Y6940779D01*
X4884332Y6993579D01*
X4884322Y6993582D01*
X4748995Y7020500D01*
X4748993Y7020500D01*
X4611007Y7020500D01*
X4611005Y7020500D01*
X4475677Y6993582D01*
X4475667Y6993579D01*
X4348195Y6940779D01*
X4348182Y6940772D01*
X4233458Y6864115D01*
X4233454Y6864112D01*
X4135888Y6766546D01*
X4135885Y6766542D01*
X4059228Y6651818D01*
X4059221Y6651805D01*
X4006421Y6524333D01*
X4006418Y6524323D01*
X3979500Y6388996D01*
X3979500Y6388993D01*
X3979500Y5151007D01*
X3979500Y5151005D01*
X3979499Y5151005D01*
X3000000Y5151005D01*
X3000000Y6185062D01*
X3019685Y6252101D01*
X3072489Y6297856D01*
X3141647Y6307800D01*
X3143347Y6307543D01*
X3200573Y6298479D01*
X3224999Y6294610D01*
X3225000Y6294610D01*
X3225002Y6294610D01*
X3334658Y6311978D01*
X3334659Y6311979D01*
X3334661Y6311979D01*
X3433587Y6362384D01*
X3512095Y6440892D01*
X3562500Y6539818D01*
X3562500Y6539820D01*
X3562501Y6539821D01*
X3579869Y6649477D01*
X3579869Y6649482D01*
X3562501Y6759138D01*
X3514015Y6854298D01*
X3500500Y6910592D01*
X3500500Y7349523D01*
X3520185Y7416562D01*
X3536819Y7437204D01*
X3563296Y7463681D01*
X3624619Y7497166D01*
X3650977Y7500000D01*
X4000000Y7500000D01*
X4000000Y7512815D01*
X4019685Y7579854D01*
X4071595Y7625197D01*
X4073170Y7625932D01*
X4073173Y7625932D01*
X4180404Y7675935D01*
X4264065Y7759596D01*
X4314068Y7866827D01*
X4320500Y7915684D01*
X4320500Y8264316D01*
X4314068Y8313173D01*
X4264065Y8420404D01*
X4180404Y8504065D01*
X4172733Y8511736D01*
X4175561Y8514565D01*
X4144843Y8552977D01*
X4137635Y8622474D01*
X4169143Y8684835D01*
X4172903Y8688094D01*
X4172733Y8688264D01*
X4198150Y8713681D01*
X4259473Y8747166D01*
X4285831Y8750000D01*
X6165500Y8750000D01*
X6232539Y8730315D01*
G37*
%TD.AperFunction*%
%TD*%
%TA.AperFunction,Conductor*%
%TO.N,+5V*%
G36*
X13743039Y10230315D02*
G01*
X13788794Y10177511D01*
X13800000Y10126000D01*
X13800000Y8821593D01*
X13780315Y8754554D01*
X13727511Y8708799D01*
X13678431Y8697617D01*
X11376431Y8652480D01*
X11309018Y8670846D01*
X11262237Y8722743D01*
X11250000Y8776456D01*
X11250000Y9700000D01*
X10674000Y9700000D01*
X10606961Y9719685D01*
X10561206Y9772489D01*
X10550000Y9824000D01*
X10550000Y9888001D01*
X10569685Y9955040D01*
X10622489Y10000795D01*
X10673996Y10012001D01*
X11313400Y10012001D01*
X11390117Y10027260D01*
X11390118Y10027262D01*
X11390121Y10027262D01*
X11410832Y10041101D01*
X11477509Y10061980D01*
X11479724Y10062000D01*
X12932299Y10062000D01*
X12932300Y10062000D01*
X13033558Y10103943D01*
X13111057Y10181442D01*
X13143296Y10213681D01*
X13204619Y10247166D01*
X13230977Y10250000D01*
X13676000Y10250000D01*
X13743039Y10230315D01*
G37*
%TD.AperFunction*%
%TD*%
%TA.AperFunction,Conductor*%
%TO.N,GND*%
G36*
X13767539Y15580315D02*
G01*
X13813294Y15527511D01*
X13824500Y15476000D01*
X13824500Y12824000D01*
X13804815Y12756961D01*
X13752011Y12711206D01*
X13700500Y12700000D01*
X13124000Y12700000D01*
X13056961Y12719685D01*
X13011206Y12772489D01*
X13000000Y12824000D01*
X13000000Y13150000D01*
X11824000Y13150000D01*
X11756961Y13169685D01*
X11711206Y13222489D01*
X11700000Y13274000D01*
X11700000Y13626000D01*
X11719685Y13693039D01*
X11772489Y13738794D01*
X11824000Y13750000D01*
X12116368Y13750000D01*
X12157128Y13740571D01*
X12157631Y13742198D01*
X12166826Y13739357D01*
X12166830Y13739355D01*
X12234472Y13729500D01*
X12234478Y13729500D01*
X12595522Y13729500D01*
X12595528Y13729500D01*
X12663170Y13739355D01*
X12663175Y13739358D01*
X12672369Y13742198D01*
X12672871Y13740571D01*
X12713632Y13750000D01*
X12950000Y13750000D01*
X12996739Y15479351D01*
X13018228Y15545833D01*
X13072249Y15590145D01*
X13120694Y15600000D01*
X13700500Y15600000D01*
X13767539Y15580315D01*
G37*
%TD.AperFunction*%
%TD*%
%TA.AperFunction,Conductor*%
%TO.N,+5V*%
G36*
X8931262Y37736485D02*
G01*
X8974698Y37714353D01*
X9068475Y37699501D01*
X9068481Y37699500D01*
X9426000Y37699501D01*
X9493039Y37679817D01*
X9538794Y37627013D01*
X9550000Y37575501D01*
X9550000Y37523123D01*
X9548738Y37505477D01*
X9544500Y37476002D01*
X9544500Y33424000D01*
X9524815Y33356961D01*
X9472011Y33311206D01*
X9420500Y33300000D01*
X8224000Y33300000D01*
X8156961Y33319685D01*
X8111206Y33372489D01*
X8100000Y33424000D01*
X8100000Y34555500D01*
X8119685Y34622539D01*
X8172489Y34668294D01*
X8224000Y34679500D01*
X8411577Y34679500D01*
X8411582Y34679500D01*
X8486518Y34690418D01*
X8544310Y34718671D01*
X8602099Y34746922D01*
X8602102Y34746924D01*
X8693076Y34837898D01*
X8693078Y34837901D01*
X8721329Y34895690D01*
X8749582Y34953482D01*
X8760500Y35028418D01*
X8760500Y35471582D01*
X8749582Y35546518D01*
X8711066Y35625304D01*
X8693078Y35662100D01*
X8693076Y35662103D01*
X8602102Y35753077D01*
X8602099Y35753079D01*
X8486521Y35809581D01*
X8486519Y35809582D01*
X8486518Y35809582D01*
X8411582Y35820500D01*
X8224000Y35820500D01*
X8156961Y35840185D01*
X8111206Y35892989D01*
X8100000Y35944500D01*
X8100000Y37626000D01*
X8119685Y37693039D01*
X8172489Y37738794D01*
X8224000Y37750000D01*
X8874967Y37750000D01*
X8931262Y37736485D01*
G37*
%TD.AperFunction*%
%TD*%
%TA.AperFunction,Conductor*%
%TO.N,GND*%
G36*
X10443039Y45980315D02*
G01*
X10488794Y45927511D01*
X10500000Y45876000D01*
X10500000Y41229500D01*
X10480315Y41162461D01*
X10427511Y41116706D01*
X10376000Y41105500D01*
X9123997Y41105500D01*
X9069687Y41099662D01*
X9018181Y41088457D01*
X9018172Y41088454D01*
X8991807Y41081221D01*
X8991796Y41081217D01*
X8905181Y41031895D01*
X8905173Y41031889D01*
X8852371Y40986137D01*
X8820743Y40953360D01*
X8774534Y40865023D01*
X8774533Y40865023D01*
X8754851Y40797991D01*
X8754848Y40797979D01*
X8744500Y40726002D01*
X8744500Y40726000D01*
X8744500Y40603380D01*
X8751559Y40543735D01*
X8751560Y40543731D01*
X8765926Y40483894D01*
X8765768Y40483857D01*
X8768347Y40472626D01*
X8773472Y40440276D01*
X8774999Y40420873D01*
X8774999Y40079130D01*
X8773472Y40059736D01*
X8770559Y40041341D01*
X8768346Y40027371D01*
X8765773Y40016153D01*
X8765929Y40016115D01*
X8762060Y40000000D01*
X7078271Y40000000D01*
X7078271Y41179800D01*
X7052492Y41276007D01*
X7002692Y41362264D01*
X6932264Y41432692D01*
X6500000Y41864956D01*
X6500000Y46000000D01*
X10376000Y46000000D01*
X10443039Y45980315D01*
G37*
%TD.AperFunction*%
%TD*%
%TA.AperFunction,Conductor*%
%TO.N,GND*%
G36*
X8293333Y24190821D02*
G01*
X8337680Y24162320D01*
X9343294Y23156706D01*
X9376779Y23095383D01*
X9378086Y23088423D01*
X9392459Y22997673D01*
X9442865Y22898746D01*
X9442870Y22898739D01*
X9521368Y22820241D01*
X9521371Y22820239D01*
X9521374Y22820236D01*
X9620300Y22769831D01*
X9620301Y22769831D01*
X9620303Y22769830D01*
X9620302Y22769830D01*
X9711051Y22755457D01*
X9774186Y22725528D01*
X9779335Y22720665D01*
X9808530Y22691470D01*
X9842015Y22630147D01*
X9843322Y22623187D01*
X9860281Y22516110D01*
X9910687Y22417183D01*
X9910692Y22417176D01*
X9989190Y22338678D01*
X9989193Y22338676D01*
X9989196Y22338673D01*
X10039769Y22312905D01*
X10088124Y22288267D01*
X10195201Y22271308D01*
X10258335Y22241379D01*
X10263484Y22236516D01*
X11662319Y20837681D01*
X11695804Y20776358D01*
X11690820Y20706666D01*
X11662319Y20662319D01*
X8837681Y17837681D01*
X8776358Y17804196D01*
X8706666Y17809180D01*
X8662319Y17837681D01*
X6470785Y20029215D01*
X6437300Y20090538D01*
X6435999Y20097461D01*
X6423815Y20174387D01*
X6373410Y20273313D01*
X6373407Y20273316D01*
X6373405Y20273319D01*
X6294907Y20351817D01*
X6294903Y20351820D01*
X6294902Y20351821D01*
X6213795Y20393147D01*
X6195973Y20402228D01*
X6191813Y20402886D01*
X6187163Y20405091D01*
X6186690Y20405244D01*
X6186709Y20405306D01*
X6128679Y20432815D01*
X6091747Y20492126D01*
X6088739Y20505951D01*
X6083269Y20540489D01*
X6032864Y20639415D01*
X6032861Y20639418D01*
X6032859Y20639421D01*
X5954361Y20717919D01*
X5954357Y20717922D01*
X5954356Y20717923D01*
X5915086Y20737932D01*
X5855427Y20768330D01*
X5820900Y20773798D01*
X5757765Y20803728D01*
X5720835Y20863040D01*
X5717825Y20876879D01*
X5717167Y20881035D01*
X5708937Y20897188D01*
X5666762Y20979961D01*
X5666759Y20979964D01*
X5666757Y20979967D01*
X5588259Y21058465D01*
X5588256Y21058467D01*
X5588254Y21058469D01*
X5489328Y21108874D01*
X5489326Y21108875D01*
X5489325Y21108875D01*
X5469780Y21111971D01*
X5406646Y21141902D01*
X5369716Y21201214D01*
X5366707Y21215047D01*
X5363612Y21234589D01*
X5363612Y21234591D01*
X5360962Y21239792D01*
X5348065Y21308456D01*
X5374339Y21373197D01*
X5383748Y21383749D01*
X8162322Y24162323D01*
X8223641Y24195805D01*
X8293333Y24190821D01*
G37*
%TD.AperFunction*%
%TD*%
%TA.AperFunction,Conductor*%
%TO.N,Net-(U5-VDD)*%
G36*
X11794525Y12948738D02*
G01*
X11797965Y12948244D01*
X11824000Y12944500D01*
X12670510Y12944500D01*
X12737549Y12924815D01*
X12783304Y12872011D01*
X12794332Y12827138D01*
X12794500Y12823997D01*
X12799289Y12779461D01*
X12800000Y12766205D01*
X12800000Y11674000D01*
X12780315Y11606961D01*
X12727511Y11561206D01*
X12676000Y11550000D01*
X11724000Y11550000D01*
X11656961Y11569685D01*
X11611206Y11622489D01*
X11600000Y11674000D01*
X11600000Y12826000D01*
X11619685Y12893039D01*
X11672489Y12938794D01*
X11724000Y12950000D01*
X11776878Y12950000D01*
X11794525Y12948738D01*
G37*
%TD.AperFunction*%
%TD*%
%TA.AperFunction,Conductor*%
%TO.N,GND*%
G36*
X14693039Y41730315D02*
G01*
X14738794Y41677511D01*
X14750000Y41626000D01*
X14750000Y40755832D01*
X14730315Y40688793D01*
X14713681Y40668151D01*
X14667349Y40621819D01*
X14606026Y40588334D01*
X14579668Y40585500D01*
X14217145Y40585500D01*
X14145842Y40566395D01*
X14075992Y40568058D01*
X14059290Y40574769D01*
X14001391Y40603074D01*
X13933261Y40613000D01*
X13933260Y40613000D01*
X13566740Y40613000D01*
X13566739Y40613000D01*
X13498608Y40603074D01*
X13393514Y40551697D01*
X13310803Y40468986D01*
X13259426Y40363892D01*
X13249500Y40295761D01*
X13249500Y40124000D01*
X13229815Y40056961D01*
X13177011Y40011206D01*
X13125500Y40000000D01*
X12624000Y40000000D01*
X12556961Y40019685D01*
X12511206Y40072489D01*
X12500000Y40124000D01*
X12500000Y40798638D01*
X12519685Y40865677D01*
X12536319Y40886319D01*
X13363681Y41713681D01*
X13425004Y41747166D01*
X13451362Y41750000D01*
X14626000Y41750000D01*
X14693039Y41730315D01*
G37*
%TD.AperFunction*%
%TD*%
%TA.AperFunction,Conductor*%
%TO.N,+3V3*%
G36*
X5141663Y27689150D02*
G01*
X5187648Y27658981D01*
X6248567Y26557257D01*
X6279022Y26503340D01*
X6300915Y26421632D01*
X6300916Y26421631D01*
X6322171Y26384815D01*
X6340939Y26352309D01*
X6357298Y26323975D01*
X6357300Y26323972D01*
X7118780Y25562494D01*
X7118809Y25562463D01*
X7577955Y25103319D01*
X7611440Y25041996D01*
X7606456Y24972305D01*
X7577955Y24927957D01*
X7400470Y24750472D01*
X7339147Y24716987D01*
X7269455Y24721971D01*
X7225109Y24750471D01*
X6910703Y25064877D01*
X6769065Y25206515D01*
X6749235Y25222224D01*
X6749233Y25222225D01*
X6749232Y25222226D01*
X6722635Y25232530D01*
X6679752Y25260474D01*
X6435695Y25504531D01*
X6402210Y25565854D01*
X6400903Y25611611D01*
X6407656Y25654247D01*
X6407656Y25654251D01*
X6387811Y25779548D01*
X6387811Y25779549D01*
X6387810Y25779551D01*
X6330214Y25892589D01*
X6330210Y25892593D01*
X6330209Y25892595D01*
X6240511Y25982293D01*
X6240508Y25982295D01*
X6240506Y25982297D01*
X6127468Y26039893D01*
X6127467Y26039894D01*
X6127464Y26039895D01*
X6002167Y26059739D01*
X6002161Y26059739D01*
X5876863Y26039895D01*
X5876862Y26039895D01*
X5803913Y26002725D01*
X5763822Y25982297D01*
X5763820Y25982296D01*
X5755127Y25977866D01*
X5753347Y25981359D01*
X5705362Y25964391D01*
X5637353Y25980409D01*
X5598316Y26015323D01*
X5577650Y26043768D01*
X5561679Y26059739D01*
X5293770Y26327648D01*
X5290071Y26330807D01*
X5290284Y26331058D01*
X5279946Y26340056D01*
X5201391Y26421632D01*
X4584402Y27062352D01*
X4552081Y27124294D01*
X4558379Y27193880D01*
X4586040Y27236041D01*
X5010650Y27660651D01*
X5071971Y27694134D01*
X5141663Y27689150D01*
G37*
%TD.AperFunction*%
%TD*%
%TA.AperFunction,Conductor*%
%TO.N,GND*%
G36*
X13315677Y31030315D02*
G01*
X13336319Y31013681D01*
X14510255Y29839745D01*
X14543740Y29778422D01*
X14538756Y29708730D01*
X14508193Y29662368D01*
X12803128Y28034804D01*
X12741043Y28002754D01*
X12717509Y28000500D01*
X12623952Y28000500D01*
X12595508Y27992878D01*
X12525658Y27994542D01*
X12475736Y28024972D01*
X11460121Y29040587D01*
X11460117Y29040590D01*
X11460114Y29040593D01*
X11417797Y29068869D01*
X11398172Y29081983D01*
X11398170Y29081984D01*
X11300433Y29101424D01*
X11300429Y29101424D01*
X11202695Y29081984D01*
X11202689Y29081982D01*
X11146626Y29044522D01*
X11079948Y29023645D01*
X11012569Y29042131D01*
X10990056Y29059944D01*
X10650000Y29400000D01*
X10000000Y30050000D01*
X10963681Y31013681D01*
X11025004Y31047166D01*
X11051362Y31050000D01*
X13248638Y31050000D01*
X13315677Y31030315D01*
G37*
%TD.AperFunction*%
%TD*%
%TA.AperFunction,Conductor*%
%TO.N,GND*%
G36*
X4867264Y45980315D02*
G01*
X4913019Y45927511D01*
X4922963Y45858353D01*
X4912607Y45823595D01*
X4906027Y45809486D01*
X4899500Y45759902D01*
X4899500Y45340106D01*
X4899501Y45340100D01*
X4906028Y45290513D01*
X4906029Y45290511D01*
X4906029Y45290510D01*
X4956776Y45181684D01*
X4965410Y45173050D01*
X4998895Y45111727D01*
X5001729Y45085369D01*
X5001729Y45000239D01*
X4982044Y44933200D01*
X4965410Y44912558D01*
X4890365Y44837514D01*
X4839355Y44733172D01*
X4839355Y44733170D01*
X4829500Y44665528D01*
X4829500Y44304472D01*
X4837947Y44246494D01*
X4839355Y44236829D01*
X4890365Y44132487D01*
X4935171Y44087681D01*
X4968656Y44026358D01*
X4963672Y43956666D01*
X4935171Y43912319D01*
X4890365Y43867514D01*
X4839355Y43763172D01*
X4839355Y43763170D01*
X4829500Y43695528D01*
X4829500Y43334472D01*
X4839355Y43266830D01*
X4890364Y43162489D01*
X4965411Y43087442D01*
X4998895Y43026121D01*
X5001729Y42999762D01*
X5001729Y42914631D01*
X4982044Y42847592D01*
X4965410Y42826950D01*
X4956776Y42818317D01*
X4906027Y42709486D01*
X4899500Y42659902D01*
X4899500Y42240106D01*
X4899501Y42240100D01*
X4906028Y42190513D01*
X4956776Y42081684D01*
X5041684Y41996776D01*
X5150513Y41946028D01*
X5200099Y41939500D01*
X5304181Y41939501D01*
X5371219Y41919817D01*
X5391862Y41903182D01*
X6285410Y41009634D01*
X6318895Y40948311D01*
X6321729Y40921953D01*
X6321729Y28124000D01*
X6302044Y28056961D01*
X6249240Y28011206D01*
X6197729Y28000000D01*
X4870227Y28000000D01*
X4808226Y28016614D01*
X4802713Y28019797D01*
X4802710Y28019799D01*
X4790602Y28023043D01*
X4778495Y28026287D01*
X4778492Y28026288D01*
X4740300Y28036522D01*
X4688131Y28050500D01*
X4374000Y28050500D01*
X4306961Y28070185D01*
X4261206Y28122989D01*
X4250000Y28174500D01*
X4250000Y28175987D01*
X4269685Y28243026D01*
X4270847Y28244802D01*
X4288867Y28271769D01*
X4300500Y28330252D01*
X4300500Y29059523D01*
X4320185Y29126562D01*
X4336819Y29147204D01*
X4872945Y29683331D01*
X4934266Y29716814D01*
X4941197Y29718116D01*
X4984661Y29725000D01*
X5083587Y29775405D01*
X5162095Y29853913D01*
X5212500Y29952839D01*
X5212500Y29952841D01*
X5212501Y29952842D01*
X5229869Y30062498D01*
X5229869Y30062503D01*
X5212501Y30172159D01*
X5212500Y30172161D01*
X5162095Y30271087D01*
X5162092Y30271090D01*
X5162090Y30271093D01*
X5083592Y30349591D01*
X5083588Y30349594D01*
X5083587Y30349595D01*
X5079743Y30351554D01*
X4984658Y30400002D01*
X4956078Y30404528D01*
X4892943Y30434458D01*
X4887796Y30439320D01*
X4286319Y31040797D01*
X4252834Y31102120D01*
X4250000Y31128478D01*
X4250000Y32275987D01*
X4269685Y32343026D01*
X4270847Y32344802D01*
X4288867Y32371769D01*
X4300500Y32430252D01*
X4300500Y33369748D01*
X4300500Y33369751D01*
X4300499Y33369753D01*
X4288868Y33428227D01*
X4288867Y33428228D01*
X4288867Y33428231D01*
X4270897Y33455124D01*
X4250020Y33521801D01*
X4250000Y33524014D01*
X4250000Y34605500D01*
X4269685Y34672539D01*
X4322489Y34718294D01*
X4374000Y34729500D01*
X4684316Y34729500D01*
X4700600Y34731644D01*
X4733172Y34735932D01*
X4840403Y34785935D01*
X4840403Y34785936D01*
X4844578Y34787882D01*
X4896983Y34799500D01*
X5059306Y34799500D01*
X5059309Y34799500D01*
X5173886Y34830201D01*
X5276613Y34889511D01*
X5360489Y34973387D01*
X5419799Y35076114D01*
X5450500Y35190691D01*
X5450500Y35309309D01*
X5419799Y35423886D01*
X5360489Y35526613D01*
X5276613Y35610489D01*
X5173886Y35669799D01*
X5059309Y35700500D01*
X5059306Y35700500D01*
X4896983Y35700500D01*
X4844578Y35712118D01*
X4840403Y35714065D01*
X4733172Y35764068D01*
X4733170Y35764069D01*
X4733171Y35764069D01*
X4684316Y35770500D01*
X4684315Y35770500D01*
X4374000Y35770500D01*
X4306961Y35790185D01*
X4261206Y35842989D01*
X4250000Y35894500D01*
X4250000Y36075987D01*
X4269685Y36143026D01*
X4270847Y36144802D01*
X4288867Y36171769D01*
X4300500Y36230252D01*
X4300500Y37169748D01*
X4300500Y37169751D01*
X4300499Y37169753D01*
X4288868Y37228227D01*
X4288867Y37228228D01*
X4288867Y37228231D01*
X4270897Y37255124D01*
X4250020Y37321801D01*
X4250000Y37324014D01*
X4250000Y39461023D01*
X4269685Y39528062D01*
X4322489Y39573817D01*
X4391647Y39583761D01*
X4455203Y39554736D01*
X4461681Y39548704D01*
X4515772Y39494613D01*
X4538576Y39463227D01*
X4587905Y39366413D01*
X4587907Y39366411D01*
X4587909Y39366408D01*
X4666407Y39287910D01*
X4666410Y39287908D01*
X4666413Y39287905D01*
X4765339Y39237500D01*
X4765341Y39237499D01*
X4874998Y39220131D01*
X4875000Y39220131D01*
X4875002Y39220131D01*
X4984658Y39237499D01*
X4984659Y39237500D01*
X4984661Y39237500D01*
X5083587Y39287905D01*
X5162095Y39366413D01*
X5212500Y39465339D01*
X5212500Y39465341D01*
X5212501Y39465342D01*
X5229869Y39574998D01*
X5229869Y39575003D01*
X5212501Y39684659D01*
X5166572Y39774800D01*
X5162095Y39783587D01*
X5162092Y39783590D01*
X5162090Y39783593D01*
X5083592Y39862091D01*
X5083588Y39862094D01*
X5083587Y39862095D01*
X4984661Y39912500D01*
X4984659Y39912501D01*
X4984658Y39912501D01*
X4896668Y39926438D01*
X4833534Y39956368D01*
X4828386Y39961230D01*
X4336819Y40452797D01*
X4303334Y40514120D01*
X4300500Y40540478D01*
X4300500Y41269751D01*
X4300499Y41269753D01*
X4288868Y41328227D01*
X4288867Y41328228D01*
X4288867Y41328231D01*
X4270897Y41355124D01*
X4250020Y41421801D01*
X4250000Y41424014D01*
X4250000Y41500000D01*
X3374000Y41500000D01*
X3306961Y41519685D01*
X3261206Y41572489D01*
X3250000Y41624000D01*
X3250000Y45876000D01*
X3269685Y45943039D01*
X3322489Y45988794D01*
X3374000Y46000000D01*
X4800225Y46000000D01*
X4867264Y45980315D01*
G37*
%TD.AperFunction*%
%TA.AperFunction,Conductor*%
G36*
X6500000Y41864956D02*
G01*
X5896818Y42468138D01*
X5863333Y42529461D01*
X5860499Y42555819D01*
X5860499Y42659895D01*
X5860499Y42659900D01*
X5853972Y42709487D01*
X5803224Y42818316D01*
X5794590Y42826950D01*
X5761105Y42888273D01*
X5758271Y42914631D01*
X5758271Y43059762D01*
X5777956Y43126801D01*
X5794592Y43147445D01*
X5809636Y43162489D01*
X5860645Y43266830D01*
X5870500Y43334472D01*
X5870500Y43695528D01*
X5860645Y43763170D01*
X5809636Y43867511D01*
X5809634Y43867513D01*
X5809634Y43867514D01*
X5764829Y43912319D01*
X5731344Y43973642D01*
X5736328Y44043334D01*
X5764829Y44087681D01*
X5809634Y44132487D01*
X5809636Y44132489D01*
X5860645Y44236830D01*
X5870500Y44304472D01*
X5870500Y44665528D01*
X5860645Y44733170D01*
X5809636Y44837511D01*
X5809634Y44837513D01*
X5809634Y44837514D01*
X5794590Y44852558D01*
X5761105Y44913881D01*
X5758271Y44940239D01*
X5758271Y45085369D01*
X5777956Y45152408D01*
X5794590Y45173050D01*
X5803224Y45181684D01*
X5853972Y45290513D01*
X5860500Y45340099D01*
X5860499Y45759900D01*
X5853972Y45809487D01*
X5847393Y45823594D01*
X5836901Y45892670D01*
X5865419Y45956455D01*
X5923895Y45994696D01*
X5959775Y46000000D01*
X6500000Y46000000D01*
X6500000Y41864956D01*
G37*
%TD.AperFunction*%
%TD*%
%TA.AperFunction,Conductor*%
%TO.N,+3V3*%
G36*
X12943039Y36230315D02*
G01*
X12988794Y36177511D01*
X13000000Y36126000D01*
X13000000Y34874000D01*
X12980315Y34806961D01*
X12927511Y34761206D01*
X12876000Y34750000D01*
X11624000Y34750000D01*
X11556961Y34769685D01*
X11511206Y34822489D01*
X11500000Y34874000D01*
X11500000Y36126000D01*
X11519685Y36193039D01*
X11572489Y36238794D01*
X11624000Y36250000D01*
X12876000Y36250000D01*
X12943039Y36230315D01*
G37*
%TD.AperFunction*%
%TD*%
%TA.AperFunction,Conductor*%
%TO.N,Net-(D4-K)*%
G36*
X11193039Y37580315D02*
G01*
X11238794Y37527511D01*
X11250000Y37476000D01*
X11250000Y36173123D01*
X11248738Y36155477D01*
X11244500Y36126002D01*
X11244500Y34874000D01*
X11249290Y34829446D01*
X11250000Y34816191D01*
X11250000Y33850000D01*
X12125500Y33850000D01*
X12192539Y33830315D01*
X12238294Y33777511D01*
X12249500Y33726000D01*
X12249500Y32680983D01*
X12260292Y32612843D01*
X12264354Y32587196D01*
X12321950Y32474158D01*
X12321952Y32474156D01*
X12321954Y32474153D01*
X12411652Y32384455D01*
X12411654Y32384454D01*
X12411658Y32384450D01*
X12524696Y32326854D01*
X12524698Y32326853D01*
X12618475Y32312001D01*
X12618481Y32312000D01*
X12876000Y32312001D01*
X12943039Y32292317D01*
X12988794Y32239513D01*
X13000000Y32188001D01*
X13000000Y31429500D01*
X12980315Y31362461D01*
X12927511Y31316706D01*
X12876000Y31305500D01*
X11051361Y31305500D01*
X11024065Y31304037D01*
X11024060Y31304037D01*
X11024048Y31304036D01*
X11024040Y31304036D01*
X11024011Y31304033D01*
X10997689Y31301203D01*
X10997687Y31301202D01*
X10902558Y31271414D01*
X10902556Y31271414D01*
X10902556Y31271413D01*
X10891118Y31265168D01*
X10831692Y31250000D01*
X9924000Y31250000D01*
X9856961Y31269685D01*
X9811206Y31322489D01*
X9800000Y31374000D01*
X9800000Y37476000D01*
X9819685Y37543039D01*
X9872489Y37588794D01*
X9924000Y37600000D01*
X11126000Y37600000D01*
X11193039Y37580315D01*
G37*
%TD.AperFunction*%
%TD*%
M02*
