%TF.GenerationSoftware,KiCad,Pcbnew,8.0.6*%
%TF.CreationDate,2024-11-16T14:05:39-06:00*%
%TF.ProjectId,ATesp32,41546573-7033-4322-9e6b-696361645f70,rev?*%
%TF.SameCoordinates,PX47868c0PY2faf080*%
%TF.FileFunction,Drillmap*%
%TF.FilePolarity,Positive*%
%FSLAX45Y45*%
G04 Gerber Fmt 4.5, Leading zero omitted, Abs format (unit mm)*
G04 Created by KiCad (PCBNEW 8.0.6) date 2024-11-16 14:05:39*
%MOMM*%
%LPD*%
G01*
G04 APERTURE LIST*
%ADD10C,0.050000*%
%ADD11C,0.200000*%
%ADD12C,0.100000*%
G04 APERTURE END LIST*
D10*
X0Y0D02*
X1800000Y0D01*
X1800000Y-5125000D01*
X0Y-5125000D01*
X0Y0D01*
D11*
D12*
X578500Y-4567500D02*
X643500Y-4632500D01*
X643500Y-4567500D02*
X578500Y-4632500D01*
X1156500Y-4567500D02*
X1221500Y-4632500D01*
X1221500Y-4567500D02*
X1156500Y-4632500D01*
D11*
X258277Y-5438984D02*
X258277Y-5238984D01*
X258277Y-5238984D02*
X305896Y-5238984D01*
X305896Y-5238984D02*
X334467Y-5248508D01*
X334467Y-5248508D02*
X353515Y-5267555D01*
X353515Y-5267555D02*
X363039Y-5286603D01*
X363039Y-5286603D02*
X372562Y-5324698D01*
X372562Y-5324698D02*
X372562Y-5353270D01*
X372562Y-5353270D02*
X363039Y-5391365D01*
X363039Y-5391365D02*
X353515Y-5410412D01*
X353515Y-5410412D02*
X334467Y-5429460D01*
X334467Y-5429460D02*
X305896Y-5438984D01*
X305896Y-5438984D02*
X258277Y-5438984D01*
X458277Y-5438984D02*
X458277Y-5305650D01*
X458277Y-5343746D02*
X467801Y-5324698D01*
X467801Y-5324698D02*
X477324Y-5315174D01*
X477324Y-5315174D02*
X496372Y-5305650D01*
X496372Y-5305650D02*
X515420Y-5305650D01*
X582086Y-5438984D02*
X582086Y-5305650D01*
X582086Y-5238984D02*
X572563Y-5248508D01*
X572563Y-5248508D02*
X582086Y-5258031D01*
X582086Y-5258031D02*
X591610Y-5248508D01*
X591610Y-5248508D02*
X582086Y-5238984D01*
X582086Y-5238984D02*
X582086Y-5258031D01*
X705896Y-5438984D02*
X686848Y-5429460D01*
X686848Y-5429460D02*
X677324Y-5410412D01*
X677324Y-5410412D02*
X677324Y-5238984D01*
X810658Y-5438984D02*
X791610Y-5429460D01*
X791610Y-5429460D02*
X782086Y-5410412D01*
X782086Y-5410412D02*
X782086Y-5238984D01*
X1039229Y-5438984D02*
X1039229Y-5238984D01*
X1039229Y-5238984D02*
X1105896Y-5381841D01*
X1105896Y-5381841D02*
X1172563Y-5238984D01*
X1172563Y-5238984D02*
X1172563Y-5438984D01*
X1353515Y-5438984D02*
X1353515Y-5334222D01*
X1353515Y-5334222D02*
X1343991Y-5315174D01*
X1343991Y-5315174D02*
X1324944Y-5305650D01*
X1324944Y-5305650D02*
X1286848Y-5305650D01*
X1286848Y-5305650D02*
X1267801Y-5315174D01*
X1353515Y-5429460D02*
X1334467Y-5438984D01*
X1334467Y-5438984D02*
X1286848Y-5438984D01*
X1286848Y-5438984D02*
X1267801Y-5429460D01*
X1267801Y-5429460D02*
X1258277Y-5410412D01*
X1258277Y-5410412D02*
X1258277Y-5391365D01*
X1258277Y-5391365D02*
X1267801Y-5372317D01*
X1267801Y-5372317D02*
X1286848Y-5362793D01*
X1286848Y-5362793D02*
X1334467Y-5362793D01*
X1334467Y-5362793D02*
X1353515Y-5353270D01*
X1448753Y-5305650D02*
X1448753Y-5505650D01*
X1448753Y-5315174D02*
X1467801Y-5305650D01*
X1467801Y-5305650D02*
X1505896Y-5305650D01*
X1505896Y-5305650D02*
X1524943Y-5315174D01*
X1524943Y-5315174D02*
X1534467Y-5324698D01*
X1534467Y-5324698D02*
X1543991Y-5343746D01*
X1543991Y-5343746D02*
X1543991Y-5400889D01*
X1543991Y-5400889D02*
X1534467Y-5419936D01*
X1534467Y-5419936D02*
X1524943Y-5429460D01*
X1524943Y-5429460D02*
X1505896Y-5438984D01*
X1505896Y-5438984D02*
X1467801Y-5438984D01*
X1467801Y-5438984D02*
X1448753Y-5429460D01*
X1629705Y-5419936D02*
X1639229Y-5429460D01*
X1639229Y-5429460D02*
X1629705Y-5438984D01*
X1629705Y-5438984D02*
X1620182Y-5429460D01*
X1620182Y-5429460D02*
X1629705Y-5419936D01*
X1629705Y-5419936D02*
X1629705Y-5438984D01*
X1629705Y-5315174D02*
X1639229Y-5324698D01*
X1639229Y-5324698D02*
X1629705Y-5334222D01*
X1629705Y-5334222D02*
X1620182Y-5324698D01*
X1620182Y-5324698D02*
X1629705Y-5315174D01*
X1629705Y-5315174D02*
X1629705Y-5334222D01*
D12*
X-67500Y-5735000D02*
X-2500Y-5800000D01*
X-2500Y-5735000D02*
X-67500Y-5800000D01*
D11*
X296372Y-5658984D02*
X315420Y-5658984D01*
X315420Y-5658984D02*
X334467Y-5668508D01*
X334467Y-5668508D02*
X343991Y-5678031D01*
X343991Y-5678031D02*
X353515Y-5697079D01*
X353515Y-5697079D02*
X363039Y-5735174D01*
X363039Y-5735174D02*
X363039Y-5782793D01*
X363039Y-5782793D02*
X353515Y-5820888D01*
X353515Y-5820888D02*
X343991Y-5839936D01*
X343991Y-5839936D02*
X334467Y-5849460D01*
X334467Y-5849460D02*
X315420Y-5858984D01*
X315420Y-5858984D02*
X296372Y-5858984D01*
X296372Y-5858984D02*
X277324Y-5849460D01*
X277324Y-5849460D02*
X267801Y-5839936D01*
X267801Y-5839936D02*
X258277Y-5820888D01*
X258277Y-5820888D02*
X248753Y-5782793D01*
X248753Y-5782793D02*
X248753Y-5735174D01*
X248753Y-5735174D02*
X258277Y-5697079D01*
X258277Y-5697079D02*
X267801Y-5678031D01*
X267801Y-5678031D02*
X277324Y-5668508D01*
X277324Y-5668508D02*
X296372Y-5658984D01*
X448753Y-5839936D02*
X458277Y-5849460D01*
X458277Y-5849460D02*
X448753Y-5858984D01*
X448753Y-5858984D02*
X439229Y-5849460D01*
X439229Y-5849460D02*
X448753Y-5839936D01*
X448753Y-5839936D02*
X448753Y-5858984D01*
X629705Y-5658984D02*
X591610Y-5658984D01*
X591610Y-5658984D02*
X572563Y-5668508D01*
X572563Y-5668508D02*
X563039Y-5678031D01*
X563039Y-5678031D02*
X543991Y-5706603D01*
X543991Y-5706603D02*
X534467Y-5744698D01*
X534467Y-5744698D02*
X534467Y-5820888D01*
X534467Y-5820888D02*
X543991Y-5839936D01*
X543991Y-5839936D02*
X553515Y-5849460D01*
X553515Y-5849460D02*
X572563Y-5858984D01*
X572563Y-5858984D02*
X610658Y-5858984D01*
X610658Y-5858984D02*
X629705Y-5849460D01*
X629705Y-5849460D02*
X639229Y-5839936D01*
X639229Y-5839936D02*
X648753Y-5820888D01*
X648753Y-5820888D02*
X648753Y-5773269D01*
X648753Y-5773269D02*
X639229Y-5754222D01*
X639229Y-5754222D02*
X629705Y-5744698D01*
X629705Y-5744698D02*
X610658Y-5735174D01*
X610658Y-5735174D02*
X572563Y-5735174D01*
X572563Y-5735174D02*
X553515Y-5744698D01*
X553515Y-5744698D02*
X543991Y-5754222D01*
X543991Y-5754222D02*
X534467Y-5773269D01*
X829705Y-5658984D02*
X734467Y-5658984D01*
X734467Y-5658984D02*
X724943Y-5754222D01*
X724943Y-5754222D02*
X734467Y-5744698D01*
X734467Y-5744698D02*
X753515Y-5735174D01*
X753515Y-5735174D02*
X801134Y-5735174D01*
X801134Y-5735174D02*
X820182Y-5744698D01*
X820182Y-5744698D02*
X829705Y-5754222D01*
X829705Y-5754222D02*
X839229Y-5773269D01*
X839229Y-5773269D02*
X839229Y-5820888D01*
X839229Y-5820888D02*
X829705Y-5839936D01*
X829705Y-5839936D02*
X820182Y-5849460D01*
X820182Y-5849460D02*
X801134Y-5858984D01*
X801134Y-5858984D02*
X753515Y-5858984D01*
X753515Y-5858984D02*
X734467Y-5849460D01*
X734467Y-5849460D02*
X724943Y-5839936D01*
X963039Y-5658984D02*
X982086Y-5658984D01*
X982086Y-5658984D02*
X1001134Y-5668508D01*
X1001134Y-5668508D02*
X1010658Y-5678031D01*
X1010658Y-5678031D02*
X1020182Y-5697079D01*
X1020182Y-5697079D02*
X1029705Y-5735174D01*
X1029705Y-5735174D02*
X1029705Y-5782793D01*
X1029705Y-5782793D02*
X1020182Y-5820888D01*
X1020182Y-5820888D02*
X1010658Y-5839936D01*
X1010658Y-5839936D02*
X1001134Y-5849460D01*
X1001134Y-5849460D02*
X982086Y-5858984D01*
X982086Y-5858984D02*
X963039Y-5858984D01*
X963039Y-5858984D02*
X943991Y-5849460D01*
X943991Y-5849460D02*
X934467Y-5839936D01*
X934467Y-5839936D02*
X924943Y-5820888D01*
X924943Y-5820888D02*
X915420Y-5782793D01*
X915420Y-5782793D02*
X915420Y-5735174D01*
X915420Y-5735174D02*
X924943Y-5697079D01*
X924943Y-5697079D02*
X934467Y-5678031D01*
X934467Y-5678031D02*
X943991Y-5668508D01*
X943991Y-5668508D02*
X963039Y-5658984D01*
X1115420Y-5858984D02*
X1115420Y-5725650D01*
X1115420Y-5744698D02*
X1124944Y-5735174D01*
X1124944Y-5735174D02*
X1143991Y-5725650D01*
X1143991Y-5725650D02*
X1172563Y-5725650D01*
X1172563Y-5725650D02*
X1191610Y-5735174D01*
X1191610Y-5735174D02*
X1201134Y-5754222D01*
X1201134Y-5754222D02*
X1201134Y-5858984D01*
X1201134Y-5754222D02*
X1210658Y-5735174D01*
X1210658Y-5735174D02*
X1229705Y-5725650D01*
X1229705Y-5725650D02*
X1258277Y-5725650D01*
X1258277Y-5725650D02*
X1277325Y-5735174D01*
X1277325Y-5735174D02*
X1286848Y-5754222D01*
X1286848Y-5754222D02*
X1286848Y-5858984D01*
X1382086Y-5858984D02*
X1382086Y-5725650D01*
X1382086Y-5744698D02*
X1391610Y-5735174D01*
X1391610Y-5735174D02*
X1410658Y-5725650D01*
X1410658Y-5725650D02*
X1439229Y-5725650D01*
X1439229Y-5725650D02*
X1458277Y-5735174D01*
X1458277Y-5735174D02*
X1467801Y-5754222D01*
X1467801Y-5754222D02*
X1467801Y-5858984D01*
X1467801Y-5754222D02*
X1477324Y-5735174D01*
X1477324Y-5735174D02*
X1496372Y-5725650D01*
X1496372Y-5725650D02*
X1524943Y-5725650D01*
X1524943Y-5725650D02*
X1543991Y-5735174D01*
X1543991Y-5735174D02*
X1553515Y-5754222D01*
X1553515Y-5754222D02*
X1553515Y-5858984D01*
X1943991Y-5649460D02*
X1772563Y-5906603D01*
X2201134Y-5658984D02*
X2220182Y-5658984D01*
X2220182Y-5658984D02*
X2239229Y-5668508D01*
X2239229Y-5668508D02*
X2248753Y-5678031D01*
X2248753Y-5678031D02*
X2258277Y-5697079D01*
X2258277Y-5697079D02*
X2267801Y-5735174D01*
X2267801Y-5735174D02*
X2267801Y-5782793D01*
X2267801Y-5782793D02*
X2258277Y-5820888D01*
X2258277Y-5820888D02*
X2248753Y-5839936D01*
X2248753Y-5839936D02*
X2239229Y-5849460D01*
X2239229Y-5849460D02*
X2220182Y-5858984D01*
X2220182Y-5858984D02*
X2201134Y-5858984D01*
X2201134Y-5858984D02*
X2182087Y-5849460D01*
X2182087Y-5849460D02*
X2172563Y-5839936D01*
X2172563Y-5839936D02*
X2163039Y-5820888D01*
X2163039Y-5820888D02*
X2153515Y-5782793D01*
X2153515Y-5782793D02*
X2153515Y-5735174D01*
X2153515Y-5735174D02*
X2163039Y-5697079D01*
X2163039Y-5697079D02*
X2172563Y-5678031D01*
X2172563Y-5678031D02*
X2182087Y-5668508D01*
X2182087Y-5668508D02*
X2201134Y-5658984D01*
X2353515Y-5839936D02*
X2363039Y-5849460D01*
X2363039Y-5849460D02*
X2353515Y-5858984D01*
X2353515Y-5858984D02*
X2343991Y-5849460D01*
X2343991Y-5849460D02*
X2353515Y-5839936D01*
X2353515Y-5839936D02*
X2353515Y-5858984D01*
X2486848Y-5658984D02*
X2505896Y-5658984D01*
X2505896Y-5658984D02*
X2524944Y-5668508D01*
X2524944Y-5668508D02*
X2534468Y-5678031D01*
X2534468Y-5678031D02*
X2543991Y-5697079D01*
X2543991Y-5697079D02*
X2553515Y-5735174D01*
X2553515Y-5735174D02*
X2553515Y-5782793D01*
X2553515Y-5782793D02*
X2543991Y-5820888D01*
X2543991Y-5820888D02*
X2534468Y-5839936D01*
X2534468Y-5839936D02*
X2524944Y-5849460D01*
X2524944Y-5849460D02*
X2505896Y-5858984D01*
X2505896Y-5858984D02*
X2486848Y-5858984D01*
X2486848Y-5858984D02*
X2467801Y-5849460D01*
X2467801Y-5849460D02*
X2458277Y-5839936D01*
X2458277Y-5839936D02*
X2448753Y-5820888D01*
X2448753Y-5820888D02*
X2439229Y-5782793D01*
X2439229Y-5782793D02*
X2439229Y-5735174D01*
X2439229Y-5735174D02*
X2448753Y-5697079D01*
X2448753Y-5697079D02*
X2458277Y-5678031D01*
X2458277Y-5678031D02*
X2467801Y-5668508D01*
X2467801Y-5668508D02*
X2486848Y-5658984D01*
X2629706Y-5678031D02*
X2639229Y-5668508D01*
X2639229Y-5668508D02*
X2658277Y-5658984D01*
X2658277Y-5658984D02*
X2705896Y-5658984D01*
X2705896Y-5658984D02*
X2724944Y-5668508D01*
X2724944Y-5668508D02*
X2734468Y-5678031D01*
X2734468Y-5678031D02*
X2743991Y-5697079D01*
X2743991Y-5697079D02*
X2743991Y-5716127D01*
X2743991Y-5716127D02*
X2734468Y-5744698D01*
X2734468Y-5744698D02*
X2620182Y-5858984D01*
X2620182Y-5858984D02*
X2743991Y-5858984D01*
X2924944Y-5658984D02*
X2829706Y-5658984D01*
X2829706Y-5658984D02*
X2820182Y-5754222D01*
X2820182Y-5754222D02*
X2829706Y-5744698D01*
X2829706Y-5744698D02*
X2848753Y-5735174D01*
X2848753Y-5735174D02*
X2896372Y-5735174D01*
X2896372Y-5735174D02*
X2915420Y-5744698D01*
X2915420Y-5744698D02*
X2924944Y-5754222D01*
X2924944Y-5754222D02*
X2934467Y-5773269D01*
X2934467Y-5773269D02*
X2934467Y-5820888D01*
X2934467Y-5820888D02*
X2924944Y-5839936D01*
X2924944Y-5839936D02*
X2915420Y-5849460D01*
X2915420Y-5849460D02*
X2896372Y-5858984D01*
X2896372Y-5858984D02*
X2848753Y-5858984D01*
X2848753Y-5858984D02*
X2829706Y-5849460D01*
X2829706Y-5849460D02*
X2820182Y-5839936D01*
X3105896Y-5658984D02*
X3067801Y-5658984D01*
X3067801Y-5658984D02*
X3048753Y-5668508D01*
X3048753Y-5668508D02*
X3039229Y-5678031D01*
X3039229Y-5678031D02*
X3020182Y-5706603D01*
X3020182Y-5706603D02*
X3010658Y-5744698D01*
X3010658Y-5744698D02*
X3010658Y-5820888D01*
X3010658Y-5820888D02*
X3020182Y-5839936D01*
X3020182Y-5839936D02*
X3029706Y-5849460D01*
X3029706Y-5849460D02*
X3048753Y-5858984D01*
X3048753Y-5858984D02*
X3086848Y-5858984D01*
X3086848Y-5858984D02*
X3105896Y-5849460D01*
X3105896Y-5849460D02*
X3115420Y-5839936D01*
X3115420Y-5839936D02*
X3124944Y-5820888D01*
X3124944Y-5820888D02*
X3124944Y-5773269D01*
X3124944Y-5773269D02*
X3115420Y-5754222D01*
X3115420Y-5754222D02*
X3105896Y-5744698D01*
X3105896Y-5744698D02*
X3086848Y-5735174D01*
X3086848Y-5735174D02*
X3048753Y-5735174D01*
X3048753Y-5735174D02*
X3029706Y-5744698D01*
X3029706Y-5744698D02*
X3020182Y-5754222D01*
X3020182Y-5754222D02*
X3010658Y-5773269D01*
X3201134Y-5658984D02*
X3201134Y-5697079D01*
X3277325Y-5658984D02*
X3277325Y-5697079D01*
X3572563Y-5935174D02*
X3563039Y-5925650D01*
X3563039Y-5925650D02*
X3543991Y-5897079D01*
X3543991Y-5897079D02*
X3534468Y-5878031D01*
X3534468Y-5878031D02*
X3524944Y-5849460D01*
X3524944Y-5849460D02*
X3515420Y-5801841D01*
X3515420Y-5801841D02*
X3515420Y-5763746D01*
X3515420Y-5763746D02*
X3524944Y-5716127D01*
X3524944Y-5716127D02*
X3534468Y-5687555D01*
X3534468Y-5687555D02*
X3543991Y-5668508D01*
X3543991Y-5668508D02*
X3563039Y-5639936D01*
X3563039Y-5639936D02*
X3572563Y-5630412D01*
X3639229Y-5678031D02*
X3648753Y-5668508D01*
X3648753Y-5668508D02*
X3667801Y-5658984D01*
X3667801Y-5658984D02*
X3715420Y-5658984D01*
X3715420Y-5658984D02*
X3734468Y-5668508D01*
X3734468Y-5668508D02*
X3743991Y-5678031D01*
X3743991Y-5678031D02*
X3753515Y-5697079D01*
X3753515Y-5697079D02*
X3753515Y-5716127D01*
X3753515Y-5716127D02*
X3743991Y-5744698D01*
X3743991Y-5744698D02*
X3629706Y-5858984D01*
X3629706Y-5858984D02*
X3753515Y-5858984D01*
X3991610Y-5858984D02*
X3991610Y-5658984D01*
X4077325Y-5858984D02*
X4077325Y-5754222D01*
X4077325Y-5754222D02*
X4067801Y-5735174D01*
X4067801Y-5735174D02*
X4048753Y-5725650D01*
X4048753Y-5725650D02*
X4020182Y-5725650D01*
X4020182Y-5725650D02*
X4001134Y-5735174D01*
X4001134Y-5735174D02*
X3991610Y-5744698D01*
X4201134Y-5858984D02*
X4182087Y-5849460D01*
X4182087Y-5849460D02*
X4172563Y-5839936D01*
X4172563Y-5839936D02*
X4163039Y-5820888D01*
X4163039Y-5820888D02*
X4163039Y-5763746D01*
X4163039Y-5763746D02*
X4172563Y-5744698D01*
X4172563Y-5744698D02*
X4182087Y-5735174D01*
X4182087Y-5735174D02*
X4201134Y-5725650D01*
X4201134Y-5725650D02*
X4229706Y-5725650D01*
X4229706Y-5725650D02*
X4248753Y-5735174D01*
X4248753Y-5735174D02*
X4258277Y-5744698D01*
X4258277Y-5744698D02*
X4267801Y-5763746D01*
X4267801Y-5763746D02*
X4267801Y-5820888D01*
X4267801Y-5820888D02*
X4258277Y-5839936D01*
X4258277Y-5839936D02*
X4248753Y-5849460D01*
X4248753Y-5849460D02*
X4229706Y-5858984D01*
X4229706Y-5858984D02*
X4201134Y-5858984D01*
X4382087Y-5858984D02*
X4363039Y-5849460D01*
X4363039Y-5849460D02*
X4353515Y-5830412D01*
X4353515Y-5830412D02*
X4353515Y-5658984D01*
X4534468Y-5849460D02*
X4515420Y-5858984D01*
X4515420Y-5858984D02*
X4477325Y-5858984D01*
X4477325Y-5858984D02*
X4458277Y-5849460D01*
X4458277Y-5849460D02*
X4448753Y-5830412D01*
X4448753Y-5830412D02*
X4448753Y-5754222D01*
X4448753Y-5754222D02*
X4458277Y-5735174D01*
X4458277Y-5735174D02*
X4477325Y-5725650D01*
X4477325Y-5725650D02*
X4515420Y-5725650D01*
X4515420Y-5725650D02*
X4534468Y-5735174D01*
X4534468Y-5735174D02*
X4543992Y-5754222D01*
X4543992Y-5754222D02*
X4543992Y-5773269D01*
X4543992Y-5773269D02*
X4448753Y-5792317D01*
X4620182Y-5849460D02*
X4639230Y-5858984D01*
X4639230Y-5858984D02*
X4677325Y-5858984D01*
X4677325Y-5858984D02*
X4696373Y-5849460D01*
X4696373Y-5849460D02*
X4705896Y-5830412D01*
X4705896Y-5830412D02*
X4705896Y-5820888D01*
X4705896Y-5820888D02*
X4696373Y-5801841D01*
X4696373Y-5801841D02*
X4677325Y-5792317D01*
X4677325Y-5792317D02*
X4648753Y-5792317D01*
X4648753Y-5792317D02*
X4629706Y-5782793D01*
X4629706Y-5782793D02*
X4620182Y-5763746D01*
X4620182Y-5763746D02*
X4620182Y-5754222D01*
X4620182Y-5754222D02*
X4629706Y-5735174D01*
X4629706Y-5735174D02*
X4648753Y-5725650D01*
X4648753Y-5725650D02*
X4677325Y-5725650D01*
X4677325Y-5725650D02*
X4696373Y-5735174D01*
X4772563Y-5935174D02*
X4782087Y-5925650D01*
X4782087Y-5925650D02*
X4801134Y-5897079D01*
X4801134Y-5897079D02*
X4810658Y-5878031D01*
X4810658Y-5878031D02*
X4820182Y-5849460D01*
X4820182Y-5849460D02*
X4829706Y-5801841D01*
X4829706Y-5801841D02*
X4829706Y-5763746D01*
X4829706Y-5763746D02*
X4820182Y-5716127D01*
X4820182Y-5716127D02*
X4810658Y-5687555D01*
X4810658Y-5687555D02*
X4801134Y-5668508D01*
X4801134Y-5668508D02*
X4782087Y-5639936D01*
X4782087Y-5639936D02*
X4772563Y-5630412D01*
X5134468Y-5935174D02*
X5124944Y-5925650D01*
X5124944Y-5925650D02*
X5105896Y-5897079D01*
X5105896Y-5897079D02*
X5096373Y-5878031D01*
X5096373Y-5878031D02*
X5086849Y-5849460D01*
X5086849Y-5849460D02*
X5077325Y-5801841D01*
X5077325Y-5801841D02*
X5077325Y-5763746D01*
X5077325Y-5763746D02*
X5086849Y-5716127D01*
X5086849Y-5716127D02*
X5096373Y-5687555D01*
X5096373Y-5687555D02*
X5105896Y-5668508D01*
X5105896Y-5668508D02*
X5124944Y-5639936D01*
X5124944Y-5639936D02*
X5134468Y-5630412D01*
X5210658Y-5725650D02*
X5210658Y-5858984D01*
X5210658Y-5744698D02*
X5220182Y-5735174D01*
X5220182Y-5735174D02*
X5239230Y-5725650D01*
X5239230Y-5725650D02*
X5267801Y-5725650D01*
X5267801Y-5725650D02*
X5286849Y-5735174D01*
X5286849Y-5735174D02*
X5296373Y-5754222D01*
X5296373Y-5754222D02*
X5296373Y-5858984D01*
X5420182Y-5858984D02*
X5401134Y-5849460D01*
X5401134Y-5849460D02*
X5391611Y-5839936D01*
X5391611Y-5839936D02*
X5382087Y-5820888D01*
X5382087Y-5820888D02*
X5382087Y-5763746D01*
X5382087Y-5763746D02*
X5391611Y-5744698D01*
X5391611Y-5744698D02*
X5401134Y-5735174D01*
X5401134Y-5735174D02*
X5420182Y-5725650D01*
X5420182Y-5725650D02*
X5448754Y-5725650D01*
X5448754Y-5725650D02*
X5467801Y-5735174D01*
X5467801Y-5735174D02*
X5477325Y-5744698D01*
X5477325Y-5744698D02*
X5486849Y-5763746D01*
X5486849Y-5763746D02*
X5486849Y-5820888D01*
X5486849Y-5820888D02*
X5477325Y-5839936D01*
X5477325Y-5839936D02*
X5467801Y-5849460D01*
X5467801Y-5849460D02*
X5448754Y-5858984D01*
X5448754Y-5858984D02*
X5420182Y-5858984D01*
X5543992Y-5725650D02*
X5620182Y-5725650D01*
X5572563Y-5658984D02*
X5572563Y-5830412D01*
X5572563Y-5830412D02*
X5582087Y-5849460D01*
X5582087Y-5849460D02*
X5601134Y-5858984D01*
X5601134Y-5858984D02*
X5620182Y-5858984D01*
X5839230Y-5725650D02*
X5839230Y-5925650D01*
X5839230Y-5735174D02*
X5858277Y-5725650D01*
X5858277Y-5725650D02*
X5896373Y-5725650D01*
X5896373Y-5725650D02*
X5915420Y-5735174D01*
X5915420Y-5735174D02*
X5924944Y-5744698D01*
X5924944Y-5744698D02*
X5934468Y-5763746D01*
X5934468Y-5763746D02*
X5934468Y-5820888D01*
X5934468Y-5820888D02*
X5924944Y-5839936D01*
X5924944Y-5839936D02*
X5915420Y-5849460D01*
X5915420Y-5849460D02*
X5896373Y-5858984D01*
X5896373Y-5858984D02*
X5858277Y-5858984D01*
X5858277Y-5858984D02*
X5839230Y-5849460D01*
X6048753Y-5858984D02*
X6029706Y-5849460D01*
X6029706Y-5849460D02*
X6020182Y-5830412D01*
X6020182Y-5830412D02*
X6020182Y-5658984D01*
X6210658Y-5858984D02*
X6210658Y-5754222D01*
X6210658Y-5754222D02*
X6201134Y-5735174D01*
X6201134Y-5735174D02*
X6182087Y-5725650D01*
X6182087Y-5725650D02*
X6143992Y-5725650D01*
X6143992Y-5725650D02*
X6124944Y-5735174D01*
X6210658Y-5849460D02*
X6191611Y-5858984D01*
X6191611Y-5858984D02*
X6143992Y-5858984D01*
X6143992Y-5858984D02*
X6124944Y-5849460D01*
X6124944Y-5849460D02*
X6115420Y-5830412D01*
X6115420Y-5830412D02*
X6115420Y-5811365D01*
X6115420Y-5811365D02*
X6124944Y-5792317D01*
X6124944Y-5792317D02*
X6143992Y-5782793D01*
X6143992Y-5782793D02*
X6191611Y-5782793D01*
X6191611Y-5782793D02*
X6210658Y-5773269D01*
X6277325Y-5725650D02*
X6353515Y-5725650D01*
X6305896Y-5658984D02*
X6305896Y-5830412D01*
X6305896Y-5830412D02*
X6315420Y-5849460D01*
X6315420Y-5849460D02*
X6334468Y-5858984D01*
X6334468Y-5858984D02*
X6353515Y-5858984D01*
X6496373Y-5849460D02*
X6477325Y-5858984D01*
X6477325Y-5858984D02*
X6439230Y-5858984D01*
X6439230Y-5858984D02*
X6420182Y-5849460D01*
X6420182Y-5849460D02*
X6410658Y-5830412D01*
X6410658Y-5830412D02*
X6410658Y-5754222D01*
X6410658Y-5754222D02*
X6420182Y-5735174D01*
X6420182Y-5735174D02*
X6439230Y-5725650D01*
X6439230Y-5725650D02*
X6477325Y-5725650D01*
X6477325Y-5725650D02*
X6496373Y-5735174D01*
X6496373Y-5735174D02*
X6505896Y-5754222D01*
X6505896Y-5754222D02*
X6505896Y-5773269D01*
X6505896Y-5773269D02*
X6410658Y-5792317D01*
X6677325Y-5858984D02*
X6677325Y-5658984D01*
X6677325Y-5849460D02*
X6658277Y-5858984D01*
X6658277Y-5858984D02*
X6620182Y-5858984D01*
X6620182Y-5858984D02*
X6601134Y-5849460D01*
X6601134Y-5849460D02*
X6591611Y-5839936D01*
X6591611Y-5839936D02*
X6582087Y-5820888D01*
X6582087Y-5820888D02*
X6582087Y-5763746D01*
X6582087Y-5763746D02*
X6591611Y-5744698D01*
X6591611Y-5744698D02*
X6601134Y-5735174D01*
X6601134Y-5735174D02*
X6620182Y-5725650D01*
X6620182Y-5725650D02*
X6658277Y-5725650D01*
X6658277Y-5725650D02*
X6677325Y-5735174D01*
X6753515Y-5935174D02*
X6763039Y-5925650D01*
X6763039Y-5925650D02*
X6782087Y-5897079D01*
X6782087Y-5897079D02*
X6791611Y-5878031D01*
X6791611Y-5878031D02*
X6801134Y-5849460D01*
X6801134Y-5849460D02*
X6810658Y-5801841D01*
X6810658Y-5801841D02*
X6810658Y-5763746D01*
X6810658Y-5763746D02*
X6801134Y-5716127D01*
X6801134Y-5716127D02*
X6791611Y-5687555D01*
X6791611Y-5687555D02*
X6782087Y-5668508D01*
X6782087Y-5668508D02*
X6763039Y-5639936D01*
X6763039Y-5639936D02*
X6753515Y-5630412D01*
M02*
