%TF.GenerationSoftware,KiCad,Pcbnew,8.0.6*%
%TF.CreationDate,2024-11-24T01:02:09-06:00*%
%TF.ProjectId,ATesp32,41546573-7033-4322-9e6b-696361645f70,rev?*%
%TF.SameCoordinates,PX47868c0PY608f3d0*%
%TF.FileFunction,Legend,Top*%
%TF.FilePolarity,Positive*%
%FSLAX46Y46*%
G04 Gerber Fmt 4.6, Leading zero omitted, Abs format (unit mm)*
G04 Created by KiCad (PCBNEW 8.0.6) date 2024-11-24 01:02:09*
%MOMM*%
%LPD*%
G01*
G04 APERTURE LIST*
%ADD10C,0.100000*%
%ADD11C,0.150000*%
%ADD12C,0.120000*%
G04 APERTURE END LIST*
D10*
X13053884Y42508534D02*
X13815789Y42508534D01*
X13434836Y42127581D02*
X13434836Y42889486D01*
X8303884Y42508534D02*
X9065789Y42508534D01*
D11*
X7254819Y37297619D02*
X6778628Y36964286D01*
X7254819Y36726191D02*
X6254819Y36726191D01*
X6254819Y36726191D02*
X6254819Y37107143D01*
X6254819Y37107143D02*
X6302438Y37202381D01*
X6302438Y37202381D02*
X6350057Y37250000D01*
X6350057Y37250000D02*
X6445295Y37297619D01*
X6445295Y37297619D02*
X6588152Y37297619D01*
X6588152Y37297619D02*
X6683390Y37250000D01*
X6683390Y37250000D02*
X6731009Y37202381D01*
X6731009Y37202381D02*
X6778628Y37107143D01*
X6778628Y37107143D02*
X6778628Y36726191D01*
X6731009Y37726191D02*
X6731009Y38059524D01*
X7254819Y38202381D02*
X7254819Y37726191D01*
X7254819Y37726191D02*
X6254819Y37726191D01*
X6254819Y37726191D02*
X6254819Y38202381D01*
X7207200Y38583334D02*
X7254819Y38726191D01*
X7254819Y38726191D02*
X7254819Y38964286D01*
X7254819Y38964286D02*
X7207200Y39059524D01*
X7207200Y39059524D02*
X7159580Y39107143D01*
X7159580Y39107143D02*
X7064342Y39154762D01*
X7064342Y39154762D02*
X6969104Y39154762D01*
X6969104Y39154762D02*
X6873866Y39107143D01*
X6873866Y39107143D02*
X6826247Y39059524D01*
X6826247Y39059524D02*
X6778628Y38964286D01*
X6778628Y38964286D02*
X6731009Y38773810D01*
X6731009Y38773810D02*
X6683390Y38678572D01*
X6683390Y38678572D02*
X6635771Y38630953D01*
X6635771Y38630953D02*
X6540533Y38583334D01*
X6540533Y38583334D02*
X6445295Y38583334D01*
X6445295Y38583334D02*
X6350057Y38630953D01*
X6350057Y38630953D02*
X6302438Y38678572D01*
X6302438Y38678572D02*
X6254819Y38773810D01*
X6254819Y38773810D02*
X6254819Y39011905D01*
X6254819Y39011905D02*
X6302438Y39154762D01*
X6731009Y39583334D02*
X6731009Y39916667D01*
X7254819Y40059524D02*
X7254819Y39583334D01*
X7254819Y39583334D02*
X6254819Y39583334D01*
X6254819Y39583334D02*
X6254819Y40059524D01*
X6254819Y40345239D02*
X6254819Y40916667D01*
X7254819Y40630953D02*
X6254819Y40630953D01*
X6731009Y29492858D02*
X6778628Y29635715D01*
X6778628Y29635715D02*
X6826247Y29683334D01*
X6826247Y29683334D02*
X6921485Y29730953D01*
X6921485Y29730953D02*
X7064342Y29730953D01*
X7064342Y29730953D02*
X7159580Y29683334D01*
X7159580Y29683334D02*
X7207200Y29635715D01*
X7207200Y29635715D02*
X7254819Y29540477D01*
X7254819Y29540477D02*
X7254819Y29159525D01*
X7254819Y29159525D02*
X6254819Y29159525D01*
X6254819Y29159525D02*
X6254819Y29492858D01*
X6254819Y29492858D02*
X6302438Y29588096D01*
X6302438Y29588096D02*
X6350057Y29635715D01*
X6350057Y29635715D02*
X6445295Y29683334D01*
X6445295Y29683334D02*
X6540533Y29683334D01*
X6540533Y29683334D02*
X6635771Y29635715D01*
X6635771Y29635715D02*
X6683390Y29588096D01*
X6683390Y29588096D02*
X6731009Y29492858D01*
X6731009Y29492858D02*
X6731009Y29159525D01*
X6254819Y30350001D02*
X6254819Y30540477D01*
X6254819Y30540477D02*
X6302438Y30635715D01*
X6302438Y30635715D02*
X6397676Y30730953D01*
X6397676Y30730953D02*
X6588152Y30778572D01*
X6588152Y30778572D02*
X6921485Y30778572D01*
X6921485Y30778572D02*
X7111961Y30730953D01*
X7111961Y30730953D02*
X7207200Y30635715D01*
X7207200Y30635715D02*
X7254819Y30540477D01*
X7254819Y30540477D02*
X7254819Y30350001D01*
X7254819Y30350001D02*
X7207200Y30254763D01*
X7207200Y30254763D02*
X7111961Y30159525D01*
X7111961Y30159525D02*
X6921485Y30111906D01*
X6921485Y30111906D02*
X6588152Y30111906D01*
X6588152Y30111906D02*
X6397676Y30159525D01*
X6397676Y30159525D02*
X6302438Y30254763D01*
X6302438Y30254763D02*
X6254819Y30350001D01*
X6254819Y31397620D02*
X6254819Y31588096D01*
X6254819Y31588096D02*
X6302438Y31683334D01*
X6302438Y31683334D02*
X6397676Y31778572D01*
X6397676Y31778572D02*
X6588152Y31826191D01*
X6588152Y31826191D02*
X6921485Y31826191D01*
X6921485Y31826191D02*
X7111961Y31778572D01*
X7111961Y31778572D02*
X7207200Y31683334D01*
X7207200Y31683334D02*
X7254819Y31588096D01*
X7254819Y31588096D02*
X7254819Y31397620D01*
X7254819Y31397620D02*
X7207200Y31302382D01*
X7207200Y31302382D02*
X7111961Y31207144D01*
X7111961Y31207144D02*
X6921485Y31159525D01*
X6921485Y31159525D02*
X6588152Y31159525D01*
X6588152Y31159525D02*
X6397676Y31207144D01*
X6397676Y31207144D02*
X6302438Y31302382D01*
X6302438Y31302382D02*
X6254819Y31397620D01*
X6254819Y32111906D02*
X6254819Y32683334D01*
X7254819Y32397620D02*
X6254819Y32397620D01*
D12*
%TO.C,R14*%
X10246359Y15630000D02*
X10553641Y15630000D01*
X10246359Y14870000D02*
X10553641Y14870000D01*
%TO.C,C5*%
X12669190Y23928307D02*
X12821693Y24080810D01*
X13178307Y23419190D02*
X13330810Y23571693D01*
%TO.C,R4*%
X13096359Y32130000D02*
X13403641Y32130000D01*
X13096359Y31370000D02*
X13403641Y31370000D01*
%TO.C,C9*%
X5007836Y45910000D02*
X4792164Y45910000D01*
X5007836Y45190000D02*
X4792164Y45190000D01*
%TO.C,C1*%
X5221693Y26480810D02*
X5069190Y26328307D01*
X5730810Y25971693D02*
X5578307Y25819190D01*
%TO.C,C3*%
X4521693Y27180810D02*
X4369190Y27028307D01*
X5030810Y26671693D02*
X4878307Y26519190D01*
%TO.C,Q1*%
X7690000Y37750000D02*
X7690000Y38400000D01*
X7690000Y37750000D02*
X7690000Y37100000D01*
X10810000Y37750000D02*
X10810000Y38400000D01*
X10810000Y37750000D02*
X10810000Y37100000D01*
X7740000Y36587500D02*
X7410000Y36347500D01*
X7410000Y36827500D01*
X7740000Y36587500D01*
G36*
X7740000Y36587500D02*
G01*
X7410000Y36347500D01*
X7410000Y36827500D01*
X7740000Y36587500D01*
G37*
%TO.C,SW1*%
X2850000Y40950000D02*
X2850000Y36550000D01*
X4350000Y40950000D02*
X4450000Y40950000D01*
X4350000Y36550000D02*
X4450000Y36550000D01*
X5950000Y36550000D02*
X5950000Y40950000D01*
%TO.C,U4*%
X11240000Y34362500D02*
X11240000Y35162500D01*
X11240000Y34362500D02*
X11240000Y33562500D01*
X14360000Y34362500D02*
X14360000Y35162500D01*
X14360000Y34362500D02*
X14360000Y33562500D01*
X11290000Y33062500D02*
X10960000Y32822500D01*
X10960000Y33302500D01*
X11290000Y33062500D01*
G36*
X11290000Y33062500D02*
G01*
X10960000Y32822500D01*
X10960000Y33302500D01*
X11290000Y33062500D01*
G37*
%TO.C,U3*%
X11240000Y38612500D02*
X11240000Y39412500D01*
X11240000Y38612500D02*
X11240000Y37812500D01*
X14360000Y38612500D02*
X14360000Y39412500D01*
X14360000Y38612500D02*
X14360000Y37812500D01*
X14640000Y39672500D02*
X14310000Y39912500D01*
X14640000Y40152500D01*
X14640000Y39672500D01*
G36*
X14640000Y39672500D02*
G01*
X14310000Y39912500D01*
X14640000Y40152500D01*
X14640000Y39672500D01*
G37*
%TO.C,R1*%
X4153641Y35630000D02*
X3846359Y35630000D01*
X4153641Y34870000D02*
X3846359Y34870000D01*
%TO.C,C7*%
X8421693Y27219190D02*
X8269190Y27371693D01*
X8930810Y27728307D02*
X8778307Y27880810D01*
D10*
%TO.C,D6*%
X11860000Y14250000D02*
G75*
G02*
X11760000Y14250000I-50000J0D01*
G01*
X11760000Y14250000D02*
G75*
G02*
X11860000Y14250000I50000J0D01*
G01*
D12*
%TO.C,SW2*%
X2850000Y33050000D02*
X2850000Y28650000D01*
X4350000Y33050000D02*
X4450000Y33050000D01*
X4350000Y28650000D02*
X4450000Y28650000D01*
X5950000Y28650000D02*
X5950000Y33050000D01*
%TO.C,R12*%
X13120000Y12603641D02*
X13120000Y12296359D01*
X13880000Y12603641D02*
X13880000Y12296359D01*
%TO.C,R11*%
X13120000Y10296359D02*
X13120000Y10603641D01*
X13880000Y10296359D02*
X13880000Y10603641D01*
%TO.C,D1*%
X4500000Y10860000D02*
X4500000Y8200000D01*
X6200000Y10860000D02*
X4500000Y10860000D01*
X6200000Y10860000D02*
X6200000Y8200000D01*
%TO.C,R8*%
X11903641Y16630000D02*
X11596359Y16630000D01*
X11903641Y15870000D02*
X11596359Y15870000D01*
%TO.C,U5*%
X6890000Y13197500D02*
X7365000Y13197500D01*
X6890000Y12722500D02*
X6890000Y13197500D01*
X6890000Y9452500D02*
X6890000Y9277500D01*
X7365000Y8977500D02*
X7130000Y8977500D01*
X11110000Y13197500D02*
X10635000Y13197500D01*
X11110000Y12722500D02*
X11110000Y13197500D01*
X11110000Y9452500D02*
X11110000Y8977500D01*
X11110000Y8977500D02*
X10635000Y8977500D01*
X6890000Y8977500D02*
X6560000Y8737500D01*
X6560000Y9217500D01*
X6890000Y8977500D01*
G36*
X6890000Y8977500D02*
G01*
X6560000Y8737500D01*
X6560000Y9217500D01*
X6890000Y8977500D01*
G37*
%TO.C,R2*%
X8596359Y35630000D02*
X8903641Y35630000D01*
X8596359Y34870000D02*
X8903641Y34870000D01*
%TO.C,D4*%
X11110000Y34600000D02*
X8450000Y34600000D01*
X11110000Y32900000D02*
X8450000Y32900000D01*
X11110000Y32900000D02*
X11110000Y34600000D01*
%TO.C,R5*%
X7403641Y8380000D02*
X7096359Y8380000D01*
X7403641Y7620000D02*
X7096359Y7620000D01*
%TO.C,R3*%
X14720000Y35903641D02*
X14720000Y35596359D01*
X15480000Y35903641D02*
X15480000Y35596359D01*
%TO.C,R7*%
X3420000Y8446359D02*
X3420000Y8753641D01*
X4180000Y8446359D02*
X4180000Y8753641D01*
D10*
%TO.C,D5*%
X11860000Y15250000D02*
G75*
G02*
X11760000Y15250000I-50000J0D01*
G01*
X11760000Y15250000D02*
G75*
G02*
X11860000Y15250000I50000J0D01*
G01*
D12*
%TO.C,J2*%
X6940000Y46790000D02*
X6940000Y42540000D01*
X6940000Y42540000D02*
X7960000Y42540000D01*
X7960000Y44140000D02*
X9240000Y44140000D01*
X7960000Y42540000D02*
X7960000Y44140000D01*
X12760000Y44140000D02*
X12760000Y41250000D01*
X13340000Y50360000D02*
X8660000Y50360000D01*
X14040000Y44140000D02*
X12760000Y44140000D01*
X14040000Y42540000D02*
X14040000Y44140000D01*
X15060000Y46790000D02*
X15060000Y42540000D01*
X15060000Y42540000D02*
X14040000Y42540000D01*
%TO.C,AE1*%
X3640000Y50300000D02*
X3640000Y46390000D01*
X3640000Y46390000D02*
X5960000Y46390000D01*
X5960000Y46390000D02*
X5960000Y50300000D01*
D10*
%TO.C,D2*%
X15150000Y38840000D02*
G75*
G02*
X15050000Y38840000I-50000J0D01*
G01*
X15050000Y38840000D02*
G75*
G02*
X15150000Y38840000I50000J0D01*
G01*
D12*
%TO.C,C10*%
X3892164Y34610000D02*
X4107836Y34610000D01*
X3892164Y33890000D02*
X4107836Y33890000D01*
%TO.C,R13*%
X11820000Y11703641D02*
X11820000Y11396359D01*
X12580000Y11703641D02*
X12580000Y11396359D01*
%TO.C,C17*%
X10872164Y8360000D02*
X11087836Y8360000D01*
X10872164Y7640000D02*
X11087836Y7640000D01*
%TO.C,R9*%
X8753641Y14630000D02*
X8446359Y14630000D01*
X8753641Y13870000D02*
X8446359Y13870000D01*
%TO.C,R6*%
X14720000Y39903641D02*
X14720000Y39596359D01*
X15480000Y39903641D02*
X15480000Y39596359D01*
%TO.C,U1*%
X3144689Y21250000D02*
X3604308Y21709619D01*
X3604308Y20790381D02*
X3144689Y21250000D01*
X7790381Y25895692D02*
X8080294Y26185605D01*
X7790381Y16604308D02*
X8250000Y16144689D01*
X8250000Y16144689D02*
X8709619Y16604308D01*
X8709619Y25895692D02*
X8462132Y26143179D01*
X12895692Y21709619D02*
X13355311Y21250000D01*
X13355311Y21250000D02*
X12895692Y20790381D01*
X8653051Y26418951D02*
X8250000Y26355311D01*
X8313640Y26758362D01*
X8653051Y26418951D01*
G36*
X8653051Y26418951D02*
G01*
X8250000Y26355311D01*
X8313640Y26758362D01*
X8653051Y26418951D01*
G37*
%TO.C,J1*%
X4330000Y2745000D02*
X4330000Y4445000D01*
X13670000Y2745000D02*
X13670000Y4445000D01*
%TO.C,C12*%
X14321693Y25830810D02*
X14169190Y25678307D01*
X14830810Y25321693D02*
X14678307Y25169190D01*
%TO.C,C14*%
X9087836Y40610000D02*
X8872164Y40610000D01*
X9087836Y39890000D02*
X8872164Y39890000D01*
%TO.C,C4*%
X12140000Y8607836D02*
X12140000Y8392164D01*
X12860000Y8607836D02*
X12860000Y8392164D01*
%TO.C,C11*%
X10071693Y29580810D02*
X9919190Y29428307D01*
X10580810Y29071693D02*
X10428307Y28919190D01*
%TO.C,C13*%
X11390000Y31357836D02*
X11390000Y31142164D01*
X12110000Y31357836D02*
X12110000Y31142164D01*
%TO.C,C6*%
X3921693Y18580810D02*
X3769190Y18428307D01*
X4430810Y18071693D02*
X4278307Y17919190D01*
%TO.C,C8*%
X5007836Y42810000D02*
X4792164Y42810000D01*
X5007836Y42090000D02*
X4792164Y42090000D01*
%TO.C,R15*%
X10746359Y14630000D02*
X11053641Y14630000D01*
X10746359Y13870000D02*
X11053641Y13870000D01*
%TO.C,C15*%
X13140000Y8607836D02*
X13140000Y8392164D01*
X13860000Y8607836D02*
X13860000Y8392164D01*
%TO.C,Y1*%
X12997487Y25169060D02*
X15330940Y27502513D01*
X15330940Y27502513D02*
X12502513Y30330940D01*
%TD*%
M02*
