%TF.GenerationSoftware,KiCad,Pcbnew,8.0.6*%
%TF.CreationDate,2024-11-16T14:05:28-06:00*%
%TF.ProjectId,ATesp32,41546573-7033-4322-9e6b-696361645f70,rev?*%
%TF.SameCoordinates,PX47868c0PY2faf080*%
%TF.FileFunction,Copper,L1,Top*%
%TF.FilePolarity,Positive*%
%FSLAX46Y46*%
G04 Gerber Fmt 4.6, Leading zero omitted, Abs format (unit mm)*
G04 Created by KiCad (PCBNEW 8.0.6) date 2024-11-16 14:05:28*
%MOMM*%
%LPD*%
G01*
G04 APERTURE LIST*
G04 Aperture macros list*
%AMRoundRect*
0 Rectangle with rounded corners*
0 $1 Rounding radius*
0 $2 $3 $4 $5 $6 $7 $8 $9 X,Y pos of 4 corners*
0 Add a 4 corners polygon primitive as box body*
4,1,4,$2,$3,$4,$5,$6,$7,$8,$9,$2,$3,0*
0 Add four circle primitives for the rounded corners*
1,1,$1+$1,$2,$3*
1,1,$1+$1,$4,$5*
1,1,$1+$1,$6,$7*
1,1,$1+$1,$8,$9*
0 Add four rect primitives between the rounded corners*
20,1,$1+$1,$2,$3,$4,$5,0*
20,1,$1+$1,$4,$5,$6,$7,0*
20,1,$1+$1,$6,$7,$8,$9,0*
20,1,$1+$1,$8,$9,$2,$3,0*%
%AMRotRect*
0 Rectangle, with rotation*
0 The origin of the aperture is its center*
0 $1 length*
0 $2 width*
0 $3 Rotation angle, in degrees counterclockwise*
0 Add horizontal line*
21,1,$1,$2,0,0,$3*%
G04 Aperture macros list end*
%TA.AperFunction,SMDPad,CuDef*%
%ADD10RoundRect,0.135000X-0.135000X-0.185000X0.135000X-0.185000X0.135000X0.185000X-0.135000X0.185000X0*%
%TD*%
%TA.AperFunction,SMDPad,CuDef*%
%ADD11RoundRect,0.140000X0.021213X-0.219203X0.219203X-0.021213X-0.021213X0.219203X-0.219203X0.021213X0*%
%TD*%
%TA.AperFunction,SMDPad,CuDef*%
%ADD12RoundRect,0.140000X0.140000X0.170000X-0.140000X0.170000X-0.140000X-0.170000X0.140000X-0.170000X0*%
%TD*%
%TA.AperFunction,SMDPad,CuDef*%
%ADD13RoundRect,0.140000X-0.021213X0.219203X-0.219203X0.021213X0.021213X-0.219203X0.219203X-0.021213X0*%
%TD*%
%TA.AperFunction,SMDPad,CuDef*%
%ADD14RoundRect,0.150000X0.150000X-0.587500X0.150000X0.587500X-0.150000X0.587500X-0.150000X-0.587500X0*%
%TD*%
%TA.AperFunction,SMDPad,CuDef*%
%ADD15R,1.000000X0.900000*%
%TD*%
%TA.AperFunction,SMDPad,CuDef*%
%ADD16RoundRect,0.150000X0.150000X-0.512500X0.150000X0.512500X-0.150000X0.512500X-0.150000X-0.512500X0*%
%TD*%
%TA.AperFunction,SMDPad,CuDef*%
%ADD17RoundRect,0.150000X-0.150000X0.512500X-0.150000X-0.512500X0.150000X-0.512500X0.150000X0.512500X0*%
%TD*%
%TA.AperFunction,SMDPad,CuDef*%
%ADD18RoundRect,0.135000X0.135000X0.185000X-0.135000X0.185000X-0.135000X-0.185000X0.135000X-0.185000X0*%
%TD*%
%TA.AperFunction,SMDPad,CuDef*%
%ADD19RoundRect,0.140000X0.219203X0.021213X0.021213X0.219203X-0.219203X-0.021213X-0.021213X-0.219203X0*%
%TD*%
%TA.AperFunction,SMDPad,CuDef*%
%ADD20RoundRect,0.147500X-0.147500X-0.172500X0.147500X-0.172500X0.147500X0.172500X-0.147500X0.172500X0*%
%TD*%
%TA.AperFunction,SMDPad,CuDef*%
%ADD21RoundRect,0.135000X-0.185000X0.135000X-0.185000X-0.135000X0.185000X-0.135000X0.185000X0.135000X0*%
%TD*%
%TA.AperFunction,SMDPad,CuDef*%
%ADD22RoundRect,0.135000X0.185000X-0.135000X0.185000X0.135000X-0.185000X0.135000X-0.185000X-0.135000X0*%
%TD*%
%TA.AperFunction,SMDPad,CuDef*%
%ADD23RoundRect,0.112500X-0.112500X0.187500X-0.112500X-0.187500X0.112500X-0.187500X0.112500X0.187500X0*%
%TD*%
%TA.AperFunction,SMDPad,CuDef*%
%ADD24RoundRect,0.062500X0.062500X-0.350000X0.062500X0.350000X-0.062500X0.350000X-0.062500X-0.350000X0*%
%TD*%
%TA.AperFunction,SMDPad,CuDef*%
%ADD25RoundRect,0.062500X0.350000X-0.062500X0.350000X0.062500X-0.350000X0.062500X-0.350000X-0.062500X0*%
%TD*%
%TA.AperFunction,HeatsinkPad*%
%ADD26R,2.600000X2.600000*%
%TD*%
%TA.AperFunction,SMDPad,CuDef*%
%ADD27RoundRect,0.112500X0.187500X0.112500X-0.187500X0.112500X-0.187500X-0.112500X0.187500X-0.112500X0*%
%TD*%
%TA.AperFunction,ComponentPad*%
%ADD28R,1.600000X1.600000*%
%TD*%
%TA.AperFunction,ComponentPad*%
%ADD29O,1.600000X1.600000*%
%TD*%
%TA.AperFunction,SMDPad,CuDef*%
%ADD30RoundRect,0.250000X0.250000X1.500000X-0.250000X1.500000X-0.250000X-1.500000X0.250000X-1.500000X0*%
%TD*%
%TA.AperFunction,SMDPad,CuDef*%
%ADD31RoundRect,0.250001X0.499999X1.449999X-0.499999X1.449999X-0.499999X-1.449999X0.499999X-1.449999X0*%
%TD*%
%TA.AperFunction,SMDPad,CuDef*%
%ADD32RoundRect,0.250000X0.650000X-0.350000X0.650000X0.350000X-0.650000X0.350000X-0.650000X-0.350000X0*%
%TD*%
%TA.AperFunction,SMDPad,CuDef*%
%ADD33RoundRect,0.147500X0.172500X-0.147500X0.172500X0.147500X-0.172500X0.147500X-0.172500X-0.147500X0*%
%TD*%
%TA.AperFunction,SMDPad,CuDef*%
%ADD34RoundRect,0.147500X-0.172500X0.147500X-0.172500X-0.147500X0.172500X-0.147500X0.172500X0.147500X0*%
%TD*%
%TA.AperFunction,SMDPad,CuDef*%
%ADD35RoundRect,0.140000X-0.140000X-0.170000X0.140000X-0.170000X0.140000X0.170000X-0.140000X0.170000X0*%
%TD*%
%TA.AperFunction,SMDPad,CuDef*%
%ADD36RoundRect,0.050000X-0.282843X0.212132X0.212132X-0.282843X0.282843X-0.212132X-0.212132X0.282843X0*%
%TD*%
%TA.AperFunction,SMDPad,CuDef*%
%ADD37RoundRect,0.050000X-0.282843X-0.212132X-0.212132X-0.282843X0.282843X0.212132X0.212132X0.282843X0*%
%TD*%
%TA.AperFunction,HeatsinkPad*%
%ADD38RotRect,4.000000X4.000000X315.000000*%
%TD*%
%TA.AperFunction,SMDPad,CuDef*%
%ADD39R,0.600000X1.240000*%
%TD*%
%TA.AperFunction,SMDPad,CuDef*%
%ADD40R,0.300000X1.240000*%
%TD*%
%TA.AperFunction,ComponentPad*%
%ADD41O,1.000000X2.100000*%
%TD*%
%TA.AperFunction,ComponentPad*%
%ADD42O,1.000000X1.800000*%
%TD*%
%TA.AperFunction,SMDPad,CuDef*%
%ADD43RoundRect,0.140000X-0.170000X0.140000X-0.170000X-0.140000X0.170000X-0.140000X0.170000X0.140000X0*%
%TD*%
%TA.AperFunction,SMDPad,CuDef*%
%ADD44RotRect,1.400000X1.200000X135.000000*%
%TD*%
%TA.AperFunction,ViaPad*%
%ADD45C,0.300000*%
%TD*%
%TA.AperFunction,Conductor*%
%ADD46C,0.355542*%
%TD*%
%TA.AperFunction,Conductor*%
%ADD47C,0.500000*%
%TD*%
%TA.AperFunction,Conductor*%
%ADD48C,0.150000*%
%TD*%
%TA.AperFunction,Conductor*%
%ADD49C,0.250000*%
%TD*%
%TA.AperFunction,Conductor*%
%ADD50C,0.750000*%
%TD*%
%TA.AperFunction,Conductor*%
%ADD51C,0.200000*%
%TD*%
G04 APERTURE END LIST*
D10*
%TO.P,R14,1*%
%TO.N,Net-(U5-~{TXT}{slash}GPIO.0)*%
X9890000Y-36000000D03*
%TO.P,R14,2*%
%TO.N,Net-(D5-K)*%
X10910000Y-36000000D03*
%TD*%
D11*
%TO.P,C5,1*%
%TO.N,+3V3*%
X12660589Y-27839411D03*
%TO.P,C5,2*%
%TO.N,GND*%
X13339411Y-27160589D03*
%TD*%
D10*
%TO.P,R4,1*%
%TO.N,Net-(D4-K)*%
X12740000Y-19500000D03*
%TO.P,R4,2*%
%TO.N,Net-(U4-EN)*%
X13760000Y-19500000D03*
%TD*%
D12*
%TO.P,C9,1*%
%TO.N,Net-(AE1-FEED)*%
X5380000Y-5700000D03*
%TO.P,C9,2*%
%TO.N,GND*%
X4420000Y-5700000D03*
%TD*%
D13*
%TO.P,C1,1*%
%TO.N,+3V3*%
X5739411Y-24760589D03*
%TO.P,C1,2*%
%TO.N,GND*%
X5060589Y-25439411D03*
%TD*%
%TO.P,C3,1*%
%TO.N,+3V3*%
X5039411Y-24060589D03*
%TO.P,C3,2*%
%TO.N,GND*%
X4360589Y-24739411D03*
%TD*%
D14*
%TO.P,Q1,1,G*%
%TO.N,+5V*%
X8300000Y-14437500D03*
%TO.P,Q1,2,S*%
%TO.N,Net-(D4-K)*%
X10200000Y-14437500D03*
%TO.P,Q1,3,D*%
%TO.N,+BATT*%
X9250000Y-12562500D03*
%TD*%
D15*
%TO.P,SW1,1,1*%
%TO.N,GND*%
X5200000Y-10450000D03*
X5200000Y-14550000D03*
%TO.P,SW1,2,2*%
%TO.N,Net-(U1-CHIP_PU)*%
X3600000Y-10450000D03*
X3600000Y-14550000D03*
%TD*%
D16*
%TO.P,U4,1,VIN*%
%TO.N,Net-(D4-K)*%
X11850000Y-18025000D03*
%TO.P,U4,2,GND*%
%TO.N,GND*%
X12800000Y-18025000D03*
%TO.P,U4,3,EN*%
%TO.N,Net-(U4-EN)*%
X13750000Y-18025000D03*
%TO.P,U4,4,NC*%
%TO.N,unconnected-(U4-NC-Pad4)*%
X13750000Y-15750000D03*
%TO.P,U4,5,VOUT*%
%TO.N,+3V3*%
X11850000Y-15750000D03*
%TD*%
D17*
%TO.P,U3,1,STAT*%
%TO.N,Net-(U3-STAT)*%
X13750000Y-11500000D03*
%TO.P,U3,2,V_{SS}*%
%TO.N,GND*%
X12800000Y-11500000D03*
%TO.P,U3,3,V_{BAT}*%
%TO.N,+BATT*%
X11850000Y-11500000D03*
%TO.P,U3,4,V_{DD}*%
%TO.N,+5V*%
X11850000Y-13775000D03*
%TO.P,U3,5,PROG*%
%TO.N,Net-(U3-PROG)*%
X13750000Y-13775000D03*
%TD*%
D18*
%TO.P,R1,1*%
%TO.N,+3V3*%
X4509999Y-16000000D03*
%TO.P,R1,2*%
%TO.N,Net-(U1-CHIP_PU)*%
X3490001Y-16000000D03*
%TD*%
D19*
%TO.P,C7,1*%
%TO.N,+3V3*%
X8939411Y-24039411D03*
%TO.P,C7,2*%
%TO.N,GND*%
X8260589Y-23360589D03*
%TD*%
D20*
%TO.P,D6,1,K*%
%TO.N,Net-(D6-K)*%
X12415000Y-37000000D03*
%TO.P,D6,2,A*%
%TO.N,GND*%
X13385000Y-37000000D03*
%TD*%
D15*
%TO.P,SW2,1,1*%
%TO.N,GND*%
X5200000Y-18350000D03*
X5200000Y-22450000D03*
%TO.P,SW2,2,2*%
%TO.N,Net-(JP4-B)*%
X3600000Y-18350000D03*
X3600000Y-22450000D03*
%TD*%
D21*
%TO.P,R12,1*%
%TO.N,GND*%
X13500000Y-38290000D03*
%TO.P,R12,2*%
%TO.N,Net-(U5-VBUS)*%
X13500000Y-39310000D03*
%TD*%
D22*
%TO.P,R11,1*%
%TO.N,+5V*%
X13500000Y-41310000D03*
%TO.P,R11,2*%
%TO.N,Net-(U5-VBUS)*%
X13500000Y-40290000D03*
%TD*%
D23*
%TO.P,D1,1,K*%
%TO.N,+5V*%
X5350000Y-40950000D03*
%TO.P,D1,2,A*%
%TO.N,Net-(D1-A)*%
X5350000Y-43050000D03*
%TD*%
D18*
%TO.P,R8,1*%
%TO.N,Net-(JP6-B)*%
X12259999Y-35000000D03*
%TO.P,R8,2*%
%TO.N,GND*%
X11240001Y-35000000D03*
%TD*%
D24*
%TO.P,U5,1,~{RI}/CLK*%
%TO.N,unconnected-(U5-~{RI}{slash}CLK-Pad1)*%
X7750000Y-42100000D03*
%TO.P,U5,2,GND*%
%TO.N,GND*%
X8250000Y-42100000D03*
%TO.P,U5,3,D+*%
%TO.N,D+*%
X8750000Y-42100000D03*
%TO.P,U5,4,D-*%
%TO.N,D-*%
X9250000Y-42100000D03*
%TO.P,U5,5,VIO*%
%TO.N,Net-(U5-VDD)*%
X9750000Y-42100000D03*
%TO.P,U5,6,VDD*%
X10250000Y-42100000D03*
D25*
%TO.P,U5,7,VREGIN*%
%TO.N,+5V*%
X10937500Y-41412500D03*
%TO.P,U5,8,VBUS*%
%TO.N,Net-(U5-VBUS)*%
X10937500Y-40912500D03*
%TO.P,U5,9,~{RST}*%
%TO.N,Net-(U5-~{RST})*%
X10937500Y-40412500D03*
%TO.P,U5,10,NC*%
%TO.N,unconnected-(U5-NC-Pad10)*%
X10937500Y-39912500D03*
%TO.P,U5,11,~{WAKEUP}/GPIO.3*%
%TO.N,unconnected-(U5-~{WAKEUP}{slash}GPIO.3-Pad11)*%
X10937500Y-39412500D03*
%TO.P,U5,12,RS485/GPIO.2*%
%TO.N,unconnected-(U5-RS485{slash}GPIO.2-Pad12)*%
X10937500Y-38912500D03*
D24*
%TO.P,U5,13,~{RXT}/GPIO.1*%
%TO.N,Net-(U5-~{RXT}{slash}GPIO.1)*%
X10250000Y-38225000D03*
%TO.P,U5,14,~{TXT}/GPIO.0*%
%TO.N,Net-(U5-~{TXT}{slash}GPIO.0)*%
X9750000Y-38225000D03*
%TO.P,U5,15,~{SUSPEND}*%
%TO.N,unconnected-(U5-~{SUSPEND}-Pad15)*%
X9250000Y-38225000D03*
%TO.P,U5,16,NC*%
%TO.N,unconnected-(U5-NC-Pad16)*%
X8750000Y-38225000D03*
%TO.P,U5,17,SUSPEND*%
%TO.N,unconnected-(U5-SUSPEND-Pad17)*%
X8250000Y-38225000D03*
%TO.P,U5,18,~{CTS}*%
%TO.N,unconnected-(U5-~{CTS}-Pad18)*%
X7750000Y-38225000D03*
D25*
%TO.P,U5,19,~{RTS}*%
%TO.N,unconnected-(U5-~{RTS}-Pad19)*%
X7062500Y-38912500D03*
%TO.P,U5,20,RXD*%
%TO.N,Net-(JP8-A)*%
X7062500Y-39412500D03*
%TO.P,U5,21,TXD*%
%TO.N,Net-(JP7-A)*%
X7062500Y-39912500D03*
%TO.P,U5,22,~{DSR}*%
%TO.N,unconnected-(U5-~{DSR}-Pad22)*%
X7062500Y-40412500D03*
%TO.P,U5,23,~{DTR}*%
%TO.N,unconnected-(U5-~{DTR}-Pad23)*%
X7062500Y-40912500D03*
%TO.P,U5,24,~{DCD}*%
%TO.N,unconnected-(U5-~{DCD}-Pad24)*%
X7062500Y-41412500D03*
D26*
%TO.P,U5,25,GND*%
%TO.N,GND*%
X9000000Y-40162500D03*
%TD*%
D10*
%TO.P,R2,1*%
%TO.N,GND*%
X8240000Y-16000000D03*
%TO.P,R2,2*%
%TO.N,+5V*%
X9260000Y-16000000D03*
%TD*%
D27*
%TO.P,D4,1,K*%
%TO.N,Net-(D4-K)*%
X10550000Y-17500000D03*
%TO.P,D4,2,A*%
%TO.N,+5V*%
X8450000Y-17500000D03*
%TD*%
D18*
%TO.P,R5,1*%
%TO.N,Net-(J1-CC1)*%
X7760000Y-43250000D03*
%TO.P,R5,2*%
%TO.N,GND*%
X6740000Y-43250000D03*
%TD*%
D21*
%TO.P,R3,1*%
%TO.N,Net-(U3-PROG)*%
X15100000Y-14990000D03*
%TO.P,R3,2*%
%TO.N,GND*%
X15100000Y-16010000D03*
%TD*%
D22*
%TO.P,R7,1*%
%TO.N,Net-(J1-CC2)*%
X3800000Y-43160000D03*
%TO.P,R7,2*%
%TO.N,GND*%
X3800000Y-42140000D03*
%TD*%
D20*
%TO.P,D5,1,K*%
%TO.N,Net-(D5-K)*%
X12415000Y-36000000D03*
%TO.P,D5,2,A*%
%TO.N,GND*%
X13385000Y-36000000D03*
%TD*%
D28*
%TO.P,U2,1,PB0*%
%TO.N,PB0*%
X1380000Y-1370000D03*
D29*
%TO.P,U2,2,PB1*%
%TO.N,PB1*%
X1380000Y-3910000D03*
%TO.P,U2,3,PB2*%
%TO.N,PB2*%
X1380000Y-6450000D03*
%TO.P,U2,4,PB3*%
%TO.N,PB3*%
X1380000Y-8990000D03*
%TO.P,U2,5,PB4*%
%TO.N,PB4*%
X1380000Y-11530000D03*
%TO.P,U2,6,PB5*%
%TO.N,PB5*%
X1380000Y-14070000D03*
%TO.P,U2,7,PB6*%
%TO.N,PB6*%
X1380000Y-16610000D03*
%TO.P,U2,8,PB7*%
%TO.N,PB7*%
X1380000Y-19150000D03*
%TO.P,U2,9,~{RESET}*%
%TO.N,unconnected-(U2-~{RESET}-Pad9)*%
X1380000Y-21690000D03*
%TO.P,U2,10,VCC*%
%TO.N,+5V*%
X1380000Y-24230000D03*
%TO.P,U2,11,GND*%
%TO.N,GND*%
X1380000Y-26770000D03*
%TO.P,U2,12,XTAL2*%
%TO.N,unconnected-(U2-XTAL2-Pad12)*%
X1380000Y-29310000D03*
%TO.P,U2,13,XTAL1*%
%TO.N,unconnected-(U2-XTAL1-Pad13)*%
X1380000Y-31850000D03*
%TO.P,U2,14,PD0*%
%TO.N,PD0*%
X1380000Y-34390000D03*
%TO.P,U2,15,PD1*%
%TO.N,PD1*%
X1380000Y-36930000D03*
%TO.P,U2,16,PD2*%
%TO.N,D_P*%
X1380000Y-39470000D03*
%TO.P,U2,17,PD3*%
%TO.N,D_N*%
X1380000Y-42010000D03*
%TO.P,U2,18,PD4*%
%TO.N,PD4*%
X1380000Y-44550000D03*
%TO.P,U2,19,PD5*%
%TO.N,PD5*%
X1380000Y-47090000D03*
%TO.P,U2,20,PD6*%
%TO.N,PD6*%
X1380000Y-49630000D03*
%TO.P,U2,21,PD7*%
%TO.N,PD7*%
X16620000Y-49630000D03*
%TO.P,U2,22,PC0*%
%TO.N,PC0*%
X16620000Y-47090000D03*
%TO.P,U2,23,PC1*%
%TO.N,PC1*%
X16620000Y-44550000D03*
%TO.P,U2,24,PC2*%
%TO.N,PC2*%
X16620000Y-42010000D03*
%TO.P,U2,25,PC3*%
%TO.N,PC3*%
X16620000Y-39470000D03*
%TO.P,U2,26,PC4*%
%TO.N,PC4*%
X16620000Y-36930000D03*
%TO.P,U2,27,PC5*%
%TO.N,PC5*%
X16620000Y-34390000D03*
%TO.P,U2,28,PC6*%
%TO.N,PC6*%
X16620000Y-31850000D03*
%TO.P,U2,29,PC7*%
%TO.N,PC7*%
X16620000Y-29310000D03*
%TO.P,U2,30,AVCC*%
%TO.N,+5V*%
X16620000Y-26770000D03*
%TO.P,U2,31,GND*%
%TO.N,GND*%
X16620000Y-24230000D03*
%TO.P,U2,32,AREF*%
%TO.N,unconnected-(U2-AREF-Pad32)*%
X16620000Y-21690000D03*
%TO.P,U2,33,PA7*%
%TO.N,PA7*%
X16620000Y-19150000D03*
%TO.P,U2,34,PA6*%
%TO.N,PA6*%
X16620000Y-16610000D03*
%TO.P,U2,35,PA5*%
%TO.N,PA5*%
X16620000Y-14070000D03*
%TO.P,U2,36,PA4*%
%TO.N,PA4*%
X16620000Y-11530000D03*
%TO.P,U2,37,PA3*%
%TO.N,PA3*%
X16620000Y-8990000D03*
%TO.P,U2,38,PA2*%
%TO.N,PA2*%
X16620000Y-6450000D03*
%TO.P,U2,39,PA1*%
%TO.N,PA1*%
X16620000Y-3910000D03*
%TO.P,U2,40,PA0*%
%TO.N,PA0*%
X16620000Y-1370000D03*
%TD*%
D30*
%TO.P,J2,1,Pin_1*%
%TO.N,+BATT*%
X12000000Y-8250000D03*
%TO.P,J2,2,Pin_2*%
%TO.N,GND*%
X10000000Y-8250000D03*
D31*
%TO.P,J2,MP*%
%TO.N,N/C*%
X14350000Y-2500000D03*
X7650000Y-2500000D03*
%TD*%
D32*
%TO.P,AE1,1,FEED*%
%TO.N,Net-(AE1-FEED)*%
X4800000Y-4000000D03*
%TO.P,AE1,2,PCB_Trace*%
%TO.N,unconnected-(AE1-PCB_Trace-Pad2)*%
X4800000Y-1100000D03*
%TD*%
D33*
%TO.P,L2,1*%
%TO.N,Net-(U1-LNA_IN)*%
X5350000Y-7735000D03*
%TO.P,L2,2*%
%TO.N,Net-(AE1-FEED)*%
X5350000Y-6765000D03*
%TD*%
D34*
%TO.P,D2,1,K*%
%TO.N,Net-(D2-K)*%
X15100000Y-13015000D03*
%TO.P,D2,2,A*%
%TO.N,+5V*%
X15100000Y-13985000D03*
%TD*%
D35*
%TO.P,C10,1*%
%TO.N,Net-(U1-CHIP_PU)*%
X3520000Y-17000000D03*
%TO.P,C10,2*%
%TO.N,GND*%
X4480000Y-17000000D03*
%TD*%
D21*
%TO.P,R13,1*%
%TO.N,Net-(U5-VDD)*%
X12200000Y-39190000D03*
%TO.P,R13,2*%
%TO.N,Net-(U5-~{RST})*%
X12200000Y-40210000D03*
%TD*%
D35*
%TO.P,C17,1*%
%TO.N,Net-(U5-VDD)*%
X10500000Y-43250000D03*
%TO.P,C17,2*%
%TO.N,GND*%
X11460000Y-43250000D03*
%TD*%
D18*
%TO.P,R9,1*%
%TO.N,Net-(U1-U0TXD)*%
X9110000Y-37000000D03*
%TO.P,R9,2*%
%TO.N,UART_TX*%
X8090000Y-37000000D03*
%TD*%
D21*
%TO.P,R6,1*%
%TO.N,Net-(U3-STAT)*%
X15100000Y-10990000D03*
%TO.P,R6,2*%
%TO.N,Net-(D2-K)*%
X15100000Y-12010000D03*
%TD*%
D36*
%TO.P,U1,1,LNA_IN*%
%TO.N,Net-(U1-LNA_IN)*%
X7648959Y-25722004D03*
%TO.P,U1,2,VDD3P3*%
%TO.N,+3V3*%
X7366117Y-26004847D03*
%TO.P,U1,3,VDD3P3*%
X7083274Y-26287689D03*
%TO.P,U1,4,CHIP_PU*%
%TO.N,Net-(U1-CHIP_PU)*%
X6800431Y-26570532D03*
%TO.P,U1,5,GPIO0*%
%TO.N,Net-(JP4-B)*%
X6517588Y-26853375D03*
%TO.P,U1,6,GPIO1*%
%TO.N,PB0*%
X6234746Y-27136218D03*
%TO.P,U1,7,GPIO2*%
%TO.N,PB1*%
X5951903Y-27419060D03*
%TO.P,U1,8,GPIO3*%
%TO.N,PB2*%
X5669060Y-27701903D03*
%TO.P,U1,9,GPIO4*%
%TO.N,PB3*%
X5386218Y-27984746D03*
%TO.P,U1,10,GPIO5*%
%TO.N,PB4*%
X5103375Y-28267588D03*
%TO.P,U1,11,GPIO6*%
%TO.N,PB5*%
X4820532Y-28550431D03*
%TO.P,U1,12,GPIO7*%
%TO.N,PA0*%
X4537689Y-28833274D03*
%TO.P,U1,13,GPIO8*%
%TO.N,PA1*%
X4254847Y-29116117D03*
%TO.P,U1,14,GPIO9*%
%TO.N,PA2*%
X3972004Y-29398959D03*
D37*
%TO.P,U1,15,GPIO10*%
%TO.N,PA3*%
X3972004Y-30601041D03*
%TO.P,U1,16,GPIO11*%
%TO.N,PA4*%
X4254847Y-30883883D03*
%TO.P,U1,17,GPIO12*%
%TO.N,PA5*%
X4537689Y-31166726D03*
%TO.P,U1,18,GPIO13*%
%TO.N,PA6*%
X4820532Y-31449569D03*
%TO.P,U1,19,GPIO14*%
%TO.N,PA7*%
X5103375Y-31732412D03*
%TO.P,U1,20,VDD3P3_RTC*%
%TO.N,+3V3*%
X5386218Y-32015254D03*
%TO.P,U1,21,XTAL_32K_P*%
%TO.N,PB6*%
X5669060Y-32298097D03*
%TO.P,U1,22,XTAL_32K_N*%
%TO.N,PB7*%
X5951903Y-32580940D03*
%TO.P,U1,23,GPIO17*%
%TO.N,PD0*%
X6234746Y-32863782D03*
%TO.P,U1,24,GPIO18*%
%TO.N,PD1*%
X6517588Y-33146625D03*
%TO.P,U1,25,GPIO19/USB_D-*%
%TO.N,D_N*%
X6800431Y-33429468D03*
%TO.P,U1,26,GPIO20/USB_D+*%
%TO.N,D_P*%
X7083274Y-33712311D03*
%TO.P,U1,27,GPIO21*%
%TO.N,PD5*%
X7366117Y-33995153D03*
%TO.P,U1,28,SPICS1*%
%TO.N,unconnected-(U1-SPICS1-Pad28)*%
X7648959Y-34277996D03*
D36*
%TO.P,U1,29,VDD_SPI*%
%TO.N,unconnected-(U1-VDD_SPI-Pad29)*%
X8851041Y-34277996D03*
%TO.P,U1,30,SPIHD*%
%TO.N,unconnected-(U1-SPIHD-Pad30)*%
X9133883Y-33995153D03*
%TO.P,U1,31,SPIWP*%
%TO.N,unconnected-(U1-SPIWP-Pad31)*%
X9416726Y-33712311D03*
%TO.P,U1,32,SPICS0*%
%TO.N,unconnected-(U1-SPICS0-Pad32)*%
X9699569Y-33429468D03*
%TO.P,U1,33,SPICLK*%
%TO.N,unconnected-(U1-SPICLK-Pad33)*%
X9982412Y-33146625D03*
%TO.P,U1,34,SPIQ*%
%TO.N,unconnected-(U1-SPIQ-Pad34)*%
X10265254Y-32863782D03*
%TO.P,U1,35,SPID*%
%TO.N,unconnected-(U1-SPID-Pad35)*%
X10548097Y-32580940D03*
%TO.P,U1,36,SPICLK_N*%
%TO.N,PC0*%
X10830940Y-32298097D03*
%TO.P,U1,37,SPICLK_P*%
%TO.N,PC1*%
X11113782Y-32015254D03*
%TO.P,U1,38,GPIO33*%
%TO.N,PC2*%
X11396625Y-31732412D03*
%TO.P,U1,39,GPIO34*%
%TO.N,PC3*%
X11679468Y-31449569D03*
%TO.P,U1,40,GPIO35*%
%TO.N,PC4*%
X11962311Y-31166726D03*
%TO.P,U1,41,GPIO36*%
%TO.N,PC5*%
X12245153Y-30883883D03*
%TO.P,U1,42,GPIO37*%
%TO.N,PC6*%
X12527996Y-30601041D03*
D37*
%TO.P,U1,43,GPIO38*%
%TO.N,PC7*%
X12527996Y-29398959D03*
%TO.P,U1,44,MTCK*%
%TO.N,unconnected-(U1-MTCK-Pad44)*%
X12245153Y-29116117D03*
%TO.P,U1,45,MTDO*%
%TO.N,unconnected-(U1-MTDO-Pad45)*%
X11962311Y-28833274D03*
%TO.P,U1,46,VDD3P3_CPU*%
%TO.N,+3V3*%
X11679468Y-28550431D03*
%TO.P,U1,47,MTDI*%
%TO.N,unconnected-(U1-MTDI-Pad47)*%
X11396625Y-28267588D03*
%TO.P,U1,48,MTMS*%
%TO.N,unconnected-(U1-MTMS-Pad48)*%
X11113782Y-27984746D03*
%TO.P,U1,49,U0TXD*%
%TO.N,Net-(U1-U0TXD)*%
X10830940Y-27701903D03*
%TO.P,U1,50,U0RXD*%
%TO.N,UART_RX*%
X10548097Y-27419060D03*
%TO.P,U1,51,GPIO45*%
%TO.N,PD6*%
X10265254Y-27136218D03*
%TO.P,U1,52,GPIO46*%
%TO.N,PD7*%
X9982412Y-26853375D03*
%TO.P,U1,53,XTAL_N*%
%TO.N,XTAL_N*%
X9699569Y-26570532D03*
%TO.P,U1,54,XTAL_P*%
%TO.N,XTAL_P*%
X9416726Y-26287689D03*
%TO.P,U1,55,VDDA*%
%TO.N,+3V3*%
X9133883Y-26004847D03*
%TO.P,U1,56,VDDA*%
X8851041Y-25722004D03*
D38*
%TO.P,U1,57,GND*%
%TO.N,GND*%
X8250000Y-30000000D03*
%TD*%
D39*
%TO.P,J1,A1,GND*%
%TO.N,GND*%
X5800000Y-44880000D03*
%TO.P,J1,A4,VBUS*%
%TO.N,Net-(D1-A)*%
X6600000Y-44880000D03*
D40*
%TO.P,J1,A5,CC1*%
%TO.N,Net-(J1-CC1)*%
X7750000Y-44880000D03*
%TO.P,J1,A6,D+*%
%TO.N,D+*%
X8750000Y-44880000D03*
%TO.P,J1,A7,D-*%
%TO.N,D-*%
X9250000Y-44880000D03*
%TO.P,J1,A8,SBU1*%
%TO.N,unconnected-(J1-SBU1-PadA8)*%
X10250000Y-44880000D03*
D39*
%TO.P,J1,A9,VBUS*%
%TO.N,Net-(D1-A)*%
X11400000Y-44880000D03*
%TO.P,J1,A12,GND*%
%TO.N,GND*%
X12200000Y-44880000D03*
%TO.P,J1,B1,GND*%
X12200000Y-44880000D03*
%TO.P,J1,B4,VBUS*%
%TO.N,Net-(D1-A)*%
X11400000Y-44880000D03*
D40*
%TO.P,J1,B5,CC2*%
%TO.N,Net-(J1-CC2)*%
X10750000Y-44880000D03*
%TO.P,J1,B6,D+*%
%TO.N,D+*%
X9750000Y-44880000D03*
%TO.P,J1,B7,D-*%
%TO.N,D-*%
X8250000Y-44880000D03*
%TO.P,J1,B8,SBU2*%
%TO.N,unconnected-(J1-SBU2-PadB8)*%
X7250000Y-44880000D03*
D39*
%TO.P,J1,B9,VBUS*%
%TO.N,Net-(D1-A)*%
X6600000Y-44880000D03*
%TO.P,J1,B12,GND*%
%TO.N,GND*%
X5800000Y-44880000D03*
D41*
%TO.P,J1,S1,SHIELD*%
X4680000Y-45480000D03*
D42*
X4680000Y-49680000D03*
D41*
X13320000Y-45480000D03*
D42*
X13320000Y-49680000D03*
%TD*%
D13*
%TO.P,C12,1*%
%TO.N,XTAL_N*%
X14839411Y-25410589D03*
%TO.P,C12,2*%
%TO.N,GND*%
X14160589Y-26089411D03*
%TD*%
D12*
%TO.P,C14,1*%
%TO.N,+BATT*%
X9460000Y-11000000D03*
%TO.P,C14,2*%
%TO.N,GND*%
X8500000Y-11000000D03*
%TD*%
D43*
%TO.P,C4,1*%
%TO.N,+5V*%
X12500000Y-42270000D03*
%TO.P,C4,2*%
%TO.N,GND*%
X12500000Y-43230000D03*
%TD*%
D13*
%TO.P,C11,1*%
%TO.N,GND*%
X10589411Y-21660589D03*
%TO.P,C11,2*%
%TO.N,XTAL_P*%
X9910589Y-22339411D03*
%TD*%
D43*
%TO.P,C13,1*%
%TO.N,Net-(D4-K)*%
X11750000Y-19520000D03*
%TO.P,C13,2*%
%TO.N,GND*%
X11750000Y-20480000D03*
%TD*%
D13*
%TO.P,C6,1*%
%TO.N,+3V3*%
X4439411Y-32660589D03*
%TO.P,C6,2*%
%TO.N,GND*%
X3760589Y-33339411D03*
%TD*%
D12*
%TO.P,C8,1*%
%TO.N,Net-(U1-LNA_IN)*%
X5380000Y-8800000D03*
%TO.P,C8,2*%
%TO.N,GND*%
X4420000Y-8800000D03*
%TD*%
D10*
%TO.P,R15,1*%
%TO.N,Net-(U5-~{RXT}{slash}GPIO.1)*%
X10390000Y-37000000D03*
%TO.P,R15,2*%
%TO.N,Net-(D6-K)*%
X11410000Y-37000000D03*
%TD*%
D43*
%TO.P,C15,1*%
%TO.N,+5V*%
X13500000Y-42270000D03*
%TO.P,C15,2*%
%TO.N,GND*%
X13500000Y-43230000D03*
%TD*%
D44*
%TO.P,Y1,1,1*%
%TO.N,XTAL_N*%
X14128858Y-23676777D03*
%TO.P,Y1,2,2*%
%TO.N,GND*%
X12573223Y-22121142D03*
%TO.P,Y1,3,3*%
%TO.N,XTAL_P*%
X11371142Y-23323223D03*
%TO.P,Y1,4,4*%
%TO.N,GND*%
X12926777Y-24878858D03*
%TD*%
D45*
%TO.N,GND*%
X5000000Y-17000000D03*
X4250000Y-9500000D03*
X6250000Y-6000000D03*
X4500000Y-7500000D03*
X9000000Y-7000000D03*
X9000000Y-6000000D03*
X4000000Y-6500000D03*
X4500000Y-8000000D03*
X4000000Y-7500000D03*
X6000000Y-12500000D03*
X12800000Y-17200000D03*
X6000000Y-11000000D03*
X6250000Y-6500000D03*
X9750000Y-32000000D03*
X13500000Y-10250000D03*
X12800000Y-10500000D03*
X7500000Y-19750000D03*
X13250000Y-21000000D03*
X4000000Y-8000000D03*
X14500000Y-9750000D03*
X6000000Y-17500000D03*
X7500000Y-15750000D03*
X6000000Y-19250000D03*
X9250000Y-32500000D03*
X7500000Y-20250000D03*
X6000000Y-11500000D03*
X3400000Y-33700000D03*
X9000000Y-8500000D03*
X12500000Y-37850000D03*
X9000000Y-8000000D03*
X11250000Y-34250000D03*
X7000000Y-9300000D03*
X3750000Y-8500000D03*
X6000000Y-17000000D03*
X6000000Y-13000000D03*
X12750000Y-20500000D03*
X7500000Y-17750000D03*
X7500000Y-22750000D03*
X9500000Y-6000000D03*
X4500000Y-7000000D03*
X8750000Y-33000000D03*
X7500000Y-11250000D03*
X6600000Y-8900000D03*
X6250000Y-7000000D03*
X7500000Y-15250000D03*
X7500000Y-21750000D03*
X6000000Y-20750000D03*
X6000000Y-16500000D03*
X14500000Y-10250000D03*
X4750000Y-9500000D03*
X7500000Y-11750000D03*
X15100000Y-16500000D03*
X7500000Y-17250000D03*
X9000000Y-9500000D03*
X6000000Y-16000000D03*
X7500000Y-14250000D03*
X5105000Y-42068177D03*
X13500000Y-26250000D03*
X10250000Y-31500000D03*
X7500000Y-13750000D03*
X3750000Y-5500000D03*
X6000000Y-13500000D03*
X6250000Y-5500000D03*
X9000000Y-6500000D03*
X13500000Y-44000000D03*
X10750000Y-31000000D03*
X9000000Y-9000000D03*
X6250000Y-8500000D03*
X11750000Y-21250000D03*
X6000000Y-12000000D03*
X13000000Y-44000000D03*
X13500000Y-9750000D03*
X6740000Y-42510000D03*
X8798959Y-22798958D03*
X12750000Y-26500000D03*
X6000000Y-20250000D03*
X11250000Y-30500000D03*
X7500000Y-22250000D03*
X14000000Y-9750000D03*
X7500000Y-9750000D03*
X4500000Y-6500000D03*
X5250000Y-9500000D03*
X7500000Y-12750000D03*
X6250000Y-8000000D03*
X12000000Y-37850000D03*
X3750000Y-6000000D03*
X14000000Y-26750000D03*
X7500000Y-16250000D03*
X11250000Y-21250000D03*
X3750000Y-9000000D03*
X14000000Y-10250000D03*
X8259699Y-42741807D03*
X7500000Y-10250000D03*
X7500000Y-18750000D03*
X6000000Y-15500000D03*
X6000000Y-10500000D03*
X7500000Y-23250000D03*
X7500000Y-21250000D03*
X7500000Y-23750000D03*
X7500000Y-16750000D03*
X4000000Y-7000000D03*
X6000000Y-19750000D03*
X7500000Y-19250000D03*
X7500000Y-13250000D03*
X7500000Y-14750000D03*
X10000000Y-6000000D03*
X6250000Y-7500000D03*
X7500000Y-18250000D03*
X4000000Y-24400000D03*
X7500000Y-12250000D03*
X7500000Y-10750000D03*
X12250000Y-26000000D03*
X7500000Y-20750000D03*
X9000000Y-7500000D03*
%TO.N,+3V3*%
X4000000Y-23650000D03*
X12750000Y-15250000D03*
X12750000Y-15750000D03*
X5000000Y-16000000D03*
X7900000Y-24900000D03*
X8300000Y-24500000D03*
X12750000Y-16250000D03*
X4000000Y-32200000D03*
X12275521Y-27474479D03*
%TO.N,+5V*%
X9000000Y-17000000D03*
X12750000Y-13500000D03*
X11500000Y-42250000D03*
X9000000Y-15000000D03*
X11500000Y-41750000D03*
X6000000Y-41750000D03*
X6000000Y-40750000D03*
X12750000Y-41500000D03*
X12000000Y-41500000D03*
X4550000Y-40700000D03*
X9000000Y-14500000D03*
X9000000Y-17500000D03*
X5350000Y-41450000D03*
X6000000Y-41250000D03*
X9000000Y-14000000D03*
X12750000Y-14250000D03*
X14600000Y-14000000D03*
X8500000Y-17000000D03*
%TO.N,Net-(U1-CHIP_PU)*%
X4875000Y-11675000D03*
X6002164Y-25595753D03*
%TO.N,Net-(U5-VDD)*%
X12500000Y-38500000D03*
X10800000Y-42500000D03*
X11900000Y-38500000D03*
X10800000Y-42000000D03*
%TO.N,Net-(J1-CC2)*%
X10618644Y-45773305D03*
X3225000Y-44600521D03*
%TO.N,D+*%
X8750000Y-45650000D03*
X9750000Y-45650000D03*
%TO.N,Net-(JP4-B)*%
X6916960Y-32509491D03*
X4875000Y-21187500D03*
X5576046Y-25857334D03*
%TO.N,Net-(JP6-B)*%
X12800000Y-35000000D03*
%TO.N,PD7*%
X11036315Y-26836315D03*
%TO.N,UART_RX*%
X10197783Y-28624232D03*
%TO.N,Net-(JP7-A)*%
X6000000Y-39900000D03*
%TO.N,UART_TX*%
X7500000Y-37000000D03*
%TO.N,Net-(JP8-A)*%
X6500000Y-39400000D03*
%TO.N,Net-(U1-U0TXD)*%
X10750000Y-28650000D03*
X9100000Y-36300000D03*
%TO.N,PA2*%
X3568844Y-29031156D03*
%TO.N,PB2*%
X4375000Y-26100000D03*
%TO.N,PA5*%
X5379667Y-30478626D03*
%TO.N,PA1*%
X3600156Y-28532137D03*
%TO.N,PD6*%
X9729961Y-28142669D03*
%TO.N,PA4*%
X5026112Y-30125070D03*
%TO.N,PB1*%
X4800000Y-26370030D03*
%TO.N,PA6*%
X5745769Y-30819172D03*
%TO.N,PB6*%
X6100000Y-31800000D03*
%TO.N,PA7*%
X6086315Y-31185274D03*
%TO.N,PB0*%
X5314464Y-26283453D03*
%TO.N,D_N*%
X6275000Y-35568167D03*
%TO.N,D_P*%
X5825000Y-35100000D03*
%TO.N,PA0*%
X3684530Y-28015470D03*
%TO.N,PB3*%
X3950000Y-26513173D03*
%TO.N,PA3*%
X4672557Y-29771515D03*
%TO.N,PB7*%
X6456528Y-32180093D03*
%TD*%
D46*
%TO.N,Net-(AE1-FEED)*%
X5380000Y-5700000D02*
X5380000Y-6735000D01*
X5380000Y-4580000D02*
X4800000Y-4000000D01*
X5380000Y-5700000D02*
X5380000Y-4580000D01*
D47*
%TO.N,GND*%
X15100000Y-16010000D02*
X15100000Y-16500000D01*
X4480000Y-17000000D02*
X5000000Y-17000000D01*
X3400000Y-33700000D02*
X3760589Y-33339411D01*
X4021178Y-24400000D02*
X4360589Y-24739411D01*
X6740000Y-42510000D02*
X6740000Y-43250000D01*
D48*
X11250000Y-34250000D02*
X11240001Y-34259999D01*
X11240001Y-34259999D02*
X11240001Y-35000000D01*
X3800000Y-42140000D02*
X5033177Y-42140000D01*
D49*
X8250000Y-42100000D02*
X8250000Y-40912500D01*
D47*
X5800000Y-44880000D02*
X5280000Y-44880000D01*
D49*
X8250000Y-42100000D02*
X8250000Y-42732108D01*
D47*
X12800000Y-18025000D02*
X12800000Y-17200000D01*
X5060589Y-25439411D02*
X4360589Y-24739411D01*
X5280000Y-44880000D02*
X4680000Y-45480000D01*
X12800000Y-11500000D02*
X12800000Y-10500000D01*
X4000000Y-24400000D02*
X4021178Y-24400000D01*
D48*
X5033177Y-42140000D02*
X5105000Y-42068177D01*
D49*
X8250000Y-42732108D02*
X8259699Y-42741807D01*
D47*
%TO.N,+3V3*%
X12275521Y-27474479D02*
X12295657Y-27474479D01*
X4509999Y-16000000D02*
X5000000Y-16000000D01*
D48*
X5386218Y-32015254D02*
X4740883Y-32660589D01*
X4740883Y-32660589D02*
X4439411Y-32660589D01*
D47*
X4000000Y-32200000D02*
X4439411Y-32639411D01*
X5039411Y-24060589D02*
X4628822Y-23650000D01*
X12295657Y-27474479D02*
X12660589Y-27839411D01*
D48*
X11679468Y-28550431D02*
X12390488Y-27839411D01*
D47*
X4628822Y-23650000D02*
X4000000Y-23650000D01*
%TO.N,+5V*%
X15100000Y-13985000D02*
X14615000Y-13985000D01*
X14615000Y-13985000D02*
X14600000Y-14000000D01*
D46*
%TO.N,Net-(U1-LNA_IN)*%
X6700000Y-24663060D02*
X7703952Y-25667012D01*
X5380000Y-8800000D02*
X5380000Y-7765000D01*
X6700000Y-10120000D02*
X6700000Y-24663060D01*
X5380000Y-8800000D02*
X6700000Y-10120000D01*
D48*
%TO.N,Net-(U1-CHIP_PU)*%
X4825000Y-11675000D02*
X3600000Y-10450000D01*
X4875000Y-11675000D02*
X4825000Y-11675000D01*
X6002164Y-25772265D02*
X6800431Y-26570532D01*
X3600000Y-10450000D02*
X3600000Y-14550000D01*
X3490001Y-16000000D02*
X3490001Y-16970001D01*
X6002164Y-25595753D02*
X6002164Y-25772265D01*
X3600000Y-14550000D02*
X3600000Y-15890001D01*
D50*
%TO.N,+BATT*%
X12000000Y-8250000D02*
X11850000Y-8400000D01*
D49*
%TO.N,Net-(D2-K)*%
X15100000Y-12010000D02*
X15100000Y-13015000D01*
%TO.N,Net-(D5-K)*%
X10910000Y-36000000D02*
X12415000Y-36000000D01*
%TO.N,Net-(D6-K)*%
X11410000Y-37000000D02*
X12415000Y-37000000D01*
D48*
%TO.N,Net-(J1-CC2)*%
X3225000Y-44600521D02*
X3225000Y-43735000D01*
X10750000Y-45641949D02*
X10750000Y-44880000D01*
X3225000Y-43735000D02*
X3800000Y-43160000D01*
X10618644Y-45773305D02*
X10750000Y-45641949D01*
%TO.N,D-*%
X9200000Y-42768751D02*
X9250000Y-42718751D01*
X8950000Y-46075000D02*
X9250000Y-45775000D01*
X9250000Y-44880000D02*
X9250000Y-43949999D01*
X9250000Y-42718751D02*
X9250000Y-42100000D01*
X9250000Y-43949999D02*
X9200000Y-43899999D01*
X9200000Y-43899999D02*
X9200000Y-42768751D01*
X8573959Y-46075000D02*
X8950000Y-46075000D01*
X8250000Y-44880000D02*
X8250000Y-45751041D01*
X9250000Y-45775000D02*
X9250000Y-44880000D01*
X8250000Y-45751041D02*
X8573959Y-46075000D01*
%TO.N,Net-(J1-CC1)*%
X7750000Y-44880000D02*
X7750000Y-43260000D01*
%TO.N,D+*%
X8750000Y-42718751D02*
X8750000Y-42100000D01*
X9750000Y-45650000D02*
X9750000Y-44880000D01*
X8750000Y-43949999D02*
X8800000Y-43899999D01*
X8800000Y-43899999D02*
X8800000Y-42768751D01*
X8800000Y-42768751D02*
X8750000Y-42718751D01*
X8750000Y-44880000D02*
X8750000Y-45650000D01*
X8750000Y-44880000D02*
X8750000Y-43949999D01*
%TO.N,Net-(JP4-B)*%
X3600000Y-19912500D02*
X3600000Y-18350000D01*
X4862500Y-21187500D02*
X3600000Y-22450000D01*
X5576046Y-25911833D02*
X6517588Y-26853375D01*
X4875000Y-21187500D02*
X4862500Y-21187500D01*
X5576046Y-25857334D02*
X5576046Y-25911833D01*
X4875000Y-21187500D02*
X3600000Y-19912500D01*
%TO.N,Net-(JP6-B)*%
X12800000Y-35000000D02*
X12259999Y-35000000D01*
%TO.N,PD7*%
X11036315Y-26836315D02*
X10727396Y-26527396D01*
X10727396Y-26527396D02*
X10308391Y-26527396D01*
X10308391Y-26527396D02*
X9982412Y-26853375D01*
%TO.N,UART_RX*%
X10154960Y-28475493D02*
X10154960Y-27812197D01*
X10197783Y-28518316D02*
X10154960Y-28475493D01*
X10154960Y-27812197D02*
X10548097Y-27419060D01*
X10197783Y-28624232D02*
X10197783Y-28518316D01*
%TO.N,Net-(JP7-A)*%
X6000000Y-39900000D02*
X7050000Y-39900000D01*
%TO.N,UART_TX*%
X7500000Y-37000000D02*
X8090000Y-37000000D01*
%TO.N,Net-(JP8-A)*%
X6500000Y-39400000D02*
X7050000Y-39400000D01*
D49*
%TO.N,Net-(U3-PROG)*%
X15100000Y-14990000D02*
X14776828Y-14990000D01*
X14776828Y-14990000D02*
X13750000Y-13963172D01*
D47*
%TO.N,Net-(U4-EN)*%
X13760000Y-19500000D02*
X13760000Y-18035000D01*
D48*
%TO.N,Net-(U1-U0TXD)*%
X10504960Y-28330518D02*
X10504960Y-28063238D01*
X10750000Y-28650000D02*
X10750000Y-28575558D01*
X10504960Y-28063238D02*
X10830940Y-27737258D01*
X10750000Y-28575558D02*
X10504960Y-28330518D01*
X9100000Y-36300000D02*
X9100000Y-36990000D01*
%TO.N,Net-(U5-VBUS)*%
X13500000Y-39310000D02*
X13500000Y-40290000D01*
X10937500Y-40912500D02*
X12877500Y-40912500D01*
X12877500Y-40912500D02*
X13500000Y-40290000D01*
%TO.N,Net-(U5-~{RST})*%
X10937500Y-40412500D02*
X11997500Y-40412500D01*
X11997500Y-40412500D02*
X12200000Y-40210000D01*
D49*
%TO.N,Net-(U5-~{TXT}{slash}GPIO.0)*%
X9750000Y-38225000D02*
X9750000Y-36140000D01*
%TO.N,Net-(U5-~{RXT}{slash}GPIO.1)*%
X10250000Y-38225000D02*
X10250000Y-37140000D01*
D48*
%TO.N,PA2*%
X3936647Y-29398959D02*
X3568844Y-29031156D01*
%TO.N,PB2*%
X4990524Y-27161596D02*
X5096591Y-27161596D01*
X4375000Y-26546072D02*
X4990524Y-27161596D01*
X5096591Y-27161596D02*
X5636898Y-27701903D01*
X4375000Y-26100000D02*
X4375000Y-26546072D01*
%TO.N,PC1*%
X11113782Y-32015254D02*
X14450000Y-35351472D01*
X14450000Y-35351472D02*
X14450000Y-42380000D01*
X14450000Y-42380000D02*
X16620000Y-44550000D01*
%TO.N,PA5*%
X4537689Y-31166726D02*
X5154345Y-30550070D01*
X5154345Y-30550070D02*
X5308223Y-30550070D01*
X5308223Y-30550070D02*
X5379667Y-30478626D01*
%TO.N,PC7*%
X12527996Y-29398959D02*
X16531041Y-29398959D01*
%TO.N,PA1*%
X3670867Y-28532137D02*
X4254847Y-29116117D01*
X3600156Y-28532137D02*
X3670867Y-28532137D01*
%TO.N,PD6*%
X9729961Y-27671511D02*
X9729961Y-28142669D01*
X10265254Y-27136218D02*
X9729961Y-27671511D01*
%TO.N,PA4*%
X5026112Y-30125070D02*
X4876703Y-30274479D01*
X4864251Y-30274479D02*
X4254847Y-30883883D01*
X4876703Y-30274479D02*
X4864251Y-30274479D01*
%TO.N,PD5*%
X1380000Y-47090000D02*
X2700000Y-45770000D01*
X2700000Y-45770000D02*
X2700000Y-40622104D01*
X7040137Y-34321133D02*
X7366117Y-33995153D01*
X2700000Y-40622104D02*
X7040137Y-36281967D01*
X7040137Y-36281967D02*
X7040137Y-34321133D01*
%TO.N,PB5*%
X2455000Y-26184899D02*
X4820532Y-28550431D01*
X2455000Y-15145000D02*
X2455000Y-26184899D01*
X1380000Y-14070000D02*
X2455000Y-15145000D01*
%TO.N,PB1*%
X5523051Y-27093081D02*
X5625924Y-27093081D01*
X5625924Y-27093081D02*
X5951903Y-27419060D01*
X4800000Y-26370030D02*
X5523051Y-27093081D01*
%TO.N,PA6*%
X5366475Y-30903626D02*
X5661315Y-30903626D01*
X4820532Y-31449569D02*
X5366475Y-30903626D01*
X5661315Y-30903626D02*
X5745769Y-30819172D01*
%TO.N,PB6*%
X6100000Y-31867157D02*
X5669060Y-32298097D01*
X6100000Y-31800000D02*
X6100000Y-31867157D01*
%TO.N,PC4*%
X11962311Y-31166726D02*
X15500000Y-34704415D01*
X15500000Y-34704415D02*
X15500000Y-35810000D01*
X15500000Y-35810000D02*
X16620000Y-36930000D01*
%TO.N,PA7*%
X5429355Y-31406432D02*
X5865157Y-31406432D01*
X5865157Y-31406432D02*
X6086315Y-31185274D01*
X5103375Y-31732412D02*
X5429355Y-31406432D01*
%TO.N,PB0*%
X5731011Y-26700000D02*
X5798528Y-26700000D01*
X5314464Y-26283453D02*
X5731011Y-26700000D01*
X5798528Y-26700000D02*
X6234746Y-27136218D01*
%TO.N,PC5*%
X15751270Y-34390000D02*
X16620000Y-34390000D01*
X12245153Y-30883883D02*
X15751270Y-34390000D01*
%TO.N,PC0*%
X10830940Y-32298097D02*
X14100000Y-35567157D01*
X14100000Y-44570000D02*
X16620000Y-47090000D01*
X14100000Y-35567157D02*
X14100000Y-44570000D01*
D51*
%TO.N,D_N*%
X5375000Y-34854899D02*
X6800431Y-33429468D01*
X5375000Y-35286397D02*
X5375000Y-34854899D01*
X5656770Y-35568167D02*
X5375000Y-35286397D01*
X6275000Y-35568167D02*
X5656770Y-35568167D01*
D48*
%TO.N,PC2*%
X14800000Y-40190000D02*
X16620000Y-42010000D01*
X11396625Y-31732412D02*
X14800000Y-35135787D01*
X14800000Y-35135787D02*
X14800000Y-40190000D01*
%TO.N,PD1*%
X2734213Y-36930000D02*
X6517588Y-33146625D01*
X1380000Y-36930000D02*
X2734213Y-36930000D01*
%TO.N,PD0*%
X1380000Y-34390000D02*
X4708528Y-34390000D01*
X4708528Y-34390000D02*
X6234746Y-32863782D01*
%TO.N,PC6*%
X16620000Y-31850000D02*
X13776955Y-31850000D01*
X13776955Y-31850000D02*
X12527996Y-30601041D01*
D51*
%TO.N,D_P*%
X5825000Y-34970584D02*
X6732295Y-34063289D01*
X5825000Y-35100000D02*
X5825000Y-34970584D01*
X6732295Y-34063289D02*
X7083274Y-33712311D01*
D48*
%TO.N,PA0*%
X3684530Y-28015470D02*
X4502334Y-28833274D01*
%TO.N,PB3*%
X3950000Y-26616047D02*
X4992719Y-27658766D01*
X3950000Y-26513173D02*
X3950000Y-26616047D01*
X5060238Y-27658766D02*
X5386218Y-27984746D01*
X4992719Y-27658766D02*
X5060238Y-27658766D01*
%TO.N,PB4*%
X5103375Y-28267588D02*
X2825000Y-25989213D01*
X2825000Y-12975000D02*
X1380000Y-11530000D01*
X2825000Y-25989213D02*
X2825000Y-12975000D01*
%TO.N,PC3*%
X15150000Y-38000000D02*
X16620000Y-39470000D01*
X15150000Y-34920101D02*
X15150000Y-38000000D01*
X11679468Y-31449569D02*
X15150000Y-34920101D01*
%TO.N,PA3*%
X4672557Y-29771515D02*
X4300000Y-30144072D01*
X4300000Y-30273045D02*
X3972004Y-30601041D01*
X4300000Y-30144072D02*
X4300000Y-30273045D01*
%TO.N,PB7*%
X6456528Y-32180093D02*
X6352750Y-32180093D01*
X6352750Y-32180093D02*
X5951903Y-32580940D01*
D51*
%TO.N,XTAL_P*%
X11371142Y-23323223D02*
X11371142Y-24333273D01*
X11371142Y-24333273D02*
X9416726Y-26287689D01*
X10894401Y-23323223D02*
X9910589Y-22339411D01*
%TO.N,XTAL_N*%
X12670101Y-23600000D02*
X9699569Y-26570532D01*
X14128858Y-24428858D02*
X14128858Y-23676777D01*
X14839411Y-25410589D02*
X14839411Y-25139411D01*
X13652081Y-23600000D02*
X12670101Y-23600000D01*
X14839411Y-25139411D02*
X14128858Y-24428858D01*
D49*
%TO.N,Net-(U3-STAT)*%
X14260000Y-10990000D02*
X13750000Y-11500000D01*
X15100000Y-10990000D02*
X14260000Y-10990000D01*
%TD*%
%TA.AperFunction,Conductor*%
%TO.N,GND*%
G36*
X13754351Y-42768863D02*
G01*
X13806190Y-42815709D01*
X13824500Y-42880560D01*
X13824500Y-44624800D01*
X13858159Y-44706058D01*
X13866443Y-44726058D01*
X13866445Y-44726060D01*
X13963681Y-44823296D01*
X13997166Y-44884619D01*
X14000000Y-44910977D01*
X14000000Y-45376000D01*
X13980315Y-45443039D01*
X13927511Y-45488794D01*
X13876000Y-45500000D01*
X12208201Y-45500000D01*
X12146200Y-45483386D01*
X12112140Y-45463721D01*
X12112134Y-45463718D01*
X12091903Y-45458297D01*
X12032243Y-45421930D01*
X12001716Y-45359082D01*
X12000000Y-45338523D01*
X12000000Y-43750000D01*
X11374000Y-43750000D01*
X11306961Y-43730315D01*
X11261206Y-43677511D01*
X11250000Y-43626000D01*
X11250000Y-42926812D01*
X11269685Y-42859773D01*
X11322489Y-42814018D01*
X11376046Y-42803815D01*
X11376032Y-42803068D01*
X11380421Y-42802981D01*
X11380437Y-42802979D01*
X11380445Y-42802979D01*
X11380460Y-42802981D01*
X13682460Y-42757844D01*
X13685418Y-42757481D01*
X13754351Y-42768863D01*
G37*
%TD.AperFunction*%
%TD*%
%TA.AperFunction,Conductor*%
%TO.N,Net-(U5-VDD)*%
G36*
X10480275Y-41719685D02*
G01*
X10482041Y-41720841D01*
X10484883Y-41722740D01*
X10484886Y-41722740D01*
X10484887Y-41722741D01*
X10504322Y-41726606D01*
X10561599Y-41738000D01*
X10567020Y-41737999D01*
X10601966Y-41743023D01*
X10616102Y-41747175D01*
X10674000Y-41755500D01*
X10920500Y-41755500D01*
X10987539Y-41775185D01*
X11033294Y-41827989D01*
X11044500Y-41879500D01*
X11044500Y-42473543D01*
X11049633Y-42519192D01*
X11061870Y-42572903D01*
X11065015Y-42584995D01*
X11084269Y-42619481D01*
X11100000Y-42679928D01*
X11100000Y-42720406D01*
X11084221Y-42780939D01*
X11072507Y-42801880D01*
X11063103Y-42833907D01*
X11040901Y-42871332D01*
X11042997Y-42872799D01*
X11036774Y-42881685D01*
X10986027Y-42990512D01*
X10986027Y-42990513D01*
X10979500Y-43040098D01*
X10979500Y-43459894D01*
X10979501Y-43459900D01*
X10986028Y-43509487D01*
X10986029Y-43509489D01*
X10986029Y-43509490D01*
X11037035Y-43618872D01*
X11047942Y-43658016D01*
X11048450Y-43662739D01*
X11036048Y-43731499D01*
X10988440Y-43782639D01*
X10925161Y-43800000D01*
X9824000Y-43800000D01*
X9756961Y-43780315D01*
X9711206Y-43727511D01*
X9700000Y-43676000D01*
X9700000Y-41824000D01*
X9719685Y-41756961D01*
X9772489Y-41711206D01*
X9824000Y-41700000D01*
X10413236Y-41700000D01*
X10480275Y-41719685D01*
G37*
%TD.AperFunction*%
%TD*%
%TA.AperFunction,Conductor*%
%TO.N,+3V3*%
G36*
X9043335Y-23359181D02*
G01*
X9087681Y-23387681D01*
X10366685Y-24666685D01*
X10400170Y-24728008D01*
X10395186Y-24797700D01*
X10366685Y-24842047D01*
X9136256Y-26072477D01*
X9136254Y-26072479D01*
X8942048Y-26266686D01*
X8880725Y-26300171D01*
X8811034Y-26295187D01*
X8766686Y-26266686D01*
X8163622Y-25663622D01*
X8131528Y-25608034D01*
X8103038Y-25501706D01*
X8103035Y-25501700D01*
X8046658Y-25404054D01*
X8046655Y-25404051D01*
X8046654Y-25404048D01*
X7558982Y-24916376D01*
X7525498Y-24855054D01*
X7530482Y-24785362D01*
X7558979Y-24741020D01*
X8322370Y-23977629D01*
X8371727Y-23947384D01*
X8418869Y-23932067D01*
X8493768Y-23877650D01*
X8777649Y-23593768D01*
X8832067Y-23518869D01*
X8847383Y-23471730D01*
X8877629Y-23422370D01*
X8912322Y-23387677D01*
X8973644Y-23354195D01*
X9043335Y-23359181D01*
G37*
%TD.AperFunction*%
%TD*%
%TA.AperFunction,Conductor*%
%TO.N,GND*%
G36*
X8774999Y-11170870D02*
G01*
X8773472Y-11190264D01*
X8770559Y-11208659D01*
X8768346Y-11222629D01*
X8765773Y-11233847D01*
X8765929Y-11233885D01*
X8751560Y-11293730D01*
X8744500Y-11353375D01*
X8744500Y-11760761D01*
X8730986Y-11817054D01*
X8714352Y-11849699D01*
X8699500Y-11943475D01*
X8699501Y-13120500D01*
X8679816Y-13187539D01*
X8627013Y-13233294D01*
X8575501Y-13244500D01*
X8223997Y-13244500D01*
X8169687Y-13250338D01*
X8118181Y-13261543D01*
X8118172Y-13261546D01*
X8091807Y-13268779D01*
X8091796Y-13268783D01*
X8005181Y-13318105D01*
X8005173Y-13318111D01*
X7952371Y-13363863D01*
X7920743Y-13396640D01*
X7874534Y-13484976D01*
X7853602Y-13556264D01*
X7852289Y-13555878D01*
X7826578Y-13602958D01*
X7827686Y-13603763D01*
X7821951Y-13611655D01*
X7764352Y-13724698D01*
X7749500Y-13818475D01*
X7749500Y-15056517D01*
X7760188Y-15124000D01*
X7764354Y-15150304D01*
X7819875Y-15259270D01*
X7821952Y-15263346D01*
X7823662Y-15265699D01*
X7825243Y-15269804D01*
X7826381Y-15272037D01*
X7826148Y-15272155D01*
X7846630Y-15325325D01*
X7850336Y-15359799D01*
X7850338Y-15359809D01*
X7861543Y-15411318D01*
X7861546Y-15411327D01*
X7868779Y-15437692D01*
X7868783Y-15437703D01*
X7918105Y-15524318D01*
X7918110Y-15524325D01*
X7918112Y-15524328D01*
X7944580Y-15554874D01*
X7963863Y-15577128D01*
X7963866Y-15577131D01*
X7963867Y-15577132D01*
X7996641Y-15608757D01*
X8084976Y-15654965D01*
X8084977Y-15654965D01*
X8084977Y-15654966D01*
X8135105Y-15669684D01*
X8152015Y-15674650D01*
X8152019Y-15674650D01*
X8152021Y-15674651D01*
X8163652Y-15676323D01*
X8224000Y-15685000D01*
X8376388Y-15685000D01*
X8430822Y-15697587D01*
X8432967Y-15698635D01*
X8466214Y-15722367D01*
X8467630Y-15723783D01*
X8491341Y-15756986D01*
X8492392Y-15759135D01*
X8505000Y-15813613D01*
X8505000Y-16186386D01*
X8492405Y-16240837D01*
X8491796Y-16242083D01*
X8491742Y-16242194D01*
X8491301Y-16243094D01*
X8467631Y-16276213D01*
X8466213Y-16277631D01*
X8433029Y-16301332D01*
X8430883Y-16302382D01*
X8376386Y-16315000D01*
X8223997Y-16315000D01*
X8169687Y-16320838D01*
X8118181Y-16332043D01*
X8118172Y-16332046D01*
X8091807Y-16339279D01*
X8091796Y-16339283D01*
X8005181Y-16388605D01*
X8005173Y-16388611D01*
X7952371Y-16434363D01*
X7920743Y-16467140D01*
X7874534Y-16555477D01*
X7874533Y-16555477D01*
X7854851Y-16622509D01*
X7854848Y-16622521D01*
X7844500Y-16694498D01*
X7844500Y-17826002D01*
X7850338Y-17880312D01*
X7861543Y-17931818D01*
X7861546Y-17931827D01*
X7868779Y-17958192D01*
X7868783Y-17958203D01*
X7918105Y-18044818D01*
X7918110Y-18044825D01*
X7918112Y-18044828D01*
X7944580Y-18075374D01*
X7963863Y-18097628D01*
X7963866Y-18097631D01*
X7963867Y-18097632D01*
X7996641Y-18129257D01*
X8084976Y-18175465D01*
X8084977Y-18175465D01*
X8084977Y-18175466D01*
X8135105Y-18190184D01*
X8152015Y-18195150D01*
X8152019Y-18195150D01*
X8152021Y-18195151D01*
X8163652Y-18196823D01*
X8224000Y-18205500D01*
X8224001Y-18205500D01*
X9376000Y-18205500D01*
X9443039Y-18225185D01*
X9488794Y-18277989D01*
X9500000Y-18329500D01*
X9500000Y-20250000D01*
X9876878Y-20250000D01*
X9894523Y-20251261D01*
X9924000Y-20255500D01*
X9924001Y-20255500D01*
X10831689Y-20255500D01*
X10831692Y-20255500D01*
X10867780Y-20250966D01*
X10883234Y-20250000D01*
X10950000Y-20250000D01*
X10000000Y-21200000D01*
X10650000Y-21850000D01*
X10498389Y-22001610D01*
X10437066Y-22035095D01*
X10367374Y-22030111D01*
X10323028Y-22001611D01*
X10143768Y-21822351D01*
X10131830Y-21813677D01*
X10068871Y-21767934D01*
X10068872Y-21767934D01*
X9951226Y-21729708D01*
X9951225Y-21729708D01*
X9827527Y-21729708D01*
X9827525Y-21729708D01*
X9709882Y-21767933D01*
X9634984Y-21822350D01*
X9634982Y-21822352D01*
X9634981Y-21822352D01*
X9393528Y-22063806D01*
X9393521Y-22063814D01*
X9339112Y-22138701D01*
X9339111Y-22138702D01*
X9300886Y-22256345D01*
X9300886Y-22256349D01*
X9300886Y-22380047D01*
X9339111Y-22497691D01*
X9339112Y-22497692D01*
X9393524Y-22572586D01*
X9572787Y-22751849D01*
X9606272Y-22813172D01*
X9601288Y-22882864D01*
X9572787Y-22927211D01*
X9358229Y-23141770D01*
X9296906Y-23175255D01*
X9227215Y-23170271D01*
X9203510Y-23158405D01*
X9181498Y-23144259D01*
X9181491Y-23144255D01*
X9181471Y-23144242D01*
X9157706Y-23130709D01*
X9157703Y-23130708D01*
X9157701Y-23130707D01*
X9061570Y-23104332D01*
X8991864Y-23099345D01*
X8946342Y-23100157D01*
X8946336Y-23100158D01*
X8851203Y-23129943D01*
X8789875Y-23163429D01*
X8731665Y-23207003D01*
X8731650Y-23207016D01*
X8696966Y-23241700D01*
X8696955Y-23241712D01*
X8659778Y-23288874D01*
X8629530Y-23338237D01*
X8603470Y-23394767D01*
X8591177Y-23415739D01*
X8588496Y-23419429D01*
X8575860Y-23434224D01*
X8334226Y-23675859D01*
X8319433Y-23688494D01*
X8315739Y-23691178D01*
X8294761Y-23703473D01*
X8238242Y-23729526D01*
X8238236Y-23729529D01*
X8188874Y-23759776D01*
X8141705Y-23796962D01*
X8141693Y-23796972D01*
X7378317Y-24560348D01*
X7316994Y-24593833D01*
X7247302Y-24588849D01*
X7202955Y-24560348D01*
X7164590Y-24521983D01*
X7131105Y-24460660D01*
X7128271Y-24434302D01*
X7128271Y-11000000D01*
X8774999Y-11000000D01*
X8774999Y-11170870D01*
G37*
%TD.AperFunction*%
%TD*%
%TA.AperFunction,Conductor*%
%TO.N,+5V*%
G36*
X12943039Y-13269685D02*
G01*
X12988794Y-13322489D01*
X13000000Y-13374000D01*
X13000000Y-14376000D01*
X12980315Y-14443039D01*
X12927511Y-14488794D01*
X12876000Y-14500000D01*
X11629500Y-14500000D01*
X11562461Y-14480315D01*
X11516706Y-14427511D01*
X11505500Y-14376000D01*
X11505500Y-13774000D01*
X11500709Y-13729444D01*
X11500000Y-13716190D01*
X11500000Y-13374000D01*
X11519685Y-13306961D01*
X11572489Y-13261206D01*
X11624000Y-13250000D01*
X12876000Y-13250000D01*
X12943039Y-13269685D01*
G37*
%TD.AperFunction*%
%TD*%
%TA.AperFunction,Conductor*%
%TO.N,+BATT*%
G36*
X12243039Y-6519685D02*
G01*
X12288794Y-6572489D01*
X12300000Y-6624000D01*
X12300000Y-10233182D01*
X12285877Y-10290654D01*
X12274535Y-10312337D01*
X12274534Y-10312338D01*
X12254850Y-10379375D01*
X12254848Y-10379383D01*
X12244500Y-10451360D01*
X12244500Y-11126002D01*
X12248790Y-11165905D01*
X12249500Y-11179159D01*
X12249500Y-12044017D01*
X12264354Y-12137804D01*
X12264354Y-12137805D01*
X12273680Y-12156108D01*
X12286484Y-12181237D01*
X12300000Y-12237531D01*
X12300000Y-12763516D01*
X12280315Y-12830555D01*
X12227511Y-12876310D01*
X12158353Y-12886254D01*
X12134921Y-12878826D01*
X12134583Y-12879869D01*
X12125301Y-12876852D01*
X12031524Y-12862000D01*
X11668482Y-12862000D01*
X11587519Y-12874823D01*
X11574696Y-12876854D01*
X11461658Y-12934450D01*
X11461657Y-12934451D01*
X11461652Y-12934454D01*
X11371954Y-13024152D01*
X11371951Y-13024157D01*
X11371950Y-13024158D01*
X11316850Y-13132296D01*
X11268877Y-13183091D01*
X11206367Y-13200000D01*
X9124000Y-13200000D01*
X9056961Y-13180315D01*
X9011206Y-13127511D01*
X9000000Y-13076000D01*
X9000000Y-11353379D01*
X9013517Y-11297081D01*
X9016017Y-11292175D01*
X9030500Y-11200735D01*
X9030499Y-10799266D01*
X9030499Y-10799265D01*
X9030499Y-10799260D01*
X9016017Y-10707826D01*
X9016017Y-10707825D01*
X9013515Y-10702914D01*
X9000000Y-10646620D01*
X9000000Y-10524000D01*
X9019685Y-10456961D01*
X9072489Y-10411206D01*
X9124000Y-10400000D01*
X11000000Y-10400000D01*
X11000000Y-6624000D01*
X11019685Y-6556961D01*
X11072489Y-6511206D01*
X11124000Y-6500000D01*
X12176000Y-6500000D01*
X12243039Y-6519685D01*
G37*
%TD.AperFunction*%
%TD*%
%TA.AperFunction,Conductor*%
%TO.N,GND*%
G36*
X13043334Y-24059180D02*
G01*
X13087681Y-24087681D01*
X14243389Y-25243389D01*
X14276874Y-25304712D01*
X14279708Y-25331070D01*
X14279708Y-25449415D01*
X14295149Y-25491841D01*
X14320777Y-25562253D01*
X14320779Y-25562256D01*
X14320780Y-25562257D01*
X14351217Y-25601923D01*
X14351223Y-25601930D01*
X14351224Y-25601931D01*
X14648069Y-25898775D01*
X14687747Y-25929223D01*
X14785664Y-25964861D01*
X14841928Y-26006287D01*
X14866864Y-26071555D01*
X14852555Y-26139944D01*
X14830935Y-26169064D01*
X13337681Y-27662319D01*
X13276358Y-27695804D01*
X13206666Y-27690820D01*
X13162319Y-27662319D01*
X13156687Y-27656687D01*
X13151140Y-27650765D01*
X13148773Y-27648066D01*
X12851932Y-27351226D01*
X12849231Y-27348857D01*
X12843316Y-27343316D01*
X11337681Y-25837681D01*
X11304196Y-25776358D01*
X11309180Y-25706666D01*
X11337681Y-25662319D01*
X12912319Y-24087681D01*
X12973642Y-24054196D01*
X13043334Y-24059180D01*
G37*
%TD.AperFunction*%
%TD*%
%TA.AperFunction,Conductor*%
%TO.N,+5V*%
G36*
X6193039Y-40519685D02*
G01*
X6238794Y-40572489D01*
X6250000Y-40624000D01*
X6250000Y-41876000D01*
X6230315Y-41943039D01*
X6177511Y-41988794D01*
X6126000Y-42000000D01*
X5539624Y-42000000D01*
X5472585Y-41980315D01*
X5429139Y-41932294D01*
X5392095Y-41859590D01*
X5392092Y-41859587D01*
X5392090Y-41859584D01*
X5313592Y-41781086D01*
X5313588Y-41781083D01*
X5313587Y-41781082D01*
X5309743Y-41779123D01*
X5214658Y-41730675D01*
X5105002Y-41713308D01*
X5104998Y-41713308D01*
X4995341Y-41730675D01*
X4896414Y-41781081D01*
X4896408Y-41781085D01*
X4849315Y-41828180D01*
X4787992Y-41861666D01*
X4761633Y-41864500D01*
X4374000Y-41864500D01*
X4306961Y-41844815D01*
X4261206Y-41792011D01*
X4250000Y-41740500D01*
X4250000Y-40624000D01*
X4269685Y-40556961D01*
X4322489Y-40511206D01*
X4374000Y-40500000D01*
X6126000Y-40500000D01*
X6193039Y-40519685D01*
G37*
%TD.AperFunction*%
%TD*%
%TA.AperFunction,Conductor*%
%TO.N,Net-(D1-A)*%
G36*
X6232539Y-42519685D02*
G01*
X6278294Y-42572489D01*
X6289500Y-42624000D01*
X6289500Y-42920240D01*
X6277882Y-42972646D01*
X6275932Y-42976826D01*
X6275931Y-42976830D01*
X6269500Y-43025683D01*
X6269500Y-43474316D01*
X6275931Y-43523171D01*
X6301938Y-43578942D01*
X6325935Y-43630404D01*
X6409596Y-43714065D01*
X6516827Y-43764068D01*
X6565683Y-43770500D01*
X6776000Y-43770500D01*
X6843039Y-43790185D01*
X6888794Y-43842989D01*
X6900000Y-43894500D01*
X6900000Y-44229084D01*
X6899500Y-44239262D01*
X6899500Y-45519752D01*
X6911131Y-45578229D01*
X6911132Y-45578230D01*
X6955447Y-45644552D01*
X7021769Y-45688867D01*
X7021770Y-45688868D01*
X7080247Y-45700499D01*
X7080250Y-45700500D01*
X7080252Y-45700500D01*
X7419750Y-45700500D01*
X7475808Y-45689349D01*
X7524192Y-45689349D01*
X7580249Y-45700500D01*
X7851782Y-45700500D01*
X7918821Y-45720185D01*
X7964576Y-45772989D01*
X7973400Y-45800310D01*
X7974500Y-45805841D01*
X8011189Y-45894416D01*
X8013419Y-45899798D01*
X8016444Y-45907101D01*
X8220148Y-46110805D01*
X8417900Y-46308557D01*
X8447554Y-46320839D01*
X8447556Y-46320841D01*
X8447557Y-46320841D01*
X8468529Y-46329527D01*
X8519159Y-46350500D01*
X8519162Y-46350500D01*
X9004799Y-46350500D01*
X9004800Y-46350500D01*
X9106058Y-46308557D01*
X9183557Y-46231058D01*
X9183556Y-46231058D01*
X9435384Y-45979231D01*
X9496706Y-45945747D01*
X9566398Y-45950731D01*
X9579339Y-45956419D01*
X9640339Y-45987500D01*
X9640341Y-45987500D01*
X9640343Y-45987501D01*
X9749998Y-46004869D01*
X9750000Y-46004869D01*
X9750002Y-46004869D01*
X9859658Y-45987501D01*
X9859659Y-45987500D01*
X9859661Y-45987500D01*
X9958587Y-45937095D01*
X10037095Y-45858587D01*
X10047069Y-45839011D01*
X10095038Y-45788218D01*
X10162858Y-45771421D01*
X10228994Y-45793956D01*
X10272447Y-45848669D01*
X10280025Y-45875905D01*
X10281143Y-45882964D01*
X10331548Y-45981890D01*
X10331553Y-45981897D01*
X10410051Y-46060395D01*
X10410054Y-46060397D01*
X10410057Y-46060400D01*
X10508983Y-46110805D01*
X10508985Y-46110806D01*
X10618642Y-46128174D01*
X10618644Y-46128174D01*
X10618646Y-46128174D01*
X10728302Y-46110806D01*
X10728303Y-46110805D01*
X10728305Y-46110805D01*
X10827231Y-46060400D01*
X10905739Y-45981892D01*
X10956144Y-45882966D01*
X10961007Y-45852256D01*
X10980382Y-45802758D01*
X10983551Y-45798013D01*
X10983557Y-45798008D01*
X11000703Y-45756614D01*
X11025500Y-45696749D01*
X11025500Y-45696744D01*
X11027395Y-45687221D01*
X11045909Y-45642520D01*
X11088867Y-45578231D01*
X11100500Y-45519748D01*
X11100500Y-44374000D01*
X11120185Y-44306961D01*
X11172989Y-44261206D01*
X11224500Y-44250000D01*
X11575500Y-44250000D01*
X11642539Y-44269685D01*
X11688294Y-44322489D01*
X11699500Y-44374000D01*
X11699500Y-45373862D01*
X11679815Y-45440901D01*
X11637501Y-45481248D01*
X11536641Y-45539481D01*
X11536632Y-45539487D01*
X11429487Y-45646632D01*
X11429485Y-45646635D01*
X11353719Y-45777863D01*
X11314500Y-45924234D01*
X11314500Y-46075765D01*
X11353719Y-46222136D01*
X11391602Y-46287750D01*
X11429485Y-46353365D01*
X11536635Y-46460515D01*
X11667865Y-46536281D01*
X11814234Y-46575500D01*
X11814236Y-46575500D01*
X11876000Y-46575500D01*
X11943039Y-46595185D01*
X11988794Y-46647989D01*
X12000000Y-46699500D01*
X12000000Y-47376000D01*
X11980315Y-47443039D01*
X11927511Y-47488794D01*
X11876000Y-47500000D01*
X3124000Y-47500000D01*
X3056961Y-47480315D01*
X3011206Y-47427511D01*
X3000000Y-47376000D01*
X3000000Y-46098995D01*
X3979499Y-46098995D01*
X4006418Y-46234322D01*
X4006421Y-46234332D01*
X4059221Y-46361804D01*
X4059228Y-46361817D01*
X4135885Y-46476541D01*
X4135888Y-46476545D01*
X4233454Y-46574111D01*
X4233458Y-46574114D01*
X4348182Y-46650771D01*
X4348195Y-46650778D01*
X4465822Y-46699500D01*
X4475672Y-46703580D01*
X4475676Y-46703580D01*
X4475677Y-46703581D01*
X4611004Y-46730500D01*
X4611007Y-46730500D01*
X4748995Y-46730500D01*
X4840041Y-46712389D01*
X4884328Y-46703580D01*
X5011811Y-46650775D01*
X5126542Y-46574114D01*
X5224114Y-46476542D01*
X5300775Y-46361811D01*
X5304274Y-46353365D01*
X5352256Y-46237524D01*
X5396096Y-46183120D01*
X5462390Y-46161055D01*
X5530090Y-46178334D01*
X5574203Y-46222974D01*
X5649485Y-46353365D01*
X5756635Y-46460515D01*
X5887865Y-46536281D01*
X6034234Y-46575500D01*
X6034236Y-46575500D01*
X6185764Y-46575500D01*
X6185766Y-46575500D01*
X6332135Y-46536281D01*
X6463365Y-46460515D01*
X6570515Y-46353365D01*
X6646281Y-46222135D01*
X6685500Y-46075766D01*
X6685500Y-45924234D01*
X6646281Y-45777865D01*
X6570515Y-45646635D01*
X6463365Y-45539485D01*
X6461008Y-45538124D01*
X6362499Y-45481248D01*
X6314284Y-45430681D01*
X6300500Y-45373862D01*
X6300500Y-44240249D01*
X6300499Y-44240247D01*
X6288868Y-44181770D01*
X6288867Y-44181769D01*
X6244552Y-44115447D01*
X6178230Y-44071132D01*
X6178229Y-44071131D01*
X6119752Y-44059500D01*
X6119748Y-44059500D01*
X5480252Y-44059500D01*
X5480247Y-44059500D01*
X5421770Y-44071131D01*
X5421769Y-44071132D01*
X5355447Y-44115447D01*
X5311132Y-44181769D01*
X5311131Y-44181770D01*
X5299500Y-44240247D01*
X5299500Y-44269464D01*
X5279815Y-44336503D01*
X5227011Y-44382258D01*
X5157853Y-44392202D01*
X5106610Y-44372566D01*
X5011822Y-44309231D01*
X5011804Y-44309221D01*
X4884332Y-44256421D01*
X4884322Y-44256418D01*
X4748995Y-44229500D01*
X4748993Y-44229500D01*
X4611007Y-44229500D01*
X4611005Y-44229500D01*
X4475677Y-44256418D01*
X4475667Y-44256421D01*
X4348195Y-44309221D01*
X4348182Y-44309228D01*
X4233458Y-44385885D01*
X4233454Y-44385888D01*
X4135888Y-44483454D01*
X4135885Y-44483458D01*
X4059228Y-44598182D01*
X4059221Y-44598195D01*
X4006421Y-44725667D01*
X4006418Y-44725677D01*
X3979500Y-44861004D01*
X3979500Y-44861007D01*
X3979500Y-46098993D01*
X3979500Y-46098995D01*
X3979499Y-46098995D01*
X3000000Y-46098995D01*
X3000000Y-45064938D01*
X3019685Y-44997899D01*
X3072489Y-44952144D01*
X3141647Y-44942200D01*
X3143347Y-44942457D01*
X3200573Y-44951521D01*
X3224999Y-44955390D01*
X3225000Y-44955390D01*
X3225002Y-44955390D01*
X3334658Y-44938022D01*
X3334659Y-44938021D01*
X3334661Y-44938021D01*
X3433587Y-44887616D01*
X3512095Y-44809108D01*
X3562500Y-44710182D01*
X3562500Y-44710180D01*
X3562501Y-44710179D01*
X3579869Y-44600523D01*
X3579869Y-44600518D01*
X3562501Y-44490862D01*
X3514015Y-44395702D01*
X3500500Y-44339408D01*
X3500500Y-43900477D01*
X3520185Y-43833438D01*
X3536819Y-43812796D01*
X3563296Y-43786319D01*
X3624619Y-43752834D01*
X3650977Y-43750000D01*
X4000000Y-43750000D01*
X4000000Y-43737185D01*
X4019685Y-43670146D01*
X4071595Y-43624803D01*
X4073170Y-43624068D01*
X4073173Y-43624068D01*
X4180404Y-43574065D01*
X4264065Y-43490404D01*
X4314068Y-43383173D01*
X4320500Y-43334316D01*
X4320500Y-42985684D01*
X4314068Y-42936827D01*
X4264065Y-42829596D01*
X4180404Y-42745935D01*
X4172733Y-42738264D01*
X4175561Y-42735435D01*
X4144843Y-42697023D01*
X4137635Y-42627526D01*
X4169143Y-42565165D01*
X4172903Y-42561906D01*
X4172733Y-42561736D01*
X4198150Y-42536319D01*
X4259473Y-42502834D01*
X4285831Y-42500000D01*
X6165500Y-42500000D01*
X6232539Y-42519685D01*
G37*
%TD.AperFunction*%
%TD*%
%TA.AperFunction,Conductor*%
%TO.N,+5V*%
G36*
X13743039Y-41019685D02*
G01*
X13788794Y-41072489D01*
X13800000Y-41124000D01*
X13800000Y-42428407D01*
X13780315Y-42495446D01*
X13727511Y-42541201D01*
X13678431Y-42552383D01*
X11376431Y-42597520D01*
X11309018Y-42579154D01*
X11262237Y-42527257D01*
X11250000Y-42473544D01*
X11250000Y-41550000D01*
X10674000Y-41550000D01*
X10606961Y-41530315D01*
X10561206Y-41477511D01*
X10550000Y-41426000D01*
X10550000Y-41361999D01*
X10569685Y-41294960D01*
X10622489Y-41249205D01*
X10673996Y-41237999D01*
X11313400Y-41237999D01*
X11390117Y-41222740D01*
X11390118Y-41222738D01*
X11390121Y-41222738D01*
X11410832Y-41208899D01*
X11477509Y-41188020D01*
X11479724Y-41188000D01*
X12932299Y-41188000D01*
X12932300Y-41188000D01*
X13033558Y-41146057D01*
X13111057Y-41068558D01*
X13143296Y-41036319D01*
X13204619Y-41002834D01*
X13230977Y-41000000D01*
X13676000Y-41000000D01*
X13743039Y-41019685D01*
G37*
%TD.AperFunction*%
%TD*%
%TA.AperFunction,Conductor*%
%TO.N,GND*%
G36*
X13767539Y-35669685D02*
G01*
X13813294Y-35722489D01*
X13824500Y-35774000D01*
X13824500Y-38426000D01*
X13804815Y-38493039D01*
X13752011Y-38538794D01*
X13700500Y-38550000D01*
X13124000Y-38550000D01*
X13056961Y-38530315D01*
X13011206Y-38477511D01*
X13000000Y-38426000D01*
X13000000Y-38100000D01*
X11824000Y-38100000D01*
X11756961Y-38080315D01*
X11711206Y-38027511D01*
X11700000Y-37976000D01*
X11700000Y-37624000D01*
X11719685Y-37556961D01*
X11772489Y-37511206D01*
X11824000Y-37500000D01*
X12116368Y-37500000D01*
X12157128Y-37509429D01*
X12157631Y-37507802D01*
X12166826Y-37510643D01*
X12166830Y-37510645D01*
X12234472Y-37520500D01*
X12234478Y-37520500D01*
X12595522Y-37520500D01*
X12595528Y-37520500D01*
X12663170Y-37510645D01*
X12663175Y-37510642D01*
X12672369Y-37507802D01*
X12672871Y-37509429D01*
X12713632Y-37500000D01*
X12950000Y-37500000D01*
X12996739Y-35770649D01*
X13018228Y-35704167D01*
X13072249Y-35659855D01*
X13120694Y-35650000D01*
X13700500Y-35650000D01*
X13767539Y-35669685D01*
G37*
%TD.AperFunction*%
%TD*%
%TA.AperFunction,Conductor*%
%TO.N,+5V*%
G36*
X8931262Y-13513515D02*
G01*
X8974698Y-13535647D01*
X9068475Y-13550499D01*
X9068481Y-13550500D01*
X9426000Y-13550499D01*
X9493039Y-13570183D01*
X9538794Y-13622987D01*
X9550000Y-13674499D01*
X9550000Y-13726877D01*
X9548738Y-13744523D01*
X9544500Y-13773998D01*
X9544500Y-17826000D01*
X9524815Y-17893039D01*
X9472011Y-17938794D01*
X9420500Y-17950000D01*
X8224000Y-17950000D01*
X8156961Y-17930315D01*
X8111206Y-17877511D01*
X8100000Y-17826000D01*
X8100000Y-16694500D01*
X8119685Y-16627461D01*
X8172489Y-16581706D01*
X8224000Y-16570500D01*
X8411577Y-16570500D01*
X8411582Y-16570500D01*
X8486518Y-16559582D01*
X8544310Y-16531329D01*
X8602099Y-16503078D01*
X8602102Y-16503076D01*
X8693076Y-16412102D01*
X8693078Y-16412099D01*
X8721329Y-16354310D01*
X8749582Y-16296518D01*
X8760500Y-16221582D01*
X8760500Y-15778418D01*
X8749582Y-15703482D01*
X8711066Y-15624696D01*
X8693078Y-15587900D01*
X8693076Y-15587897D01*
X8602102Y-15496923D01*
X8602099Y-15496921D01*
X8486521Y-15440419D01*
X8486519Y-15440418D01*
X8486518Y-15440418D01*
X8411582Y-15429500D01*
X8224000Y-15429500D01*
X8156961Y-15409815D01*
X8111206Y-15357011D01*
X8100000Y-15305500D01*
X8100000Y-13624000D01*
X8119685Y-13556961D01*
X8172489Y-13511206D01*
X8224000Y-13500000D01*
X8874967Y-13500000D01*
X8931262Y-13513515D01*
G37*
%TD.AperFunction*%
%TD*%
%TA.AperFunction,Conductor*%
%TO.N,GND*%
G36*
X10443039Y-5269685D02*
G01*
X10488794Y-5322489D01*
X10500000Y-5374000D01*
X10500000Y-10020500D01*
X10480315Y-10087539D01*
X10427511Y-10133294D01*
X10376000Y-10144500D01*
X9123997Y-10144500D01*
X9069687Y-10150338D01*
X9018181Y-10161543D01*
X9018172Y-10161546D01*
X8991807Y-10168779D01*
X8991796Y-10168783D01*
X8905181Y-10218105D01*
X8905173Y-10218111D01*
X8852371Y-10263863D01*
X8820743Y-10296640D01*
X8774534Y-10384977D01*
X8774533Y-10384977D01*
X8754851Y-10452009D01*
X8754848Y-10452021D01*
X8744500Y-10523998D01*
X8744500Y-10524000D01*
X8744500Y-10646620D01*
X8751559Y-10706265D01*
X8751560Y-10706269D01*
X8765926Y-10766106D01*
X8765768Y-10766143D01*
X8768347Y-10777374D01*
X8773472Y-10809724D01*
X8774999Y-10829127D01*
X8774999Y-11170870D01*
X8773472Y-11190264D01*
X8770559Y-11208659D01*
X8768346Y-11222629D01*
X8765773Y-11233847D01*
X8765929Y-11233885D01*
X8762060Y-11250000D01*
X7078271Y-11250000D01*
X7078271Y-10070200D01*
X7052492Y-9973993D01*
X7002692Y-9887736D01*
X6932264Y-9817308D01*
X6500000Y-9385044D01*
X6500000Y-5250000D01*
X10376000Y-5250000D01*
X10443039Y-5269685D01*
G37*
%TD.AperFunction*%
%TD*%
%TA.AperFunction,Conductor*%
%TO.N,GND*%
G36*
X8293333Y-27059179D02*
G01*
X8337680Y-27087680D01*
X9343294Y-28093294D01*
X9376779Y-28154617D01*
X9378086Y-28161577D01*
X9392459Y-28252327D01*
X9442865Y-28351254D01*
X9442870Y-28351261D01*
X9521368Y-28429759D01*
X9521371Y-28429761D01*
X9521374Y-28429764D01*
X9620300Y-28480169D01*
X9620301Y-28480169D01*
X9620303Y-28480170D01*
X9620302Y-28480170D01*
X9711051Y-28494543D01*
X9774186Y-28524472D01*
X9779335Y-28529335D01*
X9808530Y-28558530D01*
X9842015Y-28619853D01*
X9843322Y-28626813D01*
X9860281Y-28733890D01*
X9910687Y-28832817D01*
X9910692Y-28832824D01*
X9989190Y-28911322D01*
X9989193Y-28911324D01*
X9989196Y-28911327D01*
X10039769Y-28937095D01*
X10088124Y-28961733D01*
X10195201Y-28978692D01*
X10258335Y-29008621D01*
X10263484Y-29013484D01*
X11662319Y-30412319D01*
X11695804Y-30473642D01*
X11690820Y-30543334D01*
X11662319Y-30587681D01*
X8837681Y-33412319D01*
X8776358Y-33445804D01*
X8706666Y-33440820D01*
X8662319Y-33412319D01*
X6470785Y-31220785D01*
X6437300Y-31159462D01*
X6435999Y-31152539D01*
X6423815Y-31075613D01*
X6373410Y-30976687D01*
X6373407Y-30976684D01*
X6373405Y-30976681D01*
X6294907Y-30898183D01*
X6294903Y-30898180D01*
X6294902Y-30898179D01*
X6213795Y-30856853D01*
X6195973Y-30847772D01*
X6191813Y-30847114D01*
X6187163Y-30844909D01*
X6186690Y-30844756D01*
X6186709Y-30844694D01*
X6128679Y-30817185D01*
X6091747Y-30757874D01*
X6088739Y-30744049D01*
X6083269Y-30709511D01*
X6032864Y-30610585D01*
X6032861Y-30610582D01*
X6032859Y-30610579D01*
X5954361Y-30532081D01*
X5954357Y-30532078D01*
X5954356Y-30532077D01*
X5915086Y-30512068D01*
X5855427Y-30481670D01*
X5820900Y-30476202D01*
X5757765Y-30446272D01*
X5720835Y-30386960D01*
X5717825Y-30373121D01*
X5717167Y-30368965D01*
X5708937Y-30352812D01*
X5666762Y-30270039D01*
X5666759Y-30270036D01*
X5666757Y-30270033D01*
X5588259Y-30191535D01*
X5588256Y-30191533D01*
X5588254Y-30191531D01*
X5489328Y-30141126D01*
X5489326Y-30141125D01*
X5489325Y-30141125D01*
X5469780Y-30138029D01*
X5406646Y-30108098D01*
X5369716Y-30048786D01*
X5366707Y-30034953D01*
X5363612Y-30015411D01*
X5363612Y-30015409D01*
X5360962Y-30010208D01*
X5348065Y-29941544D01*
X5374339Y-29876803D01*
X5383748Y-29866251D01*
X8162322Y-27087677D01*
X8223641Y-27054195D01*
X8293333Y-27059179D01*
G37*
%TD.AperFunction*%
%TD*%
%TA.AperFunction,Conductor*%
%TO.N,Net-(U5-VDD)*%
G36*
X11794525Y-38301262D02*
G01*
X11797965Y-38301756D01*
X11824000Y-38305500D01*
X12670510Y-38305500D01*
X12737549Y-38325185D01*
X12783304Y-38377989D01*
X12794332Y-38422862D01*
X12794500Y-38426003D01*
X12799289Y-38470539D01*
X12800000Y-38483795D01*
X12800000Y-39576000D01*
X12780315Y-39643039D01*
X12727511Y-39688794D01*
X12676000Y-39700000D01*
X11724000Y-39700000D01*
X11656961Y-39680315D01*
X11611206Y-39627511D01*
X11600000Y-39576000D01*
X11600000Y-38424000D01*
X11619685Y-38356961D01*
X11672489Y-38311206D01*
X11724000Y-38300000D01*
X11776878Y-38300000D01*
X11794525Y-38301262D01*
G37*
%TD.AperFunction*%
%TD*%
%TA.AperFunction,Conductor*%
%TO.N,GND*%
G36*
X14693039Y-9519685D02*
G01*
X14738794Y-9572489D01*
X14750000Y-9624000D01*
X14750000Y-10494168D01*
X14730315Y-10561207D01*
X14713681Y-10581849D01*
X14667349Y-10628181D01*
X14606026Y-10661666D01*
X14579668Y-10664500D01*
X14217145Y-10664500D01*
X14145842Y-10683605D01*
X14075992Y-10681942D01*
X14059290Y-10675231D01*
X14001391Y-10646926D01*
X13933261Y-10637000D01*
X13933260Y-10637000D01*
X13566740Y-10637000D01*
X13566739Y-10637000D01*
X13498608Y-10646926D01*
X13393514Y-10698303D01*
X13310803Y-10781014D01*
X13259426Y-10886108D01*
X13249500Y-10954239D01*
X13249500Y-11126000D01*
X13229815Y-11193039D01*
X13177011Y-11238794D01*
X13125500Y-11250000D01*
X12624000Y-11250000D01*
X12556961Y-11230315D01*
X12511206Y-11177511D01*
X12500000Y-11126000D01*
X12500000Y-10451362D01*
X12519685Y-10384323D01*
X12536319Y-10363681D01*
X13363681Y-9536319D01*
X13425004Y-9502834D01*
X13451362Y-9500000D01*
X14626000Y-9500000D01*
X14693039Y-9519685D01*
G37*
%TD.AperFunction*%
%TD*%
%TA.AperFunction,Conductor*%
%TO.N,+3V3*%
G36*
X5141663Y-23560850D02*
G01*
X5187648Y-23591019D01*
X6248567Y-24692743D01*
X6279022Y-24746660D01*
X6300915Y-24828368D01*
X6300916Y-24828369D01*
X6322171Y-24865185D01*
X6340939Y-24897691D01*
X6357298Y-24926025D01*
X6357300Y-24926028D01*
X7118780Y-25687506D01*
X7118809Y-25687537D01*
X7577955Y-26146681D01*
X7611440Y-26208004D01*
X7606456Y-26277695D01*
X7577955Y-26322043D01*
X7400470Y-26499528D01*
X7339147Y-26533013D01*
X7269455Y-26528029D01*
X7225109Y-26499529D01*
X6910703Y-26185123D01*
X6769065Y-26043485D01*
X6749235Y-26027776D01*
X6749233Y-26027775D01*
X6749232Y-26027774D01*
X6722635Y-26017470D01*
X6679752Y-25989526D01*
X6435695Y-25745469D01*
X6402210Y-25684146D01*
X6400903Y-25638389D01*
X6407656Y-25595753D01*
X6407656Y-25595749D01*
X6387811Y-25470452D01*
X6387811Y-25470451D01*
X6387810Y-25470449D01*
X6330214Y-25357411D01*
X6330210Y-25357407D01*
X6330209Y-25357405D01*
X6240511Y-25267707D01*
X6240508Y-25267705D01*
X6240506Y-25267703D01*
X6127468Y-25210107D01*
X6127467Y-25210106D01*
X6127464Y-25210105D01*
X6002167Y-25190261D01*
X6002161Y-25190261D01*
X5876863Y-25210105D01*
X5876862Y-25210105D01*
X5803913Y-25247275D01*
X5763822Y-25267703D01*
X5763820Y-25267704D01*
X5755127Y-25272134D01*
X5753347Y-25268641D01*
X5705362Y-25285609D01*
X5637353Y-25269591D01*
X5598316Y-25234677D01*
X5577650Y-25206232D01*
X5561679Y-25190261D01*
X5293770Y-24922352D01*
X5290071Y-24919193D01*
X5290284Y-24918942D01*
X5279946Y-24909944D01*
X5201391Y-24828368D01*
X4584402Y-24187648D01*
X4552081Y-24125706D01*
X4558379Y-24056120D01*
X4586040Y-24013959D01*
X5010650Y-23589349D01*
X5071971Y-23555866D01*
X5141663Y-23560850D01*
G37*
%TD.AperFunction*%
%TD*%
%TA.AperFunction,Conductor*%
%TO.N,GND*%
G36*
X13315677Y-20219685D02*
G01*
X13336319Y-20236319D01*
X14510255Y-21410255D01*
X14543740Y-21471578D01*
X14538756Y-21541270D01*
X14508193Y-21587632D01*
X12803128Y-23215196D01*
X12741043Y-23247246D01*
X12717509Y-23249500D01*
X12623952Y-23249500D01*
X12595508Y-23257122D01*
X12525658Y-23255458D01*
X12475736Y-23225028D01*
X11460121Y-22209413D01*
X11460117Y-22209410D01*
X11460114Y-22209407D01*
X11417797Y-22181131D01*
X11398172Y-22168017D01*
X11398170Y-22168016D01*
X11300433Y-22148576D01*
X11300429Y-22148576D01*
X11202695Y-22168016D01*
X11202689Y-22168018D01*
X11146626Y-22205478D01*
X11079948Y-22226355D01*
X11012569Y-22207869D01*
X10990056Y-22190056D01*
X10650000Y-21850000D01*
X10000000Y-21200000D01*
X10963681Y-20236319D01*
X11025004Y-20202834D01*
X11051362Y-20200000D01*
X13248638Y-20200000D01*
X13315677Y-20219685D01*
G37*
%TD.AperFunction*%
%TD*%
%TA.AperFunction,Conductor*%
%TO.N,GND*%
G36*
X4867264Y-5269685D02*
G01*
X4913019Y-5322489D01*
X4922963Y-5391647D01*
X4912607Y-5426405D01*
X4906027Y-5440514D01*
X4899500Y-5490098D01*
X4899500Y-5909894D01*
X4899501Y-5909900D01*
X4906028Y-5959487D01*
X4906029Y-5959489D01*
X4906029Y-5959490D01*
X4956776Y-6068316D01*
X4965410Y-6076950D01*
X4998895Y-6138273D01*
X5001729Y-6164631D01*
X5001729Y-6249761D01*
X4982044Y-6316800D01*
X4965410Y-6337442D01*
X4890365Y-6412486D01*
X4839355Y-6516828D01*
X4839355Y-6516830D01*
X4829500Y-6584472D01*
X4829500Y-6945528D01*
X4837947Y-7003506D01*
X4839355Y-7013171D01*
X4890365Y-7117513D01*
X4935171Y-7162319D01*
X4968656Y-7223642D01*
X4963672Y-7293334D01*
X4935171Y-7337681D01*
X4890365Y-7382486D01*
X4839355Y-7486828D01*
X4839355Y-7486830D01*
X4829500Y-7554472D01*
X4829500Y-7915528D01*
X4839355Y-7983170D01*
X4890364Y-8087511D01*
X4965411Y-8162558D01*
X4998895Y-8223879D01*
X5001729Y-8250238D01*
X5001729Y-8335369D01*
X4982044Y-8402408D01*
X4965410Y-8423050D01*
X4956776Y-8431683D01*
X4906027Y-8540514D01*
X4899500Y-8590098D01*
X4899500Y-9009894D01*
X4899501Y-9009900D01*
X4906028Y-9059487D01*
X4956776Y-9168316D01*
X5041684Y-9253224D01*
X5150513Y-9303972D01*
X5200099Y-9310500D01*
X5304181Y-9310499D01*
X5371219Y-9330183D01*
X5391862Y-9346818D01*
X6285410Y-10240366D01*
X6318895Y-10301689D01*
X6321729Y-10328047D01*
X6321729Y-23126000D01*
X6302044Y-23193039D01*
X6249240Y-23238794D01*
X6197729Y-23250000D01*
X4870227Y-23250000D01*
X4808226Y-23233386D01*
X4802713Y-23230203D01*
X4802710Y-23230201D01*
X4790602Y-23226957D01*
X4778495Y-23223713D01*
X4778492Y-23223712D01*
X4740300Y-23213478D01*
X4688131Y-23199500D01*
X4374000Y-23199500D01*
X4306961Y-23179815D01*
X4261206Y-23127011D01*
X4250000Y-23075500D01*
X4250000Y-23074013D01*
X4269685Y-23006974D01*
X4270847Y-23005198D01*
X4288867Y-22978231D01*
X4300500Y-22919748D01*
X4300500Y-22190477D01*
X4320185Y-22123438D01*
X4336819Y-22102796D01*
X4872945Y-21566669D01*
X4934266Y-21533186D01*
X4941197Y-21531884D01*
X4984661Y-21525000D01*
X5083587Y-21474595D01*
X5162095Y-21396087D01*
X5212500Y-21297161D01*
X5212500Y-21297159D01*
X5212501Y-21297158D01*
X5229869Y-21187502D01*
X5229869Y-21187497D01*
X5212501Y-21077841D01*
X5212500Y-21077839D01*
X5162095Y-20978913D01*
X5162092Y-20978910D01*
X5162090Y-20978907D01*
X5083592Y-20900409D01*
X5083588Y-20900406D01*
X5083587Y-20900405D01*
X5079743Y-20898446D01*
X4984658Y-20849998D01*
X4956078Y-20845472D01*
X4892943Y-20815542D01*
X4887796Y-20810680D01*
X4286319Y-20209203D01*
X4252834Y-20147880D01*
X4250000Y-20121522D01*
X4250000Y-18974013D01*
X4269685Y-18906974D01*
X4270847Y-18905198D01*
X4288867Y-18878231D01*
X4300500Y-18819748D01*
X4300500Y-17880252D01*
X4300500Y-17880249D01*
X4300499Y-17880247D01*
X4288868Y-17821773D01*
X4288867Y-17821772D01*
X4288867Y-17821769D01*
X4270897Y-17794876D01*
X4250020Y-17728199D01*
X4250000Y-17725986D01*
X4250000Y-16644500D01*
X4269685Y-16577461D01*
X4322489Y-16531706D01*
X4374000Y-16520500D01*
X4684316Y-16520500D01*
X4700600Y-16518356D01*
X4733172Y-16514068D01*
X4840403Y-16464065D01*
X4840403Y-16464064D01*
X4844578Y-16462118D01*
X4896983Y-16450500D01*
X5059306Y-16450500D01*
X5059309Y-16450500D01*
X5173886Y-16419799D01*
X5276613Y-16360489D01*
X5360489Y-16276613D01*
X5419799Y-16173886D01*
X5450500Y-16059309D01*
X5450500Y-15940691D01*
X5419799Y-15826114D01*
X5360489Y-15723387D01*
X5276613Y-15639511D01*
X5173886Y-15580201D01*
X5059309Y-15549500D01*
X5059306Y-15549500D01*
X4896983Y-15549500D01*
X4844578Y-15537882D01*
X4840403Y-15535935D01*
X4733172Y-15485932D01*
X4733170Y-15485931D01*
X4733171Y-15485931D01*
X4684316Y-15479500D01*
X4684315Y-15479500D01*
X4374000Y-15479500D01*
X4306961Y-15459815D01*
X4261206Y-15407011D01*
X4250000Y-15355500D01*
X4250000Y-15174013D01*
X4269685Y-15106974D01*
X4270847Y-15105198D01*
X4288867Y-15078231D01*
X4300500Y-15019748D01*
X4300500Y-14080252D01*
X4300500Y-14080249D01*
X4300499Y-14080247D01*
X4288868Y-14021773D01*
X4288867Y-14021772D01*
X4288867Y-14021769D01*
X4270897Y-13994876D01*
X4250020Y-13928199D01*
X4250000Y-13925986D01*
X4250000Y-11788977D01*
X4269685Y-11721938D01*
X4322489Y-11676183D01*
X4391647Y-11666239D01*
X4455203Y-11695264D01*
X4461681Y-11701296D01*
X4515772Y-11755387D01*
X4538576Y-11786773D01*
X4587905Y-11883587D01*
X4587907Y-11883589D01*
X4587909Y-11883592D01*
X4666407Y-11962090D01*
X4666410Y-11962092D01*
X4666413Y-11962095D01*
X4765339Y-12012500D01*
X4765341Y-12012501D01*
X4874998Y-12029869D01*
X4875000Y-12029869D01*
X4875002Y-12029869D01*
X4984658Y-12012501D01*
X4984659Y-12012500D01*
X4984661Y-12012500D01*
X5083587Y-11962095D01*
X5162095Y-11883587D01*
X5212500Y-11784661D01*
X5212500Y-11784659D01*
X5212501Y-11784658D01*
X5229869Y-11675002D01*
X5229869Y-11674997D01*
X5212501Y-11565341D01*
X5166572Y-11475200D01*
X5162095Y-11466413D01*
X5162092Y-11466410D01*
X5162090Y-11466407D01*
X5083592Y-11387909D01*
X5083588Y-11387906D01*
X5083587Y-11387905D01*
X4984661Y-11337500D01*
X4984659Y-11337499D01*
X4984658Y-11337499D01*
X4896668Y-11323562D01*
X4833534Y-11293632D01*
X4828386Y-11288770D01*
X4336819Y-10797203D01*
X4303334Y-10735880D01*
X4300500Y-10709522D01*
X4300500Y-9980249D01*
X4300499Y-9980247D01*
X4288868Y-9921773D01*
X4288867Y-9921772D01*
X4288867Y-9921769D01*
X4270897Y-9894876D01*
X4250020Y-9828199D01*
X4250000Y-9825986D01*
X4250000Y-9750000D01*
X3374000Y-9750000D01*
X3306961Y-9730315D01*
X3261206Y-9677511D01*
X3250000Y-9626000D01*
X3250000Y-5374000D01*
X3269685Y-5306961D01*
X3322489Y-5261206D01*
X3374000Y-5250000D01*
X4800225Y-5250000D01*
X4867264Y-5269685D01*
G37*
%TD.AperFunction*%
%TA.AperFunction,Conductor*%
G36*
X6500000Y-9385044D02*
G01*
X5896818Y-8781862D01*
X5863333Y-8720539D01*
X5860499Y-8694181D01*
X5860499Y-8590105D01*
X5860499Y-8590100D01*
X5853972Y-8540513D01*
X5803224Y-8431684D01*
X5794590Y-8423050D01*
X5761105Y-8361727D01*
X5758271Y-8335369D01*
X5758271Y-8190238D01*
X5777956Y-8123199D01*
X5794592Y-8102555D01*
X5809636Y-8087511D01*
X5860645Y-7983170D01*
X5870500Y-7915528D01*
X5870500Y-7554472D01*
X5860645Y-7486830D01*
X5809636Y-7382489D01*
X5809634Y-7382487D01*
X5809634Y-7382486D01*
X5764829Y-7337681D01*
X5731344Y-7276358D01*
X5736328Y-7206666D01*
X5764829Y-7162319D01*
X5809634Y-7117513D01*
X5809636Y-7117511D01*
X5860645Y-7013170D01*
X5870500Y-6945528D01*
X5870500Y-6584472D01*
X5860645Y-6516830D01*
X5809636Y-6412489D01*
X5809634Y-6412487D01*
X5809634Y-6412486D01*
X5794590Y-6397442D01*
X5761105Y-6336119D01*
X5758271Y-6309761D01*
X5758271Y-6164631D01*
X5777956Y-6097592D01*
X5794590Y-6076950D01*
X5803224Y-6068316D01*
X5853972Y-5959487D01*
X5860500Y-5909901D01*
X5860499Y-5490100D01*
X5853972Y-5440513D01*
X5847393Y-5426406D01*
X5836901Y-5357330D01*
X5865419Y-5293545D01*
X5923895Y-5255304D01*
X5959775Y-5250000D01*
X6500000Y-5250000D01*
X6500000Y-9385044D01*
G37*
%TD.AperFunction*%
%TD*%
%TA.AperFunction,Conductor*%
%TO.N,+3V3*%
G36*
X12943039Y-15019685D02*
G01*
X12988794Y-15072489D01*
X13000000Y-15124000D01*
X13000000Y-16376000D01*
X12980315Y-16443039D01*
X12927511Y-16488794D01*
X12876000Y-16500000D01*
X11624000Y-16500000D01*
X11556961Y-16480315D01*
X11511206Y-16427511D01*
X11500000Y-16376000D01*
X11500000Y-15124000D01*
X11519685Y-15056961D01*
X11572489Y-15011206D01*
X11624000Y-15000000D01*
X12876000Y-15000000D01*
X12943039Y-15019685D01*
G37*
%TD.AperFunction*%
%TD*%
%TA.AperFunction,Conductor*%
%TO.N,Net-(D4-K)*%
G36*
X11193039Y-13669685D02*
G01*
X11238794Y-13722489D01*
X11250000Y-13774000D01*
X11250000Y-15076877D01*
X11248738Y-15094523D01*
X11244500Y-15123998D01*
X11244500Y-16376000D01*
X11249290Y-16420554D01*
X11250000Y-16433809D01*
X11250000Y-17400000D01*
X12125500Y-17400000D01*
X12192539Y-17419685D01*
X12238294Y-17472489D01*
X12249500Y-17524000D01*
X12249500Y-18569017D01*
X12260292Y-18637157D01*
X12264354Y-18662804D01*
X12321950Y-18775842D01*
X12321952Y-18775844D01*
X12321954Y-18775847D01*
X12411652Y-18865545D01*
X12411654Y-18865546D01*
X12411658Y-18865550D01*
X12524696Y-18923146D01*
X12524698Y-18923147D01*
X12618475Y-18937999D01*
X12618481Y-18938000D01*
X12876000Y-18937999D01*
X12943039Y-18957683D01*
X12988794Y-19010487D01*
X13000000Y-19061999D01*
X13000000Y-19820500D01*
X12980315Y-19887539D01*
X12927511Y-19933294D01*
X12876000Y-19944500D01*
X11051361Y-19944500D01*
X11024065Y-19945963D01*
X11024060Y-19945963D01*
X11024048Y-19945964D01*
X11024040Y-19945964D01*
X11024011Y-19945967D01*
X10997689Y-19948797D01*
X10997687Y-19948798D01*
X10902558Y-19978586D01*
X10902556Y-19978586D01*
X10902556Y-19978587D01*
X10891118Y-19984832D01*
X10831692Y-20000000D01*
X9924000Y-20000000D01*
X9856961Y-19980315D01*
X9811206Y-19927511D01*
X9800000Y-19876000D01*
X9800000Y-13774000D01*
X9819685Y-13706961D01*
X9872489Y-13661206D01*
X9924000Y-13650000D01*
X11126000Y-13650000D01*
X11193039Y-13669685D01*
G37*
%TD.AperFunction*%
%TD*%
M02*
