%TF.GenerationSoftware,KiCad,Pcbnew,8.0.6*%
%TF.CreationDate,2024-11-16T14:05:28-06:00*%
%TF.ProjectId,ATesp32,41546573-7033-4322-9e6b-696361645f70,rev?*%
%TF.SameCoordinates,PX47868c0PY2faf080*%
%TF.FileFunction,Soldermask,Top*%
%TF.FilePolarity,Negative*%
%FSLAX46Y46*%
G04 Gerber Fmt 4.6, Leading zero omitted, Abs format (unit mm)*
G04 Created by KiCad (PCBNEW 8.0.6) date 2024-11-16 14:05:28*
%MOMM*%
%LPD*%
G01*
G04 APERTURE LIST*
G04 Aperture macros list*
%AMRoundRect*
0 Rectangle with rounded corners*
0 $1 Rounding radius*
0 $2 $3 $4 $5 $6 $7 $8 $9 X,Y pos of 4 corners*
0 Add a 4 corners polygon primitive as box body*
4,1,4,$2,$3,$4,$5,$6,$7,$8,$9,$2,$3,0*
0 Add four circle primitives for the rounded corners*
1,1,$1+$1,$2,$3*
1,1,$1+$1,$4,$5*
1,1,$1+$1,$6,$7*
1,1,$1+$1,$8,$9*
0 Add four rect primitives between the rounded corners*
20,1,$1+$1,$2,$3,$4,$5,0*
20,1,$1+$1,$4,$5,$6,$7,0*
20,1,$1+$1,$6,$7,$8,$9,0*
20,1,$1+$1,$8,$9,$2,$3,0*%
%AMRotRect*
0 Rectangle, with rotation*
0 The origin of the aperture is its center*
0 $1 length*
0 $2 width*
0 $3 Rotation angle, in degrees counterclockwise*
0 Add horizontal line*
21,1,$1,$2,0,0,$3*%
G04 Aperture macros list end*
%ADD10RoundRect,0.135000X-0.135000X-0.185000X0.135000X-0.185000X0.135000X0.185000X-0.135000X0.185000X0*%
%ADD11RoundRect,0.140000X0.021213X-0.219203X0.219203X-0.021213X-0.021213X0.219203X-0.219203X0.021213X0*%
%ADD12RoundRect,0.140000X0.140000X0.170000X-0.140000X0.170000X-0.140000X-0.170000X0.140000X-0.170000X0*%
%ADD13RoundRect,0.140000X-0.021213X0.219203X-0.219203X0.021213X0.021213X-0.219203X0.219203X-0.021213X0*%
%ADD14RoundRect,0.150000X0.150000X-0.587500X0.150000X0.587500X-0.150000X0.587500X-0.150000X-0.587500X0*%
%ADD15R,1.000000X0.900000*%
%ADD16RoundRect,0.150000X0.150000X-0.512500X0.150000X0.512500X-0.150000X0.512500X-0.150000X-0.512500X0*%
%ADD17RoundRect,0.150000X-0.150000X0.512500X-0.150000X-0.512500X0.150000X-0.512500X0.150000X0.512500X0*%
%ADD18RoundRect,0.135000X0.135000X0.185000X-0.135000X0.185000X-0.135000X-0.185000X0.135000X-0.185000X0*%
%ADD19RoundRect,0.140000X0.219203X0.021213X0.021213X0.219203X-0.219203X-0.021213X-0.021213X-0.219203X0*%
%ADD20RoundRect,0.147500X-0.147500X-0.172500X0.147500X-0.172500X0.147500X0.172500X-0.147500X0.172500X0*%
%ADD21RoundRect,0.135000X-0.185000X0.135000X-0.185000X-0.135000X0.185000X-0.135000X0.185000X0.135000X0*%
%ADD22RoundRect,0.135000X0.185000X-0.135000X0.185000X0.135000X-0.185000X0.135000X-0.185000X-0.135000X0*%
%ADD23RoundRect,0.112500X-0.112500X0.187500X-0.112500X-0.187500X0.112500X-0.187500X0.112500X0.187500X0*%
%ADD24RoundRect,0.062500X0.062500X-0.350000X0.062500X0.350000X-0.062500X0.350000X-0.062500X-0.350000X0*%
%ADD25RoundRect,0.062500X0.350000X-0.062500X0.350000X0.062500X-0.350000X0.062500X-0.350000X-0.062500X0*%
%ADD26R,2.600000X2.600000*%
%ADD27RoundRect,0.112500X0.187500X0.112500X-0.187500X0.112500X-0.187500X-0.112500X0.187500X-0.112500X0*%
%ADD28R,1.600000X1.600000*%
%ADD29O,1.600000X1.600000*%
%ADD30RoundRect,0.250000X0.250000X1.500000X-0.250000X1.500000X-0.250000X-1.500000X0.250000X-1.500000X0*%
%ADD31RoundRect,0.250001X0.499999X1.449999X-0.499999X1.449999X-0.499999X-1.449999X0.499999X-1.449999X0*%
%ADD32RoundRect,0.250000X0.650000X-0.350000X0.650000X0.350000X-0.650000X0.350000X-0.650000X-0.350000X0*%
%ADD33RoundRect,0.147500X0.172500X-0.147500X0.172500X0.147500X-0.172500X0.147500X-0.172500X-0.147500X0*%
%ADD34RoundRect,0.147500X-0.172500X0.147500X-0.172500X-0.147500X0.172500X-0.147500X0.172500X0.147500X0*%
%ADD35RoundRect,0.140000X-0.140000X-0.170000X0.140000X-0.170000X0.140000X0.170000X-0.140000X0.170000X0*%
%ADD36RoundRect,0.050000X-0.282843X0.212132X0.212132X-0.282843X0.282843X-0.212132X-0.212132X0.282843X0*%
%ADD37RoundRect,0.050000X-0.282843X-0.212132X-0.212132X-0.282843X0.282843X0.212132X0.212132X0.282843X0*%
%ADD38RotRect,4.000000X4.000000X315.000000*%
%ADD39C,0.650000*%
%ADD40R,0.600000X1.240000*%
%ADD41R,0.300000X1.240000*%
%ADD42O,1.000000X2.100000*%
%ADD43O,1.000000X1.800000*%
%ADD44RoundRect,0.140000X-0.170000X0.140000X-0.170000X-0.140000X0.170000X-0.140000X0.170000X0.140000X0*%
%ADD45RotRect,1.400000X1.200000X135.000000*%
G04 APERTURE END LIST*
D10*
%TO.C,R14*%
X9890000Y-36000000D03*
X10910000Y-36000000D03*
%TD*%
D11*
%TO.C,C5*%
X12660589Y-27839411D03*
X13339411Y-27160589D03*
%TD*%
D10*
%TO.C,R4*%
X12740000Y-19500000D03*
X13760000Y-19500000D03*
%TD*%
D12*
%TO.C,C9*%
X5380000Y-5700000D03*
X4420000Y-5700000D03*
%TD*%
D13*
%TO.C,C1*%
X5739411Y-24760589D03*
X5060589Y-25439411D03*
%TD*%
%TO.C,C3*%
X5039411Y-24060589D03*
X4360589Y-24739411D03*
%TD*%
D14*
%TO.C,Q1*%
X8300000Y-14437500D03*
X10200000Y-14437500D03*
X9250000Y-12562500D03*
%TD*%
D15*
%TO.C,SW1*%
X5200000Y-10450000D03*
X5200000Y-14550000D03*
X3600000Y-10450000D03*
X3600000Y-14550000D03*
%TD*%
D16*
%TO.C,U4*%
X11850000Y-18025000D03*
X12800000Y-18025000D03*
X13750000Y-18025000D03*
X13750000Y-15750000D03*
X11850000Y-15750000D03*
%TD*%
D17*
%TO.C,U3*%
X13750000Y-11500000D03*
X12800000Y-11500000D03*
X11850000Y-11500000D03*
X11850000Y-13775000D03*
X13750000Y-13775000D03*
%TD*%
D18*
%TO.C,R1*%
X4509999Y-16000000D03*
X3490001Y-16000000D03*
%TD*%
D19*
%TO.C,C7*%
X8939411Y-24039411D03*
X8260589Y-23360589D03*
%TD*%
D20*
%TO.C,D6*%
X12415000Y-37000000D03*
X13385000Y-37000000D03*
%TD*%
D15*
%TO.C,SW2*%
X5200000Y-18350000D03*
X5200000Y-22450000D03*
X3600000Y-18350000D03*
X3600000Y-22450000D03*
%TD*%
D21*
%TO.C,R12*%
X13500000Y-38290000D03*
X13500000Y-39310000D03*
%TD*%
D22*
%TO.C,R11*%
X13500000Y-41310000D03*
X13500000Y-40290000D03*
%TD*%
D23*
%TO.C,D1*%
X5350000Y-40950000D03*
X5350000Y-43050000D03*
%TD*%
D18*
%TO.C,R8*%
X12259999Y-35000000D03*
X11240001Y-35000000D03*
%TD*%
D24*
%TO.C,U5*%
X7750000Y-42100000D03*
X8250000Y-42100000D03*
X8750000Y-42100000D03*
X9250000Y-42100000D03*
X9750000Y-42100000D03*
X10250000Y-42100000D03*
D25*
X10937500Y-41412500D03*
X10937500Y-40912500D03*
X10937500Y-40412500D03*
X10937500Y-39912500D03*
X10937500Y-39412500D03*
X10937500Y-38912500D03*
D24*
X10250000Y-38225000D03*
X9750000Y-38225000D03*
X9250000Y-38225000D03*
X8750000Y-38225000D03*
X8250000Y-38225000D03*
X7750000Y-38225000D03*
D25*
X7062500Y-38912500D03*
X7062500Y-39412500D03*
X7062500Y-39912500D03*
X7062500Y-40412500D03*
X7062500Y-40912500D03*
X7062500Y-41412500D03*
D26*
X9000000Y-40162500D03*
%TD*%
D10*
%TO.C,R2*%
X8240000Y-16000000D03*
X9260000Y-16000000D03*
%TD*%
D27*
%TO.C,D4*%
X10550000Y-17500000D03*
X8450000Y-17500000D03*
%TD*%
D18*
%TO.C,R5*%
X7760000Y-43250000D03*
X6740000Y-43250000D03*
%TD*%
D21*
%TO.C,R3*%
X15100000Y-14990000D03*
X15100000Y-16010000D03*
%TD*%
D22*
%TO.C,R7*%
X3800000Y-43160000D03*
X3800000Y-42140000D03*
%TD*%
D20*
%TO.C,D5*%
X12415000Y-36000000D03*
X13385000Y-36000000D03*
%TD*%
D28*
%TO.C,U2*%
X1380000Y-1370000D03*
D29*
X1380000Y-3910000D03*
X1380000Y-6450000D03*
X1380000Y-8990000D03*
X1380000Y-11530000D03*
X1380000Y-14070000D03*
X1380000Y-16610000D03*
X1380000Y-19150000D03*
X1380000Y-21690000D03*
X1380000Y-24230000D03*
X1380000Y-26770000D03*
X1380000Y-29310000D03*
X1380000Y-31850000D03*
X1380000Y-34390000D03*
X1380000Y-36930000D03*
X1380000Y-39470000D03*
X1380000Y-42010000D03*
X1380000Y-44550000D03*
X1380000Y-47090000D03*
X1380000Y-49630000D03*
X16620000Y-49630000D03*
X16620000Y-47090000D03*
X16620000Y-44550000D03*
X16620000Y-42010000D03*
X16620000Y-39470000D03*
X16620000Y-36930000D03*
X16620000Y-34390000D03*
X16620000Y-31850000D03*
X16620000Y-29310000D03*
X16620000Y-26770000D03*
X16620000Y-24230000D03*
X16620000Y-21690000D03*
X16620000Y-19150000D03*
X16620000Y-16610000D03*
X16620000Y-14070000D03*
X16620000Y-11530000D03*
X16620000Y-8990000D03*
X16620000Y-6450000D03*
X16620000Y-3910000D03*
X16620000Y-1370000D03*
%TD*%
D30*
%TO.C,J2*%
X12000000Y-8250000D03*
X10000000Y-8250000D03*
D31*
X14350000Y-2500000D03*
X7650000Y-2500000D03*
%TD*%
D32*
%TO.C,AE1*%
X4800000Y-4000000D03*
X4800000Y-1100000D03*
%TD*%
D33*
%TO.C,L2*%
X5350000Y-7735000D03*
X5350000Y-6765000D03*
%TD*%
D34*
%TO.C,D2*%
X15100000Y-13015000D03*
X15100000Y-13985000D03*
%TD*%
D35*
%TO.C,C10*%
X3520000Y-17000000D03*
X4480000Y-17000000D03*
%TD*%
D21*
%TO.C,R13*%
X12200000Y-39190000D03*
X12200000Y-40210000D03*
%TD*%
D35*
%TO.C,C17*%
X10500000Y-43250000D03*
X11460000Y-43250000D03*
%TD*%
D18*
%TO.C,R9*%
X9110000Y-37000000D03*
X8090000Y-37000000D03*
%TD*%
D21*
%TO.C,R6*%
X15100000Y-10990000D03*
X15100000Y-12010000D03*
%TD*%
D36*
%TO.C,U1*%
X7648959Y-25722004D03*
X7366117Y-26004847D03*
X7083274Y-26287689D03*
X6800431Y-26570532D03*
X6517588Y-26853375D03*
X6234746Y-27136218D03*
X5951903Y-27419060D03*
X5669060Y-27701903D03*
X5386218Y-27984746D03*
X5103375Y-28267588D03*
X4820532Y-28550431D03*
X4537689Y-28833274D03*
X4254847Y-29116117D03*
X3972004Y-29398959D03*
D37*
X3972004Y-30601041D03*
X4254847Y-30883883D03*
X4537689Y-31166726D03*
X4820532Y-31449569D03*
X5103375Y-31732412D03*
X5386218Y-32015254D03*
X5669060Y-32298097D03*
X5951903Y-32580940D03*
X6234746Y-32863782D03*
X6517588Y-33146625D03*
X6800431Y-33429468D03*
X7083274Y-33712311D03*
X7366117Y-33995153D03*
X7648959Y-34277996D03*
D36*
X8851041Y-34277996D03*
X9133883Y-33995153D03*
X9416726Y-33712311D03*
X9699569Y-33429468D03*
X9982412Y-33146625D03*
X10265254Y-32863782D03*
X10548097Y-32580940D03*
X10830940Y-32298097D03*
X11113782Y-32015254D03*
X11396625Y-31732412D03*
X11679468Y-31449569D03*
X11962311Y-31166726D03*
X12245153Y-30883883D03*
X12527996Y-30601041D03*
D37*
X12527996Y-29398959D03*
X12245153Y-29116117D03*
X11962311Y-28833274D03*
X11679468Y-28550431D03*
X11396625Y-28267588D03*
X11113782Y-27984746D03*
X10830940Y-27701903D03*
X10548097Y-27419060D03*
X10265254Y-27136218D03*
X9982412Y-26853375D03*
X9699569Y-26570532D03*
X9416726Y-26287689D03*
X9133883Y-26004847D03*
X8851041Y-25722004D03*
D38*
X8250000Y-30000000D03*
%TD*%
D39*
%TO.C,J1*%
X6110000Y-46000000D03*
X11890000Y-46000000D03*
D40*
X5800000Y-44880000D03*
X6600000Y-44880000D03*
D41*
X7750000Y-44880000D03*
X8750000Y-44880000D03*
X9250000Y-44880000D03*
X10250000Y-44880000D03*
D40*
X11400000Y-44880000D03*
X12200000Y-44880000D03*
X12200000Y-44880000D03*
X11400000Y-44880000D03*
D41*
X10750000Y-44880000D03*
X9750000Y-44880000D03*
X8250000Y-44880000D03*
X7250000Y-44880000D03*
D40*
X6600000Y-44880000D03*
X5800000Y-44880000D03*
D42*
X4680000Y-45480000D03*
D43*
X4680000Y-49680000D03*
D42*
X13320000Y-45480000D03*
D43*
X13320000Y-49680000D03*
%TD*%
D13*
%TO.C,C12*%
X14839411Y-25410589D03*
X14160589Y-26089411D03*
%TD*%
D12*
%TO.C,C14*%
X9460000Y-11000000D03*
X8500000Y-11000000D03*
%TD*%
D44*
%TO.C,C4*%
X12500000Y-42270000D03*
X12500000Y-43230000D03*
%TD*%
D13*
%TO.C,C11*%
X10589411Y-21660589D03*
X9910589Y-22339411D03*
%TD*%
D44*
%TO.C,C13*%
X11750000Y-19520000D03*
X11750000Y-20480000D03*
%TD*%
D13*
%TO.C,C6*%
X4439411Y-32660589D03*
X3760589Y-33339411D03*
%TD*%
D12*
%TO.C,C8*%
X5380000Y-8800000D03*
X4420000Y-8800000D03*
%TD*%
D10*
%TO.C,R15*%
X10390000Y-37000000D03*
X11410000Y-37000000D03*
%TD*%
D44*
%TO.C,C15*%
X13500000Y-42270000D03*
X13500000Y-43230000D03*
%TD*%
D45*
%TO.C,Y1*%
X14128858Y-23676777D03*
X12573223Y-22121142D03*
X11371142Y-23323223D03*
X12926777Y-24878858D03*
%TD*%
M02*
