%TF.GenerationSoftware,KiCad,Pcbnew,8.0.6*%
%TF.CreationDate,2024-11-16T14:05:38-06:00*%
%TF.ProjectId,ATesp32,41546573-7033-4322-9e6b-696361645f70,rev?*%
%TF.SameCoordinates,PX47868c0PY2faf080*%
%TF.FileFunction,Drillmap*%
%TF.FilePolarity,Positive*%
%FSLAX45Y45*%
G04 Gerber Fmt 4.5, Leading zero omitted, Abs format (unit mm)*
G04 Created by KiCad (PCBNEW 8.0.6) date 2024-11-16 14:05:38*
%MOMM*%
%LPD*%
G01*
G04 APERTURE LIST*
%ADD10C,0.050000*%
%ADD11C,0.200000*%
%ADD12C,0.100000*%
G04 APERTURE END LIST*
D10*
X0Y0D02*
X1800000Y0D01*
X1800000Y-5125000D01*
X0Y-5125000D01*
X0Y0D01*
D11*
D12*
X312500Y-4450052D02*
X332500Y-4470052D01*
X332500Y-4450052D02*
X312500Y-4470052D01*
X330000Y-3360000D02*
X350000Y-3380000D01*
X350000Y-3360000D02*
X330000Y-3380000D01*
X346884Y-2893116D02*
X366884Y-2913116D01*
X366884Y-2893116D02*
X346884Y-2913116D01*
X350016Y-2843214D02*
X370016Y-2863214D01*
X370016Y-2843214D02*
X350016Y-2863214D01*
X358453Y-2791547D02*
X378453Y-2811547D01*
X378453Y-2791547D02*
X358453Y-2811547D01*
X365000Y-540000D02*
X385000Y-560000D01*
X385000Y-540000D02*
X365000Y-560000D01*
X365000Y-590000D02*
X385000Y-610000D01*
X385000Y-590000D02*
X365000Y-610000D01*
X365000Y-840000D02*
X385000Y-860000D01*
X385000Y-840000D02*
X365000Y-860000D01*
X365000Y-890000D02*
X385000Y-910000D01*
X385000Y-890000D02*
X365000Y-910000D01*
X385000Y-2641317D02*
X405000Y-2661317D01*
X405000Y-2641317D02*
X385000Y-2661317D01*
X390000Y-640000D02*
X410000Y-660000D01*
X410000Y-640000D02*
X390000Y-660000D01*
X390000Y-690000D02*
X410000Y-710000D01*
X410000Y-690000D02*
X390000Y-710000D01*
X390000Y-740000D02*
X410000Y-760000D01*
X410000Y-740000D02*
X390000Y-760000D01*
X390000Y-790000D02*
X410000Y-810000D01*
X410000Y-790000D02*
X390000Y-810000D01*
X390000Y-2355000D02*
X410000Y-2375000D01*
X410000Y-2355000D02*
X390000Y-2375000D01*
X390000Y-2430000D02*
X410000Y-2450000D01*
X410000Y-2430000D02*
X390000Y-2450000D01*
X390000Y-3210000D02*
X410000Y-3230000D01*
X410000Y-3210000D02*
X390000Y-3230000D01*
X415000Y-940000D02*
X435000Y-960000D01*
X435000Y-940000D02*
X415000Y-960000D01*
X427500Y-2600000D02*
X447500Y-2620000D01*
X447500Y-2600000D02*
X427500Y-2620000D01*
X440000Y-640000D02*
X460000Y-660000D01*
X460000Y-640000D02*
X440000Y-660000D01*
X440000Y-690000D02*
X460000Y-710000D01*
X460000Y-690000D02*
X440000Y-710000D01*
X440000Y-740000D02*
X460000Y-760000D01*
X460000Y-740000D02*
X440000Y-760000D01*
X440000Y-790000D02*
X460000Y-810000D01*
X460000Y-790000D02*
X440000Y-810000D01*
X445000Y-4060000D02*
X465000Y-4080000D01*
X465000Y-4060000D02*
X445000Y-4080000D01*
X457256Y-2967151D02*
X477256Y-2987151D01*
X477256Y-2967151D02*
X457256Y-2987151D01*
X465000Y-940000D02*
X485000Y-960000D01*
X485000Y-940000D02*
X465000Y-960000D01*
X470000Y-2627003D02*
X490000Y-2647003D01*
X490000Y-2627003D02*
X470000Y-2647003D01*
X477500Y-1157500D02*
X497500Y-1177500D01*
X497500Y-1157500D02*
X477500Y-1177500D01*
X477500Y-2108750D02*
X497500Y-2128750D01*
X497500Y-2108750D02*
X477500Y-2128750D01*
X490000Y-1590000D02*
X510000Y-1610000D01*
X510000Y-1590000D02*
X490000Y-1610000D01*
X490000Y-1690000D02*
X510000Y-1710000D01*
X510000Y-1690000D02*
X490000Y-1710000D01*
X492611Y-3002507D02*
X512611Y-3022507D01*
X512611Y-3002507D02*
X492611Y-3022507D01*
X500500Y-4196818D02*
X520500Y-4216818D01*
X520500Y-4196818D02*
X500500Y-4216818D01*
X515000Y-940000D02*
X535000Y-960000D01*
X535000Y-940000D02*
X515000Y-960000D01*
X521446Y-2618345D02*
X541446Y-2638345D01*
X541446Y-2618345D02*
X521446Y-2638345D01*
X525000Y-4135000D02*
X545000Y-4155000D01*
X545000Y-4135000D02*
X525000Y-4155000D01*
X527967Y-3037863D02*
X547967Y-3057863D01*
X547967Y-3037863D02*
X527967Y-3057863D01*
X547605Y-2575733D02*
X567605Y-2595733D01*
X567605Y-2575733D02*
X547605Y-2595733D01*
X564577Y-3071917D02*
X584577Y-3091917D01*
X584577Y-3071917D02*
X564577Y-3091917D01*
X572500Y-3500000D02*
X592500Y-3520000D01*
X592500Y-3500000D02*
X572500Y-3520000D01*
X590000Y-1040000D02*
X610000Y-1060000D01*
X610000Y-1040000D02*
X590000Y-1060000D01*
X590000Y-1090000D02*
X610000Y-1110000D01*
X610000Y-1090000D02*
X590000Y-1110000D01*
X590000Y-1140000D02*
X610000Y-1160000D01*
X610000Y-1140000D02*
X590000Y-1160000D01*
X590000Y-1190000D02*
X610000Y-1210000D01*
X610000Y-1190000D02*
X590000Y-1210000D01*
X590000Y-1240000D02*
X610000Y-1260000D01*
X610000Y-1240000D02*
X590000Y-1260000D01*
X590000Y-1290000D02*
X610000Y-1310000D01*
X610000Y-1290000D02*
X590000Y-1310000D01*
X590000Y-1340000D02*
X610000Y-1360000D01*
X610000Y-1340000D02*
X590000Y-1360000D01*
X590000Y-1540000D02*
X610000Y-1560000D01*
X610000Y-1540000D02*
X590000Y-1560000D01*
X590000Y-1590000D02*
X610000Y-1610000D01*
X610000Y-1590000D02*
X590000Y-1610000D01*
X590000Y-1640000D02*
X610000Y-1660000D01*
X610000Y-1640000D02*
X590000Y-1660000D01*
X590000Y-1690000D02*
X610000Y-1710000D01*
X610000Y-1690000D02*
X590000Y-1710000D01*
X590000Y-1740000D02*
X610000Y-1760000D01*
X610000Y-1740000D02*
X590000Y-1760000D01*
X590000Y-1915000D02*
X610000Y-1935000D01*
X610000Y-1915000D02*
X590000Y-1935000D01*
X590000Y-1965000D02*
X610000Y-1985000D01*
X610000Y-1965000D02*
X590000Y-1985000D01*
X590000Y-2015000D02*
X610000Y-2035000D01*
X610000Y-2015000D02*
X590000Y-2035000D01*
X590000Y-2065000D02*
X610000Y-2085000D01*
X610000Y-2065000D02*
X590000Y-2085000D01*
X590000Y-3980000D02*
X610000Y-4000000D01*
X610000Y-3980000D02*
X590000Y-4000000D01*
X590000Y-4065000D02*
X610000Y-4085000D01*
X610000Y-4065000D02*
X590000Y-4085000D01*
X590000Y-4115000D02*
X610000Y-4135000D01*
X610000Y-4115000D02*
X590000Y-4135000D01*
X590000Y-4165000D02*
X610000Y-4185000D01*
X610000Y-4165000D02*
X590000Y-4185000D01*
X590216Y-2549575D02*
X610216Y-2569575D01*
X610216Y-2549575D02*
X590216Y-2569575D01*
X598632Y-3108527D02*
X618632Y-3128527D01*
X618632Y-3108527D02*
X598632Y-3128527D01*
X600000Y-3170000D02*
X620000Y-3190000D01*
X620000Y-3170000D02*
X600000Y-3190000D01*
X615000Y-540000D02*
X635000Y-560000D01*
X635000Y-540000D02*
X615000Y-560000D01*
X615000Y-590000D02*
X635000Y-610000D01*
X635000Y-590000D02*
X615000Y-610000D01*
X615000Y-640000D02*
X635000Y-660000D01*
X635000Y-640000D02*
X615000Y-660000D01*
X615000Y-690000D02*
X635000Y-710000D01*
X635000Y-690000D02*
X615000Y-710000D01*
X615000Y-740000D02*
X635000Y-760000D01*
X635000Y-740000D02*
X615000Y-760000D01*
X615000Y-790000D02*
X635000Y-810000D01*
X635000Y-790000D02*
X615000Y-810000D01*
X615000Y-840000D02*
X635000Y-860000D01*
X635000Y-840000D02*
X615000Y-860000D01*
X617500Y-3546817D02*
X637500Y-3566817D01*
X637500Y-3546817D02*
X617500Y-3566817D01*
X635653Y-3208009D02*
X655653Y-3228009D01*
X655653Y-3208009D02*
X635653Y-3228009D01*
X640000Y-3930000D02*
X660000Y-3950000D01*
X660000Y-3930000D02*
X640000Y-3950000D01*
X650000Y-880000D02*
X670000Y-900000D01*
X670000Y-880000D02*
X650000Y-900000D01*
X664000Y-4241000D02*
X684000Y-4261000D01*
X684000Y-4241000D02*
X664000Y-4261000D01*
X681696Y-3240949D02*
X701696Y-3260949D01*
X701696Y-3240949D02*
X681696Y-3260949D01*
X690000Y-920000D02*
X710000Y-940000D01*
X710000Y-920000D02*
X690000Y-940000D01*
X740000Y-965000D02*
X760000Y-985000D01*
X760000Y-965000D02*
X740000Y-985000D01*
X740000Y-1015000D02*
X760000Y-1035000D01*
X760000Y-1015000D02*
X740000Y-1035000D01*
X740000Y-1065000D02*
X760000Y-1085000D01*
X760000Y-1065000D02*
X740000Y-1085000D01*
X740000Y-1115000D02*
X760000Y-1135000D01*
X760000Y-1115000D02*
X740000Y-1135000D01*
X740000Y-1165000D02*
X760000Y-1185000D01*
X760000Y-1165000D02*
X740000Y-1185000D01*
X740000Y-1215000D02*
X760000Y-1235000D01*
X760000Y-1215000D02*
X740000Y-1235000D01*
X740000Y-1265000D02*
X760000Y-1285000D01*
X760000Y-1265000D02*
X740000Y-1285000D01*
X740000Y-1315000D02*
X760000Y-1335000D01*
X760000Y-1315000D02*
X740000Y-1335000D01*
X740000Y-1365000D02*
X760000Y-1385000D01*
X760000Y-1365000D02*
X740000Y-1385000D01*
X740000Y-1415000D02*
X760000Y-1435000D01*
X760000Y-1415000D02*
X740000Y-1435000D01*
X740000Y-1465000D02*
X760000Y-1485000D01*
X760000Y-1465000D02*
X740000Y-1485000D01*
X740000Y-1515000D02*
X760000Y-1535000D01*
X760000Y-1515000D02*
X740000Y-1535000D01*
X740000Y-1565000D02*
X760000Y-1585000D01*
X760000Y-1565000D02*
X740000Y-1585000D01*
X740000Y-1615000D02*
X760000Y-1635000D01*
X760000Y-1615000D02*
X740000Y-1635000D01*
X740000Y-1665000D02*
X760000Y-1685000D01*
X760000Y-1665000D02*
X740000Y-1685000D01*
X740000Y-1715000D02*
X760000Y-1735000D01*
X760000Y-1715000D02*
X740000Y-1735000D01*
X740000Y-1765000D02*
X760000Y-1785000D01*
X760000Y-1765000D02*
X740000Y-1785000D01*
X740000Y-1815000D02*
X760000Y-1835000D01*
X760000Y-1815000D02*
X740000Y-1835000D01*
X740000Y-1865000D02*
X760000Y-1885000D01*
X760000Y-1865000D02*
X740000Y-1885000D01*
X740000Y-1915000D02*
X760000Y-1935000D01*
X760000Y-1915000D02*
X740000Y-1935000D01*
X740000Y-1965000D02*
X760000Y-1985000D01*
X760000Y-1965000D02*
X740000Y-1985000D01*
X740000Y-2015000D02*
X760000Y-2035000D01*
X760000Y-2015000D02*
X740000Y-2035000D01*
X740000Y-2065000D02*
X760000Y-2085000D01*
X760000Y-2065000D02*
X740000Y-2085000D01*
X740000Y-2115000D02*
X760000Y-2135000D01*
X760000Y-2115000D02*
X740000Y-2135000D01*
X740000Y-2165000D02*
X760000Y-2185000D01*
X760000Y-2165000D02*
X740000Y-2185000D01*
X740000Y-2215000D02*
X760000Y-2235000D01*
X760000Y-2215000D02*
X740000Y-2235000D01*
X740000Y-2265000D02*
X760000Y-2285000D01*
X760000Y-2265000D02*
X740000Y-2285000D01*
X740000Y-2315000D02*
X760000Y-2335000D01*
X760000Y-2315000D02*
X740000Y-2335000D01*
X740000Y-2365000D02*
X760000Y-2385000D01*
X760000Y-2365000D02*
X740000Y-2385000D01*
X740000Y-3690000D02*
X760000Y-3710000D01*
X760000Y-3690000D02*
X740000Y-3710000D01*
X780000Y-2480000D02*
X800000Y-2500000D01*
X800000Y-2480000D02*
X780000Y-2500000D01*
X815970Y-4264181D02*
X835970Y-4284181D01*
X835970Y-4264181D02*
X815970Y-4284181D01*
X820000Y-2440000D02*
X840000Y-2460000D01*
X840000Y-2440000D02*
X820000Y-2460000D01*
X840000Y-1690000D02*
X860000Y-1710000D01*
X860000Y-1690000D02*
X840000Y-1710000D01*
X865000Y-3290000D02*
X885000Y-3310000D01*
X885000Y-3290000D02*
X865000Y-3310000D01*
X865000Y-4555000D02*
X885000Y-4575000D01*
X885000Y-4555000D02*
X865000Y-4575000D01*
X869896Y-2269896D02*
X889896Y-2289896D01*
X889896Y-2269896D02*
X869896Y-2289896D01*
X890000Y-590000D02*
X910000Y-610000D01*
X910000Y-590000D02*
X890000Y-610000D01*
X890000Y-640000D02*
X910000Y-660000D01*
X910000Y-640000D02*
X890000Y-660000D01*
X890000Y-690000D02*
X910000Y-710000D01*
X910000Y-690000D02*
X890000Y-710000D01*
X890000Y-740000D02*
X910000Y-760000D01*
X910000Y-740000D02*
X890000Y-760000D01*
X890000Y-790000D02*
X910000Y-810000D01*
X910000Y-790000D02*
X890000Y-810000D01*
X890000Y-840000D02*
X910000Y-860000D01*
X910000Y-840000D02*
X890000Y-860000D01*
X890000Y-890000D02*
X910000Y-910000D01*
X910000Y-890000D02*
X890000Y-910000D01*
X890000Y-940000D02*
X910000Y-960000D01*
X910000Y-940000D02*
X890000Y-960000D01*
X890000Y-1390000D02*
X910000Y-1410000D01*
X910000Y-1390000D02*
X890000Y-1410000D01*
X890000Y-1440000D02*
X910000Y-1460000D01*
X910000Y-1440000D02*
X890000Y-1460000D01*
X890000Y-1490000D02*
X910000Y-1510000D01*
X910000Y-1490000D02*
X890000Y-1510000D01*
X890000Y-1690000D02*
X910000Y-1710000D01*
X910000Y-1690000D02*
X890000Y-1710000D01*
X890000Y-1740000D02*
X910000Y-1760000D01*
X910000Y-1740000D02*
X890000Y-1760000D01*
X900000Y-3620000D02*
X920000Y-3640000D01*
X920000Y-3620000D02*
X900000Y-3640000D01*
X915000Y-3240000D02*
X935000Y-3260000D01*
X935000Y-3240000D02*
X915000Y-3260000D01*
X940000Y-590000D02*
X960000Y-610000D01*
X960000Y-590000D02*
X940000Y-610000D01*
X962996Y-2804267D02*
X982996Y-2824267D01*
X982996Y-2804267D02*
X962996Y-2824267D01*
X965000Y-3190000D02*
X985000Y-3210000D01*
X985000Y-3190000D02*
X965000Y-3210000D01*
X965000Y-4555000D02*
X985000Y-4575000D01*
X985000Y-4555000D02*
X965000Y-4575000D01*
X990000Y-590000D02*
X1010000Y-610000D01*
X1010000Y-590000D02*
X990000Y-610000D01*
X1009778Y-2852423D02*
X1029778Y-2872423D01*
X1029778Y-2852423D02*
X1009778Y-2872423D01*
X1015000Y-3140000D02*
X1035000Y-3160000D01*
X1035000Y-3140000D02*
X1015000Y-3160000D01*
X1051864Y-4567331D02*
X1071864Y-4587331D01*
X1071864Y-4567331D02*
X1051864Y-4587331D01*
X1065000Y-2855000D02*
X1085000Y-2875000D01*
X1085000Y-2855000D02*
X1065000Y-2875000D01*
X1065000Y-3090000D02*
X1085000Y-3110000D01*
X1085000Y-3090000D02*
X1065000Y-3110000D01*
X1070000Y-4190000D02*
X1090000Y-4210000D01*
X1090000Y-4190000D02*
X1070000Y-4210000D01*
X1070000Y-4240000D02*
X1090000Y-4260000D01*
X1090000Y-4240000D02*
X1070000Y-4260000D01*
X1093632Y-2673632D02*
X1113632Y-2693632D01*
X1113632Y-2673632D02*
X1093632Y-2693632D01*
X1115000Y-2115000D02*
X1135000Y-2135000D01*
X1135000Y-2115000D02*
X1115000Y-2135000D01*
X1115000Y-3040000D02*
X1135000Y-3060000D01*
X1135000Y-3040000D02*
X1115000Y-3060000D01*
X1115000Y-3415000D02*
X1135000Y-3435000D01*
X1135000Y-3415000D02*
X1115000Y-3435000D01*
X1140000Y-4165000D02*
X1160000Y-4185000D01*
X1160000Y-4165000D02*
X1140000Y-4185000D01*
X1140000Y-4215000D02*
X1160000Y-4235000D01*
X1160000Y-4215000D02*
X1140000Y-4235000D01*
X1165000Y-2115000D02*
X1185000Y-2135000D01*
X1185000Y-2115000D02*
X1165000Y-2135000D01*
X1180000Y-3840000D02*
X1200000Y-3860000D01*
X1200000Y-3840000D02*
X1180000Y-3860000D01*
X1190000Y-3775000D02*
X1210000Y-3795000D01*
X1210000Y-3775000D02*
X1190000Y-3795000D01*
X1190000Y-4140000D02*
X1210000Y-4160000D01*
X1210000Y-4140000D02*
X1190000Y-4160000D01*
X1215000Y-2590000D02*
X1235000Y-2610000D01*
X1235000Y-2590000D02*
X1215000Y-2610000D01*
X1217552Y-2737448D02*
X1237552Y-2757448D01*
X1237552Y-2737448D02*
X1217552Y-2757448D01*
X1240000Y-3775000D02*
X1260000Y-3795000D01*
X1260000Y-3775000D02*
X1240000Y-3795000D01*
X1240000Y-3840000D02*
X1260000Y-3860000D01*
X1260000Y-3840000D02*
X1240000Y-3860000D01*
X1265000Y-1340000D02*
X1285000Y-1360000D01*
X1285000Y-1340000D02*
X1265000Y-1360000D01*
X1265000Y-1415000D02*
X1285000Y-1435000D01*
X1285000Y-1415000D02*
X1265000Y-1435000D01*
X1265000Y-1515000D02*
X1285000Y-1535000D01*
X1285000Y-1515000D02*
X1265000Y-1535000D01*
X1265000Y-1565000D02*
X1285000Y-1585000D01*
X1285000Y-1565000D02*
X1265000Y-1585000D01*
X1265000Y-1615000D02*
X1285000Y-1635000D01*
X1285000Y-1615000D02*
X1265000Y-1635000D01*
X1265000Y-2040000D02*
X1285000Y-2060000D01*
X1285000Y-2040000D02*
X1265000Y-2060000D01*
X1265000Y-2640000D02*
X1285000Y-2660000D01*
X1285000Y-2640000D02*
X1265000Y-2660000D01*
X1265000Y-4140000D02*
X1285000Y-4160000D01*
X1285000Y-4140000D02*
X1265000Y-4160000D01*
X1270000Y-1040000D02*
X1290000Y-1060000D01*
X1290000Y-1040000D02*
X1270000Y-1060000D01*
X1270000Y-1710000D02*
X1290000Y-1730000D01*
X1290000Y-1710000D02*
X1270000Y-1730000D01*
X1270000Y-3490000D02*
X1290000Y-3510000D01*
X1290000Y-3490000D02*
X1270000Y-3510000D01*
X1290000Y-4390000D02*
X1310000Y-4410000D01*
X1310000Y-4390000D02*
X1290000Y-4410000D01*
X1315000Y-2090000D02*
X1335000Y-2110000D01*
X1335000Y-2090000D02*
X1315000Y-2110000D01*
X1340000Y-965000D02*
X1360000Y-985000D01*
X1360000Y-965000D02*
X1340000Y-985000D01*
X1340000Y-1015000D02*
X1360000Y-1035000D01*
X1360000Y-1015000D02*
X1340000Y-1035000D01*
X1340000Y-2615000D02*
X1360000Y-2635000D01*
X1360000Y-2615000D02*
X1340000Y-2635000D01*
X1340000Y-4390000D02*
X1360000Y-4410000D01*
X1360000Y-4390000D02*
X1340000Y-4410000D01*
X1390000Y-965000D02*
X1410000Y-985000D01*
X1410000Y-965000D02*
X1390000Y-985000D01*
X1390000Y-1015000D02*
X1410000Y-1035000D01*
X1410000Y-1015000D02*
X1390000Y-1035000D01*
X1390000Y-2665000D02*
X1410000Y-2685000D01*
X1410000Y-2665000D02*
X1390000Y-2685000D01*
X1440000Y-965000D02*
X1460000Y-985000D01*
X1460000Y-965000D02*
X1440000Y-985000D01*
X1440000Y-1015000D02*
X1460000Y-1035000D01*
X1460000Y-1015000D02*
X1440000Y-1035000D01*
X1450000Y-1390000D02*
X1470000Y-1410000D01*
X1470000Y-1390000D02*
X1450000Y-1410000D01*
X1500000Y-1640000D02*
X1520000Y-1660000D01*
X1520000Y-1640000D02*
X1500000Y-1660000D01*
X498000Y-4548000D02*
G75*
G02*
X438000Y-4548000I-30000J0D01*
G01*
X438000Y-4548000D02*
G75*
G02*
X498000Y-4548000I30000J0D01*
G01*
X438000Y-4493000D02*
X438000Y-4603000D01*
X498000Y-4603000D02*
G75*
G02*
X438000Y-4603000I-30000J0D01*
G01*
X498000Y-4603000D02*
X498000Y-4493000D01*
X498000Y-4493000D02*
G75*
G03*
X438000Y-4493000I-30000J0D01*
G01*
X498000Y-4968000D02*
G75*
G02*
X438000Y-4968000I-30000J0D01*
G01*
X438000Y-4968000D02*
G75*
G02*
X498000Y-4968000I30000J0D01*
G01*
X438000Y-4928000D02*
X438000Y-5008000D01*
X498000Y-5008000D02*
G75*
G02*
X438000Y-5008000I-30000J0D01*
G01*
X498000Y-5008000D02*
X498000Y-4928000D01*
X498000Y-4928000D02*
G75*
G03*
X438000Y-4928000I-30000J0D01*
G01*
X1362000Y-4548000D02*
G75*
G02*
X1302000Y-4548000I-30000J0D01*
G01*
X1302000Y-4548000D02*
G75*
G02*
X1362000Y-4548000I30000J0D01*
G01*
X1302000Y-4493000D02*
X1302000Y-4603000D01*
X1362000Y-4603000D02*
G75*
G02*
X1302000Y-4603000I-30000J0D01*
G01*
X1362000Y-4603000D02*
X1362000Y-4493000D01*
X1362000Y-4493000D02*
G75*
G03*
X1302000Y-4493000I-30000J0D01*
G01*
X1362000Y-4968000D02*
G75*
G02*
X1302000Y-4968000I-30000J0D01*
G01*
X1302000Y-4968000D02*
G75*
G02*
X1362000Y-4968000I30000J0D01*
G01*
X1302000Y-4928000D02*
X1302000Y-5008000D01*
X1362000Y-5008000D02*
G75*
G02*
X1302000Y-5008000I-30000J0D01*
G01*
X1362000Y-5008000D02*
X1362000Y-4928000D01*
X1362000Y-4928000D02*
G75*
G03*
X1302000Y-4928000I-30000J0D01*
G01*
X138000Y-97000D02*
X138000Y-177000D01*
X98000Y-137000D02*
X178000Y-137000D01*
X138000Y-351000D02*
X138000Y-431000D01*
X98000Y-391000D02*
X178000Y-391000D01*
X138000Y-605000D02*
X138000Y-685000D01*
X98000Y-645000D02*
X178000Y-645000D01*
X138000Y-859000D02*
X138000Y-939000D01*
X98000Y-899000D02*
X178000Y-899000D01*
X138000Y-1113000D02*
X138000Y-1193000D01*
X98000Y-1153000D02*
X178000Y-1153000D01*
X138000Y-1367000D02*
X138000Y-1447000D01*
X98000Y-1407000D02*
X178000Y-1407000D01*
X138000Y-1621000D02*
X138000Y-1701000D01*
X98000Y-1661000D02*
X178000Y-1661000D01*
X138000Y-1875000D02*
X138000Y-1955000D01*
X98000Y-1915000D02*
X178000Y-1915000D01*
X138000Y-2129000D02*
X138000Y-2209000D01*
X98000Y-2169000D02*
X178000Y-2169000D01*
X138000Y-2383000D02*
X138000Y-2463000D01*
X98000Y-2423000D02*
X178000Y-2423000D01*
X138000Y-2637000D02*
X138000Y-2717000D01*
X98000Y-2677000D02*
X178000Y-2677000D01*
X138000Y-2891000D02*
X138000Y-2971000D01*
X98000Y-2931000D02*
X178000Y-2931000D01*
X138000Y-3145000D02*
X138000Y-3225000D01*
X98000Y-3185000D02*
X178000Y-3185000D01*
X138000Y-3399000D02*
X138000Y-3479000D01*
X98000Y-3439000D02*
X178000Y-3439000D01*
X138000Y-3653000D02*
X138000Y-3733000D01*
X98000Y-3693000D02*
X178000Y-3693000D01*
X138000Y-3907000D02*
X138000Y-3987000D01*
X98000Y-3947000D02*
X178000Y-3947000D01*
X138000Y-4161000D02*
X138000Y-4241000D01*
X98000Y-4201000D02*
X178000Y-4201000D01*
X138000Y-4415000D02*
X138000Y-4495000D01*
X98000Y-4455000D02*
X178000Y-4455000D01*
X138000Y-4669000D02*
X138000Y-4749000D01*
X98000Y-4709000D02*
X178000Y-4709000D01*
X138000Y-4923000D02*
X138000Y-5003000D01*
X98000Y-4963000D02*
X178000Y-4963000D01*
X1662000Y-97000D02*
X1662000Y-177000D01*
X1622000Y-137000D02*
X1702000Y-137000D01*
X1662000Y-351000D02*
X1662000Y-431000D01*
X1622000Y-391000D02*
X1702000Y-391000D01*
X1662000Y-605000D02*
X1662000Y-685000D01*
X1622000Y-645000D02*
X1702000Y-645000D01*
X1662000Y-859000D02*
X1662000Y-939000D01*
X1622000Y-899000D02*
X1702000Y-899000D01*
X1662000Y-1113000D02*
X1662000Y-1193000D01*
X1622000Y-1153000D02*
X1702000Y-1153000D01*
X1662000Y-1367000D02*
X1662000Y-1447000D01*
X1622000Y-1407000D02*
X1702000Y-1407000D01*
X1662000Y-1621000D02*
X1662000Y-1701000D01*
X1622000Y-1661000D02*
X1702000Y-1661000D01*
X1662000Y-1875000D02*
X1662000Y-1955000D01*
X1622000Y-1915000D02*
X1702000Y-1915000D01*
X1662000Y-2129000D02*
X1662000Y-2209000D01*
X1622000Y-2169000D02*
X1702000Y-2169000D01*
X1662000Y-2383000D02*
X1662000Y-2463000D01*
X1622000Y-2423000D02*
X1702000Y-2423000D01*
X1662000Y-2637000D02*
X1662000Y-2717000D01*
X1622000Y-2677000D02*
X1702000Y-2677000D01*
X1662000Y-2891000D02*
X1662000Y-2971000D01*
X1622000Y-2931000D02*
X1702000Y-2931000D01*
X1662000Y-3145000D02*
X1662000Y-3225000D01*
X1622000Y-3185000D02*
X1702000Y-3185000D01*
X1662000Y-3399000D02*
X1662000Y-3479000D01*
X1622000Y-3439000D02*
X1702000Y-3439000D01*
X1662000Y-3653000D02*
X1662000Y-3733000D01*
X1622000Y-3693000D02*
X1702000Y-3693000D01*
X1662000Y-3907000D02*
X1662000Y-3987000D01*
X1622000Y-3947000D02*
X1702000Y-3947000D01*
X1662000Y-4161000D02*
X1662000Y-4241000D01*
X1622000Y-4201000D02*
X1702000Y-4201000D01*
X1662000Y-4415000D02*
X1662000Y-4495000D01*
X1622000Y-4455000D02*
X1702000Y-4455000D01*
X1662000Y-4669000D02*
X1662000Y-4749000D01*
X1622000Y-4709000D02*
X1702000Y-4709000D01*
X1662000Y-4923000D02*
X1662000Y-5003000D01*
X1622000Y-4963000D02*
X1702000Y-4963000D01*
D11*
X258277Y-5438984D02*
X258277Y-5238984D01*
X258277Y-5238984D02*
X305896Y-5238984D01*
X305896Y-5238984D02*
X334467Y-5248508D01*
X334467Y-5248508D02*
X353515Y-5267555D01*
X353515Y-5267555D02*
X363039Y-5286603D01*
X363039Y-5286603D02*
X372562Y-5324698D01*
X372562Y-5324698D02*
X372562Y-5353270D01*
X372562Y-5353270D02*
X363039Y-5391365D01*
X363039Y-5391365D02*
X353515Y-5410412D01*
X353515Y-5410412D02*
X334467Y-5429460D01*
X334467Y-5429460D02*
X305896Y-5438984D01*
X305896Y-5438984D02*
X258277Y-5438984D01*
X458277Y-5438984D02*
X458277Y-5305650D01*
X458277Y-5343746D02*
X467801Y-5324698D01*
X467801Y-5324698D02*
X477324Y-5315174D01*
X477324Y-5315174D02*
X496372Y-5305650D01*
X496372Y-5305650D02*
X515420Y-5305650D01*
X582086Y-5438984D02*
X582086Y-5305650D01*
X582086Y-5238984D02*
X572563Y-5248508D01*
X572563Y-5248508D02*
X582086Y-5258031D01*
X582086Y-5258031D02*
X591610Y-5248508D01*
X591610Y-5248508D02*
X582086Y-5238984D01*
X582086Y-5238984D02*
X582086Y-5258031D01*
X705896Y-5438984D02*
X686848Y-5429460D01*
X686848Y-5429460D02*
X677324Y-5410412D01*
X677324Y-5410412D02*
X677324Y-5238984D01*
X810658Y-5438984D02*
X791610Y-5429460D01*
X791610Y-5429460D02*
X782086Y-5410412D01*
X782086Y-5410412D02*
X782086Y-5238984D01*
X1039229Y-5438984D02*
X1039229Y-5238984D01*
X1039229Y-5238984D02*
X1105896Y-5381841D01*
X1105896Y-5381841D02*
X1172563Y-5238984D01*
X1172563Y-5238984D02*
X1172563Y-5438984D01*
X1353515Y-5438984D02*
X1353515Y-5334222D01*
X1353515Y-5334222D02*
X1343991Y-5315174D01*
X1343991Y-5315174D02*
X1324944Y-5305650D01*
X1324944Y-5305650D02*
X1286848Y-5305650D01*
X1286848Y-5305650D02*
X1267801Y-5315174D01*
X1353515Y-5429460D02*
X1334467Y-5438984D01*
X1334467Y-5438984D02*
X1286848Y-5438984D01*
X1286848Y-5438984D02*
X1267801Y-5429460D01*
X1267801Y-5429460D02*
X1258277Y-5410412D01*
X1258277Y-5410412D02*
X1258277Y-5391365D01*
X1258277Y-5391365D02*
X1267801Y-5372317D01*
X1267801Y-5372317D02*
X1286848Y-5362793D01*
X1286848Y-5362793D02*
X1334467Y-5362793D01*
X1334467Y-5362793D02*
X1353515Y-5353270D01*
X1448753Y-5305650D02*
X1448753Y-5505650D01*
X1448753Y-5315174D02*
X1467801Y-5305650D01*
X1467801Y-5305650D02*
X1505896Y-5305650D01*
X1505896Y-5305650D02*
X1524943Y-5315174D01*
X1524943Y-5315174D02*
X1534467Y-5324698D01*
X1534467Y-5324698D02*
X1543991Y-5343746D01*
X1543991Y-5343746D02*
X1543991Y-5400889D01*
X1543991Y-5400889D02*
X1534467Y-5419936D01*
X1534467Y-5419936D02*
X1524943Y-5429460D01*
X1524943Y-5429460D02*
X1505896Y-5438984D01*
X1505896Y-5438984D02*
X1467801Y-5438984D01*
X1467801Y-5438984D02*
X1448753Y-5429460D01*
X1629705Y-5419936D02*
X1639229Y-5429460D01*
X1639229Y-5429460D02*
X1629705Y-5438984D01*
X1629705Y-5438984D02*
X1620182Y-5429460D01*
X1620182Y-5429460D02*
X1629705Y-5419936D01*
X1629705Y-5419936D02*
X1629705Y-5438984D01*
X1629705Y-5315174D02*
X1639229Y-5324698D01*
X1639229Y-5324698D02*
X1629705Y-5334222D01*
X1629705Y-5334222D02*
X1620182Y-5324698D01*
X1620182Y-5324698D02*
X1629705Y-5315174D01*
X1629705Y-5315174D02*
X1629705Y-5334222D01*
D12*
X-22500Y-5757500D02*
X-2500Y-5777500D01*
X-2500Y-5757500D02*
X-22500Y-5777500D01*
D11*
X296372Y-5658984D02*
X315420Y-5658984D01*
X315420Y-5658984D02*
X334467Y-5668508D01*
X334467Y-5668508D02*
X343991Y-5678031D01*
X343991Y-5678031D02*
X353515Y-5697079D01*
X353515Y-5697079D02*
X363039Y-5735174D01*
X363039Y-5735174D02*
X363039Y-5782793D01*
X363039Y-5782793D02*
X353515Y-5820888D01*
X353515Y-5820888D02*
X343991Y-5839936D01*
X343991Y-5839936D02*
X334467Y-5849460D01*
X334467Y-5849460D02*
X315420Y-5858984D01*
X315420Y-5858984D02*
X296372Y-5858984D01*
X296372Y-5858984D02*
X277324Y-5849460D01*
X277324Y-5849460D02*
X267801Y-5839936D01*
X267801Y-5839936D02*
X258277Y-5820888D01*
X258277Y-5820888D02*
X248753Y-5782793D01*
X248753Y-5782793D02*
X248753Y-5735174D01*
X248753Y-5735174D02*
X258277Y-5697079D01*
X258277Y-5697079D02*
X267801Y-5678031D01*
X267801Y-5678031D02*
X277324Y-5668508D01*
X277324Y-5668508D02*
X296372Y-5658984D01*
X448753Y-5839936D02*
X458277Y-5849460D01*
X458277Y-5849460D02*
X448753Y-5858984D01*
X448753Y-5858984D02*
X439229Y-5849460D01*
X439229Y-5849460D02*
X448753Y-5839936D01*
X448753Y-5839936D02*
X448753Y-5858984D01*
X534467Y-5678031D02*
X543991Y-5668508D01*
X543991Y-5668508D02*
X563039Y-5658984D01*
X563039Y-5658984D02*
X610658Y-5658984D01*
X610658Y-5658984D02*
X629705Y-5668508D01*
X629705Y-5668508D02*
X639229Y-5678031D01*
X639229Y-5678031D02*
X648753Y-5697079D01*
X648753Y-5697079D02*
X648753Y-5716127D01*
X648753Y-5716127D02*
X639229Y-5744698D01*
X639229Y-5744698D02*
X524944Y-5858984D01*
X524944Y-5858984D02*
X648753Y-5858984D01*
X772562Y-5658984D02*
X791610Y-5658984D01*
X791610Y-5658984D02*
X810658Y-5668508D01*
X810658Y-5668508D02*
X820182Y-5678031D01*
X820182Y-5678031D02*
X829705Y-5697079D01*
X829705Y-5697079D02*
X839229Y-5735174D01*
X839229Y-5735174D02*
X839229Y-5782793D01*
X839229Y-5782793D02*
X829705Y-5820888D01*
X829705Y-5820888D02*
X820182Y-5839936D01*
X820182Y-5839936D02*
X810658Y-5849460D01*
X810658Y-5849460D02*
X791610Y-5858984D01*
X791610Y-5858984D02*
X772562Y-5858984D01*
X772562Y-5858984D02*
X753515Y-5849460D01*
X753515Y-5849460D02*
X743991Y-5839936D01*
X743991Y-5839936D02*
X734467Y-5820888D01*
X734467Y-5820888D02*
X724943Y-5782793D01*
X724943Y-5782793D02*
X724943Y-5735174D01*
X724943Y-5735174D02*
X734467Y-5697079D01*
X734467Y-5697079D02*
X743991Y-5678031D01*
X743991Y-5678031D02*
X753515Y-5668508D01*
X753515Y-5668508D02*
X772562Y-5658984D01*
X963039Y-5658984D02*
X982086Y-5658984D01*
X982086Y-5658984D02*
X1001134Y-5668508D01*
X1001134Y-5668508D02*
X1010658Y-5678031D01*
X1010658Y-5678031D02*
X1020182Y-5697079D01*
X1020182Y-5697079D02*
X1029705Y-5735174D01*
X1029705Y-5735174D02*
X1029705Y-5782793D01*
X1029705Y-5782793D02*
X1020182Y-5820888D01*
X1020182Y-5820888D02*
X1010658Y-5839936D01*
X1010658Y-5839936D02*
X1001134Y-5849460D01*
X1001134Y-5849460D02*
X982086Y-5858984D01*
X982086Y-5858984D02*
X963039Y-5858984D01*
X963039Y-5858984D02*
X943991Y-5849460D01*
X943991Y-5849460D02*
X934467Y-5839936D01*
X934467Y-5839936D02*
X924943Y-5820888D01*
X924943Y-5820888D02*
X915420Y-5782793D01*
X915420Y-5782793D02*
X915420Y-5735174D01*
X915420Y-5735174D02*
X924943Y-5697079D01*
X924943Y-5697079D02*
X934467Y-5678031D01*
X934467Y-5678031D02*
X943991Y-5668508D01*
X943991Y-5668508D02*
X963039Y-5658984D01*
X1115420Y-5858984D02*
X1115420Y-5725650D01*
X1115420Y-5744698D02*
X1124944Y-5735174D01*
X1124944Y-5735174D02*
X1143991Y-5725650D01*
X1143991Y-5725650D02*
X1172563Y-5725650D01*
X1172563Y-5725650D02*
X1191610Y-5735174D01*
X1191610Y-5735174D02*
X1201134Y-5754222D01*
X1201134Y-5754222D02*
X1201134Y-5858984D01*
X1201134Y-5754222D02*
X1210658Y-5735174D01*
X1210658Y-5735174D02*
X1229705Y-5725650D01*
X1229705Y-5725650D02*
X1258277Y-5725650D01*
X1258277Y-5725650D02*
X1277325Y-5735174D01*
X1277325Y-5735174D02*
X1286848Y-5754222D01*
X1286848Y-5754222D02*
X1286848Y-5858984D01*
X1382086Y-5858984D02*
X1382086Y-5725650D01*
X1382086Y-5744698D02*
X1391610Y-5735174D01*
X1391610Y-5735174D02*
X1410658Y-5725650D01*
X1410658Y-5725650D02*
X1439229Y-5725650D01*
X1439229Y-5725650D02*
X1458277Y-5735174D01*
X1458277Y-5735174D02*
X1467801Y-5754222D01*
X1467801Y-5754222D02*
X1467801Y-5858984D01*
X1467801Y-5754222D02*
X1477324Y-5735174D01*
X1477324Y-5735174D02*
X1496372Y-5725650D01*
X1496372Y-5725650D02*
X1524943Y-5725650D01*
X1524943Y-5725650D02*
X1543991Y-5735174D01*
X1543991Y-5735174D02*
X1553515Y-5754222D01*
X1553515Y-5754222D02*
X1553515Y-5858984D01*
X1943991Y-5649460D02*
X1772563Y-5906603D01*
X2201134Y-5658984D02*
X2220182Y-5658984D01*
X2220182Y-5658984D02*
X2239229Y-5668508D01*
X2239229Y-5668508D02*
X2248753Y-5678031D01*
X2248753Y-5678031D02*
X2258277Y-5697079D01*
X2258277Y-5697079D02*
X2267801Y-5735174D01*
X2267801Y-5735174D02*
X2267801Y-5782793D01*
X2267801Y-5782793D02*
X2258277Y-5820888D01*
X2258277Y-5820888D02*
X2248753Y-5839936D01*
X2248753Y-5839936D02*
X2239229Y-5849460D01*
X2239229Y-5849460D02*
X2220182Y-5858984D01*
X2220182Y-5858984D02*
X2201134Y-5858984D01*
X2201134Y-5858984D02*
X2182087Y-5849460D01*
X2182087Y-5849460D02*
X2172563Y-5839936D01*
X2172563Y-5839936D02*
X2163039Y-5820888D01*
X2163039Y-5820888D02*
X2153515Y-5782793D01*
X2153515Y-5782793D02*
X2153515Y-5735174D01*
X2153515Y-5735174D02*
X2163039Y-5697079D01*
X2163039Y-5697079D02*
X2172563Y-5678031D01*
X2172563Y-5678031D02*
X2182087Y-5668508D01*
X2182087Y-5668508D02*
X2201134Y-5658984D01*
X2353515Y-5839936D02*
X2363039Y-5849460D01*
X2363039Y-5849460D02*
X2353515Y-5858984D01*
X2353515Y-5858984D02*
X2343991Y-5849460D01*
X2343991Y-5849460D02*
X2353515Y-5839936D01*
X2353515Y-5839936D02*
X2353515Y-5858984D01*
X2486848Y-5658984D02*
X2505896Y-5658984D01*
X2505896Y-5658984D02*
X2524944Y-5668508D01*
X2524944Y-5668508D02*
X2534468Y-5678031D01*
X2534468Y-5678031D02*
X2543991Y-5697079D01*
X2543991Y-5697079D02*
X2553515Y-5735174D01*
X2553515Y-5735174D02*
X2553515Y-5782793D01*
X2553515Y-5782793D02*
X2543991Y-5820888D01*
X2543991Y-5820888D02*
X2534468Y-5839936D01*
X2534468Y-5839936D02*
X2524944Y-5849460D01*
X2524944Y-5849460D02*
X2505896Y-5858984D01*
X2505896Y-5858984D02*
X2486848Y-5858984D01*
X2486848Y-5858984D02*
X2467801Y-5849460D01*
X2467801Y-5849460D02*
X2458277Y-5839936D01*
X2458277Y-5839936D02*
X2448753Y-5820888D01*
X2448753Y-5820888D02*
X2439229Y-5782793D01*
X2439229Y-5782793D02*
X2439229Y-5735174D01*
X2439229Y-5735174D02*
X2448753Y-5697079D01*
X2448753Y-5697079D02*
X2458277Y-5678031D01*
X2458277Y-5678031D02*
X2467801Y-5668508D01*
X2467801Y-5668508D02*
X2486848Y-5658984D01*
X2677325Y-5658984D02*
X2696372Y-5658984D01*
X2696372Y-5658984D02*
X2715420Y-5668508D01*
X2715420Y-5668508D02*
X2724944Y-5678031D01*
X2724944Y-5678031D02*
X2734468Y-5697079D01*
X2734468Y-5697079D02*
X2743991Y-5735174D01*
X2743991Y-5735174D02*
X2743991Y-5782793D01*
X2743991Y-5782793D02*
X2734468Y-5820888D01*
X2734468Y-5820888D02*
X2724944Y-5839936D01*
X2724944Y-5839936D02*
X2715420Y-5849460D01*
X2715420Y-5849460D02*
X2696372Y-5858984D01*
X2696372Y-5858984D02*
X2677325Y-5858984D01*
X2677325Y-5858984D02*
X2658277Y-5849460D01*
X2658277Y-5849460D02*
X2648753Y-5839936D01*
X2648753Y-5839936D02*
X2639229Y-5820888D01*
X2639229Y-5820888D02*
X2629706Y-5782793D01*
X2629706Y-5782793D02*
X2629706Y-5735174D01*
X2629706Y-5735174D02*
X2639229Y-5697079D01*
X2639229Y-5697079D02*
X2648753Y-5678031D01*
X2648753Y-5678031D02*
X2658277Y-5668508D01*
X2658277Y-5668508D02*
X2677325Y-5658984D01*
X2810658Y-5658984D02*
X2943991Y-5658984D01*
X2943991Y-5658984D02*
X2858277Y-5858984D01*
X3029706Y-5858984D02*
X3067801Y-5858984D01*
X3067801Y-5858984D02*
X3086848Y-5849460D01*
X3086848Y-5849460D02*
X3096372Y-5839936D01*
X3096372Y-5839936D02*
X3115420Y-5811365D01*
X3115420Y-5811365D02*
X3124944Y-5773269D01*
X3124944Y-5773269D02*
X3124944Y-5697079D01*
X3124944Y-5697079D02*
X3115420Y-5678031D01*
X3115420Y-5678031D02*
X3105896Y-5668508D01*
X3105896Y-5668508D02*
X3086848Y-5658984D01*
X3086848Y-5658984D02*
X3048753Y-5658984D01*
X3048753Y-5658984D02*
X3029706Y-5668508D01*
X3029706Y-5668508D02*
X3020182Y-5678031D01*
X3020182Y-5678031D02*
X3010658Y-5697079D01*
X3010658Y-5697079D02*
X3010658Y-5744698D01*
X3010658Y-5744698D02*
X3020182Y-5763746D01*
X3020182Y-5763746D02*
X3029706Y-5773269D01*
X3029706Y-5773269D02*
X3048753Y-5782793D01*
X3048753Y-5782793D02*
X3086848Y-5782793D01*
X3086848Y-5782793D02*
X3105896Y-5773269D01*
X3105896Y-5773269D02*
X3115420Y-5763746D01*
X3115420Y-5763746D02*
X3124944Y-5744698D01*
X3201134Y-5658984D02*
X3201134Y-5697079D01*
X3277325Y-5658984D02*
X3277325Y-5697079D01*
X3572563Y-5935174D02*
X3563039Y-5925650D01*
X3563039Y-5925650D02*
X3543991Y-5897079D01*
X3543991Y-5897079D02*
X3534468Y-5878031D01*
X3534468Y-5878031D02*
X3524944Y-5849460D01*
X3524944Y-5849460D02*
X3515420Y-5801841D01*
X3515420Y-5801841D02*
X3515420Y-5763746D01*
X3515420Y-5763746D02*
X3524944Y-5716127D01*
X3524944Y-5716127D02*
X3534468Y-5687555D01*
X3534468Y-5687555D02*
X3543991Y-5668508D01*
X3543991Y-5668508D02*
X3563039Y-5639936D01*
X3563039Y-5639936D02*
X3572563Y-5630412D01*
X3753515Y-5858984D02*
X3639229Y-5858984D01*
X3696372Y-5858984D02*
X3696372Y-5658984D01*
X3696372Y-5658984D02*
X3677325Y-5687555D01*
X3677325Y-5687555D02*
X3658277Y-5706603D01*
X3658277Y-5706603D02*
X3639229Y-5716127D01*
X3820182Y-5658984D02*
X3953515Y-5658984D01*
X3953515Y-5658984D02*
X3867801Y-5858984D01*
X4039229Y-5858984D02*
X4077325Y-5858984D01*
X4077325Y-5858984D02*
X4096372Y-5849460D01*
X4096372Y-5849460D02*
X4105896Y-5839936D01*
X4105896Y-5839936D02*
X4124944Y-5811365D01*
X4124944Y-5811365D02*
X4134468Y-5773269D01*
X4134468Y-5773269D02*
X4134468Y-5697079D01*
X4134468Y-5697079D02*
X4124944Y-5678031D01*
X4124944Y-5678031D02*
X4115420Y-5668508D01*
X4115420Y-5668508D02*
X4096372Y-5658984D01*
X4096372Y-5658984D02*
X4058277Y-5658984D01*
X4058277Y-5658984D02*
X4039229Y-5668508D01*
X4039229Y-5668508D02*
X4029706Y-5678031D01*
X4029706Y-5678031D02*
X4020182Y-5697079D01*
X4020182Y-5697079D02*
X4020182Y-5744698D01*
X4020182Y-5744698D02*
X4029706Y-5763746D01*
X4029706Y-5763746D02*
X4039229Y-5773269D01*
X4039229Y-5773269D02*
X4058277Y-5782793D01*
X4058277Y-5782793D02*
X4096372Y-5782793D01*
X4096372Y-5782793D02*
X4115420Y-5773269D01*
X4115420Y-5773269D02*
X4124944Y-5763746D01*
X4124944Y-5763746D02*
X4134468Y-5744698D01*
X4372563Y-5858984D02*
X4372563Y-5658984D01*
X4458277Y-5858984D02*
X4458277Y-5754222D01*
X4458277Y-5754222D02*
X4448753Y-5735174D01*
X4448753Y-5735174D02*
X4429706Y-5725650D01*
X4429706Y-5725650D02*
X4401134Y-5725650D01*
X4401134Y-5725650D02*
X4382087Y-5735174D01*
X4382087Y-5735174D02*
X4372563Y-5744698D01*
X4582087Y-5858984D02*
X4563039Y-5849460D01*
X4563039Y-5849460D02*
X4553515Y-5839936D01*
X4553515Y-5839936D02*
X4543992Y-5820888D01*
X4543992Y-5820888D02*
X4543992Y-5763746D01*
X4543992Y-5763746D02*
X4553515Y-5744698D01*
X4553515Y-5744698D02*
X4563039Y-5735174D01*
X4563039Y-5735174D02*
X4582087Y-5725650D01*
X4582087Y-5725650D02*
X4610658Y-5725650D01*
X4610658Y-5725650D02*
X4629706Y-5735174D01*
X4629706Y-5735174D02*
X4639230Y-5744698D01*
X4639230Y-5744698D02*
X4648753Y-5763746D01*
X4648753Y-5763746D02*
X4648753Y-5820888D01*
X4648753Y-5820888D02*
X4639230Y-5839936D01*
X4639230Y-5839936D02*
X4629706Y-5849460D01*
X4629706Y-5849460D02*
X4610658Y-5858984D01*
X4610658Y-5858984D02*
X4582087Y-5858984D01*
X4763039Y-5858984D02*
X4743992Y-5849460D01*
X4743992Y-5849460D02*
X4734468Y-5830412D01*
X4734468Y-5830412D02*
X4734468Y-5658984D01*
X4915420Y-5849460D02*
X4896373Y-5858984D01*
X4896373Y-5858984D02*
X4858277Y-5858984D01*
X4858277Y-5858984D02*
X4839230Y-5849460D01*
X4839230Y-5849460D02*
X4829706Y-5830412D01*
X4829706Y-5830412D02*
X4829706Y-5754222D01*
X4829706Y-5754222D02*
X4839230Y-5735174D01*
X4839230Y-5735174D02*
X4858277Y-5725650D01*
X4858277Y-5725650D02*
X4896373Y-5725650D01*
X4896373Y-5725650D02*
X4915420Y-5735174D01*
X4915420Y-5735174D02*
X4924944Y-5754222D01*
X4924944Y-5754222D02*
X4924944Y-5773269D01*
X4924944Y-5773269D02*
X4829706Y-5792317D01*
X5001134Y-5849460D02*
X5020182Y-5858984D01*
X5020182Y-5858984D02*
X5058277Y-5858984D01*
X5058277Y-5858984D02*
X5077325Y-5849460D01*
X5077325Y-5849460D02*
X5086849Y-5830412D01*
X5086849Y-5830412D02*
X5086849Y-5820888D01*
X5086849Y-5820888D02*
X5077325Y-5801841D01*
X5077325Y-5801841D02*
X5058277Y-5792317D01*
X5058277Y-5792317D02*
X5029706Y-5792317D01*
X5029706Y-5792317D02*
X5010658Y-5782793D01*
X5010658Y-5782793D02*
X5001134Y-5763746D01*
X5001134Y-5763746D02*
X5001134Y-5754222D01*
X5001134Y-5754222D02*
X5010658Y-5735174D01*
X5010658Y-5735174D02*
X5029706Y-5725650D01*
X5029706Y-5725650D02*
X5058277Y-5725650D01*
X5058277Y-5725650D02*
X5077325Y-5735174D01*
X5153515Y-5935174D02*
X5163039Y-5925650D01*
X5163039Y-5925650D02*
X5182087Y-5897079D01*
X5182087Y-5897079D02*
X5191611Y-5878031D01*
X5191611Y-5878031D02*
X5201134Y-5849460D01*
X5201134Y-5849460D02*
X5210658Y-5801841D01*
X5210658Y-5801841D02*
X5210658Y-5763746D01*
X5210658Y-5763746D02*
X5201134Y-5716127D01*
X5201134Y-5716127D02*
X5191611Y-5687555D01*
X5191611Y-5687555D02*
X5182087Y-5668508D01*
X5182087Y-5668508D02*
X5163039Y-5639936D01*
X5163039Y-5639936D02*
X5153515Y-5630412D01*
D12*
X-2500Y-6031500D02*
G75*
G02*
X-62500Y-6031500I-30000J0D01*
G01*
X-62500Y-6031500D02*
G75*
G02*
X-2500Y-6031500I30000J0D01*
G01*
D11*
X296372Y-5922984D02*
X315420Y-5922984D01*
X315420Y-5922984D02*
X334467Y-5932508D01*
X334467Y-5932508D02*
X343991Y-5942031D01*
X343991Y-5942031D02*
X353515Y-5961079D01*
X353515Y-5961079D02*
X363039Y-5999174D01*
X363039Y-5999174D02*
X363039Y-6046793D01*
X363039Y-6046793D02*
X353515Y-6084888D01*
X353515Y-6084888D02*
X343991Y-6103936D01*
X343991Y-6103936D02*
X334467Y-6113460D01*
X334467Y-6113460D02*
X315420Y-6122984D01*
X315420Y-6122984D02*
X296372Y-6122984D01*
X296372Y-6122984D02*
X277324Y-6113460D01*
X277324Y-6113460D02*
X267801Y-6103936D01*
X267801Y-6103936D02*
X258277Y-6084888D01*
X258277Y-6084888D02*
X248753Y-6046793D01*
X248753Y-6046793D02*
X248753Y-5999174D01*
X248753Y-5999174D02*
X258277Y-5961079D01*
X258277Y-5961079D02*
X267801Y-5942031D01*
X267801Y-5942031D02*
X277324Y-5932508D01*
X277324Y-5932508D02*
X296372Y-5922984D01*
X448753Y-6103936D02*
X458277Y-6113460D01*
X458277Y-6113460D02*
X448753Y-6122984D01*
X448753Y-6122984D02*
X439229Y-6113460D01*
X439229Y-6113460D02*
X448753Y-6103936D01*
X448753Y-6103936D02*
X448753Y-6122984D01*
X629705Y-5922984D02*
X591610Y-5922984D01*
X591610Y-5922984D02*
X572563Y-5932508D01*
X572563Y-5932508D02*
X563039Y-5942031D01*
X563039Y-5942031D02*
X543991Y-5970603D01*
X543991Y-5970603D02*
X534467Y-6008698D01*
X534467Y-6008698D02*
X534467Y-6084888D01*
X534467Y-6084888D02*
X543991Y-6103936D01*
X543991Y-6103936D02*
X553515Y-6113460D01*
X553515Y-6113460D02*
X572563Y-6122984D01*
X572563Y-6122984D02*
X610658Y-6122984D01*
X610658Y-6122984D02*
X629705Y-6113460D01*
X629705Y-6113460D02*
X639229Y-6103936D01*
X639229Y-6103936D02*
X648753Y-6084888D01*
X648753Y-6084888D02*
X648753Y-6037269D01*
X648753Y-6037269D02*
X639229Y-6018222D01*
X639229Y-6018222D02*
X629705Y-6008698D01*
X629705Y-6008698D02*
X610658Y-5999174D01*
X610658Y-5999174D02*
X572563Y-5999174D01*
X572563Y-5999174D02*
X553515Y-6008698D01*
X553515Y-6008698D02*
X543991Y-6018222D01*
X543991Y-6018222D02*
X534467Y-6037269D01*
X772562Y-5922984D02*
X791610Y-5922984D01*
X791610Y-5922984D02*
X810658Y-5932508D01*
X810658Y-5932508D02*
X820182Y-5942031D01*
X820182Y-5942031D02*
X829705Y-5961079D01*
X829705Y-5961079D02*
X839229Y-5999174D01*
X839229Y-5999174D02*
X839229Y-6046793D01*
X839229Y-6046793D02*
X829705Y-6084888D01*
X829705Y-6084888D02*
X820182Y-6103936D01*
X820182Y-6103936D02*
X810658Y-6113460D01*
X810658Y-6113460D02*
X791610Y-6122984D01*
X791610Y-6122984D02*
X772562Y-6122984D01*
X772562Y-6122984D02*
X753515Y-6113460D01*
X753515Y-6113460D02*
X743991Y-6103936D01*
X743991Y-6103936D02*
X734467Y-6084888D01*
X734467Y-6084888D02*
X724943Y-6046793D01*
X724943Y-6046793D02*
X724943Y-5999174D01*
X724943Y-5999174D02*
X734467Y-5961079D01*
X734467Y-5961079D02*
X743991Y-5942031D01*
X743991Y-5942031D02*
X753515Y-5932508D01*
X753515Y-5932508D02*
X772562Y-5922984D01*
X963039Y-5922984D02*
X982086Y-5922984D01*
X982086Y-5922984D02*
X1001134Y-5932508D01*
X1001134Y-5932508D02*
X1010658Y-5942031D01*
X1010658Y-5942031D02*
X1020182Y-5961079D01*
X1020182Y-5961079D02*
X1029705Y-5999174D01*
X1029705Y-5999174D02*
X1029705Y-6046793D01*
X1029705Y-6046793D02*
X1020182Y-6084888D01*
X1020182Y-6084888D02*
X1010658Y-6103936D01*
X1010658Y-6103936D02*
X1001134Y-6113460D01*
X1001134Y-6113460D02*
X982086Y-6122984D01*
X982086Y-6122984D02*
X963039Y-6122984D01*
X963039Y-6122984D02*
X943991Y-6113460D01*
X943991Y-6113460D02*
X934467Y-6103936D01*
X934467Y-6103936D02*
X924943Y-6084888D01*
X924943Y-6084888D02*
X915420Y-6046793D01*
X915420Y-6046793D02*
X915420Y-5999174D01*
X915420Y-5999174D02*
X924943Y-5961079D01*
X924943Y-5961079D02*
X934467Y-5942031D01*
X934467Y-5942031D02*
X943991Y-5932508D01*
X943991Y-5932508D02*
X963039Y-5922984D01*
X1115420Y-6122984D02*
X1115420Y-5989650D01*
X1115420Y-6008698D02*
X1124944Y-5999174D01*
X1124944Y-5999174D02*
X1143991Y-5989650D01*
X1143991Y-5989650D02*
X1172563Y-5989650D01*
X1172563Y-5989650D02*
X1191610Y-5999174D01*
X1191610Y-5999174D02*
X1201134Y-6018222D01*
X1201134Y-6018222D02*
X1201134Y-6122984D01*
X1201134Y-6018222D02*
X1210658Y-5999174D01*
X1210658Y-5999174D02*
X1229705Y-5989650D01*
X1229705Y-5989650D02*
X1258277Y-5989650D01*
X1258277Y-5989650D02*
X1277325Y-5999174D01*
X1277325Y-5999174D02*
X1286848Y-6018222D01*
X1286848Y-6018222D02*
X1286848Y-6122984D01*
X1382086Y-6122984D02*
X1382086Y-5989650D01*
X1382086Y-6008698D02*
X1391610Y-5999174D01*
X1391610Y-5999174D02*
X1410658Y-5989650D01*
X1410658Y-5989650D02*
X1439229Y-5989650D01*
X1439229Y-5989650D02*
X1458277Y-5999174D01*
X1458277Y-5999174D02*
X1467801Y-6018222D01*
X1467801Y-6018222D02*
X1467801Y-6122984D01*
X1467801Y-6018222D02*
X1477324Y-5999174D01*
X1477324Y-5999174D02*
X1496372Y-5989650D01*
X1496372Y-5989650D02*
X1524943Y-5989650D01*
X1524943Y-5989650D02*
X1543991Y-5999174D01*
X1543991Y-5999174D02*
X1553515Y-6018222D01*
X1553515Y-6018222D02*
X1553515Y-6122984D01*
X1943991Y-5913460D02*
X1772563Y-6170603D01*
X2201134Y-5922984D02*
X2220182Y-5922984D01*
X2220182Y-5922984D02*
X2239229Y-5932508D01*
X2239229Y-5932508D02*
X2248753Y-5942031D01*
X2248753Y-5942031D02*
X2258277Y-5961079D01*
X2258277Y-5961079D02*
X2267801Y-5999174D01*
X2267801Y-5999174D02*
X2267801Y-6046793D01*
X2267801Y-6046793D02*
X2258277Y-6084888D01*
X2258277Y-6084888D02*
X2248753Y-6103936D01*
X2248753Y-6103936D02*
X2239229Y-6113460D01*
X2239229Y-6113460D02*
X2220182Y-6122984D01*
X2220182Y-6122984D02*
X2201134Y-6122984D01*
X2201134Y-6122984D02*
X2182087Y-6113460D01*
X2182087Y-6113460D02*
X2172563Y-6103936D01*
X2172563Y-6103936D02*
X2163039Y-6084888D01*
X2163039Y-6084888D02*
X2153515Y-6046793D01*
X2153515Y-6046793D02*
X2153515Y-5999174D01*
X2153515Y-5999174D02*
X2163039Y-5961079D01*
X2163039Y-5961079D02*
X2172563Y-5942031D01*
X2172563Y-5942031D02*
X2182087Y-5932508D01*
X2182087Y-5932508D02*
X2201134Y-5922984D01*
X2353515Y-6103936D02*
X2363039Y-6113460D01*
X2363039Y-6113460D02*
X2353515Y-6122984D01*
X2353515Y-6122984D02*
X2343991Y-6113460D01*
X2343991Y-6113460D02*
X2353515Y-6103936D01*
X2353515Y-6103936D02*
X2353515Y-6122984D01*
X2486848Y-5922984D02*
X2505896Y-5922984D01*
X2505896Y-5922984D02*
X2524944Y-5932508D01*
X2524944Y-5932508D02*
X2534468Y-5942031D01*
X2534468Y-5942031D02*
X2543991Y-5961079D01*
X2543991Y-5961079D02*
X2553515Y-5999174D01*
X2553515Y-5999174D02*
X2553515Y-6046793D01*
X2553515Y-6046793D02*
X2543991Y-6084888D01*
X2543991Y-6084888D02*
X2534468Y-6103936D01*
X2534468Y-6103936D02*
X2524944Y-6113460D01*
X2524944Y-6113460D02*
X2505896Y-6122984D01*
X2505896Y-6122984D02*
X2486848Y-6122984D01*
X2486848Y-6122984D02*
X2467801Y-6113460D01*
X2467801Y-6113460D02*
X2458277Y-6103936D01*
X2458277Y-6103936D02*
X2448753Y-6084888D01*
X2448753Y-6084888D02*
X2439229Y-6046793D01*
X2439229Y-6046793D02*
X2439229Y-5999174D01*
X2439229Y-5999174D02*
X2448753Y-5961079D01*
X2448753Y-5961079D02*
X2458277Y-5942031D01*
X2458277Y-5942031D02*
X2467801Y-5932508D01*
X2467801Y-5932508D02*
X2486848Y-5922984D01*
X2629706Y-5942031D02*
X2639229Y-5932508D01*
X2639229Y-5932508D02*
X2658277Y-5922984D01*
X2658277Y-5922984D02*
X2705896Y-5922984D01*
X2705896Y-5922984D02*
X2724944Y-5932508D01*
X2724944Y-5932508D02*
X2734468Y-5942031D01*
X2734468Y-5942031D02*
X2743991Y-5961079D01*
X2743991Y-5961079D02*
X2743991Y-5980127D01*
X2743991Y-5980127D02*
X2734468Y-6008698D01*
X2734468Y-6008698D02*
X2620182Y-6122984D01*
X2620182Y-6122984D02*
X2743991Y-6122984D01*
X2810658Y-5922984D02*
X2934467Y-5922984D01*
X2934467Y-5922984D02*
X2867801Y-5999174D01*
X2867801Y-5999174D02*
X2896372Y-5999174D01*
X2896372Y-5999174D02*
X2915420Y-6008698D01*
X2915420Y-6008698D02*
X2924944Y-6018222D01*
X2924944Y-6018222D02*
X2934467Y-6037269D01*
X2934467Y-6037269D02*
X2934467Y-6084888D01*
X2934467Y-6084888D02*
X2924944Y-6103936D01*
X2924944Y-6103936D02*
X2915420Y-6113460D01*
X2915420Y-6113460D02*
X2896372Y-6122984D01*
X2896372Y-6122984D02*
X2839229Y-6122984D01*
X2839229Y-6122984D02*
X2820182Y-6113460D01*
X2820182Y-6113460D02*
X2810658Y-6103936D01*
X3105896Y-5922984D02*
X3067801Y-5922984D01*
X3067801Y-5922984D02*
X3048753Y-5932508D01*
X3048753Y-5932508D02*
X3039229Y-5942031D01*
X3039229Y-5942031D02*
X3020182Y-5970603D01*
X3020182Y-5970603D02*
X3010658Y-6008698D01*
X3010658Y-6008698D02*
X3010658Y-6084888D01*
X3010658Y-6084888D02*
X3020182Y-6103936D01*
X3020182Y-6103936D02*
X3029706Y-6113460D01*
X3029706Y-6113460D02*
X3048753Y-6122984D01*
X3048753Y-6122984D02*
X3086848Y-6122984D01*
X3086848Y-6122984D02*
X3105896Y-6113460D01*
X3105896Y-6113460D02*
X3115420Y-6103936D01*
X3115420Y-6103936D02*
X3124944Y-6084888D01*
X3124944Y-6084888D02*
X3124944Y-6037269D01*
X3124944Y-6037269D02*
X3115420Y-6018222D01*
X3115420Y-6018222D02*
X3105896Y-6008698D01*
X3105896Y-6008698D02*
X3086848Y-5999174D01*
X3086848Y-5999174D02*
X3048753Y-5999174D01*
X3048753Y-5999174D02*
X3029706Y-6008698D01*
X3029706Y-6008698D02*
X3020182Y-6018222D01*
X3020182Y-6018222D02*
X3010658Y-6037269D01*
X3201134Y-5922984D02*
X3201134Y-5961079D01*
X3277325Y-5922984D02*
X3277325Y-5961079D01*
X3572563Y-6199174D02*
X3563039Y-6189650D01*
X3563039Y-6189650D02*
X3543991Y-6161079D01*
X3543991Y-6161079D02*
X3534468Y-6142031D01*
X3534468Y-6142031D02*
X3524944Y-6113460D01*
X3524944Y-6113460D02*
X3515420Y-6065841D01*
X3515420Y-6065841D02*
X3515420Y-6027746D01*
X3515420Y-6027746D02*
X3524944Y-5980127D01*
X3524944Y-5980127D02*
X3534468Y-5951555D01*
X3534468Y-5951555D02*
X3543991Y-5932508D01*
X3543991Y-5932508D02*
X3563039Y-5903936D01*
X3563039Y-5903936D02*
X3572563Y-5894412D01*
X3686848Y-5922984D02*
X3705896Y-5922984D01*
X3705896Y-5922984D02*
X3724944Y-5932508D01*
X3724944Y-5932508D02*
X3734468Y-5942031D01*
X3734468Y-5942031D02*
X3743991Y-5961079D01*
X3743991Y-5961079D02*
X3753515Y-5999174D01*
X3753515Y-5999174D02*
X3753515Y-6046793D01*
X3753515Y-6046793D02*
X3743991Y-6084888D01*
X3743991Y-6084888D02*
X3734468Y-6103936D01*
X3734468Y-6103936D02*
X3724944Y-6113460D01*
X3724944Y-6113460D02*
X3705896Y-6122984D01*
X3705896Y-6122984D02*
X3686848Y-6122984D01*
X3686848Y-6122984D02*
X3667801Y-6113460D01*
X3667801Y-6113460D02*
X3658277Y-6103936D01*
X3658277Y-6103936D02*
X3648753Y-6084888D01*
X3648753Y-6084888D02*
X3639229Y-6046793D01*
X3639229Y-6046793D02*
X3639229Y-5999174D01*
X3639229Y-5999174D02*
X3648753Y-5961079D01*
X3648753Y-5961079D02*
X3658277Y-5942031D01*
X3658277Y-5942031D02*
X3667801Y-5932508D01*
X3667801Y-5932508D02*
X3686848Y-5922984D01*
X3991610Y-6122984D02*
X3991610Y-5922984D01*
X4077325Y-6122984D02*
X4077325Y-6018222D01*
X4077325Y-6018222D02*
X4067801Y-5999174D01*
X4067801Y-5999174D02*
X4048753Y-5989650D01*
X4048753Y-5989650D02*
X4020182Y-5989650D01*
X4020182Y-5989650D02*
X4001134Y-5999174D01*
X4001134Y-5999174D02*
X3991610Y-6008698D01*
X4201134Y-6122984D02*
X4182087Y-6113460D01*
X4182087Y-6113460D02*
X4172563Y-6103936D01*
X4172563Y-6103936D02*
X4163039Y-6084888D01*
X4163039Y-6084888D02*
X4163039Y-6027746D01*
X4163039Y-6027746D02*
X4172563Y-6008698D01*
X4172563Y-6008698D02*
X4182087Y-5999174D01*
X4182087Y-5999174D02*
X4201134Y-5989650D01*
X4201134Y-5989650D02*
X4229706Y-5989650D01*
X4229706Y-5989650D02*
X4248753Y-5999174D01*
X4248753Y-5999174D02*
X4258277Y-6008698D01*
X4258277Y-6008698D02*
X4267801Y-6027746D01*
X4267801Y-6027746D02*
X4267801Y-6084888D01*
X4267801Y-6084888D02*
X4258277Y-6103936D01*
X4258277Y-6103936D02*
X4248753Y-6113460D01*
X4248753Y-6113460D02*
X4229706Y-6122984D01*
X4229706Y-6122984D02*
X4201134Y-6122984D01*
X4382087Y-6122984D02*
X4363039Y-6113460D01*
X4363039Y-6113460D02*
X4353515Y-6094412D01*
X4353515Y-6094412D02*
X4353515Y-5922984D01*
X4534468Y-6113460D02*
X4515420Y-6122984D01*
X4515420Y-6122984D02*
X4477325Y-6122984D01*
X4477325Y-6122984D02*
X4458277Y-6113460D01*
X4458277Y-6113460D02*
X4448753Y-6094412D01*
X4448753Y-6094412D02*
X4448753Y-6018222D01*
X4448753Y-6018222D02*
X4458277Y-5999174D01*
X4458277Y-5999174D02*
X4477325Y-5989650D01*
X4477325Y-5989650D02*
X4515420Y-5989650D01*
X4515420Y-5989650D02*
X4534468Y-5999174D01*
X4534468Y-5999174D02*
X4543992Y-6018222D01*
X4543992Y-6018222D02*
X4543992Y-6037269D01*
X4543992Y-6037269D02*
X4448753Y-6056317D01*
X4620182Y-6113460D02*
X4639230Y-6122984D01*
X4639230Y-6122984D02*
X4677325Y-6122984D01*
X4677325Y-6122984D02*
X4696373Y-6113460D01*
X4696373Y-6113460D02*
X4705896Y-6094412D01*
X4705896Y-6094412D02*
X4705896Y-6084888D01*
X4705896Y-6084888D02*
X4696373Y-6065841D01*
X4696373Y-6065841D02*
X4677325Y-6056317D01*
X4677325Y-6056317D02*
X4648753Y-6056317D01*
X4648753Y-6056317D02*
X4629706Y-6046793D01*
X4629706Y-6046793D02*
X4620182Y-6027746D01*
X4620182Y-6027746D02*
X4620182Y-6018222D01*
X4620182Y-6018222D02*
X4629706Y-5999174D01*
X4629706Y-5999174D02*
X4648753Y-5989650D01*
X4648753Y-5989650D02*
X4677325Y-5989650D01*
X4677325Y-5989650D02*
X4696373Y-5999174D01*
X4943992Y-6046793D02*
X5096373Y-6046793D01*
X5020182Y-6122984D02*
X5020182Y-5970603D01*
X5429706Y-5989650D02*
X5429706Y-6122984D01*
X5382087Y-5913460D02*
X5334468Y-6056317D01*
X5334468Y-6056317D02*
X5458277Y-6056317D01*
X5677325Y-6113460D02*
X5696373Y-6122984D01*
X5696373Y-6122984D02*
X5734468Y-6122984D01*
X5734468Y-6122984D02*
X5753515Y-6113460D01*
X5753515Y-6113460D02*
X5763039Y-6094412D01*
X5763039Y-6094412D02*
X5763039Y-6084888D01*
X5763039Y-6084888D02*
X5753515Y-6065841D01*
X5753515Y-6065841D02*
X5734468Y-6056317D01*
X5734468Y-6056317D02*
X5705896Y-6056317D01*
X5705896Y-6056317D02*
X5686849Y-6046793D01*
X5686849Y-6046793D02*
X5677325Y-6027746D01*
X5677325Y-6027746D02*
X5677325Y-6018222D01*
X5677325Y-6018222D02*
X5686849Y-5999174D01*
X5686849Y-5999174D02*
X5705896Y-5989650D01*
X5705896Y-5989650D02*
X5734468Y-5989650D01*
X5734468Y-5989650D02*
X5753515Y-5999174D01*
X5877325Y-6122984D02*
X5858277Y-6113460D01*
X5858277Y-6113460D02*
X5848754Y-6094412D01*
X5848754Y-6094412D02*
X5848754Y-5922984D01*
X5982087Y-6122984D02*
X5963039Y-6113460D01*
X5963039Y-6113460D02*
X5953515Y-6103936D01*
X5953515Y-6103936D02*
X5943992Y-6084888D01*
X5943992Y-6084888D02*
X5943992Y-6027746D01*
X5943992Y-6027746D02*
X5953515Y-6008698D01*
X5953515Y-6008698D02*
X5963039Y-5999174D01*
X5963039Y-5999174D02*
X5982087Y-5989650D01*
X5982087Y-5989650D02*
X6010658Y-5989650D01*
X6010658Y-5989650D02*
X6029706Y-5999174D01*
X6029706Y-5999174D02*
X6039230Y-6008698D01*
X6039230Y-6008698D02*
X6048754Y-6027746D01*
X6048754Y-6027746D02*
X6048754Y-6084888D01*
X6048754Y-6084888D02*
X6039230Y-6103936D01*
X6039230Y-6103936D02*
X6029706Y-6113460D01*
X6029706Y-6113460D02*
X6010658Y-6122984D01*
X6010658Y-6122984D02*
X5982087Y-6122984D01*
X6105896Y-5989650D02*
X6182087Y-5989650D01*
X6134468Y-5922984D02*
X6134468Y-6094412D01*
X6134468Y-6094412D02*
X6143992Y-6113460D01*
X6143992Y-6113460D02*
X6163039Y-6122984D01*
X6163039Y-6122984D02*
X6182087Y-6122984D01*
X6239230Y-6113460D02*
X6258277Y-6122984D01*
X6258277Y-6122984D02*
X6296373Y-6122984D01*
X6296373Y-6122984D02*
X6315420Y-6113460D01*
X6315420Y-6113460D02*
X6324944Y-6094412D01*
X6324944Y-6094412D02*
X6324944Y-6084888D01*
X6324944Y-6084888D02*
X6315420Y-6065841D01*
X6315420Y-6065841D02*
X6296373Y-6056317D01*
X6296373Y-6056317D02*
X6267801Y-6056317D01*
X6267801Y-6056317D02*
X6248754Y-6046793D01*
X6248754Y-6046793D02*
X6239230Y-6027746D01*
X6239230Y-6027746D02*
X6239230Y-6018222D01*
X6239230Y-6018222D02*
X6248754Y-5999174D01*
X6248754Y-5999174D02*
X6267801Y-5989650D01*
X6267801Y-5989650D02*
X6296373Y-5989650D01*
X6296373Y-5989650D02*
X6315420Y-5999174D01*
X6391611Y-6199174D02*
X6401135Y-6189650D01*
X6401135Y-6189650D02*
X6420182Y-6161079D01*
X6420182Y-6161079D02*
X6429706Y-6142031D01*
X6429706Y-6142031D02*
X6439230Y-6113460D01*
X6439230Y-6113460D02*
X6448754Y-6065841D01*
X6448754Y-6065841D02*
X6448754Y-6027746D01*
X6448754Y-6027746D02*
X6439230Y-5980127D01*
X6439230Y-5980127D02*
X6429706Y-5951555D01*
X6429706Y-5951555D02*
X6420182Y-5932508D01*
X6420182Y-5932508D02*
X6401135Y-5903936D01*
X6401135Y-5903936D02*
X6391611Y-5894412D01*
D12*
X-42500Y-6255500D02*
X-42500Y-6335500D01*
X-82500Y-6295500D02*
X-2500Y-6295500D01*
D11*
X296372Y-6186984D02*
X315420Y-6186984D01*
X315420Y-6186984D02*
X334467Y-6196508D01*
X334467Y-6196508D02*
X343991Y-6206031D01*
X343991Y-6206031D02*
X353515Y-6225079D01*
X353515Y-6225079D02*
X363039Y-6263174D01*
X363039Y-6263174D02*
X363039Y-6310793D01*
X363039Y-6310793D02*
X353515Y-6348888D01*
X353515Y-6348888D02*
X343991Y-6367936D01*
X343991Y-6367936D02*
X334467Y-6377460D01*
X334467Y-6377460D02*
X315420Y-6386984D01*
X315420Y-6386984D02*
X296372Y-6386984D01*
X296372Y-6386984D02*
X277324Y-6377460D01*
X277324Y-6377460D02*
X267801Y-6367936D01*
X267801Y-6367936D02*
X258277Y-6348888D01*
X258277Y-6348888D02*
X248753Y-6310793D01*
X248753Y-6310793D02*
X248753Y-6263174D01*
X248753Y-6263174D02*
X258277Y-6225079D01*
X258277Y-6225079D02*
X267801Y-6206031D01*
X267801Y-6206031D02*
X277324Y-6196508D01*
X277324Y-6196508D02*
X296372Y-6186984D01*
X448753Y-6367936D02*
X458277Y-6377460D01*
X458277Y-6377460D02*
X448753Y-6386984D01*
X448753Y-6386984D02*
X439229Y-6377460D01*
X439229Y-6377460D02*
X448753Y-6367936D01*
X448753Y-6367936D02*
X448753Y-6386984D01*
X572563Y-6272698D02*
X553515Y-6263174D01*
X553515Y-6263174D02*
X543991Y-6253650D01*
X543991Y-6253650D02*
X534467Y-6234603D01*
X534467Y-6234603D02*
X534467Y-6225079D01*
X534467Y-6225079D02*
X543991Y-6206031D01*
X543991Y-6206031D02*
X553515Y-6196508D01*
X553515Y-6196508D02*
X572563Y-6186984D01*
X572563Y-6186984D02*
X610658Y-6186984D01*
X610658Y-6186984D02*
X629705Y-6196508D01*
X629705Y-6196508D02*
X639229Y-6206031D01*
X639229Y-6206031D02*
X648753Y-6225079D01*
X648753Y-6225079D02*
X648753Y-6234603D01*
X648753Y-6234603D02*
X639229Y-6253650D01*
X639229Y-6253650D02*
X629705Y-6263174D01*
X629705Y-6263174D02*
X610658Y-6272698D01*
X610658Y-6272698D02*
X572563Y-6272698D01*
X572563Y-6272698D02*
X553515Y-6282222D01*
X553515Y-6282222D02*
X543991Y-6291746D01*
X543991Y-6291746D02*
X534467Y-6310793D01*
X534467Y-6310793D02*
X534467Y-6348888D01*
X534467Y-6348888D02*
X543991Y-6367936D01*
X543991Y-6367936D02*
X553515Y-6377460D01*
X553515Y-6377460D02*
X572563Y-6386984D01*
X572563Y-6386984D02*
X610658Y-6386984D01*
X610658Y-6386984D02*
X629705Y-6377460D01*
X629705Y-6377460D02*
X639229Y-6367936D01*
X639229Y-6367936D02*
X648753Y-6348888D01*
X648753Y-6348888D02*
X648753Y-6310793D01*
X648753Y-6310793D02*
X639229Y-6291746D01*
X639229Y-6291746D02*
X629705Y-6282222D01*
X629705Y-6282222D02*
X610658Y-6272698D01*
X772562Y-6186984D02*
X791610Y-6186984D01*
X791610Y-6186984D02*
X810658Y-6196508D01*
X810658Y-6196508D02*
X820182Y-6206031D01*
X820182Y-6206031D02*
X829705Y-6225079D01*
X829705Y-6225079D02*
X839229Y-6263174D01*
X839229Y-6263174D02*
X839229Y-6310793D01*
X839229Y-6310793D02*
X829705Y-6348888D01*
X829705Y-6348888D02*
X820182Y-6367936D01*
X820182Y-6367936D02*
X810658Y-6377460D01*
X810658Y-6377460D02*
X791610Y-6386984D01*
X791610Y-6386984D02*
X772562Y-6386984D01*
X772562Y-6386984D02*
X753515Y-6377460D01*
X753515Y-6377460D02*
X743991Y-6367936D01*
X743991Y-6367936D02*
X734467Y-6348888D01*
X734467Y-6348888D02*
X724943Y-6310793D01*
X724943Y-6310793D02*
X724943Y-6263174D01*
X724943Y-6263174D02*
X734467Y-6225079D01*
X734467Y-6225079D02*
X743991Y-6206031D01*
X743991Y-6206031D02*
X753515Y-6196508D01*
X753515Y-6196508D02*
X772562Y-6186984D01*
X963039Y-6186984D02*
X982086Y-6186984D01*
X982086Y-6186984D02*
X1001134Y-6196508D01*
X1001134Y-6196508D02*
X1010658Y-6206031D01*
X1010658Y-6206031D02*
X1020182Y-6225079D01*
X1020182Y-6225079D02*
X1029705Y-6263174D01*
X1029705Y-6263174D02*
X1029705Y-6310793D01*
X1029705Y-6310793D02*
X1020182Y-6348888D01*
X1020182Y-6348888D02*
X1010658Y-6367936D01*
X1010658Y-6367936D02*
X1001134Y-6377460D01*
X1001134Y-6377460D02*
X982086Y-6386984D01*
X982086Y-6386984D02*
X963039Y-6386984D01*
X963039Y-6386984D02*
X943991Y-6377460D01*
X943991Y-6377460D02*
X934467Y-6367936D01*
X934467Y-6367936D02*
X924943Y-6348888D01*
X924943Y-6348888D02*
X915420Y-6310793D01*
X915420Y-6310793D02*
X915420Y-6263174D01*
X915420Y-6263174D02*
X924943Y-6225079D01*
X924943Y-6225079D02*
X934467Y-6206031D01*
X934467Y-6206031D02*
X943991Y-6196508D01*
X943991Y-6196508D02*
X963039Y-6186984D01*
X1115420Y-6386984D02*
X1115420Y-6253650D01*
X1115420Y-6272698D02*
X1124944Y-6263174D01*
X1124944Y-6263174D02*
X1143991Y-6253650D01*
X1143991Y-6253650D02*
X1172563Y-6253650D01*
X1172563Y-6253650D02*
X1191610Y-6263174D01*
X1191610Y-6263174D02*
X1201134Y-6282222D01*
X1201134Y-6282222D02*
X1201134Y-6386984D01*
X1201134Y-6282222D02*
X1210658Y-6263174D01*
X1210658Y-6263174D02*
X1229705Y-6253650D01*
X1229705Y-6253650D02*
X1258277Y-6253650D01*
X1258277Y-6253650D02*
X1277325Y-6263174D01*
X1277325Y-6263174D02*
X1286848Y-6282222D01*
X1286848Y-6282222D02*
X1286848Y-6386984D01*
X1382086Y-6386984D02*
X1382086Y-6253650D01*
X1382086Y-6272698D02*
X1391610Y-6263174D01*
X1391610Y-6263174D02*
X1410658Y-6253650D01*
X1410658Y-6253650D02*
X1439229Y-6253650D01*
X1439229Y-6253650D02*
X1458277Y-6263174D01*
X1458277Y-6263174D02*
X1467801Y-6282222D01*
X1467801Y-6282222D02*
X1467801Y-6386984D01*
X1467801Y-6282222D02*
X1477324Y-6263174D01*
X1477324Y-6263174D02*
X1496372Y-6253650D01*
X1496372Y-6253650D02*
X1524943Y-6253650D01*
X1524943Y-6253650D02*
X1543991Y-6263174D01*
X1543991Y-6263174D02*
X1553515Y-6282222D01*
X1553515Y-6282222D02*
X1553515Y-6386984D01*
X1943991Y-6177460D02*
X1772563Y-6434603D01*
X2201134Y-6186984D02*
X2220182Y-6186984D01*
X2220182Y-6186984D02*
X2239229Y-6196508D01*
X2239229Y-6196508D02*
X2248753Y-6206031D01*
X2248753Y-6206031D02*
X2258277Y-6225079D01*
X2258277Y-6225079D02*
X2267801Y-6263174D01*
X2267801Y-6263174D02*
X2267801Y-6310793D01*
X2267801Y-6310793D02*
X2258277Y-6348888D01*
X2258277Y-6348888D02*
X2248753Y-6367936D01*
X2248753Y-6367936D02*
X2239229Y-6377460D01*
X2239229Y-6377460D02*
X2220182Y-6386984D01*
X2220182Y-6386984D02*
X2201134Y-6386984D01*
X2201134Y-6386984D02*
X2182087Y-6377460D01*
X2182087Y-6377460D02*
X2172563Y-6367936D01*
X2172563Y-6367936D02*
X2163039Y-6348888D01*
X2163039Y-6348888D02*
X2153515Y-6310793D01*
X2153515Y-6310793D02*
X2153515Y-6263174D01*
X2153515Y-6263174D02*
X2163039Y-6225079D01*
X2163039Y-6225079D02*
X2172563Y-6206031D01*
X2172563Y-6206031D02*
X2182087Y-6196508D01*
X2182087Y-6196508D02*
X2201134Y-6186984D01*
X2353515Y-6367936D02*
X2363039Y-6377460D01*
X2363039Y-6377460D02*
X2353515Y-6386984D01*
X2353515Y-6386984D02*
X2343991Y-6377460D01*
X2343991Y-6377460D02*
X2353515Y-6367936D01*
X2353515Y-6367936D02*
X2353515Y-6386984D01*
X2486848Y-6186984D02*
X2505896Y-6186984D01*
X2505896Y-6186984D02*
X2524944Y-6196508D01*
X2524944Y-6196508D02*
X2534468Y-6206031D01*
X2534468Y-6206031D02*
X2543991Y-6225079D01*
X2543991Y-6225079D02*
X2553515Y-6263174D01*
X2553515Y-6263174D02*
X2553515Y-6310793D01*
X2553515Y-6310793D02*
X2543991Y-6348888D01*
X2543991Y-6348888D02*
X2534468Y-6367936D01*
X2534468Y-6367936D02*
X2524944Y-6377460D01*
X2524944Y-6377460D02*
X2505896Y-6386984D01*
X2505896Y-6386984D02*
X2486848Y-6386984D01*
X2486848Y-6386984D02*
X2467801Y-6377460D01*
X2467801Y-6377460D02*
X2458277Y-6367936D01*
X2458277Y-6367936D02*
X2448753Y-6348888D01*
X2448753Y-6348888D02*
X2439229Y-6310793D01*
X2439229Y-6310793D02*
X2439229Y-6263174D01*
X2439229Y-6263174D02*
X2448753Y-6225079D01*
X2448753Y-6225079D02*
X2458277Y-6206031D01*
X2458277Y-6206031D02*
X2467801Y-6196508D01*
X2467801Y-6196508D02*
X2486848Y-6186984D01*
X2620182Y-6186984D02*
X2743991Y-6186984D01*
X2743991Y-6186984D02*
X2677325Y-6263174D01*
X2677325Y-6263174D02*
X2705896Y-6263174D01*
X2705896Y-6263174D02*
X2724944Y-6272698D01*
X2724944Y-6272698D02*
X2734468Y-6282222D01*
X2734468Y-6282222D02*
X2743991Y-6301269D01*
X2743991Y-6301269D02*
X2743991Y-6348888D01*
X2743991Y-6348888D02*
X2734468Y-6367936D01*
X2734468Y-6367936D02*
X2724944Y-6377460D01*
X2724944Y-6377460D02*
X2705896Y-6386984D01*
X2705896Y-6386984D02*
X2648753Y-6386984D01*
X2648753Y-6386984D02*
X2629706Y-6377460D01*
X2629706Y-6377460D02*
X2620182Y-6367936D01*
X2934467Y-6386984D02*
X2820182Y-6386984D01*
X2877325Y-6386984D02*
X2877325Y-6186984D01*
X2877325Y-6186984D02*
X2858277Y-6215555D01*
X2858277Y-6215555D02*
X2839229Y-6234603D01*
X2839229Y-6234603D02*
X2820182Y-6244127D01*
X3115420Y-6186984D02*
X3020182Y-6186984D01*
X3020182Y-6186984D02*
X3010658Y-6282222D01*
X3010658Y-6282222D02*
X3020182Y-6272698D01*
X3020182Y-6272698D02*
X3039229Y-6263174D01*
X3039229Y-6263174D02*
X3086848Y-6263174D01*
X3086848Y-6263174D02*
X3105896Y-6272698D01*
X3105896Y-6272698D02*
X3115420Y-6282222D01*
X3115420Y-6282222D02*
X3124944Y-6301269D01*
X3124944Y-6301269D02*
X3124944Y-6348888D01*
X3124944Y-6348888D02*
X3115420Y-6367936D01*
X3115420Y-6367936D02*
X3105896Y-6377460D01*
X3105896Y-6377460D02*
X3086848Y-6386984D01*
X3086848Y-6386984D02*
X3039229Y-6386984D01*
X3039229Y-6386984D02*
X3020182Y-6377460D01*
X3020182Y-6377460D02*
X3010658Y-6367936D01*
X3201134Y-6186984D02*
X3201134Y-6225079D01*
X3277325Y-6186984D02*
X3277325Y-6225079D01*
X3572563Y-6463174D02*
X3563039Y-6453650D01*
X3563039Y-6453650D02*
X3543991Y-6425079D01*
X3543991Y-6425079D02*
X3534468Y-6406031D01*
X3534468Y-6406031D02*
X3524944Y-6377460D01*
X3524944Y-6377460D02*
X3515420Y-6329841D01*
X3515420Y-6329841D02*
X3515420Y-6291746D01*
X3515420Y-6291746D02*
X3524944Y-6244127D01*
X3524944Y-6244127D02*
X3534468Y-6215555D01*
X3534468Y-6215555D02*
X3543991Y-6196508D01*
X3543991Y-6196508D02*
X3563039Y-6167936D01*
X3563039Y-6167936D02*
X3572563Y-6158412D01*
X3734468Y-6253650D02*
X3734468Y-6386984D01*
X3686848Y-6177460D02*
X3639229Y-6320317D01*
X3639229Y-6320317D02*
X3763039Y-6320317D01*
X3877325Y-6186984D02*
X3896372Y-6186984D01*
X3896372Y-6186984D02*
X3915420Y-6196508D01*
X3915420Y-6196508D02*
X3924944Y-6206031D01*
X3924944Y-6206031D02*
X3934468Y-6225079D01*
X3934468Y-6225079D02*
X3943991Y-6263174D01*
X3943991Y-6263174D02*
X3943991Y-6310793D01*
X3943991Y-6310793D02*
X3934468Y-6348888D01*
X3934468Y-6348888D02*
X3924944Y-6367936D01*
X3924944Y-6367936D02*
X3915420Y-6377460D01*
X3915420Y-6377460D02*
X3896372Y-6386984D01*
X3896372Y-6386984D02*
X3877325Y-6386984D01*
X3877325Y-6386984D02*
X3858277Y-6377460D01*
X3858277Y-6377460D02*
X3848753Y-6367936D01*
X3848753Y-6367936D02*
X3839229Y-6348888D01*
X3839229Y-6348888D02*
X3829706Y-6310793D01*
X3829706Y-6310793D02*
X3829706Y-6263174D01*
X3829706Y-6263174D02*
X3839229Y-6225079D01*
X3839229Y-6225079D02*
X3848753Y-6206031D01*
X3848753Y-6206031D02*
X3858277Y-6196508D01*
X3858277Y-6196508D02*
X3877325Y-6186984D01*
X4182087Y-6386984D02*
X4182087Y-6186984D01*
X4267801Y-6386984D02*
X4267801Y-6282222D01*
X4267801Y-6282222D02*
X4258277Y-6263174D01*
X4258277Y-6263174D02*
X4239230Y-6253650D01*
X4239230Y-6253650D02*
X4210658Y-6253650D01*
X4210658Y-6253650D02*
X4191610Y-6263174D01*
X4191610Y-6263174D02*
X4182087Y-6272698D01*
X4391611Y-6386984D02*
X4372563Y-6377460D01*
X4372563Y-6377460D02*
X4363039Y-6367936D01*
X4363039Y-6367936D02*
X4353515Y-6348888D01*
X4353515Y-6348888D02*
X4353515Y-6291746D01*
X4353515Y-6291746D02*
X4363039Y-6272698D01*
X4363039Y-6272698D02*
X4372563Y-6263174D01*
X4372563Y-6263174D02*
X4391611Y-6253650D01*
X4391611Y-6253650D02*
X4420182Y-6253650D01*
X4420182Y-6253650D02*
X4439230Y-6263174D01*
X4439230Y-6263174D02*
X4448753Y-6272698D01*
X4448753Y-6272698D02*
X4458277Y-6291746D01*
X4458277Y-6291746D02*
X4458277Y-6348888D01*
X4458277Y-6348888D02*
X4448753Y-6367936D01*
X4448753Y-6367936D02*
X4439230Y-6377460D01*
X4439230Y-6377460D02*
X4420182Y-6386984D01*
X4420182Y-6386984D02*
X4391611Y-6386984D01*
X4572563Y-6386984D02*
X4553515Y-6377460D01*
X4553515Y-6377460D02*
X4543992Y-6358412D01*
X4543992Y-6358412D02*
X4543992Y-6186984D01*
X4724944Y-6377460D02*
X4705896Y-6386984D01*
X4705896Y-6386984D02*
X4667801Y-6386984D01*
X4667801Y-6386984D02*
X4648753Y-6377460D01*
X4648753Y-6377460D02*
X4639230Y-6358412D01*
X4639230Y-6358412D02*
X4639230Y-6282222D01*
X4639230Y-6282222D02*
X4648753Y-6263174D01*
X4648753Y-6263174D02*
X4667801Y-6253650D01*
X4667801Y-6253650D02*
X4705896Y-6253650D01*
X4705896Y-6253650D02*
X4724944Y-6263174D01*
X4724944Y-6263174D02*
X4734468Y-6282222D01*
X4734468Y-6282222D02*
X4734468Y-6301269D01*
X4734468Y-6301269D02*
X4639230Y-6320317D01*
X4810658Y-6377460D02*
X4829706Y-6386984D01*
X4829706Y-6386984D02*
X4867801Y-6386984D01*
X4867801Y-6386984D02*
X4886849Y-6377460D01*
X4886849Y-6377460D02*
X4896373Y-6358412D01*
X4896373Y-6358412D02*
X4896373Y-6348888D01*
X4896373Y-6348888D02*
X4886849Y-6329841D01*
X4886849Y-6329841D02*
X4867801Y-6320317D01*
X4867801Y-6320317D02*
X4839230Y-6320317D01*
X4839230Y-6320317D02*
X4820182Y-6310793D01*
X4820182Y-6310793D02*
X4810658Y-6291746D01*
X4810658Y-6291746D02*
X4810658Y-6282222D01*
X4810658Y-6282222D02*
X4820182Y-6263174D01*
X4820182Y-6263174D02*
X4839230Y-6253650D01*
X4839230Y-6253650D02*
X4867801Y-6253650D01*
X4867801Y-6253650D02*
X4886849Y-6263174D01*
X4963039Y-6463174D02*
X4972563Y-6453650D01*
X4972563Y-6453650D02*
X4991611Y-6425079D01*
X4991611Y-6425079D02*
X5001134Y-6406031D01*
X5001134Y-6406031D02*
X5010658Y-6377460D01*
X5010658Y-6377460D02*
X5020182Y-6329841D01*
X5020182Y-6329841D02*
X5020182Y-6291746D01*
X5020182Y-6291746D02*
X5010658Y-6244127D01*
X5010658Y-6244127D02*
X5001134Y-6215555D01*
X5001134Y-6215555D02*
X4991611Y-6196508D01*
X4991611Y-6196508D02*
X4972563Y-6167936D01*
X4972563Y-6167936D02*
X4963039Y-6158412D01*
M02*
